<?xml version="1.0" standalone="no"?>
<!DOCTYPE svg PUBLIC "-//W3C//DTD SVG 1.1//EN" "http://www.w3.org/Graphics/SVG/1.1/DTD/svg11.dtd" >
<svg xmlns="http://www.w3.org/2000/svg" xmlns:xlink="http://www.w3.org/1999/xlink" version="1.1">
<metadata>
Created by FontForge 20170731 at Mon Nov 21 14:44:59 2022
 By Aleksey,,,
Copyright (c) 1988-2020 Monotype GmbH. All rights reserved.
</metadata>
<defs>
<font id="AvenirNextGeorgian-Light" horiz-adv-x="0" >
  <font-face 
    font-family="Avenir Next Georgian Light"
    font-weight="300"
    font-stretch="normal"
    units-per-em="2048"
    panose-1="2 11 4 3 2 2 2 2 2 4"
    ascent="1552"
    descent="-496"
    x-height="954"
    cap-height="1450"
    bbox="-414 -543 2152 2359"
    underline-thickness="102"
    underline-position="-307"
    unicode-range="U+000D-FEFF"
  />
<missing-glyph horiz-adv-x="1048" 
d="M1049 0h-1049v1470h1049v-1470zM102 1366v-1264h844v1264h-844zM555 479h-94q-4 24 -4 35q0 115 26 166q33 64 95 121q64 59 83 93.5t19 76.5q0 73 -46 123.5t-110 50.5q-67 0 -112 -47.5t-56 -147.5l-102 17q13 141 87 210.5t189 69.5q110 0 182 -74t72 -194
q0 -70 -26.5 -123.5t-102.5 -122.5q-77 -68 -88 -106q-12 -41 -12 -148zM569 240h-114v137h114v-137z" />
    <glyph glyph-name="fi" unicode="fi" horiz-adv-x="1083" 
d="M344 0h-113v860h-198v94h198v285q0 163 79.5 248.5t221.5 85.5q66 0 109 -14l-18 -93q-42 11 -93 11q-54 0 -92 -19.5t-57.5 -55.5t-28 -78t-8.5 -97v-273h234v-94h-234v-860zM834 1249q-32 0 -57 24t-25 60t25 60t57 24q33 0 58.5 -24t25.5 -60t-25.5 -60t-58.5 -24z
M891 0h-113v954h113v-954z" />
    <glyph glyph-name="fl" unicode="fl" horiz-adv-x="1083" 
d="M344 0h-113v860h-198v94h198v285q0 163 79.5 248.5t221.5 85.5q66 0 109 -14l-18 -93q-42 11 -93 11q-54 0 -92 -19.5t-57.5 -55.5t-28 -78t-8.5 -97v-273h234v-94h-234v-860zM889 0h-111v1548h111v-1548z" />
    <glyph glyph-name=".notdef" horiz-adv-x="1048" 
d="M1049 0h-1049v1470h1049v-1470zM102 1366v-1264h844v1264h-844zM555 479h-94q-4 24 -4 35q0 115 26 166q33 64 95 121q64 59 83 93.5t19 76.5q0 73 -46 123.5t-110 50.5q-67 0 -112 -47.5t-56 -147.5l-102 17q13 141 87 210.5t189 69.5q110 0 182 -74t72 -194
q0 -70 -26.5 -123.5t-102.5 -122.5q-77 -68 -88 -106q-12 -41 -12 -148zM569 240h-114v137h114v-137z" />
    <glyph glyph-name=".null" 
 />
    <glyph glyph-name="nonmarkingreturn" horiz-adv-x="682" 
 />
    <glyph glyph-name="NULL" 
 />
    <glyph glyph-name="NULL" 
 />
    <glyph glyph-name="CR" unicode="&#xd;" horiz-adv-x="512" 
 />
    <glyph glyph-name="space" unicode=" " horiz-adv-x="512" 
 />
    <glyph glyph-name="exclam" unicode="!" horiz-adv-x="638" 
d="M379 395h-117v1055h117v-1055zM319 -12q-39 0 -65.5 28t-26.5 64q0 39 26.5 66.5t65.5 27.5t66 -27.5t27 -66.5q0 -36 -27 -64t-66 -28z" />
    <glyph glyph-name="quotedbl" unicode="&#x22;" horiz-adv-x="829" 
d="M315 973h-98v477h98v-477zM612 973h-100v477h100v-477z" />
    <glyph glyph-name="quotedbl" unicode="&#x2033;" horiz-adv-x="829" 
d="M315 973h-98v477h98v-477zM612 973h-100v477h100v-477z" />
    <glyph glyph-name="numbersign" unicode="#" horiz-adv-x="1134" 
d="M319 0h-98l62 455h-215v96h227l49 352h-223v96h237l60 451h98l-59 -451h295l61 451h98l-59 -451h197v-96h-211l-47 -352h204v-96h-219l-61 -455h-99l62 455h-297zM442 903l-47 -352h295l47 352h-295z" />
    <glyph glyph-name="dollar" unicode="$" horiz-adv-x="1179" 
d="M602 -172h-72v147q-273 15 -430 191l86 74q128 -153 344 -168v620q-101 32 -170.5 65.5t-122 80.5t-77.5 109.5t-25 144.5q0 162 113.5 265.5t281.5 115.5v147h72v-145q267 -10 397 -158l-81 -74q-101 127 -316 137v-600q76 -24 130.5 -45.5t113.5 -56.5t95 -75.5
t59.5 -99.5t23.5 -132q0 -120 -58 -209.5t-152 -135.5t-212 -51v-147zM530 803v575q-119 -8 -201.5 -84.5t-82.5 -197.5q0 -110 66 -175t218 -118zM602 670v-600q133 8 221 85.5t88 215.5q0 111 -74 179t-235 120z" />
    <glyph glyph-name="percent" unicode="%" horiz-adv-x="1697" 
d="M1346 1466l-916 -1527l-84 45l918 1527zM436 774q-148 0 -249 101t-101 247q0 148 101 249.5t249 101.5q146 0 247 -101.5t101 -249.5q0 -146 -101 -247t-247 -101zM436 872q102 0 175 72t73 178t-73 179t-175 73q-104 0 -177 -73t-73 -179t73 -178t177 -72zM1262 -23
q-146 0 -247.5 101.5t-101.5 247.5t101.5 247t247.5 101t248 -101t102 -247t-102 -247.5t-248 -101.5zM1262 76q104 0 176.5 72t72.5 178t-72.5 179t-176.5 73q-102 0 -175 -73t-73 -179t73 -178t175 -72z" />
    <glyph glyph-name="ampersand" unicode="&#x26;" horiz-adv-x="1441" 
d="M555 -29q-122 0 -220 46.5t-157 139.5t-59 218q0 152 88 254t250 178q-88 94 -134.5 176t-46.5 170q0 153 99 243.5t250 90.5q143 0 239.5 -86t96.5 -227q0 -56 -19 -106t-48 -88.5t-75.5 -75.5t-90.5 -63.5t-103 -56.5l368 -385l211 377h131l-262 -452l309 -324h-159
l-215 227q-90 -131 -199.5 -193.5t-253.5 -62.5zM557 854q66 32 110 59.5t89 66t67.5 86t22.5 103.5q0 97 -63 159.5t-158 62.5q-101 0 -167.5 -66t-66.5 -172q0 -137 166 -299zM561 70q118 0 207 58.5t162 174.5l-406 428q-140 -65 -214 -151.5t-74 -206.5
q0 -134 94 -218.5t231 -84.5z" />
    <glyph glyph-name="quotesingle" unicode="'" horiz-adv-x="532" 
d="M315 973h-98v477h98v-477z" />
    <glyph glyph-name="quotesingle" unicode="&#x2032;" horiz-adv-x="532" 
d="M315 973h-98v477h98v-477z" />
    <glyph glyph-name="parenleft" unicode="(" horiz-adv-x="614" 
d="M467 -270l-88 -54q-133 194 -210 429.5t-77 484.5q0 252 78 493.5t209 419.5l88 -53q-121 -169 -194.5 -400t-73.5 -460q0 -228 72.5 -454.5t195.5 -405.5z" />
    <glyph glyph-name="parenright" unicode=")" horiz-adv-x="614" 
d="M233 -324l-88 54q121 170 195 401t74 459t-74 459t-195 401l88 53q131 -179 210 -420.5t79 -492.5t-79 -493.5t-210 -420.5z" />
    <glyph glyph-name="asterisk" unicode="*" horiz-adv-x="909" 
d="M455 997l-195 -266l-78 60l193 260l-303 94l32 92l302 -96v309h98v-309l301 96l33 -92l-303 -94l192 -260l-78 -60z" />
    <glyph glyph-name="plus" unicode="+" horiz-adv-x="1363" 
d="M733 109h-100v464h-459v97h459v465h100v-465h457v-97h-457v-464z" />
    <glyph glyph-name="comma" unicode="," horiz-adv-x="520" 
d="M201 -285h-92l131 478h116z" />
    <glyph glyph-name="hyphen" unicode="-" horiz-adv-x="643" 
d="M537 457h-431v94h431v-94z" />
    <glyph glyph-name="period" unicode="." horiz-adv-x="520" 
d="M260 -12q-39 0 -65.5 27.5t-26.5 66.5q0 36 26.5 64t65.5 28t65.5 -28t26.5 -64q0 -39 -26.5 -66.5t-65.5 -27.5z" />
    <glyph glyph-name="slash" unicode="/" horiz-adv-x="757" 
d="M737 1456l-620 -1491l-97 31l625 1493z" />
    <glyph glyph-name="zero" unicode="0" horiz-adv-x="1175" 
d="M588 -33q-77 0 -141.5 23t-112 63t-84.5 97.5t-61 122.5t-39.5 142t-22 152t-6.5 156q0 82 6.5 157.5t22 152.5t39.5 142.5t61 123t84.5 98t112 63.5t141.5 23q89 0 161.5 -30.5t122.5 -86t86.5 -126.5t57 -158.5t30 -175t9.5 -183.5q0 -115 -13 -218t-46.5 -203.5
t-85 -173t-134 -117t-188.5 -44.5zM588 68q70 0 126 29.5t93.5 82t64 116t40.5 140t20 146t6 141.5q0 89 -8.5 172.5t-32 174.5t-61 158t-101.5 110.5t-147 43.5q-84 0 -148 -43.5t-101.5 -110.5t-61 -158.5t-31.5 -174.5t-8 -172q0 -61 4 -120t14.5 -125.5t27.5 -124
t44.5 -111t63 -91.5t86 -60.5t110.5 -22.5z" />
    <glyph glyph-name="one" unicode="1" horiz-adv-x="1175" 
d="M705 0h-117v1307l-266 -228l-70 82l348 289h105v-1450z" />
    <glyph glyph-name="two" unicode="2" horiz-adv-x="1175" 
d="M1006 0h-893v123l567 598q94 99 145.5 187.5t51.5 183.5q0 130 -86.5 211t-212.5 81q-116 0 -200 -70t-112 -186l-114 25q34 148 150.5 239t275.5 91q116 0 209.5 -44t150.5 -133t57 -208q0 -67 -17.5 -127t-55 -118.5t-76 -105t-101.5 -112.5l-507 -531h768v-104z" />
    <glyph glyph-name="three" unicode="3" horiz-adv-x="1175" 
d="M553 -33q-304 0 -436 271l96 49q52 -107 139 -163t201 -56q144 0 239 90t95 237q0 66 -22.5 120.5t-60.5 90t-88.5 60t-104.5 35t-111 10.5h-60v100h60q96 0 171 28t124 94.5t49 164.5q0 126 -85.5 206t-209.5 80q-92 0 -160 -38.5t-125 -124.5l-88 57q130 205 377 205
q173 0 289 -102t116 -277q0 -127 -72 -218.5t-194 -119.5v-4q143 -28 227.5 -127t84.5 -240q0 -191 -126.5 -309.5t-324.5 -118.5z" />
    <glyph glyph-name="four" unicode="4" horiz-adv-x="1175" 
d="M868 0h-114v358h-668v117l627 975h155v-989h222v-103h-222v-358zM750 1319l-543 -858h547v858h-4z" />
    <glyph glyph-name="five" unicode="5" horiz-adv-x="1175" 
d="M545 -33q-283 0 -414 238l96 55q57 -99 132.5 -145.5t179.5 -46.5q150 0 253 102t103 266q0 165 -104.5 267t-272.5 102q-147 0 -293 -78l15 723h714v-104h-606l-12 -484q89 39 215 39q204 0 333.5 -127t129.5 -328q0 -214 -133 -346.5t-336 -132.5z" />
    <glyph glyph-name="six" unicode="6" horiz-adv-x="1175" 
d="M588 -33q-200 0 -328.5 126t-128.5 325q0 179 127 389l391 643h135l-415 -664l4 -4q38 36 104.5 58t134.5 22q187 0 311 -125t124 -319q0 -199 -129.5 -325t-329.5 -126zM588 66q150 0 246 100t96 252q0 151 -94 250.5t-244 99.5q-152 0 -249 -99.5t-97 -250.5
q0 -152 96 -252t246 -100z" />
    <glyph glyph-name="seven" unicode="7" horiz-adv-x="1175" 
d="M406 0h-132l605 1346h-721v104h837v-111z" />
    <glyph glyph-name="eight" unicode="8" horiz-adv-x="1175" 
d="M588 -33q-124 0 -227.5 50t-165.5 146t-62 220q0 140 77.5 245t207.5 142v4q-104 36 -167 129t-63 203q0 167 116 272t284 105t283.5 -105t115.5 -272q0 -111 -62.5 -203.5t-166.5 -128.5v-4q132 -38 208 -142.5t76 -244.5q0 -186 -131.5 -301t-322.5 -115zM588 821
q121 0 202.5 80t81.5 199q0 124 -81 204t-203 80t-203.5 -80t-81.5 -204q0 -119 82 -199t203 -80zM588 66q150 0 244 93t94 234t-95.5 233.5t-242.5 92.5t-242.5 -92.5t-95.5 -233.5t94 -234t244 -93z" />
    <glyph glyph-name="nine" unicode="9" horiz-adv-x="1175" 
d="M528 0h-135l418 668l-4 4q-38 -36 -105.5 -58t-136.5 -22q-187 0 -310.5 124t-123.5 318q0 197 130.5 323t330.5 126t327.5 -125t127.5 -324q0 -183 -125 -387zM588 686q151 0 247.5 99t96.5 249q0 152 -96 251t-246 99t-246 -99t-96 -251q0 -151 94 -249.5t246 -98.5z
" />
    <glyph glyph-name="colon" unicode=":" horiz-adv-x="602" 
d="M301 776q-39 0 -65.5 27.5t-26.5 64.5q0 38 26.5 66.5t65.5 28.5t65.5 -28.5t26.5 -66.5q0 -37 -26.5 -64.5t-65.5 -27.5zM301 -12q-39 0 -65.5 27.5t-26.5 66.5q0 36 26.5 64t65.5 28t65.5 -28t26.5 -64q0 -39 -26.5 -66.5t-65.5 -27.5z" />
    <glyph glyph-name="semicolon" unicode=";" horiz-adv-x="602" 
d="M301 776q-39 0 -65.5 27.5t-26.5 64.5q0 38 26.5 66.5t65.5 28.5t65.5 -28.5t26.5 -66.5q0 -37 -26.5 -64.5t-65.5 -27.5zM229 -285h-96l131 478h121z" />
    <glyph glyph-name="less" unicode="&#x3c;" horiz-adv-x="1363" 
d="M1190 201v-101l-1016 480v82l1016 479v-101l-893 -419z" />
    <glyph glyph-name="equal" unicode="=" horiz-adv-x="1363" 
d="M1190 733h-1016v96h1016v-96zM1190 412h-1016v98h1016v-98z" />
    <glyph glyph-name="greater" unicode="&#x3e;" horiz-adv-x="1363" 
d="M1190 580l-1016 -480v101l893 420l-893 419v101l1016 -479v-82z" />
    <glyph glyph-name="question" unicode="?" horiz-adv-x="980" 
d="M547 397h-115v119q0 96 40 165.5t118 137.5l61 53q61 53 93 108t32 136q0 121 -79 190.5t-197 69.5q-116 0 -193 -70.5t-96 -185.5l-111 21q31 157 139.5 247.5t264.5 90.5q168 0 278.5 -95.5t110.5 -261.5q0 -63 -13 -113t-43 -91t-56.5 -67t-73.5 -65
q-66 -55 -97.5 -91.5t-47 -83.5t-15.5 -119v-95zM502 -12q-40 0 -66 27.5t-26 64.5q0 39 26 66.5t66 27.5q38 0 64 -27.5t26 -66.5q0 -37 -25.5 -64.5t-64.5 -27.5z" />
    <glyph glyph-name="at" unicode="@" horiz-adv-x="1638" 
d="M856 -39q-172 0 -317.5 58t-246 159.5t-156.5 242.5t-56 304q0 159 61 301t164.5 243.5t246.5 160.5t302 59q145 0 274.5 -44t228.5 -125t157.5 -206.5t58.5 -277.5q0 -234 -113 -371t-286 -137q-86 0 -130.5 43.5t-44.5 115.5h-6q-30 -60 -100 -109.5t-162 -49.5
q-130 0 -204 88.5t-74 226.5q0 119 48.5 228t143.5 182t215 73q81 0 137.5 -39t75.5 -102h8l27 109h102l-100 -412q-20 -92 -20 -152q0 -106 108 -106q81 0 142 55.5t91.5 145.5t30.5 200q0 172 -79.5 300.5t-216.5 194.5t-314 66q-189 0 -339 -89.5t-231 -241t-81 -336.5
q0 -193 83.5 -343t235 -233.5t346.5 -83.5q334 0 561 234l62 -74q-117 -126 -279 -192t-354 -66zM745 424q71 0 128.5 41.5t90 104.5t49.5 128t17 121q0 90 -41.5 149.5t-132.5 59.5q-65 0 -120.5 -36.5t-90.5 -94t-54.5 -125.5t-19.5 -135q0 -37 9 -72.5t28 -68t54.5 -52.5
t82.5 -20z" />
    <glyph glyph-name="A" unicode="A" horiz-adv-x="1413" 
d="M653 1450h117l616 -1450h-129l-163 391h-777l-163 -391h-129zM709 1329l-349 -831h691z" />
    <glyph glyph-name="B" unicode="B" horiz-adv-x="1288" 
d="M635 0h-434v1450h420q70 0 133 -10t124.5 -36t106 -66t71.5 -104.5t27 -146.5q0 -122 -75 -207t-193 -112v-4q142 -15 240 -111t98 -256q0 -190 -144 -293.5t-374 -103.5zM317 1350v-543h312q63 0 120 14.5t107 45t79.5 85t29.5 127.5q0 72 -29 126t-81 84.5t-116 45.5
t-141 15h-281zM317 709v-609h306q87 0 159.5 17t130 52.5t89.5 94.5t32 137q0 153 -106 230.5t-281 77.5h-330z" />
    <glyph glyph-name="C" unicode="C" horiz-adv-x="1476" 
d="M872 -39q-215 0 -386 98.5t-266 273t-95 392.5q0 163 56.5 305.5t155.5 243t238 158t299 57.5q159 0 290.5 -55t209.5 -156l-84 -78q-65 82 -175 133t-238 51q-188 0 -333 -90.5t-220.5 -239.5t-75.5 -329q0 -133 44.5 -253t124.5 -210t199.5 -143t260.5 -53
q135 0 242.5 48.5t201.5 164.5l80 -64q-194 -254 -529 -254z" />
    <glyph glyph-name="D" unicode="D" horiz-adv-x="1558" 
d="M659 0h-458v1450h458q118 0 230 -28t211 -87t173 -143t117.5 -204.5t43.5 -262.5t-43.5 -262.5t-117.5 -204.5t-173 -143t-211 -87t-230 -28zM317 1346v-1242h312q159 0 289 47.5t215.5 131t131.5 197t46 245.5q0 133 -46 246.5t-131.5 197t-215.5 130.5t-289 47h-312z
" />
    <glyph glyph-name="E" unicode="E" horiz-adv-x="1210" 
d="M1110 0h-909v1450h882v-104h-768v-541h719v-103h-719v-598h795v-104z" />
    <glyph glyph-name="F" unicode="F" horiz-adv-x="1148" 
d="M317 0h-116v1450h860v-104h-744v-543h691v-103h-691v-700z" />
    <glyph glyph-name="G" unicode="G" horiz-adv-x="1605" 
d="M883 -39q-219 0 -392.5 99.5t-269.5 274t-96 392.5q0 216 97.5 390.5t270.5 273t388 98.5q313 0 505 -189l-73 -79q-78 78 -190 120.5t-242 42.5q-189 0 -335 -90.5t-222 -239t-76 -327.5q0 -134 44.5 -253.5t124.5 -210.5t201.5 -144t266.5 -53q250 0 415 98v479h-348
v102h465v-647q-228 -137 -534 -137z" />
    <glyph glyph-name="H" unicode="H" horiz-adv-x="1478" 
d="M317 0h-116v1450h116v-643h846v643h117v-1450h-117v698h-846v-698z" />
    <glyph glyph-name="I" unicode="I" horiz-adv-x="516" 
d="M317 0h-116v1450h116v-1450z" />
    <glyph glyph-name="J" unicode="J" horiz-adv-x="999" 
d="M430 -37q-145 0 -246 76.5t-131 198.5l109 30q24 -89 92.5 -145.5t163.5 -56.5q76 0 131.5 28t86 78.5t44.5 111.5t14 136v1030h117v-1038q0 -68 -11 -129t-38.5 -120.5t-69.5 -103t-109.5 -70t-152.5 -26.5z" />
    <glyph glyph-name="K" unicode="K" horiz-adv-x="1247" 
d="M317 0h-116v1450h116v-653h2l701 653h168l-733 -659l772 -791h-170l-738 772h-2v-772z" />
    <glyph glyph-name="L" unicode="L" horiz-adv-x="1036" 
d="M1006 0h-805v1450h116v-1346h689v-104z" />
    <glyph glyph-name="M" unicode="M" horiz-adv-x="1826" 
d="M915 197l531 1253h180v-1450h-117v1300h-4l-559 -1300h-65l-559 1300h-5v-1300h-116v1450h180z" />
    <glyph glyph-name="N" unicode="N" horiz-adv-x="1572" 
d="M317 0h-116v1450h147l903 -1282h4v1282h117v-1450h-147l-903 1290h-5v-1290z" />
    <glyph glyph-name="O" unicode="O" horiz-adv-x="1755" 
d="M877 -39q-212 0 -384 98t-270 273t-98 393t98 393t270 273t384 98q160 0 299.5 -57.5t239 -158t157 -243t57.5 -305.5t-57.5 -305.5t-157 -243t-239 -158t-299.5 -57.5zM877 66q188 0 333.5 91t221 240t75.5 328q0 180 -76 329t-221.5 239.5t-332.5 90.5
q-140 0 -259 -52.5t-199.5 -142.5t-125.5 -210t-45 -254q0 -133 44.5 -253t125 -210t199.5 -143t260 -53z" />
    <glyph glyph-name="P" unicode="P" horiz-adv-x="1183" 
d="M317 0h-116v1450h403q104 0 189 -22t150.5 -67t101.5 -119t36 -171q0 -186 -129 -285.5t-342 -99.5h-293v-686zM317 1350v-566h287q166 0 263.5 73t97.5 214t-98.5 210t-264.5 69h-285z" />
    <glyph glyph-name="Q" unicode="Q" horiz-adv-x="1751" 
d="M1690 0h-830q-206 0 -374 94t-264.5 264t-96.5 383t95 384t264 267.5t378 96.5q155 0 291.5 -57t234 -155.5t153.5 -237.5t56 -298q0 -208 -105 -379.5t-286 -252.5v-5h484v-104zM862 102q137 0 254.5 53t195.5 141.5t121.5 204t43.5 240.5q0 129 -44 246t-123 205
t-195.5 140t-252.5 52q-138 0 -254.5 -51.5t-194.5 -139.5t-121.5 -205t-43.5 -247q0 -129 43.5 -245t121.5 -203.5t194.5 -139t254.5 -51.5z" />
    <glyph glyph-name="R" unicode="R" horiz-adv-x="1224" 
d="M317 0h-116v1450h417q105 0 189 -19.5t152 -62t105.5 -118t37.5 -179.5q0 -84 -31 -152.5t-85 -113t-122.5 -71t-146.5 -32.5l428 -702h-141l-414 694h-273v-694zM317 1350v-555h285q185 0 284 70.5t99 205.5q0 279 -385 279h-283z" />
    <glyph glyph-name="S" unicode="S" horiz-adv-x="1159" 
d="M565 -39q-278 0 -438 209l82 72q151 -179 356 -179q65 0 125.5 20t110 57t79 95.5t29.5 129.5q0 33 -6.5 62.5t-16.5 53t-29 45t-35 37.5t-44.5 32.5t-48.5 26.5t-55.5 24t-56.5 21.5t-60 20.5q-44 15 -67 23.5t-64 24.5t-64 28.5t-56 33t-52.5 40.5t-42 48t-34 58.5
t-19.5 69t-8 82.5q0 97 40 174t106.5 123.5t146.5 71t165 24.5q135 0 236.5 -47.5t161.5 -124.5l-84 -76q-123 148 -320 148q-61 0 -119.5 -18.5t-107.5 -53t-79 -92t-30 -129.5q0 -33 7 -62t16 -52t28.5 -44.5t35 -36.5t45 -31.5t48 -26t55 -23.5t56 -20.5t59.5 -19.5
q45 -15 68 -22.5t64.5 -24t64.5 -28.5t57 -32.5t53 -40t42 -48t35 -59t20 -70t8 -84.5q0 -101 -39.5 -181t-106 -129t-147.5 -74.5t-170 -25.5z" />
    <glyph glyph-name="T" unicode="T" horiz-adv-x="1148" 
d="M633 0h-117v1346h-487v104h1091v-104h-487v-1346z" />
    <glyph glyph-name="U" unicode="U" horiz-adv-x="1468" 
d="M733 -39q-123 0 -220 35.5t-156.5 92.5t-98.5 135t-54.5 156t-15.5 163v907h117v-893q0 -74 11.5 -140t42 -132t77.5 -113t123 -76.5t174 -29.5q97 0 173 29t123.5 75.5t78.5 112t43 132.5t12 142v893h117v-907q0 -85 -15.5 -163t-54.5 -156t-99 -135t-157 -92.5
t-221 -35.5z" />
    <glyph glyph-name="V" unicode="V" horiz-adv-x="1265" 
d="M696 0h-131l-551 1450h127l490 -1305h4l489 1305h125z" />
    <glyph glyph-name="W" unicode="W" horiz-adv-x="1980" 
d="M608 0h-141l-430 1450h123l377 -1296h4l377 1296h145l379 -1296h6l373 1296h123l-431 -1450h-141l-381 1294h-4z" />
    <glyph glyph-name="X" unicode="X" horiz-adv-x="1292" 
d="M195 0h-146l526 762l-479 688h146l405 -598l402 598h137l-473 -686l530 -764h-145l-453 670z" />
    <glyph glyph-name="Y" unicode="Y" horiz-adv-x="1193" 
d="M600 727l449 723h135l-529 -823v-627h-116v627l-531 823h146z" />
    <glyph glyph-name="Z" unicode="Z" horiz-adv-x="1185" 
d="M1114 0h-1036v102l878 1244h-856v104h998v-104l-877 -1242h893v-104z" />
    <glyph glyph-name="bracketleft" unicode="[" horiz-adv-x="614" 
d="M451 -319h-318v1818h318v-90h-211v-1638h211v-90z" />
    <glyph glyph-name="backslash" unicode="\" horiz-adv-x="757" 
d="M737 -4l-94 -31l-623 1491l95 33z" />
    <glyph glyph-name="bracketright" unicode="]" horiz-adv-x="614" 
d="M481 -319h-317v90h211v1638h-211v90h317v-1818z" />
    <glyph glyph-name="asciicircum" unicode="^" horiz-adv-x="1363" 
d="M276 543h-102l467 907h82l467 -907h-103l-405 796z" />
    <glyph glyph-name="underscore" unicode="_" horiz-adv-x="1024" 
d="M1024 -250h-1024v84h1024v-84z" />
    <glyph glyph-name="grave" unicode="`" horiz-adv-x="491" 
d="M354 1155h-96l-260 295h147z" />
    <glyph glyph-name="a" unicode="a" horiz-adv-x="1079" 
d="M446 -27q-58 0 -113.5 16.5t-104.5 49t-79 89.5t-30 130q0 66 22.5 118.5t65 86.5t94.5 57.5t121 35.5t133.5 17t142.5 5h97v43q0 133 -70 199.5t-201 66.5q-81 0 -155.5 -30.5t-128.5 -82.5l-62 74q61 60 155.5 95.5t201.5 35.5q165 0 265.5 -88.5t100.5 -257.5v-418
q0 -125 17 -215h-101q-16 98 -16 176h-4q-114 -203 -351 -203zM473 66q80 0 143 29.5t101.5 79t58 110t19.5 127.5v77h-72q-62 0 -113.5 -3t-111 -11t-104 -24t-82.5 -40t-58.5 -61.5t-20.5 -85.5q0 -54 21 -94t57 -61.5t76.5 -32t85.5 -10.5z" />
    <glyph glyph-name="b" unicode="b" horiz-adv-x="1298" 
d="M692 -27q-116 0 -220 56.5t-161 158.5h-6v-188h-110v1548h110v-788h6q60 105 162.5 162t218.5 57q217 0 352.5 -142.5t135.5 -359.5q0 -142 -60.5 -256.5t-172.5 -181t-255 -66.5zM682 70q175 0 278 116.5t103 290.5t-103.5 292t-277.5 118q-167 0 -278 -118.5
t-111 -291.5t110.5 -290t278.5 -117z" />
    <glyph glyph-name="c" unicode="c" horiz-adv-x="1011" 
d="M612 -27q-222 0 -356.5 141.5t-134.5 362.5q0 218 137.5 360t355.5 142q103 0 192 -38t148 -112l-73 -67q-42 55 -115 88t-150 33q-170 0 -275 -116t-105 -290q0 -173 104 -288t272 -115t279 114l70 -63q-133 -152 -349 -152z" />
    <glyph glyph-name="d" unicode="d" horiz-adv-x="1298" 
d="M606 -27q-143 0 -254.5 66.5t-172 181t-60.5 256.5q0 215 136 358.5t351 143.5q116 0 218.5 -57t162.5 -162h4v788h113v-1548h-113v188h-4q-60 -102 -163 -158.5t-218 -56.5zM616 70q168 0 278 117t110 290t-110.5 291.5t-277.5 118.5q-174 0 -277 -118t-103 -292
q0 -175 102.5 -291t277.5 -116z" />
    <glyph glyph-name="e" unicode="e" horiz-adv-x="1161" 
d="M602 -27q-209 0 -346 144t-137 362q0 215 136 357.5t337 142.5q109 0 196 -37.5t141.5 -102.5t83.5 -148.5t29 -178.5v-57h-809q3 -158 106.5 -271.5t266.5 -113.5q104 0 181.5 40t146.5 121l74 -59q-154 -199 -406 -199zM236 543h696q-6 154 -97 249t-245 95
q-77 0 -144 -31.5t-111 -81.5t-70 -110.5t-29 -120.5z" />
    <glyph glyph-name="f" unicode="f" horiz-adv-x="595" 
d="M344 0h-113v860h-198v94h198v285q0 163 79.5 248.5t221.5 85.5q66 0 109 -14l-18 -93q-42 11 -93 11q-54 0 -92 -19.5t-57.5 -55.5t-28 -78t-8.5 -97v-273h234v-94h-234v-860z" />
    <glyph glyph-name="g" unicode="g" horiz-adv-x="1290" 
d="M600 -498q-131 0 -248 50t-200 139l71 76q73 -77 173 -121.5t208 -44.5q85 0 152 22.5t110.5 61t72 93t40.5 115t12 130.5v186h-4q-54 -102 -159 -159.5t-222 -57.5q-216 0 -351.5 138t-135.5 351q0 138 60.5 251t172.5 180t254 67q117 0 220.5 -57.5t160.5 -161.5h4v194
h113v-931q0 -77 -13.5 -146.5t-49 -139.5t-90.5 -120.5t-145 -82.5t-206 -32zM616 86q168 0 278 113.5t110 285.5q0 164 -111 283t-277 119q-116 0 -204 -56t-132 -146.5t-44 -199.5q0 -168 103 -283.5t277 -115.5z" />
    <glyph glyph-name="h" unicode="h" horiz-adv-x="1185" 
d="M305 0h-110v1548h110v-780h4q46 102 136.5 156.5t199.5 54.5q179 0 269 -109t90 -288v-582h-111v541q0 344 -272 344q-63 0 -119 -25.5t-100.5 -74t-70.5 -126t-26 -174.5v-485z" />
    <glyph glyph-name="i" unicode="i" horiz-adv-x="497" 
d="M248 1249q-32 0 -57 24t-25 60t25 60t57 24q33 0 58.5 -24t25.5 -60t-25.5 -60t-58.5 -24zM305 0h-112v954h112v-954z" />
    <glyph glyph-name="j" unicode="j" horiz-adv-x="499" 
d="M250 1249q-32 0 -57 24t-25 60t25 60t57 24q33 0 58.5 -24t25.5 -60q0 -35 -26 -59.5t-58 -24.5zM47 -492q-58 0 -96 13l16 92q42 -10 78 -10q39 0 66.5 11.5t43.5 30t25.5 48.5t12 59t2.5 70v1132h110v-1147q0 -67 -11.5 -117.5t-39.5 -93.5t-80 -65.5t-127 -22.5z" />
    <glyph glyph-name="k" unicode="k" horiz-adv-x="1005" 
d="M305 0h-110v1548h110v-1028h6l455 434h160l-488 -438l539 -516h-164l-502 502h-6v-502z" />
    <glyph glyph-name="l" unicode="l" horiz-adv-x="499" 
d="M305 0h-110v1548h110v-1548z" />
    <glyph glyph-name="m" unicode="m" horiz-adv-x="1812" 
d="M305 0h-112v735q0 124 -9 219h107q8 -106 8 -190h4q41 97 130.5 156t191.5 59q230 0 305 -227h4q46 109 135 168t207 59q177 0 265.5 -109.5t88.5 -287.5v-582h-110v541q0 74 -14 134t-43.5 109t-81 76t-121.5 27q-96 0 -164.5 -54t-100.5 -140.5t-32 -194.5v-498h-113
v561q0 71 -11 126t-37 102t-75.5 72.5t-120.5 25.5q-123 0 -212 -106.5t-89 -295.5v-485z" />
    <glyph glyph-name="n" unicode="n" horiz-adv-x="1183" 
d="M305 0h-112v735q0 124 -9 219h107q8 -106 8 -190h4q41 97 137 156t205 59q179 0 267.5 -109t88.5 -288v-582h-110v541q0 344 -270 344q-133 0 -224.5 -105t-91.5 -295v-485z" />
    <glyph glyph-name="o" unicode="o" horiz-adv-x="1247" 
d="M623 -27q-220 0 -361 143t-141 361q0 219 140.5 360.5t361.5 141.5q222 0 362.5 -141.5t140.5 -360.5q0 -218 -141 -361t-362 -143zM623 74q176 0 282.5 114.5t106.5 288.5t-106.5 290t-282.5 116q-175 0 -281 -116t-106 -290t106 -288.5t281 -114.5z" />
    <glyph glyph-name="p" unicode="p" horiz-adv-x="1294" 
d="M303 -492h-110v1446h110v-190h6q59 106 160 160.5t219 54.5q217 0 353.5 -143t136.5 -359q0 -142 -59.5 -256.5t-171.5 -181t-255 -66.5q-118 0 -222.5 54t-160.5 157h-6v-676zM678 70q175 0 278 116.5t103 290.5t-103.5 292t-277.5 118q-166 0 -275.5 -118.5
t-109.5 -291.5t109.5 -290t275.5 -117z" />
    <glyph glyph-name="q" unicode="q" horiz-adv-x="1294" 
d="M1104 -492h-113v680h-6q-56 -100 -160 -157.5t-219 -57.5q-143 0 -254.5 66.5t-172 181t-60.5 256.5q0 217 135 359.5t352 142.5q116 0 218 -57t161 -162h6v194h113v-1446zM616 70q166 0 275.5 117t109.5 290t-109.5 291.5t-275.5 118.5q-174 0 -277 -118t-103 -292
q0 -175 102.5 -291t277.5 -116z" />
    <glyph glyph-name="r" unicode="r" horiz-adv-x="710" 
d="M305 0h-112v735q0 124 -9 219h107q8 -106 8 -190h4q39 101 124 158t189 57q51 0 76 -8l-12 -103q-32 9 -78 9q-133 0 -215 -104.5t-82 -283.5v-489z" />
    <glyph glyph-name="s" unicode="s" horiz-adv-x="890" 
d="M449 -25q-111 0 -207 45.5t-156 133.5l88 63q42 -66 115.5 -106.5t159.5 -40.5q99 0 167 46.5t68 139.5q0 21 -5.5 39t-12 32t-22.5 27.5t-26.5 22t-35 18.5t-36.5 15t-42.5 13.5t-42 11.5t-45.5 11q-50 12 -85 24t-76 33.5t-66.5 48t-42.5 68t-17 93.5q0 88 48 150
t119.5 89t158.5 27q105 0 190.5 -42.5t130.5 -119.5l-86 -61q-36 61 -98.5 96t-140.5 35q-86 0 -150.5 -42t-64.5 -124q0 -78 55 -115.5t184 -66.5q161 -36 240.5 -99.5t79.5 -175.5q0 -73 -29 -130t-79 -91t-110.5 -51t-127.5 -17z" />
    <glyph glyph-name="t" unicode="t" horiz-adv-x="641" 
d="M453 -16q-47 0 -86.5 12.5t-74 39.5t-54 76.5t-19.5 116.5v631h-201v94h199v273h113v-273h272v-94h-272v-604q0 -97 39 -136.5t112 -39.5q60 0 117 26l6 -96q-73 -26 -151 -26z" />
    <glyph glyph-name="u" unicode="u" horiz-adv-x="1183" 
d="M539 -27q-179 0 -269 109.5t-90 288.5v583h113v-540q0 -346 270 -346q63 0 119 26t100.5 74.5t70.5 126t26 174.5v485h110v-735q0 -117 10 -219h-108q-8 102 -8 188h-4q-39 -96 -135 -155.5t-205 -59.5z" />
    <glyph glyph-name="v" unicode="v" horiz-adv-x="966" 
d="M549 0h-127l-385 954h125l323 -837h4l320 837h119z" />
    <glyph glyph-name="w" unicode="w" horiz-adv-x="1499" 
d="M477 0h-125l-295 954h119l240 -815h4l272 815h113l276 -815h4l238 815h117l-295 -954h-125l-270 811h-5z" />
    <glyph glyph-name="x" unicode="x" horiz-adv-x="970" 
d="M174 0h-133l375 496l-346 458h143l272 -381l273 381h135l-342 -454l381 -500h-146l-303 420z" />
    <glyph glyph-name="y" unicode="y" horiz-adv-x="962" 
d="M498 111l307 843h121l-475 -1220q-45 -113 -109 -170.5t-170 -57.5q-47 0 -113 15l15 100q43 -16 94 -16q69 0 111 44.5t75 129.5l82 215l-399 960h125z" />
    <glyph glyph-name="z" unicode="z" horiz-adv-x="903" 
d="M827 0h-753v82l588 778h-558v94h701v-84l-586 -774h608v-96z" />
    <glyph glyph-name="braceleft" unicode="{" horiz-adv-x="614" 
d="M500 -319h-119q-99 0 -160 60.5t-61 195.5v374q0 230 -160 230v98q160 0 160 229v375q0 135 61 195.5t160 60.5h119v-90h-99q-133 0 -133 -182v-377q0 -67 -17.5 -118.5t-45.5 -79.5t-54 -42.5t-51 -17.5v-4q25 -3 51 -17.5t54 -42.5t45.5 -79.5t17.5 -118.5v-377
q0 -182 133 -182h99v-90z" />
    <glyph glyph-name="bar" unicode="|" horiz-adv-x="454" 
d="M276 -512h-98v2060h98v-2060z" />
    <glyph glyph-name="braceright" unicode="}" horiz-adv-x="614" 
d="M233 -319h-118v90h98q133 0 133 182v377q0 67 17.5 118.5t45.5 79.5t54 42.5t51 17.5v4q-25 3 -51 17.5t-54 42.5t-45.5 79.5t-17.5 118.5v377q0 182 -133 182h-98v90h118q99 0 160.5 -60.5t61.5 -195.5v-375q0 -229 159 -229v-98q-159 0 -159 -230v-374
q0 -135 -61.5 -195.5t-160.5 -60.5z" />
    <glyph glyph-name="asciitilde" unicode="~" horiz-adv-x="1363" 
d="M905 492q-63 0 -110.5 14.5t-110.5 56.5q-79 50 -123 69t-96 19q-126 0 -209 -155l-72 65q60 89 126.5 140t150.5 51q110 0 219 -72q136 -90 221 -90q115 0 209 158l70 -68q-117 -188 -275 -188z" />
    <glyph glyph-name="uni00A0" unicode="&#xa0;" horiz-adv-x="512" 
 />
    <glyph glyph-name="exclamdown" unicode="&#xa1;" horiz-adv-x="638" 
d="M319 811q-39 0 -65.5 27.5t-26.5 66.5q0 37 26.5 64.5t65.5 27.5t66 -27.5t27 -64.5q0 -39 -27 -66.5t-66 -27.5zM379 -465h-117v1055h117v-1055z" />
    <glyph glyph-name="cent" unicode="&#xa2;" horiz-adv-x="1161" 
d="M676 -154h-72v129q-201 17 -322.5 155t-121.5 347q0 210 122.5 348.5t321.5 153.5v135h72v-133q197 -9 315 -137l-78 -74q-94 105 -237 117v-815q155 7 244 106l75 -72q-59 -62 -143 -95t-176 -36v-129zM604 74v811q-149 -15 -241.5 -129.5t-92.5 -276.5
q0 -154 88 -270.5t246 -134.5z" />
    <glyph glyph-name="sterling" unicode="&#xa3;" horiz-adv-x="1175" 
d="M1018 0h-864v98h213v602h-197v99h197v217q0 96 23 178t70.5 149t129.5 105.5t192 38.5q178 0 291 -113l-72 -82q-87 94 -223 94q-69 0 -122.5 -24t-85.5 -61.5t-52 -89.5t-27.5 -101.5t-7.5 -103.5v-207h346v-99h-346v-602h535v-98z" />
    <glyph glyph-name="currency" unicode="&#xa4;" horiz-adv-x="1724" 
d="M537 227l-199 -196l-70 71l197 197q-113 131 -113 334q0 192 105 325l-189 189l72 72l188 -189q142 119 336 119q196 0 332 -117l186 187l74 -72l-184 -184q108 -137 108 -330q0 -200 -116 -338l192 -193l-72 -71l-194 192q-137 -108 -326 -108q-191 0 -327 112zM864 223
q177 0 286.5 118.5t109.5 291.5t-109 289t-287 116t-286.5 -116t-108.5 -289t109 -291.5t286 -118.5z" />
    <glyph glyph-name="yen" unicode="&#xa5;" horiz-adv-x="1175" 
d="M643 0h-111v367h-354v90h354v231h-354v88h320l-467 674h143l418 -633l414 633h139l-463 -674h315v-88h-354v-231h354v-90h-354v-367z" />
    <glyph glyph-name="brokenbar" unicode="&#xa6;" horiz-adv-x="454" 
d="M276 678h-96v704h96v-704zM276 -356h-96v704h96v-704z" />
    <glyph glyph-name="section" unicode="&#xa7;" horiz-adv-x="1175" 
d="M557 -272q-131 0 -232.5 52t-152.5 154l104 56q38 -82 114 -123t169 -41q47 0 90.5 11.5t82 35.5t62 68t23.5 102q0 79 -50 129.5t-140 89.5l-205 98q-109 48 -164 110.5t-55 172.5q0 103 65.5 175t163.5 100q-37 19 -63 38t-54 48.5t-42.5 72t-14.5 94.5q0 101 52 175
t134 108.5t181 34.5q120 0 205 -48t122 -126l-94 -53q-27 56 -88 92.5t-149 36.5q-107 0 -176.5 -55.5t-69.5 -153.5q0 -49 17 -86.5t53 -65.5t67 -44t84 -38l143 -67q115 -54 176.5 -121t61.5 -174q0 -105 -60 -176.5t-151 -96.5q168 -90 168 -260q0 -157 -108.5 -241
t-268.5 -84zM551 420l121 -53q77 12 133.5 64.5t56.5 139.5q0 48 -16 85t-50.5 64.5t-67.5 45.5t-87 41l-113 47q-37 -4 -72 -17.5t-67.5 -37.5t-52 -63.5t-19.5 -88.5q0 -37 12 -67t30 -51t51.5 -41.5t63 -34.5t77.5 -33z" />
    <glyph glyph-name="dieresis" unicode="&#xa8;" horiz-adv-x="491" 
d="M61 1243q-37 0 -62.5 27t-25.5 63q0 35 25.5 61.5t62.5 26.5q36 0 61 -26.5t25 -61.5q0 -36 -25 -63t-61 -27zM430 1243q-36 0 -61 27t-25 63q0 35 25 61.5t61 26.5q37 0 62.5 -26.5t25.5 -61.5q0 -36 -25.5 -63t-62.5 -27z" />
    <glyph glyph-name="copyright" unicode="&#xa9;" horiz-adv-x="1638" 
d="M821 -45q-159 0 -303 60.5t-248.5 162.5t-166.5 244.5t-62 300.5t62 301.5t166.5 246.5t248.5 163.5t303 60.5q158 0 301.5 -60.5t247.5 -163.5t165.5 -246.5t61.5 -301.5t-61.5 -300.5t-165.5 -244.5t-247.5 -162.5t-301.5 -60.5zM821 49q137 0 262.5 53.5t216 143.5
t144 215t53.5 262q0 138 -53.5 263.5t-144 216.5t-216 144.5t-262.5 53.5q-138 0 -264 -53.5t-217 -144.5t-145 -216.5t-54 -263.5q0 -137 54 -262t145 -215t217 -143.5t264 -53.5zM844 268q-197 0 -327 131t-130 332q0 199 130 330t327 131q94 0 180 -40.5t137 -109.5
l-86 -65q-36 49 -99 83t-130 34q-154 0 -250 -106.5t-96 -256.5q0 -152 94.5 -258t249.5 -106q152 0 246 122l84 -57q-53 -74 -140 -119t-190 -45z" />
    <glyph glyph-name="ordfeminine" unicode="&#xaa;" horiz-adv-x="731" 
d="M299 868q-38 0 -73 9.5t-67 29t-51.5 55t-19.5 82.5q0 42 16 74.5t48 53.5t69 34.5t88.5 20.5t97 9.5t103.5 2.5h4v18q0 69 -43 105.5t-117 36.5q-110 0 -180 -70l-53 62q91 84 239 84q118 0 181 -60.5t63 -161.5v-252q0 -77 8 -118h-86q-10 45 -10 98h-4
q-67 -113 -213 -113zM322 944q88 0 140 53.5t52 135.5v38h-31q-63 0 -108.5 -4t-93 -16t-72.5 -38t-25 -66q0 -54 40 -78.5t98 -24.5z" />
    <glyph glyph-name="guillemotleft" unicode="&#xab;" horiz-adv-x="987" 
d="M479 123l-78 -53l-276 419l274 420l78 -53l-233 -367zM842 123l-78 -53l-277 419l275 420l78 -53l-234 -367z" />
    <glyph glyph-name="logicalnot" unicode="&#xac;" horiz-adv-x="1363" 
d="M1196 268h-100v465h-926v96h1026v-561z" />
    <glyph glyph-name="uni00AD" unicode="&#xad;" horiz-adv-x="643" 
d="M537 457h-431v94h431v-94z" />
    <glyph glyph-name="registered" unicode="&#xae;" horiz-adv-x="1228" 
d="M614 549q-194 0 -330.5 134t-136.5 327t136.5 329t330.5 136t330.5 -136t136.5 -329t-136.5 -327t-330.5 -134zM614 608q165 0 283.5 118.5t118.5 283.5q0 166 -118 283.5t-284 117.5t-283.5 -117.5t-117.5 -283.5q0 -165 118 -283.5t283 -118.5zM518 752h-78v522h181
q82 0 134 -37.5t52 -114.5q0 -58 -34.5 -94t-90.5 -45l145 -231h-96l-131 221h-82v-221zM518 1206v-170h84q127 0 127 88q0 45 -32.5 63.5t-78.5 18.5h-100z" />
    <glyph glyph-name="macron" unicode="&#xaf;" horiz-adv-x="491" 
d="M510 1241h-528v90h528v-90z" />
    <glyph glyph-name="degree" unicode="&#xb0;" horiz-adv-x="819" 
d="M410 866q-129 0 -216.5 87t-87.5 216t87.5 216.5t216.5 87.5t216 -87.5t87 -216.5t-87 -216t-216 -87zM410 948q92 0 156.5 64.5t64.5 156.5t-64.5 157t-156.5 65t-157 -65t-65 -157t65 -156.5t157 -64.5z" />
    <glyph glyph-name="plusminus" unicode="&#xb1;" horiz-adv-x="1363" 
d="M731 373h-100v336h-461v98h461v344h98v-344h467v-98h-465v-336zM1192 98h-1020v99h1020v-99z" />
    <glyph glyph-name="two.sups" unicode="&#xb2;" horiz-adv-x="745" 
d="M641 926h-549v94l334 346q106 109 106 205q0 67 -42.5 106t-110.5 39q-62 0 -107.5 -38t-62.5 -107l-96 16q20 100 94 159.5t172 59.5q113 0 185.5 -62.5t72.5 -168.5q0 -80 -36.5 -139t-117.5 -142l-270 -278h428v-90z" />
    <glyph glyph-name="three.sups" unicode="&#xb3;" horiz-adv-x="745" 
d="M356 909q-96 0 -167 46t-109 135l92 32q24 -60 74 -92.5t110 -32.5q78 0 128.5 45.5t50.5 124.5q0 83 -62 124.5t-149 41.5h-50v84h50q85 0 135.5 42t50.5 118q0 64 -45.5 103.5t-110.5 39.5q-47 0 -90 -26t-69 -72l-80 43q84 141 243 141q111 0 179.5 -60t68.5 -169
q0 -68 -36.5 -118.5t-100.5 -74.5v-4q77 -22 120.5 -77.5t43.5 -137.5q0 -121 -79.5 -188.5t-197.5 -67.5z" />
    <glyph glyph-name="acute" unicode="&#xb4;" horiz-adv-x="491" 
d="M236 1155h-97l209 295h148z" />
    <glyph glyph-name="uni00B5" unicode="&#xb5;" horiz-adv-x="1220" 
d="M1135 78l10 -88q-39 -10 -86 -10q-97 0 -132.5 51t-35.5 141v37h-4q-41 -108 -131.5 -173t-200.5 -65q-89 0 -154.5 35t-95.5 96h-4v-594h-111v1446h111v-551q0 -65 12 -120.5t39.5 -106.5t81.5 -80.5t129 -29.5q140 0 232 109t92 288v491h110v-770q0 -64 19 -88t67 -24
q28 0 52 6z" />
    <glyph glyph-name="paragraph" unicode="&#xb6;" horiz-adv-x="1228" 
d="M655 -258h-108v920q-189 0 -310.5 108.5t-121.5 267.5q0 195 124 303.5t341 108.5h456v-1708h-108v1620h-273v-1620z" />
    <glyph glyph-name="periodcentered" unicode="&#xb7;" horiz-adv-x="520" 
d="M260 514q-39 0 -65.5 27.5t-26.5 64.5q0 38 26.5 66t65.5 28t65.5 -28t26.5 -66q0 -37 -26.5 -64.5t-65.5 -27.5z" />
    <glyph glyph-name="cedilla" unicode="&#xb8;" horiz-adv-x="491" 
d="M221 -469q-103 0 -190 41l26 63q65 -32 156 -32q32 0 63.5 8t58.5 32t27 60q0 45 -34 66.5t-90 21.5q-57 0 -105 -20l-31 26l131 203h76l-104 -160q31 10 84 10q68 0 120 -37.5t52 -107.5q0 -48 -22.5 -83.5t-59.5 -54.5t-76.5 -27.5t-81.5 -8.5z" />
    <glyph glyph-name="one.sups" unicode="&#xb9;" horiz-adv-x="745" 
d="M451 926h-103v739l-149 -121l-62 70l228 174h86v-862z" />
    <glyph glyph-name="ordmasculine" unicode="&#xba;" horiz-adv-x="731" 
d="M367 868q-134 0 -221 85.5t-87 217.5q0 133 87 218.5t221 85.5q132 0 218.5 -85.5t86.5 -218.5q0 -132 -86.5 -217.5t-218.5 -85.5zM367 944q97 0 152.5 65.5t55.5 161.5q0 97 -55.5 162.5t-152.5 65.5q-99 0 -155 -65.5t-56 -162.5q0 -96 56 -161.5t155 -65.5z" />
    <glyph glyph-name="guillemotright" unicode="&#xbb;" horiz-adv-x="987" 
d="M500 489l-275 -419l-78 53l234 366l-236 367l78 55zM862 489l-274 -419l-78 53l233 366l-235 367l78 55z" />
    <glyph glyph-name="onequarter" unicode="&#xbc;" horiz-adv-x="1695" 
d="M332 -16l917 1527l84 -45l-915 -1527zM451 588h-101v741l-149 -123l-64 70l230 174h84v-862zM1450 2h-90v207h-389v88l362 569h117v-569h127v-88h-127v-207zM1354 735l-281 -438h287v438h-6z" />
    <glyph glyph-name="onehalf" unicode="&#xbd;" horiz-adv-x="1695" 
d="M1249 1511l84 -45l-915 -1527l-86 45zM451 588h-101v741l-149 -123l-64 70l230 174h84v-862zM1573 0h-549v94l334 346q54 56 80 103.5t26 101.5q0 66 -43 106t-110 40q-62 0 -107.5 -39t-62.5 -109l-97 16q20 100 94.5 161t172.5 61q113 0 185.5 -63t72.5 -171
q0 -78 -36 -136.5t-118 -143.5l-270 -279h428v-88z" />
    <glyph glyph-name="threequarters" unicode="&#xbe;" horiz-adv-x="1695" 
d="M418 -61l-86 45l917 1527l84 -45zM354 578q-96 0 -167 45.5t-109 134.5l92 30q24 -59 73.5 -90.5t110.5 -31.5q77 0 127.5 44t50.5 124q0 83 -61 125t-149 42h-50v84h50q85 0 135.5 41.5t50.5 116.5q0 65 -45 104t-111 39q-47 0 -90 -26t-69 -72l-80 45q86 142 243 142
q109 0 179.5 -61.5t70.5 -168.5q0 -70 -37.5 -121t-101.5 -75v-2q76 -21 121 -77t45 -136q0 -120 -80 -188t-199 -68zM1450 2h-90v207h-389v88l362 569h117v-569h127v-88h-127v-207zM1354 735l-281 -438h287v438h-6z" />
    <glyph glyph-name="questiondown" unicode="&#xbf;" horiz-adv-x="980" 
d="M487 811q-38 0 -64 27.5t-26 66.5q0 38 25.5 65t64.5 27t66 -27.5t27 -64.5q0 -39 -27 -66.5t-66 -27.5zM485 -494q-168 0 -278.5 95.5t-110.5 261.5q0 51 10.5 95t25 74t43 63t49 52t59.5 52q66 55 97.5 92t46.5 84t15 119v94h115v-119q0 -97 -40 -166t-118 -137
l-61 -53q-61 -52 -93 -107.5t-32 -136.5q0 -121 78 -190.5t198 -69.5q116 0 192.5 70.5t94.5 185.5l111 -19q-29 -159 -137.5 -249.5t-264.5 -90.5z" />
    <glyph glyph-name="Agrave" unicode="&#xc0;" horiz-adv-x="1413" 
d="M559 1860l209 -295h-96l-260 295h147zM653 1450h117l616 -1450h-129l-163 391h-777l-163 -391h-129zM709 1329l-349 -831h691z" />
    <glyph glyph-name="Aacute" unicode="&#xc1;" horiz-adv-x="1413" 
d="M866 1860h148l-260 -295h-97zM653 1450h117l616 -1450h-129l-163 391h-777l-163 -391h-129zM709 1329l-349 -831h691z" />
    <glyph glyph-name="Acircumflex" unicode="&#xc2;" horiz-adv-x="1413" 
d="M883 1565l-176 235l-177 -235h-108l219 295h131l219 -295h-108zM653 1450h117l616 -1450h-129l-163 391h-777l-163 -391h-129zM709 1329l-349 -831h691z" />
    <glyph glyph-name="Atilde" unicode="&#xc3;" horiz-adv-x="1413" 
d="M578 1702q-73 0 -95 -103h-71q13 86 53.5 139.5t112.5 53.5q49 0 145 -49q89 -47 131 -47q74 0 96 100h72q-13 -84 -54.5 -136t-113.5 -52q-60 0 -143 47q-80 47 -133 47zM653 1450h117l616 -1450h-129l-163 391h-777l-163 -391h-129zM709 1329l-349 -831h691z" />
    <glyph glyph-name="Adieresis" unicode="&#xc4;" horiz-adv-x="1413" 
d="M526 1653q-37 0 -62.5 27t-25.5 63q0 35 25.5 61.5t62.5 26.5q36 0 61 -26.5t25 -61.5q0 -36 -25 -63t-61 -27zM895 1653q-36 0 -61 27t-25 63q0 35 25 61.5t61 26.5q37 0 62.5 -26.5t25.5 -61.5q0 -36 -25.5 -63t-62.5 -27zM653 1450h117l616 -1450h-129l-163 391h-777
l-163 -391h-129zM709 1329l-349 -831h691z" />
    <glyph glyph-name="Aring" unicode="&#xc5;" horiz-adv-x="1413" 
d="M709 1546q-81 0 -139 56.5t-58 138.5t58 138t139 56t138.5 -56t57.5 -138t-58 -138.5t-138 -56.5zM709 1874q-56 0 -95 -39t-39 -94t39 -94t95 -39q55 0 94 39t39 94t-39 94t-94 39zM653 1450h117l616 -1450h-129l-163 391h-777l-163 -391h-129zM709 1329l-349 -831h691z
" />
    <glyph glyph-name="AE" unicode="&#xc6;" horiz-adv-x="2013" 
d="M170 0h-133l942 1450h895v-104h-711v-541h662v-103h-662v-598h740v-104h-856v410h-611zM1034 1346l-536 -832h549v832h-13z" />
    <glyph glyph-name="Ccedilla" unicode="&#xc7;" horiz-adv-x="1476" 
d="M817 -469q-103 0 -190 41l26 63q65 -32 156 -32q52 0 99.5 24t47.5 76q0 45 -33.5 66.5t-88.5 21.5q-57 0 -105 -20l-31 26l107 166q-198 15 -353 116.5t-241 269.5t-86 376q0 163 56.5 305.5t155.5 243t238 158t299 57.5q159 0 290.5 -55t209.5 -156l-84 -78
q-65 82 -175 133t-238 51q-188 0 -333 -90.5t-220.5 -239.5t-75.5 -329q0 -133 44.5 -253t124.5 -210t199.5 -143t260.5 -53q135 0 242.5 48.5t201.5 164.5l80 -64q-192 -251 -522 -254l-78 -121q31 10 82 10q68 0 120 -37.5t52 -107.5q0 -48 -22.5 -83.5t-59 -54.5
t-75.5 -27.5t-81 -8.5z" />
    <glyph glyph-name="Egrave" unicode="&#xc8;" horiz-adv-x="1210" 
d="M748 1565h-97l-260 295h148zM1110 0h-909v1450h882v-104h-768v-541h719v-103h-719v-598h795v-104z" />
    <glyph glyph-name="Eacute" unicode="&#xc9;" horiz-adv-x="1210" 
d="M653 1565h-96l209 295h147zM1110 0h-909v1450h882v-104h-768v-541h719v-103h-719v-598h795v-104z" />
    <glyph glyph-name="Ecircumflex" unicode="&#xca;" horiz-adv-x="1210" 
d="M469 1565h-109l220 295h131l219 -295h-109l-176 235zM1110 0h-909v1450h882v-104h-768v-541h719v-103h-719v-598h795v-104z" />
    <glyph glyph-name="Edieresis" unicode="&#xcb;" horiz-adv-x="1210" 
d="M463 1653q-37 0 -62.5 27t-25.5 63q0 35 25.5 61.5t62.5 26.5q36 0 61 -26.5t25 -61.5q0 -36 -25 -63t-61 -27zM831 1653q-36 0 -61 27t-25 63q0 35 25 61.5t61 26.5q37 0 63 -26.5t26 -61.5q0 -36 -26 -63t-63 -27zM1110 0h-909v1450h882v-104h-768v-541h719v-103h-719
v-598h795v-104z" />
    <glyph glyph-name="Igrave" unicode="&#xcc;" horiz-adv-x="516" 
d="M317 1565h-96l-260 295h148zM317 0h-116v1450h116v-1450z" />
    <glyph glyph-name="Iacute" unicode="&#xcd;" horiz-adv-x="516" 
d="M295 1565h-96l209 295h147zM317 0h-116v1450h116v-1450z" />
    <glyph glyph-name="Icircumflex" unicode="&#xce;" horiz-adv-x="516" 
d="M80 1565h-109l219 295h132l219 -295h-109l-176 235zM317 0h-116v1450h116v-1450z" />
    <glyph glyph-name="Idieresis" unicode="&#xcf;" horiz-adv-x="516" 
d="M74 1653q-37 0 -62.5 27t-25.5 63q0 35 25.5 61.5t62.5 26.5q36 0 61 -26.5t25 -61.5q0 -36 -25 -63t-61 -27zM442 1653q-36 0 -61 27t-25 63q0 35 25 61.5t61 26.5q37 0 62.5 -26.5t25.5 -61.5q0 -36 -25.5 -63t-62.5 -27zM317 0h-116v1450h116v-1450z" />
    <glyph glyph-name="Eth" unicode="&#xd0;" horiz-adv-x="1558" 
d="M649 0h-461v717h-153v90h153v643h461q118 0 229.5 -28t210.5 -87t172.5 -143t116.5 -204.5t43 -262.5t-43 -262.5t-116.5 -204.5t-172.5 -143t-210.5 -87t-229.5 -28zM305 717v-611h307q161 0 291 47t215.5 130.5t131.5 196.5t46 245q0 133 -46 246t-131.5 196
t-215.5 129.5t-291 46.5h-307v-536h535v-90h-535z" />
    <glyph glyph-name="Ntilde" unicode="&#xd1;" horiz-adv-x="1572" 
d="M567 1599h-71q13 86 53.5 139.5t112.5 53.5q49 0 145 -49q89 -47 131 -47q74 0 96 100h72q-13 -84 -54.5 -136t-113.5 -52q-60 0 -143 47q-80 47 -133 47q-73 0 -95 -103zM317 0h-116v1450h147l903 -1282h4v1282h117v-1450h-147l-903 1290h-5v-1290z" />
    <glyph glyph-name="Ograve" unicode="&#xd2;" horiz-adv-x="1755" 
d="M1006 1565h-97l-260 295h148zM877 -39q-212 0 -384 98t-270 273t-98 393t98 393t270 273t384 98q160 0 299.5 -57.5t239 -158t157 -243t57.5 -305.5t-57.5 -305.5t-157 -243t-239 -158t-299.5 -57.5zM877 66q188 0 333.5 91t221 240t75.5 328q0 180 -76 329t-221.5 239.5
t-332.5 90.5q-140 0 -259 -52.5t-199.5 -142.5t-125.5 -210t-45 -254q0 -133 44.5 -253t125 -210t199.5 -143t260 -53z" />
    <glyph glyph-name="Oacute" unicode="&#xd3;" horiz-adv-x="1755" 
d="M874 1565h-96l209 295h148zM877 -39q-212 0 -384 98t-270 273t-98 393t98 393t270 273t384 98q160 0 299.5 -57.5t239 -158t157 -243t57.5 -305.5t-57.5 -305.5t-157 -243t-239 -158t-299.5 -57.5zM877 66q188 0 333.5 91t221 240t75.5 328q0 180 -76 329t-221.5 239.5
t-332.5 90.5q-140 0 -259 -52.5t-199.5 -142.5t-125.5 -210t-45 -254q0 -133 44.5 -253t125 -210t199.5 -143t260 -53z" />
    <glyph glyph-name="Ocircumflex" unicode="&#xd4;" horiz-adv-x="1755" 
d="M700 1565h-108l219 295h131l219 -295h-108l-176 235zM877 -39q-212 0 -384 98t-270 273t-98 393t98 393t270 273t384 98q160 0 299.5 -57.5t239 -158t157 -243t57.5 -305.5t-57.5 -305.5t-157 -243t-239 -158t-299.5 -57.5zM877 66q188 0 333.5 91t221 240t75.5 328
q0 180 -76 329t-221.5 239.5t-332.5 90.5q-140 0 -259 -52.5t-199.5 -142.5t-125.5 -210t-45 -254q0 -133 44.5 -253t125 -210t199.5 -143t260 -53z" />
    <glyph glyph-name="Otilde" unicode="&#xd5;" horiz-adv-x="1755" 
d="M657 1599h-71q13 86 53.5 139.5t112.5 53.5q49 0 145 -49q89 -47 131 -47q74 0 96 100h72q-13 -84 -54.5 -136t-113.5 -52q-60 0 -143 47q-80 47 -133 47q-73 0 -95 -103zM877 -39q-212 0 -384 98t-270 273t-98 393t98 393t270 273t384 98q160 0 299.5 -57.5t239 -158
t157 -243t57.5 -305.5t-57.5 -305.5t-157 -243t-239 -158t-299.5 -57.5zM877 66q188 0 333.5 91t221 240t75.5 328q0 180 -76 329t-221.5 239.5t-332.5 90.5q-140 0 -259 -52.5t-199.5 -142.5t-125.5 -210t-45 -254q0 -133 44.5 -253t125 -210t199.5 -143t260 -53z" />
    <glyph glyph-name="Odieresis" unicode="&#xd6;" horiz-adv-x="1755" 
d="M694 1653q-37 0 -62.5 27t-25.5 63q0 35 25.5 61.5t62.5 26.5q36 0 61 -26.5t25 -61.5q0 -36 -25 -63t-61 -27zM1063 1653q-36 0 -61 27t-25 63q0 35 25 61.5t61 26.5q37 0 62.5 -26.5t25.5 -61.5q0 -36 -25.5 -63t-62.5 -27zM877 -39q-212 0 -384 98t-270 273t-98 393
t98 393t270 273t384 98q160 0 299.5 -57.5t239 -158t157 -243t57.5 -305.5t-57.5 -305.5t-157 -243t-239 -158t-299.5 -57.5zM877 66q188 0 333.5 91t221 240t75.5 328q0 180 -76 329t-221.5 239.5t-332.5 90.5q-140 0 -259 -52.5t-199.5 -142.5t-125.5 -210t-45 -254
q0 -133 44.5 -253t125 -210t199.5 -143t260 -53z" />
    <glyph glyph-name="multiply" unicode="&#xd7;" horiz-adv-x="1363" 
d="M682 553l-338 -338l-68 70l338 338l-338 340l68 69l338 -338l338 338l70 -69l-338 -340l338 -338l-70 -70z" />
    <glyph glyph-name="Oslash" unicode="&#xd8;" horiz-adv-x="1755" 
d="M383 131l-152 -164l-61 58l149 165q-97 101 -149.5 238.5t-52.5 296.5q0 109 26 210t73 185t115.5 153t151 116.5t181 73.5t204.5 26q280 0 482 -166l151 164l62 -55l-150 -166q100 -103 154.5 -241t54.5 -300q0 -218 -98 -393t-270.5 -273t-385.5 -98q-281 0 -485 170z
M399 274l877 967q-162 143 -408 143q-142 0 -261 -52.5t-198.5 -142.5t-124 -210t-44.5 -254q0 -130 41 -247t118 -204zM868 66q190 0 335.5 91t220.5 240t75 328q0 131 -42.5 249.5t-121.5 205.5l-876 -967q166 -147 409 -147z" />
    <glyph glyph-name="Ugrave" unicode="&#xd9;" horiz-adv-x="1468" 
d="M844 1565h-96l-261 295h148zM733 -39q-123 0 -220 35.5t-156.5 92.5t-98.5 135t-54.5 156t-15.5 163v907h117v-893q0 -74 11.5 -140t42 -132t77.5 -113t123 -76.5t174 -29.5q97 0 173 29t123.5 75.5t78.5 112t43 132.5t12 142v893h117v-907q0 -85 -15.5 -163t-54.5 -156
t-99 -135t-157 -92.5t-221 -35.5z" />
    <glyph glyph-name="Uacute" unicode="&#xda;" horiz-adv-x="1468" 
d="M733 1565h-96l209 295h147zM733 -39q-123 0 -220 35.5t-156.5 92.5t-98.5 135t-54.5 156t-15.5 163v907h117v-893q0 -74 11.5 -140t42 -132t77.5 -113t123 -76.5t174 -29.5q97 0 173 29t123.5 75.5t78.5 112t43 132.5t12 142v893h117v-907q0 -85 -15.5 -163t-54.5 -156
t-99 -135t-157 -92.5t-221 -35.5z" />
    <glyph glyph-name="Ucircumflex" unicode="&#xdb;" horiz-adv-x="1468" 
d="M557 1565h-108l219 295h131l219 -295h-109l-176 235zM733 -39q-123 0 -220 35.5t-156.5 92.5t-98.5 135t-54.5 156t-15.5 163v907h117v-893q0 -74 11.5 -140t42 -132t77.5 -113t123 -76.5t174 -29.5q97 0 173 29t123.5 75.5t78.5 112t43 132.5t12 142v893h117v-907
q0 -85 -15.5 -163t-54.5 -156t-99 -135t-157 -92.5t-221 -35.5z" />
    <glyph glyph-name="Udieresis" unicode="&#xdc;" horiz-adv-x="1468" 
d="M551 1653q-37 0 -62.5 27t-25.5 63q0 35 25.5 61.5t62.5 26.5q36 0 61 -26.5t25 -61.5q0 -36 -25 -63t-61 -27zM920 1653q-36 0 -61 27t-25 63q0 35 25 61.5t61 26.5q37 0 62.5 -26.5t25.5 -61.5q0 -36 -25.5 -63t-62.5 -27zM733 -39q-123 0 -220 35.5t-156.5 92.5
t-98.5 135t-54.5 156t-15.5 163v907h117v-893q0 -74 11.5 -140t42 -132t77.5 -113t123 -76.5t174 -29.5q97 0 173 29t123.5 75.5t78.5 112t43 132.5t12 142v893h117v-907q0 -85 -15.5 -163t-54.5 -156t-99 -135t-157 -92.5t-221 -35.5z" />
    <glyph glyph-name="Yacute" unicode="&#xdd;" horiz-adv-x="1193" 
d="M758 1860h147l-260 -295h-96zM600 727l449 723h135l-529 -823v-627h-116v627l-531 823h146z" />
    <glyph glyph-name="Thorn" unicode="&#xde;" horiz-adv-x="1183" 
d="M317 0h-116v1450h116v-320h287q140 0 244.5 -38t168.5 -124.5t64 -215.5q0 -186 -129 -285.5t-342 -99.5h-293v-367zM317 1028v-559h279q167 0 263.5 71.5t96.5 211.5q0 142 -98 209t-266 67h-275z" />
    <glyph glyph-name="germandbls" unicode="&#xdf;" horiz-adv-x="1218" 
d="M625 -23q-59 0 -109 9v94q62 -8 98 -8q171 0 273 102.5t102 276.5q0 185 -110 280.5t-295 95.5h-23v99h23q135 0 219 71.5t84 206.5q0 126 -79.5 198.5t-199.5 72.5q-72 0 -128 -23t-89.5 -59t-54.5 -86t-29 -98.5t-8 -102.5v-1106h-111v1110q0 72 13.5 137t45 125.5
t79 104.5t121 70t165.5 26q105 0 192.5 -42.5t141 -126t53.5 -192.5q0 -252 -249 -329v-4q158 -19 257 -133t99 -297q0 -214 -131 -343t-350 -129z" />
    <glyph glyph-name="agrave" unicode="&#xe0;" horiz-adv-x="1079" 
d="M664 1155h-97l-260 295h148zM446 -27q-58 0 -113.5 16.5t-104.5 49t-79 89.5t-30 130q0 66 22.5 118.5t65 86.5t94.5 57.5t121 35.5t133.5 17t142.5 5h97v43q0 133 -70 199.5t-201 66.5q-81 0 -155.5 -30.5t-128.5 -82.5l-62 74q61 60 155.5 95.5t201.5 35.5
q165 0 265.5 -88.5t100.5 -257.5v-418q0 -125 17 -215h-101q-16 98 -16 176h-4q-114 -203 -351 -203zM473 66q80 0 143 29.5t101.5 79t58 110t19.5 127.5v77h-72q-62 0 -113.5 -3t-111 -11t-104 -24t-82.5 -40t-58.5 -61.5t-20.5 -85.5q0 -54 21 -94t57 -61.5t76.5 -32
t85.5 -10.5z" />
    <glyph glyph-name="aacute" unicode="&#xe1;" horiz-adv-x="1079" 
d="M547 1155h-96l208 295h148zM446 -27q-58 0 -113.5 16.5t-104.5 49t-79 89.5t-30 130q0 66 22.5 118.5t65 86.5t94.5 57.5t121 35.5t133.5 17t142.5 5h97v43q0 133 -70 199.5t-201 66.5q-81 0 -155.5 -30.5t-128.5 -82.5l-62 74q61 60 155.5 95.5t201.5 35.5
q165 0 265.5 -88.5t100.5 -257.5v-418q0 -125 17 -215h-101q-16 98 -16 176h-4q-114 -203 -351 -203zM473 66q80 0 143 29.5t101.5 79t58 110t19.5 127.5v77h-72q-62 0 -113.5 -3t-111 -11t-104 -24t-82.5 -40t-58.5 -61.5t-20.5 -85.5q0 -54 21 -94t57 -61.5t76.5 -32
t85.5 -10.5z" />
    <glyph glyph-name="acircumflex" unicode="&#xe2;" horiz-adv-x="1079" 
d="M360 1155h-108l219 295h131l219 -295h-108l-176 236zM446 -27q-58 0 -113.5 16.5t-104.5 49t-79 89.5t-30 130q0 66 22.5 118.5t65 86.5t94.5 57.5t121 35.5t133.5 17t142.5 5h97v43q0 133 -70 199.5t-201 66.5q-81 0 -155.5 -30.5t-128.5 -82.5l-62 74q61 60 155.5 95.5
t201.5 35.5q165 0 265.5 -88.5t100.5 -257.5v-418q0 -125 17 -215h-101q-16 98 -16 176h-4q-114 -203 -351 -203zM473 66q80 0 143 29.5t101.5 79t58 110t19.5 127.5v77h-72q-62 0 -113.5 -3t-111 -11t-104 -24t-82.5 -40t-58.5 -61.5t-20.5 -85.5q0 -54 21 -94t57 -61.5
t76.5 -32t85.5 -10.5z" />
    <glyph glyph-name="atilde" unicode="&#xe3;" horiz-adv-x="1079" 
d="M301 1190h-72q13 85 54.5 138.5t113.5 53.5q54 0 154 -53q88 -43 123 -43q72 0 94 100h72q-13 -85 -53.5 -137.5t-112.5 -52.5q-54 0 -154 53q-88 43 -123 43q-74 0 -96 -102zM446 -27q-58 0 -113.5 16.5t-104.5 49t-79 89.5t-30 130q0 66 22.5 118.5t65 86.5t94.5 57.5
t121 35.5t133.5 17t142.5 5h97v43q0 133 -70 199.5t-201 66.5q-81 0 -155.5 -30.5t-128.5 -82.5l-62 74q61 60 155.5 95.5t201.5 35.5q165 0 265.5 -88.5t100.5 -257.5v-418q0 -125 17 -215h-101q-16 98 -16 176h-4q-114 -203 -351 -203zM473 66q80 0 143 29.5t101.5 79
t58 110t19.5 127.5v77h-72q-62 0 -113.5 -3t-111 -11t-104 -24t-82.5 -40t-58.5 -61.5t-20.5 -85.5q0 -54 21 -94t57 -61.5t76.5 -32t85.5 -10.5z" />
    <glyph glyph-name="adieresis" unicode="&#xe4;" horiz-adv-x="1079" 
d="M352 1243q-37 0 -62.5 27t-25.5 63q0 35 25.5 61.5t62.5 26.5q36 0 61 -26.5t25 -61.5q0 -36 -25 -63t-61 -27zM721 1243q-36 0 -61 27t-25 63q0 35 25 61.5t61 26.5q37 0 62.5 -26.5t25.5 -61.5q0 -36 -25.5 -63t-62.5 -27zM446 -27q-58 0 -113.5 16.5t-104.5 49
t-79 89.5t-30 130q0 66 22.5 118.5t65 86.5t94.5 57.5t121 35.5t133.5 17t142.5 5h97v43q0 133 -70 199.5t-201 66.5q-81 0 -155.5 -30.5t-128.5 -82.5l-62 74q61 60 155.5 95.5t201.5 35.5q165 0 265.5 -88.5t100.5 -257.5v-418q0 -125 17 -215h-101q-16 98 -16 176h-4
q-114 -203 -351 -203zM473 66q80 0 143 29.5t101.5 79t58 110t19.5 127.5v77h-72q-62 0 -113.5 -3t-111 -11t-104 -24t-82.5 -40t-58.5 -61.5t-20.5 -85.5q0 -54 21 -94t57 -61.5t76.5 -32t85.5 -10.5z" />
    <glyph glyph-name="aring" unicode="&#xe5;" horiz-adv-x="1079" 
d="M535 1137q-81 0 -139 56t-58 138t58 138.5t139 56.5q80 0 138 -56.5t58 -138.5t-57.5 -138t-138.5 -56zM535 1198q55 0 94 39t39 94t-39 94t-94 39q-56 0 -95 -39t-39 -94t39 -94t95 -39zM446 -27q-58 0 -113.5 16.5t-104.5 49t-79 89.5t-30 130q0 66 22.5 118.5t65 86.5
t94.5 57.5t121 35.5t133.5 17t142.5 5h97v43q0 133 -70 199.5t-201 66.5q-81 0 -155.5 -30.5t-128.5 -82.5l-62 74q61 60 155.5 95.5t201.5 35.5q165 0 265.5 -88.5t100.5 -257.5v-418q0 -125 17 -215h-101q-16 98 -16 176h-4q-114 -203 -351 -203zM473 66q80 0 143 29.5
t101.5 79t58 110t19.5 127.5v77h-72q-62 0 -113.5 -3t-111 -11t-104 -24t-82.5 -40t-58.5 -61.5t-20.5 -85.5q0 -54 21 -94t57 -61.5t76.5 -32t85.5 -10.5z" />
    <glyph glyph-name="ae" unicode="&#xe6;" horiz-adv-x="1787" 
d="M461 -27q-64 0 -122.5 15.5t-108.5 47t-79.5 86t-29.5 126.5q0 52 17 94.5t46 72.5t73 53t90 36.5t106 22.5t113.5 13t117.5 5h111v49q0 135 -69 214t-198 79q-83 0 -159.5 -30.5t-135.5 -82.5l-63 72q64 60 164.5 96.5t208.5 36.5q128 0 212.5 -59.5t114.5 -163.5
q55 101 153.5 162t215.5 61q104 0 187 -37.5t135.5 -102.5t80 -148.5t27.5 -178.5q0 -45 -2 -57h-768q1 -76 26 -145t69.5 -122.5t111.5 -85.5t145 -32q98 0 178 46.5t127 119.5l80 -64q-149 -197 -385 -197q-139 0 -242 67t-149 185q-42 -127 -146 -190.5t-253 -63.5z
M903 545h653q-2 152 -87.5 247t-229.5 95q-72 0 -135.5 -31.5t-106 -81.5t-67.5 -110.5t-27 -118.5zM477 66q160 0 239 86.5t79 226.5v76h-74q-69 0 -122.5 -2.5t-112 -10t-101 -22t-78 -36.5t-53.5 -56t-18 -78q0 -51 20 -88.5t55.5 -57.5t76 -29t89.5 -9z" />
    <glyph glyph-name="ccedilla" unicode="&#xe7;" horiz-adv-x="1011" 
d="M567 -469q-103 0 -190 41l26 63q65 -32 156 -32q31 0 62.5 8t58.5 32t27 60q0 45 -34 66.5t-89 21.5q-57 0 -105 -20l-30 26l114 178q-202 17 -323 156t-121 346q0 218 138.5 360t356.5 142q103 0 192 -38t148 -112l-73 -67q-43 56 -116 90.5t-149 34.5q-170 0 -275 -118
t-105 -292t104.5 -290.5t271.5 -116.5q164 0 279 118l70 -63q-124 -143 -326 -152l-84 -133q31 10 82 10q68 0 120 -37.5t52 -107.5q0 -48 -22.5 -83.5t-59 -54.5t-75.5 -27.5t-81 -8.5z" />
    <glyph glyph-name="egrave" unicode="&#xe8;" horiz-adv-x="1161" 
d="M684 1155h-96l-260 295h147zM602 -27q-209 0 -346 144t-137 362q0 215 136 357.5t337 142.5q109 0 196 -37.5t141.5 -102.5t83.5 -148.5t29 -178.5v-57h-809q3 -158 106.5 -271.5t266.5 -113.5q104 0 181.5 40t146.5 121l74 -59q-154 -199 -406 -199zM236 543h696
q-6 154 -97 249t-245 95q-77 0 -144 -31.5t-111 -81.5t-70 -110.5t-29 -120.5z" />
    <glyph glyph-name="eacute" unicode="&#xe9;" horiz-adv-x="1161" 
d="M614 1155h-96l209 295h147zM602 -27q-209 0 -346 144t-137 362q0 215 136 357.5t337 142.5q109 0 196 -37.5t141.5 -102.5t83.5 -148.5t29 -178.5v-57h-809q3 -158 106.5 -271.5t266.5 -113.5q104 0 181.5 40t146.5 121l74 -59q-154 -199 -406 -199zM236 543h696
q-6 154 -97 249t-245 95q-77 0 -144 -31.5t-111 -81.5t-70 -110.5t-29 -120.5z" />
    <glyph glyph-name="ecircumflex" unicode="&#xea;" horiz-adv-x="1161" 
d="M428 1155h-109l220 295h131l219 -295h-109l-176 236zM602 -27q-209 0 -346 144t-137 362q0 215 136 357.5t337 142.5q109 0 196 -37.5t141.5 -102.5t83.5 -148.5t29 -178.5v-57h-809q3 -158 106.5 -271.5t266.5 -113.5q104 0 181.5 40t146.5 121l74 -59
q-154 -199 -406 -199zM236 543h696q-6 154 -97 249t-245 95q-77 0 -144 -31.5t-111 -81.5t-70 -110.5t-29 -120.5z" />
    <glyph glyph-name="edieresis" unicode="&#xeb;" horiz-adv-x="1161" 
d="M418 1243q-37 0 -62.5 27t-25.5 63q0 35 25.5 61.5t62.5 26.5q36 0 61 -26.5t25 -61.5q0 -36 -25 -63t-61 -27zM786 1243q-36 0 -61 27t-25 63q0 35 25 61.5t61 26.5q37 0 62.5 -26.5t25.5 -61.5q0 -36 -25.5 -63t-62.5 -27zM602 -27q-209 0 -346 144t-137 362
q0 215 136 357.5t337 142.5q109 0 196 -37.5t141.5 -102.5t83.5 -148.5t29 -178.5v-57h-809q3 -158 106.5 -271.5t266.5 -113.5q104 0 181.5 40t146.5 121l74 -59q-154 -199 -406 -199zM236 543h696q-6 154 -97 249t-245 95q-77 0 -144 -31.5t-111 -81.5t-70 -110.5
t-29 -120.5z" />
    <glyph glyph-name="igrave" unicode="&#xec;" horiz-adv-x="497" 
d="M305 1155h-96l-260 295h147zM305 0h-112v954h112v-954z" />
    <glyph glyph-name="iacute" unicode="&#xed;" horiz-adv-x="497" 
d="M289 1155h-96l208 295h148zM305 0h-112v954h112v-954z" />
    <glyph glyph-name="icircumflex" unicode="&#xee;" horiz-adv-x="497" 
d="M76 1155h-109l219 295h131l220 -295h-109l-176 236zM305 0h-112v954h112v-954z" />
    <glyph glyph-name="idieresis" unicode="&#xef;" horiz-adv-x="497" 
d="M66 1243q-37 0 -63 27t-26 63q0 35 26 61.5t63 26.5q36 0 61 -26.5t25 -61.5q0 -36 -25 -63t-61 -27zM434 1243q-36 0 -61 27t-25 63q0 35 25 61.5t61 26.5q37 0 62.5 -26.5t25.5 -61.5q0 -36 -25.5 -63t-62.5 -27zM305 0h-112v954h112v-954z" />
    <glyph glyph-name="eth" unicode="&#xf0;" horiz-adv-x="1247" 
d="M610 -27q-220 0 -362 143t-142 361q0 219 141.5 360.5t362.5 141.5q182 0 326 -129l6 4q-56 124 -145.5 245t-184.5 206l-229 -119l-57 59l225 119q-81 77 -203 160l94 61q119 -87 203 -168l211 111l68 -58l-211 -114q103 -98 190 -224t149 -295t62 -331
q0 -101 -30.5 -194t-89.5 -170t-158.5 -123t-225.5 -46zM610 72q176 0 281.5 115t105.5 290t-105.5 289.5t-281.5 114.5q-175 0 -281 -115t-106 -289t106 -289.5t281 -115.5z" />
    <glyph glyph-name="ntilde" unicode="&#xf1;" horiz-adv-x="1183" 
d="M367 1190h-72q13 85 54.5 138.5t113.5 53.5q53 0 153 -53q88 -43 123 -43q73 0 95 100h71q-13 -85 -53.5 -137.5t-112.5 -52.5q-53 0 -153 53q-88 43 -123 43q-74 0 -96 -102zM305 0h-112v735q0 124 -9 219h107q8 -106 8 -190h4q41 97 137 156t205 59q179 0 267.5 -109
t88.5 -288v-582h-110v541q0 344 -270 344q-133 0 -224.5 -105t-91.5 -295v-485z" />
    <glyph glyph-name="ograve" unicode="&#xf2;" horiz-adv-x="1247" 
d="M707 1155h-97l-260 295h148zM623 -27q-220 0 -361 143t-141 361q0 219 140.5 360.5t361.5 141.5q222 0 362.5 -141.5t140.5 -360.5q0 -218 -141 -361t-362 -143zM623 74q176 0 282.5 114.5t106.5 288.5t-106.5 290t-282.5 116q-175 0 -281 -116t-106 -290t106 -288.5
t281 -114.5z" />
    <glyph glyph-name="oacute" unicode="&#xf3;" horiz-adv-x="1247" 
d="M639 1155h-96l209 295h147zM623 -27q-220 0 -361 143t-141 361q0 219 140.5 360.5t361.5 141.5q222 0 362.5 -141.5t140.5 -360.5q0 -218 -141 -361t-362 -143zM623 74q176 0 282.5 114.5t106.5 288.5t-106.5 290t-282.5 116q-175 0 -281 -116t-106 -290t106 -288.5
t281 -114.5z" />
    <glyph glyph-name="ocircumflex" unicode="&#xf4;" horiz-adv-x="1247" 
d="M446 1155h-108l219 295h131l219 -295h-108l-176 236zM623 -27q-220 0 -361 143t-141 361q0 219 140.5 360.5t361.5 141.5q222 0 362.5 -141.5t140.5 -360.5q0 -218 -141 -361t-362 -143zM623 74q176 0 282.5 114.5t106.5 288.5t-106.5 290t-282.5 116q-175 0 -281 -116
t-106 -290t106 -288.5t281 -114.5z" />
    <glyph glyph-name="otilde" unicode="&#xf5;" horiz-adv-x="1247" 
d="M391 1190h-72q13 85 54.5 138.5t113.5 53.5q54 0 154 -53q88 -43 123 -43q72 0 94 100h72q-13 -85 -53.5 -137.5t-112.5 -52.5q-54 0 -154 53q-88 43 -123 43q-74 0 -96 -102zM623 -27q-220 0 -361 143t-141 361q0 219 140.5 360.5t361.5 141.5q222 0 362.5 -141.5
t140.5 -360.5q0 -218 -141 -361t-362 -143zM623 74q176 0 282.5 114.5t106.5 288.5t-106.5 290t-282.5 116q-175 0 -281 -116t-106 -290t106 -288.5t281 -114.5z" />
    <glyph glyph-name="odieresis" unicode="&#xf6;" horiz-adv-x="1247" 
d="M440 1243q-37 0 -62.5 27t-25.5 63q0 35 25.5 61.5t62.5 26.5q36 0 61 -26.5t25 -61.5q0 -36 -25 -63t-61 -27zM809 1243q-36 0 -61 27t-25 63q0 35 25 61.5t61 26.5q37 0 62.5 -26.5t25.5 -61.5q0 -36 -25.5 -63t-62.5 -27zM623 -27q-220 0 -361 143t-141 361
q0 219 140.5 360.5t361.5 141.5q222 0 362.5 -141.5t140.5 -360.5q0 -218 -141 -361t-362 -143zM623 74q176 0 282.5 114.5t106.5 288.5t-106.5 290t-282.5 116q-175 0 -281 -116t-106 -290t106 -288.5t281 -114.5z" />
    <glyph glyph-name="divide" unicode="&#xf7;" horiz-adv-x="1363" 
d="M682 854q-42 0 -70 30t-28 70q0 41 28 72t70 31t71 -31t29 -72q0 -39 -29 -69.5t-71 -30.5zM1196 571h-1026v99h1026v-99zM682 184q-42 0 -70 31t-28 72t28 70.5t70 29.5t71 -30.5t29 -69.5q0 -41 -29 -72t-71 -31z" />
    <glyph glyph-name="oslash" unicode="&#xf8;" horiz-adv-x="1247" 
d="M291 90l-135 -137l-56 51l136 139q-117 139 -117 334q0 219 141.5 360.5t360.5 141.5q193 0 329 -111l131 136l54 -54l-131 -135q124 -137 124 -338q0 -218 -142.5 -361t-364.5 -143q-193 0 -330 117zM309 217l572 582q-44 43 -112 66.5t-146 23.5q-177 0 -284.5 -118.5
t-107.5 -293.5q0 -159 78 -260zM621 66q178 0 286.5 117.5t108.5 293.5q0 161 -86 264l-572 -581q105 -94 263 -94z" />
    <glyph glyph-name="ugrave" unicode="&#xf9;" horiz-adv-x="1183" 
d="M672 1155h-97l-260 295h148zM539 -27q-179 0 -269 109.5t-90 288.5v583h113v-540q0 -346 270 -346q63 0 119 26t100.5 74.5t70.5 126t26 174.5v485h110v-735q0 -117 10 -219h-108q-8 102 -8 188h-4q-39 -96 -135 -155.5t-205 -59.5z" />
    <glyph glyph-name="uacute" unicode="&#xfa;" horiz-adv-x="1183" 
d="M592 1155h-96l209 295h147zM539 -27q-179 0 -269 109.5t-90 288.5v583h113v-540q0 -346 270 -346q63 0 119 26t100.5 74.5t70.5 126t26 174.5v485h110v-735q0 -117 10 -219h-108q-8 102 -8 188h-4q-39 -96 -135 -155.5t-205 -59.5z" />
    <glyph glyph-name="ucircumflex" unicode="&#xfb;" horiz-adv-x="1183" 
d="M408 1155h-109l219 295h131l219 -295h-108l-176 236zM539 -27q-179 0 -269 109.5t-90 288.5v583h113v-540q0 -346 270 -346q63 0 119 26t100.5 74.5t70.5 126t26 174.5v485h110v-735q0 -117 10 -219h-108q-8 102 -8 188h-4q-39 -96 -135 -155.5t-205 -59.5z" />
    <glyph glyph-name="udieresis" unicode="&#xfc;" horiz-adv-x="1183" 
d="M401 1243q-37 0 -62.5 27t-25.5 63q0 35 25.5 61.5t62.5 26.5q36 0 61 -26.5t25 -61.5q0 -36 -25 -63t-61 -27zM770 1243q-36 0 -61 27t-25 63q0 35 25 61.5t61 26.5q37 0 62.5 -26.5t25.5 -61.5q0 -36 -25.5 -63t-62.5 -27zM539 -27q-179 0 -269 109.5t-90 288.5v583
h113v-540q0 -346 270 -346q63 0 119 26t100.5 74.5t70.5 126t26 174.5v485h110v-735q0 -117 10 -219h-108q-8 102 -8 188h-4q-39 -96 -135 -155.5t-205 -59.5z" />
    <glyph glyph-name="yacute" unicode="&#xfd;" horiz-adv-x="962" 
d="M627 1450h147l-260 -295h-96zM498 111l307 843h121l-475 -1220q-45 -113 -109 -170.5t-170 -57.5q-47 0 -113 15l15 100q43 -16 94 -16q69 0 111 44.5t75 129.5l82 215l-399 960h125z" />
    <glyph glyph-name="thorn" unicode="&#xfe;" horiz-adv-x="1292" 
d="M303 -492h-108v2040h108v-788h4q60 105 161 162t216 57q212 0 351 -142.5t139 -359.5t-139 -360.5t-351 -143.5q-117 0 -218.5 56t-158.5 159h-4v-680zM676 72q171 0 276 116t105 289q0 172 -105 288t-276 116q-169 0 -276 -116t-107 -288t107 -288.5t276 -116.5z" />
    <glyph glyph-name="ydieresis" unicode="&#xff;" horiz-adv-x="962" 
d="M311 1243q-37 0 -62.5 27t-25.5 63q0 35 25.5 61.5t62.5 26.5q36 0 61 -26.5t25 -61.5q0 -36 -25 -63t-61 -27zM680 1243q-36 0 -61 27t-25 63q0 35 25 61.5t61 26.5q37 0 62.5 -26.5t25.5 -61.5q0 -36 -25.5 -63t-62.5 -27zM498 111l307 843h121l-475 -1220
q-45 -113 -109 -170.5t-170 -57.5q-47 0 -113 15l15 100q43 -16 94 -16q69 0 111 44.5t75 129.5l82 215l-399 960h125z" />
    <glyph glyph-name="dotlessi" unicode="&#x131;" horiz-adv-x="497" 
d="M305 0h-112v954h112v-954z" />
    <glyph glyph-name="Lslash" unicode="&#x141;" horiz-adv-x="1036" 
d="M1006 0h-805v506l-158 -137v116l158 138v827h116v-745l437 380v-114l-437 -383v-484h689v-104z" />
    <glyph glyph-name="lslash" unicode="&#x142;" horiz-adv-x="499" 
d="M305 0h-108v696l-156 -155v121l156 155v731h108v-643l162 160v-119l-162 -160v-786z" />
    <glyph glyph-name="OE" unicode="&#x152;" horiz-adv-x="2023" 
d="M1921 0h-1001q-118 0 -230 28t-211 87t-173 143t-117.5 204.5t-43.5 262.5t43.5 262.5t117.5 204.5t173 143t211 87t230 28h974v-104h-694v-541h647v-103h-647v-598h721v-104zM950 104h133v1242h-133q-159 0 -288.5 -47.5t-215 -131t-132 -197t-46.5 -245.5
q0 -133 46.5 -246.5t132 -197t215 -130.5t288.5 -47z" />
    <glyph glyph-name="oe" unicode="&#x153;" horiz-adv-x="2045" 
d="M621 -27q-219 0 -360.5 143t-141.5 361q0 219 141.5 360.5t360.5 141.5q151 0 266 -69t176 -191q58 121 166.5 190.5t245.5 69.5q110 0 197.5 -37.5t143 -102.5t84.5 -148.5t29 -178.5q0 -41 -2 -57h-811q3 -158 108 -271.5t267 -113.5q102 0 185.5 46.5t133.5 121.5
l82 -66q-154 -199 -403 -199q-144 0 -255 71t-169 194q-61 -124 -176.5 -194.5t-267.5 -70.5zM621 70q176 0 283.5 116.5t107.5 290.5q0 175 -107.5 292.5t-283.5 117.5q-175 0 -282.5 -118t-107.5 -292t107.5 -290.5t282.5 -116.5zM1122 543h695q-6 154 -96 249t-244 95
q-78 0 -145.5 -31.5t-111 -81.5t-69.5 -110.5t-29 -120.5z" />
    <glyph glyph-name="Scaron" unicode="&#x160;" horiz-adv-x="1159" 
d="M657 1565h-131l-219 295h109l176 -236l176 236h109zM565 -39q-278 0 -438 209l82 72q151 -179 356 -179q65 0 125.5 20t110 57t79 95.5t29.5 129.5q0 33 -6.5 62.5t-16.5 53t-29 45t-35 37.5t-44.5 32.5t-48.5 26.5t-55.5 24t-56.5 21.5t-60 20.5q-44 15 -67 23.5
t-64 24.5t-64 28.5t-56 33t-52.5 40.5t-42 48t-34 58.5t-19.5 69t-8 82.5q0 97 40 174t106.5 123.5t146.5 71t165 24.5q135 0 236.5 -47.5t161.5 -124.5l-84 -76q-123 148 -320 148q-61 0 -119.5 -18.5t-107.5 -53t-79 -92t-30 -129.5q0 -33 7 -62t16 -52t28.5 -44.5
t35 -36.5t45 -31.5t48 -26t55 -23.5t56 -20.5t59.5 -19.5q45 -15 68 -22.5t64.5 -24t64.5 -28.5t57 -32.5t53 -40t42 -48t35 -59t20 -70t8 -84.5q0 -101 -39.5 -181t-106 -129t-147.5 -74.5t-170 -25.5z" />
    <glyph glyph-name="scaron" unicode="&#x161;" horiz-adv-x="890" 
d="M526 1155h-131l-219 295h109l176 -236l176 236h108zM449 -25q-111 0 -207 45.5t-156 133.5l88 63q42 -66 115.5 -106.5t159.5 -40.5q99 0 167 46.5t68 139.5q0 21 -5.5 39t-12 32t-22.5 27.5t-26.5 22t-35 18.5t-36.5 15t-42.5 13.5t-42 11.5t-45.5 11q-50 12 -85 24
t-76 33.5t-66.5 48t-42.5 68t-17 93.5q0 88 48 150t119.5 89t158.5 27q105 0 190.5 -42.5t130.5 -119.5l-86 -61q-36 61 -98.5 96t-140.5 35q-86 0 -150.5 -42t-64.5 -124q0 -78 55 -115.5t184 -66.5q161 -36 240.5 -99.5t79.5 -175.5q0 -73 -29 -130t-79 -91t-110.5 -51
t-127.5 -17z" />
    <glyph glyph-name="Ydieresis" unicode="&#x178;" horiz-adv-x="1193" 
d="M416 1653q-37 0 -62.5 27t-25.5 63q0 35 25.5 61.5t62.5 26.5q36 0 61 -26.5t25 -61.5q0 -36 -25 -63t-61 -27zM784 1653q-36 0 -61 27t-25 63q0 35 25 61.5t61 26.5q37 0 62.5 -26.5t25.5 -61.5q0 -36 -25.5 -63t-62.5 -27zM600 727l449 723h135l-529 -823v-627h-116
v627l-531 823h146z" />
    <glyph glyph-name="Zcaron" unicode="&#x17d;" horiz-adv-x="1185" 
d="M662 1565h-132l-219 295h109l176 -236l176 236h109zM1114 0h-1036v102l878 1244h-856v104h998v-104l-877 -1242h893v-104z" />
    <glyph glyph-name="zcaron" unicode="&#x17e;" horiz-adv-x="903" 
d="M524 1155h-131l-219 295h109l176 -236l176 236h108zM827 0h-753v82l588 778h-558v94h701v-84l-586 -774h608v-96z" />
    <glyph glyph-name="florin" unicode="&#x192;" horiz-adv-x="1175" 
d="M197 -287q-93 0 -148 33l45 90q46 -24 105 -24q39 0 68.5 13.5t48 32.5t32.5 52.5t21.5 61t15.5 69.5l133 721h-223v90h242l57 311q13 67 32.5 118t52.5 97.5t86.5 71.5t125.5 25q103 0 176 -54l-55 -80q-50 35 -115 35q-155 0 -195 -235l-51 -289h228v-90h-246
l-141 -756q-9 -51 -22 -91.5t-36.5 -79.5t-54.5 -65t-77 -41.5t-105 -15.5z" />
    <glyph glyph-name="circumflex" unicode="&#x2c6;" horiz-adv-x="491" 
d="M70 1155h-109l219 295h131l219 -295h-108l-176 236z" />
    <glyph glyph-name="caron" unicode="&#x2c7;" horiz-adv-x="491" 
d="M311 1155h-131l-219 295h109l176 -236l176 236h108z" />
    <glyph glyph-name="breve" unicode="&#x2d8;" horiz-adv-x="491" 
d="M244 1178q-120 0 -198.5 71t-88.5 195h76q14 -85 72.5 -130.5t138.5 -45.5q86 0 143 44t74 132h74q-10 -125 -89 -195.5t-202 -70.5z" />
    <glyph glyph-name="dotaccent" unicode="&#x2d9;" horiz-adv-x="491" 
d="M246 1249q-32 0 -58 24.5t-26 59.5t26 59.5t58 24.5t58 -24.5t26 -59.5t-26 -59.5t-58 -24.5z" />
    <glyph glyph-name="ring" unicode="&#x2da;" horiz-adv-x="491" 
d="M246 1137q-81 0 -139 56t-58 138t58 138.5t139 56.5q80 0 138 -56.5t58 -138.5t-57.5 -138t-138.5 -56zM246 1198q56 0 94.5 39t38.5 94t-38.5 94t-94.5 39t-94.5 -39t-38.5 -94t38.5 -94t94.5 -39z" />
    <glyph glyph-name="ogonek" unicode="&#x2db;" horiz-adv-x="491" 
d="M252 -457q-77 0 -130.5 45.5t-53.5 124.5q0 74 49.5 143t134.5 146h78q-90 -88 -132 -147.5t-42 -120.5q0 -52 32.5 -84.5t85.5 -32.5q72 0 125 53l33 -59q-78 -68 -180 -68z" />
    <glyph glyph-name="tilde" unicode="&#x2dc;" horiz-adv-x="491" 
d="M12 1190h-71q13 85 54.5 138.5t113.5 53.5q53 0 153 -53q88 -43 123 -43q72 0 94 100h72q-13 -85 -53.5 -137.5t-112.5 -52.5q-54 0 -154 53q-88 43 -122 43q-75 0 -97 -102z" />
    <glyph glyph-name="hungarumlaut" unicode="&#x2dd;" horiz-adv-x="491" 
d="M35 1155h-96l206 295h150zM352 1155h-98l209 295h147z" />
    <glyph glyph-name="gravecomb" unicode="&#x300;" 
d="M178 1155h-96l-260 295h147z" />
    <glyph glyph-name="acutecomb" unicode="&#x301;" 
d="M-82 1155h-96l209 295h147z" />
    <glyph glyph-name="uni0302" unicode="&#x302;" 
d="M-176 1155h-109l219 295h132l219 -295h-109l-176 236z" />
    <glyph glyph-name="tildecomb" unicode="&#x303;" 
d="M-233 1190h-72q13 85 54.5 138.5t113.5 53.5q53 0 153 -53q88 -43 123 -43q72 0 94 100h72q-13 -85 -53.5 -137.5t-112.5 -52.5q-53 0 -153 53q-88 43 -123 43q-74 0 -96 -102z" />
    <glyph glyph-name="uni0304" unicode="&#x304;" 
d="M264 1241h-528v90h528v-90z" />
    <glyph glyph-name="uni0306" unicode="&#x306;" 
d="M-2 1178q-120 0 -198.5 71t-88.5 195h76q14 -85 72.5 -130.5t138.5 -45.5q86 0 143 44t74 132h74q-10 -125 -89 -195.5t-202 -70.5z" />
    <glyph glyph-name="uni0307" unicode="&#x307;" 
d="M0 1249q-32 0 -58 24.5t-26 59.5t26 59.5t58 24.5t58 -24.5t26 -59.5t-26 -59.5t-58 -24.5z" />
    <glyph glyph-name="uni0308" unicode="&#x308;" 
d="M-184 1243q-37 0 -62.5 27t-25.5 63q0 35 25.5 61.5t62.5 26.5q36 0 61 -26.5t25 -61.5q0 -36 -25 -63t-61 -27zM184 1243q-36 0 -61 27t-25 63q0 35 25 61.5t61 26.5q37 0 62.5 -26.5t25.5 -61.5q0 -36 -25.5 -63t-62.5 -27z" />
    <glyph glyph-name="hookabovecomb" unicode="&#x309;" 
d="M33 1137h-82q0 45 20 74.5t72 54.5q68 35 68 92q0 42 -26.5 67t-74.5 25q-104 0 -121 -113l-88 11q15 86 69.5 129t141.5 43q85 0 136 -44.5t51 -113.5q0 -102 -101 -148q-65 -32 -65 -77z" />
    <glyph glyph-name="uni030A" unicode="&#x30a;" 
d="M0 1137q-81 0 -139 56t-58 138t58 138.5t139 56.5t139 -56.5t58 -138.5t-58 -138t-139 -56zM0 1198q56 0 94.5 39t38.5 94t-38.5 94t-94.5 39t-94.5 -39t-38.5 -94t38.5 -94t94.5 -39z" />
    <glyph glyph-name="uni030B" unicode="&#x30b;" 
d="M-240 1155h-96l207 295h149zM78 1155h-98l208 295h148z" />
    <glyph glyph-name="uni030C" unicode="&#x30c;" 
d="M66 1155h-132l-219 295h109l176 -236l176 236h109z" />
    <glyph glyph-name="uni0312" unicode="&#x312;" 
d="M-2 1155h-117l146 379h92z" />
    <glyph glyph-name="uni0313" unicode="&#x313;" 
d="M-27 1155h-92l119 379h117z" />
    <glyph glyph-name="uni031B" unicode="&#x31b;" 
d="M-74 975h-98v82h84q81 0 121.5 36t40.5 99q0 60 -33 127l98 27q33 -79 33 -154q0 -99 -63.5 -158t-182.5 -59z" />
    <glyph glyph-name="dotbelowcomb" unicode="&#x323;" 
d="M0 -377q-32 0 -58 24.5t-26 59.5t26 59.5t58 24.5t58 -24.5t26 -59.5t-26 -59.5t-58 -24.5z" />
    <glyph glyph-name="uni0324" unicode="&#x324;" 
d="M-184 -436q-37 0 -62.5 27t-25.5 63q0 35 25.5 61.5t62.5 26.5q36 0 61 -26.5t25 -61.5q0 -36 -25 -63t-61 -27zM184 -436q-36 0 -61 27t-25 63q0 35 25 61.5t61 26.5q37 0 62.5 -26.5t25.5 -61.5q0 -36 -25.5 -63t-62.5 -27z" />
    <glyph glyph-name="uni0325" unicode="&#x325;" 
d="M0 -543q-81 0 -139 56.5t-58 138.5t58 138t139 56t139 -56t58 -138t-58 -138.5t-139 -56.5zM0 -481q56 0 94.5 38.5t38.5 94.5t-38.5 94.5t-94.5 38.5t-94.5 -38.5t-38.5 -94.5t38.5 -94.5t94.5 -38.5z" />
    <glyph glyph-name="uni0326" unicode="&#x326;" 
d="M-27 -471h-92l121 379h117z" />
    <glyph glyph-name="uni0327" unicode="&#x327;" 
d="M-25 -469q-103 0 -190 41l27 63q65 -32 155 -32q32 0 64 8t59 32t27 60q0 45 -34.5 66.5t-90.5 21.5q-57 0 -105 -20l-30 26l131 203h75l-104 -160q31 10 84 10q68 0 120 -37.5t52 -107.5q0 -48 -22.5 -83.5t-59.5 -54.5t-76.5 -27.5t-81.5 -8.5z" />
    <glyph glyph-name="uni0328" unicode="&#x328;" 
d="M2 -459q-77 0 -130.5 45.5t-53.5 124.5q0 74 49.5 143t134.5 146h78q-90 -88 -132 -147.5t-42 -120.5q0 -52 33 -84.5t86 -32.5q72 0 125 53l32 -59q-78 -68 -180 -68z" />
    <glyph glyph-name="uni032E" unicode="&#x32e;" 
d="M-6 -352q-120 0 -198.5 71t-88.5 195h76q14 -85 72.5 -130.5t138.5 -45.5q86 0 143 44t74 132h74q-10 -125 -89 -195.5t-202 -70.5z" />
    <glyph glyph-name="uni0330" unicode="&#x330;" 
d="M-233 -489h-72q13 85 54.5 138.5t113.5 53.5q53 0 153 -53q88 -43 123 -43q72 0 94 100h72q-13 -85 -53.5 -137.5t-112.5 -52.5q-53 0 -153 53q-88 43 -123 43q-74 0 -96 -102z" />
    <glyph glyph-name="uni0331" unicode="&#x331;" 
d="M264 -438h-528v90h528v-90z" />
    <glyph glyph-name="uni0394" unicode="&#x394;" horiz-adv-x="1441" 
d="M1376 0h-1310v80l606 1370h114l590 -1370v-80zM725 1329l-522 -1227h1034l-510 1227h-2z" />
    <glyph glyph-name="uni03A9" unicode="&#x3a9;" horiz-adv-x="1579" 
d="M655 0h-514v98h420v119q-196 62 -315 223.5t-119 390.5q0 153 52.5 279t143.5 208t211.5 126.5t256.5 44.5q186 0 335.5 -78t237.5 -229t88 -351q0 -226 -116.5 -389t-317.5 -225v-119h420v-98h-514v295q188 46 297.5 188.5t109.5 347.5q0 242 -145.5 397.5t-394.5 155.5
q-248 0 -395.5 -153.5t-147.5 -399.5q0 -207 110.5 -349t296.5 -187v-295z" />
    <glyph glyph-name="uni03BC" unicode="&#x3bc;" horiz-adv-x="1183" 
d="M1135 78l10 -88q-39 -10 -86 -10q-97 0 -132.5 51t-35.5 141v37h-4q-41 -108 -131.5 -173t-200.5 -65q-89 0 -154.5 35t-95.5 96h-4v-594h-111v1446h111v-551q0 -65 12 -120.5t39.5 -106.5t81.5 -80.5t129 -29.5q140 0 232 109t92 288v491h110v-770q0 -64 19 -88t67 -24
q28 0 52 6z" />
    <glyph glyph-name="uni10D0" unicode="&#x10d0;" horiz-adv-x="1079" 
d="M530 -29q-102 0 -186 32t-138 85.5t-83 122.5t-29 145q0 83 33 158l102 -35q-22 -55 -22 -123q0 -125 87 -206.5t236 -81.5q147 0 234.5 82t87.5 208q0 60 -20 110.5t-52.5 86t-71 68.5t-77.5 66t-71.5 68.5t-52.5 86t-20 110.5h115q0 -47 20.5 -87.5t52.5 -72.5
t70.5 -63.5t77 -67.5t70.5 -77t52 -100t20 -128q0 -78 -29.5 -148t-84 -123t-137.5 -84.5t-184 -31.5z" />
    <glyph glyph-name="uni10D1" unicode="&#x10d1;" horiz-adv-x="1241" 
d="M707 1114v-141q187 -25 303 -162t116 -334q0 -221 -141.5 -363.5t-363.5 -142.5t-363 143.5t-141 362.5q0 212 131.5 351t345.5 151v135q0 52 -17 90.5t-43 59.5t-56 46t-56 50.5t-43 73.5t-17 114h113q0 -61 24 -104t58 -70.5t68 -57t58 -80t24 -122.5zM618 68
q178 0 287 118.5t109 290.5q0 174 -109 292t-287 118q-177 0 -283 -118t-106 -292q0 -173 106.5 -291t282.5 -118z" />
    <glyph glyph-name="uni10D2" unicode="&#x10d2;" horiz-adv-x="1187" 
d="M594 -516q-223 0 -363.5 141.5t-140.5 360.5q0 203 121 335.5t319 159.5q273 40 273 224q0 87 -64.5 138.5t-171.5 51.5q-103 0 -166 -51.5t-63 -128.5q0 -43 12 -70l-104 -22q-21 42 -21 94q0 123 101 194.5t241 71.5q148 0 247 -74t99 -202q0 -89 -57.5 -155.5
t-150.5 -88.5v-4q180 -25 287.5 -155t107.5 -318q0 -220 -142 -361t-364 -141zM594 -422q177 0 285 117.5t108 290.5q0 172 -108 287.5t-285 115.5q-178 0 -284.5 -115.5t-106.5 -287.5q0 -174 106.5 -291t284.5 -117z" />
    <glyph glyph-name="uni10D3" unicode="&#x10d3;" horiz-adv-x="1751" 
d="M1282 -469l-94 -41q-27 74 -85 127t-136 80t-158 39t-172 12h-303v84h223v4q-89 23 -167.5 79t-139.5 138.5t-97 199t-36 249.5q0 240 99.5 360.5t266.5 120.5q129 0 216 -74.5t108 -191.5h6q39 122 141 194t246 72q193 0 314.5 -131t121.5 -342q0 -212 -122.5 -342.5
t-321.5 -130.5q-197 0 -319.5 130t-122.5 343q0 12 1 37t1 39q0 79 -23.5 140t-62 95t-81.5 51t-89 17q-128 -2 -197.5 -100t-69.5 -295q0 -133 40 -247t109.5 -194t160 -131.5t194.5 -68.5q239 -37 368 -109.5t181 -212.5zM1192 129q155 0 244.5 106.5t89.5 274.5
q0 167 -89.5 273t-244.5 106q-152 0 -243 -106.5t-91 -272.5q0 -167 90.5 -274t243.5 -107z" />
    <glyph glyph-name="uni10D4" unicode="&#x10d4;" horiz-adv-x="1210" 
d="M584 -516q-108 0 -198 35t-148.5 94.5t-90.5 137.5t-32 165q0 122 55 221l100 -35q-43 -85 -43 -186q0 -139 100.5 -238.5t258.5 -99.5q161 0 257.5 106.5t96.5 290.5v527q0 176 -94 281.5t-250 105.5q-141 0 -237.5 -81t-96.5 -216q0 -46 19 -105l-107 -18
q-24 58 -24 127q0 163 125.5 275t320.5 112q198 0 326.5 -126.5t128.5 -350.5v-535q0 -229 -129.5 -358t-337.5 -129z" />
    <glyph glyph-name="uni10D5" unicode="&#x10d5;" horiz-adv-x="1183" 
d="M590 -516q-110 0 -200.5 33.5t-150 91t-92 133.5t-32.5 162q0 97 39 174l100 -37q-27 -61 -27 -135q0 -136 102 -232t263 -96q164 0 264 90.5t100 241.5q0 87 -30.5 153t-81 103.5t-108 55.5t-118.5 18h-100v96h103q56 0 107 14t97 43t73.5 82t27.5 123q0 126 -89 208.5
t-241 82.5q-144 0 -238 -80.5t-94 -206.5q0 -40 10 -78l-106 -20q-16 46 -16 100q0 160 126 269.5t318 109.5q193 0 316.5 -108.5t123.5 -274.5q0 -126 -70 -205.5t-186 -103.5v-4q132 -30 210.5 -130t78.5 -253q0 -190 -133.5 -305t-345.5 -115z" />
    <glyph glyph-name="uni10D6" unicode="&#x10d6;" horiz-adv-x="1267" 
d="M655 -29q-219 0 -357 141t-138 357q0 124 50.5 227t143.5 162v4q-135 15 -223 115t-88 235q0 156 107.5 259.5t275.5 103.5q165 0 274 -101t109 -251q0 -175 -123 -260v-7q207 -6 337 -142t130 -345q0 -218 -139 -358t-359 -140zM426 936q121 0 196.5 81.5t75.5 194.5
t-75.5 193t-196.5 80q-124 0 -198 -79.5t-74 -193.5t74 -195t198 -81zM655 68q174 0 279.5 116t105.5 285q0 171 -105.5 286t-279.5 115t-278.5 -115t-104.5 -286q0 -110 45.5 -200.5t133.5 -145.5t204 -55z" />
    <glyph glyph-name="uni10D7" unicode="&#x10d7;" horiz-adv-x="1789" 
d="M1489 -23l-94 41q78 106 123 226.5t45 275.5q0 182 -71.5 275.5t-197.5 93.5q-45 0 -88 -17.5t-82.5 -53t-63.5 -100.5t-24 -151q0 -13 1 -42t1 -48q0 -228 -127 -367t-333 -139q-207 0 -334 139.5t-127 366.5t125.5 366.5t326.5 139.5q149 0 256 -74t150 -202h4
q19 119 108 197.5t216 78.5q81 0 148 -27.5t117.5 -82.5t78.5 -145t28 -208q0 -169 -53.5 -308.5t-132.5 -234.5zM578 68q162 0 255 113t93 296t-94 297.5t-254 114.5q-161 0 -255 -114.5t-94 -297.5t93.5 -296t255.5 -113z" />
    <glyph glyph-name="uni10D8" unicode="&#x10d8;" horiz-adv-x="1148" 
d="M395 18l-96 -41q-79 93 -130.5 221t-51.5 281q0 237 126 370.5t332 133.5t332.5 -133.5t126.5 -370.5q0 -153 -52 -281t-132 -221l-94 41q168 217 168 461q0 116 -38.5 207.5t-119 147t-191.5 55.5q-165 0 -256.5 -116t-91.5 -294q0 -244 168 -461z" />
    <glyph glyph-name="uni10D9" unicode="&#x10d9;" horiz-adv-x="1142" 
d="M549 -516q-112 0 -203.5 34.5t-150 93.5t-90 134t-31.5 158q0 101 37 176l100 -37q-25 -60 -25 -137q0 -137 100.5 -232.5t264.5 -95.5q167 0 265.5 96t98.5 267q0 92 -31.5 163.5t-83 113t-110 62.5t-119.5 21h-110v94h102q55 0 104.5 14.5t90.5 44.5t65.5 82.5
t24.5 120.5q0 82 -29.5 146.5t-89.5 132.5l96 45q133 -142 133 -324q0 -121 -60 -198t-173 -105v-4q134 -29 218.5 -139t84.5 -277q0 -211 -132.5 -330.5t-346.5 -119.5z" />
    <glyph glyph-name="uni10DA" unicode="&#x10da;" horiz-adv-x="2150" 
d="M1493 -469l-96 -41q-34 75 -96.5 127t-148 80t-177 39.5t-203.5 11.5h-379v84h223v4q-72 18 -140 53t-133.5 92.5t-114.5 129.5t-79 171.5t-30 211.5q0 128 29.5 225t81 153t114.5 83.5t137 27.5q64 0 116.5 -21t87 -57t56.5 -75t35 -82h4q27 99 104 167t189 68
q66 0 119 -21.5t87.5 -57.5t55.5 -74.5t33 -81.5h6q25 101 99 168t190 67q167 0 268 -119.5t101 -341.5q0 -234 -111 -432l-100 39q98 175 98 393q0 175 -70.5 271t-193.5 96q-100 0 -164 -78.5t-64 -251.5v-307h-110v307q0 172 -67.5 251t-176.5 79q-101 0 -170 -79
t-69 -251v-307h-111v307q0 171 -66.5 250.5t-167.5 79.5q-112 0 -185 -101t-73 -294q0 -121 36 -223t97.5 -175t145.5 -127.5t178 -85t197 -41.5q270 -29 403.5 -93.5t204.5 -217.5z" />
    <glyph glyph-name="uni10DB" unicode="&#x10db;" horiz-adv-x="1269" 
d="M621 -29q-145 0 -259.5 69.5t-174.5 184t-60 250.5q0 218 134 361t343 143q124 0 230 -61t159 -170h6v342q0 175 -99 283t-267 108q-154 0 -255.5 -84.5t-101.5 -220.5q0 -31 7 -66l-107 -20q-12 37 -12 88q0 165 131.5 281t337.5 116q209 0 343 -131t134 -352v-590
q0 -237 -135 -384t-354 -147zM621 66q170 0 277.5 119t107.5 290t-109.5 290.5t-275.5 119.5q-173 0 -276 -118t-103 -292q0 -172 103 -290.5t276 -118.5z" />
    <glyph glyph-name="uni10DC" unicode="&#x10dc;" horiz-adv-x="1259" 
d="M649 -29q-219 0 -354 147t-135 384v655q0 391 407 391h471v-94h-463q-155 0 -230 -73.5t-75 -223.5v-407h6q53 110 159 171.5t231 61.5q209 0 343 -144t134 -364q0 -135 -58.5 -248.5t-173 -184.5t-262.5 -71zM649 66q114 0 202 56.5t132.5 149t44.5 203.5
q0 113 -44.5 206.5t-132 150.5t-202.5 57q-167 0 -276 -119t-109 -293q0 -112 47 -205t136 -149.5t202 -56.5z" />
    <glyph glyph-name="uni10DD" unicode="&#x10dd;" horiz-adv-x="1613" 
d="M395 18l-94 -41q-78 95 -131 233.5t-53 309.5q0 116 30 206t82.5 145.5t120.5 83.5t148 28q67 0 122.5 -22t91.5 -58t58.5 -74.5t34.5 -80.5h4q26 101 107 168t196 67q170 0 277.5 -116.5t107.5 -346.5q0 -170 -53 -309.5t-131 -233.5l-94 41q165 226 165 502
q0 188 -76 278.5t-204 90.5q-45 0 -85 -16t-77 -51.5t-58.5 -103.5t-21.5 -161v-299h-110v299q0 167 -67 249.5t-179 82.5q-125 0 -201 -95.5t-76 -273.5q0 -274 166 -502z" />
    <glyph glyph-name="uni10DE" unicode="&#x10de;" horiz-adv-x="1191" 
d="M594 -29q-114 0 -206.5 36t-151.5 97.5t-91 139.5t-32 164q0 105 41 182l100 -35q-29 -68 -29 -145q0 -145 101 -244.5t270 -99.5q168 0 267.5 98t99.5 254q0 77 -21.5 138.5t-55.5 100.5t-80 65.5t-92.5 37t-95.5 10.5h-102v98h102q78 0 143 16t113 59t48 108
q0 50 -21 91t-55 70t-75 55t-81.5 52.5t-74.5 56.5t-55 74t-21 98h112q1 -40 22.5 -74.5t55 -60t74 -51t81 -54.5t73.5 -63t54 -84.5t21 -111.5q0 -93 -70 -154.5t-174 -75.5v-4q129 -34 209 -137.5t80 -261.5q0 -199 -133.5 -322t-349.5 -123z" />
    <glyph glyph-name="uni10DF" unicode="&#x10df;" horiz-adv-x="1230" 
d="M584 -516q-106 0 -196 34.5t-148 92t-90.5 130.5t-32.5 150q0 73 20 132l107 -27q-17 -56 -17 -102q0 -129 101 -222.5t258 -93.5q160 0 256 103.5t96 289.5v899l-520 -96v-4q86 -17 134 -85.5t48 -158.5q0 -125 -87 -198.5t-216 -73.5q-96 0 -178 47l41 78
q56 -35 139 -35q88 0 145.5 54t57.5 143t-57 145.5t-152 56.5q-50 0 -86 -12l-17 94l740 136h121v-996q0 -229 -129 -355t-338 -126z" />
    <glyph glyph-name="uni10E0" unicode="&#x10e0;" horiz-adv-x="1613" 
d="M395 18l-94 -41q-184 224 -184 623q0 151 25 266t83 210.5t154.5 164.5t236.5 117l107 35q105 33 173 76t97 104l99 -29q-26 -83 -112 -140.5t-226 -100.5l-107 -33q-201 -63 -306.5 -186t-137.5 -314h6q81 209 303 209q64 0 117 -21.5t87 -58t55.5 -75t33.5 -81.5h4
q26 101 107.5 168.5t199.5 67.5q169 0 275 -117t106 -342q0 -170 -53 -309.5t-131 -233.5l-94 41q165 226 165 502q0 184 -75.5 274.5t-208.5 90.5q-45 0 -84.5 -15.5t-75.5 -51t-57 -102.5t-21 -159v-299h-110v299q0 165 -65.5 246.5t-176.5 81.5q-126 0 -203.5 -89.5
t-77.5 -265.5q0 -164 44.5 -285t121.5 -227z" />
    <glyph glyph-name="uni10E1" unicode="&#x10e1;" horiz-adv-x="1265" 
d="M662 -29q-217 0 -352.5 142.5t-135.5 388.5v1046h111v-1046q0 -206 105.5 -320t273.5 -114q167 0 269.5 93t102.5 240q0 70 -23.5 128t-57.5 100.5t-67.5 85.5t-57.5 104t-25 135h113q1 -62 25 -115t57.5 -95.5t67.5 -87.5t57.5 -111t23.5 -146q0 -115 -58.5 -212
t-171 -156.5t-257.5 -59.5z" />
    <glyph glyph-name="uni10E2" unicode="&#x10e2;" horiz-adv-x="1478" 
d="M739 -516q-184 0 -329 89.5t-228.5 258.5t-83.5 391q0 163 44.5 299.5t124 231t188.5 150.5t237 65q-8 47 -8 131v121h111v-121q0 -78 -9 -131q128 -9 237.5 -65t189 -150.5t124.5 -231t45 -299.5q0 -222 -83.5 -391t-229 -258.5t-330.5 -89.5zM739 -424q241 0 386 181
t145 466q0 278 -133 454.5t-351 196.5q9 -110 9 -163v-508h-111v508q0 65 8 163q-216 -20 -348.5 -196.5t-132.5 -454.5q0 -187 64 -333.5t184.5 -230t279.5 -83.5z" />
    <glyph glyph-name="uni10E3" unicode="&#x10e3;" horiz-adv-x="1216" 
d="M584 -516q-108 0 -198.5 36.5t-149 97t-91 138t-32.5 160.5q0 124 51 213l100 -35q-39 -83 -39 -178q0 -139 101 -238.5t260 -99.5q162 0 261 103.5t99 289.5v658q0 127 -54.5 193.5t-154.5 66.5q-94 0 -150.5 -57.5t-56.5 -161.5v-275h-112v267q0 212 -195 212h-131v95
h139q92 0 156.5 -41t85.5 -127h2q26 86 100 134t170 48q141 0 227.5 -86t86.5 -256v-674q0 -234 -131.5 -358.5t-343.5 -124.5z" />
    <glyph glyph-name="uni10E4" unicode="&#x10e4;" horiz-adv-x="1675" 
d="M989 -516q-140 0 -254 44t-182 127.5t-68 190.5q0 14 4 50l107 -15q-2 -6 -2 -26q0 -123 115.5 -201t279.5 -78q179 0 295.5 90.5t116.5 243.5q0 137 -70.5 211t-183.5 74h-43v96h51q56 0 106 16t92.5 48.5t67.5 91t25 135.5q0 147 -66.5 228t-187.5 81q-44 0 -85.5 -16
t-78.5 -47.5t-59.5 -87.5t-22.5 -128q0 -14 1 -38.5t1 -36.5q0 -199 -115.5 -322t-300.5 -123q-187 0 -301 123t-114 322t113.5 322.5t295.5 123.5q133 0 229 -67.5t130 -178.5h4q24 107 108.5 176.5t208.5 69.5q158 0 255.5 -105t97.5 -282q0 -142 -67.5 -232.5
t-180.5 -119.5v-4q101 -33 150.5 -120t49.5 -212q0 -132 -72.5 -230t-189.5 -146t-260 -48zM530 180q144 0 228 100.5t84 256.5q0 157 -84.5 257.5t-227.5 100.5q-142 0 -225.5 -100.5t-83.5 -257.5q0 -156 83.5 -256.5t225.5 -100.5z" />
    <glyph glyph-name="uni10E5" unicode="&#x10e5;" horiz-adv-x="1249" 
d="M588 -516q-109 0 -200 36.5t-150 97t-91 137.5t-32 161q0 122 55 221l100 -35q-43 -85 -43 -186q0 -140 101 -239t262 -99q163 0 260.5 105t97.5 288v508q0 173 -102.5 291.5t-261.5 118.5q-137 0 -224.5 -79t-87.5 -212q0 -47 19 -111l-107 -18q-24 58 -24 133
q0 167 116.5 274t294.5 107q121 0 221.5 -62.5t147.5 -170.5h6v798h113v-1581q0 -228 -130 -355.5t-341 -127.5z" />
    <glyph glyph-name="uni10E6" unicode="&#x10e6;" horiz-adv-x="1613" 
d="M1165 -469l-94 -41q-33 74 -87.5 125.5t-126 78.5t-145.5 38.5t-163 11.5h-246v86h223v4q-183 57 -296 220t-113 407q0 139 30 242.5t84 163t120.5 88t146.5 28.5q67 0 122.5 -22t91.5 -58t58.5 -74.5t34.5 -80.5h4q28 101 108 168t195 67q170 0 277.5 -116.5
t107.5 -346.5q0 -239 -111 -432l-100 41q98 175 98 391q0 188 -76 278.5t-204 90.5q-45 0 -85 -16t-77 -51.5t-58.5 -103.5t-21.5 -161v-291h-110v291q0 167 -67 249.5t-179 82.5q-126 0 -201.5 -102t-75.5 -324q0 -251 125 -409.5t330 -203.5q197 -43 311.5 -113.5
t169.5 -205.5z" />
    <glyph glyph-name="uni10E7" unicode="&#x10e7;" horiz-adv-x="1255" 
d="M592 -516q-201 0 -334 108t-133 279q0 46 12 90l105 -22q-6 -34 -6 -68q0 -127 100 -210t256 -83q167 0 264.5 103t97.5 286v361h-6q-51 -111 -152.5 -169.5t-228.5 -58.5q-192 0 -321 130t-129 333q0 119 30.5 218t98.5 196l92 -41q-61 -96 -86 -179t-25 -186
q0 -158 99.5 -266t259.5 -108q166 0 268 111.5t102 291.5v354h111v-987q0 -228 -129.5 -355.5t-345.5 -127.5z" />
    <glyph glyph-name="uni10E8" unicode="&#x10e8;" horiz-adv-x="1265" 
d="M614 -29q-144 0 -257.5 69.5t-173.5 184t-60 250.5q0 218 134 361t343 143q124 0 230 -61t159 -170h6v489q0 114 -58 179t-151 65q-94 0 -152.5 -56.5t-58.5 -154.5v-117h-110v111q0 100 -54 157.5t-145 57.5q-88 0 -153 -41l-25 90q77 45 182 45q90 0 159.5 -49
t90.5 -135h4q24 87 98.5 136.5t172.5 49.5q140 0 225.5 -86t85.5 -250v-737q0 -237 -135.5 -384t-356.5 -147zM616 66q170 0 277.5 119t107.5 290t-109.5 290.5t-275.5 119.5q-115 0 -202.5 -56.5t-131.5 -148.5t-44 -205q0 -172 102.5 -290.5t275.5 -118.5z" />
    <glyph glyph-name="uni10E9" unicode="&#x10e9;" horiz-adv-x="1224" 
d="M926 -25l-95 41q77 106 121.5 216t44.5 247q0 110 -38.5 200.5t-120 148t-191.5 57.5t-193.5 -55.5t-127 -147.5t-43.5 -205v-477h-109v1186q0 183 106.5 285t272.5 102q164 0 270.5 -90.5t106.5 -253.5q0 -99 -43 -172l-101 26q33 73 33 146q0 116 -73.5 183t-190.5 67
q-126 0 -197 -79.5t-71 -213.5v-438h6q52 110 150.5 170.5t222.5 60.5q195 0 319.5 -136.5t124.5 -350.5q0 -158 -53 -292t-131 -225z" />
    <glyph glyph-name="uni10EA" unicode="&#x10ea;" horiz-adv-x="1361" 
d="M735 -506q-133 0 -245 48.5t-195.5 142.5t-130.5 241.5t-47 335.5q0 234 67.5 414.5t165.5 298.5l90 -39q-213 -281 -213 -674q0 -136 27 -248.5t74.5 -190.5t112.5 -131.5t139.5 -78.5t156.5 -25q180 0 290 89.5t110 244.5q0 85 -30 149.5t-80.5 101.5t-109.5 55
t-124 18h-127v96h145q75 0 136.5 16.5t105 60t43.5 109.5q0 49 -19.5 90.5t-49 68t-64 56t-64 56t-49 67t-19.5 88.5h113q2 -32 17 -60t38.5 -50.5t51 -45.5t55 -49t50 -56t36.5 -72.5t14 -92.5q0 -95 -65.5 -157.5t-173.5 -77.5v-4q129 -25 204.5 -124t75.5 -251
q0 -192 -142 -306t-370 -114z" />
    <glyph glyph-name="uni10EB" unicode="&#x10eb;" horiz-adv-x="1271" 
d="M608 -29q-216 0 -354.5 145.5t-138.5 358.5q0 219 134.5 363.5t344.5 144.5q124 0 230 -61.5t157 -171.5h6v798h113v-1054q0 -231 -136 -377t-356 -146zM610 68q170 0 277.5 119t107.5 290q0 113 -49 207t-137.5 149.5t-198.5 55.5q-174 0 -277.5 -118.5t-103.5 -295.5
q0 -172 104 -289.5t277 -117.5z" />
    <glyph glyph-name="uni10EC" unicode="&#x10ec;" horiz-adv-x="1265" 
d="M651 -29q-221 0 -356 147t-135 384v737q0 164 85.5 250t225.5 86q98 0 172 -49.5t98 -136.5h4q21 86 90.5 135t159.5 49q106 0 183 -45l-25 -90q-65 41 -154 41q-91 0 -144.5 -57t-53.5 -158v-111h-111v117q0 98 -58.5 154.5t-152.5 56.5q-93 0 -151 -65t-58 -179v-489h6
q53 109 159.5 170t230.5 61q209 0 343 -143t134 -361q0 -136 -60 -250.5t-174 -184t-258 -69.5zM649 66q173 0 276 118.5t103 290.5q0 174 -103 292t-276 118q-166 0 -275.5 -119.5t-109.5 -290.5t107.5 -290t277.5 -119z" />
    <glyph glyph-name="uni10ED" unicode="&#x10ed;" horiz-adv-x="1275" 
d="M565 -516q-108 0 -198 36t-148.5 96t-90.5 135t-32 155q0 75 27 151l104 -32q-18 -56 -18 -119q0 -133 100 -230.5t256 -97.5q161 0 259 103.5t98 279.5v488h-4q-53 -103 -155 -150t-226 -47q-164 0 -281 96t-117 254q0 160 115.5 256t296.5 96h371v594h110v-594h273v-92
h-273v-907q0 -220 -130 -345.5t-337 -125.5zM555 344q78 0 143.5 20.5t118 61.5t82 110t29.5 160v166h-367q-145 0 -226 -69.5t-81 -190.5q0 -116 86 -187t215 -71z" />
    <glyph glyph-name="uni10EE" unicode="&#x10ee;" horiz-adv-x="1271" 
d="M664 -29q-220 0 -356 146t-136 377v1054h113v-798h6q51 110 157 171.5t230 61.5q210 0 344.5 -144.5t134.5 -363.5q0 -213 -138.5 -358.5t-354.5 -145.5zM662 68q173 0 276.5 117.5t103.5 289.5q0 177 -103 295.5t-277 118.5q-167 0 -276.5 -119.5t-109.5 -292.5
q0 -171 108 -290t278 -119z" />
    <glyph glyph-name="uni10EF" unicode="&#x10ef;" horiz-adv-x="1185" 
d="M592 -516q-112 0 -203.5 34.5t-150 93.5t-90 134t-31.5 158q0 108 39 174l98 -35q-25 -60 -25 -137q0 -139 100.5 -233.5t264.5 -94.5q167 0 265.5 93t98.5 261q0 171 -99.5 262t-268.5 91h-58v344h-389v90h389v235h109v-235h391v-90h-391v-258q200 -12 315 -130
t115 -311q0 -212 -132 -329t-347 -117z" />
    <glyph glyph-name="uni10F0" unicode="&#x10f0;" horiz-adv-x="1134" 
d="M545 -29q-67 0 -132 12t-125.5 39t-106.5 65.5t-73.5 96t-27.5 125.5q0 53 16 97l105 -25q-11 -37 -11 -64q0 -81 53.5 -140.5t132 -86.5t169.5 -27q73 0 135 14.5t111.5 43.5t77.5 78t28 114q0 120 -95.5 184t-246.5 64h-127v94h193q110 0 177.5 35.5t67.5 112.5
q0 158 -245 158h-193v98h188q101 0 157 35.5t56 105.5q0 45 -30.5 76t-76 45t-99 31.5t-99 36.5t-76 59.5t-30.5 99.5h114q3 -38 34.5 -65t77 -40.5t98 -33t97 -40.5t74 -64t29.5 -103q0 -78 -46.5 -125.5t-131.5 -62.5v-4q97 -15 155 -65.5t58 -141.5q0 -83 -57 -135
t-146 -66v-4q96 -19 166 -96t70 -197q0 -106 -63.5 -183t-167.5 -114t-234 -37z" />
    <glyph glyph-name="uni10F1" unicode="&#x10f1;" horiz-adv-x="1398" 
d="M762 -29q-140 0 -257 51.5t-204 150.5t-135.5 254t-48.5 351q0 462 243 789l95 -39q-228 -325 -228 -750q0 -177 43.5 -315.5t118.5 -223t170.5 -128t204.5 -43.5q181 0 288 70t107 190q0 111 -93 172t-243 61h-149v94h209q110 0 177.5 35.5t67.5 116.5q0 158 -245 158
h-209v94h215q203 0 203 135q0 38 -17 67t-44 47.5t-59.5 35.5t-65 34.5t-59.5 38.5t-44 54.5t-17 76.5h113q2 -35 26 -62t57.5 -44t72.5 -39t72 -45.5t55 -65t22 -96.5q0 -73 -46 -119t-132 -61v-4q97 -15 156 -65t59 -140q0 -85 -58 -138.5t-145 -66.5v-4q94 -16 164 -90.5
t70 -185.5q0 -161 -142 -256t-368 -95z" />
    <glyph glyph-name="uni10F2" unicode="&#x10f2;" horiz-adv-x="1148" 
d="M154 -18v94q160 0 305 37v4q-161 70 -251.5 183.5t-90.5 264.5q0 188 129.5 303t328.5 115q200 0 329.5 -115t129.5 -303q0 -151 -91 -265.5t-253 -182.5v-4q133 -37 305 -37v-94q-227 0 -420 77q-196 -77 -421 -77zM575 145q155 60 251 166.5t96 251.5q0 140 -96.5 233
t-250.5 93q-155 0 -251.5 -93t-96.5 -233q0 -145 96 -252t252 -166z" />
    <glyph glyph-name="uni10F3" unicode="&#x10f3;" horiz-adv-x="1185" 
d="M592 -506q-110 0 -201.5 34.5t-150.5 93.5t-91 134t-32 158q0 101 37 174l100 -37q-25 -62 -25 -135q0 -138 101 -233t264 -95q162 0 263 94.5t101 247.5q0 83 -31 148.5t-81 104t-108 58t-117 19.5h-101v94h101q44 0 84.5 9t80.5 30.5t69 54.5t47 85t18 118v209h-646
v-229h-108v323h864v-299q0 -147 -68 -233.5t-182 -112.5v-4q132 -30 210.5 -131.5t78.5 -249.5q0 -192 -134 -311t-343 -119z" />
    <glyph glyph-name="uni10F4" unicode="&#x10f4;" horiz-adv-x="1142" 
d="M549 -516q-110 0 -201.5 34.5t-150.5 93t-91 134t-32 158.5q0 102 37 172l100 -37q-25 -60 -25 -135q0 -136 101 -232t264 -96q161 0 262.5 95t101.5 247q0 83 -31 148.5t-81.5 104t-109 58t-118.5 19.5h-98v96h101q54 0 105.5 14.5t95.5 42t71 75.5t27 108
q0 38 -10.5 72.5t-35 65t-48 53.5t-65 50.5t-69.5 43.5t-78 44q-59 33 -100 58.5t-90 64t-79 75.5t-50.5 86.5t-20.5 102.5q0 118 93.5 196.5t248.5 78.5q85 0 173.5 -21.5t148.5 -60.5l-43 -90q-123 78 -281 78q-119 0 -177 -54t-58 -129q0 -32 9.5 -60.5t32 -55.5
t43.5 -47t61 -46t65.5 -41.5t75.5 -43.5q39 -22 59 -34t56.5 -34.5t56.5 -38t50.5 -39.5t47.5 -44t37.5 -47.5t31 -53.5t18 -58t7.5 -65q0 -108 -66.5 -188t-183.5 -103v-4q132 -30 210.5 -132.5t78.5 -250.5q0 -191 -134 -309.5t-343 -118.5z" />
    <glyph glyph-name="uni10F5" unicode="&#x10f5;" horiz-adv-x="1298" 
d="M1255 1016v-90h-249v-289h249v-92h-249v-185q0 -84 -25.5 -151.5t-68.5 -111.5t-102 -73t-121.5 -41t-131.5 -12q-197 0 -318.5 89t-121.5 253q0 159 116 241.5t308 82.5h356v289h-350q-194 0 -303 79.5t-109 231.5q0 159 117.5 243.5t310.5 84.5q67 0 127.5 -11
t119 -38.5t101 -69t68.5 -107.5t27 -149v-174h249zM555 1016h342v155q0 302 -332 302q-150 0 -233.5 -59.5t-83.5 -176.5q0 -113 81 -167t226 -54zM897 375v170h-348q-152 0 -236 -57.5t-84 -174.5q0 -123 88.5 -186.5t239.5 -63.5q166 0 253 79.5t87 232.5z" />
    <glyph glyph-name="uni10F6" unicode="&#x10f6;" horiz-adv-x="1404" 
d="M508 -516q-62 0 -121 18l12 90q46 -16 95 -16q153 0 153 184v211q-254 3 -392 142.5t-138 361.5q0 72 16 139t55 133.5t98 115.5t152 80t209 32v321q2 120 60.5 194.5t189.5 74.5q60 0 121 -21l-12 -88q-43 14 -97 14q-153 0 -153 -182v-313q115 -2 207.5 -31.5
t152 -77.5t99 -113.5t56.5 -134.5t17 -145q0 -104 -33.5 -193.5t-98 -158.5t-167 -109t-233.5 -41v-215q0 -121 -58.5 -196.5t-189.5 -75.5zM647 66v817q-96 0 -171.5 -25.5t-121.5 -65.5t-76 -95.5t-41.5 -110t-11.5 -113.5q0 -182 108.5 -294.5t313.5 -112.5zM756 883
v-817q90 0 163 22.5t120.5 60.5t79.5 90.5t45.5 110.5t13.5 123q0 62 -12 118t-42 110.5t-76.5 93.5t-121.5 63.5t-170 24.5z" />
    <glyph glyph-name="uni10F7" unicode="&#x10f7;" horiz-adv-x="1181" 
d="M590 -516q-221 0 -360.5 136t-139.5 335q0 63 13.5 118t34 96t55.5 79t67 63.5t79.5 52.5t82.5 43t86 37t78 33.5t68.5 33.5t63.5 39t45.5 43t33.5 54.5t10 63.5q0 84 -62 134t-163 50q-98 0 -162 -52t-64 -128q0 -31 13 -70l-105 -22q-18 45 -18 94q0 82 49 144
t124.5 92t162.5 30q148 0 240.5 -72t92.5 -196q0 -41 -10 -76.5t-24.5 -63t-42 -53.5t-51 -43.5t-64 -39t-68 -34t-75.5 -32.5q-42 -19 -69 -31.5t-66 -33t-64.5 -38.5t-56.5 -43.5t-50.5 -53t-37 -60.5t-25.5 -73t-8 -85q0 -100 45.5 -185t135 -138.5t206.5 -53.5
q181 0 285 112.5t104 276.5q0 98 -39 180l102 37q50 -106 50 -217q0 -137 -60.5 -246.5t-175.5 -173t-266 -63.5z" />
    <glyph glyph-name="uni10F8" unicode="&#x10f8;" horiz-adv-x="1255" 
d="M664 -516q-216 0 -346 127.5t-130 355.5v987h111v-354q0 -180 102.5 -291.5t268.5 -111.5q160 0 259 108t99 266q0 104 -24.5 186.5t-85.5 178.5l92 41q68 -97 98.5 -196t30.5 -218q0 -203 -129.5 -333t-321.5 -130q-127 0 -228.5 58.5t-152.5 169.5h-6v-361
q0 -183 98 -286t265 -103q156 0 256 83t100 210q0 33 -6 68l104 22q12 -43 12 -90q0 -171 -132.5 -279t-333.5 -108z" />
    <glyph glyph-name="uni10F9" unicode="&#x10f9;" horiz-adv-x="1241" 
d="M621 981q223 0 363 -141t140 -361q0 -203 -121 -335.5t-319 -159.5q-272 -40 -272 -224q0 -87 64.5 -138.5t170.5 -51.5q103 0 166.5 51.5t63.5 128.5q0 41 -13 70l105 22q20 -40 20 -94q0 -123 -101 -194.5t-241 -71.5q-148 0 -247 74t-99 202q0 88 58 155t151 89v4
q-180 25 -287.5 155t-107.5 318q0 220 142 361t364 141zM621 887q-177 0 -285.5 -117.5t-108.5 -290.5q0 -172 108.5 -287.5t285.5 -115.5q178 0 284.5 115.5t106.5 287.5q0 174 -106.5 291t-284.5 117z" />
    <glyph glyph-name="uni10FA" unicode="&#x10fa;" horiz-adv-x="999" 
d="M954 90l-635 -334l-49 86l287 146l-2 6q-191 12 -314.5 147.5t-123.5 329.5q0 226 140 369t355 143q97 0 186.5 -37t147.5 -104l-82 -68q-43 53 -110.5 84t-139.5 31q-173 0 -278 -121.5t-105 -296.5q0 -170 104.5 -287.5t274.5 -117.5q142 0 291 120z" />
    <glyph glyph-name="uni10FB" unicode="&#x10fb;" horiz-adv-x="958" 
d="M211 791q-36 0 -62 26t-26 62q0 37 25.5 63.5t62.5 26.5t62.5 -25.5t25.5 -62.5q0 -38 -26 -64t-62 -26zM705 389q-36 0 -62.5 26t-26.5 64q0 37 26 62.5t63 25.5t62.5 -25.5t25.5 -62.5t-26.5 -63.5t-61.5 -26.5zM211 -12q-36 0 -62 26t-26 62q0 37 25.5 63.5t62.5 26.5
t62.5 -25.5t25.5 -62.5q0 -38 -26 -64t-62 -26z" />
    <glyph glyph-name="uni10FC" unicode="&#x10fc;" horiz-adv-x="765" 
d="M395 565q-120 0 -198 77t-78 208v379q0 113 62 167t169 54h266v-76h-258q-153 0 -153 -151v-211h4q27 53 81.5 83.5t119.5 30.5q114 0 189 -80t75 -200q0 -114 -75 -197.5t-204 -83.5zM395 639q88 0 140.5 60.5t52.5 148.5q0 86 -52.5 144.5t-140.5 58.5
q-83 0 -138.5 -59t-55.5 -146q0 -89 54 -148t140 -59z" />
    <glyph glyph-name="uni10FD" unicode="&#x10fd;" horiz-adv-x="1202" 
d="M602 -29q-215 0 -350 123.5t-135 315.5q0 110 47 196l100 -18q-35 -71 -35 -178q0 -146 103 -244t272 -98q168 0 268.5 91.5t100.5 237.5q0 40 -7.5 75.5t-25 65t-35.5 53t-49 46t-54 37.5t-63.5 33t-64.5 28t-68 27q-52 20 -88 35.5t-82 40t-77.5 47.5t-64.5 56.5
t-52.5 70t-32 84t-12.5 102.5q0 117 58 203.5t150.5 129t204.5 42.5q168 0 286 -100.5t118 -258.5q0 -65 -19 -116l-102 24q10 38 10 84q0 125 -81.5 202t-213.5 77q-135 0 -217 -81.5t-82 -205.5q0 -44 11 -82t27 -66.5t46 -56t56 -45.5t69 -39t73 -33.5t79 -31.5
q52 -20 87.5 -35t82.5 -40t79 -48.5t66.5 -58.5t55 -73t33.5 -88t13 -108q0 -190 -136 -306t-349 -116z" />
    <glyph glyph-name="uni10FE" unicode="&#x10fe;" horiz-adv-x="1148" 
d="M154 879v94q222 0 421 -78q196 78 420 78v-94q-172 0 -305 -37v-4q162 -68 253 -183t91 -266q0 -188 -129.5 -303t-329.5 -115q-199 0 -328.5 115t-129.5 303q0 151 90.5 265t251.5 184v4q-145 37 -305 37zM575 809q-156 -59 -252 -166t-96 -252q0 -140 96.5 -232.5
t251.5 -92.5t251 92.5t96 232.5q0 145 -96 251.5t-251 166.5z" />
    <glyph glyph-name="uni10FF" unicode="&#x10ff;" horiz-adv-x="1269" 
d="M621 -29q-219 0 -361.5 143.5t-142.5 364.5t142.5 362.5t361.5 141.5q222 0 364.5 -141.5t142.5 -362.5t-143 -364.5t-364 -143.5zM621 66q120 0 211 57t136.5 150t45.5 206q0 174 -106.5 292t-286.5 118q-178 0 -285 -118.5t-107 -291.5t107.5 -293t284.5 -120z" />
    <glyph glyph-name="uni1C90" unicode="&#x1c90;" horiz-adv-x="1206" 
d="M598 -39q-216 0 -348.5 136t-132.5 339q0 148 69 279l105 -37q-55 -116 -55 -242q0 -164 102 -269.5t262 -105.5q161 0 261 107t100 291q0 90 -24 168.5t-62.5 137t-85 114.5t-93.5 114t-85.5 121t-62.5 149.5t-24 186.5h117q0 -88 24.5 -166.5t63 -139t85.5 -119
t94 -118.5t85.5 -124t63 -149t24.5 -181q0 -228 -134 -360t-349 -132z" />
    <glyph glyph-name="uni1C91" unicode="&#x1c91;" horiz-adv-x="1277" 
d="M727 1044v-112q137 -17 237.5 -88t149.5 -173t49 -222q0 -98 -36 -186t-101.5 -155.5t-166 -107t-220.5 -39.5q-121 0 -221.5 40t-165.5 108t-101 155.5t-36 184.5q0 126 58 234t172 178t263 77v100q0 46 -13.5 80t-35.5 55t-48 39t-52 37t-48 43t-35.5 64.5t-13.5 93.5
h117q1 -40 15 -70.5t36 -50.5t48.5 -38.5t52.5 -39t47.5 -46.5t35 -67t13.5 -94zM639 61q181 0 293 111t112 277q0 168 -112 279.5t-293 111.5q-182 0 -294 -111.5t-112 -279.5q0 -166 112 -277t294 -111z" />
    <glyph glyph-name="uni1C92" unicode="&#x1c92;" horiz-adv-x="1302" 
d="M651 -39q-120 0 -220.5 39.5t-166 107t-101.5 155.5t-36 186q0 188 124.5 322t340.5 163q134 18 211.5 79.5t77.5 170.5q0 98 -69.5 155.5t-180.5 57.5t-182.5 -56.5t-71.5 -142.5q0 -30 12 -80l-106 -22q-21 48 -21 102q0 86 54 154t136.5 102.5t176.5 34.5
q152 0 259 -82.5t107 -218.5q0 -102 -59.5 -173t-155.5 -97v-5q183 -30 290.5 -161t107.5 -303q0 -98 -36.5 -186t-102.5 -155.5t-167 -107t-221 -39.5zM651 61q181 0 294.5 111t113.5 277q0 167 -113.5 279t-294.5 112q-182 0 -293.5 -111.5t-111.5 -279.5q0 -166 112 -277
t293 -111z" />
    <glyph glyph-name="uni1C93" unicode="&#x1c93;" horiz-adv-x="1830" 
d="M1335 16l-100 -41q-29 69 -89.5 118.5t-140 75.5t-161.5 37t-174 11h-322v88h240v4q-91 23 -174 81t-147 141.5t-102 197t-38 238.5q0 110 21 198.5t57.5 148t86.5 100t106.5 58t119.5 17.5q134 0 222.5 -72.5t113.5 -193.5h4q37 120 144 193t253 73q199 0 330 -133.5
t131 -343.5q0 -214 -131.5 -347t-335.5 -133t-333.5 132.5t-129.5 347.5q0 13 2.5 38t2.5 40q0 79 -23 138.5t-61 93.5t-83 50.5t-94 16.5q-128 0 -206 -105t-78 -313q0 -130 42.5 -244t115 -195.5t167 -135t199.5 -70.5q241 -38 374 -108.5t191 -201.5zM1251 631
q157 0 252.5 106t95.5 275q0 167 -95.5 273t-252.5 106q-158 0 -253 -105.5t-95 -273.5q0 -169 94.5 -275t253.5 -106z" />
    <glyph glyph-name="uni1C94" unicode="&#x1c94;" horiz-adv-x="1261" 
d="M612 -39q-108 0 -200.5 35t-154 94t-96 137t-34.5 164q0 124 55 223l107 -36q-43 -88 -43 -187q0 -137 104.5 -234.5t263.5 -97.5q163 0 263 105t100 289v555q0 176 -98 278.5t-254 102.5q-144 0 -244 -79t-100 -214q0 -57 18 -113l-113 -20q-24 62 -24 139
q0 162 133 274.5t330 112.5q128 0 233.5 -54t171.5 -164.5t66 -258.5v-566q0 -227 -137 -356t-347 -129z" />
    <glyph glyph-name="uni1C95" unicode="&#x1c95;" horiz-adv-x="1253" 
d="M625 -39q-224 0 -361 123t-137 303q0 103 37 176l108 -35q-26 -58 -26 -139q0 -137 107 -232.5t274 -95.5t274 92t107 244q0 84 -33.5 150.5t-87 104.5t-113.5 57.5t-121 19.5h-102v100h104q44 0 87 8.5t85 29t73.5 50.5t51 77t19.5 104q0 126 -93 209.5t-249 83.5
q-147 0 -246.5 -81t-99.5 -208q0 -48 10 -82l-115 -21q-14 51 -14 105q0 162 134.5 273.5t330.5 111.5t328.5 -110.5t132.5 -278.5q0 -123 -74.5 -208t-194.5 -110v-4q137 -31 221 -135t84 -252q0 -128 -66.5 -227t-180 -151t-254.5 -52z" />
    <glyph glyph-name="uni1C96" unicode="&#x1c96;" horiz-adv-x="1396" 
d="M758 -39q-121 0 -221.5 39.5t-166 106.5t-101.5 153t-36 180q0 248 189 369v6q-158 6 -247 101t-89 229q0 150 106.5 247t280.5 97q173 0 281 -96t108 -236q0 -72 -27.5 -131.5t-76.5 -91.5v-4q124 1 225.5 -38t165.5 -106.5t98.5 -154t34.5 -182.5q0 -98 -36 -186
t-101.5 -155.5t-166 -107t-220.5 -39.5zM473 893q126 0 200.5 71.5t74.5 178.5q0 105 -74.5 177.5t-200.5 72.5q-127 0 -199.5 -72t-72.5 -178t73 -178t199 -72zM758 61q180 0 292.5 111t112.5 277q0 167 -112 276t-293 109q-184 0 -296 -109t-112 -276q0 -166 112.5 -277
t295.5 -111z" />
    <glyph glyph-name="uni1C97" unicode="&#x1c97;" horiz-adv-x="1984" 
d="M645 -39q-106 0 -195 36.5t-155 105.5t-103.5 177.5t-37.5 245.5v398q0 137 37 245.5t102.5 177.5t153 105.5t190.5 36.5q101 0 186 -32t151 -103.5t93 -175.5h6q27 150 122.5 230.5t238.5 80.5q181 0 290 -129t109 -371v-342q0 -201 -57.5 -380.5t-149.5 -297.5l-98 51
q83 118 133.5 284t50.5 351v326q0 197 -78 302.5t-211 105.5q-138 0 -212 -103t-74 -301v-459q0 -137 -37.5 -245.5t-104 -177.5t-155.5 -105.5t-195 -36.5zM645 61q167 0 270 123.5t103 350.5v380q0 229 -99.5 351.5t-273.5 122.5q-169 0 -271 -124t-102 -350v-380
q0 -226 102 -350t271 -124z" />
    <glyph glyph-name="uni1C98" unicode="&#x1c98;" horiz-adv-x="1288" 
d="M440 20l-96 -51q-84 116 -138 282.5t-54 362.5v312q0 269 136.5 416t354.5 147q106 0 195.5 -36.5t156 -105.5t104.5 -177t38 -244v-312q0 -196 -54.5 -362t-138.5 -283l-96 51q76 113 123 267.5t47 337.5v293q0 224 -103.5 347.5t-271.5 123.5t-270.5 -123.5
t-102.5 -347.5v-293q0 -183 47 -337.5t123 -267.5z" />
    <glyph glyph-name="uni1C99" unicode="&#x1c99;" horiz-adv-x="1241" 
d="M614 -39q-113 0 -207.5 35t-157 94.5t-97.5 136t-35 160.5q0 108 37 178l108 -35q-26 -65 -26 -141q0 -137 105.5 -232.5t274.5 -95.5q170 0 275.5 94t105.5 257q0 89 -32.5 159t-85.5 110.5t-113.5 61.5t-122.5 21h-127v100h133q118 0 199.5 71t81.5 204q0 164 -135 293
l94 45q158 -131 158 -338q0 -120 -61.5 -206.5t-170.5 -115.5v-4q132 -30 216.5 -139.5t84.5 -267.5q0 -204 -142 -324.5t-360 -120.5z" />
    <glyph glyph-name="uni1C9A" unicode="&#x1c9a;" horiz-adv-x="2267" 
d="M1583 12l-100 -41q-28 52 -70 93t-94 68.5t-108 46t-121.5 28.5t-125.5 14t-128 4h-430v88h249v4q-77 17 -150.5 52t-142.5 92.5t-121 129.5t-83 170t-31 208q0 134 32.5 237t88.5 163t123.5 90t144.5 30q123 0 204.5 -70t104.5 -178h4q18 104 105.5 176t206.5 72
q122 0 206.5 -71t102.5 -177h4q19 105 105.5 176.5t209.5 71.5q162 0 272.5 -129t110.5 -352q0 -232 -122 -433l-109 39q109 182 109 394q0 177 -74 280t-193 103q-50 0 -93.5 -17.5t-80 -54t-57.5 -103t-21 -155.5v-330h-116v330q0 91 -21 157.5t-58 103t-80.5 53
t-94.5 16.5q-50 0 -94 -17t-81.5 -53.5t-59 -103t-21.5 -156.5v-330h-117v330q0 173 -69 251.5t-177 78.5q-117 0 -195.5 -106.5t-78.5 -313.5q0 -139 52 -254t144 -194t214 -128t266 -65q279 -27 431 -97.5t228 -220.5z" />
    <glyph glyph-name="uni1C9B" unicode="&#x1c9b;" horiz-adv-x="1325" 
d="M641 -39q-119 0 -217.5 39t-162.5 105.5t-99 153t-35 183.5q0 96 35 184t98 156t158.5 108t208.5 40q130 0 242 -59t165 -162h6v319q0 162 -104.5 262.5t-276.5 100.5q-95 0 -179 -31t-140.5 -96.5t-56.5 -153.5q0 -31 6 -55l-115 -19q-10 31 -10 80q0 74 37 142
t101.5 119t157.5 81.5t199 30.5q212 0 356 -124.5t144 -330.5v-583q0 -219 -145 -354.5t-373 -135.5zM641 61q183 0 294.5 106t111.5 275q0 167 -115.5 277t-290.5 110q-180 0 -287.5 -110.5t-107.5 -276.5q0 -163 108 -272t287 -109z" />
    <glyph glyph-name="uni1C9C" unicode="&#x1c9c;" horiz-adv-x="1325" 
d="M684 -39q-228 0 -373 137t-145 357v604q0 104 33.5 181t94 122t138.5 66.5t174 21.5h488v-100h-476q-333 0 -333 -299v-340h8q51 103 164 164t241 61q113 0 208.5 -40.5t158.5 -108.5t98 -156.5t35 -184.5t-35 -183t-99 -154.5t-162.5 -107.5t-217.5 -40zM684 61
q179 0 287 111t108 274q0 167 -107 279.5t-288 112.5q-173 0 -288 -112t-115 -280t110.5 -276.5t292.5 -108.5z" />
    <glyph glyph-name="uni1C9D" unicode="&#x1c9d;" horiz-adv-x="1810" 
d="M457 20l-101 -51q-90 118 -146 297t-56 381v342q0 242 107.5 371t287.5 129q131 0 224 -67.5t128 -209.5h6q34 141 128.5 209t226.5 68q180 0 287.5 -129t107.5 -371v-342q0 -201 -57 -380.5t-148 -297.5l-98 51q83 118 133.5 284t50.5 351v326q0 197 -77 302.5
t-212 105.5q-137 0 -210.5 -102.5t-73.5 -299.5v-575h-121v577q0 197 -73 298.5t-212 101.5q-133 0 -211 -105.5t-78 -302.5v-326q0 -187 50.5 -353t136.5 -282z" />
    <glyph glyph-name="uni1C9E" unicode="&#x1c9e;" horiz-adv-x="1245" 
d="M614 -39q-114 0 -209 37t-157 99t-96.5 141t-34.5 165q0 111 41 189l106 -37q-28 -66 -28 -149q0 -143 104.5 -244t275.5 -101q172 0 276.5 94t104.5 244q0 71 -22 128.5t-57 94t-82 61t-95 34.5t-98 10h-113v98h132q290 0 290 166q0 48 -22.5 86t-59 63.5t-80.5 47.5
t-87.5 45.5t-80 51t-59 70t-22.5 95.5h118q2 -38 26.5 -69.5t61 -54t80.5 -44.5t87 -47t79 -55.5t58 -77t22 -103.5q0 -101 -66 -156.5t-176 -68.5v-6q130 -25 208.5 -125.5t78.5 -245.5q0 -195 -142 -315.5t-362 -120.5z" />
    <glyph glyph-name="uni1C9F" unicode="&#x1c9f;" horiz-adv-x="1292" 
d="M618 -39q-144 0 -257.5 56t-173.5 147t-60 198q0 74 25 138l110 -27q-16 -50 -16 -106q0 -127 106 -216.5t266 -89.5q169 0 272 104t103 298v905l-540 -98v-4q91 -18 141.5 -89t50.5 -167q0 -131 -90 -206t-221 -75q-116 0 -199 51l43 82q59 -39 152 -39q92 0 150.5 56
t58.5 147q0 94 -62 152.5t-160 58.5q-42 0 -92 -10l-14 94l772 141h127v-1007q0 -158 -66 -271.5t-175.5 -168t-250.5 -54.5z" />
    <glyph glyph-name="uni1CA0" unicode="&#x1ca0;" horiz-adv-x="1705" 
d="M416 12l-99 -41q-190 221 -190 592q0 168 38.5 296.5t111.5 215t169.5 140t223.5 81.5l157 35q192 42 256 152l101 -39q-60 -153 -318 -211l-176 -37q-196 -43 -319.5 -166.5t-149.5 -308.5h6q43 107 130 158t186 51q69 0 126 -21.5t94 -58t61 -77.5t36 -87h4
q25 101 115.5 172.5t216.5 71.5q78 0 148 -28t126 -82t88.5 -141.5t32.5 -197.5q0 -158 -55 -288.5t-135 -221.5l-98 41q78 102 122.5 212.5t44.5 256.5q0 179 -78 264.5t-206 85.5q-51 0 -96 -17t-85 -53t-63.5 -102.5t-23.5 -156.5v-260h-117v260q0 166 -71.5 247.5
t-186.5 81.5q-59 0 -111 -20t-94 -59.5t-66 -105.5t-24 -152q0 -152 45 -265t123 -217z" />
    <glyph glyph-name="uni1CA1" unicode="&#x1ca1;" horiz-adv-x="1318" 
d="M696 -39q-102 0 -194 33t-164 94.5t-114 157.5t-42 213v991h119v-991q0 -180 110.5 -289t286.5 -109q172 0 278.5 92t106.5 236q0 58 -17 109.5t-42.5 88t-55 77.5t-55 77.5t-42.5 88.5t-17 110h119q1 -56 25 -108t57.5 -96t67.5 -91.5t57.5 -114.5t23.5 -145
q0 -177 -142 -300.5t-366 -123.5z" />
    <glyph glyph-name="uni1CA2" unicode="&#x1ca2;" horiz-adv-x="1613" 
d="M807 -39q-143 0 -267 51.5t-216 145t-144.5 234t-52.5 310.5q0 162 48.5 299t133.5 231t200.5 149t248.5 61q-6 81 -6 86h110q0 -46 -6 -86q133 -6 248.5 -60.5t200.5 -148.5t133.5 -231t48.5 -300q0 -170 -52.5 -310.5t-144.5 -234t-216 -145t-267 -51.5zM807 57
q252 0 407.5 178t155.5 467q0 276 -145 454t-369 190q10 -128 10 -179v-528l-118 -2v530q0 89 12 179q-226 -12 -371 -189t-145 -455q0 -288 156 -466.5t407 -178.5z" />
    <glyph glyph-name="uni1CA3" unicode="&#x1ca3;" horiz-adv-x="1284" 
d="M627 -39q-108 0 -200.5 36t-154.5 96t-96.5 138.5t-34.5 163.5q0 116 52 215l106 -37q-39 -83 -39 -176q0 -141 104.5 -239.5t264.5 -98.5q164 0 266 102t102 290v675q0 135 -57 200t-160 65q-95 0 -154 -64.5t-59 -173.5v-272h-118v268q0 221 -201 221h-146v105h160
q94 0 159.5 -45t86.5 -130h4q24 84 99.5 136.5t179.5 52.5q147 0 237 -88t90 -254v-703q0 -118 -38 -211.5t-105.5 -152t-156 -89t-191.5 -30.5z" />
    <glyph glyph-name="uni1CA4" unicode="&#x1ca4;" horiz-adv-x="1802" 
d="M1071 -39q-109 0 -206.5 22.5t-175.5 65.5t-123.5 114t-45.5 161q0 29 4 49l115 -11q-2 -12 -2 -28q0 -70 36.5 -125t99 -87t138 -48.5t160.5 -16.5q192 0 312 85t120 239q0 119 -68.5 195.5t-183.5 76.5h-43v97h64q57 0 106 17.5t90 53t64.5 97.5t23.5 143
q0 161 -74.5 245.5t-195.5 84.5q-51 0 -97.5 -17t-85.5 -51.5t-62 -93t-23 -133.5q0 -14 1 -38t1 -36q0 -206 -127.5 -336.5t-325.5 -130.5q-197 0 -324.5 130.5t-127.5 336.5q0 207 127 337t319 130q142 0 249 -71.5t142 -190.5h4q24 116 117.5 189t231.5 73
q158 0 264 -111t106 -303q0 -156 -72 -253t-182 -120v-4q96 -37 148.5 -120.5t52.5 -202.5q0 -99 -44.5 -179t-120.5 -130.5t-175 -77.5t-211 -27zM567 651q154 0 248 104t94 267t-94 268t-248 105t-248 -104.5t-94 -268.5q0 -163 94 -267t248 -104z" />
    <glyph glyph-name="uni1CA5" unicode="&#x1ca5;" horiz-adv-x="1294" 
d="M621 -39q-109 0 -203 33t-157 89t-98.5 129t-35.5 153q0 70 27 139l110 -27q-16 -53 -16 -106q0 -129 106.5 -219.5t268.5 -90.5q166 0 269 104.5t103 297.5v295q0 172 -103.5 281.5t-266.5 109.5q-133 0 -226.5 -78t-93.5 -201q0 -47 14 -98l-114 -18q-19 63 -19 120
q0 106 58.5 192t154.5 133.5t207 47.5q126 0 229.5 -62.5t153.5 -166.5h4v432h119v-995q0 -119 -38 -214t-105 -155.5t-155.5 -92.5t-192.5 -32z" />
    <glyph glyph-name="uni1CA6" unicode="&#x1ca6;" horiz-adv-x="1705" 
d="M1229 16l-99 -43q-31 75 -82.5 126.5t-122 78.5t-146.5 38t-173 11h-276v88h229v4q-187 59 -309.5 231.5t-122.5 418.5q0 111 22.5 200.5t60.5 148.5t91 98t111 56t123 17q128 0 212.5 -71.5t110.5 -170.5h4q25 100 111.5 171t212.5 71q86 0 158.5 -30t128 -87.5
t87 -149.5t31.5 -208q0 -239 -123 -441l-106 39q108 193 108 402q0 189 -78.5 283t-213.5 94q-51 0 -95.5 -17.5t-82.5 -54.5t-60 -102.5t-22 -153.5v-311h-117v311q0 165 -73 246.5t-185 81.5q-131 0 -213 -101.5t-82 -320.5q0 -128 39 -239t107 -189.5t157 -131t192 -73.5
q198 -40 312.5 -111.5t173.5 -208.5z" />
    <glyph glyph-name="uni1CA7" unicode="&#x1ca7;" horiz-adv-x="1296" 
d="M614 -39q-134 0 -243.5 48t-174.5 137.5t-65 203.5q0 56 23 117l110 -23q-14 -41 -14 -94q0 -123 104.5 -206t259.5 -83q174 0 276.5 99.5t102.5 283.5v381h-4q-52 -104 -157 -161.5t-242 -57.5q-86 0 -166.5 30t-146 86t-105 147.5t-39.5 203.5q0 122 42.5 229.5
t103.5 178.5l96 -39q-125 -174 -125 -361q0 -176 102.5 -274t257.5 -98q174 0 280.5 108t106.5 289v348h115v-1012q0 -229 -137.5 -355t-360.5 -126z" />
    <glyph glyph-name="uni1CA8" unicode="&#x1ca8;" horiz-adv-x="1325" 
d="M641 -39q-119 0 -217.5 39t-162.5 105.5t-99 152.5t-35 182q0 129 59.5 238t175 176.5t265.5 67.5q127 0 240.5 -61t166.5 -165h6v439q0 125 -59.5 190.5t-159.5 65.5q-95 0 -155 -62t-60 -162v-84h-110v82q0 103 -55.5 154t-159.5 51h-131v103h143q95 0 164 -46t92 -129
h6q24 86 99 138.5t182 52.5q141 0 232 -88t91 -248v-707q0 -218 -144.5 -351.5t-373.5 -133.5zM641 61q181 0 292 105.5t111 273.5q0 166 -115.5 274.5t-287.5 108.5q-180 0 -288.5 -109t-108.5 -274q0 -163 109 -271t288 -108z" />
    <glyph glyph-name="uni1CA9" unicode="&#x1ca9;" horiz-adv-x="1294" 
d="M985 -31l-100 41q166 223 166 449q0 98 -41 181t-125 136t-195 53q-173 0 -282 -116.5t-109 -284.5v-428h-117v1090q0 190 112.5 294.5t285.5 104.5q164 0 276.5 -89t112.5 -235q0 -83 -35 -143l-107 20q23 55 23 109q0 107 -75.5 172.5t-192.5 65.5q-129 0 -205 -80
t-76 -215v-396h6q53 111 160 171.5t238 60.5q204 0 334 -129.5t130 -337.5q0 -149 -52 -275t-132 -219z" />
    <glyph glyph-name="uni1CAA" unicode="&#x1caa;" horiz-adv-x="1439" 
d="M784 -39q-141 0 -260 50t-208 146t-139 247t-50 341q0 121 22 235.5t60.5 206t79.5 162t88 128.5l98 -43q-97 -127 -163 -300.5t-66 -388.5q0 -172 44.5 -306t120.5 -215t170.5 -122t202.5 -41q183 0 297.5 90t114.5 242q0 85 -31 150.5t-82.5 103.5t-112 57t-126.5 19
h-148v102h166q56 0 105.5 9.5t92.5 30.5t68 58t25 87q0 44 -15 81t-39 64t-53 52t-58 49.5t-53 51t-39 63t-15 79.5h116q3 -43 33 -81.5t69.5 -70.5t79 -68.5t66.5 -91.5t27 -124q0 -96 -68.5 -161.5t-177.5 -80.5v-4q129 -25 209 -127t80 -254q0 -193 -149 -309.5
t-382 -116.5z" />
    <glyph glyph-name="uni1CAB" unicode="&#x1cab;" horiz-adv-x="1329" 
d="M629 -39q-119 0 -217.5 40t-162.5 108t-99 155t-35 182t35 182.5t97.5 156t158 109t208.5 40.5q129 0 242 -61t166 -166h6v743h119v-995q0 -218 -145 -356t-373 -138zM629 61q182 0 292.5 109t110.5 276q0 163 -115.5 275.5t-287.5 112.5q-180 0 -288 -112t-108 -276
q0 -162 108.5 -273.5t287.5 -111.5z" />
    <glyph glyph-name="uni1CAC" unicode="&#x1cac;" horiz-adv-x="1325" 
d="M684 -39q-229 0 -373.5 133.5t-144.5 351.5v707q0 160 91 248t232 88q107 0 182 -52.5t99 -138.5h6q23 83 92 129t164 46h144v-103h-132q-104 0 -159.5 -51t-55.5 -154v-82h-110v84q0 100 -60 162t-155 62q-100 0 -159.5 -65.5t-59.5 -190.5v-439h6q53 104 166.5 165
t240.5 61q150 0 265.5 -67.5t175 -176.5t59.5 -238q0 -96 -35 -182t-99 -152.5t-162.5 -105.5t-217.5 -39zM684 61q179 0 288 108t109 271q0 165 -108.5 274t-288.5 109q-172 0 -287.5 -108.5t-115.5 -274.5q0 -168 111 -273.5t292 -105.5z" />
    <glyph glyph-name="uni1CAD" unicode="&#x1cad;" horiz-adv-x="1370" 
d="M618 -39q-217 0 -354 116t-137 281q0 76 29 142l108 -29q-16 -53 -16 -102q0 -128 107 -218t270 -90q164 0 266 104t102 296v358h-6q-53 -105 -159.5 -162t-241.5 -57q-108 0 -198 32.5t-150 105.5t-60 177q0 103 58.5 176.5t152.5 107.5t213 34h391v223h117v-223h233
v-96h-233v-682q0 -158 -66 -271.5t-175.5 -168t-250.5 -54.5zM602 698q178 0 286.5 99.5t108.5 261.5v78h-372q-148 0 -237 -53t-89 -166q0 -77 47 -128.5t112.5 -71.5t143.5 -20z" />
    <glyph glyph-name="uni1CAE" unicode="&#x1cae;" horiz-adv-x="1329" 
d="M700 -39q-228 0 -373 138t-145 356v995h119v-743h8q53 105 166 166t242 61q112 0 207 -40.5t157.5 -109t97.5 -156t35 -182.5t-35 -182t-99 -155t-162.5 -108t-217.5 -40zM700 61q92 0 168 32t125 86t76 123t27 144q0 102 -45.5 189t-137.5 143t-213 56
q-177 0 -289 -113.5t-112 -271.5q0 -163 109 -275.5t292 -112.5z" />
    <glyph glyph-name="uni1CAF" unicode="&#x1caf;" horiz-adv-x="1253" 
d="M625 -39q-113 0 -208 35t-157.5 94t-97.5 136t-35 161q0 105 37 178l108 -35q-26 -65 -26 -141q0 -137 106 -233.5t275 -96.5q170 0 275.5 94t105.5 255q0 87 -29.5 155.5t-81 110t-116.5 63t-140 21.5h-76v379h-401v96h401v223h115v-223h403v-96h-403v-287
q205 -11 325.5 -130.5t120.5 -316.5q0 -203 -140 -322.5t-361 -119.5z" />
    <glyph glyph-name="uni1CB0" unicode="&#x1cb0;" horiz-adv-x="1187" 
d="M573 -39q-92 0 -178.5 21.5t-159.5 62.5t-117 110t-44 156q0 43 12 78l113 -20q-9 -30 -9 -60q0 -62 34.5 -111.5t91 -78.5t123 -44.5t134.5 -15.5q100 0 182 25t135.5 82t53.5 137q0 109 -91 165t-243 56h-153v101h219q235 0 235 135q0 147 -235 147h-219v101h213
q204 0 204 112q0 38 -23.5 65.5t-61.5 43.5t-84 29.5t-92.5 28t-84.5 34t-62.5 52.5t-25.5 79h119q5 -33 40 -57.5t82.5 -37.5t102 -31.5t100.5 -39.5t76.5 -62t30.5 -98q0 -137 -176 -165v-3q215 -27 215 -198q0 -80 -56 -129t-147 -60v-4q98 -20 167 -88.5t69 -183.5
q0 -101 -66 -178t-176.5 -116.5t-247.5 -39.5z" />
    <glyph glyph-name="uni1CB1" unicode="&#x1cb1;" horiz-adv-x="1441" 
d="M807 -39q-147 0 -270.5 50.5t-215 147t-143 247t-51.5 339.5q0 121 22 235.5t60.5 206t79.5 162t88 128.5l98 -43q-229 -306 -229 -689q0 -139 30.5 -253.5t83 -193t124.5 -133t153 -79.5t170 -25q179 0 282 66t103 184q0 102 -92 157.5t-240 55.5h-149v101h221
q233 0 233 135q0 147 -233 147h-221v101h213q100 0 152 27t52 89q0 47 -29.5 79.5t-71 53t-83.5 42t-71.5 60t-30.5 93.5h119q3 -34 33.5 -61.5t72 -49t82 -47t68.5 -68.5t28 -100q0 -137 -180 -165v-3q101 -13 160 -61.5t59 -136.5q0 -80 -58.5 -129t-150.5 -60v-4
q103 -19 171.5 -87t68.5 -179q0 -151 -139 -245.5t-369 -94.5z" />
    <glyph glyph-name="uni1CB2" unicode="&#x1cb2;" horiz-adv-x="1245" 
d="M178 -8v98q200 0 342 64v6q-176 94 -284.5 269t-108.5 380v152q0 163 67 284.5t178.5 182.5t250.5 61q216 0 356.5 -141.5t140.5 -386.5v-152q0 -206 -108.5 -380t-284.5 -269v-6q142 -64 342 -64v-98q-244 0 -446 108q-199 -108 -445 -108zM623 195q171 97 273.5 259
t102.5 359v137q0 202 -104.5 320.5t-271.5 118.5t-271 -118.5t-104 -320.5v-137q0 -199 102 -359.5t273 -258.5z" />
    <glyph glyph-name="uni1CB3" unicode="&#x1cb3;" horiz-adv-x="1253" 
d="M625 -39q-111 0 -206 35t-158 94t-98.5 136t-35.5 161q0 103 37 176l108 -35q-24 -54 -24 -139q0 -137 106 -232.5t273 -95.5t274 96t107 249q0 85 -32 153t-83.5 108t-111 60.5t-119.5 20.5h-123v100h125q55 0 106.5 15t97.5 46t73.5 87.5t27.5 131.5v222h-678v-236
h-119v336h913v-320q0 -133 -67.5 -218.5t-186.5 -110.5v-4q133 -31 214 -139t81 -259q0 -127 -66.5 -228t-180.5 -155.5t-254 -54.5z" />
    <glyph glyph-name="uni1CB4" unicode="&#x1cb4;" horiz-adv-x="1208" 
d="M594 -39q-92 0 -179 21.5t-160 62.5t-117 110t-44 156q0 43 12 78l113 -20q-8 -27 -8 -60q0 -62 34.5 -111.5t91 -78.5t123 -44.5t134.5 -15.5q100 0 182 25t135.5 82t53.5 137q0 109 -91 165t-243 56h-154v101h219q236 0 236 135q0 36 -16 64.5t-43.5 48t-66.5 36
t-80.5 29t-91.5 25.5q-6 1 -9 2q-50 13 -80 22t-75.5 25t-73 30.5t-60.5 37t-51 47.5t-30.5 59t-12.5 74q0 104 96.5 167.5t257.5 63.5q101 0 197 -24t153 -62l-47 -84q-128 72 -293 72q-124 0 -186 -39.5t-62 -98.5q0 -29 10.5 -53t33.5 -43t46 -33t63.5 -28t69.5 -22
t78 -21q174 -46 245 -82q147 -75 147 -213q0 -78 -56.5 -128t-146.5 -61v-4q98 -20 166.5 -88.5t68.5 -183.5q0 -101 -65.5 -178t-176 -116.5t-247.5 -39.5z" />
    <glyph glyph-name="uni1CB5" unicode="&#x1cb5;" horiz-adv-x="1359" 
d="M1288 967v-97h-233v-260h233v-96h-233v-174q0 -80 -27 -145t-72.5 -108t-106.5 -72t-126 -41.5t-135 -12.5q-132 0 -235 37t-164.5 114t-61.5 183q0 152 117 233.5t311 81.5h387v260h-379q-197 0 -306.5 79t-109.5 225q0 103 59.5 175.5t158.5 106t229 33.5q68 0 131 -11
t124 -37.5t106 -66.5t72.5 -103.5t27.5 -142.5v-161h233zM580 967h362v143q0 283 -346 283q-156 0 -245 -54.5t-89 -164.5q0 -105 84 -156t234 -51zM588 59q170 0 262 75t92 220v160h-371q-156 0 -242.5 -54.5t-86.5 -164.5q0 -115 95.5 -175.5t250.5 -60.5z" />
    <glyph glyph-name="uni1CB6" unicode="&#x1cb6;" horiz-adv-x="1744" 
d="M1634 733q0 -144 -43 -264.5t-127.5 -213.5t-220.5 -147.5t-313 -60.5v-108h-115v108q-153 4 -275 45t-201 106t-131.5 153.5t-74.5 183t-22 198.5q0 101 22 194t74.5 181.5t131 154.5t201 107.5t275.5 44.5v109h115v-109q148 -4 268 -43.5t200 -104t134 -151t78 -182
t24 -201.5zM930 1315v-1168q276 8 429.5 158.5t153.5 427.5q0 264 -148.5 418.5t-434.5 163.5zM233 733q0 -278 151.5 -428t430.5 -158v1168q-284 -9 -433 -161.5t-149 -420.5z" />
    <glyph glyph-name="uni1CB7" unicode="&#x1cb7;" horiz-adv-x="1298" 
d="M649 -39q-230 0 -376 128.5t-146 326.5q0 61 15.5 115.5t38 95.5t62 79.5t74.5 64t88.5 53.5t89.5 44t93 39q63 27 97.5 43t80 44t68.5 53t40 62t17 81q0 94 -70.5 150.5t-179.5 56.5q-113 0 -183.5 -55t-70.5 -144q0 -38 12 -88l-108 -20q-21 60 -21 110q0 127 110 208
t261 81q158 0 261.5 -83t103.5 -216q0 -59 -20 -108.5t-48 -83t-79.5 -67t-92.5 -53.5t-109 -49q-5 -2 -16 -7q-44 -19 -66 -29t-62.5 -29.5t-62 -33t-54.5 -36t-51 -42t-39.5 -46.5t-32.5 -54.5t-19 -62.5t-8 -73q0 -150 112 -252.5t291 -102.5q177 0 290.5 103.5
t113.5 245.5q0 113 -47 202l108 37q57 -103 57 -237q0 -191 -147 -321t-375 -130z" />
    <glyph glyph-name="uni1CB8" unicode="&#x1cb8;" horiz-adv-x="1296" 
d="M682 -39q-223 0 -360.5 126t-137.5 355v1012h115v-348q0 -181 106.5 -289t280.5 -108q155 0 258 98t103 274q0 187 -125 361l96 39q61 -71 103 -178.5t42 -229.5q0 -112 -39.5 -203.5t-104.5 -147.5t-145.5 -86t-166.5 -30q-137 0 -242.5 57.5t-157.5 161.5h-4v-381
q0 -184 102.5 -283.5t276.5 -99.5q155 0 260 83t105 206q0 51 -15 94l111 23q22 -58 22 -117q0 -114 -65 -203.5t-174.5 -137.5t-243.5 -48z" />
    <glyph glyph-name="uni1CB9" unicode="&#x1cb9;" horiz-adv-x="1302" 
d="M651 1489q120 0 220.5 -39.5t166.5 -107t102 -155.5t36 -186q0 -188 -124.5 -322t-340.5 -163q-134 -18 -211.5 -79.5t-77.5 -170.5q0 -98 69.5 -155.5t180.5 -57.5t182.5 56.5t71.5 142.5q0 26 -13 80l107 22q20 -46 20 -102q0 -87 -53.5 -154.5t-136 -102t-176.5 -34.5
q-152 0 -259.5 82.5t-107.5 218.5q0 102 59.5 173t155.5 97v5q-183 30 -290 161t-107 303q0 98 36.5 186t102.5 155.5t166.5 107t220.5 39.5zM651 1389q-181 0 -294 -111t-113 -277q0 -167 113 -279t294 -112q182 0 294 111.5t112 279.5q0 166 -112.5 277t-293.5 111z" />
    <glyph glyph-name="uni1CBA" unicode="&#x1cba;" horiz-adv-x="1140" 
d="M1104 381l-752 -404l-43 93l355 204v5q-240 3 -388.5 169t-148.5 424q0 147 44.5 265t122 194.5t180 117t220.5 40.5q125 0 231.5 -44.5t176.5 -133.5l-82 -68q-55 70 -142 106.5t-184 36.5q-195 0 -318.5 -138.5t-123.5 -375.5q0 -240 122.5 -382t317.5 -142
q88 0 171 30t192 95z" />
    <glyph glyph-name="uni1CBD" unicode="&#x1cbd;" horiz-adv-x="1267" 
d="M643 -39q-226 0 -371 121.5t-145 312.5q0 112 45 189l102 -37q-28 -60 -28 -152q0 -143 110 -238.5t291 -95.5q163 0 269 83t106 225q0 119 -75 189t-216 120l-149 53q-62 23 -110.5 46t-100.5 59t-86 77.5t-56 100t-22 127.5q0 107 58.5 187.5t156 120.5t217.5 40
q113 0 209 -40.5t155.5 -119.5t59.5 -180q0 -68 -19 -127l-110 25q12 54 12 98q0 111 -85.5 182.5t-223.5 71.5q-134 0 -223.5 -68t-89.5 -192q0 -61 25.5 -112t73 -89t100 -65.5t120.5 -51.5l148 -53q80 -29 137.5 -60.5t108.5 -77t77.5 -110t26.5 -145.5
q0 -190 -140.5 -302t-357.5 -112z" />
    <glyph glyph-name="uni1CBE" unicode="&#x1cbe;" horiz-adv-x="1245" 
d="M178 1360v98q246 0 445 -108q202 108 446 108v-98q-200 0 -342 -64v-6q176 -95 284.5 -269t108.5 -380v-152q0 -245 -140.5 -386.5t-356.5 -141.5q-139 0 -250.5 61t-178.5 182.5t-67 284.5v152q0 205 108.5 380t284.5 269v6q-142 64 -342 64zM623 1255
q-171 -98 -273 -258.5t-102 -359.5v-137q0 -202 104 -320.5t271 -118.5t271.5 118.5t104.5 320.5v137q0 197 -102.5 359t-273.5 259z" />
    <glyph glyph-name="uni1CBF" unicode="&#x1cbf;" horiz-adv-x="1550" 
d="M774 -39q-135 0 -253 54t-205.5 151t-138 241.5t-50.5 317.5q0 174 50.5 319t138 242t205.5 150t253 53q140 0 259.5 -53t205.5 -150t135 -241.5t49 -319.5q0 -174 -49 -318t-135 -241.5t-205.5 -151t-259.5 -53.5zM774 66q161 0 281 83.5t182.5 232.5t62.5 343
q0 297 -142.5 479t-383.5 182q-232 0 -378 -183.5t-146 -477.5q0 -293 145 -476t379 -183z" />
    <glyph glyph-name="uni200C" unicode="&#x200c;" 
d="M0 2169l-109 -107l-32 35l106 107l-106 106l32 35l109 -109l106 107l33 -33l-106 -106l106 -107l-33 -33z" />
    <glyph glyph-name="uni200D" unicode="&#x200d;" 
d="M-156 2206h-47v141h408v-141h-47v94h-314v-94z" />
    <glyph glyph-name="uni200E" unicode="&#x200e;" 
d="M184 2206l-141 -142l-35 37l84 82h-256v47h256l-84 80l35 37z" />
    <glyph glyph-name="uni200F" unicode="&#x200f;" 
d="M-8 2114l-35 -37l-141 141l141 141l35 -37l-84 -79h256v-48h-256z" />
    <glyph glyph-name="uni2010" unicode="&#x2010;" horiz-adv-x="643" 
d="M537 457h-431v94h431v-94z" />
    <glyph glyph-name="uni2011" unicode="&#x2011;" horiz-adv-x="643" 
d="M537 457h-431v94h431v-94z" />
    <glyph glyph-name="endash" unicode="&#x2013;" horiz-adv-x="819" 
d="M758 457h-697v94h697v-94z" />
    <glyph glyph-name="emdash" unicode="&#x2014;" horiz-adv-x="1228" 
d="M1167 457h-1106v94h1106v-94z" />
    <glyph glyph-name="quoteleft" unicode="&#x2018;" horiz-adv-x="452" 
d="M219 973h-117l156 477h92z" />
    <glyph glyph-name="quoteright" unicode="&#x2019;" horiz-adv-x="452" 
d="M195 973h-93l131 477h117z" />
    <glyph glyph-name="quotesinglbase" unicode="&#x201a;" horiz-adv-x="452" 
d="M195 -285h-93l131 478h117z" />
    <glyph glyph-name="quotedblleft" unicode="&#x201c;" horiz-adv-x="770" 
d="M221 973h-117l156 477h92zM537 973h-117l155 477h93z" />
    <glyph glyph-name="quotedblright" unicode="&#x201d;" horiz-adv-x="770" 
d="M195 973h-93l131 477h117zM512 973h-92l131 477h117z" />
    <glyph glyph-name="quotedblbase" unicode="&#x201e;" horiz-adv-x="770" 
d="M195 -285h-93l131 478h117zM510 -285h-92l133 478h117z" />
    <glyph glyph-name="dagger" unicode="&#x2020;" horiz-adv-x="1116" 
d="M612 -258h-108v1190h-412v98h412v420h108v-420h412v-98h-412v-1190z" />
    <glyph glyph-name="daggerdbl" unicode="&#x2021;" horiz-adv-x="1116" 
d="M612 -258h-108v401h-400v101h400v704h-400v101h400v401h108v-401h400v-101h-400v-704h400v-101h-400v-401z" />
    <glyph glyph-name="bullet" unicode="&#x2022;" horiz-adv-x="1024" 
d="M512 362q-151 0 -256.5 106t-105.5 257t105.5 256.5t256.5 105.5t256.5 -105.5t105.5 -256.5t-105.5 -257t-256.5 -106z" />
    <glyph glyph-name="ellipsis" unicode="&#x2026;" horiz-adv-x="2048" 
d="M342 -12q-39 0 -65.5 27.5t-26.5 66.5q0 36 26.5 64t65.5 28t65.5 -28t26.5 -64q0 -39 -26.5 -66.5t-65.5 -27.5zM1024 -12q-39 0 -65.5 27.5t-26.5 66.5q0 36 26.5 64t65.5 28t65.5 -28t26.5 -64q0 -39 -26.5 -66.5t-65.5 -27.5zM1708 -12q-39 0 -65.5 27.5t-26.5 66.5
q0 36 26.5 64t65.5 28t65.5 -28t26.5 -64q0 -39 -26.5 -66.5t-65.5 -27.5z" />
    <glyph glyph-name="uni202A" unicode="&#x202a;" 
d="M195 2208l-142 -142l-33 35l82 84h-100v47h100l-82 80l33 35zM-57 2185h-115v47h115v-47z" />
    <glyph glyph-name="uni202B" unicode="&#x202b;" 
d="M-20 2101l-33 -33l-142 140l142 139l33 -31l-82 -84h100v-47h-100zM172 2185h-115v47h115v-47z" />
    <glyph glyph-name="uni202C" unicode="&#x202c;" 
d="M23 2050h-48v207l-79 -82l-35 33l139 139l139 -139l-35 -33l-81 82v-207z" />
    <glyph glyph-name="uni202D" unicode="&#x202d;" 
d="M98 2208l-141 -142l-33 35l84 84h-219v47h217l-82 80l33 35zM229 2208l-141 -142l-31 35l109 107l-109 104l31 35z" />
    <glyph glyph-name="uni202E" unicode="&#x202e;" 
d="M-57 2099l-31 -35l-141 142l141 141l31 -35l-107 -106zM76 2099l-33 -35l-139 142l139 141l33 -35l-82 -86h217v-43h-217z" />
    <glyph glyph-name="perthousand" unicode="&#x2030;" horiz-adv-x="2048" 
d="M1202 1466l-915 -1527l-84 45l917 1527zM371 852q-128 0 -219 91t-91 220q0 128 91.5 220t218.5 92q128 0 218.5 -92t90.5 -220q0 -129 -90 -220t-219 -91zM371 942q91 0 155 64t64 157q0 92 -64 156.5t-155 64.5t-154 -64.5t-63 -156.5q0 -93 63 -157t154 -64zM969 -20
q-127 0 -217 91t-90 220q0 128 90 219.5t217 91.5q128 0 218.5 -91.5t90.5 -219.5q0 -129 -90 -220t-219 -91zM1681 -20q-128 0 -218.5 91t-90.5 220q0 128 91 219.5t218 91.5q129 0 219.5 -91.5t90.5 -219.5q0 -129 -90.5 -220t-219.5 -91zM969 70q92 0 155.5 63.5
t63.5 157.5q0 92 -63.5 156.5t-155.5 64.5q-89 0 -152 -64.5t-63 -156.5q0 -93 62.5 -157t152.5 -64zM1681 70q91 0 155.5 64t64.5 157q0 92 -64.5 156.5t-155.5 64.5t-154 -64.5t-63 -156.5q0 -93 63 -157t154 -64z" />
    <glyph glyph-name="guilsinglleft" unicode="&#x2039;" horiz-adv-x="645" 
d="M489 123l-77 -53l-277 419l275 420l77 -53l-233 -367z" />
    <glyph glyph-name="guilsinglright" unicode="&#x203a;" horiz-adv-x="645" 
d="M510 489l-274 -419l-78 53l233 366l-235 367l77 55z" />
    <glyph glyph-name="fraction" unicode="&#x2044;" horiz-adv-x="204" 
d="M-328 -61l-86 45l918 1527l84 -45z" />
    <glyph glyph-name="zero.sups" unicode="&#x2070;" horiz-adv-x="745" 
d="M373 909q-66 0 -117 26.5t-82.5 69.5t-51.5 102.5t-28 120.5t-8 130q0 68 8 128.5t28 120.5t51.5 103t82.5 69.5t117 26.5q65 0 115.5 -26.5t82 -69t51.5 -102.5t27.5 -120.5t7.5 -129.5t-7.5 -130t-27.5 -120.5t-51.5 -102.5t-82 -69.5t-115.5 -26.5zM373 997
q53 0 91 34.5t56.5 92t26.5 115t8 119.5t-8 119t-26.5 114.5t-56.5 92t-91 34.5q-55 0 -93.5 -34.5t-57 -92.5t-26.5 -114.5t-8 -118.5q0 -63 8 -120t26.5 -114.5t57 -92t93.5 -34.5z" />
    <glyph glyph-name="four.sups" unicode="&#x2074;" horiz-adv-x="745" 
d="M547 926h-90v207h-389v88l362 569h117v-569h127v-88h-127v-207zM451 1659l-281 -438h287v438h-6z" />
    <glyph glyph-name="five.sups" unicode="&#x2075;" horiz-adv-x="745" 
d="M354 909q-94 0 -161.5 43.5t-102.5 118.5l90 37q60 -111 174 -111q81 0 134 53t53 144q0 88 -54.5 142.5t-144.5 54.5q-82 0 -186 -58l8 457h442v-90h-346l-6 -244q46 19 111 19q125 0 200.5 -77t75.5 -198q0 -133 -81 -212t-206 -79z" />
    <glyph glyph-name="six.sups" unicode="&#x2076;" horiz-adv-x="745" 
d="M373 909q-122 0 -201.5 78t-79.5 199q0 101 78 229l229 375h117l-225 -354l2 -2q43 24 94 24q115 0 191.5 -76.5t76.5 -195.5q0 -121 -80 -199t-202 -78zM375 997q78 0 129 53.5t51 135.5q0 80 -49.5 133t-128.5 53q-81 0 -134 -53.5t-53 -132.5q0 -82 52 -135.5
t133 -53.5z" />
    <glyph glyph-name="seven.sups" unicode="&#x2077;" horiz-adv-x="745" 
d="M293 926h-111l346 774h-401v90h510v-80z" />
    <glyph glyph-name="eight.sups" unicode="&#x2078;" horiz-adv-x="745" 
d="M373 909q-116 0 -197.5 70.5t-81.5 183.5q0 75 39 133.5t107 87.5v2q-56 30 -84.5 80.5t-28.5 110.5q0 101 71.5 165t174.5 64t174 -64t71 -165q0 -60 -30 -111t-84 -80v-2q67 -28 106 -87.5t39 -133.5q0 -113 -80 -183.5t-196 -70.5zM373 1427q63 0 105 42t42 104
q0 64 -41.5 104.5t-105.5 40.5t-106 -40.5t-42 -104.5q0 -62 42.5 -104t105.5 -42zM373 997q79 0 128.5 48.5t49.5 121.5q0 74 -50 123t-128 49t-129 -49t-51 -123q0 -73 50.5 -121.5t129.5 -48.5z" />
    <glyph glyph-name="nine.sups" unicode="&#x2079;" horiz-adv-x="745" 
d="M346 926h-117l228 356l-2 2q-41 -24 -97 -24q-115 0 -191.5 77t-76.5 195t80.5 196t202.5 78t201 -77t79 -197q-3 -112 -78 -234zM371 1346q79 0 131.5 53.5t52.5 132.5q0 78 -52 132t-130 54q-79 0 -131 -53.5t-52 -132.5q0 -81 50 -133.5t131 -52.5z" />
    <glyph glyph-name="plus.sups" unicode="&#x207a;" horiz-adv-x="745" 
d="M412 991h-78v285h-285v78h285v282h78v-282h282v-78h-282v-285z" />
    <glyph glyph-name="minus.sups" unicode="&#x207b;" horiz-adv-x="745" 
d="M694 1276h-645v78h645v-78z" />
    <glyph glyph-name="equal.sups" unicode="&#x207c;" horiz-adv-x="745" 
d="M694 1384h-645v78h645v-78zM694 1165h-645v78h645v-78z" />
    <glyph glyph-name="zero.subs" unicode="&#x2080;" horiz-adv-x="745" 
d="M373 -299q-66 0 -117 26.5t-82.5 69.5t-51.5 102.5t-28 120.5t-8 130q0 68 8 128.5t28 120.5t51.5 103t82.5 69.5t117 26.5q65 0 115.5 -26.5t82 -69t51.5 -102.5t27.5 -120.5t7.5 -129.5t-7.5 -130t-27.5 -120.5t-51.5 -102.5t-82 -69.5t-115.5 -26.5zM373 -211
q53 0 91 34.5t56.5 92t26.5 115t8 119.5t-8 119t-26.5 114.5t-56.5 92t-91 34.5q-55 0 -93.5 -34.5t-57 -92.5t-26.5 -114.5t-8 -118.5q0 -63 8 -120t26.5 -114.5t57 -92t93.5 -34.5z" />
    <glyph glyph-name="one.subs" unicode="&#x2081;" horiz-adv-x="745" 
d="M453 -283h-103v740l-149 -121l-62 70l228 174h86v-863z" />
    <glyph glyph-name="two.subs" unicode="&#x2082;" horiz-adv-x="745" 
d="M641 -283h-549v95l334 346q106 109 106 204q0 68 -42.5 107t-110.5 39q-62 0 -107.5 -38t-62.5 -108l-96 17q20 100 94 159.5t172 59.5q113 0 185.5 -62.5t72.5 -168.5q0 -80 -36.5 -139t-117.5 -142l-270 -279h428v-90z" />
    <glyph glyph-name="three.subs" unicode="&#x2083;" horiz-adv-x="745" 
d="M356 -299q-96 0 -167 45.5t-109 134.5l92 33q24 -60 74 -92.5t110 -32.5q78 0 128.5 45.5t50.5 124.5q0 83 -62 124.5t-149 41.5h-50v84h50q85 0 135.5 42t50.5 118q0 64 -45.5 103.5t-110.5 39.5q-47 0 -90 -26t-69 -72l-80 43q84 141 243 141q111 0 179.5 -60
t68.5 -169q0 -68 -36.5 -118.5t-100.5 -74.5v-4q77 -22 120.5 -77.5t43.5 -137.5q0 -121 -79.5 -188.5t-197.5 -67.5z" />
    <glyph glyph-name="four.subs" unicode="&#x2084;" horiz-adv-x="745" 
d="M547 -283h-90v207h-389v88l362 570h117v-570h127v-88h-127v-207zM451 451l-281 -439h287v439h-6z" />
    <glyph glyph-name="five.subs" unicode="&#x2085;" horiz-adv-x="745" 
d="M354 -299q-94 0 -161.5 43.5t-102.5 118.5l90 37q60 -111 174 -111q81 0 134 53t53 144q0 88 -54.5 142t-144.5 54q-83 0 -186 -57l8 457h442v-90h-346l-6 -244q44 18 111 18q125 0 200.5 -76.5t75.5 -197.5q0 -133 -81 -212t-206 -79z" />
    <glyph glyph-name="six.subs" unicode="&#x2086;" horiz-adv-x="745" 
d="M373 -299q-122 0 -201.5 77.5t-79.5 198.5q0 102 78 230l229 375h117l-225 -355l2 -2q45 25 94 25q115 0 191.5 -77t76.5 -196q0 -121 -80 -198.5t-202 -77.5zM375 -211q78 0 129 53t51 135q0 80 -49.5 133.5t-128.5 53.5q-81 0 -134 -54t-53 -133q0 -82 52 -135t133 -53
z" />
    <glyph glyph-name="seven.subs" unicode="&#x2087;" horiz-adv-x="745" 
d="M293 -283h-111l346 775h-401v90h510v-80z" />
    <glyph glyph-name="eight.subs" unicode="&#x2088;" horiz-adv-x="745" 
d="M373 -299q-116 0 -197.5 70.5t-81.5 183.5q0 74 39 133t107 88v2q-56 30 -84.5 80.5t-28.5 110.5q0 101 71.5 165t174.5 64t174 -64t71 -165q0 -60 -30 -111t-84 -80v-2q67 -28 106 -87.5t39 -133.5q0 -113 -80 -183.5t-196 -70.5zM373 219q63 0 105 42t42 104
q0 64 -41.5 104.5t-105.5 40.5t-106 -40.5t-42 -104.5q0 -62 42.5 -104t105.5 -42zM373 -211q79 0 128.5 48.5t49.5 121.5q0 74 -50 123t-128 49t-129 -49t-51 -123q0 -73 50.5 -121.5t129.5 -48.5z" />
    <glyph glyph-name="nine.subs" unicode="&#x2089;" horiz-adv-x="745" 
d="M346 -283h-117l228 357l-2 2q-42 -25 -97 -25q-115 0 -191.5 77.5t-76.5 195.5t80.5 196t202.5 78t201 -77t79 -197q-3 -112 -78 -234zM371 137q79 0 131.5 54t52.5 133q0 78 -52 132t-130 54q-79 0 -131 -53.5t-52 -132.5q0 -81 50 -134t131 -53z" />
    <glyph glyph-name="plus.subs" unicode="&#x208a;" horiz-adv-x="745" 
d="M412 -217h-78v285h-285v77h285v283h78v-283h282v-77h-282v-285z" />
    <glyph glyph-name="minus.subs" unicode="&#x208b;" horiz-adv-x="745" 
d="M694 68h-645v77h645v-77z" />
    <glyph glyph-name="equal.subs" unicode="&#x208c;" horiz-adv-x="745" 
d="M694 176h-645v78h645v-78zM694 -43h-645v78h645v-78z" />
    <glyph glyph-name="Euro" unicode="&#x20ac;" horiz-adv-x="1175" 
d="M760 -39q-118 0 -221 44t-175.5 119.5t-120 172.5t-65.5 205h-147l32 92h105q-6 87 -6 119q0 71 8 141h-137l33 92h116q56 258 217.5 400.5t384.5 142.5q175 0 301 -68l-41 -98q-107 61 -266 61q-179 0 -304 -116t-169 -322h637l-31 -92h-620q-10 -68 -10 -139
q0 -55 8 -121h545l-31 -92h-504q34 -198 165 -317t312 -119q170 0 287 84l49 -93q-134 -96 -352 -96z" />
    <glyph glyph-name="uni20BE" unicode="&#x20be;" horiz-adv-x="1720" 
d="M1436 0h-1170v98h289v6q-194 62 -311 235.5t-117 399.5q0 260 138 450t368 257v174h76v-158q83 17 151 17q69 0 152 -17v158h73v-174q232 -68 370 -261t138 -460h-118q0 224 -103.5 386t-286.5 230v-616h-73v639q-73 18 -152 18q-63 0 -151 -18v-639h-76v616
q-182 -68 -284.5 -227t-102.5 -379q0 -135 44 -250.5t125.5 -201t206 -133.5t277.5 -48h537v-102z" />
    <glyph glyph-name="trademark" unicode="&#x2122;" horiz-adv-x="2048" 
d="M541 606h-101v754h-276v90h649v-90h-272v-754zM1102 606h-101v844h158l283 -684l282 684h154v-844h-100v735h-4l-304 -735h-63l-301 735h-4v-735z" />
    <glyph glyph-name="uni2126" unicode="&#x2126;" horiz-adv-x="1579" 
d="M655 0h-514v98h420v119q-196 62 -315 223.5t-119 390.5q0 153 52.5 279t143.5 208t211.5 126.5t256.5 44.5q186 0 335.5 -78t237.5 -229t88 -351q0 -226 -116.5 -389t-317.5 -225v-119h420v-98h-514v295q188 46 297.5 188.5t109.5 347.5q0 242 -145.5 397.5t-394.5 155.5
q-248 0 -395.5 -153.5t-147.5 -399.5q0 -207 110.5 -349t296.5 -187v-295z" />
    <glyph glyph-name="oneeighth" unicode="&#x215b;" horiz-adv-x="1662" 
d="M1311 1466l-916 -1527l-86 45l918 1527zM453 586h-101v741l-149 -123l-64 70l230 174h84v-862zM1290 -16q-116 0 -197 70.5t-81 183.5q0 75 38.5 133.5t106.5 87.5v2q-56 30 -84.5 80t-28.5 110q0 101 71.5 165.5t174.5 64.5t174.5 -64.5t71.5 -165.5q0 -59 -30 -110
t-85 -80v-2q67 -28 106.5 -87.5t39.5 -133.5q0 -113 -80.5 -183.5t-196.5 -70.5zM1290 502q63 0 105.5 41.5t42.5 103.5q0 64 -42 105t-106 41q-63 0 -105 -41t-42 -105q0 -62 42 -103.5t105 -41.5zM1290 72q79 0 128.5 48.5t49.5 121.5q0 74 -50 123t-128 49t-129 -49
t-51 -123q0 -73 50.5 -121.5t129.5 -48.5z" />
    <glyph glyph-name="threeeighths" unicode="&#x215c;" horiz-adv-x="1665" 
d="M1229 1511l84 -45l-916 -1527l-86 45zM356 580q-96 0 -167 45.5t-109 134.5l92 31q24 -60 73.5 -91.5t110.5 -31.5q77 0 128 44t51 124q0 83 -61.5 125.5t-149.5 42.5h-50v83h50q85 0 135.5 41.5t50.5 116.5q0 65 -45.5 104.5t-110.5 39.5q-47 0 -90 -26.5t-69 -72.5
l-80 45q86 142 243 142q109 0 179.5 -61.5t70.5 -168.5q0 -70 -37.5 -121t-101.5 -75v-2q76 -21 121 -77t45 -136q0 -120 -80 -188t-199 -68zM1292 -16q-116 0 -197 70.5t-81 183.5q0 75 38.5 133.5t106.5 87.5v2q-56 30 -84 80t-28 110q0 101 71 165.5t174 64.5
t174.5 -64.5t71.5 -165.5q0 -59 -30 -110t-85 -80v-2q67 -28 106.5 -87.5t39.5 -133.5q0 -113 -80.5 -183.5t-196.5 -70.5zM1292 502q63 0 105.5 41.5t42.5 103.5q0 64 -42 105t-106 41q-63 0 -105 -41t-42 -105q0 -62 42 -103.5t105 -41.5zM1292 72q79 0 128.5 48.5
t49.5 121.5q0 74 -50 123t-128 49t-129 -49t-51 -123q0 -73 50.5 -121.5t129.5 -48.5z" />
    <glyph glyph-name="fiveeighths" unicode="&#x215d;" horiz-adv-x="1695" 
d="M342 -16l918 1527l83 -45l-915 -1527zM354 569q-94 0 -161.5 43.5t-102.5 118.5l90 37q60 -111 174 -111q81 0 134 53t53 144q0 88 -54.5 142.5t-144.5 54.5q-82 0 -186 -58l8 457h442v-90h-346l-6 -244q46 19 111 19q125 0 200.5 -77t75.5 -198q0 -133 -81 -212
t-206 -79zM1323 -16q-116 0 -197.5 70.5t-81.5 183.5q0 74 39 133t107 88v2q-56 30 -84.5 80t-28.5 110q0 101 71.5 165.5t174.5 64.5t174.5 -64.5t71.5 -165.5q0 -59 -30 -110t-85 -80v-2q67 -28 106 -87.5t39 -133.5q0 -113 -80 -183.5t-196 -70.5zM1323 502
q63 0 105 41.5t42 103.5q0 64 -42 105t-105 41t-105 -41t-42 -105q0 -62 42 -103.5t105 -41.5zM1323 72q79 0 128.5 48.5t49.5 121.5q0 74 -50 123t-128 49t-129 -49t-51 -123q0 -73 50.5 -121.5t129.5 -48.5z" />
    <glyph glyph-name="seveneighths" unicode="&#x215e;" horiz-adv-x="1554" 
d="M287 -61l-86 45l917 1527l84 -45zM293 586h-111l346 774h-401v90h510v-80zM1182 -16q-116 0 -197.5 70.5t-81.5 183.5q0 74 39 133t107 88v2q-56 30 -84.5 80t-28.5 110q0 101 71.5 165.5t174.5 64.5t174 -64.5t71 -165.5q0 -60 -29.5 -110.5t-84.5 -79.5v-2
q67 -28 106 -87.5t39 -133.5q0 -113 -80 -183.5t-196 -70.5zM1182 502q63 0 105 41.5t42 103.5q0 64 -42 105t-105 41q-64 0 -106 -41t-42 -105q0 -62 42.5 -103.5t105.5 -41.5zM1182 72q79 0 128.5 48.5t49.5 121.5q0 74 -50 123t-128 49t-129.5 -49t-51.5 -123
q0 -73 51 -121.5t130 -48.5z" />
    <glyph glyph-name="partialdiff" unicode="&#x2202;" horiz-adv-x="1003" 
d="M424 1479q108 0 193.5 -43t139.5 -114t89.5 -168t50 -197.5t14.5 -211.5q0 -125 -13.5 -234t-46 -209.5t-82.5 -172t-128.5 -114t-177.5 -42.5q-117 0 -208 63.5t-138 166.5t-47 225q0 191 106 312.5t279 121.5q104 0 196.5 -51t155.5 -139q0 14 1 57t1 68q0 89 -13 172
t-43 160t-73 134.5t-107.5 91.5t-142.5 34q-65 0 -116 -23t-111 -70l-60 72q126 111 281 111zM465 61q72 0 129.5 35t93 88t60 123.5t35.5 133.5t14 126q-61 90 -148 146.5t-184 56.5q-137 0 -214 -101t-77 -243q0 -65 19 -128.5t54 -117t92 -86.5t126 -33z" />
    <glyph glyph-name="uni2206" unicode="&#x2206;" horiz-adv-x="1441" 
d="M1376 0h-1310v80l606 1370h114l590 -1370v-80zM725 1329l-522 -1227h1034l-510 1227h-2z" />
    <glyph glyph-name="product" unicode="&#x220f;" horiz-adv-x="1452" 
d="M266 -438h-108v2048h1136v-2048h-108v1947h-920v-1947z" />
    <glyph glyph-name="summation" unicode="&#x2211;" horiz-adv-x="1230" 
d="M1165 -438h-1102v92l680 938l-651 924v94h1049v-101h-912l648 -917l-682 -930h970v-100z" />
    <glyph glyph-name="minus" unicode="&#x2212;" horiz-adv-x="1363" 
d="M1190 573h-1016v99h1016v-99z" />
    <glyph glyph-name="uni2215" unicode="&#x2215;" horiz-adv-x="204" 
d="M588 1466l-916 -1527l-86 45l918 1527z" />
    <glyph glyph-name="uni2219" unicode="&#x2219;" horiz-adv-x="520" 
d="M260 514q-39 0 -65.5 27.5t-26.5 64.5q0 38 26.5 66t65.5 28t65.5 -28t26.5 -66q0 -37 -26.5 -64.5t-65.5 -27.5z" />
    <glyph glyph-name="radical" unicode="&#x221a;" horiz-adv-x="999" 
d="M580 -438h-115l-338 712l-104 -49l-39 84l192 90l332 -704l397 1915h103z" />
    <glyph glyph-name="infinity" unicode="&#x221e;" horiz-adv-x="1505" 
d="M377 219q-121 0 -197 82t-76 209q0 125 75 209t196 84q43 0 88.5 -15.5t80.5 -35.5t80 -57t69.5 -60.5t66.5 -65.5q105 105 147 139q121 97 230 97q122 0 199 -82t77 -209q0 -128 -75.5 -211.5t-198.5 -83.5q-52 0 -104.5 19.5t-103.5 57t-87.5 70t-83.5 80.5
q-10 -9 -47.5 -43.5t-52.5 -47t-48.5 -40.5t-56 -40t-54 -28t-62 -22t-62.5 -6zM1145 313q80 0 127 56t47 139q0 87 -48 146t-132 59q-39 0 -79 -16t-84.5 -51t-74.5 -62.5t-80 -77.5q98 -95 172 -144t152 -49zM379 313q126 0 317 195q-98 96 -174 149.5t-149 53.5
q-81 0 -127.5 -59t-46.5 -142q0 -86 48 -141.5t132 -55.5z" />
    <glyph glyph-name="integral" unicode="&#x222b;" horiz-adv-x="1107" 
d="M332 -430q-48 0 -81.5 21.5t-33.5 64.5q0 24 17.5 40.5t41.5 16.5q25 0 42.5 -18.5t30 -36.5t26.5 -18q25 0 42.5 37t25 97t10 107t2.5 94l2 1201q0 98 11.5 172.5t37 133.5t71 89.5t109.5 30.5q50 0 88.5 -23t38.5 -68q0 -28 -18 -43.5t-47 -15.5q-20 0 -35.5 12
t-23.5 26t-19 26t-23 12q-18 0 -32 -15.5t-23 -45.5t-14.5 -63.5t-8 -80.5t-3.5 -85.5t-1 -88.5v-1038q0 -72 -1 -120.5t-6.5 -110.5t-14.5 -102.5t-26.5 -83.5t-41.5 -67.5t-60.5 -40.5t-82.5 -16z" />
    <glyph glyph-name="approxequal" unicode="&#x2248;" horiz-adv-x="1363" 
d="M203 547h-76q9 72 34.5 129t81 97t134.5 40q44 0 104 -14t94.5 -25.5t110.5 -38.5q179 -69 262 -69q142 0 176 165h72q-5 -52 -21.5 -97.5t-46 -83t-76.5 -59.5t-106 -22q-97 0 -305 78q-187 68 -260 68q-79 0 -123.5 -48t-54.5 -120zM203 186h-76q7 54 23.5 99t44.5 85
t74 62.5t106 22.5q43 0 99 -12.5t96.5 -26.5t107.5 -39q68 -24 100.5 -35t83.5 -23t86 -12q140 0 174 166h74q-12 -111 -74.5 -188.5t-177.5 -77.5q-95 0 -303 78q-65 24 -97.5 35t-80.5 22.5t-82 11.5q-79 0 -123.5 -48t-54.5 -120z" />
    <glyph glyph-name="notequal" unicode="&#x2260;" horiz-adv-x="1363" 
d="M604 301l-162 -313l-86 45l140 268h-318v96h369l143 281h-512v98h565l156 301l86 -45l-133 -256h334v-98h-385l-146 -281h531v-96h-582z" />
    <glyph glyph-name="lessequal" unicode="&#x2264;" horiz-adv-x="1363" 
d="M1186 301v-104l-1008 407v107l1008 409v-106l-881 -357zM1186 8h-1008v98h1008v-98z" />
    <glyph glyph-name="greaterequal" unicode="&#x2265;" horiz-adv-x="1363" 
d="M1186 604l-1008 -407v104l883 356l-883 357v106l1008 -409v-107zM1186 8h-1008v98h1008v-98z" />
    <glyph glyph-name="dotmath" unicode="&#x22c5;" horiz-adv-x="520" 
d="M260 514q-39 0 -65.5 27.5t-26.5 64.5q0 38 26.5 66t65.5 28t65.5 -28t26.5 -66q0 -37 -26.5 -64.5t-65.5 -27.5z" />
    <glyph glyph-name="uniFEFF" unicode="&#xfeff;" 
 />
    <glyph glyph-name="uni10D00308" horiz-adv-x="1079" 
d="M358 1255q-37 0 -62.5 27.5t-25.5 63.5q0 35 25.5 61.5t62.5 26.5q36 0 61 -26.5t25 -61.5q0 -36 -25 -63.5t-61 -27.5zM727 1255q-36 0 -61 27.5t-25 63.5q0 35 25 61.5t61 26.5q37 0 62.5 -26.5t25.5 -61.5q0 -36 -25.5 -63.5t-62.5 -27.5zM530 -29q-102 0 -186 32
t-138 85.5t-83 122.5t-29 145q0 83 33 158l102 -35q-22 -55 -22 -123q0 -125 87 -206.5t236 -81.5q147 0 234.5 82t87.5 208q0 60 -20 110.5t-52.5 86t-71 68.5t-77.5 66t-71.5 68.5t-52.5 86t-20 110.5h115q0 -47 20.5 -87.5t52.5 -72.5t70.5 -63.5t77 -67.5t70.5 -77
t52 -100t20 -128q0 -78 -29.5 -148t-84 -123t-137.5 -84.5t-184 -31.5z" />
    <glyph glyph-name="uni10D0_uni0301" horiz-adv-x="1079" 
d="M461 1167h-96l208 295h148zM530 -29q-102 0 -186 32t-138 85.5t-83 122.5t-29 145q0 83 33 158l102 -35q-22 -55 -22 -123q0 -125 87 -206.5t236 -81.5q147 0 234.5 82t87.5 208q0 60 -20 110.5t-52.5 86t-71 68.5t-77.5 66t-71.5 68.5t-52.5 86t-20 110.5h115
q0 -47 20.5 -87.5t52.5 -72.5t70.5 -63.5t77 -67.5t70.5 -77t52 -100t20 -128q0 -78 -29.5 -148t-84 -123t-137.5 -84.5t-184 -31.5z" />
    <glyph glyph-name="uni10D00304" horiz-adv-x="1079" 
d="M807 1253h-528v90h528v-90zM530 -29q-102 0 -186 32t-138 85.5t-83 122.5t-29 145q0 83 33 158l102 -35q-22 -55 -22 -123q0 -125 87 -206.5t236 -81.5q147 0 234.5 82t87.5 208q0 60 -20 110.5t-52.5 86t-71 68.5t-77.5 66t-71.5 68.5t-52.5 86t-20 110.5h115
q0 -47 20.5 -87.5t52.5 -72.5t70.5 -63.5t77 -67.5t70.5 -77t52 -100t20 -128q0 -78 -29.5 -148t-84 -123t-137.5 -84.5t-184 -31.5z" />
    <glyph glyph-name="uni10D003040308" horiz-adv-x="1079" 
d="M358 1645q-37 0 -62.5 27t-25.5 63q0 35 25.5 61.5t62.5 26.5q36 0 61 -26.5t25 -61.5q0 -36 -25 -63t-61 -27zM727 1645q-36 0 -61 27t-25 63q0 35 25 61.5t61 26.5q37 0 62.5 -26.5t25.5 -61.5q0 -36 -25.5 -63t-62.5 -27zM807 1253h-528v90h528v-90zM530 -29
q-102 0 -186 32t-138 85.5t-83 122.5t-29 145q0 83 33 158l102 -35q-22 -55 -22 -123q0 -125 87 -206.5t236 -81.5q147 0 234.5 82t87.5 208q0 60 -20 110.5t-52.5 86t-71 68.5t-77.5 66t-71.5 68.5t-52.5 86t-20 110.5h115q0 -47 20.5 -87.5t52.5 -72.5t70.5 -63.5
t77 -67.5t70.5 -77t52 -100t20 -128q0 -78 -29.5 -148t-84 -123t-137.5 -84.5t-184 -31.5z" />
    <glyph glyph-name="uni10D4_uni0301" horiz-adv-x="1210" 
d="M518 1178h-96l209 295h147zM584 -516q-108 0 -198 35t-148.5 94.5t-90.5 137.5t-32 165q0 122 55 221l100 -35q-43 -85 -43 -186q0 -139 100.5 -238.5t258.5 -99.5q161 0 257.5 106.5t96.5 290.5v527q0 176 -94 281.5t-250 105.5q-141 0 -237.5 -81t-96.5 -216
q0 -46 19 -105l-107 -18q-24 58 -24 127q0 163 125.5 275t320.5 112q198 0 326.5 -126.5t128.5 -350.5v-535q0 -229 -129.5 -358t-337.5 -129z" />
    <glyph glyph-name="uni10D40304" horiz-adv-x="1210" 
d="M864 1264h-528v90h528v-90zM584 -516q-108 0 -198 35t-148.5 94.5t-90.5 137.5t-32 165q0 122 55 221l100 -35q-43 -85 -43 -186q0 -139 100.5 -238.5t258.5 -99.5q161 0 257.5 106.5t96.5 290.5v527q0 176 -94 281.5t-250 105.5q-141 0 -237.5 -81t-96.5 -216
q0 -46 19 -105l-107 -18q-24 58 -24 127q0 163 125.5 275t320.5 112q198 0 326.5 -126.5t128.5 -350.5v-535q0 -229 -129.5 -358t-337.5 -129z" />
    <glyph glyph-name="uni10D8_uni0301" horiz-adv-x="1148" 
d="M494 1167h-97l209 295h148zM395 18l-96 -41q-79 93 -130.5 221t-51.5 281q0 237 126 370.5t332 133.5t332.5 -133.5t126.5 -370.5q0 -153 -52 -281t-132 -221l-94 41q168 217 168 461q0 116 -38.5 207.5t-119 147t-191.5 55.5q-165 0 -256.5 -116t-91.5 -294
q0 -244 168 -461z" />
    <glyph glyph-name="uni10D80304" horiz-adv-x="1148" 
d="M840 1253h-529v90h529v-90zM395 18l-96 -41q-79 93 -130.5 221t-51.5 281q0 237 126 370.5t332 133.5t332.5 -133.5t126.5 -370.5q0 -153 -52 -281t-132 -221l-94 41q168 217 168 461q0 116 -38.5 207.5t-119 147t-191.5 55.5q-165 0 -256.5 -116t-91.5 -294
q0 -244 168 -461z" />
    <glyph glyph-name="uni10DD0308" horiz-adv-x="1613" 
d="M623 1255q-37 0 -62.5 27.5t-25.5 63.5q0 35 25.5 61.5t62.5 26.5q36 0 61 -26.5t25 -61.5q0 -36 -25 -63.5t-61 -27.5zM991 1255q-36 0 -61 27.5t-25 63.5q0 35 25 61.5t61 26.5q37 0 62.5 -26.5t25.5 -61.5q0 -36 -25.5 -63.5t-62.5 -27.5zM395 18l-94 -41
q-78 95 -131 233.5t-53 309.5q0 116 30 206t82.5 145.5t120.5 83.5t148 28q67 0 122.5 -22t91.5 -58t58.5 -74.5t34.5 -80.5h4q26 101 107 168t196 67q170 0 277.5 -116.5t107.5 -346.5q0 -170 -53 -309.5t-131 -233.5l-94 41q165 226 165 502q0 188 -76 278.5t-204 90.5
q-45 0 -85 -16t-77 -51.5t-58.5 -103.5t-21.5 -161v-299h-110v299q0 167 -67 249.5t-179 82.5q-125 0 -201 -95.5t-76 -273.5q0 -274 166 -502z" />
    <glyph glyph-name="uni10DD_uni0301" horiz-adv-x="1613" 
d="M725 1167h-96l209 295h147zM395 18l-94 -41q-78 95 -131 233.5t-53 309.5q0 116 30 206t82.5 145.5t120.5 83.5t148 28q67 0 122.5 -22t91.5 -58t58.5 -74.5t34.5 -80.5h4q26 101 107 168t196 67q170 0 277.5 -116.5t107.5 -346.5q0 -170 -53 -309.5t-131 -233.5l-94 41
q165 226 165 502q0 188 -76 278.5t-204 90.5q-45 0 -85 -16t-77 -51.5t-58.5 -103.5t-21.5 -161v-299h-110v299q0 167 -67 249.5t-179 82.5q-125 0 -201 -95.5t-76 -273.5q0 -274 166 -502z" />
    <glyph glyph-name="uni10DD0304" horiz-adv-x="1613" 
d="M1071 1253h-528v90h528v-90zM395 18l-94 -41q-78 95 -131 233.5t-53 309.5q0 116 30 206t82.5 145.5t120.5 83.5t148 28q67 0 122.5 -22t91.5 -58t58.5 -74.5t34.5 -80.5h4q26 101 107 168t196 67q170 0 277.5 -116.5t107.5 -346.5q0 -170 -53 -309.5t-131 -233.5l-94 41
q165 226 165 502q0 188 -76 278.5t-204 90.5q-45 0 -85 -16t-77 -51.5t-58.5 -103.5t-21.5 -161v-299h-110v299q0 167 -67 249.5t-179 82.5q-125 0 -201 -95.5t-76 -273.5q0 -274 166 -502z" />
    <glyph glyph-name="uni10DD03040308" horiz-adv-x="1613" 
d="M623 1645q-37 0 -62.5 27t-25.5 63q0 35 25.5 61.5t62.5 26.5q36 0 61 -26.5t25 -61.5q0 -36 -25 -63t-61 -27zM991 1645q-36 0 -61 27t-25 63q0 35 25 61.5t61 26.5q37 0 62.5 -26.5t25.5 -61.5q0 -36 -25.5 -63t-62.5 -27zM1071 1253h-528v90h528v-90zM395 18l-94 -41
q-78 95 -131 233.5t-53 309.5q0 116 30 206t82.5 145.5t120.5 83.5t148 28q67 0 122.5 -22t91.5 -58t58.5 -74.5t34.5 -80.5h4q26 101 107 168t196 67q170 0 277.5 -116.5t107.5 -346.5q0 -170 -53 -309.5t-131 -233.5l-94 41q165 226 165 502q0 188 -76 278.5t-204 90.5
q-45 0 -85 -16t-77 -51.5t-58.5 -103.5t-21.5 -161v-299h-110v299q0 167 -67 249.5t-179 82.5q-125 0 -201 -95.5t-76 -273.5q0 -274 166 -502z" />
    <glyph glyph-name="uni10E30308" horiz-adv-x="1216" 
d="M395 1266q-37 0 -62.5 27t-25.5 63q0 35 25.5 61.5t62.5 26.5q36 0 61 -26.5t25 -61.5q0 -36 -25 -63t-61 -27zM764 1266q-36 0 -61 27t-25 63q0 35 25 61.5t61 26.5q37 0 62.5 -26.5t25.5 -61.5q0 -36 -25.5 -63t-62.5 -27zM584 -516q-108 0 -198.5 36.5t-149 97
t-91 138t-32.5 160.5q0 124 51 213l100 -35q-39 -83 -39 -178q0 -139 101 -238.5t260 -99.5q162 0 261 103.5t99 289.5v658q0 127 -54.5 193.5t-154.5 66.5q-94 0 -150.5 -57.5t-56.5 -161.5v-275h-112v267q0 212 -195 212h-131v95h139q92 0 156.5 -41t85.5 -127h2
q26 86 100 134t170 48q141 0 227.5 -86t86.5 -256v-674q0 -234 -131.5 -358.5t-343.5 -124.5z" />
    <glyph glyph-name="uni10E3_uni0301" horiz-adv-x="1216" 
d="M498 1178h-97l209 295h148zM584 -516q-108 0 -198.5 36.5t-149 97t-91 138t-32.5 160.5q0 124 51 213l100 -35q-39 -83 -39 -178q0 -139 101 -238.5t260 -99.5q162 0 261 103.5t99 289.5v658q0 127 -54.5 193.5t-154.5 66.5q-94 0 -150.5 -57.5t-56.5 -161.5v-275h-112
v267q0 212 -195 212h-131v95h139q92 0 156.5 -41t85.5 -127h2q26 86 100 134t170 48q141 0 227.5 -86t86.5 -256v-674q0 -234 -131.5 -358.5t-343.5 -124.5z" />
    <glyph glyph-name="uni10E30302" horiz-adv-x="1216" 
d="M403 1178h-108l219 295h131l219 -295h-108l-176 235zM584 -516q-108 0 -198.5 36.5t-149 97t-91 138t-32.5 160.5q0 124 51 213l100 -35q-39 -83 -39 -178q0 -139 101 -238.5t260 -99.5q162 0 261 103.5t99 289.5v658q0 127 -54.5 193.5t-154.5 66.5q-94 0 -150.5 -57.5
t-56.5 -161.5v-275h-112v267q0 212 -195 212h-131v95h139q92 0 156.5 -41t85.5 -127h2q26 86 100 134t170 48q141 0 227.5 -86t86.5 -256v-674q0 -234 -131.5 -358.5t-343.5 -124.5z" />
    <glyph glyph-name="uni10E30304" horiz-adv-x="1216" 
d="M844 1264h-529v90h529v-90zM584 -516q-108 0 -198.5 36.5t-149 97t-91 138t-32.5 160.5q0 124 51 213l100 -35q-39 -83 -39 -178q0 -139 101 -238.5t260 -99.5q162 0 261 103.5t99 289.5v658q0 127 -54.5 193.5t-154.5 66.5q-94 0 -150.5 -57.5t-56.5 -161.5v-275h-112
v267q0 212 -195 212h-131v95h139q92 0 156.5 -41t85.5 -127h2q26 86 100 134t170 48q141 0 227.5 -86t86.5 -256v-674q0 -234 -131.5 -358.5t-343.5 -124.5z" />
    <glyph glyph-name="uni10E303040308" horiz-adv-x="1216" 
d="M395 1655q-37 0 -62.5 27t-25.5 63q0 35 25.5 61.5t62.5 26.5q36 0 61 -26.5t25 -61.5q0 -36 -25 -63t-61 -27zM764 1655q-36 0 -61 27t-25 63q0 35 25 61.5t61 26.5q37 0 62.5 -26.5t25.5 -61.5q0 -36 -25.5 -63t-62.5 -27zM844 1264h-529v90h529v-90zM584 -516
q-108 0 -198.5 36.5t-149 97t-91 138t-32.5 160.5q0 124 51 213l100 -35q-39 -83 -39 -178q0 -139 101 -238.5t260 -99.5q162 0 261 103.5t99 289.5v658q0 127 -54.5 193.5t-154.5 66.5q-94 0 -150.5 -57.5t-56.5 -161.5v-275h-112v267q0 212 -195 212h-131v95h139
q92 0 156.5 -41t85.5 -127h2q26 86 100 134t170 48q141 0 227.5 -86t86.5 -256v-674q0 -234 -131.5 -358.5t-343.5 -124.5z" />
    <glyph glyph-name="uni10F7_uni0301" horiz-adv-x="1181" 
d="M516 1167h-96l209 295h147zM590 -516q-221 0 -360.5 136t-139.5 335q0 63 13.5 118t34 96t55.5 79t67 63.5t79.5 52.5t82.5 43t86 37t78 33.5t68.5 33.5t63.5 39t45.5 43t33.5 54.5t10 63.5q0 84 -62 134t-163 50q-98 0 -162 -52t-64 -128q0 -31 13 -70l-105 -22
q-18 45 -18 94q0 82 49 144t124.5 92t162.5 30q148 0 240.5 -72t92.5 -196q0 -41 -10 -76.5t-24.5 -63t-42 -53.5t-51 -43.5t-64 -39t-68 -34t-75.5 -32.5q-42 -19 -69 -31.5t-66 -33t-64.5 -38.5t-56.5 -43.5t-50.5 -53t-37 -60.5t-25.5 -73t-8 -85q0 -100 45.5 -185
t135 -138.5t206.5 -53.5q181 0 285 112.5t104 276.5q0 98 -39 180l102 37q50 -106 50 -217q0 -137 -60.5 -246.5t-175.5 -173t-266 -63.5z" />
    <glyph glyph-name="uni10F70304" horiz-adv-x="1181" 
d="M862 1253h-528v90h528v-90zM590 -516q-221 0 -360.5 136t-139.5 335q0 63 13.5 118t34 96t55.5 79t67 63.5t79.5 52.5t82.5 43t86 37t78 33.5t68.5 33.5t63.5 39t45.5 43t33.5 54.5t10 63.5q0 84 -62 134t-163 50q-98 0 -162 -52t-64 -128q0 -31 13 -70l-105 -22
q-18 45 -18 94q0 82 49 144t124.5 92t162.5 30q148 0 240.5 -72t92.5 -196q0 -41 -10 -76.5t-24.5 -63t-42 -53.5t-51 -43.5t-64 -39t-68 -34t-75.5 -32.5q-42 -19 -69 -31.5t-66 -33t-64.5 -38.5t-56.5 -43.5t-50.5 -53t-37 -60.5t-25.5 -73t-8 -85q0 -100 45.5 -185
t135 -138.5t206.5 -53.5q181 0 285 112.5t104 276.5q0 98 -39 180l102 37q50 -106 50 -217q0 -137 -60.5 -246.5t-175.5 -173t-266 -63.5z" />
    <glyph glyph-name="uni10D00308.case" horiz-adv-x="1206" 
d="M422 1653q-37 0 -62.5 27t-25.5 63q0 35 25.5 61.5t62.5 26.5q36 0 61 -26.5t25 -61.5q0 -36 -25 -63t-61 -27zM791 1653q-36 0 -61 27t-25 63q0 35 25 61.5t61 26.5q37 0 62.5 -26.5t25.5 -61.5q0 -36 -25.5 -63t-62.5 -27zM598 -39q-216 0 -348.5 136t-132.5 339
q0 148 69 279l105 -37q-55 -116 -55 -242q0 -164 102 -269.5t262 -105.5q161 0 261 107t100 291q0 90 -24 168.5t-62.5 137t-85 114.5t-93.5 114t-85.5 121t-62.5 149.5t-24 186.5h117q0 -88 24.5 -166.5t63 -139t85.5 -119t94 -118.5t85.5 -124t63 -149t24.5 -181
q0 -228 -134 -360t-349 -132z" />
    <glyph glyph-name="uni10D0_uni0301.case" horiz-adv-x="1206" 
d="M524 1565h-96l209 295h147zM598 -39q-216 0 -348.5 136t-132.5 339q0 148 69 279l105 -37q-55 -116 -55 -242q0 -164 102 -269.5t262 -105.5q161 0 261 107t100 291q0 90 -24 168.5t-62.5 137t-85 114.5t-93.5 114t-85.5 121t-62.5 149.5t-24 186.5h117
q0 -88 24.5 -166.5t63 -139t85.5 -119t94 -118.5t85.5 -124t63 -149t24.5 -181q0 -228 -134 -360t-349 -132z" />
    <glyph glyph-name="uni10D00304.case" horiz-adv-x="1206" 
d="M870 1651h-528v90h528v-90zM598 -39q-216 0 -348.5 136t-132.5 339q0 148 69 279l105 -37q-55 -116 -55 -242q0 -164 102 -269.5t262 -105.5q161 0 261 107t100 291q0 90 -24 168.5t-62.5 137t-85 114.5t-93.5 114t-85.5 121t-62.5 149.5t-24 186.5h117
q0 -88 24.5 -166.5t63 -139t85.5 -119t94 -118.5t85.5 -124t63 -149t24.5 -181q0 -228 -134 -360t-349 -132z" />
    <glyph glyph-name="uni10D003040308.case" horiz-adv-x="1206" 
d="M422 1944q-37 0 -62.5 27t-25.5 63q0 35 25.5 61.5t62.5 26.5q36 0 61 -26.5t25 -61.5q0 -36 -25 -63t-61 -27zM791 1944q-36 0 -61 27t-25 63q0 35 25 61.5t61 26.5q37 0 62.5 -26.5t25.5 -61.5q0 -36 -25.5 -63t-62.5 -27zM870 1651h-528v90h528v-90zM598 -39
q-216 0 -348.5 136t-132.5 339q0 148 69 279l105 -37q-55 -116 -55 -242q0 -164 102 -269.5t262 -105.5q161 0 261 107t100 291q0 90 -24 168.5t-62.5 137t-85 114.5t-93.5 114t-85.5 121t-62.5 149.5t-24 186.5h117q0 -88 24.5 -166.5t63 -139t85.5 -119t94 -118.5
t85.5 -124t63 -149t24.5 -181q0 -228 -134 -360t-349 -132z" />
    <glyph glyph-name="uni10D4_uni0301.case" horiz-adv-x="1261" 
d="M549 1565h-96l209 295h147zM612 -39q-108 0 -200.5 35t-154 94t-96 137t-34.5 164q0 124 55 223l107 -36q-43 -88 -43 -187q0 -137 104.5 -234.5t263.5 -97.5q163 0 263 105t100 289v555q0 176 -98 278.5t-254 102.5q-144 0 -244 -79t-100 -214q0 -57 18 -113l-113 -20
q-24 62 -24 139q0 162 133 274.5t330 112.5q128 0 233.5 -54t171.5 -164.5t66 -258.5v-566q0 -227 -137 -356t-347 -129z" />
    <glyph glyph-name="uni10D40304.case" horiz-adv-x="1261" 
d="M895 1651h-528v90h528v-90zM612 -39q-108 0 -200.5 35t-154 94t-96 137t-34.5 164q0 124 55 223l107 -36q-43 -88 -43 -187q0 -137 104.5 -234.5t263.5 -97.5q163 0 263 105t100 289v555q0 176 -98 278.5t-254 102.5q-144 0 -244 -79t-100 -214q0 -57 18 -113l-113 -20
q-24 62 -24 139q0 162 133 274.5t330 112.5q128 0 233.5 -54t171.5 -164.5t66 -258.5v-566q0 -227 -137 -356t-347 -129z" />
    <glyph glyph-name="uni10D8_uni0301.case" horiz-adv-x="1288" 
d="M561 1565h-96l209 295h147zM440 20l-96 -51q-84 116 -138 282.5t-54 362.5v312q0 269 136.5 416t354.5 147q106 0 195.5 -36.5t156 -105.5t104.5 -177t38 -244v-312q0 -196 -54.5 -362t-138.5 -283l-96 51q76 113 123 267.5t47 337.5v293q0 224 -103.5 347.5
t-271.5 123.5t-270.5 -123.5t-102.5 -347.5v-293q0 -183 47 -337.5t123 -267.5z" />
    <glyph glyph-name="uni10D80304.case" horiz-adv-x="1288" 
d="M907 1651h-528v90h528v-90zM440 20l-96 -51q-84 116 -138 282.5t-54 362.5v312q0 269 136.5 416t354.5 147q106 0 195.5 -36.5t156 -105.5t104.5 -177t38 -244v-312q0 -196 -54.5 -362t-138.5 -283l-96 51q76 113 123 267.5t47 337.5v293q0 224 -103.5 347.5
t-271.5 123.5t-270.5 -123.5t-102.5 -347.5v-293q0 -183 47 -337.5t123 -267.5z" />
    <glyph glyph-name="uni10DD0308.case" horiz-adv-x="1810" 
d="M721 1653q-37 0 -62.5 27t-25.5 63q0 35 25.5 61.5t62.5 26.5q36 0 61 -26.5t25 -61.5q0 -36 -25 -63t-61 -27zM1090 1653q-36 0 -61 27t-25 63q0 35 25 61.5t61 26.5q37 0 62.5 -26.5t25.5 -61.5q0 -36 -25.5 -63t-62.5 -27zM457 20l-101 -51q-90 118 -146 297t-56 381
v342q0 242 107.5 371t287.5 129q131 0 224 -67.5t128 -209.5h6q34 141 128.5 209t226.5 68q180 0 287.5 -129t107.5 -371v-342q0 -201 -57 -380.5t-148 -297.5l-98 51q83 118 133.5 284t50.5 351v326q0 197 -77 302.5t-212 105.5q-137 0 -210.5 -102.5t-73.5 -299.5v-575
h-121v577q0 197 -73 298.5t-212 101.5q-133 0 -211 -105.5t-78 -302.5v-326q0 -187 50.5 -353t136.5 -282z" />
    <glyph glyph-name="uni10DD_uni0301.case" horiz-adv-x="1810" 
d="M823 1565h-96l209 295h147zM457 20l-101 -51q-90 118 -146 297t-56 381v342q0 242 107.5 371t287.5 129q131 0 224 -67.5t128 -209.5h6q34 141 128.5 209t226.5 68q180 0 287.5 -129t107.5 -371v-342q0 -201 -57 -380.5t-148 -297.5l-98 51q83 118 133.5 284t50.5 351
v326q0 197 -77 302.5t-212 105.5q-137 0 -210.5 -102.5t-73.5 -299.5v-575h-121v577q0 197 -73 298.5t-212 101.5q-133 0 -211 -105.5t-78 -302.5v-326q0 -187 50.5 -353t136.5 -282z" />
    <glyph glyph-name="uni10DD0304.case" horiz-adv-x="1810" 
d="M1169 1651h-528v90h528v-90zM457 20l-101 -51q-90 118 -146 297t-56 381v342q0 242 107.5 371t287.5 129q131 0 224 -67.5t128 -209.5h6q34 141 128.5 209t226.5 68q180 0 287.5 -129t107.5 -371v-342q0 -201 -57 -380.5t-148 -297.5l-98 51q83 118 133.5 284t50.5 351
v326q0 197 -77 302.5t-212 105.5q-137 0 -210.5 -102.5t-73.5 -299.5v-575h-121v577q0 197 -73 298.5t-212 101.5q-133 0 -211 -105.5t-78 -302.5v-326q0 -187 50.5 -353t136.5 -282z" />
    <glyph glyph-name="uni10DD03040308.case" horiz-adv-x="1810" 
d="M721 1944q-37 0 -62.5 27t-25.5 63q0 35 25.5 61.5t62.5 26.5q36 0 61 -26.5t25 -61.5q0 -36 -25 -63t-61 -27zM1090 1944q-36 0 -61 27t-25 63q0 35 25 61.5t61 26.5q37 0 62.5 -26.5t25.5 -61.5q0 -36 -25.5 -63t-62.5 -27zM1169 1651h-528v90h528v-90zM457 20
l-101 -51q-90 118 -146 297t-56 381v342q0 242 107.5 371t287.5 129q131 0 224 -67.5t128 -209.5h6q34 141 128.5 209t226.5 68q180 0 287.5 -129t107.5 -371v-342q0 -201 -57 -380.5t-148 -297.5l-98 51q83 118 133.5 284t50.5 351v326q0 197 -77 302.5t-212 105.5
q-137 0 -210.5 -102.5t-73.5 -299.5v-575h-121v577q0 197 -73 298.5t-212 101.5q-133 0 -211 -105.5t-78 -302.5v-326q0 -187 50.5 -353t136.5 -282z" />
    <glyph glyph-name="uni10E30308.case" horiz-adv-x="1284" 
d="M449 1653q-37 0 -63 27t-26 63q0 35 26 61.5t63 26.5q36 0 61 -26.5t25 -61.5q0 -36 -25 -63t-61 -27zM817 1653q-36 0 -61 27t-25 63q0 35 25 61.5t61 26.5q37 0 62.5 -26.5t25.5 -61.5q0 -36 -25.5 -63t-62.5 -27zM627 -39q-108 0 -200.5 36t-154.5 96t-96.5 138.5
t-34.5 163.5q0 116 52 215l106 -37q-39 -83 -39 -176q0 -141 104.5 -239.5t264.5 -98.5q164 0 266 102t102 290v675q0 135 -57 200t-160 65q-95 0 -154 -64.5t-59 -173.5v-272h-118v268q0 221 -201 221h-146v105h160q94 0 159.5 -45t86.5 -130h4q24 84 99.5 136.5
t179.5 52.5q147 0 237 -88t90 -254v-703q0 -118 -38 -211.5t-105.5 -152t-156 -89t-191.5 -30.5z" />
    <glyph glyph-name="uni10E3_uni0301.case" horiz-adv-x="1284" 
d="M551 1565h-96l209 295h147zM627 -39q-108 0 -200.5 36t-154.5 96t-96.5 138.5t-34.5 163.5q0 116 52 215l106 -37q-39 -83 -39 -176q0 -141 104.5 -239.5t264.5 -98.5q164 0 266 102t102 290v675q0 135 -57 200t-160 65q-95 0 -154 -64.5t-59 -173.5v-272h-118v268
q0 221 -201 221h-146v105h160q94 0 159.5 -45t86.5 -130h4q24 84 99.5 136.5t179.5 52.5q147 0 237 -88t90 -254v-703q0 -118 -38 -211.5t-105.5 -152t-156 -89t-191.5 -30.5z" />
    <glyph glyph-name="uni10E30302.case" horiz-adv-x="1284" 
d="M457 1565h-109l219 295h131l220 -295h-109l-176 235zM627 -39q-108 0 -200.5 36t-154.5 96t-96.5 138.5t-34.5 163.5q0 116 52 215l106 -37q-39 -83 -39 -176q0 -141 104.5 -239.5t264.5 -98.5q164 0 266 102t102 290v675q0 135 -57 200t-160 65q-95 0 -154 -64.5
t-59 -173.5v-272h-118v268q0 221 -201 221h-146v105h160q94 0 159.5 -45t86.5 -130h4q24 84 99.5 136.5t179.5 52.5q147 0 237 -88t90 -254v-703q0 -118 -38 -211.5t-105.5 -152t-156 -89t-191.5 -30.5z" />
    <glyph glyph-name="uni10E30304.case" horiz-adv-x="1284" 
d="M897 1651h-528v90h528v-90zM627 -39q-108 0 -200.5 36t-154.5 96t-96.5 138.5t-34.5 163.5q0 116 52 215l106 -37q-39 -83 -39 -176q0 -141 104.5 -239.5t264.5 -98.5q164 0 266 102t102 290v675q0 135 -57 200t-160 65q-95 0 -154 -64.5t-59 -173.5v-272h-118v268
q0 221 -201 221h-146v105h160q94 0 159.5 -45t86.5 -130h4q24 84 99.5 136.5t179.5 52.5q147 0 237 -88t90 -254v-703q0 -118 -38 -211.5t-105.5 -152t-156 -89t-191.5 -30.5z" />
    <glyph glyph-name="uni10E303040308.case" horiz-adv-x="1284" 
d="M449 1944q-37 0 -63 27t-26 63q0 35 26 61.5t63 26.5q36 0 61 -26.5t25 -61.5q0 -36 -25 -63t-61 -27zM817 1944q-36 0 -61 27t-25 63q0 35 25 61.5t61 26.5q37 0 62.5 -26.5t25.5 -61.5q0 -36 -25.5 -63t-62.5 -27zM897 1651h-528v90h528v-90zM627 -39q-108 0 -200.5 36
t-154.5 96t-96.5 138.5t-34.5 163.5q0 116 52 215l106 -37q-39 -83 -39 -176q0 -141 104.5 -239.5t264.5 -98.5q164 0 266 102t102 290v675q0 135 -57 200t-160 65q-95 0 -154 -64.5t-59 -173.5v-272h-118v268q0 221 -201 221h-146v105h160q94 0 159.5 -45t86.5 -130h4
q24 84 99.5 136.5t179.5 52.5q147 0 237 -88t90 -254v-703q0 -118 -38 -211.5t-105.5 -152t-156 -89t-191.5 -30.5z" />
    <glyph glyph-name="uni10F7_uni0301.case" horiz-adv-x="1298" 
d="M580 1565h-97l209 295h148zM649 -39q-230 0 -376 128.5t-146 326.5q0 61 15.5 115.5t38 95.5t62 79.5t74.5 64t88.5 53.5t89.5 44t93 39q63 27 97.5 43t80 44t68.5 53t40 62t17 81q0 94 -70.5 150.5t-179.5 56.5q-113 0 -183.5 -55t-70.5 -144q0 -38 12 -88l-108 -20
q-21 60 -21 110q0 127 110 208t261 81q158 0 261.5 -83t103.5 -216q0 -59 -20 -108.5t-48 -83t-79.5 -67t-92.5 -53.5t-109 -49q-5 -2 -16 -7q-44 -19 -66 -29t-62.5 -29.5t-62 -33t-54.5 -36t-51 -42t-39.5 -46.5t-32.5 -54.5t-19 -62.5t-8 -73q0 -150 112 -252.5
t291 -102.5q177 0 290.5 103.5t113.5 245.5q0 113 -47 202l108 37q57 -103 57 -237q0 -191 -147 -321t-375 -130z" />
    <glyph glyph-name="uni10F70304.case" horiz-adv-x="1298" 
d="M926 1651h-529v90h529v-90zM649 -39q-230 0 -376 128.5t-146 326.5q0 61 15.5 115.5t38 95.5t62 79.5t74.5 64t88.5 53.5t89.5 44t93 39q63 27 97.5 43t80 44t68.5 53t40 62t17 81q0 94 -70.5 150.5t-179.5 56.5q-113 0 -183.5 -55t-70.5 -144q0 -38 12 -88l-108 -20
q-21 60 -21 110q0 127 110 208t261 81q158 0 261.5 -83t103.5 -216q0 -59 -20 -108.5t-48 -83t-79.5 -67t-92.5 -53.5t-109 -49q-5 -2 -16 -7q-44 -19 -66 -29t-62.5 -29.5t-62 -33t-54.5 -36t-51 -42t-39.5 -46.5t-32.5 -54.5t-19 -62.5t-8 -73q0 -150 112 -252.5
t291 -102.5q177 0 290.5 103.5t113.5 245.5q0 113 -47 202l108 37q57 -103 57 -237q0 -191 -147 -321t-375 -130z" />
    <glyph glyph-name="uni10FC.case" horiz-adv-x="765" 
d="M395 565q-120 0 -198 77t-78 208v379q0 113 62 167t169 54h266v-76h-258q-153 0 -153 -151v-211h4q27 53 81.5 83.5t119.5 30.5q114 0 189 -80t75 -200q0 -114 -75 -197.5t-204 -83.5zM395 639q88 0 140.5 60.5t52.5 148.5q0 86 -52.5 144.5t-140.5 58.5
q-83 0 -138.5 -59t-55.5 -146q0 -89 54 -148t140 -59z" />
    <glyph glyph-name="zero.dnom" horiz-adv-x="745" 
d="M373 -16q-66 0 -117 26.5t-82.5 69t-51.5 102.5t-28 120.5t-8 129.5q0 68 8 129t28 121t51.5 103t82.5 69.5t117 26.5q65 0 115.5 -26.5t82 -69.5t51.5 -102.5t27.5 -120.5t7.5 -130t-7.5 -129.5t-27.5 -120.5t-51.5 -102.5t-82 -69t-115.5 -26.5zM373 72q53 0 91 34.5
t56.5 91.5t26.5 114.5t8 119.5t-8 119t-26.5 114.5t-56.5 92.5t-91 35q-55 0 -93.5 -34.5t-57 -92.5t-26.5 -115t-8 -119q0 -63 8 -119.5t26.5 -114t57 -92t93.5 -34.5z" />
    <glyph glyph-name="one.dnom" horiz-adv-x="745" 
d="M453 0h-101v741l-149 -123l-64 70l230 174h84v-862z" />
    <glyph glyph-name="two.dnom" horiz-adv-x="745" 
d="M641 0h-549v94l334 346q54 56 80 103.5t26 101.5q0 66 -43 106t-110 40q-62 0 -107.5 -39t-62.5 -109l-96 16q20 100 94 161t172 61q113 0 185.5 -63t72.5 -171q0 -78 -36 -136.5t-118 -143.5l-270 -279h428v-88z" />
    <glyph glyph-name="three.dnom" horiz-adv-x="745" 
d="M356 -16q-96 0 -167 45.5t-109 134.5l92 31q24 -60 73.5 -91.5t110.5 -31.5q77 0 128 44t51 124q0 83 -61.5 125.5t-149.5 42.5h-50v84h50q85 0 135.5 41t50.5 116q0 65 -45.5 104.5t-110.5 39.5q-47 0 -90 -26.5t-69 -72.5l-80 45q86 142 243 142q109 0 179.5 -61.5
t70.5 -168.5q0 -70 -37.5 -121t-101.5 -75v-2q76 -21 121 -77t45 -136q0 -120 -80 -188t-199 -68z" />
    <glyph glyph-name="four.dnom" horiz-adv-x="745" 
d="M547 0h-90v207h-389v88l362 569h117v-569h127v-88h-127v-207zM451 733l-281 -438h287v438h-6z" />
    <glyph glyph-name="five.dnom" horiz-adv-x="745" 
d="M354 -16q-94 0 -161.5 43t-102.5 118l90 37q60 -110 174 -110q81 0 134 52.5t53 143.5q0 88 -54.5 142.5t-144.5 54.5q-83 0 -186 -57l8 456h442v-90h-346l-6 -244q46 19 111 19q125 0 200.5 -77t75.5 -198q0 -132 -80.5 -211t-206.5 -79z" />
    <glyph glyph-name="six.dnom" horiz-adv-x="745" 
d="M373 -16q-122 0 -201.5 77.5t-79.5 198.5q0 101 78 229l229 375h117l-225 -354l2 -2q44 24 94 24q115 0 191.5 -76.5t76.5 -195.5q0 -121 -80 -198.5t-202 -77.5zM375 72q78 0 129 53t51 135q0 80 -49.5 133t-128.5 53q-81 0 -134 -53.5t-53 -132.5q0 -82 52 -135
t133 -53z" />
    <glyph glyph-name="seven.dnom" horiz-adv-x="745" 
d="M293 0h-111l346 774h-401v90h510v-80z" />
    <glyph glyph-name="eight.dnom" horiz-adv-x="745" 
d="M373 -16q-116 0 -197.5 70.5t-81.5 183.5q0 74 39 133t107 88v2q-56 30 -84.5 80t-28.5 110q0 101 71.5 165.5t174.5 64.5t174 -64.5t71 -165.5q0 -60 -29.5 -110.5t-84.5 -79.5v-2q67 -28 106 -87.5t39 -133.5q0 -113 -80 -183.5t-196 -70.5zM373 502q63 0 105 41.5
t42 103.5q0 64 -42 105t-105 41q-64 0 -106 -41t-42 -105q0 -62 42.5 -103.5t105.5 -41.5zM373 72q79 0 128.5 48.5t49.5 121.5q0 74 -50 123t-128 49t-129 -49t-51 -123q0 -73 50.5 -121.5t129.5 -48.5z" />
    <glyph glyph-name="nine.dnom" horiz-adv-x="745" 
d="M346 0h-117l228 356l-2 2q-41 -24 -97 -24q-115 0 -191.5 77t-76.5 195t80.5 196.5t202.5 78.5t201 -77.5t79 -197.5q-3 -111 -78 -233zM371 420q79 0 131.5 53.5t52.5 132.5q0 78 -52 132.5t-130 54.5q-79 0 -131 -54t-52 -133q0 -81 50 -133.5t131 -52.5z" />
    <glyph glyph-name="zero.numr" horiz-adv-x="745" 
d="M373 569q-66 0 -117 26.5t-82.5 69.5t-51.5 102.5t-28 120.5t-8 130q0 68 8 128.5t28 120.5t51.5 103t82.5 69.5t117 26.5q65 0 115.5 -26.5t82 -69t51.5 -102.5t27.5 -120.5t7.5 -129.5t-7.5 -130t-27.5 -120.5t-51.5 -102.5t-82 -69.5t-115.5 -26.5zM373 657
q53 0 91 34.5t56.5 92t26.5 115t8 119.5t-8 119t-26.5 114.5t-56.5 92t-91 34.5q-55 0 -93.5 -34.5t-57 -92.5t-26.5 -114.5t-8 -118.5q0 -63 8 -120t26.5 -114.5t57 -92t93.5 -34.5z" />
    <glyph glyph-name="one.numr" horiz-adv-x="745" 
d="M453 588h-101v741l-149 -123l-64 70l230 174h84v-862z" />
    <glyph glyph-name="two.numr" horiz-adv-x="745" 
d="M641 588h-549v94l334 346q54 56 80 103.5t26 101.5q0 66 -43 105.5t-110 39.5q-62 0 -107.5 -38.5t-62.5 -108.5l-96 16q20 100 94 160.5t172 60.5q113 0 185.5 -62.5t72.5 -170.5q0 -55 -22 -105.5t-49.5 -84.5t-82.5 -91l-270 -278h428v-88z" />
    <glyph glyph-name="three.numr" horiz-adv-x="745" 
d="M356 569q-96 0 -167 46t-109 135l92 30q24 -60 73.5 -91.5t110.5 -31.5q77 0 128 44t51 124q0 83 -61.5 125.5t-149.5 42.5h-50v84h50q85 0 135.5 41.5t50.5 116.5q0 65 -45 104t-111 39q-47 0 -90 -26t-69 -72l-80 45q86 141 243 141q109 0 179.5 -61t70.5 -168
q0 -70 -38 -121.5t-101 -75.5v-2q76 -21 121 -77t45 -136q0 -120 -80 -188t-199 -68z" />
    <glyph glyph-name="four.numr" horiz-adv-x="745" 
d="M547 586h-90v207h-389v88l362 569h117v-569h127v-88h-127v-207zM451 1319l-281 -438h287v438h-6z" />
    <glyph glyph-name="five.numr" horiz-adv-x="745" 
d="M354 569q-94 0 -161.5 43.5t-102.5 118.5l90 37q60 -111 174 -111q81 0 134 53t53 144q0 88 -54.5 142.5t-144.5 54.5q-82 0 -186 -58l8 457h442v-90h-346l-6 -244q46 19 111 19q125 0 200.5 -77t75.5 -198q0 -133 -81 -212t-206 -79z" />
    <glyph glyph-name="six.numr" horiz-adv-x="745" 
d="M373 569q-122 0 -201.5 78t-79.5 199q0 101 78 229l229 375h117l-225 -354l2 -2q44 24 94 24q115 0 191.5 -76.5t76.5 -195.5q0 -121 -80 -199t-202 -78zM375 657q78 0 129 53.5t51 135.5q0 80 -49.5 133t-128.5 53q-81 0 -134 -53.5t-53 -132.5q0 -82 52 -135.5
t133 -53.5z" />
    <glyph glyph-name="seven.numr" horiz-adv-x="745" 
d="M293 586h-111l346 774h-401v90h510v-80z" />
    <glyph glyph-name="eight.numr" horiz-adv-x="745" 
d="M373 569q-116 0 -197.5 70.5t-81.5 183.5q0 74 39 133t107 88v3q-56 30 -84.5 80t-28.5 110q0 101 71.5 165t174.5 64t174 -64t71 -165q0 -60 -29.5 -110.5t-84.5 -79.5v-3q67 -28 106 -87.5t39 -133.5q0 -113 -80 -183.5t-196 -70.5zM373 1087q63 0 105 42t42 104
q0 64 -41.5 104.5t-105.5 40.5t-106 -40.5t-42 -104.5q0 -62 42.5 -104t105.5 -42zM373 657q79 0 128.5 48.5t49.5 121.5q0 74 -50 123t-128 49t-129 -49t-51 -123q0 -73 50.5 -121.5t129.5 -48.5z" />
    <glyph glyph-name="nine.numr" horiz-adv-x="745" 
d="M346 586h-117l228 356l-2 2q-41 -24 -97 -24q-115 0 -191.5 77t-76.5 195t80.5 196t202.5 78t201 -77t79 -197q-3 -112 -78 -234zM371 1006q79 0 131.5 53.5t52.5 132.5q0 78 -52 132t-130 54q-79 0 -131 -53.5t-52 -132.5q0 -81 50 -133.5t131 -52.5z" />
    <glyph glyph-name="uni0308_uni0300" 
d="M51 1532h-96l-234 266h146zM-184 1217q-37 0 -62.5 27t-25.5 63q0 35 25.5 61.5t62.5 26.5q36 0 61 -26.5t25 -61.5q0 -36 -25 -63t-61 -27zM184 1217q-36 0 -61 27t-25 63q0 35 25 61.5t61 26.5q37 0 62.5 -26.5t25.5 -61.5q0 -36 -25.5 -63t-62.5 -27z" />
    <glyph glyph-name="uni0308_uni0301" 
d="M35 1532h-96l184 266h145zM-184 1217q-37 0 -62.5 27t-25.5 63q0 35 25.5 61.5t62.5 26.5q36 0 61 -26.5t25 -61.5q0 -36 -25 -63t-61 -27zM184 1217q-36 0 -61 27t-25 63q0 35 25 61.5t61 26.5q37 0 62.5 -26.5t25.5 -61.5q0 -36 -25.5 -63t-62.5 -27z" />
    <glyph glyph-name="uni0308030C" 
d="M66 1532h-132l-198 266h108l156 -207l156 207h108zM-184 1217q-37 0 -62.5 27t-25.5 63q0 35 25.5 61.5t62.5 26.5q36 0 61 -26.5t25 -61.5q0 -36 -25 -63t-61 -27zM184 1217q-36 0 -61 27t-25 63q0 35 25 61.5t61 26.5q37 0 62.5 -26.5t25.5 -61.5q0 -36 -25.5 -63
t-62.5 -27z" />
    <glyph glyph-name="uni03080304" 
d="M264 1645h-528v90h528v-90zM-184 1217q-37 0 -62.5 27t-25.5 63q0 35 25.5 61.5t62.5 26.5q36 0 61 -26.5t25 -61.5q0 -36 -25 -63t-61 -27zM184 1217q-36 0 -61 27t-25 63q0 35 25 61.5t61 26.5q37 0 62.5 -26.5t25.5 -61.5q0 -36 -25.5 -63t-62.5 -27z" />
    <glyph glyph-name="uni030C.alt" 
d="M-27 1071h-92l121 379h117z" />
    <glyph glyph-name="uni0308.case" 
d="M-184 1653q-37 0 -62.5 27t-25.5 63q0 35 25.5 61.5t62.5 26.5q36 0 61 -26.5t25 -61.5q0 -36 -25 -63t-61 -27zM184 1653q-36 0 -61 27t-25 63q0 35 25 61.5t61 26.5q37 0 62.5 -26.5t25.5 -61.5q0 -36 -25.5 -63t-62.5 -27z" />
    <glyph glyph-name="uni0308_uni0300.case" 
d="M51 1901h-96l-234 266h146zM-184 1585q-37 0 -62.5 27t-25.5 63q0 35 25.5 61.5t62.5 26.5q36 0 61 -26.5t25 -61.5q0 -36 -25 -63t-61 -27zM184 1585q-36 0 -61 27t-25 63q0 35 25 61.5t61 26.5q37 0 62.5 -26.5t25.5 -61.5q0 -36 -25.5 -63t-62.5 -27z" />
    <glyph glyph-name="uni0308_uni0301.case" 
d="M35 1901h-96l184 266h145zM-184 1585q-37 0 -62.5 27t-25.5 63q0 35 25.5 61.5t62.5 26.5q36 0 61 -26.5t25 -61.5q0 -36 -25 -63t-61 -27zM184 1585q-36 0 -61 27t-25 63q0 35 25 61.5t61 26.5q37 0 62.5 -26.5t25.5 -61.5q0 -36 -25.5 -63t-62.5 -27z" />
    <glyph glyph-name="uni0308030C.case" 
d="M66 1901h-132l-198 266h108l156 -207l156 207h108zM-184 1585q-37 0 -62.5 27t-25.5 63q0 35 25.5 61.5t62.5 26.5q36 0 61 -26.5t25 -61.5q0 -36 -25 -63t-61 -27zM184 1585q-36 0 -61 27t-25 63q0 35 25 61.5t61 26.5q37 0 62.5 -26.5t25.5 -61.5q0 -36 -25.5 -63
t-62.5 -27z" />
    <glyph glyph-name="uni03080304.case" 
d="M264 2013h-528v90h528v-90zM-184 1585q-37 0 -62.5 27t-25.5 63q0 35 25.5 61.5t62.5 26.5q36 0 61 -26.5t25 -61.5q0 -36 -25 -63t-61 -27zM184 1585q-36 0 -61 27t-25 63q0 35 25 61.5t61 26.5q37 0 62.5 -26.5t25.5 -61.5q0 -36 -25.5 -63t-62.5 -27z" />
    <glyph glyph-name="uni0307.case" 
d="M0 1659q-32 0 -57 24t-25 60t25 60t57 24t57 -24t25 -60t-25 -60t-57 -24z" />
    <glyph glyph-name="gravecomb.case" 
d="M178 1565h-96l-260 295h147z" />
    <glyph glyph-name="acutecomb.case" 
d="M-82 1565h-96l209 295h147z" />
    <glyph glyph-name="uni030B.case" 
d="M-240 1565h-96l207 295h149zM80 1565h-98l206 295h148z" />
    <glyph glyph-name="uni0302.case" 
d="M-176 1565h-109l219 295h132l219 -295h-109l-176 235z" />
    <glyph glyph-name="uni030C.case" 
d="M66 1565h-132l-219 295h109l176 -236l176 236h109z" />
    <glyph glyph-name="uni0306.case" 
d="M-2 1587q-120 0 -198.5 71t-88.5 195h76q14 -85 72.5 -130.5t138.5 -45.5q85 0 141.5 44t73.5 132h74q-10 -124 -88.5 -195t-200.5 -71z" />
    <glyph glyph-name="uni030A.case" 
d="M0 1546q-81 0 -139 56.5t-58 138.5t58 138t139 56t139 -56t58 -138t-58 -138.5t-139 -56.5zM0 1608q56 0 94.5 39t38.5 94t-38.5 94t-94.5 39t-94.5 -39t-38.5 -94t38.5 -94t94.5 -39z" />
    <glyph glyph-name="tildecomb.case" 
d="M-233 1599h-72q13 86 53.5 139.5t112.5 53.5q49 0 145 -49q89 -47 131 -47q74 0 96 100h72q-13 -84 -54.5 -136t-113.5 -52q-60 0 -143 47q-80 47 -133 47q-72 0 -94 -103z" />
    <glyph glyph-name="uni0304.case" 
d="M264 1651h-528v90h528v-90z" />
    <glyph glyph-name="hookabovecomb.case" 
d="M33 1546h-82q0 45 20 74.5t72 54.5q68 35 68 92q0 42 -26.5 67.5t-74.5 25.5q-104 0 -121 -113l-88 10q15 86 69.5 129t141.5 43q85 0 136 -44t51 -113q0 -102 -101 -148q-65 -32 -65 -78z" />
    </font>
</defs>
</svg>
