<?xml version="1.0" standalone="no"?>
<!DOCTYPE svg PUBLIC "-//W3C//DTD SVG 1.1//EN" "http://www.w3.org/Graphics/SVG/1.1/DTD/svg11.dtd" >
<svg xmlns="http://www.w3.org/2000/svg" xmlns:xlink="http://www.w3.org/1999/xlink" version="1.1">
<metadata>
Created by FontForge 20170731 at Mon Nov 21 14:45:00 2022
 By Aleksey,,,
Copyright (c) 1988-2020 Monotype GmbH. All rights reserved.
</metadata>
<defs>
<font id="AvenirNextGeorgian-Black" horiz-adv-x="0" >
  <font-face 
    font-family="Avenir Next Georgian Black"
    font-weight="900"
    font-stretch="normal"
    units-per-em="2048"
    panose-1="2 11 10 3 2 2 2 2 2 4"
    ascent="1552"
    descent="-496"
    x-height="1061"
    cap-height="1450"
    bbox="-555 -530 2517 2361"
    underline-thickness="102"
    underline-position="-307"
    unicode-range="U+000D-FEFF"
  />
<missing-glyph horiz-adv-x="1048" 
d="M1049 0h-1049v1470h1049v-1470zM102 1366v-1264h844v1264h-844zM555 479h-94q-4 24 -4 35q0 115 26 166q33 64 95 121q64 59 83 93.5t19 76.5q0 73 -46 123.5t-110 50.5q-67 0 -112 -47.5t-56 -147.5l-102 17q13 141 87 210.5t189 69.5q110 0 182 -74t72 -194
q0 -70 -26.5 -123.5t-102.5 -122.5q-77 -68 -88 -106q-12 -41 -12 -148zM569 240h-114v137h114v-137z" />
    <glyph glyph-name="fi" unicode="fi" horiz-adv-x="1490" 
d="M614 0h-430v750h-184v311h184v45q0 83 14 153.5t48.5 135.5t88.5 110t139.5 72t195.5 27q118 0 198 -29l-28 -328q-48 19 -92 19q-134 0 -134 -164v-41h228v-311h-228v-750zM1159 1153q-95 0 -162 64.5t-67 158.5q0 91 67 157t162 66q92 0 159.5 -66t67.5 -157
q0 -94 -67 -158.5t-160 -64.5zM1374 0h-432v1061h432v-1061z" />
    <glyph glyph-name="fl" unicode="fl" horiz-adv-x="1497" 
d="M614 0h-430v750h-184v311h184v45q0 83 14 153.5t48.5 135.5t88.5 110t139.5 72t195.5 27q118 0 198 -29l-28 -328q-48 19 -92 19q-134 0 -134 -164v-41h228v-311h-228v-750zM1380 0h-440v1548h440v-1548z" />
    <glyph glyph-name=".notdef" horiz-adv-x="1048" 
d="M1049 0h-1049v1470h1049v-1470zM102 1366v-1264h844v1264h-844zM555 479h-94q-4 24 -4 35q0 115 26 166q33 64 95 121q64 59 83 93.5t19 76.5q0 73 -46 123.5t-110 50.5q-67 0 -112 -47.5t-56 -147.5l-102 17q13 141 87 210.5t189 69.5q110 0 182 -74t72 -194
q0 -70 -26.5 -123.5t-102.5 -122.5q-77 -68 -88 -106q-12 -41 -12 -148zM569 240h-114v137h114v-137z" />
    <glyph glyph-name=".null" 
 />
    <glyph glyph-name="nonmarkingreturn" horiz-adv-x="682" 
 />
    <glyph glyph-name="NULL" 
 />
    <glyph glyph-name="NULL" 
 />
    <glyph glyph-name="CR" unicode="&#xd;" horiz-adv-x="512" 
 />
    <glyph glyph-name="space" unicode=" " horiz-adv-x="512" 
 />
    <glyph glyph-name="exclam" unicode="!" horiz-adv-x="860" 
d="M653 518h-446v932h446v-932zM430 -29q-99 0 -168 67t-69 165q0 94 69.5 162.5t167.5 68.5t168 -68t70 -163q0 -98 -69.5 -165t-168.5 -67z" />
    <glyph glyph-name="quotedbl" unicode="&#x22;" horiz-adv-x="1101" 
d="M498 879h-328v571h328v-571zM932 879h-326v571h326v-571z" />
    <glyph glyph-name="quotedbl" unicode="&#x2033;" horiz-adv-x="1101" 
d="M498 879h-328v571h328v-571zM932 879h-326v571h326v-571z" />
    <glyph glyph-name="numbersign" unicode="#" horiz-adv-x="1259" 
d="M473 0h-274l55 391h-162v256h199l22 156h-161v256h196l53 391h279l-57 -391h106l57 391h275l-55 -391h161v-256h-198l-21 -156h162v-256h-197l-57 -391h-274l55 391h-107zM586 803l-21 -156h107l24 156h-110z" />
    <glyph glyph-name="dollar" unicode="$" horiz-adv-x="1402" 
d="M776 -170h-194v154q-142 10 -273 63.5t-227 138.5l276 287q54 -62 143.5 -101.5t178.5 -39.5q55 0 92 22.5t37 69.5q0 45 -51 75.5t-201 78.5q-70 23 -121.5 45t-106 57.5t-89 77t-56.5 102.5t-22 135q0 102 36 185.5t98.5 139.5t139.5 91t166 49v150h193v-146
q135 -8 265.5 -59t227.5 -139l-278 -275q-49 59 -122 90t-138 31q-142 0 -142 -88q0 -16 4 -28t17 -22.5t22 -17t35.5 -16t40 -14t51.5 -15.5q55 -16 93.5 -29t92.5 -36t91.5 -46t78 -57.5t65.5 -73t41.5 -90.5t16.5 -112q0 -109 -39.5 -198.5t-107 -148.5t-153 -93.5
t-181.5 -42.5v-154z" />
    <glyph glyph-name="percent" unicode="%" horiz-adv-x="1900" 
d="M1477 1407l-856 -1481l-195 103l856 1484zM455 688q-165 0 -281.5 114.5t-116.5 278.5q0 165 116.5 279.5t281.5 114.5q166 0 282.5 -114.5t116.5 -279.5q0 -164 -116.5 -278.5t-282.5 -114.5zM455 950q55 0 94 38t39 93t-39.5 94t-93.5 39t-93.5 -39t-39.5 -94t39 -93
t94 -38zM1448 -25q-165 0 -282 115t-117 279q0 165 117 279t282 114t281 -114t116 -279q0 -164 -116 -279t-281 -115zM1448 238q55 0 94 38t39 93t-39.5 94t-93.5 39t-93.5 -39t-39.5 -94t39 -93t94 -38z" />
    <glyph glyph-name="ampersand" unicode="&#x26;" horiz-adv-x="1683" 
d="M643 -29q-84 0 -163 15.5t-151 50.5t-125.5 86t-85.5 126.5t-32 166.5q0 136 80 235t209 156q-144 130 -144 301q0 80 30 145.5t79.5 109t115.5 73t135 42.5t140 13q72 0 140 -13.5t130.5 -43.5t109.5 -74t75 -110t28 -146q0 -65 -21.5 -121t-62.5 -101t-88 -79.5
t-110 -67.5l125 -123l123 181h467l-338 -422l385 -371h-527l-110 115q-158 -144 -414 -144zM713 948q57 23 92 61t35 83q0 46 -28 76t-77 30t-78.5 -30.5t-29.5 -75.5q0 -74 86 -144zM664 303q95 0 149 64l-203 208q-102 -40 -102 -137q0 -63 48 -99t108 -36z" />
    <glyph glyph-name="quotesingle" unicode="'" horiz-adv-x="665" 
d="M496 879h-326v571h326v-571z" />
    <glyph glyph-name="quotesingle" unicode="&#x2032;" horiz-adv-x="665" 
d="M496 879h-326v571h326v-571z" />
    <glyph glyph-name="parenleft" unicode="(" horiz-adv-x="724" 
d="M635 -248l-287 -114q-149 202 -227 450.5t-78 501.5t78 501.5t227 450.5l287 -115q-270 -370 -270 -837q0 -468 270 -838z" />
    <glyph glyph-name="parenright" unicode=")" horiz-adv-x="724" 
d="M379 -362l-289 114q270 370 270 838q0 467 -270 837l289 115q147 -203 225 -451t78 -501t-78 -501t-225 -451z" />
    <glyph glyph-name="asterisk" unicode="*" horiz-adv-x="1054" 
d="M524 809l-149 -193l-225 158l155 191l-248 79l90 248l242 -82v240h281v-242l243 76l84 -248l-241 -73l153 -199l-229 -158z" />
    <glyph glyph-name="plus" unicode="+" horiz-adv-x="1363" 
d="M838 61h-308v414h-426v291h424v414h306v-414h426v-291h-422v-414z" />
    <glyph glyph-name="comma" unicode="," horiz-adv-x="700" 
d="M381 -248h-348l164 623h407z" />
    <glyph glyph-name="hyphen" unicode="-" horiz-adv-x="681" 
d="M616 406h-550v327h550v-327z" />
    <glyph glyph-name="period" unicode="." horiz-adv-x="700" 
d="M354 -29q-105 0 -180.5 71t-75.5 173q0 101 76 174.5t180 73.5q100 0 173 -73.5t73 -174.5q0 -102 -72.5 -173t-173.5 -71z" />
    <glyph glyph-name="slash" unicode="/" horiz-adv-x="907" 
d="M911 1475l-626 -1592l-293 92l624 1592z" />
    <glyph glyph-name="zero" unicode="0" horiz-adv-x="1400" 
d="M700 -41q-103 0 -190.5 24.5t-151 67t-113 102.5t-81.5 127t-52.5 145t-29 152.5t-8.5 153.5t8.5 152.5t29 150.5t52.5 143t81.5 125t113 100t151 65t190.5 24t190.5 -24t150.5 -65t113 -100t81.5 -124.5t52 -143t29 -151t8.5 -152.5q0 -113 -17 -215.5t-61 -206.5
t-112 -179.5t-180 -123t-255 -47.5zM700 344q50 0 85 35.5t52 96.5t24 122.5t7 132.5q0 70 -7 130t-24 119.5t-52 94.5t-85 35q-49 0 -84 -35t-52.5 -94.5t-24.5 -120t-7 -129.5q0 -71 7 -132.5t24.5 -122.5t52.5 -96.5t84 -35.5z" />
    <glyph glyph-name="one" unicode="1" horiz-adv-x="1400" 
d="M1032 0h-446v975l-252 -182l-213 323l504 334h407v-1450z" />
    <glyph glyph-name="two" unicode="2" horiz-adv-x="1400" 
d="M1274 0h-1137v350l570 475q92 78 92 158q0 53 -34 88t-95 35q-66 0 -110 -51t-50 -135l-424 49q13 128 69 229.5t141.5 164.5t189.5 95.5t219 32.5q86 0 166.5 -16.5t153.5 -53t127 -89.5t86 -132t32 -174q0 -66 -16 -125.5t-39.5 -103t-62.5 -87t-73.5 -73t-83.5 -66.5
l-250 -196h529v-375z" />
    <glyph glyph-name="three" unicode="3" horiz-adv-x="1400" 
d="M707 -41q-110 0 -210.5 25.5t-187 76t-150 134t-91.5 192.5l413 100q14 -64 69 -109.5t134 -45.5q60 0 106 31t46 94q0 74 -63 103.5t-173 29.5h-125v309h137q199 0 199 125q0 53 -40 81t-95 28q-60 0 -106 -37.5t-58 -100.5l-412 90q32 106 96 186.5t148 127t176 69.5
t191 23q80 0 157 -15t149.5 -49t127.5 -82t88 -120t33 -158q0 -116 -63.5 -194t-164.5 -107v-6q114 -33 185 -125t71 -201q0 -97 -33.5 -177.5t-90 -134.5t-133 -91.5t-159.5 -54.5t-171 -17z" />
    <glyph glyph-name="four" unicode="4" horiz-adv-x="1400" 
d="M1159 0h-405v264h-695v365l562 821h536v-836h197v-350h-195v-264zM750 1032l-273 -418h281v418h-8z" />
    <glyph glyph-name="five" unicode="5" horiz-adv-x="1400" 
d="M698 -41q-144 0 -272 49t-220.5 147t-121.5 228l408 109q15 -66 68.5 -111t125.5 -45q69 0 114.5 35t45.5 106q0 43 -24 74.5t-64.5 48t-85.5 24t-97 7.5q-154 0 -370 -49l45 868h956v-373h-575l-10 -141q68 10 118 10q114 0 211.5 -28t174 -83t120 -145t43.5 -205
q0 -112 -34.5 -203t-92 -150t-135 -99t-159 -57t-169.5 -17z" />
    <glyph glyph-name="six" unicode="6" horiz-adv-x="1400" 
d="M698 -41q-125 0 -235.5 35t-195 101.5t-134 170.5t-49.5 234q0 222 174 467l338 483h539l-357 -469v-2q21 6 47 6q95 0 183 -33.5t156.5 -93.5t109.5 -152.5t41 -201.5q0 -128 -49.5 -233t-134.5 -172t-196 -103.5t-237 -36.5zM698 326q79 0 127.5 49t48.5 125
q0 74 -48.5 123t-125.5 49q-76 0 -125 -49t-49 -123q0 -73 48.5 -123.5t123.5 -50.5z" />
    <glyph glyph-name="seven" unicode="7" horiz-adv-x="1400" 
d="M750 0h-517l564 1077h-643v373h1124v-324z" />
    <glyph glyph-name="eight" unicode="8" horiz-adv-x="1400" 
d="M700 -41q-91 0 -175 16t-159 51.5t-130.5 87.5t-88 129t-32.5 171q0 119 68 208t179 132v6q-96 36 -157.5 116.5t-61.5 190.5q0 106 46.5 189t125.5 133.5t177 76t208 25.5q86 0 165.5 -15.5t151 -49t124 -82t83.5 -119.5t31 -156q0 -113 -59.5 -193.5t-159.5 -113.5v-6
q110 -38 179 -128.5t69 -211.5q0 -94 -32.5 -171t-88 -129.5t-130.5 -88t-158.5 -52t-174.5 -16.5zM700 903q59 0 97.5 38.5t38.5 90.5q0 51 -38.5 88t-97.5 37q-61 0 -98 -36.5t-37 -88.5t37.5 -90.5t97.5 -38.5zM700 299q69 0 109.5 39.5t40.5 101.5q0 61 -41 102.5
t-109 41.5t-109.5 -41.5t-41.5 -102.5t41 -101t110 -40z" />
    <glyph glyph-name="nine" unicode="9" horiz-adv-x="1400" 
d="M803 0h-537l355 467v4q-21 -6 -48 -6q-94 0 -182 33.5t-156.5 93.5t-109.5 152.5t-41 201.5q0 128 49.5 233t134.5 172t195.5 103.5t236.5 36.5t236.5 -35t195.5 -101.5t134 -170.5t49 -234q0 -222 -174 -467zM698 782q76 0 125 49t49 123q0 73 -48.5 123.5t-123.5 50.5
q-78 0 -127 -50t-49 -126q0 -73 48.5 -121.5t125.5 -48.5z" />
    <glyph glyph-name="colon" unicode=":" horiz-adv-x="747" 
d="M377 606q-99 0 -169.5 67.5t-70.5 164.5q0 95 71 164t169 69q95 0 165 -68.5t70 -164.5t-70 -164t-165 -68zM377 -12q-99 0 -169.5 67t-70.5 164q0 95 71 164.5t169 69.5q95 0 165 -69t70 -165t-70 -163.5t-165 -67.5z" />
    <glyph glyph-name="semicolon" unicode=";" horiz-adv-x="747" 
d="M377 606q-98 0 -169 68t-71 164t70.5 164.5t169.5 68.5q95 0 165 -68.5t70 -164.5t-69.5 -164t-165.5 -68zM389 -248h-352l164 623h409z" />
    <glyph glyph-name="less" unicode="&#x3c;" horiz-adv-x="1363" 
d="M1204 387v-317l-1044 422v253l1044 424v-315l-581 -240z" />
    <glyph glyph-name="equal" unicode="=" horiz-adv-x="1363" 
d="M1241 676h-1118v282h1118v-282zM1241 291h-1118v280h1118v-280z" />
    <glyph glyph-name="greater" unicode="&#x3e;" horiz-adv-x="1363" 
d="M1204 492l-1044 -422v317l581 227l-581 240v315l1044 -424v-253z" />
    <glyph glyph-name="question" unicode="?" horiz-adv-x="1175" 
d="M809 500h-401v75q0 76 25.5 135t62 96.5t102.5 86.5l45 37q36 30 54 54t18 52q0 49 -29 74t-76 25q-70 0 -105.5 -48.5t-35.5 -121.5l-406 51q12 122 62 215.5t126.5 149t169 83t197.5 27.5q79 0 152.5 -14t143.5 -46t122 -80t83.5 -121t31.5 -163t-33 -161t-84.5 -119.5
t-138.5 -104.5q-50 -33 -68 -61.5t-18 -67.5v-53zM610 -29q-99 0 -168 67t-69 165q0 95 69 163t168 68q98 0 168 -68t70 -163q0 -98 -69.5 -165t-168.5 -67z" />
    <glyph glyph-name="at" unicode="@" horiz-adv-x="1638" 
d="M852 -37q-228 0 -410.5 96.5t-285.5 270t-103 393.5q0 160 63.5 302.5t170.5 243.5t253.5 159.5t307.5 58.5q151 0 285 -44.5t238 -127t165 -213t61 -291.5q0 -221 -117.5 -352t-316.5 -131q-82 0 -138 33t-73 92h-6q-26 -50 -88 -87.5t-145 -37.5q-137 0 -220 101
t-83 259q0 118 46 222t135.5 170.5t203.5 66.5q74 0 124.5 -33t63.5 -76h4l10 56h263l-48 -252q-32 -154 -32 -213q0 -66 51 -66t91 60.5t40 187.5q0 226 -139.5 347.5t-374.5 121.5q-239 0 -391 -157.5t-152 -397.5q0 -249 159.5 -398t414.5 -149q125 0 238.5 40t197.5 112
l145 -166q-232 -201 -608 -201zM786 565q64 0 102 67t38 146q0 137 -95 137q-56 0 -96.5 -68.5t-40.5 -152.5q0 -129 92 -129z" />
    <glyph glyph-name="A" unicode="A" horiz-adv-x="1560" 
d="M551 1450h465l575 -1450h-487l-86 236h-492l-84 -236h-473zM776 983l-139 -403h274z" />
    <glyph glyph-name="B" unicode="B" horiz-adv-x="1400" 
d="M772 0h-633v1450h590q78 0 147 -8.5t144.5 -33.5t129.5 -65.5t89 -110.5t35 -163q0 -114 -59 -192t-162 -115v-6q118 -25 199 -113.5t81 -218.5q0 -92 -31.5 -165.5t-84.5 -121t-126.5 -79t-152 -45t-166.5 -13.5zM559 1102v-215h148q68 0 106.5 29t38.5 85
q0 101 -158 101h-135zM559 590v-238h160q73 0 119.5 30t46.5 93q0 62 -51.5 88.5t-128.5 26.5h-146z" />
    <glyph glyph-name="C" unicode="C" horiz-adv-x="1425" 
d="M860 -41q-164 0 -309 56t-250 155.5t-166 243.5t-61 311q0 227 105.5 403t284 269.5t398.5 93.5q162 0 312 -55t247 -150l-280 -323q-85 116 -256 116q-142 0 -237 -98.5t-95 -255.5q0 -155 95 -252.5t235 -97.5q86 0 153.5 35t106.5 92l282 -320q-100 -105 -244.5 -164
t-320.5 -59z" />
    <glyph glyph-name="D" unicode="D" horiz-adv-x="1605" 
d="M709 0h-570v1450h537q98 0 187 -10.5t176 -35.5t160 -63t135.5 -95t105.5 -130t67.5 -171t24.5 -214q0 -149 -45.5 -271.5t-123 -206.5t-183.5 -142t-224 -84.5t-247 -26.5zM569 1071v-688h115q393 0 393 352q0 165 -105 250.5t-274 85.5h-129z" />
    <glyph glyph-name="E" unicode="E" horiz-adv-x="1236" 
d="M1165 0h-1026v1450h991v-373h-569v-170h535v-348h-535v-186h604v-373z" />
    <glyph glyph-name="F" unicode="F" horiz-adv-x="1185" 
d="M578 0h-439v1450h971v-375h-532v-196h477v-365h-477v-514z" />
    <glyph glyph-name="G" unicode="G" horiz-adv-x="1564" 
d="M874 -37q-229 0 -410.5 93.5t-285.5 268t-104 400.5q0 171 61.5 315.5t167.5 242.5t250 153t307 55q168 0 320.5 -55t246.5 -148l-266 -315q-101 123 -278 123q-142 0 -244 -105t-102 -266q0 -172 93 -274.5t273 -102.5q87 0 146 27v157h-246v353h645v-785
q-105 -62 -259 -99.5t-315 -37.5z" />
    <glyph glyph-name="H" unicode="H" horiz-adv-x="1617" 
d="M586 0h-447v1450h445v-510h448v510h447v-1450h-445v567h-448v-567z" />
    <glyph glyph-name="I" unicode="I" horiz-adv-x="727" 
d="M588 0h-449v1450h449v-1450z" />
    <glyph glyph-name="J" unicode="J" horiz-adv-x="1146" 
d="M496 -41q-189 0 -333 102t-186 258l383 144q11 -43 38.5 -70.5t68.5 -27.5q55 0 76.5 37t21.5 108v940h449v-926q0 -83 -12.5 -156.5t-47.5 -150.5t-90.5 -132t-150 -90.5t-217.5 -35.5z" />
    <glyph glyph-name="K" unicode="K" horiz-adv-x="1529" 
d="M575 0h-436v1450h434v-551h5l428 551h532l-569 -666l598 -784h-555l-432 604h-5v-604z" />
    <glyph glyph-name="L" unicode="L" horiz-adv-x="1110" 
d="M1094 0h-955v1450h449v-1067h506v-383z" />
    <glyph glyph-name="M" unicode="M" horiz-adv-x="2031" 
d="M557 0h-418v1450h594l283 -825h10l254 825h612v-1450h-434l12 879l-10 2l-303 -881h-313l-297 883h-8z" />
    <glyph glyph-name="N" unicode="N" horiz-adv-x="1619" 
d="M565 0h-426v1450h459l465 -799h8l-16 799h426v-1450h-467l-459 770h-6z" />
    <glyph glyph-name="O" unicode="O" horiz-adv-x="1748" 
d="M872 -41q-227 0 -408.5 96t-285.5 273.5t-104 404.5q0 171 60.5 314t167 240t253 150.5t317.5 53.5q229 0 411 -91.5t287 -265t105 -401.5q0 -227 -105 -404.5t-287.5 -273.5t-410.5 -96zM872 371q142 0 235 102t93 260q0 155 -92.5 252.5t-235.5 97.5t-234 -97.5
t-91 -252.5q0 -158 92 -260t233 -102z" />
    <glyph glyph-name="P" unicode="P" horiz-adv-x="1374" 
d="M584 0h-445v1450h596q94 0 176.5 -14.5t159 -49t131 -87.5t87 -136t32.5 -188q0 -102 -32.5 -185t-87.5 -137.5t-131.5 -91.5t-160.5 -53t-178 -16h-147v-492zM584 1100v-266h116q76 0 127.5 33.5t51.5 103.5q0 129 -177 129h-118z" />
    <glyph glyph-name="Q" unicode="Q" horiz-adv-x="1765" 
d="M1741 0h-893q-231 0 -404.5 84.5t-272.5 253t-99 403.5q0 218 104 390t285.5 266t408.5 94q226 0 406 -93t281.5 -261t101.5 -381q0 -127 -51.5 -240t-118.5 -170v-6l252 10v-350zM870 375q140 0 232 101.5t92 258.5q0 154 -91.5 251t-232.5 97t-232 -97t-91 -251
q0 -158 91 -259t232 -101z" />
    <glyph glyph-name="R" unicode="R" horiz-adv-x="1429" 
d="M571 0h-432v1450h602q90 0 170 -13.5t156 -46.5t131 -84.5t88 -132.5t33 -184q0 -136 -70 -238t-198 -153l370 -598h-514l-289 537h-47v-537zM569 1100v-264h117q195 0 195 137q0 127 -174 127h-138z" />
    <glyph glyph-name="S" unicode="S" horiz-adv-x="1247" 
d="M598 -39q-167 0 -324 58t-264 157l277 297q53 -62 138.5 -103.5t172.5 -41.5q60 0 98.5 22t38.5 72q0 51 -52 79t-218 83q-64 21 -114 43.5t-101 58.5t-84.5 79t-54.5 105t-21 136q0 101 35 183.5t93.5 137t136 92t160 54t169.5 16.5q140 0 282.5 -53.5t247.5 -149.5
l-278 -287q-45 57 -117 91t-135 34q-145 0 -145 -90q0 -41 36 -62.5t132 -51.5q45 -14 71 -23t71 -26.5t73.5 -31.5t67.5 -37t63.5 -45.5t52 -54.5t42.5 -66t25.5 -77.5t10.5 -91.5q0 -100 -33 -184.5t-89 -143t-131 -99.5t-159.5 -60t-173.5 -19z" />
    <glyph glyph-name="T" unicode="T" horiz-adv-x="1216" 
d="M831 0h-446v1073h-373v377h1192v-377h-373v-1073z" />
    <glyph glyph-name="U" unicode="U" horiz-adv-x="1564" 
d="M776 -41q-158 0 -283.5 45.5t-206 127t-123 191t-42.5 240.5v887h444v-842q0 -111 56 -178.5t161 -67.5t161 67.5t56 178.5v842h445v-887q0 -130 -44.5 -240.5t-127.5 -191.5t-210.5 -126.5t-285.5 -45.5z" />
    <glyph glyph-name="V" unicode="V" horiz-adv-x="1478" 
d="M975 0h-483l-525 1450h504l268 -938h9l262 938h499z" />
    <glyph glyph-name="W" unicode="W" horiz-adv-x="2172" 
d="M848 0h-449l-399 1450h473l178 -860h8l195 860h467l205 -860h8l180 860h459l-406 -1450h-448l-229 868h-9z" />
    <glyph glyph-name="X" unicode="X" horiz-adv-x="1576" 
d="M506 0h-529l517 760l-486 690h539l241 -401l234 401h522l-475 -686l530 -764h-544l-281 451z" />
    <glyph glyph-name="Y" unicode="Y" horiz-adv-x="1468" 
d="M745 991l246 459h525l-572 -850v-600h-444v600l-547 850h539z" />
    <glyph glyph-name="Z" unicode="Z" horiz-adv-x="1353" 
d="M1268 0h-1182v375l588 704h-565v371h1142v-330l-616 -739h633v-381z" />
    <glyph glyph-name="bracketleft" unicode="[" horiz-adv-x="724" 
d="M586 -319h-494v1818h494v-258h-178v-1302h178v-258z" />
    <glyph glyph-name="backslash" unicode="\" horiz-adv-x="907" 
d="M915 -25l-294 -92l-625 1592l295 92z" />
    <glyph glyph-name="bracketright" unicode="]" horiz-adv-x="724" 
d="M633 -319h-494v258h180v1302h-180v258h494v-1818z" />
    <glyph glyph-name="asciicircum" unicode="^" horiz-adv-x="1447" 
d="M502 702h-346l422 748h292l418 -748h-346l-221 400z" />
    <glyph glyph-name="underscore" unicode="_" horiz-adv-x="1024" 
d="M1024 -367h-1024v213h1024v-213z" />
    <glyph glyph-name="grave" unicode="`" horiz-adv-x="700" 
d="M555 1188h-319l-312 295h408z" />
    <glyph glyph-name="a" unicode="a" horiz-adv-x="1193" 
d="M432 -27q-53 0 -104 10.5t-100.5 36t-87 63.5t-60.5 96.5t-23 131.5q0 62 20 113t54.5 87.5t84 64.5t103.5 45t119 28t124.5 15t125.5 4h4v8q0 55 -37.5 82.5t-103.5 27.5q-63 0 -124.5 -26.5t-109.5 -67.5l-217 217q94 90 225.5 139.5t270.5 49.5q142 0 242 -39
t155.5 -114t80 -170.5t24.5 -223.5v-408v-143h-391v92h-5q-36 -58 -112 -88.5t-158 -30.5zM549 240q77 0 122.5 47t45.5 123v36h-31q-120 0 -188 -25.5t-68 -90.5q0 -45 37 -67.5t82 -22.5z" />
    <glyph glyph-name="b" unicode="b" horiz-adv-x="1398" 
d="M840 -29q-102 0 -193.5 40.5t-136.5 107.5h-4v-119h-389v1548h430v-581h4q46 55 124 87.5t165 32.5q114 0 208.5 -47t154.5 -125t93 -176t33 -204q0 -108 -32.5 -208.5t-92.5 -180t-154.5 -127.5t-209.5 -48zM729 326q92 0 144.5 60t52.5 149q0 83 -53 142.5t-144 59.5
q-89 0 -146 -61t-57 -144q0 -85 56.5 -145.5t146.5 -60.5z" />
    <glyph glyph-name="c" unicode="c" horiz-adv-x="1062" 
d="M682 -39q-268 0 -440 156t-172 413q0 168 81.5 298.5t220.5 200t312 69.5q109 0 218 -35t171 -88l-223 -305q-25 31 -68 49t-86 18q-81 0 -140.5 -57.5t-59.5 -149.5t58.5 -148t143.5 -56q96 0 156 63l221 -299q-67 -58 -173 -93.5t-220 -35.5z" />
    <glyph glyph-name="d" unicode="d" horiz-adv-x="1398" 
d="M559 -29q-115 0 -209.5 48t-154.5 127.5t-92.5 180t-32.5 208.5q0 106 33 204t93 176t154.5 125t208.5 47q87 0 165 -32.5t124 -87.5h4v581h430v-1548h-389v119h-4q-45 -67 -136.5 -107.5t-193.5 -40.5zM670 326q90 0 146 60.5t56 145.5q0 83 -56.5 144t-145.5 61
q-91 0 -144 -59.5t-53 -142.5q0 -89 52.5 -149t144.5 -60z" />
    <glyph glyph-name="e" unicode="e" horiz-adv-x="1269" 
d="M666 -39q-118 0 -224.5 37.5t-190 107t-132.5 179t-49 243.5q0 171 78.5 302t211 199.5t295.5 68.5q245 0 398 -161t153 -419q0 -44 -4 -94h-729q6 -62 66.5 -102.5t136.5 -40.5q123 0 190 86l305 -164q-73 -114 -204 -178t-301 -64zM469 666h358q0 65 -46 107t-124 42
q-79 0 -130 -45t-58 -104z" />
    <glyph glyph-name="f" unicode="f" horiz-adv-x="831" 
d="M614 0h-430v750h-184v311h184v45q0 83 14 153.5t48.5 135.5t88.5 110t139.5 72t195.5 27q118 0 198 -29l-28 -328q-48 19 -92 19q-134 0 -134 -164v-41h228v-311h-228v-750z" />
    <glyph glyph-name="g" unicode="g" horiz-adv-x="1402" 
d="M633 -492q-151 0 -302 41.5t-259 116.5l196 291q72 -59 159 -89t171 -30q118 0 191 61.5t73 166.5v53h-6q-43 -54 -122 -88.5t-173 -34.5q-119 0 -214 43.5t-154.5 118t-91 171t-31.5 206.5q0 107 32.5 205.5t92.5 177t154.5 125.5t209.5 47q92 0 176.5 -36.5
t134.5 -107.5h7v115h405v-955q0 -131 -35 -234.5t-94 -170.5t-143 -111.5t-177 -63t-200 -18.5zM670 328q90 0 146 61t56 148q0 84 -56 143t-146 59q-91 0 -144 -58.5t-53 -143.5q0 -89 53 -149t144 -60z" />
    <glyph glyph-name="h" unicode="h" horiz-adv-x="1333" 
d="M547 0h-430v1548h430v-610h6q39 64 117 106.5t176 42.5q85 0 152.5 -26t109.5 -68t69.5 -100.5t38.5 -118.5t11 -127v-647h-432v567q0 85 -27.5 126.5t-89.5 41.5q-57 0 -94 -45.5t-37 -124.5v-565z" />
    <glyph glyph-name="i" unicode="i" horiz-adv-x="667" 
d="M336 1153q-96 0 -164 65t-68 158q0 91 68.5 157t163.5 66q92 0 159.5 -66t67.5 -157q0 -94 -67 -158.5t-160 -64.5zM549 0h-430v1061h430v-1061z" />
    <glyph glyph-name="j" unicode="j" horiz-adv-x="679" 
d="M346 1153q-94 0 -161.5 65t-67.5 158q0 91 67.5 157t161.5 66q92 0 159.5 -66t67.5 -157q0 -94 -67 -158.5t-160 -64.5zM100 -492q-101 0 -182 23l25 352q34 -10 73 -10q59 0 86 36t27 109v1043h432v-1053q0 -85 -12.5 -155.5t-44.5 -136t-83 -110t-132.5 -71.5
t-188.5 -27z" />
    <glyph glyph-name="k" unicode="k" horiz-adv-x="1325" 
d="M547 0h-430v1548h430v-899h8l276 412h506l-362 -477l366 -584h-510l-276 477h-8v-477z" />
    <glyph glyph-name="l" unicode="l" horiz-adv-x="673" 
d="M557 0h-440v1548h440v-1548z" />
    <glyph glyph-name="m" unicode="m" horiz-adv-x="1966" 
d="M1479 1090q85 0 153 -28.5t109.5 -74t69.5 -105t38.5 -117t10.5 -116.5v-649h-430v569q0 89 -24.5 129.5t-82.5 40.5q-55 0 -87 -47.5t-32 -124.5v-567h-432v571q0 86 -24.5 127t-79.5 41q-53 0 -87 -44t-34 -128v-567h-432v817v244h420v-125h4q44 63 123.5 108.5
t181.5 45.5q222 0 307 -162q121 162 328 162z" />
    <glyph glyph-name="n" unicode="n" horiz-adv-x="1333" 
d="M547 0h-432v815v246h420v-125h4q40 66 123.5 110t183.5 44q85 0 152.5 -26t109.5 -68t69.5 -100.5t38.5 -119t11 -127.5v-649h-432v569q0 170 -119 170q-58 0 -93.5 -47.5t-35.5 -122.5v-569z" />
    <glyph glyph-name="o" unicode="o" horiz-adv-x="1339" 
d="M668 -39q-119 0 -227 39.5t-190.5 111.5t-131.5 182t-49 241q0 130 48.5 238t131.5 178t190.5 108.5t227.5 38.5q121 0 230 -38t192 -108.5t131.5 -178t48.5 -238.5q0 -105 -31.5 -197.5t-87.5 -160.5t-131.5 -117t-165 -74t-186.5 -25zM670 326q87 0 141.5 61.5
t54.5 147.5q0 81 -56 141.5t-142 60.5t-140.5 -60.5t-54.5 -141.5q0 -86 55 -147.5t142 -61.5z" />
    <glyph glyph-name="p" unicode="p" horiz-adv-x="1398" 
d="M543 -492h-428v1553h407v-113h4q56 66 139.5 104t174.5 38q113 0 207.5 -47t155 -125.5t93.5 -177t33 -205.5q0 -108 -32.5 -208.5t-92.5 -180t-154.5 -127.5t-209.5 -48q-86 0 -165 32.5t-128 88.5h-4v-584zM729 326q92 0 143.5 60t51.5 149q0 84 -52 144t-143 60
q-89 0 -146 -61t-57 -143q0 -86 56.5 -147.5t146.5 -61.5z" />
    <glyph glyph-name="q" unicode="q" horiz-adv-x="1398" 
d="M1282 -492h-428v584h-4q-49 -56 -128 -88.5t-163 -32.5q-116 0 -210.5 48t-154.5 127.5t-92 180t-32 208.5q0 107 33 205.5t93 177t154.5 125.5t208.5 47q89 0 172.5 -38t140.5 -104h5v113h405v-1553zM670 326q90 0 146 61.5t56 147.5q0 82 -56.5 143t-145.5 61
q-91 0 -144 -60t-53 -144q0 -89 52.5 -149t144.5 -60z" />
    <glyph glyph-name="r" unicode="r" horiz-adv-x="880" 
d="M547 0h-432v772v289h415v-129h5q37 71 107.5 114.5t160.5 43.5q54 0 84 -9l-31 -368q-36 10 -96 10q-98 0 -155.5 -60.5t-57.5 -138.5v-524z" />
    <glyph glyph-name="s" unicode="s" horiz-adv-x="1024" 
d="M500 -39q-136 0 -266.5 41t-221.5 115l219 245q49 -46 115.5 -75t130.5 -29q34 0 59 13.5t25 43.5q0 31 -38.5 49.5t-141.5 43.5q-57 13 -106 35t-95 58t-73 94t-27 130q0 96 43.5 170.5t113 117t146.5 64t154 21.5q123 0 241.5 -36.5t208.5 -103.5l-209 -241
q-106 76 -211 76q-94 0 -94 -58q0 -26 30 -39t128 -34q67 -14 123 -38t105.5 -61.5t77.5 -96t28 -132.5q0 -80 -29 -145.5t-76 -107t-109 -69.5t-124.5 -39.5t-126.5 -11.5z" />
    <glyph glyph-name="t" unicode="t" horiz-adv-x="831" 
d="M563 -27q-209 0 -308 94t-99 283v400h-154v311h152v250h419v-250h236v-311h-236v-320q0 -73 31 -105t96 -32q56 0 91 14l2 -299q-86 -35 -230 -35z" />
    <glyph glyph-name="u" unicode="u" horiz-adv-x="1327" 
d="M481 -29q-85 0 -152.5 26t-109.5 68t-69.5 100.5t-38.5 119t-11 127.5v649h435v-565q0 -86 27.5 -128t88.5 -42q58 0 93.5 47t35.5 123v565h432v-868v-193h-419v125h-5q-40 -65 -123.5 -109.5t-183.5 -44.5z" />
    <glyph glyph-name="v" unicode="v" horiz-adv-x="1261" 
d="M862 0h-467l-407 1061h477l172 -606h8l168 606h461z" />
    <glyph glyph-name="w" unicode="w" horiz-adv-x="1929" 
d="M786 0h-430l-362 1061h461l147 -586h8l152 586h420l161 -586h5l145 586h442l-366 -1061h-430l-176 580h-5z" />
    <glyph glyph-name="x" unicode="x" horiz-adv-x="1331" 
d="M475 0h-487l411 549l-381 512h492l168 -240l164 240h477l-381 -512l408 -549h-498l-182 266z" />
    <glyph glyph-name="y" unicode="y" horiz-adv-x="1261" 
d="M297 -492q-114 0 -242 29l54 359q69 -25 124 -25q73 0 112 30.5t61 90.5l16 41l-434 1028h479l180 -596h6l160 596h461l-447 -1153q-39 -100 -83 -170t-106 -124t-146.5 -80t-194.5 -26z" />
    <glyph glyph-name="z" unicode="z" horiz-adv-x="1112" 
d="M1042 0h-974v309l428 430h-414v322h946v-289l-455 -448h469v-324z" />
    <glyph glyph-name="braceleft" unicode="{" horiz-adv-x="724" 
d="M625 -319h-189q-145 0 -221 94t-76 241v293q0 83 -35 114.5t-100 31.5v270q65 0 100 30.5t35 112.5v295q0 147 76 241.5t221 94.5h189v-260h-78q-55 0 -79 -35.5t-24 -87.5v-297q0 -57 -18 -101.5t-46.5 -69.5t-57 -39t-56.5 -17v-4q28 -3 56 -16.5t57 -38.5t47 -70.5
t18 -104.5v-295q0 -52 24 -87t79 -35h78v-260z" />
    <glyph glyph-name="bar" unicode="|" horiz-adv-x="532" 
d="M430 -512h-326v2060h326v-2060z" />
    <glyph glyph-name="braceright" unicode="}" horiz-adv-x="724" 
d="M291 -319h-189v260h78q55 0 78 35t23 87v295q0 59 18 104.5t47 70.5t57 38.5t56 16.5v4q-28 3 -56.5 17t-57 39t-46.5 69.5t-18 101.5v297q0 52 -23 87.5t-78 35.5h-78v260h189q145 0 221 -94.5t76 -241.5v-295q0 -82 35 -112.5t100 -30.5v-270q-65 0 -100 -31.5
t-35 -114.5v-293q0 -147 -76 -241t-221 -94z" />
    <glyph glyph-name="asciitilde" unicode="~" horiz-adv-x="1363" 
d="M922 365q-65 0 -120 17.5t-122 59.5q-70 44 -113 58t-88 14q-51 0 -106 -36t-88 -101l-148 258q62 107 152.5 159t183.5 52q71 0 119.5 -15.5t126.5 -60.5q79 -46 117 -61t79 -15q48 0 92.5 38.5t79.5 101.5l148 -256q-130 -213 -313 -213z" />
    <glyph glyph-name="uni00A0" unicode="&#xa0;" horiz-adv-x="512" 
 />
    <glyph glyph-name="exclamdown" unicode="&#xa1;" horiz-adv-x="860" 
d="M430 639q-98 0 -167.5 68t-69.5 163q0 96 69 163t168 67t168.5 -67t69.5 -165q0 -94 -70 -161.5t-168 -67.5zM653 -379h-446v932h446v-932z" />
    <glyph glyph-name="cent" unicode="&#xa2;" horiz-adv-x="1402" 
d="M891 -150h-205v125q-224 32 -356.5 181t-132.5 372q0 225 133.5 374t355.5 183v132h205v-125q200 -18 311 -113l-221 -309q-27 31 -70.5 49t-87.5 18q-81 0 -141.5 -55t-60.5 -150t59.5 -149.5t144.5 -54.5q102 0 158 65l223 -301q-117 -103 -315 -121v-121z" />
    <glyph glyph-name="sterling" unicode="&#xa3;" horiz-adv-x="1400" 
d="M1296 0h-1136v362h188v224h-188v303h188v78q0 95 35 186t101.5 167.5t178 123.5t250.5 47q149 0 264 -43.5t191 -116.5l-250 -284q-28 31 -71.5 49t-88.5 18q-98 0 -139 -51.5t-41 -128.5v-45h303v-303h-303v-224h518v-362z" />
    <glyph glyph-name="currency" unicode="&#xa4;" horiz-adv-x="2017" 
d="M719 129l-203 -203l-205 207l195 195q-78 131 -78 305q0 163 74 295l-191 190l207 205l195 -195q139 74 299 74q162 0 297 -69l190 190l207 -205l-184 -184q77 -129 77 -301q0 -180 -81 -311l188 -189l-205 -207l-198 199q-131 -70 -291 -70q-148 0 -293 74zM1012 403
q94 0 155.5 66.5t61.5 163.5q0 91 -62.5 158t-154.5 67q-93 0 -154 -66.5t-61 -158.5q0 -97 60.5 -163.5t154.5 -66.5z" />
    <glyph glyph-name="yen" unicode="&#xa5;" horiz-adv-x="1400" 
d="M907 0h-407v276h-369v265h369v106h-369v264h221l-338 539h475l224 -471l219 471h463l-334 -539h219v-264h-373v-106h373v-265h-373v-276z" />
    <glyph glyph-name="brokenbar" unicode="&#xa6;" horiz-adv-x="532" 
d="M430 639h-326v805h326v-805zM430 -403h-326v804h326v-804z" />
    <glyph glyph-name="section" unicode="&#xa7;" horiz-adv-x="1304" 
d="M612 -311q-170 0 -328 70t-245 194l299 240q52 -80 133.5 -118t157.5 -38q39 0 69.5 16t30.5 45q0 40 -41 63.5t-170 63.5l-29 8q-81 24 -138 47t-108.5 54.5t-82 68.5t-48.5 87t-18 112q0 173 156 268q-92 77 -92 228q0 81 33 148.5t86 111.5t122 74.5t137.5 43.5
t135.5 13q183 0 320 -65t208 -185l-307 -211q-33 53 -89 85t-108 32q-43 0 -73.5 -16.5t-30.5 -47.5q0 -33 40 -55.5t156 -58.5l33 -11q96 -30 163 -63t120.5 -78.5t79.5 -106.5t26 -139q0 -79 -36 -143.5t-103 -103.5q48 -32 72 -90t24 -126q0 -91 -35 -164.5t-90.5 -119.5
t-130 -77t-148.5 -43.5t-151 -12.5zM625 530l174 -63q37 18 37 70q0 40 -39 68t-115 57l-170 63q-21 -9 -35 -29.5t-14 -44.5q0 -29 22.5 -51.5t46 -33t77.5 -30.5q11 -4 16 -6z" />
    <glyph glyph-name="dieresis" unicode="&#xa8;" horiz-adv-x="700" 
d="M109 1186q-82 0 -139.5 55.5t-57.5 134.5q0 78 58 134.5t139 56.5q77 0 134.5 -56.5t57.5 -134.5q0 -79 -57.5 -134.5t-134.5 -55.5zM600 1186q-82 0 -139.5 55.5t-57.5 134.5q0 78 58 134.5t139 56.5q77 0 135 -57t58 -134q0 -79 -58 -134.5t-135 -55.5z" />
    <glyph glyph-name="copyright" unicode="&#xa9;" horiz-adv-x="1638" 
d="M821 -45q-159 0 -303 60.5t-248.5 162.5t-166.5 244.5t-62 300.5t62 301.5t166.5 246.5t248.5 163.5t303 60.5q158 0 301.5 -60.5t247.5 -163.5t165.5 -246.5t61.5 -301.5t-61.5 -300.5t-165.5 -244.5t-247.5 -162.5t-301.5 -60.5zM815 70q177 0 329 87.5t241.5 238
t89.5 327.5q0 178 -88 329.5t-238.5 239.5t-327.5 88q-133 0 -255 -52t-210 -140t-140 -210t-52 -255t51 -253.5t138 -208t208 -139.5t254 -52zM860 238q-103 0 -193.5 33t-159 93.5t-108 153t-39.5 205.5q0 143 68.5 254t181.5 169t250 58q106 0 201 -40.5t153 -112.5
l-188 -156q-56 74 -172 74q-96 0 -153.5 -73t-57.5 -171q0 -100 59.5 -174t163.5 -74q109 0 170 70l176 -174q-63 -63 -155.5 -99t-196.5 -36z" />
    <glyph glyph-name="ordfeminine" unicode="&#xaa;" horiz-adv-x="794" 
d="M305 868q-54 0 -102 17t-83.5 60.5t-35.5 107.5q0 196 371 196h4v4q0 28 -22 43t-60 15q-73 0 -135 -51l-133 120q56 49 134 76t158 27q86 0 147 -22t93.5 -62.5t46.5 -89.5t14 -111v-229v-86h-235v49h-2q-20 -32 -65 -48t-95 -16zM379 1018q42 0 68 24.5t26 61.5v20h-20
q-142 0 -142 -61q0 -21 21.5 -33t46.5 -12z" />
    <glyph glyph-name="guillemotleft" unicode="&#xab;" horiz-adv-x="1165" 
d="M635 209l-244 -158l-352 498l352 498l244 -158l-236 -340zM1104 209l-244 -158l-352 498l352 498l244 -158l-236 -340z" />
    <glyph glyph-name="logicalnot" unicode="&#xac;" horiz-adv-x="1363" 
d="M1239 295h-305v356h-850v283h1155v-639z" />
    <glyph glyph-name="uni00AD" unicode="&#xad;" horiz-adv-x="681" 
d="M616 406h-550v327h550v-327z" />
    <glyph glyph-name="registered" unicode="&#xae;" horiz-adv-x="1228" 
d="M616 547q-127 0 -235 61t-171 167t-63 233q0 193 137.5 329t331.5 136q192 0 328.5 -136t136.5 -329q0 -127 -62.5 -233t-169.5 -167t-233 -61zM616 614q162 0 277 116t115 278q0 163 -114.5 278t-277.5 115q-164 0 -279.5 -115t-115.5 -278q0 -162 115.5 -278
t279.5 -116zM571 748h-180v544h234q47 0 88.5 -8.5t78.5 -27.5t58.5 -55t21.5 -85q0 -112 -98 -151l125 -217h-205l-90 192h-33v-192zM571 1151v-84h54q25 0 41 13.5t16 33.5q0 17 -17 27t-40 10h-54z" />
    <glyph glyph-name="macron" unicode="&#xaf;" horiz-adv-x="700" 
d="M711 1245h-721v191h721v-191z" />
    <glyph glyph-name="degree" unicode="&#xb0;" horiz-adv-x="886" 
d="M442 778q-154 0 -256 102.5t-102 256.5t102 257t256 103q155 0 258 -103t103 -257t-103 -256.5t-258 -102.5zM442 944q81 0 138 56.5t57 136.5t-56.5 136t-138.5 56q-80 0 -136 -56.5t-56 -135.5q0 -80 56.5 -136.5t135.5 -56.5z" />
    <glyph glyph-name="plusminus" unicode="&#xb1;" horiz-adv-x="1363" 
d="M844 426h-316v254h-446v297h446v254h316v-254h444v-297h-444v-254zM1288 61h-1206v297h1206v-297z" />
    <glyph glyph-name="two.sups" unicode="&#xb2;" horiz-adv-x="903" 
d="M823 903h-712v223l364 308q45 38 45 82q0 30 -19 48.5t-55 18.5q-40 0 -66.5 -31t-29.5 -82l-272 31q11 108 69.5 185t140.5 112t179 35q69 0 130.5 -16.5t113 -50t82 -91.5t30.5 -133q0 -51 -13.5 -94t-41 -78t-52.5 -58.5t-65 -54.5l-147 -112h319v-242z" />
    <glyph glyph-name="three.sups" unicode="&#xb3;" horiz-adv-x="903" 
d="M471 881q-92 0 -170 27t-139 89.5t-84 155.5l258 64q10 -40 40.5 -68.5t74.5 -28.5q39 0 65.5 17.5t26.5 54.5q0 43 -36 59.5t-101 16.5h-80v198h88q56 0 84 17t28 57q0 28 -20 46t-57 18q-32 0 -60 -24.5t-35 -63.5l-256 59q19 67 58.5 118t91.5 81t109 44.5t118 14.5
q63 0 120.5 -15t107 -44t79 -79.5t29.5 -115.5q0 -141 -119 -199v-2q66 -23 101.5 -77.5t35.5 -124.5q0 -75 -31.5 -133.5t-83.5 -93t-114 -51.5t-129 -17z" />
    <glyph glyph-name="acute" unicode="&#xb4;" horiz-adv-x="700" 
d="M467 1188h-320l224 295h407z" />
    <glyph glyph-name="uni00B5" unicode="&#xb5;" horiz-adv-x="1484" 
d="M1419 311l2 -305q-79 -33 -211 -33q-204 0 -266 152h-2q-29 -58 -87 -106t-142 -48q-88 0 -131 43h-4v-477h-443v1524h443v-561q0 -81 24.5 -126.5t89.5 -45.5q68 0 100.5 52.5t32.5 121.5v559h441v-658q0 -59 22 -80.5t70 -21.5q16 0 61 10z" />
    <glyph glyph-name="paragraph" unicode="&#xb6;" horiz-adv-x="1304" 
d="M762 -270h-291v950q-204 8 -321 107t-117 270q0 92 28.5 162t75.5 113.5t116 70.5t141.5 37t160.5 10h627v-1720h-293v1456h-127v-1456z" />
    <glyph glyph-name="periodcentered" unicode="&#xb7;" horiz-adv-x="700" 
d="M354 348q-105 0 -180.5 71t-75.5 173q0 101 76 174.5t180 73.5q100 0 173 -72.5t73 -173.5q0 -103 -72.5 -174.5t-173.5 -71.5z" />
    <glyph glyph-name="cedilla" unicode="&#xb8;" horiz-adv-x="700" 
d="M311 -492q-66 0 -139.5 13.5t-124.5 36.5l66 147q82 -35 172 -35q37 0 63.5 12t26.5 39q0 43 -84 43q-45 0 -82 -12l-82 68l147 180h220l-101 -113q12 2 35 2q39 0 73 -8t66 -26.5t51 -54t19 -85.5q0 -58 -31.5 -101t-82.5 -64.5t-104 -31.5t-108 -10z" />
    <glyph glyph-name="one.sups" unicode="&#xb9;" horiz-adv-x="903" 
d="M682 903h-287v600l-153 -110l-140 209l318 208h262v-907z" />
    <glyph glyph-name="ordmasculine" unicode="&#xba;" horiz-adv-x="794" 
d="M397 866q-136 0 -229.5 85.5t-93.5 228.5q0 140 93.5 222.5t229.5 82.5q138 0 233 -82.5t95 -222.5q0 -143 -95.5 -228.5t-232.5 -85.5zM399 1071q45 0 74 32t29 77q0 41 -30.5 72.5t-74.5 31.5t-72 -31t-28 -73q0 -46 28 -77.5t74 -31.5z" />
    <glyph glyph-name="guillemotright" unicode="&#xbb;" horiz-adv-x="1165" 
d="M657 549l-350 -498l-246 158l236 340l-236 340l246 158zM1126 549l-350 -498l-246 158l236 340l-236 340l246 158z" />
    <glyph glyph-name="onequarter" unicode="&#xbc;" horiz-adv-x="2011" 
d="M549 23l735 1490l197 -90l-736 -1480zM682 543h-289v602l-151 -111l-140 207l316 209h264v-907zM1806 0h-260v164h-432v231l350 512h342v-518h121v-225h-121v-164zM1544 635l-160 -246h164v246h-4z" />
    <glyph glyph-name="onehalf" unicode="&#xbd;" horiz-adv-x="2011" 
d="M1284 1513l197 -90l-736 -1480l-196 80zM682 543h-289v602l-151 -111l-140 207l316 209h264v-907zM1948 0h-715v223l364 307q45 42 45 82q0 31 -18 49.5t-55 18.5q-39 0 -65.5 -30.5t-30.5 -82.5l-271 31q10 108 67.5 185t140 112t179.5 35q69 0 130.5 -16.5t113.5 -50
t82.5 -91.5t30.5 -133q0 -51 -13 -94t-40 -77.5t-52.5 -58.5t-64.5 -53l-150 -114h322v-242z" />
    <glyph glyph-name="threequarters" unicode="&#xbe;" horiz-adv-x="2011" 
d="M745 -57l-196 82l735 1488l197 -88zM471 526q-92 0 -170 26.5t-139 89t-84 155.5l258 65q10 -41 40 -69.5t75 -28.5q39 0 65.5 17.5t26.5 54.5q0 44 -35.5 59.5t-101.5 15.5h-80v201h88q112 0 112 72q0 28 -20 45.5t-57 17.5q-32 0 -60 -24t-35 -64l-256 62
q25 89 87 148.5t134.5 83.5t155.5 24q50 0 96.5 -8.5t90.5 -28.5t77 -49t52.5 -72t19.5 -96q0 -138 -119 -199v-2q66 -23 101.5 -77.5t35.5 -125.5q0 -75 -31.5 -133.5t-83.5 -92t-114 -50.5t-129 -17zM1802 0h-260v164h-430v231l350 512h340v-518h123v-225h-123v-164z
M1542 635l-162 -246h166v246h-4z" />
    <glyph glyph-name="questiondown" unicode="&#xbf;" horiz-adv-x="1175" 
d="M559 639q-98 0 -167.5 67.5t-69.5 161.5q0 98 69 165t168 67q100 0 169 -66.5t69 -163.5q0 -96 -69.5 -163.5t-168.5 -67.5zM551 -418q-78 0 -151.5 14t-144 46t-122.5 80t-83.5 121t-31.5 163q0 89 33 159.5t85.5 119t139.5 104.5q48 33 66 62t18 67v53h402v-75
q0 -75 -25.5 -134t-62 -97t-101.5 -87l-47 -35q-36 -29 -53.5 -53.5t-17.5 -54.5q0 -48 29 -73t77 -25q68 0 103.5 49t35.5 120l406 -51q-12 -122 -62 -215t-126.5 -148t-169 -82.5t-197.5 -27.5z" />
    <glyph glyph-name="Agrave" unicode="&#xc0;" horiz-adv-x="1560" 
d="M764 1860l223 -295h-319l-310 295h406zM551 1450h465l575 -1450h-487l-86 236h-492l-84 -236h-473zM776 983l-139 -403h274z" />
    <glyph glyph-name="Aacute" unicode="&#xc1;" horiz-adv-x="1560" 
d="M803 1860h405l-309 -295h-319zM551 1450h465l575 -1450h-487l-86 236h-492l-84 -236h-473zM776 983l-139 -403h274z" />
    <glyph glyph-name="Acircumflex" unicode="&#xc2;" horiz-adv-x="1560" 
d="M920 1565l-138 147l-137 -147h-297l273 295h333l267 -295h-301zM551 1450h465l575 -1450h-487l-86 236h-492l-84 -236h-473zM776 983l-139 -403h274z" />
    <glyph glyph-name="Atilde" unicode="&#xc3;" horiz-adv-x="1560" 
d="M639 1653q-32 0 -52 -21.5t-26 -54.5h-160q10 120 69.5 197t162.5 77q74 0 170 -47q85 -43 133 -43q61 0 76 82h157q-8 -123 -69 -201.5t-164 -78.5q-82 0 -168 47q-79 43 -129 43zM551 1450h465l575 -1450h-487l-86 236h-492l-84 -236h-473zM776 983l-139 -403h274z" />
    <glyph glyph-name="Adieresis" unicode="&#xc4;" horiz-adv-x="1560" 
d="M541 1561q-82 0 -139.5 56t-57.5 136q0 77 58 134t139 57q78 0 135 -56.5t57 -134.5q0 -81 -56.5 -136.5t-135.5 -55.5zM1032 1561q-80 0 -138 56.5t-58 135.5q0 77 58.5 134t137.5 57q78 0 135.5 -56.5t57.5 -134.5q0 -81 -57 -136.5t-136 -55.5zM551 1450h465
l575 -1450h-487l-86 236h-492l-84 -236h-473zM776 983l-139 -403h274z" />
    <glyph glyph-name="Aring" unicode="&#xc5;" horiz-adv-x="1560" 
d="M782 1526q-95 0 -163 65.5t-68 161.5q0 97 68 164.5t163 67.5q96 0 164 -67t68 -163q0 -97 -68 -163t-164 -66zM782 1874q-51 0 -85.5 -35t-34.5 -86q0 -50 34.5 -84.5t85.5 -34.5t87 35t36 86t-36 85t-87 34zM551 1450h465l575 -1450h-487l-86 236h-492l-84 -236h-473z
M776 983l-139 -403h274z" />
    <glyph glyph-name="AE" unicode="&#xc6;" horiz-adv-x="2088" 
d="M500 0h-502l762 1450h1220v-373h-544v-170h512v-348h-512v-186h581v-373h-995v244h-397zM1010 1077l-242 -487h254v487h-12z" />
    <glyph glyph-name="Ccedilla" unicode="&#xc7;" horiz-adv-x="1425" 
d="M793 -492q-65 0 -138.5 13.5t-124.5 36.5l66 147q82 -35 172 -35q88 0 88 51q0 43 -82 43q-44 0 -82 -12l-82 68l121 149q-141 19 -261.5 82t-208.5 160t-137.5 229.5t-49.5 284.5q0 227 105.5 403t284 269.5t398.5 93.5q162 0 312 -55t247 -150l-280 -323
q-85 116 -256 116q-142 0 -237 -98.5t-95 -255.5q0 -155 95 -252.5t235 -97.5q86 0 153.5 35t106.5 92l282 -320q-87 -92 -210 -148.5t-273 -68.5l-68 -78q12 2 35 2q39 0 73 -8t66 -26.5t51 -54t19 -85.5q0 -58 -31 -101t-82 -64.5t-103.5 -31.5t-108.5 -10z" />
    <glyph glyph-name="Egrave" unicode="&#xc8;" horiz-adv-x="1236" 
d="M868 1565h-319l-309 295h405zM1165 0h-1026v1450h991v-373h-569v-170h535v-348h-535v-186h604v-373z" />
    <glyph glyph-name="Eacute" unicode="&#xc9;" horiz-adv-x="1236" 
d="M737 1565h-317l221 295h408zM1165 0h-1026v1450h991v-373h-569v-170h535v-348h-535v-186h604v-373z" />
    <glyph glyph-name="Ecircumflex" unicode="&#xca;" horiz-adv-x="1236" 
d="M502 1565h-297l272 295h334l266 -295h-301l-137 147zM1165 0h-1026v1450h991v-373h-569v-170h535v-348h-535v-186h604v-373z" />
    <glyph glyph-name="Edieresis" unicode="&#xcb;" horiz-adv-x="1236" 
d="M397 1561q-82 0 -139 56t-57 136q0 77 57.5 134t138.5 57q77 0 135 -57t58 -134q0 -80 -57.5 -136t-135.5 -56zM887 1561q-80 0 -137.5 56.5t-57.5 135.5q0 77 58 134t137 57q78 0 136 -56.5t58 -134.5q0 -81 -57.5 -136.5t-136.5 -55.5zM1165 0h-1026v1450h991v-373
h-569v-170h535v-348h-535v-186h604v-373z" />
    <glyph glyph-name="Igrave" unicode="&#xcc;" horiz-adv-x="727" 
d="M588 1565h-320l-309 295h406zM588 0h-449v1450h449v-1450z" />
    <glyph glyph-name="Iacute" unicode="&#xcd;" horiz-adv-x="727" 
d="M459 1565h-320l223 295h408zM588 0h-449v1450h449v-1450z" />
    <glyph glyph-name="Icircumflex" unicode="&#xce;" horiz-adv-x="727" 
d="M227 1565h-297l273 295h332l268 -295h-301l-137 147zM588 0h-449v1450h449v-1450z" />
    <glyph glyph-name="Idieresis" unicode="&#xcf;" horiz-adv-x="727" 
d="M123 1561q-80 0 -137.5 56.5t-57.5 135.5q0 77 58 134t137 57q78 0 136 -56.5t58 -134.5q0 -81 -57.5 -136.5t-136.5 -55.5zM614 1561q-80 0 -137 56.5t-57 135.5q0 77 57.5 134t136.5 57q78 0 136.5 -56.5t58.5 -134.5q0 -81 -58 -136.5t-137 -55.5zM588 0h-449v1450
h449v-1450z" />
    <glyph glyph-name="Eth" unicode="&#xd0;" horiz-adv-x="1605" 
d="M715 0h-576v600h-114v268h114v582h547q138 0 258 -22t229.5 -74.5t187 -133.5t123.5 -205.5t46 -283.5q0 -147 -45 -269.5t-122.5 -207t-182 -142.5t-221.5 -85t-244 -27zM569 600v-217h111q397 0 397 352q0 160 -101.5 247t-273.5 87h-133v-201h297v-268h-297z" />
    <glyph glyph-name="Ntilde" unicode="&#xd1;" horiz-adv-x="1619" 
d="M594 1577h-160q10 120 69.5 197t162.5 77q74 0 170 -47q85 -43 133 -43q34 0 51 20t27 62h155q-8 -123 -68.5 -201.5t-164.5 -78.5q-82 0 -168 47q-47 25 -73 34t-56 9q-32 0 -52 -21.5t-26 -54.5zM565 0h-426v1450h459l465 -799h8l-16 799h426v-1450h-467l-459 770h-6z
" />
    <glyph glyph-name="Ograve" unicode="&#xd2;" horiz-adv-x="1748" 
d="M1096 1565h-320l-309 295h405zM872 -41q-227 0 -408.5 96t-285.5 273.5t-104 404.5q0 171 60.5 314t167 240t253 150.5t317.5 53.5q229 0 411 -91.5t287 -265t105 -401.5q0 -227 -105 -404.5t-287.5 -273.5t-410.5 -96zM872 371q142 0 235 102t93 260q0 155 -92.5 252.5
t-235.5 97.5t-234 -97.5t-91 -252.5q0 -158 92 -260t233 -102z" />
    <glyph glyph-name="Oacute" unicode="&#xd3;" horiz-adv-x="1748" 
d="M983 1565h-319l223 295h405zM872 -41q-227 0 -408.5 96t-285.5 273.5t-104 404.5q0 171 60.5 314t167 240t253 150.5t317.5 53.5q229 0 411 -91.5t287 -265t105 -401.5q0 -227 -105 -404.5t-287.5 -273.5t-410.5 -96zM872 371q142 0 235 102t93 260q0 155 -92.5 252.5
t-235.5 97.5t-234 -97.5t-91 -252.5q0 -158 92 -260t233 -102z" />
    <glyph glyph-name="Ocircumflex" unicode="&#xd4;" horiz-adv-x="1748" 
d="M733 1565h-295l273 295h331l269 -295h-301l-138 147zM872 -41q-227 0 -408.5 96t-285.5 273.5t-104 404.5q0 171 60.5 314t167 240t253 150.5t317.5 53.5q229 0 411 -91.5t287 -265t105 -401.5q0 -227 -105 -404.5t-287.5 -273.5t-410.5 -96zM872 371q142 0 235 102
t93 260q0 155 -92.5 252.5t-235.5 97.5t-234 -97.5t-91 -252.5q0 -158 92 -260t233 -102z" />
    <glyph glyph-name="Otilde" unicode="&#xd5;" horiz-adv-x="1748" 
d="M651 1577h-159q10 121 69 197.5t162 76.5q74 0 170 -47q85 -43 133 -43q34 0 51 20t27 62h156q-8 -123 -69 -201.5t-165 -78.5q-82 0 -168 47q-47 25 -73 34t-56 9q-32 0 -52 -21.5t-26 -54.5zM872 -41q-227 0 -408.5 96t-285.5 273.5t-104 404.5q0 171 60.5 314t167 240
t253 150.5t317.5 53.5q229 0 411 -91.5t287 -265t105 -401.5q0 -227 -105 -404.5t-287.5 -273.5t-410.5 -96zM872 371q142 0 235 102t93 260q0 155 -92.5 252.5t-235.5 97.5t-234 -97.5t-91 -252.5q0 -158 92 -260t233 -102z" />
    <glyph glyph-name="Odieresis" unicode="&#xd6;" horiz-adv-x="1748" 
d="M631 1561q-82 0 -139.5 56t-57.5 136q0 77 58 134t139 57q78 0 135 -56.5t57 -134.5q0 -81 -56.5 -136.5t-135.5 -55.5zM1122 1561q-80 0 -138 56.5t-58 135.5q0 77 58.5 134t137.5 57q78 0 135.5 -56.5t57.5 -134.5q0 -81 -57 -136.5t-136 -55.5zM872 -41
q-227 0 -408.5 96t-285.5 273.5t-104 404.5q0 171 60.5 314t167 240t253 150.5t317.5 53.5q229 0 411 -91.5t287 -265t105 -401.5q0 -227 -105 -404.5t-287.5 -273.5t-410.5 -96zM872 371q142 0 235 102t93 260q0 155 -92.5 252.5t-235.5 97.5t-234 -97.5t-91 -252.5
q0 -158 92 -260t233 -102z" />
    <glyph glyph-name="multiply" unicode="&#xd7;" horiz-adv-x="1363" 
d="M684 408l-354 -345l-217 207l350 348l-354 338l223 215l354 -340l344 338l217 -202l-346 -342l356 -342l-219 -220z" />
    <glyph glyph-name="Oslash" unicode="&#xd8;" horiz-adv-x="1748" 
d="M424 88l-186 -203l-177 150l187 203q-174 196 -174 493q0 228 104.5 401.5t285.5 265t410 91.5q247 0 437 -111l182 205l176 -151l-180 -195q186 -201 186 -506q0 -226 -105.5 -402.5t-288 -272t-409.5 -95.5q-277 0 -448 127zM555 563l469 510q-60 31 -152 31
q-163 0 -255.5 -109t-92.5 -268q0 -100 31 -164zM870 354q109 0 189.5 52t120 136.5t39.5 188.5q0 106 -37 170l-469 -512q62 -35 157 -35z" />
    <glyph glyph-name="Ugrave" unicode="&#xd9;" horiz-adv-x="1564" 
d="M1004 1565h-320l-309 295h405zM776 -41q-158 0 -283.5 45.5t-206 127t-123 191t-42.5 240.5v887h444v-842q0 -111 56 -178.5t161 -67.5t161 67.5t56 178.5v842h445v-887q0 -130 -44.5 -240.5t-127.5 -191.5t-210.5 -126.5t-285.5 -45.5z" />
    <glyph glyph-name="Uacute" unicode="&#xda;" horiz-adv-x="1564" 
d="M889 1565h-320l224 295h405zM776 -41q-158 0 -283.5 45.5t-206 127t-123 191t-42.5 240.5v887h444v-842q0 -111 56 -178.5t161 -67.5t161 67.5t56 178.5v842h445v-887q0 -130 -44.5 -240.5t-127.5 -191.5t-210.5 -126.5t-285.5 -45.5z" />
    <glyph glyph-name="Ucircumflex" unicode="&#xdb;" horiz-adv-x="1564" 
d="M645 1565h-297l273 295h333l267 -295h-299l-140 147zM776 -41q-158 0 -283.5 45.5t-206 127t-123 191t-42.5 240.5v887h444v-842q0 -111 56 -178.5t161 -67.5t161 67.5t56 178.5v842h445v-887q0 -130 -44.5 -240.5t-127.5 -191.5t-210.5 -126.5t-285.5 -45.5z" />
    <glyph glyph-name="Udieresis" unicode="&#xdc;" horiz-adv-x="1564" 
d="M541 1561q-80 0 -137.5 56.5t-57.5 135.5q0 77 58 134t137 57q78 0 136 -56.5t58 -134.5q0 -81 -57.5 -136.5t-136.5 -55.5zM1032 1561q-80 0 -137 56.5t-57 135.5q0 77 57.5 134t136.5 57q78 0 136.5 -56.5t58.5 -134.5q0 -81 -58 -136.5t-137 -55.5zM776 -41
q-158 0 -283.5 45.5t-206 127t-123 191t-42.5 240.5v887h444v-842q0 -111 56 -178.5t161 -67.5t161 67.5t56 178.5v842h445v-887q0 -130 -44.5 -240.5t-127.5 -191.5t-210.5 -126.5t-285.5 -45.5z" />
    <glyph glyph-name="Yacute" unicode="&#xdd;" horiz-adv-x="1468" 
d="M801 1860h407l-311 -295h-319zM745 989l246 461h525l-572 -850v-600h-444v600l-547 850h539z" />
    <glyph glyph-name="Thorn" unicode="&#xde;" horiz-adv-x="1374" 
d="M584 0h-445v1450h445v-219h151q94 0 176.5 -14.5t159 -49t131 -87.5t87 -136t32.5 -188q0 -127 -49 -223t-133.5 -151.5t-187 -82.5t-220.5 -27h-147v-272zM584 883v-269h116q75 0 127 34t52 104q0 131 -177 131h-118z" />
    <glyph glyph-name="germandbls" unicode="&#xdf;" horiz-adv-x="1452" 
d="M836 -31q-97 0 -215 27v330q67 -23 127 -23q90 0 144 42.5t54 131.5q0 96 -63.5 141.5t-169.5 45.5h-62v321h62q60 0 104.5 32t44.5 101q0 55 -38.5 89t-100.5 34q-90 0 -133 -61.5t-43 -155.5v-1024h-432v1014q0 261 159.5 410t466.5 149q87 0 168 -16t151.5 -50
t123 -82.5t82.5 -117.5t30 -152q0 -116 -57 -196t-145 -113v-2q130 -32 208 -132t78 -255q0 -236 -148.5 -362t-395.5 -126z" />
    <glyph glyph-name="agrave" unicode="&#xe0;" horiz-adv-x="1193" 
d="M821 1188h-317l-311 295h407zM432 -27q-53 0 -104 10.5t-100.5 36t-87 63.5t-60.5 96.5t-23 131.5q0 62 20 113t54.5 87.5t84 64.5t103.5 45t119 28t124.5 15t125.5 4h4v8q0 55 -37.5 82.5t-103.5 27.5q-63 0 -124.5 -26.5t-109.5 -67.5l-217 217q94 90 225.5 139.5
t270.5 49.5q142 0 242 -39t155.5 -114t80 -170.5t24.5 -223.5v-408v-143h-391v92h-5q-38 -58 -113.5 -88.5t-156.5 -30.5zM549 240q77 0 122.5 46.5t45.5 123.5v36h-31q-120 0 -188 -25.5t-68 -90.5q0 -45 37 -67.5t82 -22.5z" />
    <glyph glyph-name="aacute" unicode="&#xe1;" horiz-adv-x="1193" 
d="M709 1188h-320l223 295h408zM432 -27q-53 0 -104 10.5t-100.5 36t-87 63.5t-60.5 96.5t-23 131.5q0 62 20 113t54.5 87.5t84 64.5t103.5 45t119 28t124.5 15t125.5 4h4v8q0 55 -37.5 82.5t-103.5 27.5q-63 0 -124.5 -26.5t-109.5 -67.5l-217 217q94 90 225.5 139.5
t270.5 49.5q142 0 242 -39t155.5 -114t80 -170.5t24.5 -223.5v-408v-143h-391v92h-5q-38 -58 -113.5 -88.5t-156.5 -30.5zM549 240q77 0 122.5 46.5t45.5 123.5v36h-31q-120 0 -188 -25.5t-68 -90.5q0 -45 37 -67.5t82 -22.5z" />
    <glyph glyph-name="acircumflex" unicode="&#xe2;" horiz-adv-x="1193" 
d="M467 1188h-297l272 295h334l266 -295h-301l-137 147zM432 -27q-53 0 -104 10.5t-100.5 36t-87 63.5t-60.5 96.5t-23 131.5q0 62 20 113t54.5 87.5t84 64.5t103.5 45t119 28t124.5 15t125.5 4h4v8q0 55 -37.5 82.5t-103.5 27.5q-63 0 -124.5 -26.5t-109.5 -67.5l-217 217
q94 90 225.5 139.5t270.5 49.5q142 0 242 -39t155.5 -114t80 -170.5t24.5 -223.5v-408v-143h-391v92h-5q-38 -58 -113.5 -88.5t-156.5 -30.5zM549 240q77 0 122.5 46.5t45.5 123.5v36h-31q-120 0 -188 -25.5t-68 -90.5q0 -45 37 -67.5t82 -22.5z" />
    <glyph glyph-name="atilde" unicode="&#xe3;" horiz-adv-x="1193" 
d="M385 1200h-160q10 121 69.5 198t162.5 77q72 0 170 -48q85 -43 133 -43q34 0 51 20t27 62h155q-8 -123 -68.5 -201.5t-164.5 -78.5q-72 0 -168 47q-47 25 -73 34t-56 9q-32 0 -52 -21.5t-26 -54.5zM432 -27q-53 0 -104 10.5t-100.5 36t-87 63.5t-60.5 96.5t-23 131.5
q0 62 20 113t54.5 87.5t84 64.5t103.5 45t119 28t124.5 15t125.5 4h4v8q0 55 -37.5 82.5t-103.5 27.5q-63 0 -124.5 -26.5t-109.5 -67.5l-217 217q94 90 225.5 139.5t270.5 49.5q142 0 242 -39t155.5 -114t80 -170.5t24.5 -223.5v-408v-143h-391v92h-5q-38 -58 -113.5 -88.5
t-156.5 -30.5zM549 240q77 0 122.5 46.5t45.5 123.5v36h-31q-120 0 -188 -25.5t-68 -90.5q0 -45 37 -67.5t82 -22.5z" />
    <glyph glyph-name="adieresis" unicode="&#xe4;" horiz-adv-x="1193" 
d="M362 1186q-82 0 -139 55.5t-57 134.5q0 78 57.5 134.5t138.5 56.5q78 0 135.5 -56.5t57.5 -134.5q0 -79 -57 -134.5t-136 -55.5zM854 1186q-82 0 -139.5 55.5t-57.5 134.5q0 78 58 134.5t139 56.5q77 0 135 -57t58 -134q0 -79 -58 -134.5t-135 -55.5zM432 -27
q-53 0 -104 10.5t-100.5 36t-87 63.5t-60.5 96.5t-23 131.5q0 62 20 113t54.5 87.5t84 64.5t103.5 45t119 28t124.5 15t125.5 4h4v8q0 55 -37.5 82.5t-103.5 27.5q-63 0 -124.5 -26.5t-109.5 -67.5l-217 217q94 90 225.5 139.5t270.5 49.5q142 0 242 -39t155.5 -114
t80 -170.5t24.5 -223.5v-408v-143h-391v92h-5q-38 -58 -113.5 -88.5t-156.5 -30.5zM549 240q77 0 122.5 46.5t45.5 123.5v36h-31q-120 0 -188 -25.5t-68 -90.5q0 -45 37 -67.5t82 -22.5z" />
    <glyph glyph-name="aring" unicode="&#xe5;" horiz-adv-x="1193" 
d="M608 1149q-96 0 -163.5 66t-67.5 163t67.5 163.5t163.5 66.5q95 0 163.5 -66.5t68.5 -163.5t-68.5 -163t-163.5 -66zM608 1257q51 0 86 35t35 86t-35 86t-86 35q-52 0 -87.5 -35t-35.5 -86t36 -86t87 -35zM432 -27q-53 0 -104 10.5t-100.5 36t-87 63.5t-60.5 96.5
t-23 131.5q0 62 20 113t54.5 87.5t84 64.5t103.5 45t119 28t124.5 15t125.5 4h4v8q0 55 -37.5 82.5t-103.5 27.5q-63 0 -124.5 -26.5t-109.5 -67.5l-217 217q94 90 225.5 139.5t270.5 49.5q142 0 242 -39t155.5 -114t80 -170.5t24.5 -223.5v-408v-143h-391v92h-5
q-38 -58 -113.5 -88.5t-156.5 -30.5zM549 240q77 0 122.5 46.5t45.5 123.5v36h-31q-120 0 -188 -25.5t-68 -90.5q0 -45 37 -67.5t82 -22.5z" />
    <glyph glyph-name="ae" unicode="&#xe6;" horiz-adv-x="1865" 
d="M467 -27q-58 0 -114 11t-110.5 36.5t-95 63.5t-65.5 96.5t-25 130.5q0 353 629 353h6v6q0 116 -139 116q-64 0 -127 -26.5t-109 -67.5l-215 217q93 90 224 139.5t270 49.5q118 0 200 -36.5t126 -94.5q59 59 144 95t185 36q245 0 398 -161t153 -419q0 -44 -4 -94h-729
q7 -63 66.5 -103t134.5 -40q66 0 115.5 24.5t76.5 61.5l303 -164q-71 -114 -202.5 -178t-302.5 -64q-110 0 -214 47t-163 127q-116 -162 -416 -162zM1065 666h358q0 65 -46 107t-124 42q-79 0 -130 -45t-58 -104zM551 242q75 0 119.5 44.5t44.5 116.5v33h-31
q-82 0 -133.5 -8t-84 -32t-32.5 -66q0 -43 36 -65.5t81 -22.5z" />
    <glyph glyph-name="ccedilla" unicode="&#xe7;" horiz-adv-x="1062" 
d="M580 -492q-66 0 -140 13.5t-125 36.5l66 147q86 -35 174 -35q36 0 62 12t26 39q0 43 -82 43q-47 0 -84 -12l-82 68l131 157q-207 42 -331.5 189t-124.5 364q0 168 81.5 298.5t220.5 200t312 69.5q109 0 218 -35t171 -88l-223 -305q-25 31 -68 49t-86 18
q-81 0 -140.5 -57.5t-59.5 -149.5t58.5 -148t143.5 -56q96 0 156 63l221 -299q-61 -52 -152.5 -86t-193.5 -41l-67 -76q10 2 32 2q39 0 73.5 -8t67 -26.5t51.5 -54t19 -85.5q0 -47 -21.5 -84t-54.5 -59.5t-77.5 -37.5t-86.5 -20.5t-85 -5.5z" />
    <glyph glyph-name="egrave" unicode="&#xe8;" horiz-adv-x="1269" 
d="M874 1188h-319l-309 295h405zM666 -39q-118 0 -224.5 37.5t-190 107t-132.5 179t-49 243.5q0 171 78.5 302t211 199.5t295.5 68.5q245 0 398 -161t153 -419q0 -44 -4 -94h-729q6 -62 66.5 -102.5t136.5 -40.5q123 0 190 86l305 -164q-73 -114 -204 -178t-301 -64z
M469 666h358q0 65 -46 107t-124 42q-79 0 -130 -45t-58 -104z" />
    <glyph glyph-name="eacute" unicode="&#xe9;" horiz-adv-x="1269" 
d="M760 1188h-320l224 295h407zM666 -39q-118 0 -224.5 37.5t-190 107t-132.5 179t-49 243.5q0 171 78.5 302t211 199.5t295.5 68.5q245 0 398 -161t153 -419q0 -44 -4 -94h-729q6 -62 66.5 -102.5t136.5 -40.5q123 0 190 86l305 -164q-73 -114 -204 -178t-301 -64zM469 666
h358q0 65 -46 107t-124 42q-79 0 -130 -45t-58 -104z" />
    <glyph glyph-name="ecircumflex" unicode="&#xea;" horiz-adv-x="1269" 
d="M530 1188h-297l273 295h334l266 -295h-301l-137 147zM666 -39q-118 0 -224.5 37.5t-190 107t-132.5 179t-49 243.5q0 171 78.5 302t211 199.5t295.5 68.5q245 0 398 -161t153 -419q0 -44 -4 -94h-729q6 -62 66.5 -102.5t136.5 -40.5q123 0 190 86l305 -164
q-73 -114 -204 -178t-301 -64zM469 666h358q0 65 -46 107t-124 42q-79 0 -130 -45t-58 -104z" />
    <glyph glyph-name="edieresis" unicode="&#xeb;" horiz-adv-x="1269" 
d="M420 1186q-80 0 -137.5 55.5t-57.5 134.5q0 78 57.5 134.5t137.5 56.5q78 0 136 -56.5t58 -134.5q0 -79 -57.5 -134.5t-136.5 -55.5zM913 1186q-82 0 -139 55.5t-57 134.5q0 78 57.5 134.5t138.5 56.5q77 0 135 -57t58 -134q0 -79 -58 -134.5t-135 -55.5zM666 -39
q-118 0 -224.5 37.5t-190 107t-132.5 179t-49 243.5q0 171 78.5 302t211 199.5t295.5 68.5q245 0 398 -161t153 -419q0 -44 -4 -94h-729q6 -62 66.5 -102.5t136.5 -40.5q123 0 190 86l305 -164q-73 -114 -204 -178t-301 -64zM469 666h358q0 65 -46 107t-124 42
q-79 0 -130 -45t-58 -104z" />
    <glyph glyph-name="igrave" unicode="&#xec;" horiz-adv-x="667" 
d="M547 1188h-320l-311 295h408zM549 0h-430v1061h430v-1061z" />
    <glyph glyph-name="iacute" unicode="&#xed;" horiz-adv-x="667" 
d="M449 1188h-318l221 295h408zM549 0h-430v1061h430v-1061z" />
    <glyph glyph-name="icircumflex" unicode="&#xee;" horiz-adv-x="667" 
d="M201 1188h-297l272 295h334l266 -295h-299l-139 147zM549 0h-430v1061h430v-1061z" />
    <glyph glyph-name="idieresis" unicode="&#xef;" horiz-adv-x="667" 
d="M94 1186q-80 0 -138 55.5t-58 134.5q0 78 58 134.5t138 56.5q78 0 135.5 -56.5t57.5 -134.5q0 -79 -57 -134.5t-136 -55.5zM586 1186q-80 0 -137.5 55.5t-57.5 134.5q0 78 57.5 134.5t137.5 56.5q78 0 135 -56.5t57 -134.5q0 -79 -56.5 -134.5t-135.5 -55.5zM549 0h-430
v1061h430v-1061z" />
    <glyph glyph-name="eth" unicode="&#xf0;" horiz-adv-x="1339" 
d="M668 -39q-120 0 -228 39t-190.5 110.5t-131 181t-48.5 240.5q0 167 76 293t203 190t286 64q56 0 102 -20l4 2q-66 78 -139 141l-219 -92l-207 170l219 92q-38 35 -145 107l330 178q78 -57 174 -144l229 97l227 -178l-256 -103q154 -164 235 -340.5t81 -390.5
q0 -154 -47 -277t-129.5 -200.5t-191 -118.5t-234.5 -41zM670 326q87 0 141.5 60.5t54.5 145.5q0 83 -55 144t-143 61q-86 0 -140.5 -61t-54.5 -144q0 -85 55 -145.5t142 -60.5z" />
    <glyph glyph-name="ntilde" unicode="&#xf1;" horiz-adv-x="1333" 
d="M442 1200h-157q8 121 67.5 198t163.5 77q72 0 170 -48q49 -25 75.5 -34t57.5 -9q32 0 49 20t27 62h156q-8 -123 -68.5 -201.5t-163.5 -78.5q-76 0 -168 47q-48 25 -74 34t-55 9q-61 0 -80 -76zM547 0h-432v815v246h420v-125h4q40 66 123.5 110t183.5 44q85 0 152.5 -26
t109.5 -68t69.5 -100.5t38.5 -119t11 -127.5v-649h-432v569q0 170 -119 170q-58 0 -93.5 -47.5t-35.5 -122.5v-569z" />
    <glyph glyph-name="ograve" unicode="&#xf2;" horiz-adv-x="1339" 
d="M877 1188h-320l-309 295h405zM668 -39q-119 0 -227 39.5t-190.5 111.5t-131.5 182t-49 241q0 130 48.5 238t131.5 178t190.5 108.5t227.5 38.5q121 0 230 -38t192 -108.5t131.5 -178t48.5 -238.5q0 -105 -31.5 -197.5t-87.5 -160.5t-131.5 -117t-165 -74t-186.5 -25z
M670 326q87 0 141.5 61.5t54.5 147.5q0 81 -56 141.5t-142 60.5t-140.5 -60.5t-54.5 -141.5q0 -86 55 -147.5t142 -61.5z" />
    <glyph glyph-name="oacute" unicode="&#xf3;" horiz-adv-x="1339" 
d="M782 1188h-319l223 295h406zM668 -39q-119 0 -227 39.5t-190.5 111.5t-131.5 182t-49 241q0 130 48.5 238t131.5 178t190.5 108.5t227.5 38.5q121 0 230 -38t192 -108.5t131.5 -178t48.5 -238.5q0 -105 -31.5 -197.5t-87.5 -160.5t-131.5 -117t-165 -74t-186.5 -25z
M670 326q87 0 141.5 61.5t54.5 147.5q0 81 -56 141.5t-142 60.5t-140.5 -60.5t-54.5 -141.5q0 -86 55 -147.5t142 -61.5z" />
    <glyph glyph-name="ocircumflex" unicode="&#xf4;" horiz-adv-x="1339" 
d="M535 1192h-297l272 295h334l266 -295h-299l-139 147zM668 -39q-119 0 -227 39.5t-190.5 111.5t-131.5 182t-49 241q0 130 48.5 238t131.5 178t190.5 108.5t227.5 38.5q121 0 230 -38t192 -108.5t131.5 -178t48.5 -238.5q0 -105 -31.5 -197.5t-87.5 -160.5t-131.5 -117
t-165 -74t-186.5 -25zM670 326q87 0 141.5 61.5t54.5 147.5q0 81 -56 141.5t-142 60.5t-140.5 -60.5t-54.5 -141.5q0 -86 55 -147.5t142 -61.5z" />
    <glyph glyph-name="otilde" unicode="&#xf5;" horiz-adv-x="1339" 
d="M449 1200h-160q10 121 69 198t162 77q72 0 170 -48q85 -43 133 -43q61 0 76 82h158q-8 -122 -69.5 -201t-164.5 -79q-72 0 -168 47q-47 25 -73 34t-56 9q-62 0 -77 -76zM668 -39q-119 0 -227 39.5t-190.5 111.5t-131.5 182t-49 241q0 130 48.5 238t131.5 178t190.5 108.5
t227.5 38.5q121 0 230 -38t192 -108.5t131.5 -178t48.5 -238.5q0 -105 -31.5 -197.5t-87.5 -160.5t-131.5 -117t-165 -74t-186.5 -25zM670 326q87 0 141.5 61.5t54.5 147.5q0 81 -56 141.5t-142 60.5t-140.5 -60.5t-54.5 -141.5q0 -86 55 -147.5t142 -61.5z" />
    <glyph glyph-name="odieresis" unicode="&#xf6;" horiz-adv-x="1339" 
d="M424 1186q-80 0 -137.5 55.5t-57.5 134.5q0 78 57.5 134.5t137.5 56.5q78 0 136 -56.5t58 -134.5q0 -79 -57.5 -134.5t-136.5 -55.5zM918 1186q-82 0 -139.5 55.5t-57.5 134.5q0 78 58 134.5t139 56.5q77 0 134.5 -56.5t57.5 -134.5q0 -79 -57.5 -134.5t-134.5 -55.5z
M668 -39q-119 0 -227 39.5t-190.5 111.5t-131.5 182t-49 241q0 130 48.5 238t131.5 178t190.5 108.5t227.5 38.5q121 0 230 -38t192 -108.5t131.5 -178t48.5 -238.5q0 -105 -31.5 -197.5t-87.5 -160.5t-131.5 -117t-165 -74t-186.5 -25zM670 326q87 0 141.5 61.5t54.5 147.5
q0 81 -56 141.5t-142 60.5t-140.5 -60.5t-54.5 -141.5q0 -86 55 -147.5t142 -61.5z" />
    <glyph glyph-name="divide" unicode="&#xf7;" horiz-adv-x="1363" 
d="M684 821q-79 0 -138 56t-59 133q0 76 59 130t138 54q78 0 134 -54t56 -130q0 -78 -56 -133.5t-134 -55.5zM1202 477h-1040v289h1040v-289zM684 43q-78 0 -137.5 56t-59.5 132q0 75 59.5 130t137.5 55t134 -55t56 -130q0 -77 -56 -132.5t-134 -55.5z" />
    <glyph glyph-name="oslash" unicode="&#xf8;" horiz-adv-x="1339" 
d="M348 51l-160 -160l-159 156l153 152q-112 128 -112 333q0 168 81.5 299t217 200t299.5 69q191 0 325 -92l148 145l162 -156l-142 -139q109 -124 109 -326q0 -169 -82 -300.5t-218.5 -201t-301.5 -69.5q-186 0 -320 90zM467 487l256 258q-25 17 -66 17q-92 0 -146 -60
t-54 -151q0 -41 10 -64zM674 315q91 0 144.5 59.5t53.5 149.5q0 42 -12 66l-256 -258q24 -17 70 -17z" />
    <glyph glyph-name="ugrave" unicode="&#xf9;" horiz-adv-x="1327" 
d="M870 1188h-319l-309 295h405zM481 -29q-85 0 -152.5 26t-109.5 68t-69.5 100.5t-38.5 119t-11 127.5v649h435v-565q0 -86 27.5 -128t88.5 -42q58 0 93.5 47t35.5 123v565h432v-868v-193h-419v125h-5q-40 -65 -123.5 -109.5t-183.5 -44.5z" />
    <glyph glyph-name="uacute" unicode="&#xfa;" horiz-adv-x="1327" 
d="M786 1188h-319l223 295h408zM481 -29q-85 0 -152.5 26t-109.5 68t-69.5 100.5t-38.5 119t-11 127.5v649h435v-565q0 -86 27.5 -128t88.5 -42q58 0 93.5 47t35.5 123v565h432v-868v-193h-419v125h-5q-40 -65 -123.5 -109.5t-183.5 -44.5z" />
    <glyph glyph-name="ucircumflex" unicode="&#xfb;" horiz-adv-x="1327" 
d="M520 1188h-297l273 295h333l267 -295h-301l-138 147zM481 -29q-85 0 -152.5 26t-109.5 68t-69.5 100.5t-38.5 119t-11 127.5v649h435v-565q0 -86 27.5 -128t88.5 -42q58 0 93.5 47t35.5 123v565h432v-868v-193h-419v125h-5q-40 -65 -123.5 -109.5t-183.5 -44.5z" />
    <glyph glyph-name="udieresis" unicode="&#xfc;" horiz-adv-x="1327" 
d="M414 1186q-80 0 -137.5 55.5t-57.5 134.5q0 78 57.5 134.5t137.5 56.5q78 0 136 -56.5t58 -134.5q0 -79 -57.5 -134.5t-136.5 -55.5zM905 1186q-80 0 -137 55.5t-57 134.5q0 78 57.5 134.5t136.5 56.5q78 0 135.5 -56.5t57.5 -134.5q0 -79 -57 -134.5t-136 -55.5z
M481 -29q-85 0 -152.5 26t-109.5 68t-69.5 100.5t-38.5 119t-11 127.5v649h435v-565q0 -86 27.5 -128t88.5 -42q58 0 93.5 47t35.5 123v565h432v-868v-193h-419v125h-5q-40 -65 -123.5 -109.5t-183.5 -44.5z" />
    <glyph glyph-name="yacute" unicode="&#xfd;" horiz-adv-x="1261" 
d="M795 1188h-320l223 295h406zM297 -492q-114 0 -242 29l54 359q63 -23 124 -23q73 0 112 30t61 89l16 41l-434 1028h479l180 -596h6l160 596h461l-447 -1153q-39 -100 -83 -170t-106 -124t-146.5 -80t-194.5 -26z" />
    <glyph glyph-name="thorn" unicode="&#xfe;" horiz-adv-x="1398" 
d="M545 -492h-428v2040h428v-579h4q48 54 125.5 86t165.5 32q114 0 208.5 -47t154.5 -125t93 -176t33 -204q0 -108 -32 -208.5t-92 -180t-154.5 -127.5t-210.5 -48q-85 0 -165 33t-126 90h-4v-586zM729 326q92 0 144.5 60t52.5 149q0 83 -53 142.5t-144 59.5q-89 0 -146 -61
t-57 -144q0 -85 56.5 -145.5t146.5 -60.5z" />
    <glyph glyph-name="ydieresis" unicode="&#xff;" horiz-adv-x="1261" 
d="M403 1186q-80 0 -137 55.5t-57 134.5q0 78 57.5 134.5t136.5 56.5q78 0 136.5 -56.5t58.5 -134.5q0 -79 -58 -134.5t-137 -55.5zM895 1186q-80 0 -137.5 55.5t-57.5 134.5q0 78 57.5 134.5t137.5 56.5q78 0 136.5 -56.5t58.5 -134.5q0 -79 -58 -134.5t-137 -55.5z
M297 -492q-114 0 -242 29l54 359q63 -23 124 -23q73 0 112 30t61 89l16 41l-434 1028h479l180 -596h6l160 596h461l-447 -1153q-39 -100 -83 -170t-106 -124t-146.5 -80t-194.5 -26z" />
    <glyph glyph-name="dotlessi" unicode="&#x131;" horiz-adv-x="667" 
d="M549 0h-430v1061h430v-1061z" />
    <glyph glyph-name="Lslash" unicode="&#x141;" horiz-adv-x="1110" 
d="M1094 0h-955v313l-119 -104v360l119 103v778h449v-455l362 314v-359l-362 -309v-258h506v-383z" />
    <glyph glyph-name="lslash" unicode="&#x142;" horiz-adv-x="673" 
d="M557 0h-440v481l-94 -88v365l94 90v700h440v-362l94 90v-365l-94 -90v-821z" />
    <glyph glyph-name="OE" unicode="&#x152;" horiz-adv-x="2070" 
d="M1999 0h-1079q-138 0 -258.5 23t-230 77t-187.5 136t-124 208t-46 285q0 150 46 272.5t124.5 205t187 138t230.5 80.5t258 25h1044v-373h-547v-170h514v-348h-514v-186h582v-373zM913 373h93v704h-76q-178 0 -281.5 -88t-103.5 -274q0 -161 104.5 -251.5t263.5 -90.5z
" />
    <glyph glyph-name="oe" unicode="&#x153;" horiz-adv-x="2023" 
d="M666 -39q-119 0 -226.5 39.5t-190 111t-131 181.5t-48.5 242q0 130 48.5 237.5t131 178t190 109t226.5 38.5q121 0 219 -46t155 -120q64 74 161.5 120t213.5 46q242 0 393.5 -161t151.5 -419q0 -69 -2 -94h-731q7 -62 67.5 -102.5t135.5 -40.5q125 0 192 86l303 -164
q-71 -114 -202 -178t-298 -64q-124 0 -227 44t-160 112q-129 -156 -372 -156zM1225 666h358q0 65 -46 107t-124 42q-80 0 -130.5 -45t-57.5 -104zM670 326q87 0 141.5 61.5t54.5 147.5q0 81 -56 141.5t-142 60.5t-140.5 -60.5t-54.5 -141.5q0 -86 55 -147.5t142 -61.5z" />
    <glyph glyph-name="Scaron" unicode="&#x160;" horiz-adv-x="1247" 
d="M852 1565h-334l-272 295h299l137 -148l137 148h299zM598 -39q-167 0 -324 58t-264 157l275 297q55 -62 141 -103.5t172 -41.5q60 0 98.5 22t38.5 72q0 51 -52 79t-218 83q-64 21 -114 43.5t-101 58.5t-84.5 79t-54.5 105t-21 136q0 101 35 183.5t93.5 137t136 92t160 54
t169.5 16.5q140 0 282.5 -53.5t247.5 -149.5l-278 -287q-45 58 -117 91.5t-137 33.5q-143 0 -143 -90q0 -41 36 -62.5t132 -51.5q45 -14 71 -23t71 -26.5t73.5 -31.5t67.5 -37t63.5 -45.5t52 -54.5t42.5 -66t25.5 -77.5t10.5 -91.5q0 -100 -33 -184.5t-89 -143t-131 -99.5
t-159.5 -60t-173.5 -19z" />
    <glyph glyph-name="scaron" unicode="&#x161;" horiz-adv-x="1024" 
d="M715 1188h-332l-272 295h297l139 -148l137 148h299zM500 -39q-136 0 -266.5 41t-221.5 115l219 245q49 -46 115.5 -75t130.5 -29q34 0 59 13.5t25 43.5q0 31 -38.5 49.5t-141.5 43.5q-57 13 -106 35t-95 58t-73 94t-27 130q0 96 43.5 170.5t113 117t146.5 64t154 21.5
q123 0 241.5 -36.5t208.5 -103.5l-209 -241q-106 76 -211 76q-94 0 -94 -58q0 -26 30 -39t128 -34q67 -14 123 -38t105.5 -61.5t77.5 -96t28 -132.5q0 -80 -29 -145.5t-76 -107t-109 -69.5t-124.5 -39.5t-126.5 -11.5z" />
    <glyph glyph-name="Ydieresis" unicode="&#x178;" horiz-adv-x="1468" 
d="M502 1561q-82 0 -139.5 56t-57.5 136q0 77 58 134t139 57q78 0 135 -56.5t57 -134.5q0 -81 -56.5 -136.5t-135.5 -55.5zM993 1561q-80 0 -138 56.5t-58 135.5q0 77 58.5 134t137.5 57q78 0 135.5 -56.5t57.5 -134.5q0 -81 -57 -136.5t-136 -55.5zM745 989l246 461h525
l-572 -850v-600h-444v600l-547 850h539z" />
    <glyph glyph-name="Zcaron" unicode="&#x17d;" horiz-adv-x="1353" 
d="M858 1565h-334l-272 295h299l137 -148l137 148h299zM1268 0h-1182v375l588 704h-565v371h1142v-330l-616 -739h633v-381z" />
    <glyph glyph-name="zcaron" unicode="&#x17e;" horiz-adv-x="1112" 
d="M737 1188h-334l-272 295h299l137 -148l138 148h299zM1042 0h-974v309l428 430h-414v322h946v-289l-455 -448h469v-324z" />
    <glyph glyph-name="florin" unicode="&#x192;" horiz-adv-x="1400" 
d="M291 -285q-75 0 -153 18t-136 50l145 305q56 -39 109 -39q51 0 79 38.5t44 113.5l88 434h-234v278h283l12 58q13 65 25 113t33 105t45.5 97.5t61.5 80.5t82 65t107.5 40t137.5 15q203 0 326 -78l-156 -305q-64 41 -121 41q-55 0 -86.5 -32t-46.5 -107l-18 -93h266v-278
h-324l-108 -533q-78 -387 -461 -387z" />
    <glyph glyph-name="circumflex" unicode="&#x2c6;" horiz-adv-x="700" 
d="M211 1188h-297l272 295h334l266 -295h-301l-137 147z" />
    <glyph glyph-name="caron" unicode="&#x2c7;" horiz-adv-x="700" 
d="M518 1188h-332l-272 295h297l139 -148l137 148h299z" />
    <glyph glyph-name="breve" unicode="&#x2d8;" horiz-adv-x="700" 
d="M350 1188q-72 0 -132 15t-111.5 47.5t-83 92t-37.5 140.5h209q12 -90 155 -90q144 0 156 90h209q-6 -81 -37.5 -140.5t-83.5 -92t-112 -47.5t-132 -15z" />
    <glyph glyph-name="dotaccent" unicode="&#x2d9;" horiz-adv-x="700" 
d="M352 1174q-89 0 -150 58.5t-61 143.5q0 84 61 143.5t150 59.5q85 0 146 -59.5t61 -143.5q0 -85 -60.5 -143.5t-146.5 -58.5z" />
    <glyph glyph-name="ring" unicode="&#x2da;" horiz-adv-x="700" 
d="M350 1149q-95 0 -163 66t-68 163t67.5 163.5t163.5 66.5q95 0 163.5 -66.5t68.5 -163.5t-68.5 -163t-163.5 -66zM350 1257q51 0 87 35t36 86t-36 86t-87 35t-87 -35t-36 -86t36 -86t87 -35z" />
    <glyph glyph-name="ogonek" unicode="&#x2db;" horiz-adv-x="700" 
d="M303 -489q-44 0 -85.5 9.5t-80.5 30t-62.5 59.5t-23.5 91q0 46 20.5 89t59.5 82t72.5 65.5t83.5 60.5h256q-121 -88 -170 -139.5t-49 -91.5q0 -50 53 -50q59 0 115 39l83 -159q-130 -86 -272 -86z" />
    <glyph glyph-name="tilde" unicode="&#x2dc;" horiz-adv-x="700" 
d="M125 1200h-158q8 121 68 198t164 77q72 0 170 -48q85 -43 133 -43q61 0 76 82h155q-8 -123 -68 -201.5t-163 -78.5q-76 0 -168 47q-48 25 -74 34t-55 9q-61 0 -80 -76z" />
    <glyph glyph-name="hungarumlaut" unicode="&#x2dd;" horiz-adv-x="700" 
d="M219 1188h-317l221 295h405zM702 1188h-317l221 295h406z" />
    <glyph glyph-name="gravecomb" unicode="&#x300;" 
d="M315 1188h-319l-311 295h407z" />
    <glyph glyph-name="acutecomb" unicode="&#x301;" 
d="M4 1188h-319l223 295h407z" />
    <glyph glyph-name="uni0302" unicode="&#x302;" 
d="M-139 1188h-297l272 295h334l266 -295h-301l-137 147z" />
    <glyph glyph-name="tildecomb" unicode="&#x303;" 
d="M-225 1200h-158q8 121 67.5 198t163.5 77q72 0 170 -48q85 -43 134 -43q33 0 50 20t25 62h156q-8 -123 -68 -201.5t-163 -78.5q-76 0 -168 47q-48 25 -74 34t-55 9q-61 0 -80 -76z" />
    <glyph glyph-name="uni0304" unicode="&#x304;" 
d="M360 1245h-720v191h720v-191z" />
    <glyph glyph-name="uni0306" unicode="&#x306;" 
d="M0 1188q-72 0 -132 15t-112 47.5t-83.5 92t-37.5 140.5h209q7 -50 52 -70t104 -20q144 0 156 90h209q-6 -81 -37.5 -140.5t-83.5 -92t-112 -47.5t-132 -15z" />
    <glyph glyph-name="uni0307" unicode="&#x307;" 
d="M2 1174q-89 0 -150 58.5t-61 143.5q0 84 61 143.5t150 59.5q85 0 146 -59.5t61 -143.5q0 -85 -60.5 -143.5t-146.5 -58.5z" />
    <glyph glyph-name="uni0308" unicode="&#x308;" 
d="M-244 1186q-82 0 -139 55.5t-57 134.5q0 78 57.5 134.5t138.5 56.5q77 0 135 -57t58 -134q0 -79 -58 -134.5t-135 -55.5zM248 1186q-82 0 -139.5 55.5t-57.5 134.5q0 78 58 134.5t139 56.5q77 0 134.5 -56.5t57.5 -134.5q0 -79 -57.5 -134.5t-134.5 -55.5z" />
    <glyph glyph-name="hookabovecomb" unicode="&#x309;" 
d="M131 1167h-223q0 53 20 87t74 67q66 36 66 84q0 27 -16.5 43t-43.5 16q-37 0 -56.5 -24t-23.5 -80l-239 26q13 124 98 188t225 64q141 0 220 -63.5t79 -155.5q0 -64 -29 -104t-94 -68q-57 -28 -57 -80z" />
    <glyph glyph-name="uni030A" unicode="&#x30a;" 
d="M0 1149q-95 0 -163 66t-68 163t67.5 163.5t163.5 66.5q95 0 163 -66.5t68 -163.5t-68 -163t-163 -66zM0 1257q51 0 87 35t36 86t-36 86t-87 35t-87 -35t-36 -86t36 -86t87 -35z" />
    <glyph glyph-name="uni030B" unicode="&#x30b;" 
d="M-238 1188h-317l221 295h406zM246 1188h-318l222 295h405z" />
    <glyph glyph-name="uni030C" unicode="&#x30c;" 
d="M168 1188h-332l-272 295h297l139 -148l137 148h299z" />
    <glyph glyph-name="uni0312" unicode="&#x312;" 
d="M111 1188h-361l187 399h313z" />
    <glyph glyph-name="uni0313" unicode="&#x313;" 
d="M61 1188h-307l137 399h357z" />
    <glyph glyph-name="uni031B" unicode="&#x31b;" 
d="M29 1118h-387v185h262q74 0 112.5 39.5t38.5 105.5q0 72 -39 137l285 72q57 -123 57 -232q0 -132 -86.5 -219.5t-242.5 -87.5z" />
    <glyph glyph-name="dotbelowcomb" unicode="&#x323;" 
d="M20 -489q-89 0 -151 57.5t-62 142.5t62 145t151 60q85 0 146 -60t61 -145q0 -84 -61 -142t-146 -58z" />
    <glyph glyph-name="uni0324" unicode="&#x324;" 
d="M-244 -494q-80 0 -137 56t-57 135q0 78 57 134t137 56q78 0 136.5 -56t58.5 -134q0 -79 -58 -135t-137 -56zM248 -494q-82 0 -139.5 56t-57.5 135q0 78 57.5 134t139.5 56q77 0 134.5 -56.5t57.5 -133.5q0 -79 -57.5 -135t-134.5 -56z" />
    <glyph glyph-name="uni0325" unicode="&#x325;" 
d="M0 -530q-95 0 -163 66t-68 163t67.5 163t163.5 66q95 0 163 -66t68 -163t-68 -163t-163 -66zM0 -422q51 0 87 35t36 86t-36 86t-87 35t-87 -35t-36 -86t36 -86t87 -35z" />
    <glyph glyph-name="uni0326" unicode="&#x326;" 
d="M63 -492h-313l139 400h361z" />
    <glyph glyph-name="uni0327" unicode="&#x327;" 
d="M-31 -492q-66 0 -139.5 13.5t-124.5 36.5l66 147q82 -35 172 -35q37 0 63.5 12t26.5 39q0 43 -84 43q-45 0 -82 -12l-82 68l147 180h220l-101 -113q12 2 35 2q39 0 73 -8t66 -26.5t51 -54t19 -85.5q0 -58 -31.5 -101t-82.5 -64.5t-104 -31.5t-108 -10z" />
    <glyph glyph-name="uni0328" unicode="&#x328;" 
d="M-10 -487q-44 0 -85.5 9.5t-80.5 30t-62.5 59.5t-23.5 91q0 37 15 74t36.5 65.5t56 59.5t61.5 51.5t66 46.5h256q-121 -88 -170 -139.5t-49 -91.5q0 -50 53 -50q59 0 115 39l84 -159q-130 -86 -272 -86z" />
    <glyph glyph-name="uni032E" unicode="&#x32e;" 
d="M-2 -389q-72 0 -132 15t-112 47.5t-83.5 92t-37.5 140.5h209q7 -50 52 -70t104 -20q144 0 156 90h208q-6 -81 -37.5 -140.5t-83 -92t-111.5 -47.5t-132 -15z" />
    <glyph glyph-name="uni0330" unicode="&#x330;" 
d="M-225 -479h-158q8 121 67.5 197.5t163.5 76.5q81 0 170 -47q85 -43 134 -43q33 0 50 20t25 62h156q-8 -123 -68 -202t-163 -79q-74 0 -168 48q-48 25 -74 34t-55 9q-61 0 -80 -76z" />
    <glyph glyph-name="uni0331" unicode="&#x331;" 
d="M360 -434h-720v190h720v-190z" />
    <glyph glyph-name="uni0394" unicode="&#x394;" horiz-adv-x="1497" 
d="M1483 0h-1469v250l502 1200h469l498 -1200v-250zM743 983l-239 -639h473l-232 641z" />
    <glyph glyph-name="uni03A9" unicode="&#x3a9;" horiz-adv-x="1615" 
d="M743 0h-632v311h278v27q-145 38 -230 174.5t-85 321.5q0 127 37.5 234t104.5 184.5t159 131.5t201 80.5t231 26.5q155 0 288 -42.5t233 -122.5t157 -206t57 -284q0 -192 -87 -328t-226 -170v-27h276v-311h-631v539q101 28 149 100t48 176q0 118 -71.5 193t-192.5 75
q-118 0 -189 -75.5t-71 -192.5q0 -104 49 -176.5t147 -99.5v-539z" />
    <glyph glyph-name="uni03BC" unicode="&#x3bc;" horiz-adv-x="1411" 
d="M1419 311l2 -305q-79 -33 -211 -33q-204 0 -266 152h-2q-29 -58 -87 -106t-142 -48q-88 0 -131 43h-4v-477h-443v1524h443v-561q0 -81 24.5 -126.5t89.5 -45.5q68 0 100.5 52.5t32.5 121.5v559h441v-658q0 -59 22 -80.5t70 -21.5q16 0 61 10z" />
    <glyph glyph-name="uni10D0" unicode="&#x10d0;" horiz-adv-x="1261" 
d="M631 -29q-253 0 -410.5 127t-157.5 328q0 81 39 192l390 -65q-13 -43 -13 -88q0 -69 38 -112.5t108 -43.5q65 0 107 38.5t42 105.5q0 39 -19.5 72.5t-50 61.5t-68 57.5t-75 67.5t-68 83.5t-50 114t-19.5 151.5h428q0 -36 19 -71t49 -66.5t66 -65t72 -74.5t65.5 -87.5
t48 -110.5t18.5 -137q0 -206 -157 -342t-402 -136z" />
    <glyph glyph-name="uni10D1" unicode="&#x10d1;" horiz-adv-x="1343" 
d="M911 1161v-112q164 -60 262.5 -192.5t98.5 -321.5q0 -132 -48.5 -241.5t-131 -181.5t-191.5 -111.5t-231 -39.5q-97 0 -186 25t-164 74t-130.5 117t-86.5 160t-31 198q0 207 113.5 344.5t299.5 185.5v70q0 45 -22.5 77.5t-52.5 56t-59 53t-44.5 86.5t-5.5 140h424
q-4 -28 4.5 -51.5t24.5 -42t36.5 -37t41.5 -41.5t39 -51t29 -70.5t11 -93.5zM672 328q86 0 141 59.5t55 147.5q0 82 -56 142t-142 60q-85 0 -141 -60t-56 -142q0 -87 56 -147t143 -60z" />
    <glyph glyph-name="uni10D2" unicode="&#x10d2;" horiz-adv-x="1310" 
d="M653 -522q-163 0 -297.5 66.5t-217.5 198.5t-83 306q0 111 36.5 203.5t101.5 157t149.5 106.5t185.5 62q112 23 153.5 54t41.5 85q0 37 -21.5 58.5t-60.5 21.5q-38 0 -59 -22t-21 -54q0 -17 4 -37l-403 -47q-15 66 -15 104q0 158 140 253.5t354 95.5q222 0 359 -97.5
t137 -261.5q0 -84 -42 -148.5t-114 -101.5v-6q127 -50 200.5 -164.5t73.5 -271.5q0 -128 -48.5 -235t-131 -177.5t-191.5 -109.5t-231 -39zM655 -156q86 0 142.5 59.5t56.5 145.5q0 83 -57.5 143t-143.5 60t-140 -59.5t-54 -143.5q0 -86 55 -145.5t141 -59.5z" />
    <glyph glyph-name="uni10D3" unicode="&#x10d3;" horiz-adv-x="1865" 
d="M1526 -356l-346 -168q-113 192 -455 192h-465v273h207v8q-83 28 -152.5 78t-125 123t-86.5 177t-31 228q0 111 25.5 202t68.5 152t102 102.5t124 60t136 18.5q128 0 220 -49.5t139 -137.5h8q44 88 145 137.5t230 49.5q142 0 260.5 -60t191 -176.5t72.5 -267.5
q0 -118 -45.5 -216.5t-122.5 -161.5t-174 -97.5t-203 -34.5q-104 0 -201 34t-173 94.5t-122 153.5t-46 203q0 10 1 31t1 31q0 56 -25.5 83t-67.5 27q-116 0 -116 -213q0 -86 22.5 -157t60 -121t94 -91t115 -67t132.5 -49q82 -21 140.5 -38.5t122.5 -42t110.5 -52.5t91.5 -65
t78.5 -85.5t58.5 -107.5zM1249 414q70 0 111 46.5t41 117.5t-41 118t-111 47q-67 0 -108 -47t-41 -118t40.5 -117.5t108.5 -46.5z" />
    <glyph glyph-name="uni10D4" unicode="&#x10d4;" horiz-adv-x="1357" 
d="M657 -520q-141 0 -254.5 42t-185 113.5t-109.5 162.5t-38 192q0 119 49 223l377 -70q-23 -56 -23 -120q0 -81 49 -134t137 -53q81 0 126.5 55t45.5 142v530q0 83 -42 127.5t-107 44.5q-67 0 -109.5 -40.5t-42.5 -116.5q0 -26 15 -99l-404 -61q-35 119 -35 192
q0 219 162 349.5t418 130.5q248 0 411 -151t163 -392v-471q0 -187 -81.5 -324t-216.5 -204.5t-305 -67.5z" />
    <glyph glyph-name="uni10D5" unicode="&#x10d5;" horiz-adv-x="1351" 
d="M676 -520q-140 0 -257 41.5t-192 110.5t-116 156.5t-41 182.5q0 104 39 193l378 -70q-14 -41 -14 -82q0 -81 50.5 -131.5t142.5 -50.5q89 0 137.5 46t48.5 122q0 77 -48.5 116.5t-119.5 39.5h-74v311h74q61 0 103 31t42 96q0 69 -42.5 107t-104.5 38q-67 0 -108.5 -38
t-41.5 -107q0 -34 7 -62l-404 -61q-26 80 -26 170q0 136 77.5 239.5t207.5 157.5t292 54q157 0 287.5 -58t207 -161t76.5 -230q0 -204 -194 -303v-8q97 -34 157 -126.5t60 -234.5q0 -139 -80.5 -251.5t-219 -175t-304.5 -62.5z" />
    <glyph glyph-name="uni10D6" unicode="&#x10d6;" horiz-adv-x="1396" 
d="M725 -39q-97 0 -186 23.5t-164 70.5t-130.5 112.5t-86.5 153t-31 187.5q0 186 115 301v8q-103 40 -171.5 140.5t-68.5 213.5q0 135 68 235.5t180 150t252 49.5q215 0 359.5 -111t144.5 -295q0 -105 -54 -174v-8q173 -45 274 -171t101 -315q0 -174 -84 -306t-219.5 -198.5
t-298.5 -66.5zM504 1038q53 0 88 35.5t35 89.5q0 50 -36 85.5t-89 35.5q-52 0 -85.5 -35.5t-33.5 -85.5q0 -54 34.5 -89.5t86.5 -35.5zM727 328q85 0 141 59t56 145q0 83 -57 143t-142 60q-86 0 -140.5 -59.5t-54.5 -143.5q0 -86 55.5 -145t141.5 -59z" />
    <glyph glyph-name="uni10D7" unicode="&#x10d7;" horiz-adv-x="1935" 
d="M1677 -39l-383 94q72 118 107 250.5t35 243.5q0 94 -31.5 139t-85.5 45q-47 0 -74.5 -34t-27.5 -97q0 -17 2 -42.5t2 -45.5q0 -124 -48.5 -228t-129 -172t-184 -105.5t-214.5 -37.5q-88 0 -172 24t-156.5 72t-127 115t-86 158.5t-31.5 196.5q0 128 44.5 233.5
t120.5 174.5t176 107t212 38q136 0 242 -52t153 -145h6q52 94 150 145.5t231 51.5q89 0 168.5 -30t145.5 -91t104.5 -165t38.5 -239q0 -172 -48.5 -328.5t-138.5 -275.5zM645 324q81 0 126.5 56t45.5 150t-46.5 151.5t-125.5 57.5q-81 0 -126.5 -57t-45.5 -152
q0 -94 45.5 -150t126.5 -56z" />
    <glyph glyph-name="uni10D8" unicode="&#x10d8;" horiz-adv-x="1327" 
d="M606 55l-377 -94q-71 98 -114 239t-43 298q0 113 32.5 210.5t89 166.5t132 118t161.5 73t177 24t177 -24t161.5 -73t132.5 -118t89.5 -166.5t32.5 -210.5q0 -157 -43.5 -298t-115.5 -239l-375 94q117 226 117 441q0 108 -45.5 169.5t-130.5 61.5t-131 -62t-46 -169
q0 -211 119 -441z" />
    <glyph glyph-name="uni10D9" unicode="&#x10d9;" horiz-adv-x="1325" 
d="M649 -520q-141 0 -258 42t-191.5 111.5t-115.5 157t-41 180.5q0 98 39 195l379 -72q-15 -41 -15 -82q0 -81 50.5 -131.5t142.5 -50.5q90 0 138 50.5t48 135.5q0 84 -48 134.5t-134 50.5h-96v311h49q79 0 122.5 41.5t43.5 124.5q0 131 -107 258l375 154q62 -60 112 -167
t50 -229q0 -206 -176 -309v-8q101 -36 169 -134.5t68 -250.5q0 -142 -76.5 -259t-215 -185t-312.5 -68z" />
    <glyph glyph-name="uni10DA" unicode="&#x10da;" horiz-adv-x="2400" 
d="M1800 -356l-348 -168q-60 103 -172 147.5t-274 44.5h-668v273h172v8q-70 23 -131.5 56t-119 85t-98 116.5t-65 153t-24.5 191.5q0 118 28.5 213t74.5 154.5t108 99.5t125 56t129 16q114 0 206 -55t138 -161h6q37 102 119 159t194 57q118 0 202.5 -57.5t110.5 -158.5h7
q45 105 140 160.5t220 55.5q72 0 136.5 -17.5t122 -58t99.5 -100t66.5 -149t24.5 -200.5q0 -292 -127 -520l-390 135q86 182 86 369q0 93 -27.5 138.5t-74.5 45.5q-90 0 -90 -143v-287h-414v307q0 60 -25 91.5t-67 31.5q-43 0 -67.5 -32t-24.5 -91v-307h-414v297
q0 66 -24 99.5t-64 33.5q-46 0 -75 -51t-29 -162q0 -75 18 -137t48 -107.5t77 -81.5t96.5 -60t116 -43.5t125 -30.5t133.5 -21q82 -11 144.5 -23t136 -32t130 -49t111 -68.5t95.5 -96t67 -126.5z" />
    <glyph glyph-name="uni10DB" unicode="&#x10db;" horiz-adv-x="1390" 
d="M678 -29q-143 0 -258.5 45t-189.5 123t-113 180t-39 218q0 226 141 374t359 148q86 0 162.5 -32.5t119.5 -86.5h4v162q0 81 -46 124.5t-124 43.5q-70 0 -112.5 -31.5t-42.5 -85.5v-10l-418 -27q-6 27 -6 62q0 187 164 307.5t419 120.5q261 0 427.5 -152t166.5 -395v-453
q0 -154 -47 -276t-130 -199.5t-194 -118.5t-243 -41zM682 324q88 0 144.5 56.5t56.5 139.5q0 84 -56.5 139.5t-144.5 55.5q-95 0 -148 -55t-53 -140t53 -140.5t148 -55.5z" />
    <glyph glyph-name="uni10DC" unicode="&#x10dc;" horiz-adv-x="1384" 
d="M713 -29q-132 0 -243 40.5t-194.5 118t-130.5 200t-47 276.5v465q0 229 137.5 353t391.5 124h596v-325h-539q-74 0 -116 -38.5t-42 -113.5v-125h4q44 51 121 83t160 32q220 0 361 -150t141 -383q0 -113 -39 -212.5t-112 -177t-189 -122.5t-260 -45zM709 324
q94 0 147 55.5t53 140.5q0 86 -53 141.5t-147 55.5q-88 0 -145.5 -56.5t-57.5 -140.5q0 -83 57.5 -139.5t145.5 -56.5z" />
    <glyph glyph-name="uni10DD" unicode="&#x10dd;" horiz-adv-x="1845" 
d="M641 55l-383 -94q-90 119 -138 274.5t-48 329.5q0 116 28.5 208.5t75 150.5t110 96.5t128 54t133.5 15.5q131 0 228 -61t145 -169h6q50 112 139.5 171t232.5 59q72 0 137 -15.5t128 -54t109 -97t74 -150.5t28 -208q0 -172 -48.5 -328.5t-138.5 -275.5l-383 94
q72 118 107 250.5t35 243.5q0 95 -30.5 139.5t-80.5 44.5t-77.5 -39.5t-27.5 -113.5v-328h-415v328q0 72 -27.5 112.5t-75.5 40.5q-112 0 -112 -184q0 -109 35.5 -242t105.5 -252z" />
    <glyph glyph-name="uni10DE" unicode="&#x10de;" horiz-adv-x="1331" 
d="M655 -29q-141 0 -258 42.5t-191.5 113t-115.5 158.5t-41 182q0 107 39 199l379 -72q-14 -41 -14 -86q0 -83 49.5 -134.5t142.5 -51.5q90 0 138 48t48 124q0 78 -49.5 117.5t-117.5 39.5h-74v312h98q119 0 119 75q0 26 -21.5 47.5t-56 38.5t-76 37t-82.5 51.5t-74 73
t-52 109t-15 153.5h428q0 -34 21 -63t54.5 -51t73.5 -44.5t80 -49.5t73.5 -59.5t54 -81t20.5 -107.5q0 -98 -52 -163.5t-143 -92.5v-9q99 -34 160.5 -127t61.5 -233q0 -139 -80.5 -253t-219.5 -178.5t-307 -64.5z" />
    <glyph glyph-name="uni10DF" unicode="&#x10df;" horiz-adv-x="1368" 
d="M657 -520q-139 0 -253 41.5t-185 109t-109 150t-38 168.5q0 65 16 131l395 -35q-4 -32 -4 -47q0 -76 50 -119t130 -43t126 54t46 141v729l-268 -45v-4q51 -20 85 -79t34 -130q0 -80 -37.5 -141t-98 -93.5t-125.5 -48.5t-132 -16q-62 0 -121.5 15t-95.5 36l90 258
q37 -12 86 -12q43 0 73.5 22.5t30.5 59.5q0 39 -25 62.5t-67 23.5q-33 0 -57 -6l-64 288l690 113h431v-1006q0 -141 -46.5 -252.5t-129 -181.5t-191 -106.5t-236.5 -36.5z" />
    <glyph glyph-name="uni10E0" unicode="&#x10e0;" horiz-adv-x="1845" 
d="M641 55l-383 -94q-96 146 -141 314t-45 389q0 342 147 533.5t465 268.5l123 27q113 26 151 46.5t60 66.5l362 -82q-61 -287 -434 -350l-287 -39q-197 -42 -241 -152h8q69 72 197 72q98 0 179 -63t118 -167h6q50 112 139.5 171t232.5 59q72 0 137.5 -16t128.5 -54.5
t108.5 -97t73.5 -150t28 -207.5q0 -321 -187 -569l-383 94q72 118 107 239.5t35 219.5q0 95 -30 139.5t-81 44.5q-105 0 -105 -153v-293h-415v293q0 71 -27 112t-76 41q-112 0 -112 -184q0 -95 35.5 -217t105.5 -242z" />
    <glyph glyph-name="uni10E1" unicode="&#x10e1;" horiz-adv-x="1372" 
d="M721 -29q-131 0 -241.5 40.5t-194.5 118t-131.5 200t-47.5 278.5v940h429v-1011q0 -92 48.5 -150.5t133.5 -58.5q88 0 135 50t47 138q0 46 -19.5 92t-46.5 88t-53.5 90.5t-42.5 119.5t-12 155h397q-1 -62 17.5 -116t45.5 -97.5t53.5 -89.5t45.5 -111t19 -143
q0 -106 -36.5 -200t-106.5 -169.5t-183.5 -119.5t-255.5 -44z" />
    <glyph glyph-name="uni10E2" unicode="&#x10e2;" horiz-adv-x="1689" 
d="M844 -520q-167 0 -312 56.5t-249.5 158t-164 249.5t-59.5 324q0 307 157 513t431 263q-16 75 -16 146v86h428v-86q0 -58 -15 -146q274 -57 430 -263t156 -513q0 -234 -102.5 -414.5t-280.5 -277t-403 -96.5zM844 -154q158 0 258 118.5t100 303.5q0 300 -172 394
q12 -108 12 -242v-197h-393v197q0 131 10 244q-170 -89 -170 -396q0 -186 98 -304t257 -118z" />
    <glyph glyph-name="uni10E3" unicode="&#x10e3;" horiz-adv-x="1361" 
d="M659 -520q-140 0 -254 42.5t-185.5 114.5t-109.5 162.5t-38 190.5q0 121 47 221l375 -72q-21 -56 -21 -116q0 -81 49 -134t137 -53q82 0 128.5 54t46.5 141v620q0 48 -22 76.5t-64 28.5q-38 0 -61 -27t-23 -70v-280h-402v237q0 99 -96 99h-103v356h175q212 0 270 -151h8
q38 86 126 128t204 42q191 0 304.5 -120.5t113.5 -320.5v-586q-2 -139 -50 -251t-130.5 -184t-190.5 -110t-234 -38z" />
    <glyph glyph-name="uni10E4" unicode="&#x10e4;" horiz-adv-x="1806" 
d="M1042 -520q-175 0 -317 52t-228.5 157t-86.5 245q0 45 8 84l397 -14v-18q0 -83 64.5 -123.5t158.5 -40.5q102 0 168 48t66 144q0 65 -28 103t-70 43l-15 2v311h39q49 0 81 33t32 96q0 146 -109 146q-41 0 -66.5 -26.5t-25.5 -78.5q0 -10 1 -29.5t1 -29.5
q0 -140 -75 -248.5t-192.5 -163.5t-252.5 -55q-100 0 -193 33t-166 93.5t-117 154.5t-44 208q0 109 39.5 201t107 153.5t157.5 95.5t191 34q126 0 224.5 -47.5t138.5 -133.5h8q48 87 140.5 134t217.5 47q114 0 212.5 -47.5t162.5 -145t64 -227.5q0 -261 -226 -357v-6
q91 -43 141 -129t50 -203q0 -115 -55 -210.5t-147.5 -156.5t-210 -94.5t-245.5 -33.5zM592 442q66 0 105.5 44.5t39.5 113.5q0 66 -39.5 111t-105.5 45q-64 0 -103.5 -45t-39.5 -111q0 -69 39 -113.5t104 -44.5z" />
    <glyph glyph-name="uni10E5" unicode="&#x10e5;" horiz-adv-x="1380" 
d="M659 -520q-141 0 -255.5 42.5t-186 114.5t-109.5 162.5t-38 190.5q0 119 49 223l377 -70q-23 -56 -23 -120q0 -81 49 -134t137 -53q82 0 128.5 54.5t46.5 140.5v520q0 86 -40.5 136t-109.5 50q-66 0 -107.5 -40.5t-41.5 -116.5q0 -50 14 -101l-404 -61q-34 115 -34 211
q0 97 26 176.5t69 131.5t100 87t116.5 50.5t120.5 15.5q86 0 165.5 -33t120.5 -86h5v577h428v-1474q0 -140 -47 -253.5t-129 -187.5t-191 -113.5t-236 -39.5z" />
    <glyph glyph-name="uni10E6" unicode="&#x10e6;" horiz-adv-x="1845" 
d="M1462 -356l-348 -168q-112 190 -446 190h-412v273h207v10q-83 28 -151.5 77.5t-123.5 121.5t-85.5 174t-30.5 223q0 120 29 215.5t75.5 156t110 100.5t127.5 56.5t133 16.5q131 0 228 -61t145 -169h6q50 112 139.5 171t232.5 59q72 0 137.5 -15.5t128.5 -54t108.5 -97
t73.5 -150.5t28 -208q0 -293 -125 -520l-392 133q89 179 89 371q0 95 -30.5 139.5t-80.5 44.5t-77.5 -39.5t-27.5 -113.5v-273h-415v273q0 72 -27.5 112.5t-75.5 40.5q-54 0 -83 -50t-29 -169q0 -89 22.5 -161t58.5 -120.5t93 -88t112.5 -63.5t131.5 -48q59 -18 99.5 -31.5
t92.5 -34.5t89 -41.5t79 -49.5t73 -62t60 -76t51 -94z" />
    <glyph glyph-name="uni10E7" unicode="&#x10e7;" horiz-adv-x="1400" 
d="M674 -520q-137 0 -249 35.5t-184.5 96.5t-111.5 142t-39 174q0 57 16 109l398 -33v-31q0 -68 48.5 -108.5t121.5 -40.5q84 0 130 53t46 139v217h-4q-43 -54 -118 -86t-161 -32q-218 0 -356.5 153t-138.5 402q0 128 35.5 232t113.5 200l350 -129q-90 -131 -90 -281
q0 -100 49 -163.5t142 -63.5q86 0 133 53.5t47 140.5v402h428v-1004q0 -141 -46.5 -252t-129 -181.5t-192 -107t-238.5 -36.5z" />
    <glyph glyph-name="uni10E8" unicode="&#x10e8;" horiz-adv-x="1386" 
d="M674 -29q-115 0 -213 29t-168.5 80.5t-120 120.5t-74 150t-24.5 169q0 231 140.5 376.5t360.5 145.5q86 0 162.5 -30.5t118.5 -83.5h4v243q0 45 -23.5 72t-62.5 27q-38 0 -61 -26t-23 -68v-52h-401v45q0 42 -32.5 70.5t-82.5 28.5q-52 0 -96 -21l-33 324q84 35 197 35
q56 0 112 -17t106.5 -57.5t71.5 -97.5h9q39 87 127 129.5t202 42.5q192 0 306 -120.5t114 -318.5v-561q0 -154 -47 -276.5t-130.5 -200t-195 -118t-243.5 -40.5zM678 315q88 0 145.5 57t57.5 140t-57.5 139t-145.5 56q-94 0 -147.5 -55t-53.5 -140t53.5 -141t147.5 -56z" />
    <glyph glyph-name="uni10E9" unicode="&#x10e9;" horiz-adv-x="1359" 
d="M1120 -39l-383 94q70 115 106 230t36 182q0 97 -45 155t-123 58q-81 0 -128.5 -55t-47.5 -140v-485h-429v1126q0 93 27 172t75.5 135t115 95.5t144.5 58.5t165 19q139 0 255 -47t186.5 -138.5t70.5 -208.5q0 -95 -27 -159l-391 45q12 36 12 71q0 51 -27 81t-69 30
q-47 0 -77.5 -32.5t-30.5 -96.5v-240h4q44 54 113 86.5t151 32.5q206 0 346.5 -153t140.5 -388q0 -305 -170 -528z" />
    <glyph glyph-name="uni10EA" unicode="&#x10ea;" horiz-adv-x="1501" 
d="M807 -516q-346 0 -540.5 235.5t-194.5 634.5q0 241 66 433.5t153 310.5l375 -92q-179 -340 -179 -650q0 -122 18.5 -215.5t48.5 -150.5t72.5 -93t86 -49.5t94.5 -13.5q91 0 142.5 46t51.5 122q0 86 -52 129t-124 43h-108v309h139q121 0 121 101q0 39 -22.5 71.5t-54 62
t-62.5 68t-50 109t-14 166.5h428q1 -49 22.5 -89t51 -70.5t59 -65.5t50 -91t20.5 -129q0 -100 -50.5 -166.5t-142.5 -93.5v-6q99 -36 159.5 -131.5t60.5 -245.5q0 -139 -82 -251.5t-225 -175t-318 -62.5z" />
    <glyph glyph-name="uni10EB" unicode="&#x10eb;" horiz-adv-x="1392" 
d="M672 -29q-143 0 -259 44.5t-190 121.5t-113.5 178.5t-39.5 216.5q0 248 140.5 403t360.5 155q86 0 162 -32.5t121 -86.5h4v577h428v-944q0 -154 -47 -275.5t-130.5 -199t-194.5 -118t-242 -40.5zM676 328q88 0 144.5 59.5t56.5 144.5q0 87 -56.5 146t-144.5 59
q-95 0 -149 -58t-54 -147q0 -87 54 -145.5t149 -58.5z" />
    <glyph glyph-name="uni10EC" unicode="&#x10ec;" horiz-adv-x="1386" 
d="M713 -29q-132 0 -243.5 40.5t-195.5 118t-131 200t-47 276.5v561q0 198 114 318.5t306 120.5q114 0 202.5 -42.5t127.5 -129.5h8q21 57 71.5 97.5t106.5 57.5t113 17q112 0 196 -35l-32 -324q-44 21 -97 21q-50 0 -82 -28.5t-32 -70.5v-45h-402v52q0 42 -23 68t-61 26
q-39 0 -62.5 -27t-23.5 -72v-243h4q42 53 118.5 83.5t162.5 30.5q220 0 361 -145.5t141 -376.5q0 -88 -24.5 -169t-74 -150t-120 -120.5t-168.5 -80.5t-213 -29zM709 315q94 0 147 56t53 141t-53 140t-147 55q-88 0 -145.5 -56t-57.5 -139t57.5 -140t145.5 -57z" />
    <glyph glyph-name="uni10ED" unicode="&#x10ed;" horiz-adv-x="1441" 
d="M639 -520q-113 0 -210 27.5t-165.5 74t-117 108t-72 129t-23.5 136.5q0 70 19 135l395 -35q-6 -27 -6 -51q0 -80 50 -124t130 -44q81 0 127.5 54.5t46.5 136.5v325h-8q-112 -112 -318 -112q-103 0 -184.5 33.5t-131.5 91.5t-75.5 131t-25.5 155q0 80 29.5 152t86 130.5
t150 93t211.5 34.5h266v487h428v-487h207v-311h-207v-697q0 -139 -47 -249.5t-129 -180.5t-190.5 -106.5t-235.5 -36.5zM625 563q86 0 137 37.5t51 101.5v48h-217q-54 0 -85.5 -24t-31.5 -69q0 -44 39 -69t107 -25z" />
    <glyph glyph-name="uni10EE" unicode="&#x10ee;" horiz-adv-x="1392" 
d="M721 -29q-131 0 -242 40.5t-195 118t-131 199t-47 275.5v944h429v-577h4q45 54 120.5 86.5t161.5 32.5q220 0 361 -155.5t141 -402.5q0 -115 -39.5 -216.5t-113.5 -178.5t-190 -121.5t-259 -44.5zM717 328q95 0 149 58.5t54 145.5q0 89 -54 147t-149 58q-88 0 -144.5 -59
t-56.5 -146q0 -85 56.5 -144.5t144.5 -59.5z" />
    <glyph glyph-name="uni10EF" unicode="&#x10ef;" horiz-adv-x="1347" 
d="M672 -520q-142 0 -259 41.5t-190 110t-112 151.5t-39 170q0 75 18 139l395 -37q-6 -27 -6 -53q0 -78 51.5 -122t135.5 -44t133 43.5t49 114.5q0 77 -50 124.5t-134 47.5h-203v397h-365v311h365v187h418v-187h366l2 -311h-366v-121q187 -29 292 -152.5t105 -297.5
q0 -158 -81.5 -275.5t-218 -177t-306.5 -59.5z" />
    <glyph glyph-name="uni10F0" unicode="&#x10f0;" horiz-adv-x="1204" 
d="M563 -29q-259 0 -404 103t-145 264q0 49 11 92l407 -39q0 -3 -1 -7.5t-1 -6.5q0 -42 36.5 -70t96.5 -28q61 0 99 25.5t38 74.5q0 48 -37.5 72t-95.5 24h-110v279h125q38 0 59 15.5t21 41.5q0 28 -21.5 43.5t-58.5 15.5h-127v273h110q70 0 70 47q0 19 -16.5 31.5t-43 21.5
t-58 20t-63.5 31t-58.5 49.5t-43 82t-16.5 122.5h422q10 -35 46 -60.5t78 -44t83 -42t68.5 -67t27.5 -105.5q0 -77 -52 -129t-143 -64v-8q219 -26 219 -215q0 -169 -194 -203v-6q65 -12 112.5 -40.5t72.5 -67.5t36.5 -79.5t11.5 -86.5q0 -106 -73 -188.5t-200.5 -126.5
t-287.5 -44z" />
    <glyph glyph-name="uni10F1" unicode="&#x10f1;" horiz-adv-x="1527" 
d="M811 -29q-350 0 -544.5 231t-194.5 632q0 127 21 248.5t55.5 216t69.5 164t73 122.5l375 -94q-179 -353 -179 -655q0 -514 344 -514q191 0 191 100q0 43 -37.5 65.5t-95.5 22.5h-115v278h131q37 0 58.5 16t21.5 44q0 27 -22.5 43t-59.5 16h-133v273h121q65 0 65 51
q0 22 -18.5 39.5t-44.5 35.5t-52 43.5t-44.5 76.5t-18.5 122h420q6 -35 28 -64t48 -50t51 -44.5t42 -59t17 -81.5q0 -74 -51 -120t-143 -58v-8q115 -13 166 -70t51 -143q0 -171 -193 -205v-6q119 -23 175.5 -100t56.5 -172q0 -126 -86.5 -217t-228.5 -135t-320 -44z" />
    <glyph glyph-name="uni10F2" unicode="&#x10f2;" horiz-adv-x="1327" 
d="M123 -27v287q106 0 180 12v9q-119 55 -175 145t-56 195q0 203 169 336t423 133q167 0 302.5 -60t213 -167.5t77.5 -241.5q0 -100 -55.5 -191.5t-159.5 -148.5v-9q72 -12 162 -12v-287q-315 0 -540 99q-225 -99 -541 -99zM664 342q176 95 176 236q0 71 -47 119t-129 48
q-81 0 -129 -48.5t-48 -118.5q0 -140 177 -236z" />
    <glyph glyph-name="uni10F3" unicode="&#x10f3;" horiz-adv-x="1351" 
d="M676 -516q-113 0 -211 27t-169 74t-122.5 109.5t-76.5 133.5t-25 145q0 103 37 195l378 -72q-14 -38 -14 -82q0 -81 50 -130.5t143 -49.5q88 0 137 47t49 123q0 74 -49.5 115t-118.5 41h-72v311h84q131 0 131 123v156h-295v-140h-423v451h1146v-430q0 -107 -50.5 -180.5
t-141.5 -106.5v-8q97 -34 157 -128t60 -233t-80.5 -252t-219 -176t-304.5 -63z" />
    <glyph glyph-name="uni10F4" unicode="&#x10f4;" horiz-adv-x="1323" 
d="M649 -520q-140 0 -257 42t-192 111.5t-116 157t-41 180.5q0 104 39 193l379 -70q-15 -44 -15 -84q0 -81 50 -130.5t143 -49.5q88 0 137 47.5t49 122.5q0 74 -49.5 115t-118.5 41h-73v311h86q131 0 131 94q0 18 -11 36.5t-26.5 33t-45 33t-53 31t-63.5 32.5
q-63 34 -108.5 63.5t-96.5 74t-83 91.5t-53 112t-21 140q0 180 123 289t335 109q105 0 222 -25t184 -63l-150 -322q-109 57 -202 57q-86 0 -86 -61q0 -34 40.5 -64.5t133.5 -76.5q60 -29 104 -54t101.5 -67t94.5 -84t63 -100t26 -121q0 -105 -50.5 -178.5t-142.5 -106.5v-6
q96 -36 156.5 -129.5t60.5 -233.5q0 -138 -80.5 -251t-219 -176.5t-304.5 -63.5z" />
    <glyph glyph-name="uni10F5" unicode="&#x10f5;" horiz-adv-x="1468" 
d="M1446 1141v-277h-252v-135h252v-276h-252v-70q0 -97 -47 -177t-125 -130t-176.5 -77.5t-204.5 -27.5q-164 0 -292 45t-202.5 133.5t-74.5 206.5q0 171 128.5 272t362.5 101h250v135h-248q-230 0 -350.5 96.5t-120.5 256.5q0 179 152.5 280.5t400.5 101.5q153 0 275 -43.5
t197.5 -134.5t74.5 -217v-63h252zM621 1141h192v39q0 125 -160 125q-161 0 -161 -88q0 -76 129 -76zM813 401v52h-188q-156 0 -156 -91q0 -96 166 -96q93 0 135.5 32.5t42.5 102.5z" />
    <glyph glyph-name="uni10F6" unicode="&#x10f6;" horiz-adv-x="1722" 
d="M670 -496q-140 0 -226 33l5 301q27 -12 86 -12q127 0 127 104v47q-144 4 -258 49t-185.5 120.5t-109 173.5t-37.5 212q0 85 20.5 163t66 149.5t113 124.5t167.5 86t223 35v122q0 375 391 375q143 0 225 -35l-2 -299q-43 13 -86 13q-127 0 -127 -107v-69q150 -3 266 -50
t185 -125.5t104 -175.5t35 -207q0 -250 -164 -399.5t-426 -155.5v-98q0 -375 -393 -375zM662 305v459q-54 1 -95.5 -19.5t-65 -55t-35 -74.5t-11.5 -83q0 -96 54 -162t153 -65zM1063 764v-459q98 -1 151.5 65.5t53.5 161.5q0 93 -51.5 163t-153.5 69z" />
    <glyph glyph-name="uni10F7" unicode="&#x10f7;" horiz-adv-x="1308" 
d="M653 -522q-161 0 -297 67t-218.5 192t-82.5 283q0 72 16.5 136t40 110t65.5 90t76 71t89.5 57.5t88.5 45.5t89 39q53 21 84.5 35.5t64 34t47.5 41.5t15 47q0 32 -21 50t-59 18q-37 0 -57.5 -21t-20.5 -53q0 -12 5 -37l-404 -47q-12 53 -12 104q0 158 138.5 253.5
t350.5 95.5q220 0 356 -104t136 -269q0 -61 -16 -114t-48 -95t-66.5 -75t-87 -63.5t-92.5 -50.5t-98 -45q-69 -30 -109.5 -50.5t-83.5 -50.5t-63 -65t-20 -77q0 -85 54 -136t142 -51q87 0 142 51.5t55 135.5q0 60 -27 112l365 133q63 -110 63 -256q0 -127 -48 -231
t-130.5 -171t-191 -103.5t-230.5 -36.5z" />
    <glyph glyph-name="uni10F8" unicode="&#x10f8;" horiz-adv-x="1400" 
d="M727 -520q-129 0 -238.5 36.5t-192 107t-129 181.5t-46.5 252v1004h428v-402q0 -87 47 -140.5t133 -53.5q93 0 142 63.5t49 163.5q0 148 -91 281l351 129q78 -96 113.5 -200t35.5 -232q0 -249 -138.5 -402t-356.5 -153q-86 0 -161 32t-118 86h-4v-217q0 -86 46 -139
t130 -53q73 0 121.5 40.5t48.5 108.5v31l397 33q17 -55 17 -109q0 -93 -39 -174t-111.5 -142t-184.5 -96.5t-249 -35.5z" />
    <glyph glyph-name="uni10F9" unicode="&#x10f9;" horiz-adv-x="1343" 
d="M674 1092q121 0 229.5 -39.5t190.5 -111t130 -181t48 -240.5q0 -111 -36.5 -203.5t-101.5 -156.5t-149.5 -106t-185.5 -62q-112 -23 -153.5 -54t-41.5 -85q0 -37 21.5 -58.5t60.5 -21.5q38 0 59 21.5t21 53.5q0 17 -4 37l403 47q15 -66 15 -104q0 -158 -140 -253
t-354 -95q-222 0 -359 97t-137 261q0 84 42 148.5t114 101.5v6q-127 50 -200.5 164.5t-73.5 271.5q0 128 48.5 235t131 178t191.5 110t231 39zM672 725q-86 0 -142.5 -59.5t-56.5 -145.5q0 -83 57.5 -143t143.5 -60t140 59.5t54 143.5q0 86 -55 145.5t-141 59.5z" />
    <glyph glyph-name="uni10FA" unicode="&#x10fa;" horiz-adv-x="1064" 
d="M1063 104l-678 -397l-180 285l182 108l-2 9q-152 66 -232.5 184t-80.5 272q0 160 81 282.5t220.5 187.5t314.5 65q109 0 217.5 -35t169.5 -88l-221 -305q-24 30 -67.5 47.5t-86.5 17.5q-83 0 -142.5 -56.5t-59.5 -150.5q0 -93 59 -147.5t145 -54.5q49 0 84.5 14.5
t79.5 52.5z" />
    <glyph glyph-name="uni10FB" unicode="&#x10fb;" horiz-adv-x="1234" 
d="M375 608q-99 0 -169.5 68t-70.5 164t70.5 164.5t169.5 68.5q94 0 163.5 -69t69.5 -164q0 -96 -69 -164t-164 -68zM899 297q-100 0 -171 66.5t-71 162.5q0 97 71 165.5t171 68.5q94 0 162.5 -68.5t68.5 -163.5q0 -97 -68 -164t-163 -67zM375 -12q-99 0 -169.5 67.5
t-70.5 163.5t70.5 165t169.5 69q94 0 163.5 -69.5t69.5 -164.5q0 -96 -69 -163.5t-164 -67.5z" />
    <glyph glyph-name="uni10FC" unicode="&#x10fc;" horiz-adv-x="925" 
d="M483 518q-167 0 -273 93.5t-106 258.5v285q0 139 85.5 217t242.5 78h369v-225h-328q-32 0 -55 -19.5t-23 -50.5v-55h2q56 53 158 53q135 0 216 -86t81 -219q0 -138 -98 -234t-271 -96zM479 758q46 0 72.5 22.5t26.5 57.5q0 38 -26.5 61t-72.5 23q-43 0 -69.5 -23.5
t-26.5 -60.5q0 -34 27.5 -57t68.5 -23z" />
    <glyph glyph-name="uni10FD" unicode="&#x10fd;" horiz-adv-x="1355" 
d="M676 -29q-139 0 -254 39.5t-191 107t-117.5 158.5t-41.5 195q0 102 39 199l378 -66q-16 -46 -16 -98q0 -81 51.5 -131.5t145.5 -50.5q89 0 137.5 44t48.5 109q0 24 -6.5 43t-23.5 35.5t-34 28t-51.5 25t-61 22t-77.5 24.5q-150 49 -215 80q-276 135 -276 408
q0 146 78 252t204 157.5t283 51.5q154 0 278.5 -51t199.5 -151t75 -231q0 -47 -12 -116l-418 26q2 14 3.5 25t2 15.5t0.5 8.5q0 140 -131 140q-66 0 -100.5 -32.5t-34.5 -82.5q0 -60 58 -94t194 -74q53 -15 92.5 -28.5t94.5 -37t94.5 -49t82.5 -65t69.5 -84t44 -106
t17.5 -132.5q0 -234 -169.5 -374t-440.5 -140z" />
    <glyph glyph-name="uni10FE" unicode="&#x10fe;" horiz-adv-x="1327" 
d="M123 801v286q318 0 541 -98q223 98 540 98v-286q-84 0 -162 -13v-8q104 -57 159.5 -148.5t55.5 -191.5q0 -134 -77.5 -241.5t-213 -167.5t-302.5 -60q-254 0 -423 133t-169 336q0 105 56 195t175 145v8q-80 13 -180 13zM664 719q-177 -96 -177 -236q0 -70 48.5 -119
t128.5 -49q82 0 129 48.5t47 119.5q0 141 -176 236z" />
    <glyph glyph-name="uni10FF" unicode="&#x10ff;" horiz-adv-x="1323" 
d="M670 -39q-120 0 -228 39.5t-190.5 111t-131 181.5t-48.5 242q0 131 48.5 239t131 178.5t190.5 109t228 38.5q121 0 230 -38.5t192.5 -109t132.5 -179t49 -238.5q0 -132 -49 -242t-132.5 -181.5t-192.5 -111t-230 -39.5zM672 328q87 0 142.5 60t55.5 147q0 82 -56.5 142
t-143.5 60q-85 0 -141 -60t-56 -142q0 -86 56.5 -146.5t142.5 -60.5z" />
    <glyph glyph-name="uni1C90" unicode="&#x1c90;" horiz-adv-x="1374" 
d="M678 -41q-269 0 -442 152t-173 387q0 167 87 323l403 -112q-41 -87 -41 -183q0 -84 45 -138t121 -54q74 0 122 51t48 141q0 68 -22.5 126.5t-58.5 105t-79 94t-85.5 103.5t-76.5 122t-54 162t-17 211h444q0 -70 22 -135.5t57.5 -119.5t78 -109t85.5 -115t78.5 -125.5
t57.5 -153.5t22 -186q0 -246 -174.5 -396.5t-447.5 -150.5z" />
    <glyph glyph-name="uni1C91" unicode="&#x1c91;" horiz-adv-x="1400" 
d="M956 1096v-109q173 -57 275 -185.5t102 -307.5q0 -160 -86.5 -283.5t-230 -187.5t-318.5 -64q-177 0 -319 64t-226.5 187t-84.5 284q0 197 122 332.5t322 181.5v47q0 30 -12.5 54.5t-32.5 40t-43.5 34.5t-45.5 38t-39 50.5t-24 73t0 104.5h445q-4 -32 14 -58t48 -49.5
t60 -52t52 -78.5t22 -116zM700 332q80 0 130.5 47.5t50.5 116.5q0 71 -50.5 118.5t-132.5 47.5q-80 0 -129 -47.5t-49 -118.5q0 -69 50 -116.5t130 -47.5z" />
    <glyph glyph-name="uni1C92" unicode="&#x1c92;" horiz-adv-x="1413" 
d="M709 -41q-179 0 -322 63.5t-228 186.5t-85 285q0 113 42.5 204.5t118.5 152.5t173 99.5t213 55.5q81 12 120 37.5t39 70.5q0 35 -26 54.5t-66 19.5q-37 0 -62.5 -20t-25.5 -50q0 -19 2 -31l-418 -49q-14 65 -14 103q0 102 68.5 182.5t186 124t263.5 43.5q230 0 376 -99
t146 -257q0 -69 -37 -132.5t-106 -97.5v-6q129 -52 200.5 -156t71.5 -249q0 -161 -86 -284.5t-228.5 -187t-315.5 -63.5zM709 332q80 0 129 47.5t49 116.5q0 71 -50 118.5t-130 47.5t-130.5 -48t-50.5 -118q0 -69 51 -116.5t132 -47.5z" />
    <glyph glyph-name="uni1C93" unicode="&#x1c93;" horiz-adv-x="1898" 
d="M1559 135l-357 -174q-115 168 -459 168h-477v283h213v10q-84 26 -155 72.5t-128 113.5t-89.5 161.5t-32.5 205.5q0 129 40 230.5t108 162.5t152 92t177 31q120 0 215.5 -48.5t144.5 -137.5h7q39 85 144.5 135.5t240.5 50.5q228 0 378 -127.5t150 -339.5q0 -112 -45 -203
t-121 -149t-174 -89.5t-207 -31.5q-144 0 -269.5 51t-203.5 147.5t-78 217.5v26q0 56 -25 85.5t-69 29.5q-109 0 -109 -174q0 -77 23.5 -141t61.5 -108t94 -79.5t113.5 -57t127.5 -38.5q61 -15 95.5 -24t86 -24t82 -27t72.5 -30t68.5 -36t59 -43t56 -52.5t47 -62.5t42.5 -76
zM1282 885q61 0 99 35.5t38 91.5q0 55 -37.5 92t-99.5 37q-61 0 -99 -37t-38 -92q0 -56 37.5 -91.5t99.5 -35.5z" />
    <glyph glyph-name="uni1C94" unicode="&#x1c94;" horiz-adv-x="1423" 
d="M694 -41q-146 0 -266 42t-196 112.5t-117 159.5t-41 186q0 104 37 198l428 -43q-17 -66 -17 -108q0 -84 48.5 -129t127.5 -45q75 0 121.5 50t46.5 132v449q0 78 -43 117.5t-112 39.5q-67 0 -109.5 -35.5t-42.5 -103.5q0 -37 10 -70l-440 -39q-23 86 -23 156
q0 141 78 246.5t214 161t311 55.5q170 0 307 -64.5t216 -183t79 -270.5v-436q0 -137 -49 -248t-133.5 -182.5t-196 -109.5t-238.5 -38z" />
    <glyph glyph-name="uni1C95" unicode="&#x1c95;" horiz-adv-x="1413" 
d="M713 -41q-146 0 -268.5 41.5t-202.5 111t-124 158t-44 183.5q0 68 20 147l430 -49q-4 -18 -4 -53q0 -81 56.5 -127.5t136.5 -46.5q78 0 126 37t48 100q0 62 -46 94.5t-120 32.5h-72v317h68q145 0 145 109q0 57 -44.5 90t-106.5 33t-106 -36t-44 -93q0 -13 4 -37l-446 -37
q-15 68 -15 127q0 126 86.5 226t223.5 153t295 53q165 0 303.5 -55t220.5 -155t82 -222q0 -98 -54 -173t-151 -112v-8q101 -34 165 -120.5t64 -215.5q0 -133 -81.5 -241.5t-225 -170t-319.5 -61.5z" />
    <glyph glyph-name="uni1C96" unicode="&#x1c96;" horiz-adv-x="1521" 
d="M813 -41q-171 0 -312 60t-227 177t-86 271q0 147 84 254v8q-104 30 -169.5 122t-65.5 218q0 127 70 224t188.5 147.5t265.5 50.5q225 0 371.5 -113.5t146.5 -287.5q0 -93 -37 -146v-6q84 -12 158.5 -50t131 -95.5t89.5 -138t33 -173.5q0 -155 -86.5 -275t-232 -183.5
t-322.5 -63.5zM559 952q46 0 77.5 29t31.5 72q0 41 -32 69.5t-79 28.5q-46 0 -77 -28t-31 -70q0 -43 31.5 -72t78.5 -29zM823 332q80 0 129 47.5t49 116.5t-50 116t-130 47t-130 -45t-50 -118q0 -69 50.5 -116.5t131.5 -47.5z" />
    <glyph glyph-name="uni1C97" unicode="&#x1c97;" horiz-adv-x="2070" 
d="M705 -41q-165 0 -300.5 64.5t-219 191.5t-83.5 295v430q0 127 44 231.5t121.5 174t182.5 107.5t226 38q134 0 245 -53.5t160 -145.5h9q46 93 148 146t235 53q221 0 358 -148.5t137 -424.5v-281q0 -187 -49 -363t-135 -317l-406 115q146 267 146 569v303q0 92 -26.5 135
t-82.5 43q-106 0 -106 -141v-471q0 -167 -84.5 -294.5t-220.5 -192t-299 -64.5zM707 328q70 0 112.5 49t42.5 133v430q0 84 -42 133t-113 49q-75 0 -117.5 -48.5t-42.5 -133.5v-430q0 -85 42.5 -133.5t117.5 -48.5z" />
    <glyph glyph-name="uni1C98" unicode="&#x1c98;" horiz-adv-x="1421" 
d="M639 53l-401 -96q-136 326 -136 645v299q0 139 48.5 252.5t131.5 186.5t192.5 112t234.5 39q124 0 234 -39.5t194 -112t133 -186t49 -252.5v-303q0 -318 -135 -641l-406 96q94 303 94 537v311q0 107 -43 164t-118 57q-79 0 -122.5 -56.5t-43.5 -164.5v-311
q0 -234 94 -537z" />
    <glyph glyph-name="uni1C99" unicode="&#x1c99;" horiz-adv-x="1398" 
d="M698 -41q-146 0 -269 42t-202.5 111.5t-123.5 157.5t-44 183q0 65 21 147l430 -49q-6 -24 -6 -53q0 -81 56.5 -127.5t137.5 -46.5q78 0 126 43.5t48 115.5q0 70 -48 113t-124 43h-92v317h60q70 0 106.5 38t36.5 106q0 118 -86 241l395 140q144 -158 144 -369
q0 -94 -45.5 -170t-120.5 -115v-8q103 -36 165 -133t62 -235q0 -141 -82 -254t-225.5 -175.5t-319.5 -62.5z" />
    <glyph glyph-name="uni1C9A" unicode="&#x1c9a;" horiz-adv-x="2473" 
d="M1870 152l-375 -191q-130 172 -467 172h-731v299h166v10q-176 61 -282.5 200t-106.5 355q0 126 43.5 224.5t114.5 155.5t152.5 85.5t166.5 28.5q132 0 224.5 -52.5t137.5 -148.5h7q37 94 121.5 147.5t199.5 53.5q121 0 211.5 -54t124.5 -147h6q40 93 134.5 147t217.5 54
q95 0 178 -30t149.5 -89t105 -157t38.5 -224q0 -281 -129 -506l-407 140q84 167 84 348q0 70 -30 107.5t-75 37.5q-43 0 -66.5 -31.5t-23.5 -91.5v-247h-424v247q0 59 -25.5 91t-70.5 32q-42 0 -68 -32t-26 -91v-247h-424v235q0 67 -26.5 101t-67.5 34q-45 0 -73 -40.5
t-28 -131.5q0 -89 33 -157.5t86 -112t137 -75.5t167.5 -48.5t197.5 -30.5q72 -9 127.5 -17.5t123.5 -23t120.5 -33t109 -46.5t99 -62.5t80.5 -82t63 -105.5z" />
    <glyph glyph-name="uni1C9B" unicode="&#x1c9b;" horiz-adv-x="1441" 
d="M694 -41q-148 0 -268 42t-195.5 114t-116 164.5t-40.5 195.5q0 219 142 359.5t364 140.5q89 0 172 -27t129 -71h6v124q0 66 -45.5 108t-120.5 42q-64 0 -111 -28t-47 -70v-11l-442 -36q-8 40 -8 75q0 79 43.5 153t120.5 131t191.5 91.5t248.5 34.5q266 0 440 -149
t174 -377v-437q0 -135 -48 -243.5t-133 -179t-201.5 -108.5t-254.5 -38zM711 332q84 0 136 43t52 108q0 70 -51 112t-135 42q-87 0 -137 -42t-50 -110q0 -66 50.5 -109.5t134.5 -43.5z" />
    <glyph glyph-name="uni1C9C" unicode="&#x1c9c;" horiz-adv-x="1441" 
d="M748 -41q-185 0 -328 65t-226 195.5t-83 310.5v441q0 225 145 352t383 127h627v-344h-572q-137 0 -137 -117v-112h6q46 45 128 72.5t171 27.5q222 0 364 -140.5t142 -359.5q0 -103 -40.5 -195.5t-116 -165t-195.5 -115t-268 -42.5zM731 332q85 0 134.5 44t49.5 109
q0 70 -49 113t-135 43q-85 0 -136.5 -43.5t-51.5 -114.5q0 -63 52 -107t136 -44z" />
    <glyph glyph-name="uni1C9D" unicode="&#x1c9d;" horiz-adv-x="1970" 
d="M692 72l-407 -115q-86 140 -134.5 316.5t-48.5 363.5v281q0 139 37.5 249.5t104 180.5t155 106.5t193.5 36.5q57 0 111 -11t106.5 -34t97 -64.5t74.5 -97.5h8q57 109 160 158t223 49q221 0 358.5 -148.5t137.5 -424.5v-281q0 -188 -48.5 -364t-133.5 -316l-408 115
q145 260 145 569v303q0 92 -25.5 135t-82.5 43q-55 0 -81 -42.5t-26 -133.5v-565h-448v567q0 90 -26 132t-81 42t-81.5 -43.5t-26.5 -134.5v-303q0 -306 147 -569z" />
    <glyph glyph-name="uni1C9E" unicode="&#x1c9e;" horiz-adv-x="1398" 
d="M698 -41q-147 0 -270 42.5t-202.5 113t-123 159t-43.5 183.5q0 69 21 151l430 -49q-6 -27 -6 -55q0 -83 56 -131.5t138 -48.5q79 0 126.5 38t47.5 99q0 67 -51.5 100t-122.5 33h-80v313h130q96 0 96 56q0 26 -23 45t-60 34t-81 32.5t-86.5 46t-77 68.5t-53 107t-12.5 154
h438q1 -31 23 -57.5t57 -47t77 -41.5t84 -48t76.5 -60t56 -84t21.5 -113q0 -85 -52.5 -144.5t-144.5 -84.5v-8q102 -36 170 -127t68 -217t-81.5 -231t-225.5 -166.5t-320 -61.5z" />
    <glyph glyph-name="uni1C9F" unicode="&#x1c9f;" horiz-adv-x="1433" 
d="M694 -41q-282 0 -451 133.5t-169 337.5q0 55 18 119l424 -47q-2 -6 -2 -25q0 -65 49 -104t129 -39q78 0 127 46.5t49 127.5v629l-278 -37v-2q54 -22 88.5 -75.5t34.5 -119.5q0 -63 -26 -112t-66 -78.5t-93 -48.5t-102 -26t-98 -7q-77 0 -144 14t-104 35l96 258
q51 -14 98 -14q38 0 66.5 17.5t28.5 47.5q0 33 -26 48.5t-67 15.5q-25 0 -61 -4l-47 311l694 92h451v-948q0 -171 -81 -295.5t-219.5 -187t-318.5 -62.5z" />
    <glyph glyph-name="uni1CA0" unicode="&#x1ca0;" horiz-adv-x="1898" 
d="M653 70l-409 -113q-85 136 -127.5 293t-42.5 364q0 150 31 270t85 205t135.5 147.5t175 100t210.5 60.5l143 26q121 24 150 38q40 18 61 57l369 -86q-70 -296 -435 -340l-315 -39q-86 -11 -157.5 -50.5t-98.5 -95.5l6 -4q33 37 91.5 59.5t117.5 22.5q111 0 192.5 -60
t118.5 -163h7q44 104 144.5 163.5t250.5 59.5q94 0 179 -32.5t151.5 -92t105.5 -153t39 -207.5q0 -317 -164 -543l-410 113q63 104 92 210t29 185q0 76 -30.5 111.5t-75.5 35.5q-48 0 -77.5 -34.5t-29.5 -102.5v-239h-422v239q0 67 -28 102t-74 35t-77.5 -36.5t-31.5 -110.5
q0 -79 29.5 -184.5t91.5 -210.5z" />
    <glyph glyph-name="uni1CA1" unicode="&#x1ca1;" horiz-adv-x="1441" 
d="M748 -41q-136 0 -249 37.5t-197.5 111t-131.5 190.5t-47 267v885h444v-932q0 -84 50.5 -135t130.5 -51q78 0 126 48t48 126q0 49 -17.5 93.5t-41.5 84.5t-47.5 87t-37.5 120.5t-10 165.5h446q0 -63 16.5 -118t40 -99t47 -90.5t40 -114t16.5 -148.5q0 -144 -76.5 -263.5
t-221 -192t-328.5 -72.5z" />
    <glyph glyph-name="uni1CA2" unicode="&#x1ca2;" horiz-adv-x="1755" 
d="M877 -39q-169 0 -316.5 53t-255 149t-169.5 237.5t-62 310.5q0 287 155 475t430 246q-8 62 -8 106h453q0 -65 -8 -106q275 -58 430 -245t155 -478q0 -167 -62 -308t-169.5 -237t-255 -149.5t-317.5 -53.5zM877 346q158 0 256 102.5t98 270.5q0 263 -160 340
q12 -136 12 -240v-166h-407v166q0 148 10 246q-160 -76 -160 -346q0 -168 97.5 -270.5t253.5 -102.5z" />
    <glyph glyph-name="uni1CA3" unicode="&#x1ca3;" horiz-adv-x="1427" 
d="M696 -41q-146 0 -266 42t-196 113t-117 159.5t-41 185.5q0 117 37 196l426 -43q-17 -62 -17 -106q0 -82 49.5 -128t128.5 -46q75 0 122.5 49.5t47.5 132.5v537q0 50 -22.5 77t-65.5 27q-39 0 -61.5 -27t-22.5 -71v-209h-430v207q0 86 -73 86h-113v340h192
q86 0 159.5 -37.5t103.5 -116.5h6q33 80 126.5 123t202.5 43q112 0 199 -36t140 -98.5t79.5 -141t26.5 -170.5v-510q0 -138 -49.5 -249.5t-135 -182.5t-197.5 -108.5t-239 -37.5z" />
    <glyph glyph-name="uni1CA4" unicode="&#x1ca4;" horiz-adv-x="1878" 
d="M1096 -41q-135 0 -255.5 28.5t-214 83t-148 140t-54.5 192.5q0 37 6 74l449 -22v-6q0 -70 65.5 -104t161.5 -34q103 0 164 40.5t61 117.5q0 51 -26 85t-70 40l-16 2v309h34q46 0 76.5 27.5t30.5 71.5q0 47 -29.5 75.5t-75.5 28.5q-44 0 -71 -28t-27 -79q0 -5 1 -14.5
t1 -15.5q0 -120 -78.5 -215.5t-203 -146t-267.5 -50.5q-146 0 -267 52.5t-198 161t-77 255.5q0 140 69.5 246.5t187.5 161.5t265 55q135 0 240.5 -49.5t144.5 -134.5h6q44 84 148.5 134t230.5 50q187 0 315.5 -112.5t128.5 -297.5q0 -233 -207 -317v-6q81 -37 131 -119.5
t50 -196.5q0 -149 -91 -260t-244.5 -167t-346.5 -56zM612 891q61 0 98.5 35t37.5 90q0 53 -38.5 89t-97.5 36q-60 0 -97.5 -35.5t-37.5 -89.5t37.5 -89.5t97.5 -35.5z" />
    <glyph glyph-name="uni1CA5" unicode="&#x1ca5;" horiz-adv-x="1433" 
d="M694 -41q-280 0 -450 133.5t-170 337.5q0 44 18 121l424 -47q0 -4 -1 -12.5t-1 -12.5q0 -67 49.5 -106t130.5 -39q77 0 124.5 46t47.5 128v256q0 70 -45 113t-114 43q-62 0 -104 -36.5t-42 -95.5q0 -5 6 -47l-436 -36q-16 69 -16 126q0 130 62.5 228.5t165.5 148
t228 49.5q84 0 165 -29t126 -73h4v295h447v-946q0 -171 -81 -295.5t-219.5 -187t-318.5 -62.5z" />
    <glyph glyph-name="uni1CA6" unicode="&#x1ca6;" horiz-adv-x="1898" 
d="M1505 137l-356 -178q-62 93 -168.5 133.5t-263.5 40.5h-463v299h197v10q-59 21 -112 53.5t-102.5 81t-85 108t-56.5 139t-21 169.5q0 104 30.5 189.5t80 141.5t115 94.5t133 55.5t136.5 17q129 0 230 -58t151 -159h6q100 217 390 217q74 0 142 -17.5t131 -56.5t110 -96.5
t74.5 -143t27.5 -190.5q0 -279 -131 -504l-404 140q80 169 80 323q0 162 -110 162q-48 0 -75.5 -36t-27.5 -107v-222h-422v222q0 71 -27 107t-75 36q-50 0 -79.5 -40.5t-29.5 -127.5q0 -91 30.5 -160.5t90 -117t129.5 -78.5t166 -56q81 -21 143 -42t129.5 -53.5t117.5 -72
t95 -96.5t74 -127z" />
    <glyph glyph-name="uni1CA7" unicode="&#x1ca7;" horiz-adv-x="1435" 
d="M694 -41q-279 0 -448.5 130.5t-169.5 336.5q0 47 16 113l424 -47v-19q0 -65 48.5 -102t127.5 -37t126.5 44.5t47.5 123.5v205h-4q-46 -45 -129 -72t-180 -27q-93 0 -178 30t-153 86.5t-109 148t-41 204.5q0 126 27 224t87 190l408 -88q-70 -143 -70 -268q0 -85 44 -138
t126 -53q78 0 125 48t47 141v317h447v-950q0 -169 -80.5 -293t-219.5 -186t-319 -62z" />
    <glyph glyph-name="uni1CA8" unicode="&#x1ca8;" horiz-adv-x="1441" 
d="M694 -41q-148 0 -268 42t-195.5 114t-116 164.5t-40.5 195.5q0 217 141 348t365 131q89 0 172 -28t129 -72h6v207q0 42 -24.5 68t-65.5 26q-39 0 -61.5 -24.5t-22.5 -63.5v-51h-428v51q0 74 -78 74h-109v340h187q56 0 106 -14t95 -50t65 -90h6q33 80 127 123t205 43
t197.5 -36t139 -98t79 -140.5t26.5 -169.5v-521q0 -180 -83.5 -310t-226 -194.5t-327.5 -64.5zM711 332q84 0 136 42.5t52 106.5q0 70 -52 113t-134 43q-87 0 -137 -42t-50 -112q0 -65 50.5 -108t134.5 -43z" />
    <glyph glyph-name="uni1CA9" unicode="&#x1ca9;" horiz-adv-x="1419" 
d="M1192 -43l-395 100q102 186 102 344q0 96 -45.5 152.5t-122.5 56.5q-78 0 -125 -51.5t-47 -140.5v-418h-436v1042q0 86 28 159.5t78 126.5t118 90t148.5 55t168.5 18q149 0 270 -48.5t190.5 -135.5t69.5 -195q0 -60 -18 -127l-412 39q4 20 4 39q0 45 -26.5 73.5
t-71.5 28.5q-50 0 -79.5 -28.5t-29.5 -79.5v-199h4q107 103 293 103q98 0 186 -34.5t155.5 -98t107 -159.5t39.5 -212q0 -132 -42.5 -267.5t-111.5 -232.5z" />
    <glyph glyph-name="uni1CAA" unicode="&#x1caa;" horiz-adv-x="1591" 
d="M860 -39q-185 0 -334.5 62.5t-248 173.5t-151 263t-52.5 333q0 223 66 407t153 291l407 -94q-174 -310 -174 -602q0 -107 19.5 -190.5t51.5 -135t76.5 -84.5t90 -46t96.5 -13q95 0 150 37.5t55 95.5q0 68 -53.5 102.5t-128.5 34.5h-119v324h151q123 0 123 86q0 27 -12 50
t-30 41.5t-40.5 38.5t-43.5 47t-38 61.5t-25.5 87t-4.5 118.5h450q1 -46 21.5 -85t49 -69.5t57 -63.5t48 -83.5t19.5 -114.5q0 -92 -57.5 -155.5t-153.5 -87.5v-9q105 -37 172.5 -125.5t67.5 -226.5q0 -132 -85.5 -239.5t-236 -168.5t-336.5 -61z" />
    <glyph glyph-name="uni1CAB" unicode="&#x1cab;" horiz-adv-x="1443" 
d="M688 -41q-149 0 -269 43t-195.5 117.5t-115.5 170.5t-40 206q0 236 144.5 383t375.5 147q83 0 161 -29.5t123 -74.5h5v528h446v-887q0 -194 -83.5 -332.5t-225 -205t-326.5 -66.5zM705 332q80 0 134 47t54 117q0 73 -54 118t-134 45q-85 0 -135 -44t-50 -119
q0 -72 50.5 -118t134.5 -46z" />
    <glyph glyph-name="uni1CAC" unicode="&#x1cac;" horiz-adv-x="1441" 
d="M748 -41q-185 0 -327.5 64.5t-226 194.5t-83.5 310v521q0 91 26.5 169.5t79 140.5t139 98t197.5 36t205 -43t127 -123h6q20 54 65 90t95 50t106 14h186v-340h-108q-78 0 -78 -74v-51h-428v51q0 39 -22.5 63.5t-61.5 24.5q-41 0 -65.5 -26t-24.5 -68v-207h6q46 44 129 72
t172 28q224 0 365 -131t141 -348q0 -103 -40.5 -195.5t-116 -164.5t-195.5 -114t-268 -42zM731 332q84 0 134 43t50 108q0 70 -49.5 112t-136.5 42q-82 0 -134 -43t-52 -113q0 -64 52 -106.5t136 -42.5z" />
    <glyph glyph-name="uni1CAD" unicode="&#x1cad;" horiz-adv-x="1517" 
d="M694 -41q-280 0 -450 133.5t-170 335.5q0 44 18 121l424 -47q0 -4 -1 -11.5t-1 -11.5q0 -67 49.5 -106t130.5 -39q77 0 124.5 46t47.5 128v168h-4q-45 -43 -134.5 -70.5t-176.5 -27.5q-194 0 -313 92t-119 243q0 152 114 244t320 92h313v203h445v-203h192v-311h-192v-436
q0 -170 -80.5 -294t-219 -186.5t-317.5 -62.5zM684 858q77 0 130.5 29.5t53.5 85.5v18h-182q-127 0 -127 -65q0 -68 125 -68z" />
    <glyph glyph-name="uni1CAE" unicode="&#x1cae;" horiz-adv-x="1443" 
d="M756 -41q-185 0 -326 66.5t-224 205t-83 332.5v887h444v-528h4q45 45 124 74.5t163 29.5q230 0 374 -147t144 -383q0 -110 -40 -206t-115.5 -170.5t-195.5 -117.5t-269 -43zM739 332q84 0 134.5 46.5t50.5 117.5q0 72 -50 117.5t-135 45.5q-82 0 -134 -45t-52 -116
q0 -70 52.5 -118t133.5 -48z" />
    <glyph glyph-name="uni1CAF" unicode="&#x1caf;" horiz-adv-x="1406" 
d="M700 -41q-181 0 -323.5 57t-222.5 162.5t-80 241.5q0 64 16 119l430 -39q-4 -24 -4 -43q0 -70 50 -109t134 -39q83 0 132 38.5t49 103.5q0 68 -49.5 109.5t-133.5 41.5h-219v367h-373v319h373v164h443v-164h368v-319h-368v-95q195 -24 303 -137t108 -303q0 -133 -82 -242
t-227.5 -171t-323.5 -62z" />
    <glyph glyph-name="uni1CB0" unicode="&#x1cb0;" horiz-adv-x="1253" 
d="M598 -41q-267 0 -419 108t-152 271q0 50 10 86l418 -35q0 -2 -1 -4.5t-1 -3.5q0 -43 41 -68.5t104 -25.5q145 0 145 90q0 78 -133 78h-125v256h150q72 0 72 47q0 51 -72 51h-150v262h127q64 0 64 37q0 21 -23.5 35t-58.5 21.5t-75.5 26t-76 45t-59.5 82t-25 132.5h433
q12 -32 50 -56t83 -41t88.5 -39t72.5 -64t29 -103q0 -148 -190 -170v-8q110 -11 162.5 -67.5t52.5 -135.5q0 -161 -189 -191v-8q66 -11 113 -38.5t70.5 -65t34 -74t10.5 -76.5q0 -152 -165.5 -253t-414.5 -101z" />
    <glyph glyph-name="uni1CB1" unicode="&#x1cb1;" horiz-adv-x="1591" 
d="M864 -39q-186 0 -336.5 62.5t-249 173.5t-151.5 263t-53 333q0 223 66 407t153 291l407 -96q-174 -306 -174 -600q0 -135 30 -234.5t84 -157t121 -85t148 -27.5q172 0 172 86q0 39 -36.5 58.5t-96.5 19.5h-125v256h152q69 0 69 47q0 51 -69 51h-152v262h127q66 0 66 45
q0 19 -15.5 35t-38.5 28t-50 33.5t-50 48.5t-39 76t-16 113h432q8 -32 34 -58.5t55.5 -47t58.5 -44.5t48 -63t19 -90q0 -148 -194 -170v-8q111 -11 164 -67.5t53 -135.5q0 -161 -191 -191v-8q118 -19 175 -84t57 -151q0 -119 -86 -204t-232 -126t-336 -41z" />
    <glyph glyph-name="uni1CB2" unicode="&#x1cb2;" horiz-adv-x="1370" 
d="M119 -18v352q106 0 198 20v6q-113 74 -178 198.5t-65 266.5v129q0 159 84 283t222 189t304 65q167 0 305 -65t221.5 -189t83.5 -283v-129q0 -141 -65 -265t-176 -200v-6q92 -20 198 -20v-352q-291 0 -567 114q-272 -114 -565 -114zM684 481q168 135 168 346v91
q0 97 -44 150.5t-124 53.5q-78 0 -122 -53.5t-44 -150.5v-91q0 -213 166 -346z" />
    <glyph glyph-name="uni1CB3" unicode="&#x1cb3;" horiz-adv-x="1413" 
d="M713 -41q-145 0 -268 42t-202.5 111.5t-124 158t-44.5 182.5q0 68 20 147l430 -49q-4 -18 -4 -53q0 -81 56.5 -127.5t136.5 -46.5q78 0 126 38.5t48 100.5q0 64 -45 97.5t-119 33.5h-78v317h74q66 0 104.5 28.5t38.5 88.5v98h-307v-118h-436v442h1190v-383
q0 -99 -50.5 -174t-144.5 -111v-8q99 -34 162 -122t63 -216q0 -133 -81.5 -242.5t-225.5 -172t-319 -62.5z" />
    <glyph glyph-name="uni1CB4" unicode="&#x1cb4;" horiz-adv-x="1273" 
d="M618 -41q-267 0 -419 108t-152 271q0 50 10 86l418 -35q0 -2 -1 -5.5t-1 -4.5q0 -42 41 -67t104 -25q146 0 146 90q0 78 -133 78h-125v256h156q65 0 65 41q0 42 -149 73q-5 2 -9 2.5t-8 1.5q-44 10 -77 18t-78.5 23.5t-78.5 32.5t-68.5 43.5t-57.5 57.5t-36.5 73.5
t-14.5 91.5q0 138 126 230t347 92q116 0 230 -21t177 -59l-147 -262q-103 41 -215 41q-74 0 -74 -37q0 -24 35.5 -38.5t128.5 -33.5q46 -10 75 -17.5t75.5 -22t77 -29t66.5 -38t57 -50t35.5 -63t14.5 -79.5q0 -177 -188 -207v-8q118 -20 172.5 -90.5t54.5 -154.5
q0 -111 -76 -194t-206.5 -126t-297.5 -43z" />
    <glyph glyph-name="uni1CB5" unicode="&#x1cb5;" horiz-adv-x="1558" 
d="M1481 1120v-321h-252v-117h252v-320h-252q-7 -94 -58 -172t-130.5 -127.5t-177 -76.5t-201.5 -27q-168 0 -299.5 42.5t-210 129t-78.5 205.5q0 157 123.5 251.5t343.5 94.5h301v117h-299q-216 0 -330.5 88.5t-114.5 236.5q0 172 152.5 269.5t404.5 97.5q150 0 272.5 -39
t205.5 -125t94 -207h254zM659 1063h183v27q0 106 -172 106q-158 0 -158 -70q0 -19 11 -32t33 -19.5t46 -9t57 -2.5zM655 266q187 0 187 113v35h-199q-80 0 -118 -17.5t-38 -56.5q0 -74 168 -74z" />
    <glyph glyph-name="uni1CB6" unicode="&#x1cb6;" horiz-adv-x="2027" 
d="M1944 741q0 -100 -22 -193t-75 -183t-132.5 -157.5t-202 -111t-275.5 -49.5v-135h-446v135q-123 4 -225.5 32t-174 71t-127 102t-89 119.5t-54.5 129t-29 126t-8 114.5q0 95 18.5 185t68.5 184.5t126.5 166t203.5 120t290 55.5v133h446v-133q157 -7 281.5 -53t202.5 -115
t129.5 -162t72.5 -186.5t21 -194.5zM1237 1061v-623q76 1 134 28.5t90 73t47.5 97t15.5 106.5q0 147 -76.5 231t-210.5 87zM504 743q0 -137 77 -221.5t210 -85.5v623q-131 -2 -209 -83.5t-78 -232.5z" />
    <glyph glyph-name="uni1CB7" unicode="&#x1cb7;" horiz-adv-x="1411" 
d="M707 -41q-130 0 -245 36.5t-201.5 103t-136.5 168t-50 225.5q0 54 12 102t29 86t48.5 73.5t59 60.5t71.5 51t74 41.5t80.5 35t77 28.5t74.5 25q51 17 79.5 27.5t59 25.5t43.5 31t13 35q0 35 -26.5 54.5t-66.5 19.5q-38 0 -63 -19t-25 -51q0 -21 4 -35l-419 -47
q-15 69 -15 105q0 154 147 252t371 98q236 0 379.5 -101t143.5 -274q0 -57 -15 -106.5t-36 -86t-59.5 -70t-70 -54.5t-84 -45t-84.5 -36t-88 -32q-41 -15 -59 -22t-52.5 -21.5t-51 -24t-39.5 -25.5t-33.5 -30.5t-18.5 -34t-8 -41.5q0 -70 49.5 -112.5t131.5 -42.5
q84 0 134 47t50 133q0 54 -19 113l428 45q37 -94 37 -205q0 -151 -87.5 -268t-230 -177.5t-312.5 -60.5z" />
    <glyph glyph-name="uni1CB8" unicode="&#x1cb8;" horiz-adv-x="1435" 
d="M741 -41q-134 0 -247.5 36.5t-196 104t-128.5 170.5t-46 230v950h446v-317q0 -93 47 -141t125 -48q82 0 126 53t44 138q0 127 -69 268l407 88q60 -93 87.5 -191t27.5 -223q0 -113 -41 -204.5t-109 -148t-153 -86.5t-178 -30q-97 0 -180.5 27t-129.5 72h-4v-205
q0 -79 47.5 -123.5t126.5 -44.5t128 37t49 102v19l423 47q17 -70 17 -113q0 -206 -170 -336.5t-449 -130.5z" />
    <glyph glyph-name="uni1CB9" unicode="&#x1cb9;" horiz-adv-x="1413" 
d="M705 1491q179 0 322 -63.5t227.5 -186.5t84.5 -285q0 -113 -42.5 -204.5t-118.5 -152.5t-172.5 -99.5t-212.5 -55.5q-82 -12 -121 -37.5t-39 -70.5q0 -35 26 -54.5t66 -19.5q37 0 62.5 20t25.5 50q0 18 -2 30l418 50q14 -65 14 -103q0 -102 -68.5 -182.5t-186 -124
t-263.5 -43.5q-230 0 -376 99t-146 257q0 69 37 132.5t106 97.5v6q-129 52 -200.5 156t-71.5 249q0 161 86.5 284.5t229 187t315.5 63.5zM705 1118q-80 0 -129.5 -47.5t-49.5 -116.5q0 -70 50.5 -118t130.5 -48t130 47.5t50 118.5q0 69 -50.5 116.5t-131.5 47.5z" />
    <glyph glyph-name="uni1CBA" unicode="&#x1cba;" horiz-adv-x="1150" 
d="M1112 317l-750 -356l-157 334l194 92v8q-147 55 -236 195t-89 313q0 141 53.5 255t144 185.5t204 109.5t237.5 38q273 0 434 -178l-236 -277q-63 68 -163 68q-92 0 -156 -68t-64 -190q0 -114 68 -183t164 -69q99 0 192 55z" />
    <glyph glyph-name="uni1CBD" unicode="&#x1cbd;" horiz-adv-x="1366" 
d="M692 -41q-88 0 -173.5 16.5t-164.5 52.5t-140 87.5t-99 127.5t-41 167q-3 63 18 141l422 -53q-6 -27 -6 -43q0 -68 48.5 -102t129.5 -34q70 0 113 25.5t43 77.5q0 26 -14 46.5t-45 37.5t-58 28t-76 27l-41 14q-60 19 -104.5 35t-99.5 41t-94.5 51t-79.5 63.5t-65 79.5
t-40.5 97t-15.5 119q0 134 77.5 233t207 148t292.5 49q103 0 199.5 -25t177.5 -72t132.5 -125.5t55.5 -176.5q0 -59 -14 -131l-424 49q4 20 4 28q0 45 -41.5 74t-93.5 29q-56 0 -91.5 -21.5t-35.5 -60.5q0 -44 46.5 -69.5t186.5 -69.5l43 -15q78 -25 139.5 -51.5t124 -67.5
t104 -89.5t67.5 -117.5t26 -151q0 -92 -33 -169.5t-90 -132t-134 -93t-163.5 -56.5t-179.5 -18z" />
    <glyph glyph-name="uni1CBE" unicode="&#x1cbe;" horiz-adv-x="1370" 
d="M119 1116v352q293 0 565 -114q276 114 567 114v-352q-105 0 -198 -20v-6q111 -76 176 -200t65 -265v-129q0 -159 -83.5 -283t-221.5 -189t-305 -65q-166 0 -304 65t-222 189t-84 283v129q0 142 65 266.5t178 198.5v6q-92 20 -198 20zM684 969q-166 -133 -166 -346v-91
q0 -97 44 -150.5t122 -53.5q80 0 124 53.5t44 150.5v91q0 211 -168 346z" />
    <glyph glyph-name="uni1CBF" unicode="&#x1cbf;" horiz-adv-x="1652" 
d="M825 -41q-159 0 -295.5 51.5t-238 148t-159.5 244.5t-58 330t58 327t159.5 238.5t238 143t295.5 49.5q160 0 297 -49.5t239 -143t160 -238.5t58 -327t-58 -330t-160 -244.5t-239 -148t-297 -51.5zM825 371q121 0 200 98.5t79 263.5q0 163 -78.5 256.5t-200.5 93.5
q-123 0 -199.5 -93t-76.5 -257q0 -166 77.5 -264t198.5 -98z" />
    <glyph glyph-name="uni200C" unicode="&#x200c;" 
d="M0 2171l-109 -107l-32 35l106 107l-106 106l32 35l109 -109l106 107l33 -33l-106 -106l106 -107l-33 -33z" />
    <glyph glyph-name="uni200D" unicode="&#x200d;" 
d="M-156 2208h-47v141h408v-141h-47v94h-314v-94z" />
    <glyph glyph-name="uni200E" unicode="&#x200e;" 
d="M184 2208l-141 -142l-35 37l84 82h-256v47h256l-84 80l35 37z" />
    <glyph glyph-name="uni200F" unicode="&#x200f;" 
d="M-8 2116l-35 -37l-141 141l141 141l35 -37l-84 -79h256v-47h-256z" />
    <glyph glyph-name="uni2010" unicode="&#x2010;" horiz-adv-x="681" 
d="M616 406h-550v327h550v-327z" />
    <glyph glyph-name="uni2011" unicode="&#x2011;" horiz-adv-x="681" 
d="M616 406h-550v327h550v-327z" />
    <glyph glyph-name="endash" unicode="&#x2013;" horiz-adv-x="819" 
d="M758 451h-697v235h697v-235z" />
    <glyph glyph-name="emdash" unicode="&#x2014;" horiz-adv-x="1228" 
d="M1167 451h-1106v235h1106v-235z" />
    <glyph glyph-name="quoteleft" unicode="&#x2018;" horiz-adv-x="673" 
d="M446 879h-360l199 571h311z" />
    <glyph glyph-name="quoteright" unicode="&#x2019;" horiz-adv-x="673" 
d="M391 879h-313l151 571h359z" />
    <glyph glyph-name="quotesinglbase" unicode="&#x201a;" horiz-adv-x="673" 
d="M389 -258h-311l149 571h361z" />
    <glyph glyph-name="quotedblleft" unicode="&#x201c;" horiz-adv-x="1124" 
d="M446 879h-360l199 571h311zM895 879h-358l196 571h314z" />
    <glyph glyph-name="quotedblright" unicode="&#x201d;" horiz-adv-x="1124" 
d="M389 879h-313l151 571h359zM842 879h-312l150 571h360z" />
    <glyph glyph-name="quotedblbase" unicode="&#x201e;" horiz-adv-x="1124" 
d="M389 -258h-311l149 571h353zM842 -258h-314l160 571h350z" />
    <glyph glyph-name="dagger" unicode="&#x2020;" horiz-adv-x="1257" 
d="M799 -270h-350v995h-377v319h377v406h350v-406h387v-319h-387v-995z" />
    <glyph glyph-name="daggerdbl" unicode="&#x2021;" horiz-adv-x="1257" 
d="M803 -270h-348v352h-381v311h381v393h-381v312h379v352h348v-352h383v-312h-383v-393h383v-311h-381v-352z" />
    <glyph glyph-name="bullet" unicode="&#x2022;" horiz-adv-x="1024" 
d="M512 362q-151 0 -256.5 106t-105.5 257t105.5 256.5t256.5 105.5t256.5 -105.5t105.5 -256.5t-105.5 -257t-256.5 -106z" />
    <glyph glyph-name="ellipsis" unicode="&#x2026;" horiz-adv-x="2048" 
d="M344 -29q-104 0 -179 71t-75 173q0 101 75 174.5t179 73.5q100 0 174 -73.5t74 -174.5q0 -102 -73.5 -173t-174.5 -71zM1024 -29q-105 0 -179.5 71t-74.5 173q0 101 75 174.5t179 73.5q100 0 174 -73.5t74 -174.5q0 -102 -73.5 -173t-174.5 -71zM1706 -29q-104 0 -179 71
t-75 173q0 101 75 174.5t179 73.5q100 0 174 -73.5t74 -174.5q0 -102 -73.5 -173t-174.5 -71z" />
    <glyph glyph-name="uni202A" unicode="&#x202a;" 
d="M195 2210l-142 -142l-33 35l82 84h-100v47h100l-82 80l33 35zM-57 2187h-115v47h115v-47z" />
    <glyph glyph-name="uni202B" unicode="&#x202b;" 
d="M-20 2103l-33 -32l-142 139l142 139l33 -31l-82 -84h100v-47h-100zM172 2187h-115v47h115v-47z" />
    <glyph glyph-name="uni202C" unicode="&#x202c;" 
d="M23 2052h-48v207l-79 -82l-35 33l139 139l139 -139l-35 -33l-81 82v-207z" />
    <glyph glyph-name="uni202D" unicode="&#x202d;" 
d="M98 2210l-141 -142l-33 35l84 84h-219v47h217l-82 80l33 35zM229 2210l-141 -142l-31 35l109 107l-109 104l31 35z" />
    <glyph glyph-name="uni202E" unicode="&#x202e;" 
d="M-57 2101l-31 -35l-141 142l141 141l31 -35l-107 -106zM76 2101l-33 -35l-139 142l139 141l33 -35l-82 -86h217v-43h-217z" />
    <glyph glyph-name="perthousand" unicode="&#x2030;" horiz-adv-x="2576" 
d="M1341 1425l-735 -1482l-196 82l735 1488zM436 735q-155 0 -266 108.5t-111 260.5q0 155 110.5 263t266.5 108q154 0 263.5 -108t109.5 -263q0 -152 -109.5 -260.5t-263.5 -108.5zM436 981q50 0 86.5 36t36.5 87q0 53 -36.5 90t-86.5 37q-53 0 -90 -36.5t-37 -90.5
q0 -51 37 -87t90 -36zM1321 -25q-154 0 -264.5 108.5t-110.5 260.5q0 155 110.5 263t264.5 108t264.5 -108t110.5 -263q0 -152 -110.5 -260.5t-264.5 -108.5zM2142 -25q-154 0 -264.5 108.5t-110.5 260.5q0 155 110.5 263t264.5 108t264.5 -108t110.5 -263
q0 -152 -110.5 -260.5t-264.5 -108.5zM1321 221q51 0 88 36t37 87q0 54 -37 90.5t-88 36.5t-88 -36.5t-37 -90.5q0 -51 37 -87t88 -36zM2142 221q51 0 88 36t37 87q0 54 -36.5 90.5t-88.5 36.5q-53 0 -90 -36.5t-37 -90.5q0 -51 37 -87t90 -36z" />
    <glyph glyph-name="guilsinglleft" unicode="&#x2039;" horiz-adv-x="696" 
d="M635 209l-244 -158l-352 498l352 498l244 -158l-236 -340z" />
    <glyph glyph-name="guilsinglright" unicode="&#x203a;" horiz-adv-x="696" 
d="M657 549l-350 -498l-246 158l236 340l-236 340l246 158z" />
    <glyph glyph-name="fraction" unicode="&#x2044;" horiz-adv-x="204" 
d="M-158 -57l-194 82l733 1488l197 -88z" />
    <glyph glyph-name="zero.sups" unicode="&#x2070;" horiz-adv-x="903" 
d="M453 881q-91 0 -162 29.5t-114 76.5t-71 111.5t-38.5 129t-10.5 134.5t10.5 133.5t38.5 126.5t71 108.5t114 74t162 28.5q90 0 160.5 -28.5t113.5 -74t70.5 -108.5t38 -126.5t10.5 -133.5q0 -71 -10.5 -135t-38 -128.5t-70.5 -111.5t-113.5 -76.5t-160.5 -29.5zM453 1126
q38 0 61.5 38t31 87t7.5 111q0 42 -4.5 79t-15 72t-31 55.5t-49.5 20.5t-50.5 -20.5t-32 -55.5t-15.5 -72t-5 -79q0 -45 5 -83.5t15.5 -74.5t32 -57t50.5 -21z" />
    <glyph glyph-name="four.sups" unicode="&#x2074;" horiz-adv-x="903" 
d="M743 903h-258v164h-432v231l350 512h340v-518h123v-225h-123v-164zM483 1536l-161 -244h165v244h-4z" />
    <glyph glyph-name="five.sups" unicode="&#x2075;" horiz-adv-x="903" 
d="M459 881q-138 0 -244.5 71t-136.5 195l256 67q11 -41 42.5 -68.5t72.5 -27.5q39 0 65.5 21.5t26.5 62.5q0 46 -39.5 70t-110.5 24q-44 0 -117.5 -10t-128.5 -24l29 548h602v-241h-356l-6 -76q38 6 71 6q148 0 245 -75.5t97 -215.5q0 -88 -32 -153.5t-86.5 -102t-117 -54
t-132.5 -17.5z" />
    <glyph glyph-name="six.sups" unicode="&#x2076;" horiz-adv-x="903" 
d="M451 881q-164 0 -274.5 90t-110.5 250q0 143 108 292l209 297h348l-223 -284l2 -2q6 2 22 2q123 0 214.5 -84t91.5 -219q0 -107 -53.5 -186t-140.5 -117.5t-193 -38.5zM451 1118q46 0 75 29.5t29 73.5q0 43 -28.5 71.5t-75.5 28.5q-44 0 -72.5 -28.5t-28.5 -71.5
t28.5 -73t72.5 -30z" />
    <glyph glyph-name="seven.sups" unicode="&#x2077;" horiz-adv-x="903" 
d="M489 903h-331l348 666h-393v241h706v-206z" />
    <glyph glyph-name="eight.sups" unicode="&#x2078;" horiz-adv-x="903" 
d="M451 881q-72 0 -136 16.5t-116 49t-82.5 89t-30.5 129.5q0 72 39.5 127.5t107.5 83.5v2q-58 23 -95.5 73t-37.5 116q0 89 52 151t129 88.5t170 26.5q92 0 169 -26.5t129 -88t52 -149.5q0 -68 -35 -117.5t-96 -71.5v-4q66 -25 106.5 -81.5t40.5 -129.5t-30.5 -129t-83 -89
t-116.5 -49.5t-136 -16.5zM451 1468q36 0 58.5 23t22.5 55q0 29 -23 51.5t-58 22.5q-34 0 -57 -22.5t-23 -51.5q0 -32 22 -55t58 -23zM451 1098q41 0 65.5 24.5t24.5 59.5t-24.5 60.5t-65.5 25.5q-40 0 -65.5 -25.5t-25.5 -60.5t25.5 -59.5t65.5 -24.5z" />
    <glyph glyph-name="nine.sups" unicode="&#x2079;" horiz-adv-x="903" 
d="M520 903h-348l219 281l-2 6q-4 -2 -18 -2q-125 0 -215 84t-90 219q0 159 111 250.5t274 91.5q165 0 276 -89t111 -249q0 -144 -109 -295zM451 1393q45 0 72.5 30t27.5 74q0 42 -27.5 71t-72.5 29q-46 0 -75.5 -29t-29.5 -73q0 -42 30 -72t75 -30z" />
    <glyph glyph-name="plus.sups" unicode="&#x207a;" horiz-adv-x="903" 
d="M547 950h-191v277h-278v190h278v279h191v-279h276v-190h-276v-277z" />
    <glyph glyph-name="minus.sups" unicode="&#x207b;" horiz-adv-x="903" 
d="M823 1227h-745v190h745v-190z" />
    <glyph glyph-name="equal.sups" unicode="&#x207c;" horiz-adv-x="903" 
d="M823 1356h-745v190h745v-190zM823 1096h-745v188h745v-188z" />
    <glyph glyph-name="zero.subs" unicode="&#x2080;" horiz-adv-x="903" 
d="M453 -326q-91 0 -162 29.5t-114 76.5t-71 111.5t-38.5 128.5t-10.5 134t10.5 133.5t38.5 127t71 109.5t114 74.5t162 28.5q90 0 160.5 -28.5t113.5 -74.5t70.5 -109.5t38 -127t10.5 -133.5t-10.5 -133.5t-38 -128.5t-70.5 -112t-113.5 -76.5t-160.5 -29.5zM453 -80
q29 0 49.5 21t31 57t15 74t4.5 82q0 43 -4.5 80t-15 72t-31 55t-49.5 20t-50.5 -20t-32 -55t-15.5 -72t-5 -80q0 -44 5 -82t15.5 -74t32 -57t50.5 -21z" />
    <glyph glyph-name="one.subs" unicode="&#x2081;" horiz-adv-x="903" 
d="M682 -303h-287v600l-153 -111l-140 207l316 209h264v-905z" />
    <glyph glyph-name="two.subs" unicode="&#x2082;" horiz-adv-x="903" 
d="M823 -303h-712v223l364 307q45 33 45 82q0 30 -19 49t-55 19q-40 0 -66.5 -31.5t-29.5 -83.5l-272 33q11 108 69.5 185t140.5 112t179 35q69 0 130.5 -17t113 -50.5t82 -91t30.5 -132.5q0 -51 -13.5 -94t-41 -78t-52.5 -58.5t-65 -54.5l-147 -112h319v-242z" />
    <glyph glyph-name="three.subs" unicode="&#x2083;" horiz-adv-x="903" 
d="M471 -326q-92 0 -170 27t-139 90t-84 156l258 63q10 -41 40 -68.5t75 -27.5q39 0 65.5 17t26.5 53q0 44 -35.5 60.5t-101.5 16.5h-80v199h88q56 0 84 17t28 57q0 27 -20 44t-57 17q-32 0 -60 -24t-35 -62l-256 60q19 67 58.5 118t91.5 81t109 44.5t118 14.5
q63 0 120.5 -15t107 -44t79 -79.5t29.5 -115.5q0 -141 -119 -199v-4q66 -23 101.5 -77.5t35.5 -125.5q0 -74 -31.5 -132.5t-83.5 -92.5t-114 -51t-129 -17z" />
    <glyph glyph-name="four.subs" unicode="&#x2084;" horiz-adv-x="903" 
d="M743 -303h-258v164h-432v231l350 510h340v-516h123v-225h-123v-164zM483 330l-161 -244h165v244h-4z" />
    <glyph glyph-name="five.subs" unicode="&#x2085;" horiz-adv-x="903" 
d="M459 -326q-138 0 -244.5 71t-136.5 196l256 67q11 -41 42.5 -68.5t72.5 -27.5q40 0 66 21t26 61q0 94 -150 94q-43 0 -117 -10t-129 -25l29 549h602v-242h-356l-6 -73q38 6 71 6q148 0 245 -75.5t97 -215.5q0 -88 -32 -153.5t-86.5 -102.5t-117 -54.5t-132.5 -17.5z" />
    <glyph glyph-name="six.subs" unicode="&#x2086;" horiz-adv-x="903" 
d="M451 -326q-164 0 -274.5 89t-110.5 249q0 143 108 295l209 295h348l-223 -283l2 -2h22q123 0 214.5 -83t91.5 -218q0 -108 -53.5 -187t-140 -117t-193.5 -38zM451 -88q47 0 75.5 28.5t28.5 73.5q0 44 -28.5 72.5t-75.5 28.5q-44 0 -72.5 -29t-28.5 -72t28.5 -72.5
t72.5 -29.5z" />
    <glyph glyph-name="seven.subs" unicode="&#x2087;" horiz-adv-x="903" 
d="M489 -303h-331l348 663h-393v242h706v-205z" />
    <glyph glyph-name="eight.subs" unicode="&#x2088;" horiz-adv-x="903" 
d="M451 -326q-72 0 -136 16.5t-116 49.5t-82.5 89.5t-30.5 129.5q0 72 40 127t107 82v4q-59 23 -96 72.5t-37 115.5q0 88 51.5 150t129 89.5t170.5 27.5q68 0 129.5 -16t111.5 -47t79.5 -83.5t29.5 -118.5q0 -68 -35 -118t-96 -72v-2q66 -25 106.5 -81.5t40.5 -129.5
t-30.5 -129t-83 -89.5t-116.5 -50t-136 -16.5zM451 262q36 0 58.5 23t22.5 55q0 29 -23 51.5t-58 22.5q-34 0 -57 -22.5t-23 -51.5q0 -32 22 -55t58 -23zM451 -109q41 0 65.5 24.5t24.5 59.5q0 34 -24.5 60t-65.5 26q-40 0 -65.5 -25.5t-25.5 -60.5t25.5 -59.5t65.5 -24.5z
" />
    <glyph glyph-name="nine.subs" unicode="&#x2089;" horiz-adv-x="903" 
d="M520 -303h-348l219 280l-2 5h-18q-125 0 -215 84t-90 219q0 159 111 250.5t274 91.5q107 0 193 -37.5t140 -116t54 -186.5q0 -140 -109 -295zM451 186q45 0 72.5 29.5t27.5 73.5q0 43 -27.5 72.5t-72.5 29.5t-75 -29.5t-30 -72.5t30 -73t75 -30z" />
    <glyph glyph-name="plus.subs" unicode="&#x208a;" horiz-adv-x="903" 
d="M547 -258h-191v276h-278v191h278v278h191v-278h276v-191h-276v-276z" />
    <glyph glyph-name="minus.subs" unicode="&#x208b;" horiz-adv-x="903" 
d="M823 18h-745v191h745v-191z" />
    <glyph glyph-name="equal.subs" unicode="&#x208c;" horiz-adv-x="903" 
d="M823 147h-745v191h745v-191zM823 -113h-745v189h745v-189z" />
    <glyph glyph-name="Euro" unicode="&#x20ac;" horiz-adv-x="1400" 
d="M920 -41q-253 0 -425.5 127t-232.5 342h-207l82 248h94q-2 20 -2 53q0 29 4 49h-172l89 252h118q72 220 265 340.5t454 120.5q82 0 181 -14.5t159 -38.5l-125 -318q-97 39 -225 39q-86 0 -163.5 -34.5t-108.5 -94.5h495l-86 -252h-485q-2 -20 -2 -49q0 -33 2 -53h458
l-81 -248h-324q27 -58 105.5 -93.5t170.5 -35.5q158 0 254 57l66 -325q-137 -72 -358 -72z" />
    <glyph glyph-name="uni20BE" unicode="&#x20be;" horiz-adv-x="1742" 
d="M1591 0h-1450v332h187v8q-120 70 -187 195.5t-67 285.5q0 198 136 366.5t355 235.5v189h242v-142q30 3 63 3q32 0 62 -3v142h242v-187q232 -80 362.5 -260.5t130.5 -439.5h-457q0 231 -141 326v-326h-154v375q-14 2 -45 2t-47 -2v-375h-153v332q-140 -89 -140 -295
q0 -171 105.5 -270t288.5 -99h667v-393z" />
    <glyph glyph-name="trademark" unicode="&#x2122;" horiz-adv-x="2048" 
d="M557 606h-242v637h-233v207h709v-207h-234v-637zM1147 606h-223v844h325l187 -516l176 516h325v-844h-225v510h-4l-192 -510h-179l-186 510h-4v-510z" />
    <glyph glyph-name="uni2126" unicode="&#x2126;" horiz-adv-x="1615" 
d="M743 0h-632v311h278v27q-145 38 -230 174.5t-85 321.5q0 127 37.5 234t104.5 184.5t159 131.5t201 80.5t231 26.5q155 0 288 -42.5t233 -122.5t157 -206t57 -284q0 -192 -87 -328t-226 -170v-27h276v-311h-631v539q101 28 149 100t48 176q0 118 -71.5 193t-192.5 75
q-118 0 -189 -75.5t-71 -192.5q0 -104 49 -176.5t147 -99.5v-539z" />
    <glyph glyph-name="oneeighth" unicode="&#x215b;" horiz-adv-x="2017" 
d="M1475 1425l-736 -1482l-194 82l733 1488zM682 563h-287v600l-153 -110l-140 209l316 208h264v-907zM1567 -20q-73 0 -137 16t-116.5 48.5t-83 88.5t-30.5 129q0 71 40.5 126.5t107.5 84.5v2q-58 23 -94.5 73t-36.5 118q0 88 51 149.5t128 88t171 26.5q92 0 169 -26.5
t129 -88t52 -149.5q0 -67 -35.5 -117t-95.5 -72v-4q65 -26 106 -82t41 -129t-31 -128.5t-83.5 -88t-116 -49t-135.5 -16.5zM1567 567q36 0 58 22t22 54q0 30 -22 52t-58 22t-58 -22t-22 -52q0 -32 22 -54t58 -22zM1567 195q40 0 65 24.5t25 59.5t-25 60.5t-65 25.5
t-65 -25.5t-25 -60.5t25 -59.5t65 -24.5z" />
    <glyph glyph-name="threeeighths" unicode="&#x215c;" horiz-adv-x="2035" 
d="M1294 1513l195 -88l-733 -1482l-197 82zM471 504q-92 0 -170 26.5t-139 88.5t-84 155l258 66q10 -41 40 -70t75 -29q39 0 65.5 17.5t26.5 54.5q0 44 -35.5 60t-101.5 16h-80v198h88q112 0 112 74q0 28 -20 46t-57 18q-32 0 -60 -24.5t-35 -63.5l-256 59q25 90 87 150
t134.5 84t155.5 24q63 0 120.5 -15t107 -44t79 -79.5t29.5 -115.5q0 -141 -119 -199v-2q66 -23 101.5 -77.5t35.5 -124.5q0 -75 -31.5 -133.5t-83.5 -92t-114 -50.5t-129 -17zM1583 -20q-98 0 -177.5 27t-133 92.5t-53.5 162.5q0 72 39.5 127.5t107.5 83.5v2
q-58 23 -94.5 73t-36.5 118q0 88 51 149.5t127.5 88t169.5 26.5q92 0 169 -26.5t129 -88t52 -149.5q0 -68 -35 -117.5t-96 -71.5v-4q66 -25 107 -81.5t41 -129.5t-31 -128.5t-83.5 -88t-116.5 -49t-136 -16.5zM1583 567q36 0 59 22t23 54q0 30 -23 52t-59 22q-34 0 -57 -22
t-23 -52q0 -31 22.5 -53.5t57.5 -22.5zM1583 195q41 0 65.5 24.5t24.5 59.5t-24.5 60.5t-65.5 25.5q-40 0 -64 -25.5t-24 -60.5t24 -59.5t64 -24.5z" />
    <glyph glyph-name="fiveeighths" unicode="&#x215d;" horiz-adv-x="2027" 
d="M553 25l735 1488l195 -88l-733 -1482zM459 522q-138 0 -244.5 70t-136.5 194l256 68q11 -41 42.5 -68.5t72.5 -27.5q39 0 65.5 21.5t26.5 62.5q0 46 -39.5 70t-110.5 24q-43 0 -117 -10t-129 -25l29 549h602v-242h-356l-6 -73q38 6 71 6q148 0 245 -76t97 -217
q0 -70 -21.5 -126.5t-57 -93t-84 -61t-99.5 -35t-106 -10.5zM1577 -20q-73 0 -137 16t-116.5 48.5t-83 88.5t-30.5 129q0 71 40.5 126.5t107.5 84.5v2q-58 23 -94.5 73t-36.5 118q0 88 51 149.5t128 88t171 26.5q92 0 169 -26.5t129 -88t52 -149.5q0 -67 -35.5 -117
t-95.5 -72v-4q65 -26 106.5 -82t41.5 -129t-31 -128.5t-84 -88t-116.5 -49t-135.5 -16.5zM1577 567q35 0 57.5 22.5t22.5 53.5q0 30 -23 52t-57 22q-36 0 -58 -22t-22 -52q0 -32 22 -54t58 -22zM1577 195q40 0 65 24.5t25 59.5t-25 60.5t-65 25.5t-65 -25.5t-25 -60.5
t25 -59.5t65 -24.5z" />
    <glyph glyph-name="seveneighths" unicode="&#x215e;" horiz-adv-x="1859" 
d="M582 -57l-197 82l735 1488l197 -88zM489 543h-331l348 665h-393v242h706v-207zM1409 -20q-73 0 -136.5 16t-116.5 48.5t-83.5 88.5t-30.5 129q0 71 40.5 126.5t107.5 84.5v2q-58 23 -94.5 73t-36.5 118q0 88 51 149.5t128 88t171 26.5q92 0 169 -26.5t129 -88t52 -149.5
q0 -67 -35.5 -117t-95.5 -72v-4q65 -26 106.5 -82t41.5 -129t-31 -128.5t-84 -88t-116.5 -49t-135.5 -16.5zM1409 567q36 0 58 22t22 54q0 30 -22 52t-58 22t-58 -22t-22 -52q0 -32 22 -54t58 -22zM1409 195q40 0 65 24.5t25 59.5t-25 60.5t-65 25.5t-65 -25.5t-25 -60.5
t25 -59.5t65 -24.5z" />
    <glyph glyph-name="partialdiff" unicode="&#x2202;" horiz-adv-x="1519" 
d="M694 1477q138 0 247.5 -45.5t178 -118.5t113 -172t62.5 -198.5t18 -205.5q0 -72 -6 -139.5t-23 -145.5t-44.5 -145t-73 -130t-104.5 -107t-144.5 -70.5t-188.5 -26.5q-157 0 -281 62t-195 177.5t-71 266.5q0 209 137.5 343t385.5 134q116 0 198 -43q-7 89 -63 149
t-166 60q-163 0 -305 -131l-185 289q106 97 238.5 147t271.5 50zM735 315q95 0 134.5 77t41.5 224q-70 46 -153 46q-77 0 -120.5 -46t-43.5 -127q0 -83 43.5 -128.5t97.5 -45.5z" />
    <glyph glyph-name="uni2206" unicode="&#x2206;" horiz-adv-x="1497" 
d="M1483 0h-1469v250l502 1200h469l498 -1200v-250zM743 983l-239 -639h473l-232 641z" />
    <glyph glyph-name="product" unicode="&#x220f;" horiz-adv-x="1558" 
d="M479 -438h-362v2048h1329v-2048h-365v1732h-602v-1732z" />
    <glyph glyph-name="summation" unicode="&#x2211;" horiz-adv-x="1388" 
d="M1348 -438h-1293v258l582 778l-559 754v258h1247v-316h-797l498 -694l-530 -723h852v-315z" />
    <glyph glyph-name="minus" unicode="&#x2212;" horiz-adv-x="1363" 
d="M1217 481h-1070v283h1070v-283z" />
    <glyph glyph-name="uni2215" unicode="&#x2215;" horiz-adv-x="204" 
d="M578 1425l-736 -1482l-194 82l733 1488z" />
    <glyph glyph-name="uni2219" unicode="&#x2219;" horiz-adv-x="700" 
d="M354 348q-105 0 -180.5 71t-75.5 173q0 101 76 174.5t180 73.5q100 0 173 -72.5t73 -173.5q0 -103 -72.5 -174.5t-173.5 -71.5z" />
    <glyph glyph-name="radical" unicode="&#x221a;" horiz-adv-x="1210" 
d="M786 -438h-286l-287 590l-104 -48l-129 269l395 176l207 -440l309 1501h338z" />
    <glyph glyph-name="infinity" unicode="&#x221e;" horiz-adv-x="1744" 
d="M494 147q-181 0 -291.5 114t-110.5 286q0 170 106 282.5t287 112.5q121 0 212 -55.5t177 -153.5q83 98 175 154.5t213 56.5q181 0 286 -112.5t105 -282.5q0 -112 -45 -202.5t-135.5 -146t-212.5 -55.5q-206 0 -386 199q-43 -46 -78.5 -76.5t-82.5 -60.5t-101.5 -45
t-117.5 -15zM1260 422q52 0 82 33.5t30 87.5q0 56 -32 90.5t-87 34.5q-51 0 -100 -35t-104 -92q115 -119 211 -119zM492 424q87 0 204 117q-134 125 -211 125q-47 0 -79.5 -36t-32.5 -87q0 -54 32.5 -86.5t86.5 -32.5z" />
    <glyph glyph-name="integral" unicode="&#x222b;" horiz-adv-x="1327" 
d="M416 -436q-40 0 -83.5 10.5t-87.5 32t-72 62.5t-28 95q0 63 44.5 109.5t111.5 46.5q12 0 24 -2.5t20.5 -5.5t19.5 -11t16.5 -11.5t16.5 -16t14.5 -16.5t16 -20t15.5 -19q7 11 10.5 24.5t4.5 36.5t1 42t-0.5 60t-0.5 72v1002q0 60 3 110t13.5 108t27 104t45.5 90.5
t68.5 73.5t96.5 47t127 18q39 0 82.5 -10.5t87 -31.5t72 -62t28.5 -95q0 -66 -44 -112t-112 -46q-32 0 -52.5 12t-51 47.5t-41.5 45.5q-9 -16 -13.5 -53t-4 -69.5t2 -79t1.5 -60.5v-916q0 -50 -1 -89.5t-5.5 -91.5t-12.5 -93t-22 -87t-33.5 -81t-48 -68.5t-65 -54.5t-85 -34
t-106.5 -13z" />
    <glyph glyph-name="approxequal" unicode="&#x2248;" horiz-adv-x="1363" 
d="M317 592h-233q6 78 28 144.5t62.5 123t108 89t155.5 32.5q39 0 87 -9.5t75.5 -18t85.5 -27.5q151 -56 236 -56q38 0 59 26.5t27 86.5h235q-18 -213 -113 -317.5t-233 -104.5q-16 0 -34 2l-31.5 3.5t-35.5 7.5t-32.5 8.5t-36 10.5t-32 10.5t-35.5 12.5t-33 11
q-161 57 -224 57q-32 0 -54 -25.5t-32 -66.5zM313 127h-233q5 62 19.5 120t41.5 113t65 95.5t93.5 65t122.5 24.5q89 0 252 -60q167 -59 252 -59q56 0 82 86h235q-8 -58 -21 -109t-39.5 -105.5t-63 -93t-92.5 -63t-126 -24.5q-91 0 -283 69q-155 60 -217 60q-70 0 -88 -119z
" />
    <glyph glyph-name="notequal" unicode="&#x2260;" horiz-adv-x="1363" 
d="M633 152l-152 -302l-274 130l92 172h-168v294h322l96 181h-418v297h569l158 299l272 -127l-92 -172h166v-297h-317l-96 -181h413v-294h-571z" />
    <glyph glyph-name="lessequal" unicode="&#x2264;" horiz-adv-x="1363" 
d="M1204 647v-319l-1044 424v254l1044 421v-315l-581 -240zM1204 20h-1044v275h1044v-275z" />
    <glyph glyph-name="greaterequal" unicode="&#x2265;" horiz-adv-x="1363" 
d="M1204 752l-1044 -424v319l581 225l-581 240v315l1044 -421v-254zM1204 20h-1044v275h1044v-275z" />
    <glyph glyph-name="dotmath" unicode="&#x22c5;" horiz-adv-x="700" 
d="M354 348q-105 0 -180.5 71t-75.5 173q0 101 76 174.5t180 73.5q100 0 173 -72.5t73 -173.5q0 -103 -72.5 -174.5t-173.5 -71.5z" />
    <glyph glyph-name="uniFEFF" unicode="&#xfeff;" 
 />
    <glyph glyph-name="uni10D00308" horiz-adv-x="1261" 
d="M377 1202q-82 0 -139.5 56t-57.5 135q0 78 57.5 134t139.5 56q77 0 134.5 -56.5t57.5 -133.5q0 -79 -57.5 -135t-134.5 -56zM868 1202q-82 0 -139 55.5t-57 135.5q0 78 57.5 134t138.5 56q77 0 135 -56.5t58 -133.5q0 -79 -58 -135t-135 -56zM631 -29q-253 0 -410.5 127
t-157.5 328q0 81 39 192l390 -65q-13 -43 -13 -88q0 -69 38 -112.5t108 -43.5q65 0 107 38.5t42 105.5q0 39 -19.5 72.5t-50 61.5t-68 57.5t-75 67.5t-68 83.5t-50 114t-19.5 151.5h428q0 -36 19 -71t49 -66.5t66 -65t72 -74.5t65.5 -87.5t48 -110.5t18.5 -137
q0 -206 -157 -342t-402 -136z" />
    <glyph glyph-name="uni10D0_uni0301" horiz-adv-x="1261" 
d="M625 1204h-320l223 295h408zM631 -29q-253 0 -410.5 127t-157.5 328q0 81 39 192l390 -65q-13 -43 -13 -88q0 -69 38 -112.5t108 -43.5q65 0 107 38.5t42 105.5q0 39 -19.5 72.5t-50 61.5t-68 57.5t-75 67.5t-68 83.5t-50 114t-19.5 151.5h428q0 -36 19 -71t49 -66.5
t66 -65t72 -74.5t65.5 -87.5t48 -110.5t18.5 -137q0 -206 -157 -342t-402 -136z" />
    <glyph glyph-name="uni10D00304" horiz-adv-x="1261" 
d="M981 1262h-721v190h721v-190zM631 -29q-253 0 -410.5 127t-157.5 328q0 81 39 192l390 -65q-13 -43 -13 -88q0 -69 38 -112.5t108 -43.5q65 0 107 38.5t42 105.5q0 39 -19.5 72.5t-50 61.5t-68 57.5t-75 67.5t-68 83.5t-50 114t-19.5 151.5h428q0 -36 19 -71t49 -66.5
t66 -65t72 -74.5t65.5 -87.5t48 -110.5t18.5 -137q0 -206 -157 -342t-402 -136z" />
    <glyph glyph-name="uni10D003040308" horiz-adv-x="1261" 
d="M377 1593q-82 0 -139.5 56t-57.5 135q0 78 57.5 134t139.5 56q77 0 134.5 -56.5t57.5 -133.5q0 -79 -57.5 -135t-134.5 -56zM868 1593q-82 0 -139 55.5t-57 135.5q0 78 57.5 134t138.5 56q77 0 135 -56.5t58 -133.5q0 -79 -58 -135t-135 -56zM981 1262h-721v190h721v-190
zM631 -29q-253 0 -410.5 127t-157.5 328q0 81 39 192l390 -65q-13 -43 -13 -88q0 -69 38 -112.5t108 -43.5q65 0 107 38.5t42 105.5q0 39 -19.5 72.5t-50 61.5t-68 57.5t-75 67.5t-68 83.5t-50 114t-19.5 151.5h428q0 -36 19 -71t49 -66.5t66 -65t72 -74.5t65.5 -87.5
t48 -110.5t18.5 -137q0 -206 -157 -342t-402 -136z" />
    <glyph glyph-name="uni10D4_uni0301" horiz-adv-x="1357" 
d="M696 1204h-319l223 295h408zM657 -520q-141 0 -254.5 42t-185 113.5t-109.5 162.5t-38 192q0 119 49 223l377 -70q-23 -56 -23 -120q0 -81 49 -134t137 -53q81 0 126.5 55t45.5 142v530q0 83 -42 127.5t-107 44.5q-67 0 -109.5 -40.5t-42.5 -116.5q0 -26 15 -99l-404 -61
q-35 119 -35 192q0 219 162 349.5t418 130.5q248 0 411 -151t163 -392v-471q0 -187 -81.5 -324t-216.5 -204.5t-305 -67.5z" />
    <glyph glyph-name="uni10D40304" horiz-adv-x="1357" 
d="M1053 1262h-721v190h721v-190zM657 -520q-141 0 -254.5 42t-185 113.5t-109.5 162.5t-38 192q0 119 49 223l377 -70q-23 -56 -23 -120q0 -81 49 -134t137 -53q81 0 126.5 55t45.5 142v530q0 83 -42 127.5t-107 44.5q-67 0 -109.5 -40.5t-42.5 -116.5q0 -26 15 -99
l-404 -61q-35 119 -35 192q0 219 162 349.5t418 130.5q248 0 411 -151t163 -392v-471q0 -187 -81.5 -324t-216.5 -204.5t-305 -67.5z" />
    <glyph glyph-name="uni10D8_uni0301" horiz-adv-x="1327" 
d="M670 1204h-320l223 295h408zM606 55l-377 -94q-71 98 -114 239t-43 298q0 113 32.5 210.5t89 166.5t132 118t161.5 73t177 24t177 -24t161.5 -73t132.5 -118t89.5 -166.5t32.5 -210.5q0 -157 -43.5 -298t-115.5 -239l-375 94q117 226 117 441q0 108 -45.5 169.5
t-130.5 61.5t-131 -62t-46 -169q0 -211 119 -441z" />
    <glyph glyph-name="uni10D80304" horiz-adv-x="1327" 
d="M1026 1262h-721v190h721v-190zM606 55l-377 -94q-71 98 -114 239t-43 298q0 113 32.5 210.5t89 166.5t132 118t161.5 73t177 24t177 -24t161.5 -73t132.5 -118t89.5 -166.5t32.5 -210.5q0 -157 -43.5 -298t-115.5 -239l-375 94q117 226 117 441q0 108 -45.5 169.5
t-130.5 61.5t-131 -62t-46 -169q0 -211 119 -441z" />
    <glyph glyph-name="uni10DD0308" horiz-adv-x="1845" 
d="M678 1202q-82 0 -139.5 56t-57.5 135q0 78 57.5 134t139.5 56q77 0 134.5 -56.5t57.5 -133.5q0 -79 -57.5 -135t-134.5 -56zM1169 1202q-82 0 -139 55.5t-57 135.5q0 78 57.5 134t138.5 56q77 0 135 -56.5t58 -133.5q0 -79 -58 -135t-135 -56zM641 55l-383 -94
q-90 119 -138 274.5t-48 329.5q0 116 28.5 208.5t75 150.5t110 96.5t128 54t133.5 15.5q131 0 228 -61t145 -169h6q50 112 139.5 171t232.5 59q72 0 137 -15.5t128 -54t109 -97t74 -150.5t28 -208q0 -172 -48.5 -328.5t-138.5 -275.5l-383 94q72 118 107 250.5t35 243.5
q0 95 -30.5 139.5t-80.5 44.5t-77.5 -39.5t-27.5 -113.5v-328h-415v328q0 72 -27.5 112.5t-75.5 40.5q-112 0 -112 -184q0 -109 35.5 -242t105.5 -252z" />
    <glyph glyph-name="uni10DD_uni0301" horiz-adv-x="1845" 
d="M926 1204h-320l223 295h408zM641 55l-383 -94q-90 119 -138 274.5t-48 329.5q0 116 28.5 208.5t75 150.5t110 96.5t128 54t133.5 15.5q131 0 228 -61t145 -169h6q50 112 139.5 171t232.5 59q72 0 137 -15.5t128 -54t109 -97t74 -150.5t28 -208q0 -172 -48.5 -328.5
t-138.5 -275.5l-383 94q72 118 107 250.5t35 243.5q0 95 -30.5 139.5t-80.5 44.5t-77.5 -39.5t-27.5 -113.5v-328h-415v328q0 72 -27.5 112.5t-75.5 40.5q-112 0 -112 -184q0 -109 35.5 -242t105.5 -252z" />
    <glyph glyph-name="uni10DD0304" horiz-adv-x="1845" 
d="M1282 1262h-721v190h721v-190zM641 55l-383 -94q-90 119 -138 274.5t-48 329.5q0 116 28.5 208.5t75 150.5t110 96.5t128 54t133.5 15.5q131 0 228 -61t145 -169h6q50 112 139.5 171t232.5 59q72 0 137 -15.5t128 -54t109 -97t74 -150.5t28 -208q0 -172 -48.5 -328.5
t-138.5 -275.5l-383 94q72 118 107 250.5t35 243.5q0 95 -30.5 139.5t-80.5 44.5t-77.5 -39.5t-27.5 -113.5v-328h-415v328q0 72 -27.5 112.5t-75.5 40.5q-112 0 -112 -184q0 -109 35.5 -242t105.5 -252z" />
    <glyph glyph-name="uni10DD03040308" horiz-adv-x="1845" 
d="M678 1593q-82 0 -139.5 56t-57.5 135q0 78 57.5 134t139.5 56q77 0 134.5 -56.5t57.5 -133.5q0 -79 -57.5 -135t-134.5 -56zM1169 1593q-82 0 -139 55.5t-57 135.5q0 78 57.5 134t138.5 56q77 0 135 -56.5t58 -133.5q0 -79 -58 -135t-135 -56zM1282 1262h-721v190h721
v-190zM641 55l-383 -94q-90 119 -138 274.5t-48 329.5q0 116 28.5 208.5t75 150.5t110 96.5t128 54t133.5 15.5q131 0 228 -61t145 -169h6q50 112 139.5 171t232.5 59q72 0 137 -15.5t128 -54t109 -97t74 -150.5t28 -208q0 -172 -48.5 -328.5t-138.5 -275.5l-383 94
q72 118 107 250.5t35 243.5q0 95 -30.5 139.5t-80.5 44.5t-77.5 -39.5t-27.5 -113.5v-328h-415v328q0 72 -27.5 112.5t-75.5 40.5q-112 0 -112 -184q0 -109 35.5 -242t105.5 -252z" />
    <glyph glyph-name="uni10E30308" horiz-adv-x="1361" 
d="M406 1202q-82 0 -139.5 56t-57.5 135q0 78 57.5 134t139.5 56q77 0 134.5 -56.5t57.5 -133.5q0 -79 -57.5 -135t-134.5 -56zM897 1202q-82 0 -139.5 56t-57.5 135q0 78 57.5 134t139.5 56q77 0 135 -56.5t58 -133.5q0 -79 -58 -135t-135 -56zM659 -520q-140 0 -254 42.5
t-185.5 114.5t-109.5 162.5t-38 190.5q0 121 47 221l375 -72q-21 -56 -21 -116q0 -81 49 -134t137 -53q82 0 128.5 54t46.5 141v620q0 48 -22 76.5t-64 28.5q-38 0 -61 -27t-23 -70v-280h-402v237q0 99 -96 99h-103v356h175q212 0 270 -151h8q38 86 126 128t204 42
q191 0 304.5 -120.5t113.5 -320.5v-586q-2 -139 -50 -251t-130.5 -184t-190.5 -110t-234 -38z" />
    <glyph glyph-name="uni10E3_uni0301" horiz-adv-x="1361" 
d="M653 1204h-319l223 295h408zM659 -520q-140 0 -254 42.5t-185.5 114.5t-109.5 162.5t-38 190.5q0 121 47 221l375 -72q-21 -56 -21 -116q0 -81 49 -134t137 -53q82 0 128.5 54t46.5 141v620q0 48 -22 76.5t-64 28.5q-38 0 -61 -27t-23 -70v-280h-402v237q0 99 -96 99
h-103v356h175q212 0 270 -151h8q38 86 126 128t204 42q191 0 304.5 -120.5t113.5 -320.5v-586q-2 -139 -50 -251t-130.5 -184t-190.5 -110t-234 -38z" />
    <glyph glyph-name="uni10E30302" horiz-adv-x="1361" 
d="M510 1204h-297l272 295h334l266 -295h-301l-137 148zM659 -520q-140 0 -254 42.5t-185.5 114.5t-109.5 162.5t-38 190.5q0 121 47 221l375 -72q-21 -56 -21 -116q0 -81 49 -134t137 -53q82 0 128.5 54t46.5 141v620q0 48 -22 76.5t-64 28.5q-38 0 -61 -27t-23 -70v-280
h-402v237q0 99 -96 99h-103v356h175q212 0 270 -151h8q38 86 126 128t204 42q191 0 304.5 -120.5t113.5 -320.5v-586q-2 -139 -50 -251t-130.5 -184t-190.5 -110t-234 -38z" />
    <glyph glyph-name="uni10E30304" horiz-adv-x="1361" 
d="M1010 1262h-721v190h721v-190zM659 -520q-140 0 -254 42.5t-185.5 114.5t-109.5 162.5t-38 190.5q0 121 47 221l375 -72q-21 -56 -21 -116q0 -81 49 -134t137 -53q82 0 128.5 54t46.5 141v620q0 48 -22 76.5t-64 28.5q-38 0 -61 -27t-23 -70v-280h-402v237q0 99 -96 99
h-103v356h175q212 0 270 -151h8q38 86 126 128t204 42q191 0 304.5 -120.5t113.5 -320.5v-586q-2 -139 -50 -251t-130.5 -184t-190.5 -110t-234 -38z" />
    <glyph glyph-name="uni10E303040308" horiz-adv-x="1361" 
d="M406 1593q-82 0 -139.5 56t-57.5 135q0 78 57.5 134t139.5 56q77 0 134.5 -56.5t57.5 -133.5q0 -79 -57.5 -135t-134.5 -56zM897 1593q-82 0 -139.5 56t-57.5 135q0 78 57.5 134t139.5 56q77 0 135 -56.5t58 -133.5q0 -79 -58 -135t-135 -56zM1010 1262h-721v190h721
v-190zM659 -520q-140 0 -254 42.5t-185.5 114.5t-109.5 162.5t-38 190.5q0 121 47 221l375 -72q-21 -56 -21 -116q0 -81 49 -134t137 -53q82 0 128.5 54t46.5 141v620q0 48 -22 76.5t-64 28.5q-38 0 -61 -27t-23 -70v-280h-402v237q0 99 -96 99h-103v356h175q212 0 270 -151
h8q38 86 126 128t204 42q191 0 304.5 -120.5t113.5 -320.5v-586q-2 -139 -50 -251t-130.5 -184t-190.5 -110t-234 -38z" />
    <glyph glyph-name="uni10F7_uni0301" horiz-adv-x="1308" 
d="M659 1204h-319l223 295h408zM653 -522q-161 0 -297 67t-218.5 192t-82.5 283q0 72 16.5 136t40 110t65.5 90t76 71t89.5 57.5t88.5 45.5t89 39q53 21 84.5 35.5t64 34t47.5 41.5t15 47q0 32 -21 50t-59 18q-37 0 -57.5 -21t-20.5 -53q0 -12 5 -37l-404 -47
q-12 53 -12 104q0 158 138.5 253.5t350.5 95.5q220 0 356 -104t136 -269q0 -61 -16 -114t-48 -95t-66.5 -75t-87 -63.5t-92.5 -50.5t-98 -45q-69 -30 -109.5 -50.5t-83.5 -50.5t-63 -65t-20 -77q0 -85 54 -136t142 -51q87 0 142 51.5t55 135.5q0 60 -27 112l365 133
q63 -110 63 -256q0 -127 -48 -231t-130.5 -171t-191 -103.5t-230.5 -36.5z" />
    <glyph glyph-name="uni10F70304" horiz-adv-x="1308" 
d="M1016 1262h-721v190h721v-190zM653 -522q-161 0 -297 67t-218.5 192t-82.5 283q0 72 16.5 136t40 110t65.5 90t76 71t89.5 57.5t88.5 45.5t89 39q53 21 84.5 35.5t64 34t47.5 41.5t15 47q0 32 -21 50t-59 18q-37 0 -57.5 -21t-20.5 -53q0 -12 5 -37l-404 -47
q-12 53 -12 104q0 158 138.5 253.5t350.5 95.5q220 0 356 -104t136 -269q0 -61 -16 -114t-48 -95t-66.5 -75t-87 -63.5t-92.5 -50.5t-98 -45q-69 -30 -109.5 -50.5t-83.5 -50.5t-63 -65t-20 -77q0 -85 54 -136t142 -51q87 0 142 51.5t55 135.5q0 60 -27 112l365 133
q63 -110 63 -256q0 -127 -48 -231t-130.5 -171t-191 -103.5t-230.5 -36.5z" />
    <glyph glyph-name="uni10D00308.case" horiz-adv-x="1374" 
d="M414 1561q-82 0 -139.5 56t-57.5 136q0 77 58 134t139 57q77 0 134.5 -56.5t57.5 -134.5q0 -81 -57 -136.5t-135 -55.5zM905 1561q-82 0 -139 56t-57 136q0 77 57.5 134t138.5 57q77 0 135 -57t58 -134q0 -80 -57.5 -136t-135.5 -56zM678 -41q-269 0 -442 152t-173 387
q0 167 87 323l403 -112q-41 -87 -41 -183q0 -84 45 -138t121 -54q74 0 122 51t48 141q0 68 -22.5 126.5t-58.5 105t-79 94t-85.5 103.5t-76.5 122t-54 162t-17 211h444q0 -70 22 -135.5t57.5 -119.5t78 -109t85.5 -115t78.5 -125.5t57.5 -153.5t22 -186
q0 -246 -174.5 -396.5t-447.5 -150.5z" />
    <glyph glyph-name="uni10D0_uni0301.case" horiz-adv-x="1374" 
d="M662 1565h-320l223 295h408zM678 -41q-269 0 -442 152t-173 387q0 167 87 323l403 -112q-41 -87 -41 -183q0 -84 45 -138t121 -54q74 0 122 51t48 141q0 68 -22.5 126.5t-58.5 105t-79 94t-85.5 103.5t-76.5 122t-54 162t-17 211h444q0 -70 22 -135.5t57.5 -119.5
t78 -109t85.5 -115t78.5 -125.5t57.5 -153.5t22 -186q0 -246 -174.5 -396.5t-447.5 -150.5z" />
    <glyph glyph-name="uni10D00304.case" horiz-adv-x="1374" 
d="M1018 1622h-721v190h721v-190zM678 -41q-269 0 -442 152t-173 387q0 167 87 323l403 -112q-41 -87 -41 -183q0 -84 45 -138t121 -54q74 0 122 51t48 141q0 68 -22.5 126.5t-58.5 105t-79 94t-85.5 103.5t-76.5 122t-54 162t-17 211h444q0 -70 22 -135.5t57.5 -119.5
t78 -109t85.5 -115t78.5 -125.5t57.5 -153.5t22 -186q0 -246 -174.5 -396.5t-447.5 -150.5z" />
    <glyph glyph-name="uni10D003040308.case" horiz-adv-x="1374" 
d="M414 1923q-82 0 -139.5 56.5t-57.5 136.5q0 77 58 133.5t139 56.5q77 0 134.5 -56.5t57.5 -133.5q0 -81 -57 -137t-135 -56zM905 1923q-82 0 -139 56.5t-57 136.5q0 77 57.5 133.5t138.5 56.5q77 0 135 -56.5t58 -133.5q0 -81 -57.5 -137t-135.5 -56zM1018 1622h-721v190
h721v-190zM678 -41q-269 0 -442 152t-173 387q0 167 87 323l403 -112q-41 -87 -41 -183q0 -84 45 -138t121 -54q74 0 122 51t48 141q0 68 -22.5 126.5t-58.5 105t-79 94t-85.5 103.5t-76.5 122t-54 162t-17 211h444q0 -70 22 -135.5t57.5 -119.5t78 -109t85.5 -115
t78.5 -125.5t57.5 -153.5t22 -186q0 -246 -174.5 -396.5t-447.5 -150.5z" />
    <glyph glyph-name="uni10D4_uni0301.case" horiz-adv-x="1423" 
d="M702 1565h-319l223 295h408zM694 -41q-146 0 -266 42t-196 112.5t-117 159.5t-41 186q0 104 37 198l428 -43q-17 -66 -17 -108q0 -84 48.5 -129t127.5 -45q75 0 121.5 50t46.5 132v449q0 78 -43 117.5t-112 39.5q-67 0 -109.5 -35.5t-42.5 -103.5q0 -37 10 -70l-440 -39
q-23 86 -23 156q0 141 78 246.5t214 161t311 55.5q170 0 307 -64.5t216 -183t79 -270.5v-436q0 -137 -49 -248t-133.5 -182.5t-196 -109.5t-238.5 -38z" />
    <glyph glyph-name="uni10D40304.case" horiz-adv-x="1423" 
d="M1059 1622h-721v190h721v-190zM694 -41q-146 0 -266 42t-196 112.5t-117 159.5t-41 186q0 104 37 198l428 -43q-17 -66 -17 -108q0 -84 48.5 -129t127.5 -45q75 0 121.5 50t46.5 132v449q0 78 -43 117.5t-112 39.5q-67 0 -109.5 -35.5t-42.5 -103.5q0 -37 10 -70
l-440 -39q-23 86 -23 156q0 141 78 246.5t214 161t311 55.5q170 0 307 -64.5t216 -183t79 -270.5v-436q0 -137 -49 -248t-133.5 -182.5t-196 -109.5t-238.5 -38z" />
    <glyph glyph-name="uni10D8_uni0301.case" horiz-adv-x="1421" 
d="M713 1565h-320l223 295h408zM639 53l-401 -96q-136 326 -136 645v299q0 139 48.5 252.5t131.5 186.5t192.5 112t234.5 39q124 0 234 -39.5t194 -112t133 -186t49 -252.5v-303q0 -318 -135 -641l-406 96q94 303 94 537v311q0 107 -43 164t-118 57q-79 0 -122.5 -56.5
t-43.5 -164.5v-311q0 -234 94 -537z" />
    <glyph glyph-name="uni10D80304.case" horiz-adv-x="1421" 
d="M1069 1622h-721v190h721v-190zM639 53l-401 -96q-136 326 -136 645v299q0 139 48.5 252.5t131.5 186.5t192.5 112t234.5 39q124 0 234 -39.5t194 -112t133 -186t49 -252.5v-303q0 -318 -135 -641l-406 96q94 303 94 537v311q0 107 -43 164t-118 57q-79 0 -122.5 -56.5
t-43.5 -164.5v-311q0 -234 94 -537z" />
    <glyph glyph-name="uni10DD0308.case" horiz-adv-x="1970" 
d="M741 1561q-82 0 -139 56t-57 136q0 77 57.5 134t138.5 57q77 0 135 -57t58 -134q0 -80 -57.5 -136t-135.5 -56zM1233 1561q-82 0 -139.5 56t-57.5 136q0 77 58 134t139 57q77 0 134.5 -56.5t57.5 -134.5q0 -81 -57 -136.5t-135 -55.5zM692 72l-407 -115
q-86 140 -134.5 316.5t-48.5 363.5v281q0 139 37.5 249.5t104 180.5t155 106.5t193.5 36.5q57 0 111 -11t106.5 -34t97 -64.5t74.5 -97.5h8q57 109 160 158t223 49q221 0 358.5 -148.5t137.5 -424.5v-281q0 -188 -48.5 -364t-133.5 -316l-408 115q145 260 145 569v303
q0 92 -25.5 135t-82.5 43q-55 0 -81 -42.5t-26 -133.5v-565h-448v567q0 90 -26 132t-81 42t-81.5 -43.5t-26.5 -134.5v-303q0 -306 147 -569z" />
    <glyph glyph-name="uni10DD_uni0301.case" horiz-adv-x="1970" 
d="M989 1565h-319l223 295h407zM692 72l-407 -115q-86 140 -134.5 316.5t-48.5 363.5v281q0 139 37.5 249.5t104 180.5t155 106.5t193.5 36.5q57 0 111 -11t106.5 -34t97 -64.5t74.5 -97.5h8q57 109 160 158t223 49q221 0 358.5 -148.5t137.5 -424.5v-281q0 -188 -48.5 -364
t-133.5 -316l-408 115q145 260 145 569v303q0 92 -25.5 135t-82.5 43q-55 0 -81 -42.5t-26 -133.5v-565h-448v567q0 90 -26 132t-81 42t-81.5 -43.5t-26.5 -134.5v-303q0 -306 147 -569z" />
    <glyph glyph-name="uni10DD0304.case" horiz-adv-x="1970" 
d="M1346 1622h-721v190h721v-190zM692 72l-407 -115q-86 140 -134.5 316.5t-48.5 363.5v281q0 139 37.5 249.5t104 180.5t155 106.5t193.5 36.5q57 0 111 -11t106.5 -34t97 -64.5t74.5 -97.5h8q57 109 160 158t223 49q221 0 358.5 -148.5t137.5 -424.5v-281
q0 -188 -48.5 -364t-133.5 -316l-408 115q145 260 145 569v303q0 92 -25.5 135t-82.5 43q-55 0 -81 -42.5t-26 -133.5v-565h-448v567q0 90 -26 132t-81 42t-81.5 -43.5t-26.5 -134.5v-303q0 -306 147 -569z" />
    <glyph glyph-name="uni10DD03040308.case" horiz-adv-x="1970" 
d="M741 1923q-82 0 -139 56.5t-57 136.5q0 77 57.5 133.5t138.5 56.5q77 0 135 -56.5t58 -133.5q0 -81 -57.5 -137t-135.5 -56zM1233 1923q-82 0 -139.5 56.5t-57.5 136.5q0 77 58 133.5t139 56.5q77 0 134.5 -56.5t57.5 -133.5q0 -81 -57 -137t-135 -56zM1346 1622h-721
v190h721v-190zM692 72l-407 -115q-86 140 -134.5 316.5t-48.5 363.5v281q0 139 37.5 249.5t104 180.5t155 106.5t193.5 36.5q57 0 111 -11t106.5 -34t97 -64.5t74.5 -97.5h8q57 109 160 158t223 49q221 0 358.5 -148.5t137.5 -424.5v-281q0 -188 -48.5 -364t-133.5 -316
l-408 115q145 260 145 569v303q0 92 -25.5 135t-82.5 43q-55 0 -81 -42.5t-26 -133.5v-565h-448v567q0 90 -26 132t-81 42t-81.5 -43.5t-26.5 -134.5v-303q0 -306 147 -569z" />
    <glyph glyph-name="uni10E30308.case" horiz-adv-x="1427" 
d="M428 1561q-82 0 -139.5 56t-57.5 136q0 77 58 134t139 57q77 0 135 -57t58 -134q0 -80 -57.5 -136t-135.5 -56zM920 1561q-82 0 -139.5 56t-57.5 136q0 77 58 134t139 57q77 0 134.5 -56.5t57.5 -134.5q0 -81 -57 -136.5t-135 -55.5zM696 -41q-146 0 -266 42t-196 113
t-117 159.5t-41 185.5q0 117 37 196l426 -43q-17 -62 -17 -106q0 -82 49.5 -128t128.5 -46q75 0 122.5 49.5t47.5 132.5v537q0 50 -22.5 77t-65.5 27q-39 0 -61.5 -27t-22.5 -71v-209h-430v207q0 86 -73 86h-113v340h192q86 0 159.5 -37.5t103.5 -116.5h6q33 80 126.5 123
t202.5 43q112 0 199 -36t140 -98.5t79.5 -141t26.5 -170.5v-510q0 -138 -49.5 -249.5t-135 -182.5t-197.5 -108.5t-239 -37.5z" />
    <glyph glyph-name="uni10E3_uni0301.case" horiz-adv-x="1427" 
d="M676 1565h-320l224 295h407zM696 -41q-146 0 -266 42t-196 113t-117 159.5t-41 185.5q0 117 37 196l426 -43q-17 -62 -17 -106q0 -82 49.5 -128t128.5 -46q75 0 122.5 49.5t47.5 132.5v537q0 50 -22.5 77t-65.5 27q-39 0 -61.5 -27t-22.5 -71v-209h-430v207q0 86 -73 86
h-113v340h192q86 0 159.5 -37.5t103.5 -116.5h6q33 80 126.5 123t202.5 43q112 0 199 -36t140 -98.5t79.5 -141t26.5 -170.5v-510q0 -138 -49.5 -249.5t-135 -182.5t-197.5 -108.5t-239 -37.5z" />
    <glyph glyph-name="uni10E30302.case" horiz-adv-x="1427" 
d="M532 1565h-296l272 295h334l266 -295h-301l-137 147zM696 -41q-146 0 -266 42t-196 113t-117 159.5t-41 185.5q0 117 37 196l426 -43q-17 -62 -17 -106q0 -82 49.5 -128t128.5 -46q75 0 122.5 49.5t47.5 132.5v537q0 50 -22.5 77t-65.5 27q-39 0 -61.5 -27t-22.5 -71
v-209h-430v207q0 86 -73 86h-113v340h192q86 0 159.5 -37.5t103.5 -116.5h6q33 80 126.5 123t202.5 43q112 0 199 -36t140 -98.5t79.5 -141t26.5 -170.5v-510q0 -138 -49.5 -249.5t-135 -182.5t-197.5 -108.5t-239 -37.5z" />
    <glyph glyph-name="uni10E30304.case" horiz-adv-x="1427" 
d="M1032 1622h-721v190h721v-190zM696 -41q-146 0 -266 42t-196 113t-117 159.5t-41 185.5q0 117 37 196l426 -43q-17 -62 -17 -106q0 -82 49.5 -128t128.5 -46q75 0 122.5 49.5t47.5 132.5v537q0 50 -22.5 77t-65.5 27q-39 0 -61.5 -27t-22.5 -71v-209h-430v207
q0 86 -73 86h-113v340h192q86 0 159.5 -37.5t103.5 -116.5h6q33 80 126.5 123t202.5 43q112 0 199 -36t140 -98.5t79.5 -141t26.5 -170.5v-510q0 -138 -49.5 -249.5t-135 -182.5t-197.5 -108.5t-239 -37.5z" />
    <glyph glyph-name="uni10E303040308.case" horiz-adv-x="1427" 
d="M428 1923q-82 0 -139.5 56.5t-57.5 136.5q0 77 58 133.5t139 56.5q77 0 135 -56.5t58 -133.5q0 -81 -57.5 -137t-135.5 -56zM920 1923q-82 0 -139.5 56.5t-57.5 136.5q0 77 58 133.5t139 56.5q77 0 134.5 -56.5t57.5 -133.5q0 -81 -57 -137t-135 -56zM1032 1622h-721v190
h721v-190zM696 -41q-146 0 -266 42t-196 113t-117 159.5t-41 185.5q0 117 37 196l426 -43q-17 -62 -17 -106q0 -82 49.5 -128t128.5 -46q75 0 122.5 49.5t47.5 132.5v537q0 50 -22.5 77t-65.5 27q-39 0 -61.5 -27t-22.5 -71v-209h-430v207q0 86 -73 86h-113v340h192
q86 0 159.5 -37.5t103.5 -116.5h6q33 80 126.5 123t202.5 43q112 0 199 -36t140 -98.5t79.5 -141t26.5 -170.5v-510q0 -138 -49.5 -249.5t-135 -182.5t-197.5 -108.5t-239 -37.5z" />
    <glyph glyph-name="uni10F7_uni0301.case" horiz-adv-x="1411" 
d="M709 1565h-320l223 295h408zM707 -41q-130 0 -245 36.5t-201.5 103t-136.5 168t-50 225.5q0 54 12 102t29 86t48.5 73.5t59 60.5t71.5 51t74 41.5t80.5 35t77 28.5t74.5 25q51 17 79.5 27.5t59 25.5t43.5 31t13 35q0 35 -26.5 54.5t-66.5 19.5q-38 0 -63 -19t-25 -51
q0 -21 4 -35l-419 -47q-15 69 -15 105q0 154 147 252t371 98q236 0 379.5 -101t143.5 -274q0 -57 -15 -106.5t-36 -86t-59.5 -70t-70 -54.5t-84 -45t-84.5 -36t-88 -32q-41 -15 -59 -22t-52.5 -21.5t-51 -24t-39.5 -25.5t-33.5 -30.5t-18.5 -34t-8 -41.5q0 -70 49.5 -112.5
t131.5 -42.5q84 0 134 47t50 133q0 54 -19 113l428 45q37 -94 37 -205q0 -151 -87.5 -268t-230 -177.5t-312.5 -60.5z" />
    <glyph glyph-name="uni10F70304.case" horiz-adv-x="1411" 
d="M1065 1622h-721v190h721v-190zM707 -41q-130 0 -245 36.5t-201.5 103t-136.5 168t-50 225.5q0 54 12 102t29 86t48.5 73.5t59 60.5t71.5 51t74 41.5t80.5 35t77 28.5t74.5 25q51 17 79.5 27.5t59 25.5t43.5 31t13 35q0 35 -26.5 54.5t-66.5 19.5q-38 0 -63 -19t-25 -51
q0 -21 4 -35l-419 -47q-15 69 -15 105q0 154 147 252t371 98q236 0 379.5 -101t143.5 -274q0 -57 -15 -106.5t-36 -86t-59.5 -70t-70 -54.5t-84 -45t-84.5 -36t-88 -32q-41 -15 -59 -22t-52.5 -21.5t-51 -24t-39.5 -25.5t-33.5 -30.5t-18.5 -34t-8 -41.5q0 -70 49.5 -112.5
t131.5 -42.5q84 0 134 47t50 133q0 54 -19 113l428 45q37 -94 37 -205q0 -151 -87.5 -268t-230 -177.5t-312.5 -60.5z" />
    <glyph glyph-name="uni10FC.case" horiz-adv-x="925" 
d="M483 518q-167 0 -273 93.5t-106 258.5v285q0 139 85.5 217t242.5 78h369v-225h-328q-32 0 -55 -19.5t-23 -50.5v-55h2q56 53 158 53q135 0 216 -86t81 -219q0 -138 -98 -234t-271 -96zM479 758q46 0 72.5 22.5t26.5 57.5q0 38 -26.5 61t-72.5 23q-43 0 -69.5 -23.5
t-26.5 -60.5q0 -34 27.5 -57t68.5 -23z" />
    <glyph glyph-name="zero.dnom" horiz-adv-x="903" 
d="M453 -20q-91 0 -162 29t-114 76t-71 111.5t-38.5 128.5t-10.5 134t10.5 133.5t38.5 126.5t71 108.5t114 74t162 28.5q90 0 160.5 -28.5t113.5 -74t70.5 -108.5t38 -126.5t10.5 -133.5t-10.5 -134t-38 -128.5t-70.5 -111.5t-113.5 -76t-160.5 -29zM453 223q38 0 61.5 38
t31 87t7.5 111q0 42 -4.5 79t-15 72t-31 55.5t-49.5 20.5t-50.5 -20.5t-32 -55.5t-15.5 -72t-5 -79q0 -45 5 -83.5t15.5 -74.5t32 -57t50.5 -21z" />
    <glyph glyph-name="one.dnom" horiz-adv-x="903" 
d="M682 0h-287v602l-153 -110l-140 206l318 209h262v-907z" />
    <glyph glyph-name="two.dnom" horiz-adv-x="903" 
d="M823 0h-712v223l364 307q45 42 45 82q0 31 -18.5 49.5t-55.5 18.5q-40 0 -66.5 -30.5t-29.5 -82.5l-272 31q11 108 69.5 185t140.5 112t179 35q69 0 130.5 -16.5t113 -50t82 -91.5t30.5 -133q0 -51 -13.5 -94t-40.5 -77.5t-53 -58t-65 -53.5l-147 -114h319v-242z" />
    <glyph glyph-name="three.dnom" horiz-adv-x="903" 
d="M471 -20q-92 0 -170 26.5t-139 88.5t-84 155l258 63q10 -40 40 -68t75 -28q39 0 65.5 17.5t26.5 54.5q0 44 -35.5 60t-101.5 16h-80v198h88q112 0 112 74q0 28 -20 45.5t-57 17.5q-32 0 -60 -24.5t-35 -63.5l-256 60q25 90 87 150t134.5 84t155.5 24q63 0 120.5 -15
t107 -44t79 -79.5t29.5 -115.5q0 -141 -119 -199v-2q66 -23 101.5 -78t35.5 -125q0 -75 -31.5 -133t-83.5 -91.5t-114 -50.5t-129 -17z" />
    <glyph glyph-name="four.dnom" horiz-adv-x="903" 
d="M743 0h-258v164h-432v231l350 512h340v-518h123v-225h-123v-164zM483 635l-161 -246h165v246h-4z" />
    <glyph glyph-name="five.dnom" horiz-adv-x="903" 
d="M459 -20q-138 0 -244.5 70t-136.5 194l256 67q11 -41 42.5 -68.5t72.5 -27.5q39 0 65.5 21.5t26.5 62.5q0 46 -39.5 70t-110.5 24q-43 0 -117 -10t-129 -25l29 549h602v-241h-356l-6 -76q38 6 71 6q148 0 245 -75t97 -216q0 -70 -21.5 -126.5t-57 -93t-84 -60.5
t-99.5 -34.5t-106 -10.5z" />
    <glyph glyph-name="six.dnom" horiz-adv-x="903" 
d="M451 -20q-164 0 -274.5 88.5t-110.5 248.5q0 144 108 293l209 297h348l-223 -284l2 -2q6 2 22 2q123 0 214.5 -84.5t91.5 -219.5q0 -159 -111 -249t-276 -90zM451 215q47 0 75.5 29.5t28.5 74.5q0 42 -29 71.5t-75 29.5q-44 0 -72.5 -30t-28.5 -73q0 -42 29 -72t72 -30z
" />
    <glyph glyph-name="seven.dnom" horiz-adv-x="903" 
d="M489 0h-331l348 666h-393v241h706v-207z" />
    <glyph glyph-name="eight.dnom" horiz-adv-x="903" 
d="M451 -20q-73 0 -136 16t-115.5 48.5t-83 88.5t-30.5 129q0 72 39.5 127.5t107.5 83.5v2q-59 23 -96 73t-37 118q0 88 52 149.5t129 88t170 26.5q92 0 169 -26.5t129 -88t52 -149.5q0 -68 -35 -117.5t-96 -71.5v-4q66 -25 106.5 -81.5t40.5 -129.5t-30.5 -128.5t-83 -88
t-116.5 -49t-136 -16.5zM451 567q36 0 58.5 22t22.5 54q0 30 -22.5 52t-58.5 22q-34 0 -57 -22t-23 -52q0 -32 22 -54t58 -22zM451 195q41 0 65.5 24.5t24.5 59.5t-24.5 60.5t-65.5 25.5q-40 0 -65.5 -25.5t-25.5 -60.5t25.5 -59.5t65.5 -24.5z" />
    <glyph glyph-name="nine.dnom" horiz-adv-x="903" 
d="M520 0h-348l219 281l-2 6q-4 -2 -18 -2q-125 0 -215 84t-90 219q0 159 111 250.5t274 91.5q165 0 276 -89t111 -249q0 -140 -109 -295zM451 489q45 0 72.5 30.5t27.5 74.5q0 42 -27.5 71t-72.5 29q-46 0 -75.5 -29t-29.5 -73q0 -42 30 -72.5t75 -30.5z" />
    <glyph glyph-name="zero.numr" horiz-adv-x="903" 
d="M453 522q-91 0 -162 29t-114 76t-71 111.5t-38.5 128.5t-10.5 134t10.5 133.5t38.5 127t71 109t114 74t162 28.5q90 0 160.5 -28.5t113.5 -74t70.5 -109t38 -127t10.5 -133.5t-10.5 -134t-38 -128.5t-70.5 -111.5t-113.5 -76t-160.5 -29zM453 766q29 0 49.5 21t31 57
t15 74.5t4.5 82.5q0 42 -4.5 79.5t-15 72.5t-31 55.5t-49.5 20.5t-50.5 -20.5t-32 -55.5t-15.5 -72.5t-5 -79.5q0 -44 5 -82.5t15.5 -74.5t32 -57t50.5 -21z" />
    <glyph glyph-name="one.numr" horiz-adv-x="903" 
d="M682 543h-287v602l-153 -111l-140 207l316 209h264v-907z" />
    <glyph glyph-name="two.numr" horiz-adv-x="903" 
d="M823 543h-712v223l364 307q45 42 45 82q0 31 -18.5 49.5t-55.5 18.5q-40 0 -66.5 -30.5t-29.5 -82.5l-272 31q11 108 69.5 185t140.5 112t179 35q69 0 130.5 -16.5t113 -50t82 -91.5t30.5 -133q0 -51 -13.5 -94t-40.5 -77.5t-53 -58t-65 -53.5l-147 -115h319v-241z" />
    <glyph glyph-name="three.numr" horiz-adv-x="903" 
d="M471 496q-92 0 -170 27t-139 89.5t-84 155.5l258 63q10 -41 40 -68.5t75 -27.5q39 0 65.5 17t26.5 53q0 44 -36 61t-101 17h-80v198h88q56 0 84 17t28 57q0 27 -20 44.5t-57 17.5q-32 0 -60 -24.5t-35 -62.5l-256 60q19 67 58.5 118t91.5 81t109 44.5t118 14.5
q63 0 120.5 -15t107 -44t79 -79.5t29.5 -115.5q0 -141 -119 -199v-4q66 -23 101.5 -77.5t35.5 -125.5q0 -74 -31.5 -132t-83.5 -92t-114 -51t-129 -17z" />
    <glyph glyph-name="four.numr" horiz-adv-x="903" 
d="M743 543h-258v164h-432v231l350 512h340v-518h123v-225h-123v-164zM483 1178l-161 -246h165v246h-4z" />
    <glyph glyph-name="five.numr" horiz-adv-x="903" 
d="M459 522q-138 0 -244.5 70t-136.5 194l256 68q11 -41 42.5 -68.5t72.5 -27.5q39 0 65.5 21.5t26.5 62.5q0 46 -39.5 70t-110.5 24q-43 0 -117 -10t-129 -25l29 549h602v-242h-356l-6 -73q38 6 71 6q148 0 245 -76t97 -217q0 -70 -21.5 -126.5t-57 -93t-84 -61t-99.5 -35
t-106 -10.5z" />
    <glyph glyph-name="six.numr" horiz-adv-x="903" 
d="M451 522q-164 0 -274.5 89t-110.5 249q0 144 108 293l209 297h348l-223 -285l2 -2q6 2 22 2q79 0 148 -35.5t113.5 -106t44.5 -161.5q0 -159 -111 -249.5t-276 -90.5zM451 758q47 0 75.5 29.5t28.5 74.5q0 42 -29 71.5t-75 29.5q-44 0 -72.5 -30t-28.5 -73q0 -42 29 -72
t72 -30z" />
    <glyph glyph-name="seven.numr" horiz-adv-x="903" 
d="M489 543h-331l348 665h-393v242h706v-207z" />
    <glyph glyph-name="eight.numr" horiz-adv-x="903" 
d="M451 522q-72 0 -136 16.5t-116 49.5t-82.5 88.5t-30.5 128.5q0 72 39.5 127.5t107.5 83.5v2q-58 23 -95.5 73.5t-37.5 116.5q0 88 51.5 149.5t129 88.5t170.5 27t169.5 -26.5t128.5 -88t52 -150.5q0 -68 -35 -117t-96 -71v-2q66 -25 106.5 -81.5t40.5 -131.5
q0 -73 -30.5 -128.5t-83 -88.5t-116.5 -49.5t-136 -16.5zM451 1110q36 0 58.5 22t22.5 54q0 30 -22.5 52t-58.5 22q-34 0 -57 -22t-23 -52q0 -32 22 -54t58 -22zM451 739q41 0 65.5 23.5t24.5 58.5t-24.5 60.5t-65.5 25.5q-40 0 -65.5 -25.5t-25.5 -60.5t25.5 -58.5
t65.5 -23.5z" />
    <glyph glyph-name="nine.numr" horiz-adv-x="903" 
d="M520 543h-348l219 280l-2 6q-4 -2 -18 -2q-125 0 -215 84t-90 219q0 159 111 251t274 92q165 0 276 -89t111 -249q0 -140 -109 -295zM451 1032q45 0 72.5 30.5t27.5 74.5q0 42 -27.5 71t-72.5 29q-46 0 -75.5 -29t-29.5 -73q0 -42 30 -72.5t75 -30.5z" />
    <glyph glyph-name="uni0308_uni0300" 
d="M170 1591h-317l-267 238h406zM-244 1165q-80 0 -137 56t-57 135q0 78 57 134t137 56q78 0 136.5 -56t58.5 -134q0 -79 -58 -135t-137 -56zM248 1165q-82 0 -139.5 56t-57.5 135q0 78 57.5 134t139.5 56q77 0 134.5 -56.5t57.5 -133.5q0 -79 -57.5 -135t-134.5 -56z" />
    <glyph glyph-name="uni0308_uni0301" 
d="M150 1591h-320l178 238h408zM-246 1165q-80 0 -137 56t-57 135q0 78 57 134t137 56q78 0 136.5 -56t58.5 -134q0 -79 -58 -135t-137 -56zM246 1165q-80 0 -137.5 56t-57.5 135q0 78 57.5 134t137.5 56q78 0 136 -56t58 -134q0 -79 -57.5 -135t-136.5 -56z" />
    <glyph glyph-name="uni0308030C" 
d="M152 1591h-299l-273 238h281l139 -111l137 111h283zM-244 1165q-80 0 -137 56t-57 135q0 78 57 134t137 56q78 0 136.5 -56t58.5 -134q0 -79 -58 -135t-137 -56zM248 1165q-82 0 -139.5 56t-57.5 135q0 78 57.5 134t139.5 56q77 0 134.5 -56.5t57.5 -133.5
q0 -79 -57.5 -135t-134.5 -56z" />
    <glyph glyph-name="uni03080304" 
d="M360 1622h-720v190h720v-190zM-244 1165q-82 0 -139 55.5t-57 135.5q0 78 57.5 134t138.5 56q77 0 135 -56.5t58 -133.5q0 -79 -58 -135t-135 -56zM246 1165q-80 0 -137.5 56t-57.5 135q0 78 57.5 134t137.5 56q78 0 135 -56t57 -134q0 -79 -57 -135t-135 -56z" />
    <glyph glyph-name="uni030C.alt" 
d="M68 1077h-314l131 373h361z" />
    <glyph glyph-name="uni0308.case" 
d="M-244 1561q-82 0 -139 56t-57 136q0 77 57.5 134t138.5 57q77 0 135 -57t58 -134q0 -80 -57.5 -136t-135.5 -56zM246 1561q-80 0 -137.5 56.5t-57.5 135.5q0 77 58 134t137 57q78 0 136 -56.5t58 -134.5q0 -81 -57.5 -136.5t-136.5 -55.5z" />
    <glyph glyph-name="uni0308_uni0300.case" 
d="M166 1964h-318l-262 234h406zM-244 1540q-80 0 -137 57t-57 136q0 77 57.5 133.5t136.5 56.5q78 0 136.5 -56t58.5 -134q0 -81 -58 -137t-137 -56zM248 1540q-82 0 -139.5 56.5t-57.5 136.5q0 77 58 133.5t139 56.5q77 0 134.5 -56.5t57.5 -133.5q0 -81 -57 -137
t-135 -56z" />
    <glyph glyph-name="uni0308_uni0301.case" 
d="M154 1964h-318l174 234h406zM-244 1540q-80 0 -137 57t-57 136q0 77 57.5 133.5t136.5 56.5q78 0 136.5 -56t58.5 -134q0 -81 -58 -137t-137 -56zM248 1540q-82 0 -139.5 56.5t-57.5 136.5q0 77 58 133.5t139 56.5q77 0 134.5 -56.5t57.5 -133.5q0 -81 -57 -137t-135 -56
z" />
    <glyph glyph-name="uni0308030C.case" 
d="M152 1964h-299l-269 234h281l135 -109l133 109h283zM-244 1540q-80 0 -137 57t-57 136q0 77 57.5 133.5t136.5 56.5q78 0 136.5 -56t58.5 -134q0 -81 -58 -137t-137 -56zM248 1540q-82 0 -139.5 56.5t-57.5 136.5q0 77 58 133.5t139 56.5q77 0 134.5 -56.5t57.5 -133.5
q0 -81 -57 -137t-135 -56z" />
    <glyph glyph-name="uni03080304.case" 
d="M360 1991h-720v190h720v-190zM-244 1540q-80 0 -137 57t-57 136q0 77 57.5 133.5t136.5 56.5q78 0 135.5 -56t57.5 -134q0 -81 -57 -137t-136 -56zM246 1540q-80 0 -137.5 57t-57.5 136q0 77 58 133.5t137 56.5q78 0 136 -56t58 -134q0 -81 -57.5 -137t-136.5 -56z" />
    <glyph glyph-name="uni0307.case" 
d="M2 1548q-89 0 -150 59t-61 144t61 145t150 60q85 0 146 -60t61 -145q0 -84 -61 -143.5t-146 -59.5z" />
    <glyph glyph-name="gravecomb.case" 
d="M315 1565h-319l-311 295h407z" />
    <glyph glyph-name="acutecomb.case" 
d="M4 1565h-319l223 295h407z" />
    <glyph glyph-name="uni030B.case" 
d="M-238 1565h-317l221 295h406zM246 1565h-318l222 295h405z" />
    <glyph glyph-name="uni0302.case" 
d="M-139 1565h-297l272 295h334l266 -295h-301l-137 147z" />
    <glyph glyph-name="uni030C.case" 
d="M168 1565h-332l-272 295h297l139 -148l137 148h299z" />
    <glyph glyph-name="uni0306.case" 
d="M0 1565q-57 0 -106.5 8.5t-96 30t-80 54.5t-55.5 84.5t-27 117.5h209q3 -26 18.5 -45t39.5 -28.5t48 -13.5t50 -4q144 0 156 91h209q-6 -81 -37.5 -140.5t-83.5 -92t-112 -47.5t-132 -15z" />
    <glyph glyph-name="uni030A.case" 
d="M0 1526q-95 0 -163 65.5t-68 161.5q0 98 67.5 165t163.5 67q95 0 163 -67t68 -163q0 -97 -68 -163t-163 -66zM0 1634q51 0 87 35t36 86t-36 85t-87 34t-87 -35t-36 -86q0 -49 36 -84t87 -35z" />
    <glyph glyph-name="tildecomb.case" 
d="M-225 1577h-158q8 121 67.5 197.5t163.5 76.5q74 0 170 -47q85 -43 134 -43q33 0 50 20t25 62h156q-8 -123 -68 -201.5t-163 -78.5q-82 0 -168 47q-48 25 -74 34t-55 9q-61 0 -80 -76z" />
    <glyph glyph-name="uni0304.case" 
d="M360 1622h-720v190h720v-190z" />
    <glyph glyph-name="hookabovecomb.case" 
d="M129 1546h-221q0 52 20.5 87.5t73.5 66.5q64 37 64 84q0 28 -16 43.5t-44 15.5q-36 0 -55 -24.5t-23 -81.5l-239 28q13 124 97.5 188t223.5 64q141 0 220 -63.5t79 -155.5q0 -64 -29 -104t-94 -70q-57 -25 -57 -78z" />
    </font>
</defs>
</svg>
