<?xml version="1.0" standalone="no"?>
<!DOCTYPE svg PUBLIC "-//W3C//DTD SVG 1.1//EN" "http://www.w3.org/Graphics/SVG/1.1/DTD/svg11.dtd" >
<svg xmlns="http://www.w3.org/2000/svg" xmlns:xlink="http://www.w3.org/1999/xlink" version="1.1">
<metadata>
Created by FontForge 20170731 at Mon Nov 21 14:44:59 2022
 By Aleksey,,,
Copyright (c) 1988-2020 Monotype GmbH. All rights reserved.
</metadata>
<defs>
<font id="AvenirNextGeorgian-Heavy" horiz-adv-x="0" >
  <font-face 
    font-family="Avenir Next Georgian Heavy"
    font-weight="950"
    font-stretch="normal"
    units-per-em="2048"
    panose-1="2 11 11 3 2 2 2 2 2 4"
    ascent="1552"
    descent="-496"
    x-height="1077"
    cap-height="1450"
    bbox="-580 -526 2533 2361"
    underline-thickness="102"
    underline-position="-307"
    unicode-range="U+000D-FEFF"
  />
<missing-glyph horiz-adv-x="1048" 
d="M1049 0h-1049v1470h1049v-1470zM102 1366v-1264h844v1264h-844zM555 479h-94q-4 24 -4 35q0 115 26 166q33 64 95 121q64 59 83 93.5t19 76.5q0 73 -46 123.5t-110 50.5q-67 0 -112 -47.5t-56 -147.5l-102 17q13 141 87 210.5t189 69.5q110 0 182 -74t72 -194
q0 -70 -26.5 -123.5t-102.5 -122.5q-77 -68 -88 -106q-12 -41 -12 -148zM569 240h-114v137h114v-137z" />
    <glyph glyph-name="fi" unicode="fi" horiz-adv-x="1548" 
d="M1204 1149q-102 0 -175 69.5t-73 170.5q0 98 73.5 169.5t174.5 71.5q97 0 169.5 -71.5t72.5 -169.5q0 -100 -72 -170t-170 -70zM655 0h-471v739h-184v338h184v25q0 85 14.5 157t50 138t92 112t145 73.5t202.5 27.5q138 0 215 -31l-31 -354q-45 18 -92 18
q-125 0 -125 -151v-15h228v-338h-228v-739zM1438 0h-473v1077h473v-1077z" />
    <glyph glyph-name="fl" unicode="fl" horiz-adv-x="1554" 
d="M655 0h-471v739h-184v338h184v25q0 85 14.5 157t50 138t92 112t145 73.5t202.5 27.5q138 0 215 -31l-31 -354q-45 18 -92 18q-125 0 -125 -151v-15h228v-338h-228v-739zM1446 0h-483v1548h483v-1548z" />
    <glyph glyph-name=".notdef" horiz-adv-x="1048" 
d="M1049 0h-1049v1470h1049v-1470zM102 1366v-1264h844v1264h-844zM555 479h-94q-4 24 -4 35q0 115 26 166q33 64 95 121q64 59 83 93.5t19 76.5q0 73 -46 123.5t-110 50.5q-67 0 -112 -47.5t-56 -147.5l-102 17q13 141 87 210.5t189 69.5q110 0 182 -74t72 -194
q0 -70 -26.5 -123.5t-102.5 -122.5q-77 -68 -88 -106q-12 -41 -12 -148zM569 240h-114v137h114v-137z" />
    <glyph glyph-name=".null" 
 />
    <glyph glyph-name="nonmarkingreturn" horiz-adv-x="682" 
 />
    <glyph glyph-name="NULL" 
 />
    <glyph glyph-name="NULL" 
 />
    <glyph glyph-name="CR" unicode="&#xd;" horiz-adv-x="512" 
 />
    <glyph glyph-name="space" unicode=" " horiz-adv-x="512" 
 />
    <glyph glyph-name="exclam" unicode="!" horiz-adv-x="917" 
d="M705 532h-492v918h492v-918zM459 -33q-106 0 -180 72t-74 176q0 102 74.5 175t179.5 73t179.5 -73t74.5 -175q0 -104 -74 -176t-180 -72z" />
    <glyph glyph-name="quotedbl" unicode="&#x22;" horiz-adv-x="1138" 
d="M520 872h-354v578h354v-578zM973 872h-352v578h352v-578z" />
    <glyph glyph-name="quotedbl" unicode="&#x2033;" horiz-adv-x="1138" 
d="M520 872h-354v578h354v-578zM973 872h-352v578h352v-578z" />
    <glyph glyph-name="numbersign" unicode="#" horiz-adv-x="1269" 
d="M492 0h-297l53 383h-156v274h195l20 136h-157v274h194l53 383h299l-55 -383h84l55 383h297l-55 -383h156v-274h-195l-18 -136h157v-274h-194l-56 -383h-297l54 383h-82zM602 793l-18 -136h84l20 136h-86z" />
    <glyph glyph-name="dollar" unicode="$" horiz-adv-x="1433" 
d="M799 -170h-209v154q-141 10 -276.5 64.5t-231.5 137.5l297 316q54 -57 140 -97t171 -40q47 0 78 15.5t31 49.5q0 36 -45.5 59t-210.5 78q-65 22 -115.5 44.5t-101 58t-83.5 77.5t-54 102t-21 132q0 105 36.5 190.5t99.5 143t140.5 93.5t167.5 50v152h209v-148
q136 -8 271 -61t237 -144l-303 -301q-47 57 -118 89t-132 32q-119 0 -119 -63q0 -30 29 -45.5t115 -42.5q56 -17 93.5 -29.5t94 -35.5t94 -46t80 -58t68 -73.5t42.5 -91.5t17 -113q0 -111 -40.5 -202.5t-109.5 -151.5t-156 -95.5t-185 -43.5v-156z" />
    <glyph glyph-name="percent" unicode="%" horiz-adv-x="1914" 
d="M1485 1401l-858 -1477l-201 109l860 1480zM459 682q-166 0 -285 115.5t-119 279.5q0 166 118.5 282t285.5 116q166 0 283.5 -115.5t117.5 -282.5q0 -164 -117.5 -279.5t-283.5 -115.5zM459 958q48 0 84.5 35t36.5 84q0 50 -36.5 86.5t-84.5 36.5q-50 0 -86.5 -36
t-36.5 -87q0 -49 36.5 -84t86.5 -35zM1456 -25q-166 0 -284.5 116t-118.5 280q0 166 118 281.5t285 115.5t284.5 -115.5t117.5 -281.5q0 -164 -118 -280t-284 -116zM1456 252q48 0 84.5 35t36.5 84q0 50 -36.5 86.5t-84.5 36.5q-50 0 -86.5 -36t-36.5 -87q0 -49 36.5 -84
t86.5 -35z" />
    <glyph glyph-name="ampersand" unicode="&#x26;" horiz-adv-x="1720" 
d="M655 -29q-86 0 -166 15t-155 50t-130 85.5t-88.5 127.5t-33.5 171q0 134 79 233t206 154q-142 124 -142 297q0 82 31.5 148.5t83 110t120.5 73.5t140 42.5t145 12.5q94 0 180 -22t160 -67t118 -123.5t44 -180.5q0 -65 -21.5 -120.5t-62.5 -100t-87 -78t-109 -68.5
l100 -94l113 162h510l-349 -424l394 -375h-570l-100 104q-154 -133 -410 -133zM731 961q48 20 78.5 52t30.5 70q0 41 -23.5 68t-66.5 27q-44 0 -69.5 -28t-25.5 -67q0 -65 76 -122zM680 334q83 0 123 43l-180 182q-80 -30 -80 -113q0 -55 42 -83.5t95 -28.5z" />
    <glyph glyph-name="quotesingle" unicode="'" horiz-adv-x="684" 
d="M518 872h-352v578h352v-578z" />
    <glyph glyph-name="quotesingle" unicode="&#x2032;" horiz-adv-x="684" 
d="M518 872h-352v578h352v-578z" />
    <glyph glyph-name="parenleft" unicode="(" horiz-adv-x="737" 
d="M655 -258l-313 -115q-149 205 -227 456.5t-78 506.5q0 254 78 505.5t227 456.5l313 -114q-272 -378 -272 -848t272 -848z" />
    <glyph glyph-name="parenright" unicode=")" horiz-adv-x="737" 
d="M395 -373l-313 115q272 378 272 848t-272 848l313 114q149 -205 227 -456.5t78 -505.5q0 -255 -78 -506.5t-227 -456.5z" />
    <glyph glyph-name="asterisk" unicode="*" horiz-adv-x="1079" 
d="M537 791l-146 -185l-246 170l152 182l-240 76l99 266l233 -77v227h305v-229l238 71l90 -266l-234 -70l148 -190l-248 -170z" />
    <glyph glyph-name="plus" unicode="+" horiz-adv-x="1363" 
d="M846 61h-324v406h-422v307h418v406h324v-406h422v-307h-418v-406z" />
    <glyph glyph-name="comma" unicode="," horiz-adv-x="737" 
d="M410 -246h-381l168 641h446z" />
    <glyph glyph-name="hyphen" unicode="-" horiz-adv-x="688" 
d="M627 408h-566v352h566v-352z" />
    <glyph glyph-name="period" unicode="." horiz-adv-x="737" 
d="M373 -33q-114 0 -194.5 76.5t-80.5 187.5q0 109 81.5 188t193.5 79q107 0 186.5 -79t79.5 -188q0 -111 -78.5 -187.5t-187.5 -76.5z" />
    <glyph glyph-name="slash" unicode="/" horiz-adv-x="931" 
d="M938 1473l-623 -1594l-321 98l620 1594z" />
    <glyph glyph-name="zero" unicode="0" horiz-adv-x="1433" 
d="M717 -41q-111 0 -203.5 26t-158.5 70.5t-117.5 106.5t-83 130t-52 146.5t-28.5 149.5t-8 145t8 144.5t28.5 147.5t52 143t83 126.5t117.5 103t158.5 68t203.5 25.5t204 -25.5t159 -68t117.5 -103t83 -126.5t52 -143t28 -147.5t7.5 -144.5t-7.5 -145t-28 -149.5
t-52 -146.5t-83 -130.5t-117.5 -106.5t-159 -70t-204 -26zM717 383q147 0 147 350q0 338 -147 338q-43 0 -73.5 -30t-46 -82t-22 -107t-6.5 -119q0 -66 6.5 -123t22 -111t46 -85t73.5 -31z" />
    <glyph glyph-name="one" unicode="1" horiz-adv-x="1433" 
d="M1081 0h-491v934l-244 -168l-229 356l514 328h450v-1450z" />
    <glyph glyph-name="two" unicode="2" horiz-adv-x="1433" 
d="M1311 0h-1176v379l574 459q79 61 79 127q0 43 -27 72.5t-79 29.5q-59 0 -98 -47.5t-43 -126.5l-465 53q13 137 72.5 243.5t149.5 171t198 97.5t227 33q89 0 171 -16t158 -53t132 -90.5t89.5 -134t33.5 -179.5q0 -86 -22 -156.5t-66.5 -126.5t-87 -93.5t-107.5 -82.5
l-213 -151h500v-408z" />
    <glyph glyph-name="three" unicode="3" horiz-adv-x="1433" 
d="M733 -41q-114 0 -219 26.5t-195 79.5t-156.5 140.5t-94.5 200.5l454 106q13 -58 63.5 -100.5t121.5 -42.5q49 0 88 24t39 74q0 32 -14.5 53.5t-44 32.5t-65.5 15.5t-87 4.5h-140v336h156q84 0 128 23.5t44 81.5q0 43 -34.5 63.5t-80.5 20.5q-54 0 -95.5 -33t-51.5 -92
l-453 96q28 92 79 165t113.5 120t139 78.5t152.5 45t157 13.5q80 0 159 -15t155 -48.5t133.5 -82t93 -121.5t35.5 -161q0 -117 -61.5 -192t-159.5 -103v-8q110 -35 178.5 -126t68.5 -196q0 -99 -35 -180t-93.5 -135.5t-137 -92t-164 -54.5t-176.5 -17z" />
    <glyph glyph-name="four" unicode="4" horiz-adv-x="1433" 
d="M1204 0h-442v256h-699v397l549 797h590v-813h197v-381h-195v-256zM760 1004l-242 -367h250v367h-8z" />
    <glyph glyph-name="five" unicode="5" horiz-adv-x="1433" 
d="M727 -41q-111 0 -217 30.5t-194 86t-150 141t-82 189.5l451 114q12 -62 61 -104.5t115 -42.5q59 0 97 26.5t38 83.5q0 35 -23 60.5t-62 38.5t-81.5 18.5t-91.5 5.5q-67 0 -177 -12.5t-202 -30.5l51 887h985v-406h-573l-8 -104q65 10 108 10q115 0 214 -27.5t177 -82
t123 -145t45 -208.5q0 -116 -36.5 -208.5t-95.5 -151t-139 -97.5t-162.5 -55t-170.5 -16z" />
    <glyph glyph-name="six" unicode="6" horiz-adv-x="1433" 
d="M717 -41q-129 0 -242 34t-201.5 100t-140 172.5t-51.5 242.5q0 228 180 477l332 465h592l-352 -453v-2h22q95 0 183 -32.5t158.5 -92.5t112.5 -153t42 -205q0 -133 -51.5 -240t-139.5 -174t-202 -103t-242 -36zM717 360q68 0 110.5 43t42.5 107q0 62 -42.5 103.5
t-110.5 41.5q-65 0 -107.5 -41.5t-42.5 -103.5q0 -64 42.5 -107t107.5 -43z" />
    <glyph glyph-name="seven" unicode="7" horiz-adv-x="1433" 
d="M803 0h-565l550 1044h-622v406h1155v-346z" />
    <glyph glyph-name="eight" unicode="8" horiz-adv-x="1433" 
d="M717 -41q-93 0 -178.5 15.5t-163.5 50.5t-135 87t-91 130t-34 174q0 115 65 202.5t176 133.5v6q-94 36 -155.5 116.5t-61.5 188.5q0 88 32.5 160.5t87 121.5t129.5 82.5t157 48.5t172 15q88 0 170 -15t157 -48.5t130 -82.5t87.5 -121.5t32.5 -160.5q0 -110 -59 -190
t-158 -113v-6q107 -40 174.5 -129t67.5 -207q0 -96 -34 -174t-91.5 -130.5t-135.5 -88t-163.5 -51t-177.5 -15.5zM717 911q53 0 86 33.5t33 77.5q0 41 -33 73.5t-86 32.5t-86 -32.5t-33 -73.5q0 -44 33 -77.5t86 -33.5zM717 328q60 0 93.5 34t33.5 84t-33.5 85.5t-93.5 35.5
t-93.5 -35.5t-33.5 -85.5t33.5 -84t93.5 -34z" />
    <glyph glyph-name="nine" unicode="9" horiz-adv-x="1433" 
d="M840 0h-592l352 453v2h-22q-95 0 -183 32.5t-158.5 92.5t-112.5 153t-42 205q0 133 51.5 240t139.5 174t202 103t242 36q129 0 242 -34t201.5 -100t140 -172.5t51.5 -242.5q0 -226 -181 -477zM717 799q65 0 107 41.5t42 103.5q0 64 -42 107t-107 43q-68 0 -111 -43
t-43 -107q0 -62 43 -103.5t111 -41.5z" />
    <glyph glyph-name="colon" unicode=":" horiz-adv-x="778" 
d="M393 590q-106 0 -182 72t-76 176q0 103 76 176t182 73q101 0 175.5 -73.5t74.5 -175.5q0 -103 -74.5 -175.5t-175.5 -72.5zM393 -12q-106 0 -182 72t-76 176q0 103 76 176t182 73q101 0 175.5 -73.5t74.5 -175.5q0 -103 -74.5 -175.5t-175.5 -72.5z" />
    <glyph glyph-name="semicolon" unicode=";" horiz-adv-x="778" 
d="M393 590q-106 0 -182 72t-76 176q0 103 76 176t182 73q101 0 175.5 -73.5t74.5 -175.5q0 -103 -74.5 -175.5t-175.5 -72.5zM408 -246h-381l168 641h446z" />
    <glyph glyph-name="less" unicode="&#x3c;" horiz-adv-x="1363" 
d="M1204 401v-335l-1044 415v275l1044 415v-331l-561 -228z" />
    <glyph glyph-name="equal" unicode="=" horiz-adv-x="1363" 
d="M1249 672h-1134v295h1134v-295zM1249 283h-1134v295h1134v-295z" />
    <glyph glyph-name="greater" unicode="&#x3e;" horiz-adv-x="1363" 
d="M1204 481l-1044 -415v335l561 211l-561 228v331l1044 -415v-275z" />
    <glyph glyph-name="question" unicode="?" horiz-adv-x="1202" 
d="M840 516h-437v76q0 59 14 106t43.5 85.5t61.5 66.5t82 63l35 25q68 49 68 90q0 40 -24 59t-62 19q-63 0 -94 -45.5t-31 -114.5l-441 58q10 103 46.5 185.5t90.5 138t125 93t148.5 54t163.5 16.5q80 0 155.5 -13t148.5 -45t127.5 -80t88 -123t33.5 -169q0 -132 -66 -219.5
t-203 -169.5q-73 -45 -73 -103v-53zM623 -33q-106 0 -180 72t-74 176q0 102 74.5 175t179.5 73t179.5 -73t74.5 -175q0 -104 -74 -176t-180 -72z" />
    <glyph glyph-name="at" unicode="@" horiz-adv-x="1638" 
d="M854 -37q-170 0 -318.5 56.5t-255 156t-168 241.5t-61.5 306q0 160 63.5 302.5t171 243.5t254.5 159.5t308 58.5q121 0 232.5 -28t206.5 -84.5t165 -136.5t110 -191t40 -240q0 -219 -116.5 -349t-324.5 -130q-82 0 -138.5 31.5t-78.5 89.5h-4q-24 -48 -86 -84.5
t-145 -36.5q-138 0 -222 103.5t-84 262.5q0 88 27 170t75.5 146t121 102.5t157.5 38.5q74 0 123.5 -32.5t63.5 -74.5h4l10 50h279l-39 -222q-37 -179 -37 -231q0 -61 49 -61q45 0 82 53.5t37 177.5q0 223 -137 341t-369 118q-236 0 -386.5 -154.5t-150.5 -390.5
q0 -245 158.5 -391t411.5 -146q116 0 228.5 37t191.5 103l153 -174q-231 -191 -602 -191zM791 580q55 0 88.5 62t33.5 136q0 61 -18.5 95t-65.5 34q-49 0 -85.5 -63t-36.5 -142q0 -122 84 -122z" />
    <glyph glyph-name="A" unicode="A" horiz-adv-x="1589" 
d="M539 1450h518l565 -1450h-530l-76 213h-461l-72 -213h-516zM791 942l-119 -356h235z" />
    <glyph glyph-name="B" unicode="B" horiz-adv-x="1419" 
d="M793 0h-658v1450h596q565 0 565 -385q0 -113 -56.5 -190t-156.5 -115v-6q113 -27 193 -115t80 -215q0 -92 -31.5 -165.5t-84.5 -121t-126.5 -79t-153 -45t-167.5 -13.5zM590 1071v-178h131q53 0 85 24t32 72q0 40 -34 61t-93 21h-121zM590 580v-197h145q59 0 94 26t35 74
q0 52 -46 74.5t-103 22.5h-125z" />
    <glyph glyph-name="C" unicode="C" horiz-adv-x="1425" 
d="M858 -41q-163 0 -307.5 56t-251 155t-168 243t-61.5 312q0 171 61.5 315.5t168 242.5t251 153t307.5 55q166 0 316 -54t251 -147l-299 -360q-80 108 -239 108q-125 0 -209 -86t-84 -227q0 -137 85.5 -223t207.5 -86q79 0 141 32.5t98 83.5l299 -358
q-100 -100 -245.5 -157.5t-321.5 -57.5z" />
    <glyph glyph-name="D" unicode="D" horiz-adv-x="1613" 
d="M717 0h-582v1450h541q101 0 192 -10.5t179.5 -35t162 -62t136.5 -94.5t106 -130t67.5 -171t24.5 -214q0 -149 -45 -271.5t-122.5 -207t-183 -142.5t-225 -85t-251.5 -27zM604 1036v-618h90q357 0 357 319q0 139 -91.5 219t-246.5 80h-109z" />
    <glyph glyph-name="E" unicode="E" horiz-adv-x="1234" 
d="M1167 0h-1032v1450h998v-406h-539v-124h506v-379h-506v-135h573v-406z" />
    <glyph glyph-name="F" unicode="F" horiz-adv-x="1189" 
d="M614 0h-479v1450h979v-408h-502v-153h443v-397h-441v-492z" />
    <glyph glyph-name="G" unicode="G" horiz-adv-x="1560" 
d="M872 -37q-170 0 -317.5 54t-255 152t-168.5 241.5t-61 314.5t61.5 315.5t167.5 242.5t250 153t307 55q168 0 322 -56t249 -151l-284 -342q-96 117 -258 117q-125 0 -218.5 -94t-93.5 -240q0 -159 82.5 -250.5t249.5 -91.5q73 0 115 20v111h-234v383h666v-793
q-104 -62 -262.5 -101.5t-317.5 -39.5z" />
    <glyph glyph-name="H" unicode="H" horiz-adv-x="1642" 
d="M623 0h-488v1450h486v-492h397v492h489v-1450h-487v551h-397v-551z" />
    <glyph glyph-name="I" unicode="I" horiz-adv-x="761" 
d="M627 0h-492v1450h492v-1450z" />
    <glyph glyph-name="J" unicode="J" horiz-adv-x="1173" 
d="M508 -41q-193 0 -344.5 105t-194.5 264l418 159q8 -36 31 -60t57 -24q80 0 80 113v934h489v-913q0 -85 -13 -160.5t-49 -154.5t-93.5 -135t-155.5 -92t-225 -36z" />
    <glyph glyph-name="K" unicode="K" horiz-adv-x="1562" 
d="M610 0h-475v1450h473v-535h4l387 535h574l-545 -664l571 -786h-598l-387 578h-4v-578z" />
    <glyph glyph-name="L" unicode="L" horiz-adv-x="1124" 
d="M1108 0h-973v1450h492v-1032h481v-418z" />
    <glyph glyph-name="M" unicode="M" horiz-adv-x="2064" 
d="M590 0h-455v1450h637l262 -780h10l228 780h657v-1450h-473l14 815l-12 2l-270 -817h-344l-266 819h-11z" />
    <glyph glyph-name="N" unicode="N" horiz-adv-x="1619" 
d="M598 0h-463v1450h486l413 -735h8l-20 735h463v-1450h-498l-401 692h-8z" />
    <glyph glyph-name="O" unicode="O" horiz-adv-x="1751" 
d="M874 -41q-171 0 -319 56t-255 156t-168.5 245.5t-61.5 316.5q0 228 105.5 401.5t287.5 265t411 91.5t412 -91.5t289 -265t106 -401.5t-106 -405.5t-289 -273t-412 -95.5zM874 410q124 0 205.5 91.5t81.5 231.5q0 139 -81 225t-206 86q-126 0 -206 -85.5t-80 -225.5
q0 -141 80.5 -232t205.5 -91z" />
    <glyph glyph-name="P" unicode="P" horiz-adv-x="1400" 
d="M621 0h-486v1450h623q93 0 175.5 -14.5t160.5 -49.5t134 -89t90 -139.5t34 -194.5q0 -104 -33 -188.5t-89 -141t-133 -94.5t-161.5 -55t-177.5 -17h-137v-467zM621 1071v-233h102q62 0 104.5 30t42.5 90q0 113 -147 113h-102z" />
    <glyph glyph-name="Q" unicode="Q" horiz-adv-x="1769" 
d="M1745 0h-897q-231 0 -405 84t-273.5 252.5t-99.5 404.5q0 218 105 390t288 266t411 94q227 0 408 -93t283 -260t102 -378q0 -117 -46 -225t-105 -158v-8l229 14v-383zM874 410q124 0 205.5 91.5t81.5 231.5q0 139 -81 225t-206 86q-126 0 -206 -85.5t-80 -225.5
q0 -141 80.5 -232t205.5 -91z" />
    <glyph glyph-name="R" unicode="R" horiz-adv-x="1462" 
d="M606 0h-471v1450h625q91 0 171.5 -13t158 -46.5t133 -85.5t89.5 -135.5t34 -190.5q0 -132 -66 -233.5t-188 -157.5l368 -588h-561l-278 518h-15v-518zM602 1071v-233h96q170 0 170 120q0 113 -149 113h-117z" />
    <glyph glyph-name="S" unicode="S" horiz-adv-x="1263" 
d="M610 -41q-172 0 -335 59.5t-275 159.5l297 324q54 -59 140 -100.5t171 -41.5q47 0 78 16.5t31 51.5q0 38 -46.5 62.5t-209.5 78.5q-65 22 -115.5 45t-101 59.5t-84 79.5t-54 104.5t-20.5 135.5q0 104 36 189.5t95.5 142t139.5 94.5t164 55t173 17q145 0 293.5 -57
t259.5 -158l-303 -309q-47 58 -118 91.5t-132 33.5q-119 0 -119 -66q0 -30 28.5 -45.5t115.5 -44.5q86 -28 134 -45.5t126 -58.5t120 -84.5t75.5 -114t33.5 -156.5q0 -126 -52 -227.5t-138 -163.5t-190.5 -94.5t-217.5 -32.5z" />
    <glyph glyph-name="T" unicode="T" horiz-adv-x="1228" 
d="M858 0h-487v1038h-357v412h1200v-412h-356v-1038z" />
    <glyph glyph-name="U" unicode="U" horiz-adv-x="1587" 
d="M786 -41q-166 0 -295.5 46.5t-210.5 129.5t-123 193t-42 241v881h487v-827q0 -104 50.5 -163t142.5 -59q91 0 141.5 59t50.5 163v827h486v-881q0 -130 -44.5 -240.5t-128.5 -193.5t-216 -129.5t-298 -46.5z" />
    <glyph glyph-name="V" unicode="V" horiz-adv-x="1513" 
d="M1022 0h-541l-514 1450h551l240 -897h8l229 897h551z" />
    <glyph glyph-name="W" unicode="W" horiz-adv-x="2205" 
d="M887 0h-492l-395 1450h516l156 -815h8l168 815h510l182 -815h8l158 815h500l-404 -1450h-491l-205 819h-8z" />
    <glyph glyph-name="X" unicode="X" horiz-adv-x="1638" 
d="M553 0h-578l519 756l-492 694h588l229 -381l219 381h574l-484 -688l535 -762h-596l-262 424z" />
    <glyph glyph-name="Y" unicode="Y" horiz-adv-x="1511" 
d="M768 1024l219 426h574l-576 -856v-594h-487v594l-547 856h588z" />
    <glyph glyph-name="Z" unicode="Z" horiz-adv-x="1376" 
d="M1286 0h-1196v408l543 639h-520v403h1157v-352l-578 -682h594v-416z" />
    <glyph glyph-name="bracketleft" unicode="[" horiz-adv-x="737" 
d="M602 -319h-516v1818h516v-280h-178v-1258h178v-280z" />
    <glyph glyph-name="backslash" unicode="\" horiz-adv-x="931" 
d="M938 -23l-322 -98l-622 1594l323 98z" />
    <glyph glyph-name="bracketright" unicode="]" horiz-adv-x="737" 
d="M651 -319h-516v280h178v1258h-178v280h516v-1818z" />
    <glyph glyph-name="asciicircum" unicode="^" horiz-adv-x="1462" 
d="M522 702h-364l415 748h316l411 -748h-364l-207 383z" />
    <glyph glyph-name="underscore" unicode="_" horiz-adv-x="1024" 
d="M1024 -379h-1024v225h1024v-225z" />
    <glyph glyph-name="grave" unicode="`" horiz-adv-x="737" 
d="M590 1196h-348l-316 295h436z" />
    <glyph glyph-name="a" unicode="a" horiz-adv-x="1210" 
d="M428 -29q-67 0 -130 19t-119.5 57.5t-91 108t-34.5 161.5q0 86 38 152t98.5 105t145 64t166.5 33.5t175 8.5h4v4q0 48 -32.5 72t-90.5 24q-116 0 -227 -92l-236 234q96 93 232 144.5t280 51.5q120 0 211 -28.5t148.5 -77.5t94 -120.5t50.5 -150t14 -174.5v-432v-135h-428
v86h-4q-37 -57 -111 -86t-153 -29zM561 256q67 0 108.5 43t41.5 111v36h-27q-112 0 -171.5 -24t-59.5 -82q0 -40 34 -62t74 -22z" />
    <glyph glyph-name="b" unicode="b" horiz-adv-x="1421" 
d="M864 -29q-100 0 -191 39t-136 103h-5v-113h-423v1548h471v-557h4q46 54 123.5 84.5t156.5 30.5q116 0 212 -49t155.5 -129.5t92 -180t32.5 -204.5q0 -86 -20 -168.5t-61 -156t-98.5 -128.5t-138 -87t-174.5 -32zM741 360q82 0 129.5 52t47.5 131q0 74 -48 126t-129 52
t-132.5 -52.5t-51.5 -125.5q0 -77 51.5 -130t132.5 -53z" />
    <glyph glyph-name="c" unicode="c" horiz-adv-x="1077" 
d="M694 -41q-277 0 -452.5 159.5t-175.5 420.5q0 171 83.5 304t227.5 204t323 71q107 0 217.5 -34t174.5 -83l-236 -339q-24 28 -63 43.5t-78 15.5q-74 0 -129.5 -48.5t-55.5 -133.5t55.5 -132t129.5 -47q88 0 143 58l238 -332q-70 -56 -178.5 -91.5t-223.5 -35.5z" />
    <glyph glyph-name="d" unicode="d" horiz-adv-x="1421" 
d="M557 -29q-116 0 -211.5 49t-155.5 130.5t-92 182.5t-32 210q0 105 32 204.5t92 180t155.5 129.5t211.5 49q79 0 157 -30.5t124 -84.5h4v557h471v-1548h-424v113h-4q-45 -64 -136 -103t-192 -39zM680 360q81 0 132.5 53t51.5 130q0 73 -51.5 125.5t-132.5 52.5t-128.5 -52
t-47.5 -126q0 -79 47 -131t129 -52z" />
    <glyph glyph-name="e" unicode="e" horiz-adv-x="1290" 
d="M676 -41q-119 0 -227.5 38t-194.5 108.5t-137 183t-51 250.5q0 173 81 306.5t216.5 203t302.5 69.5q166 0 296 -76.5t200.5 -210.5t70.5 -303q0 -50 -4 -100h-725q6 -55 61 -89t123 -34q60 0 105.5 22t70.5 54l336 -170q-72 -117 -209 -184.5t-315 -67.5zM500 682h325
q0 58 -42.5 94.5t-112.5 36.5q-72 0 -117.5 -40.5t-52.5 -90.5z" />
    <glyph glyph-name="f" unicode="f" horiz-adv-x="868" 
d="M655 0h-471v739h-184v338h184v25q0 85 14.5 157t50 138t92 112t145 73.5t202.5 27.5q138 0 215 -31l-31 -354q-45 18 -92 18q-125 0 -125 -151v-15h228v-338h-228v-739z" />
    <glyph glyph-name="g" unicode="g" horiz-adv-x="1427" 
d="M641 -492q-156 0 -309.5 41.5t-265.5 116.5l206 314q73 -57 160 -86t168 -29q108 0 181 54t73 149v47h-6q-41 -48 -119.5 -81.5t-171.5 -33.5q-97 0 -178 28.5t-138.5 78.5t-97 119t-58.5 149t-19 168q0 105 32 204.5t92 180t155.5 129.5t211.5 49q90 0 172.5 -35
t132.5 -102h6v108h445v-966q0 -115 -26 -208t-74 -158t-109.5 -112t-139 -73.5t-156.5 -39t-167 -12.5zM680 360q81 0 132.5 53t51.5 130q0 73 -51.5 125.5t-132.5 52.5t-128.5 -52t-47.5 -126q0 -79 47 -131t129 -52z" />
    <glyph glyph-name="h" unicode="h" horiz-adv-x="1363" 
d="M582 0h-473v1548h473v-590h4q42 64 120.5 106t174.5 42q88 0 156 -27t110.5 -70t70 -103.5t38 -121.5t10.5 -129v-655h-475v573q0 80 -25 114t-78 34q-45 0 -75.5 -38t-30.5 -112v-571z" />
    <glyph glyph-name="i" unicode="i" horiz-adv-x="694" 
d="M350 1149q-102 0 -175 69.5t-73 170.5q0 98 73.5 169.5t174.5 71.5q97 0 169.5 -71.5t72.5 -169.5q0 -100 -72 -170t-170 -70zM584 0h-473v1077h473v-1077z" />
    <glyph glyph-name="j" unicode="j" horiz-adv-x="708" 
d="M362 1149q-101 0 -173 70t-72 170q0 98 72.5 169.5t172.5 71.5q99 0 171.5 -71.5t72.5 -169.5q0 -100 -72.5 -170t-171.5 -70zM113 -492q-111 0 -197 25l25 385q36 -10 75 -10q55 0 82 31t27 100v1038h473v-1052q0 -517 -485 -517z" />
    <glyph glyph-name="k" unicode="k" horiz-adv-x="1372" 
d="M582 0h-473v1548h473v-882h6l256 411h549l-349 -485l347 -592h-551l-252 469h-6v-469z" />
    <glyph glyph-name="l" unicode="l" horiz-adv-x="700" 
d="M592 0h-483v1548h483v-1548z" />
    <glyph glyph-name="m" unicode="m" horiz-adv-x="1998" 
d="M1513 1106q64 0 118 -16t93 -42.5t70.5 -63t51 -77t32.5 -85.5t18 -86t5 -81v-655h-474v573q0 84 -21 116t-67 32q-43 0 -70.5 -39.5t-27.5 -110.5v-571h-473v565q0 82 -20.5 119t-67.5 37q-40 0 -69 -36t-29 -114v-571h-473v825v252h460v-119h4q46 61 126 104.5
t180 43.5q220 0 307 -156q124 156 327 156z" />
    <glyph glyph-name="n" unicode="n" horiz-adv-x="1363" 
d="M582 0h-473v827v250h460v-119h4q42 63 125.5 105.5t182.5 42.5q88 0 156 -27t110.5 -70t70 -103.5t38 -121.5t10.5 -129v-655h-475v573q0 80 -25 114t-78 34q-47 0 -76.5 -39.5t-29.5 -108.5v-573z" />
    <glyph glyph-name="o" unicode="o" horiz-adv-x="1359" 
d="M678 -41q-122 0 -232.5 39.5t-195 112t-134.5 184.5t-50 248q0 134 50 244.5t135 182t195 110t232 38.5q123 0 234 -38.5t196.5 -110t135.5 -182t50 -244.5q0 -136 -50.5 -248t-135.5 -184.5t-196 -112t-234 -39.5zM680 360q75 0 125.5 53.5t50.5 129.5q0 72 -51.5 125
t-126.5 53t-124.5 -53t-49.5 -125q0 -76 50.5 -129.5t125.5 -53.5z" />
    <glyph glyph-name="p" unicode="p" horiz-adv-x="1421" 
d="M578 -492h-469v1569h444v-108h4q58 65 141.5 101t165.5 36q116 0 212 -49t155.5 -129.5t92 -180t32.5 -204.5q0 -109 -32 -210t-91.5 -182.5t-155 -130.5t-211.5 -49q-81 0 -158 30t-126 83h-4v-576zM741 360q82 0 129.5 52t47.5 131q0 74 -48 126t-129 52t-132.5 -52.5
t-51.5 -125.5q0 -77 51.5 -130t132.5 -53z" />
    <glyph glyph-name="q" unicode="q" horiz-adv-x="1421" 
d="M1313 -492h-469v576h-4q-49 -53 -126.5 -83t-158.5 -30q-94 0 -174.5 32t-137.5 87t-97.5 128.5t-60 156t-19.5 168.5q0 105 32 204.5t92 180t155.5 129.5t211.5 49q82 0 165.5 -36t141.5 -101h4v108h445v-1569zM680 360q81 0 132.5 53t51.5 130q0 73 -51.5 125.5
t-132.5 52.5t-128.5 -52t-47.5 -126q0 -79 47 -131t129 -52z" />
    <glyph glyph-name="r" unicode="r" horiz-adv-x="911" 
d="M582 0h-473v776v301h454v-123h4q37 68 106 110t158 42q58 0 91 -10l-37 -402q-47 13 -101 13q-90 0 -146 -53.5t-56 -131.5v-522z" />
    <glyph glyph-name="s" unicode="s" horiz-adv-x="1050" 
d="M514 -41q-140 0 -275 40.5t-231 113.5l232 268q50 -45 116 -72.5t127 -27.5q68 0 68 43q0 25 -35.5 40.5t-134.5 38.5q-56 13 -105.5 36t-96 61t-74 97.5t-27.5 133.5q0 81 30.5 148t79 110t112 73t126.5 43t125 13q124 0 247.5 -36.5t221.5 -102.5l-221 -264
q-109 69 -209 69q-80 0 -80 -45q0 -20 25.5 -31t117.5 -30q68 -14 125 -39t107 -64t78 -99t28 -134q0 -83 -30.5 -150.5t-79 -109.5t-113 -71t-127.5 -40.5t-127 -11.5z" />
    <glyph glyph-name="t" unicode="t" horiz-adv-x="862" 
d="M578 -29q-216 0 -321 94t-105 289v385h-152v338h150v242h458v-242h234v-338h-234v-286q0 -74 31.5 -104t95.5 -30q47 0 86 13v-324q-91 -37 -243 -37z" />
    <glyph glyph-name="u" unicode="u" horiz-adv-x="1357" 
d="M477 -29q-88 0 -156 27t-110.5 70t-70 103.5t-38 121.5t-10.5 129v655h475v-569q0 -80 25 -114t78 -34q47 0 76.5 39.5t29.5 108.5v569h473v-887v-190h-461v119h-4q-42 -63 -125 -105.5t-182 -42.5z" />
    <glyph glyph-name="v" unicode="v" horiz-adv-x="1306" 
d="M907 0h-514l-409 1077h524l154 -581h8l147 581h506z" />
    <glyph glyph-name="w" unicode="w" horiz-adv-x="1992" 
d="M827 0h-469l-368 1077h506l135 -557h8l139 557h455l149 -557h7l131 557h483l-373 -1077h-471l-166 553h-4z" />
    <glyph glyph-name="x" unicode="x" horiz-adv-x="1382" 
d="M516 0h-532l415 553l-387 524h537l156 -225l153 225h520l-387 -524l408 -553h-541l-166 244z" />
    <glyph glyph-name="y" unicode="y" horiz-adv-x="1306" 
d="M315 -492q-138 0 -268 33l59 389q70 -24 134 -24q73 0 112 29t60 83l8 23l-436 1036h524l160 -567h8l141 567h506l-442 -1143q-41 -106 -88.5 -180.5t-114 -132t-156.5 -85.5t-207 -28z" />
    <glyph glyph-name="z" unicode="z" horiz-adv-x="1140" 
d="M1071 0h-1003v330l403 397h-393v350h981v-307l-436 -420h448v-350z" />
    <glyph glyph-name="braceleft" unicode="{" horiz-adv-x="737" 
d="M635 -319h-197q-79 0 -138.5 28.5t-94.5 78t-52.5 111t-17.5 132.5v270q0 82 -33.5 112.5t-101.5 30.5v291q67 0 101 31t34 113v270q0 71 17.5 132.5t52.5 111t94.5 78t138.5 28.5h197v-280h-70q-55 0 -79.5 -36t-24.5 -87v-277q0 -57 -17.5 -101.5t-45 -69.5t-56 -39
t-55.5 -17v-4q63 -8 118.5 -64.5t55.5 -163.5v-276q0 -51 24.5 -87t79.5 -36h70v-280z" />
    <glyph glyph-name="bar" unicode="|" horiz-adv-x="550" 
d="M453 -512h-353v2060h353v-2060z" />
    <glyph glyph-name="braceright" unicode="}" horiz-adv-x="737" 
d="M299 -319h-197v280h70q55 0 78.5 35.5t23.5 87.5v276q0 57 17.5 101.5t45.5 70t56.5 39.5t55.5 17v4q-27 3 -55.5 17t-56.5 39t-45.5 69.5t-17.5 101.5v277q0 52 -23.5 87.5t-78.5 35.5h-70v280h197q79 0 139 -28.5t95.5 -78t53 -111t17.5 -132.5v-270q0 -83 33 -113.5
t100 -30.5v-291q-67 0 -100 -30t-33 -113v-270q0 -71 -17.5 -132.5t-53 -111t-95.5 -78t-139 -28.5z" />
    <glyph glyph-name="asciitilde" unicode="~" horiz-adv-x="1363" 
d="M918 358q-125 0 -248 78q-51 32 -89 48t-56.5 19t-45.5 3q-50 0 -111 -34.5t-96 -100.5l-151 276q69 114 167.5 165.5t192.5 51.5q74 0 118 -14t128 -64q79 -47 113.5 -59t79.5 -12q48 0 93.5 37t78.5 100l151 -277q-68 -112 -152.5 -164.5t-172.5 -52.5z" />
    <glyph glyph-name="uni00A0" unicode="&#xa0;" horiz-adv-x="512" 
 />
    <glyph glyph-name="exclamdown" unicode="&#xa1;" horiz-adv-x="917" 
d="M459 623q-105 0 -179.5 72.5t-74.5 174.5q0 104 74 176t180 72t180 -72t74 -176q0 -102 -74.5 -174.5t-179.5 -72.5zM705 -365h-492v918h492v-918z" />
    <glyph glyph-name="cent" unicode="&#xa2;" horiz-adv-x="1433" 
d="M922 -147h-224v122q-227 34 -362 184.5t-135 375.5q0 228 136 379t361 188v131h224v-125q196 -18 305 -107l-236 -339q-24 28 -63.5 43.5t-79.5 15.5q-72 0 -127 -48.5t-55 -133.5t55 -132t129 -47q88 0 143 58l238 -332q-111 -95 -309 -117v-116z" />
    <glyph glyph-name="sterling" unicode="&#xa3;" horiz-adv-x="1433" 
d="M1335 0h-1171v395h188v178h-188v332h188v58q0 77 22.5 152t70 143.5t114.5 120t163.5 82t209.5 30.5q156 0 276.5 -45.5t198.5 -120.5l-274 -311q-25 28 -66 45.5t-82 17.5q-164 0 -164 -153v-19h297v-332h-297v-178h514v-395z" />
    <glyph glyph-name="currency" unicode="&#xa4;" horiz-adv-x="2048" 
d="M737 119l-202 -203l-220 221l195 195q-74 129 -74 301q0 160 70 291l-191 190l222 219l196 -194q135 69 295 69t293 -65l190 190l222 -219l-185 -184q76 -129 76 -297q0 -172 -80 -307l189 -189l-220 -221l-198 199q-129 -66 -287 -66q-146 0 -291 70zM1028 422
q85 0 141 61t56 150q0 83 -57 145t-140 62q-84 0 -140.5 -61.5t-56.5 -145.5q0 -89 56 -150t141 -61z" />
    <glyph glyph-name="yen" unicode="&#xa5;" horiz-adv-x="1433" 
d="M942 0h-442v268h-371v287h371v96h-371v287h205l-324 512h518l201 -444l201 444h506l-322 -512h205v-287h-377v-96h377v-287h-377v-268z" />
    <glyph glyph-name="brokenbar" unicode="&#xa6;" horiz-adv-x="550" 
d="M453 639h-353v831h353v-831zM453 -422h-353v832h353v-832z" />
    <glyph glyph-name="section" unicode="&#xa7;" horiz-adv-x="1331" 
d="M616 -315q-176 0 -341 72.5t-255 199.5l322 266q55 -83 138.5 -121.5t158.5 -38.5q31 0 54.5 12t23.5 31q0 31 -37 51t-156 54l-28 8q-109 31 -181 62.5t-128 75.5t-81.5 103t-25.5 138q0 169 145 262q-84 78 -84 225q0 85 35 155.5t90.5 115.5t127.5 76t142.5 44
t139.5 13q196 0 339.5 -69t215.5 -197l-340 -226q-30 51 -83.5 83t-102.5 32q-37 0 -63 -12.5t-26 -34.5q0 -24 35.5 -42t151.5 -52l35 -10q101 -30 171.5 -63.5t123.5 -80t78.5 -108t25.5 -140.5q0 -164 -133 -245q45 -31 68.5 -88t23.5 -121q0 -96 -36.5 -172.5
t-95 -123.5t-137 -78.5t-155 -43.5t-156.5 -12zM639 539l166 -58q26 16 26 54q0 35 -38 60t-113 52l-168 60q-14 -8 -23.5 -24.5t-9.5 -33.5q0 -25 20.5 -44.5t42 -29t72.5 -27.5q8 -3 13.5 -5t11.5 -4z" />
    <glyph glyph-name="dieresis" unicode="&#xa8;" horiz-adv-x="737" 
d="M117 1188q-85 0 -146 58.5t-61 142.5q0 83 61 142.5t146 59.5q82 0 142 -59.5t60 -142.5q0 -84 -59.5 -142.5t-142.5 -58.5zM629 1188q-85 0 -146 58.5t-61 142.5q0 83 61 142.5t146 59.5q82 0 142 -59.5t60 -142.5q0 -84 -59.5 -142.5t-142.5 -58.5z" />
    <glyph glyph-name="copyright" unicode="&#xa9;" horiz-adv-x="1638" 
d="M821 -45q-159 0 -303 60.5t-248.5 162.5t-166.5 244.5t-62 300.5t62 301.5t166.5 246.5t248.5 163.5t303 60.5q158 0 301.5 -60.5t247.5 -163.5t165.5 -246.5t61.5 -301.5t-61.5 -300.5t-165.5 -244.5t-247.5 -162.5t-301.5 -60.5zM813 70q177 0 329.5 87.5t242.5 238
t90 327.5q0 178 -88 329.5t-238.5 239.5t-327.5 88q-133 0 -255 -52t-210 -140t-140 -210t-52 -255t51 -253.5t137.5 -208t207 -139.5t253.5 -52zM862 233q-141 0 -255 56.5t-183.5 169.5t-69.5 264q0 145 69.5 257.5t184.5 171t254 58.5q107 0 204 -41t155 -114l-201 -164
q-54 74 -166 74q-92 0 -146.5 -71.5t-54.5 -168.5t56.5 -169.5t156.5 -72.5q108 0 164 68l189 -180q-65 -65 -158.5 -101.5t-198.5 -36.5z" />
    <glyph glyph-name="ordfeminine" unicode="&#xaa;" horiz-adv-x="798" 
d="M303 868q-39 0 -76.5 10t-71.5 31t-54.5 58.5t-20.5 87.5q0 46 22.5 81t58 56t85.5 34t99 18t104 5h4v2q0 52 -72 52q-70 0 -135 -50l-142 125q58 51 139 79t165 28q88 0 150 -22.5t95.5 -65t47.5 -93t14 -116.5v-217v-88h-254v47h-2q-22 -31 -65.5 -46.5t-90.5 -15.5z
M383 1024q38 0 62 22t24 56v18h-16q-65 0 -98 -12t-33 -43q0 -20 19.5 -30.5t41.5 -10.5z" />
    <glyph glyph-name="guillemotleft" unicode="&#xab;" horiz-adv-x="1187" 
d="M659 223l-264 -170l-360 508l360 508l264 -170l-235 -338zM1130 223l-264 -170l-360 508l360 508l264 -170l-235 -338z" />
    <glyph glyph-name="logicalnot" unicode="&#xac;" horiz-adv-x="1363" 
d="M1239 293h-324v350h-839v295h1163v-645z" />
    <glyph glyph-name="uni00AD" unicode="&#xad;" horiz-adv-x="688" 
d="M627 408h-566v352h566v-352z" />
    <glyph glyph-name="registered" unicode="&#xae;" horiz-adv-x="1228" 
d="M616 547q-127 0 -235 61t-171 167t-63 233q0 193 137.5 329t331.5 136q192 0 328.5 -136t136.5 -329q0 -127 -62.5 -233t-169.5 -167t-233 -61zM616 614q162 0 277 116t115 278q0 163 -114.5 278t-277.5 115q-164 0 -279.5 -115t-115.5 -278q0 -162 115.5 -278
t279.5 -116zM571 748h-180v544h234q47 0 88.5 -8.5t78.5 -27.5t58.5 -55t21.5 -85q0 -112 -98 -151l125 -217h-205l-90 192h-33v-192zM571 1151v-84h54q25 0 41 13.5t16 33.5q0 17 -17 27t-40 10h-54z" />
    <glyph glyph-name="macron" unicode="&#xaf;" horiz-adv-x="737" 
d="M737 1251h-737v197h737v-197z" />
    <glyph glyph-name="degree" unicode="&#xb0;" horiz-adv-x="901" 
d="M451 768q-158 0 -262.5 104.5t-104.5 262.5t104.5 262t262.5 104t262 -104t104 -262t-104 -262.5t-262 -104.5zM451 936q83 0 140.5 58t57.5 141t-57.5 140.5t-140.5 57.5t-141 -57.5t-58 -140.5t58 -141t141 -58z" />
    <glyph glyph-name="plusminus" unicode="&#xb1;" horiz-adv-x="1363" 
d="M850 434h-336v248h-451v311h451v248h336v-248h450v-311h-450v-248zM1300 61h-1237v312h1237v-312z" />
    <glyph glyph-name="two.sups" unicode="&#xb2;" horiz-adv-x="921" 
d="M850 899h-741v240l372 301q39 31 39 67q0 27 -16 44.5t-49 17.5q-37 0 -62 -29.5t-28 -79.5l-293 33q8 87 45.5 154.5t94 108t124.5 61t143 20.5q71 0 134.5 -16.5t117 -50.5t85.5 -93.5t32 -136.5q0 -54 -13.5 -98t-42 -79t-55 -58.5t-67.5 -53.5l-135 -94h315v-258z
" />
    <glyph glyph-name="three.sups" unicode="&#xb3;" horiz-adv-x="921" 
d="M483 877q-70 0 -134 16t-119.5 49t-96 88t-57.5 127l278 68q8 -38 37 -65t72 -27q36 0 59 14.5t23 46.5q0 39 -32.5 53.5t-96.5 14.5h-86v211h96q54 0 79 14.5t25 48.5q0 23 -18 39t-53 16q-31 0 -57.5 -22.5t-32.5 -59.5l-275 64q21 72 63 125t97.5 82t113.5 43t121 14
q62 0 121 -14.5t111 -44t83.5 -80.5t31.5 -117q0 -80 -31 -126t-90 -75v-2q67 -22 102 -77t35 -125q0 -77 -32 -136t-86 -93.5t-117.5 -52t-133.5 -17.5z" />
    <glyph glyph-name="acute" unicode="&#xb4;" horiz-adv-x="737" 
d="M498 1196h-348l227 295h436z" />
    <glyph glyph-name="uni00B5" unicode="&#xb5;" horiz-adv-x="1527" 
d="M1403 328q23 0 63 12v-332q-80 -37 -227 -37q-206 0 -274 148h-7q-26 -54 -82 -101t-137 -47q-78 0 -121 37h-4v-467h-483v1536h483v-567q0 -71 21 -110.5t78 -39.5q42 0 68 26.5t34 57.5t8 66v567h484v-641q0 -64 22.5 -86t73.5 -22z" />
    <glyph glyph-name="paragraph" unicode="&#xb6;" horiz-adv-x="1323" 
d="M778 -272h-315v948q-205 11 -320.5 109.5t-115.5 269.5q0 95 30 166.5t78.5 114.5t119.5 69t143.5 35.5t160.5 9.5h643v-1722h-317v1431h-107v-1431z" />
    <glyph glyph-name="periodcentered" unicode="&#xb7;" horiz-adv-x="737" 
d="M373 328q-114 0 -194.5 76.5t-80.5 187.5q0 109 81.5 187.5t193.5 78.5q108 0 187 -79t79 -187q0 -111 -78.5 -187.5t-187.5 -76.5z" />
    <glyph glyph-name="cedilla" unicode="&#xb8;" horiz-adv-x="737" 
d="M326 -492q-66 0 -143 13.5t-130 34.5l70 159q75 -32 174 -32q84 0 84 43q0 36 -78 36q-47 0 -84 -12l-90 70l154 180h241l-102 -109q15 3 33 3q30 0 57.5 -4.5t55.5 -17t49 -31.5t34 -50.5t13 -71.5q0 -60 -32.5 -103.5t-86 -65.5t-108 -32t-111.5 -10z" />
    <glyph glyph-name="one.sups" unicode="&#xb9;" horiz-adv-x="921" 
d="M715 899h-309v590l-154 -107l-146 226l324 204h285v-913z" />
    <glyph glyph-name="ordmasculine" unicode="&#xba;" horiz-adv-x="798" 
d="M399 864q-136 0 -231.5 85.5t-95.5 230.5q0 142 95.5 224.5t231.5 82.5q139 0 235.5 -82.5t96.5 -224.5q0 -145 -97 -230.5t-235 -85.5zM401 1081q41 0 68 28.5t27 70.5q0 38 -28 66t-69 28q-40 0 -66 -28t-26 -66q0 -42 26.5 -70.5t67.5 -28.5z" />
    <glyph glyph-name="guillemotright" unicode="&#xbb;" horiz-adv-x="1187" 
d="M682 561l-358 -508l-267 170l236 338l-236 338l267 170zM1153 561l-358 -508l-267 170l236 338l-236 338l267 170z" />
    <glyph glyph-name="onequarter" unicode="&#xbc;" horiz-adv-x="2048" 
d="M588 27l708 1486l203 -92l-708 -1476zM715 537h-309v589l-154 -106l-146 225l324 205h285v-913zM1858 0h-279v162h-440v250l346 501h373v-512h122v-239h-122v-162zM1579 633l-154 -232h158v232h-4z" />
    <glyph glyph-name="onehalf" unicode="&#xbd;" horiz-adv-x="2048" 
d="M1296 1513l203 -92l-708 -1476l-203 82zM715 537h-309v589l-154 -106l-146 225l324 205h285v-913zM1999 0h-742v240l373 301q39 35 39 67q0 27 -16 44.5t-49 17.5q-37 0 -62.5 -29.5t-28.5 -79.5l-292 33q8 87 45.5 154.5t94 108t124.5 61t143 20.5q71 0 134.5 -16.5
t117 -50.5t85.5 -93.5t32 -136.5q0 -54 -13.5 -98t-42 -79t-55 -58.5t-67.5 -53.5l-136 -94h316v-258z" />
    <glyph glyph-name="threequarters" unicode="&#xbe;" horiz-adv-x="2048" 
d="M791 -55l-203 82l708 1486l203 -92zM483 520q-70 0 -134 16.5t-119.5 49t-96 88t-57.5 127.5l278 67q8 -38 37 -65t72 -27q35 0 58.5 15t23.5 47q0 39 -32.5 53t-96.5 14h-86v211h96q54 0 79 14.5t25 49.5q0 23 -18 39t-53 16q-31 0 -57.5 -22.5t-32.5 -59.5l-275 64
q21 72 63 125t97.5 82t113.5 43t121 14q62 0 121 -14.5t111 -44t83.5 -80.5t31.5 -117q0 -80 -31 -126t-90 -75v-2q67 -22 102 -77.5t35 -125.5q0 -77 -32 -136t-86 -93.5t-117.5 -52t-133.5 -17.5zM1853 0h-278v162h-440v250l346 501h372v-512h123v-239h-123v-162z
M1575 633l-154 -232h158v232h-4z" />
    <glyph glyph-name="questiondown" unicode="&#xbf;" horiz-adv-x="1202" 
d="M569 623q-105 0 -179.5 72.5t-74.5 174.5q0 104 74 176t180 72t180 -72t74 -176q0 -102 -74.5 -174.5t-179.5 -72.5zM563 -406q-80 0 -155.5 13.5t-148.5 45.5t-127.5 80t-88 123t-33.5 169q0 132 66 219.5t203 169.5q73 45 73 102v53h436v-75q0 -112 -49 -181.5
t-151 -140.5l-35 -25q-68 -49 -68 -90q0 -77 86 -77q63 0 94 45t31 114l441 -57q-13 -128 -64.5 -224t-131.5 -152.5t-175 -84t-203 -27.5z" />
    <glyph glyph-name="Agrave" unicode="&#xc0;" horiz-adv-x="1589" 
d="M799 1860l227 -295h-348l-316 295h437zM539 1450h518l565 -1450h-530l-76 213h-461l-72 -213h-516zM791 942l-119 -356h235z" />
    <glyph glyph-name="Aacute" unicode="&#xc1;" horiz-adv-x="1589" 
d="M797 1860h436l-315 -295h-349zM539 1450h518l565 -1450h-530l-76 213h-461l-72 -213h-516zM791 942l-119 -356h235z" />
    <glyph glyph-name="Acircumflex" unicode="&#xc2;" horiz-adv-x="1589" 
d="M934 1565l-137 139l-138 -139h-311l281 295h346l274 -295h-315zM539 1450h518l565 -1450h-530l-76 213h-461l-72 -213h-516zM791 942l-119 -356h235z" />
    <glyph glyph-name="Atilde" unicode="&#xc3;" horiz-adv-x="1589" 
d="M655 1651q-31 0 -50 -20.5t-25 -53.5h-164q6 122 67.5 200t163.5 78q76 0 172 -49q51 -27 76.5 -36t56.5 -9t47.5 19.5t24.5 62.5h162q-6 -125 -68.5 -204.5t-165.5 -79.5q-79 0 -168 47q-52 28 -76 36.5t-53 8.5zM539 1450h518l565 -1450h-530l-76 213h-461l-72 -213
h-516zM791 942l-119 -356h235z" />
    <glyph glyph-name="Adieresis" unicode="&#xc4;" horiz-adv-x="1589" 
d="M547 1556q-85 0 -146 58.5t-61 142.5q0 83 61 143t146 60q82 0 142.5 -60t60.5 -143q0 -84 -60 -142.5t-143 -58.5zM1059 1556q-85 0 -146 58.5t-61 142.5q0 83 61 143t146 60q82 0 142.5 -60t60.5 -143q0 -84 -60 -142.5t-143 -58.5zM539 1450h518l565 -1450h-530
l-76 213h-461l-72 -213h-516zM791 942l-119 -356h235z" />
    <glyph glyph-name="Aring" unicode="&#xc5;" horiz-adv-x="1589" 
d="M797 1522q-97 0 -166.5 67.5t-69.5 165.5q0 99 70 166.5t166 67.5t165.5 -67.5t69.5 -166.5t-69.5 -166t-165.5 -67zM797 1876q-51 0 -87 -35t-36 -86t36 -86t87 -35t87 35t36 86t-36 86t-87 35zM539 1450h518l565 -1450h-530l-76 213h-461l-72 -213h-516zM791 942
l-119 -356h235z" />
    <glyph glyph-name="AE" unicode="&#xc6;" horiz-adv-x="2076" 
d="M545 0h-545l725 1450h1249v-406h-518v-124h486v-379h-486v-135h553v-406h-1001v213h-363zM999 1044l-208 -458h217v458h-9z" />
    <glyph glyph-name="Ccedilla" unicode="&#xc7;" horiz-adv-x="1425" 
d="M797 -492q-66 0 -143 13.5t-130 34.5l70 159q75 -32 174 -32q82 0 82 43q0 36 -76 36q-46 0 -84 -12l-90 70l127 149q-140 20 -260.5 83t-208.5 159.5t-138 229.5t-50 284q0 171 61.5 315.5t168 242.5t251 153t307.5 55q166 0 316 -54t251 -147l-299 -360
q-80 108 -239 108q-125 0 -209 -86t-84 -227q0 -137 85.5 -223t207.5 -86q79 0 141 32.5t98 83.5l299 -358q-180 -180 -467 -209l-67 -74q15 3 33 3q30 0 57.5 -4.5t55.5 -17t49 -31.5t34 -50.5t13 -71.5q0 -60 -32.5 -103.5t-86 -65.5t-107.5 -32t-110 -10z" />
    <glyph glyph-name="Egrave" unicode="&#xc8;" horiz-adv-x="1234" 
d="M885 1565h-348l-316 295h436zM1167 0h-1032v1450h998v-406h-539v-124h506v-379h-506v-135h573v-406z" />
    <glyph glyph-name="Eacute" unicode="&#xc9;" horiz-adv-x="1234" 
d="M741 1565h-348l228 295h436zM1167 0h-1032v1450h998v-406h-539v-124h506v-379h-506v-135h573v-406z" />
    <glyph glyph-name="Ecircumflex" unicode="&#xca;" horiz-adv-x="1234" 
d="M500 1565h-312l281 295h346l275 -295h-316l-137 139zM1167 0h-1032v1450h998v-406h-539v-124h506v-379h-506v-135h573v-406z" />
    <glyph glyph-name="Edieresis" unicode="&#xcb;" horiz-adv-x="1234" 
d="M385 1556q-85 0 -146 58.5t-61 142.5q0 83 61 143t146 60q82 0 142.5 -60t60.5 -143q0 -84 -60 -142.5t-143 -58.5zM897 1556q-85 0 -146 58.5t-61 142.5q0 83 61 143t146 60q82 0 142.5 -60t60.5 -143q0 -84 -60 -142.5t-143 -58.5zM1167 0h-1032v1450h998v-406h-539
v-124h506v-379h-506v-135h573v-406z" />
    <glyph glyph-name="Igrave" unicode="&#xcc;" horiz-adv-x="761" 
d="M627 1565h-348l-316 295h436zM627 0h-492v1450h492v-1450z" />
    <glyph glyph-name="Iacute" unicode="&#xcd;" horiz-adv-x="761" 
d="M483 1565h-348l227 295h437zM627 0h-492v1450h492v-1450z" />
    <glyph glyph-name="Icircumflex" unicode="&#xce;" horiz-adv-x="761" 
d="M246 1565h-312l281 295h346l275 -295h-316l-137 139zM627 0h-492v1450h492v-1450z" />
    <glyph glyph-name="Idieresis" unicode="&#xcf;" horiz-adv-x="761" 
d="M133 1556q-85 0 -146 58.5t-61 142.5q0 83 61 143t146 60q82 0 142.5 -60t60.5 -143q0 -84 -60 -142.5t-143 -58.5zM645 1556q-85 0 -146 58.5t-61 142.5q0 83 61 143t146 60q82 0 142.5 -60t60.5 -143q0 -84 -60 -142.5t-143 -58.5zM627 0h-492v1450h492v-1450z" />
    <glyph glyph-name="Eth" unicode="&#xd0;" horiz-adv-x="1613" 
d="M717 0h-582v586h-110v291h110v573h541q101 0 192 -10.5t179.5 -35t162 -62t136.5 -94.5t106 -130t67.5 -171t24.5 -214q0 -149 -45 -271.5t-122.5 -207t-183 -142.5t-225 -85t-251.5 -27zM604 586v-168h90q357 0 357 319q0 139 -91.5 219t-246.5 80h-109v-159h262v-291
h-262z" />
    <glyph glyph-name="Ntilde" unicode="&#xd1;" horiz-adv-x="1619" 
d="M598 1577h-164q6 121 68 199.5t164 78.5q76 0 172 -49q51 -27 76.5 -36t56.5 -9t47 19.5t24 62.5h162q-6 -125 -68 -204.5t-165 -79.5q-79 0 -168 47q-52 28 -76 36.5t-53 8.5q-31 0 -50.5 -20.5t-25.5 -53.5zM598 0h-463v1450h486l413 -735h8l-20 735h463v-1450h-498
l-401 692h-8z" />
    <glyph glyph-name="Ograve" unicode="&#xd2;" horiz-adv-x="1751" 
d="M1104 1565h-348l-316 295h437zM874 -41q-171 0 -319 56t-255 156t-168.5 245.5t-61.5 316.5q0 228 105.5 401.5t287.5 265t411 91.5t412 -91.5t289 -265t106 -401.5t-106 -405.5t-289 -273t-412 -95.5zM874 410q124 0 205.5 91.5t81.5 231.5q0 139 -81 225t-206 86
q-126 0 -206 -85.5t-80 -225.5q0 -141 80.5 -232t205.5 -91z" />
    <glyph glyph-name="Oacute" unicode="&#xd3;" horiz-adv-x="1751" 
d="M1001 1565h-348l228 295h436zM874 -41q-171 0 -319 56t-255 156t-168.5 245.5t-61.5 316.5q0 228 105.5 401.5t287.5 265t411 91.5t412 -91.5t289 -265t106 -401.5t-106 -405.5t-289 -273t-412 -95.5zM874 410q124 0 205.5 91.5t81.5 231.5q0 139 -81 225t-206 86
q-126 0 -206 -85.5t-80 -225.5q0 -141 80.5 -232t205.5 -91z" />
    <glyph glyph-name="Ocircumflex" unicode="&#xd4;" horiz-adv-x="1751" 
d="M735 1565h-311l281 295h346l274 -295h-315l-138 139zM874 -41q-171 0 -319 56t-255 156t-168.5 245.5t-61.5 316.5q0 228 105.5 401.5t287.5 265t411 91.5t412 -91.5t289 -265t106 -401.5t-106 -405.5t-289 -273t-412 -95.5zM874 410q124 0 205.5 91.5t81.5 231.5
q0 139 -81 225t-206 86q-126 0 -206 -85.5t-80 -225.5q0 -141 80.5 -232t205.5 -91z" />
    <glyph glyph-name="Otilde" unicode="&#xd5;" horiz-adv-x="1751" 
d="M655 1577h-163q6 122 67.5 200t163.5 78q76 0 172 -49q51 -27 76.5 -36t56.5 -9t47.5 19.5t24.5 62.5h162q-6 -125 -68.5 -204.5t-165.5 -79.5q-79 0 -168 47q-52 28 -76 36.5t-53 8.5q-31 0 -50.5 -20.5t-25.5 -53.5zM874 -41q-171 0 -319 56t-255 156t-168.5 245.5
t-61.5 316.5q0 228 105.5 401.5t287.5 265t411 91.5t412 -91.5t289 -265t106 -401.5t-106 -405.5t-289 -273t-412 -95.5zM874 410q124 0 205.5 91.5t81.5 231.5q0 139 -81 225t-206 86q-126 0 -206 -85.5t-80 -225.5q0 -141 80.5 -232t205.5 -91z" />
    <glyph glyph-name="Odieresis" unicode="&#xd6;" horiz-adv-x="1751" 
d="M623 1556q-85 0 -146 58.5t-61 142.5q0 83 61 143t146 60q82 0 142 -60t60 -143q0 -84 -59.5 -142.5t-142.5 -58.5zM1135 1556q-85 0 -146 58.5t-61 142.5q0 83 61 143t146 60q82 0 142 -60t60 -143q0 -84 -59.5 -142.5t-142.5 -58.5zM874 -41q-171 0 -319 56t-255 156
t-168.5 245.5t-61.5 316.5q0 228 105.5 401.5t287.5 265t411 91.5t412 -91.5t289 -265t106 -401.5t-106 -405.5t-289 -273t-412 -95.5zM874 410q124 0 205.5 91.5t81.5 231.5q0 139 -81 225t-206 86q-126 0 -206 -85.5t-80 -225.5q0 -141 80.5 -232t205.5 -91z" />
    <glyph glyph-name="multiply" unicode="&#xd7;" horiz-adv-x="1363" 
d="M684 397l-350 -338l-230 215l347 344l-353 332l238 228l350 -334l340 332l229 -213l-342 -338l355 -336l-234 -230z" />
    <glyph glyph-name="Oslash" unicode="&#xd8;" horiz-adv-x="1751" 
d="M436 82l-190 -207l-193 164l189 205q-172 197 -172 489q0 171 61.5 314t169 240t256 150.5t320.5 53.5q238 0 430 -109l184 209l192 -166l-182 -196q180 -198 180 -496q0 -228 -106 -405.5t-289 -273t-412 -95.5q-129 0 -244.5 31.5t-193.5 91.5zM580 600l411 451
q-47 18 -117 18q-76 0 -136.5 -28t-98.5 -76t-58 -109t-20 -129q0 -78 19 -127zM870 391q149 0 231.5 98.5t82.5 241.5q0 75 -21 129l-411 -450q49 -19 118 -19z" />
    <glyph glyph-name="Ugrave" unicode="&#xd9;" horiz-adv-x="1587" 
d="M1022 1565h-348l-316 295h437zM786 -41q-166 0 -295.5 46.5t-210.5 129.5t-123 193t-42 241v881h487v-827q0 -104 50.5 -163t142.5 -59q91 0 141.5 59t50.5 163v827h486v-881q0 -130 -44.5 -240.5t-128.5 -193.5t-216 -129.5t-298 -46.5z" />
    <glyph glyph-name="Uacute" unicode="&#xda;" horiz-adv-x="1587" 
d="M922 1565h-349l228 295h436zM786 -41q-166 0 -295.5 46.5t-210.5 129.5t-123 193t-42 241v881h487v-827q0 -104 50.5 -163t142.5 -59q91 0 141.5 59t50.5 163v827h486v-881q0 -130 -44.5 -240.5t-128.5 -193.5t-216 -129.5t-298 -46.5z" />
    <glyph glyph-name="Ucircumflex" unicode="&#xdb;" horiz-adv-x="1587" 
d="M657 1565h-311l281 295h346l274 -295h-315l-137 139zM786 -41q-166 0 -295.5 46.5t-210.5 129.5t-123 193t-42 241v881h487v-827q0 -104 50.5 -163t142.5 -59q91 0 141.5 59t50.5 163v827h486v-881q0 -130 -44.5 -240.5t-128.5 -193.5t-216 -129.5t-298 -46.5z" />
    <glyph glyph-name="Udieresis" unicode="&#xdc;" horiz-adv-x="1587" 
d="M545 1556q-85 0 -146 58.5t-61 142.5q0 83 61 143t146 60q82 0 142.5 -60t60.5 -143q0 -84 -60 -142.5t-143 -58.5zM1057 1556q-85 0 -146 58.5t-61 142.5q0 83 61 143t146 60q82 0 142.5 -60t60.5 -143q0 -84 -60 -142.5t-143 -58.5zM786 -41q-166 0 -295.5 46.5
t-210.5 129.5t-123 193t-42 241v881h487v-827q0 -104 50.5 -163t142.5 -59q91 0 141.5 59t50.5 163v827h486v-881q0 -130 -44.5 -240.5t-128.5 -193.5t-216 -129.5t-298 -46.5z" />
    <glyph glyph-name="Yacute" unicode="&#xdd;" horiz-adv-x="1511" 
d="M813 1860h436l-315 -295h-348zM768 1024l219 426h574l-576 -856v-594h-487v594l-547 856h588z" />
    <glyph glyph-name="Thorn" unicode="&#xde;" horiz-adv-x="1400" 
d="M621 0h-486v1450h486v-207h137q93 0 175.5 -14.5t160.5 -49.5t134 -89t90 -139.5t34 -194.5q0 -104 -33 -188.5t-89 -141t-133 -94.5t-161.5 -55t-177.5 -17h-137v-260zM621 864v-233h102q61 0 104 30.5t43 90.5q0 112 -147 112h-102z" />
    <glyph glyph-name="germandbls" unicode="&#xdf;" horiz-adv-x="1488" 
d="M866 -33q-94 0 -221 29v346q62 -20 117 -20q84 0 134 38t50 119q0 87 -58.5 126.5t-156.5 39.5h-69v346h67q59 0 98 31t39 88q0 49 -35 76.5t-90 27.5q-80 0 -119.5 -53t-39.5 -137v-1024h-473v1010q0 267 167 415t486 148q91 0 174 -15t158 -48t130 -81.5t87 -120
t32 -157.5q0 -118 -55.5 -196t-142.5 -113v-2q125 -34 200.5 -132t75.5 -251q0 -122 -41 -216.5t-116 -153.5t-175.5 -89.5t-222.5 -30.5z" />
    <glyph glyph-name="agrave" unicode="&#xe0;" horiz-adv-x="1210" 
d="M840 1196h-348l-316 295h436zM428 -29q-67 0 -130 19t-119.5 57.5t-91 108t-34.5 161.5q0 86 38 152t98.5 105t145 64t166.5 33.5t175 8.5h4v4q0 48 -32.5 72t-90.5 24q-116 0 -227 -92l-236 234q96 93 232 144.5t280 51.5q120 0 211 -28.5t148.5 -77.5t94 -120.5
t50.5 -150t14 -174.5v-432v-135h-428v86h-4q-37 -57 -111 -86t-153 -29zM561 256q67 0 108.5 43t41.5 111v36h-27q-112 0 -171.5 -24t-59.5 -82q0 -40 34 -62t74 -22z" />
    <glyph glyph-name="aacute" unicode="&#xe1;" horiz-adv-x="1210" 
d="M739 1196h-348l227 295h437zM428 -29q-67 0 -130 19t-119.5 57.5t-91 108t-34.5 161.5q0 86 38 152t98.5 105t145 64t166.5 33.5t175 8.5h4v4q0 48 -32.5 72t-90.5 24q-116 0 -227 -92l-236 234q96 93 232 144.5t280 51.5q120 0 211 -28.5t148.5 -77.5t94 -120.5
t50.5 -150t14 -174.5v-432v-135h-428v86h-4q-37 -57 -111 -86t-153 -29zM561 256q67 0 108.5 43t41.5 111v36h-27q-112 0 -171.5 -24t-59.5 -82q0 -40 34 -62t74 -22z" />
    <glyph glyph-name="acircumflex" unicode="&#xe2;" horiz-adv-x="1210" 
d="M477 1196h-311l280 295h347l274 -295h-315l-138 139zM428 -29q-67 0 -130 19t-119.5 57.5t-91 108t-34.5 161.5q0 86 38 152t98.5 105t145 64t166.5 33.5t175 8.5h4v4q0 48 -32.5 72t-90.5 24q-116 0 -227 -92l-236 234q96 93 232 144.5t280 51.5q120 0 211 -28.5
t148.5 -77.5t94 -120.5t50.5 -150t14 -174.5v-432v-135h-428v86h-4q-37 -57 -111 -86t-153 -29zM561 256q67 0 108.5 43t41.5 111v36h-27q-112 0 -171.5 -24t-59.5 -82q0 -40 34 -62t74 -22z" />
    <glyph glyph-name="atilde" unicode="&#xe3;" horiz-adv-x="1210" 
d="M397 1208h-164q6 122 68 200.5t164 78.5q76 0 172 -49q51 -27 76.5 -36t56.5 -9t47.5 19.5t24.5 62.5h162q-6 -125 -68.5 -205t-165.5 -80q-79 0 -168 47q-52 28 -76 36.5t-53 8.5q-31 0 -50.5 -20.5t-25.5 -53.5zM428 -29q-67 0 -130 19t-119.5 57.5t-91 108
t-34.5 161.5q0 86 38 152t98.5 105t145 64t166.5 33.5t175 8.5h4v4q0 48 -32.5 72t-90.5 24q-116 0 -227 -92l-236 234q96 93 232 144.5t280 51.5q120 0 211 -28.5t148.5 -77.5t94 -120.5t50.5 -150t14 -174.5v-432v-135h-428v86h-4q-37 -57 -111 -86t-153 -29zM561 256
q67 0 108.5 43t41.5 111v36h-27q-112 0 -171.5 -24t-59.5 -82q0 -40 34 -62t74 -22z" />
    <glyph glyph-name="adieresis" unicode="&#xe4;" horiz-adv-x="1210" 
d="M362 1188q-85 0 -145.5 58.5t-60.5 142.5q0 83 60.5 142.5t145.5 59.5q82 0 142.5 -59.5t60.5 -142.5q0 -84 -60 -142.5t-143 -58.5zM874 1188q-85 0 -145.5 58.5t-60.5 142.5q0 83 60.5 142.5t145.5 59.5q82 0 142.5 -59.5t60.5 -142.5q0 -84 -60 -142.5t-143 -58.5z
M428 -29q-67 0 -130 19t-119.5 57.5t-91 108t-34.5 161.5q0 86 38 152t98.5 105t145 64t166.5 33.5t175 8.5h4v4q0 48 -32.5 72t-90.5 24q-116 0 -227 -92l-236 234q96 93 232 144.5t280 51.5q120 0 211 -28.5t148.5 -77.5t94 -120.5t50.5 -150t14 -174.5v-432v-135h-428v86
h-4q-37 -57 -111 -86t-153 -29zM561 256q67 0 108.5 43t41.5 111v36h-27q-112 0 -171.5 -24t-59.5 -82q0 -40 34 -62t74 -22z" />
    <glyph glyph-name="aring" unicode="&#xe5;" horiz-adv-x="1210" 
d="M616 1153q-96 0 -165.5 67t-69.5 166t69.5 166.5t165.5 67.5t166 -67.5t70 -166.5q0 -98 -69.5 -165.5t-166.5 -67.5zM616 1266q51 0 87 34.5t36 85.5t-36 86t-87 35t-86.5 -35t-35.5 -86t35.5 -85.5t86.5 -34.5zM428 -29q-67 0 -130 19t-119.5 57.5t-91 108t-34.5 161.5
q0 86 38 152t98.5 105t145 64t166.5 33.5t175 8.5h4v4q0 48 -32.5 72t-90.5 24q-116 0 -227 -92l-236 234q96 93 232 144.5t280 51.5q120 0 211 -28.5t148.5 -77.5t94 -120.5t50.5 -150t14 -174.5v-432v-135h-428v86h-4q-37 -57 -111 -86t-153 -29zM561 256q67 0 108.5 43
t41.5 111v36h-27q-112 0 -171.5 -24t-59.5 -82q0 -40 34 -62t74 -22z" />
    <glyph glyph-name="ae" unicode="&#xe6;" horiz-adv-x="1875" 
d="M469 -29q-60 0 -116.5 11t-111.5 37.5t-96.5 65t-66.5 98.5t-25 134q0 86 38 152t98 105t145 64t166 33.5t174 8.5h6v4q0 48 -32.5 72t-90.5 24q-120 0 -227 -92l-236 234q96 93 232 144.5t280 51.5q227 0 324 -125q61 56 144 90.5t177 34.5q166 0 296 -76.5t201 -210.5
t71 -303q0 -50 -4 -100h-725q6 -55 61 -89t123 -34q60 0 105.5 22t70.5 54l336 -170q-72 -117 -209 -184.5t-315 -67.5q-105 0 -210.5 46t-164.5 122q-59 -76 -158.5 -116t-259.5 -40zM1085 682h326q0 58 -43 94.5t-113 36.5q-72 0 -117.5 -40.5t-52.5 -90.5zM563 260
q64 0 104 41.5t40 106.5v34h-25q-109 0 -166 -22.5t-57 -79.5q0 -38 33 -59t71 -21z" />
    <glyph glyph-name="ccedilla" unicode="&#xe7;" horiz-adv-x="1077" 
d="M580 -492q-66 0 -143 13.5t-130 34.5l70 159q75 -32 174 -32q82 0 82 43q0 36 -76 36q-46 0 -84 -12l-90 70l135 160q-206 45 -329 193.5t-123 365.5q0 171 83.5 304t227.5 204t323 71q107 0 217.5 -34t174.5 -83l-236 -339q-24 28 -63 43.5t-78 15.5q-74 0 -129.5 -48.5
t-55.5 -133.5t55.5 -132t129.5 -47q88 0 143 58l238 -332q-63 -51 -158.5 -85t-198.5 -40l-65 -70q15 3 33 3q30 0 57.5 -4.5t55.5 -17t48.5 -31.5t33.5 -50.5t13 -71.5q0 -60 -32.5 -103.5t-85.5 -65.5t-107 -32t-110 -10z" />
    <glyph glyph-name="egrave" unicode="&#xe8;" horiz-adv-x="1290" 
d="M897 1196h-348l-316 295h437zM676 -41q-119 0 -227.5 38t-194.5 108.5t-137 183t-51 250.5q0 173 81 306.5t216.5 203t302.5 69.5q166 0 296 -76.5t200.5 -210.5t70.5 -303q0 -50 -4 -100h-725q6 -55 61 -89t123 -34q60 0 105.5 22t70.5 54l336 -170
q-72 -117 -209 -184.5t-315 -67.5zM500 682h325q0 58 -42.5 94.5t-112.5 36.5q-72 0 -117.5 -40.5t-52.5 -90.5z" />
    <glyph glyph-name="eacute" unicode="&#xe9;" horiz-adv-x="1290" 
d="M797 1196h-348l227 295h436zM676 -41q-119 0 -227.5 38t-194.5 108.5t-137 183t-51 250.5q0 173 81 306.5t216.5 203t302.5 69.5q166 0 296 -76.5t200.5 -210.5t70.5 -303q0 -50 -4 -100h-725q6 -55 61 -89t123 -34q60 0 105.5 22t70.5 54l336 -170q-72 -117 -209 -184.5
t-315 -67.5zM500 682h325q0 58 -42.5 94.5t-112.5 36.5q-72 0 -117.5 -40.5t-52.5 -90.5z" />
    <glyph glyph-name="ecircumflex" unicode="&#xea;" horiz-adv-x="1290" 
d="M543 1196h-312l281 295h346l275 -295h-316l-137 139zM676 -41q-119 0 -227.5 38t-194.5 108.5t-137 183t-51 250.5q0 173 81 306.5t216.5 203t302.5 69.5q166 0 296 -76.5t200.5 -210.5t70.5 -303q0 -50 -4 -100h-725q6 -55 61 -89t123 -34q60 0 105.5 22t70.5 54
l336 -170q-72 -117 -209 -184.5t-315 -67.5zM500 682h325q0 58 -42.5 94.5t-112.5 36.5q-72 0 -117.5 -40.5t-52.5 -90.5z" />
    <glyph glyph-name="edieresis" unicode="&#xeb;" horiz-adv-x="1290" 
d="M422 1188q-85 0 -146 58.5t-61 142.5q0 83 61 142.5t146 59.5q82 0 142.5 -59.5t60.5 -142.5q0 -84 -60 -142.5t-143 -58.5zM934 1188q-85 0 -146 58.5t-61 142.5q0 83 61 142.5t146 59.5q82 0 142.5 -59.5t60.5 -142.5q0 -84 -60 -142.5t-143 -58.5zM676 -41
q-119 0 -227.5 38t-194.5 108.5t-137 183t-51 250.5q0 173 81 306.5t216.5 203t302.5 69.5q166 0 296 -76.5t200.5 -210.5t70.5 -303q0 -50 -4 -100h-725q6 -55 61 -89t123 -34q60 0 105.5 22t70.5 54l336 -170q-72 -117 -209 -184.5t-315 -67.5zM500 682h325
q0 58 -42.5 94.5t-112.5 36.5q-72 0 -117.5 -40.5t-52.5 -90.5z" />
    <glyph glyph-name="igrave" unicode="&#xec;" horiz-adv-x="694" 
d="M582 1196h-349l-315 295h436zM584 0h-473v1077h473v-1077z" />
    <glyph glyph-name="iacute" unicode="&#xed;" horiz-adv-x="694" 
d="M475 1196h-348l227 295h437zM584 0h-473v1077h473v-1077z" />
    <glyph glyph-name="icircumflex" unicode="&#xee;" horiz-adv-x="694" 
d="M215 1196h-311l280 295h346l275 -295h-316l-137 139zM584 0h-473v1077h473v-1077z" />
    <glyph glyph-name="idieresis" unicode="&#xef;" horiz-adv-x="694" 
d="M98 1188q-85 0 -146 58.5t-61 142.5q0 83 61 142.5t146 59.5q82 0 142.5 -59.5t60.5 -142.5q0 -84 -60 -142.5t-143 -58.5zM610 1188q-85 0 -146 58.5t-61 142.5q0 83 61 142.5t146 59.5q82 0 142.5 -59.5t60.5 -142.5q0 -84 -60 -142.5t-143 -58.5zM584 0h-473v1077h473
v-1077z" />
    <glyph glyph-name="eth" unicode="&#xf0;" horiz-adv-x="1359" 
d="M678 -41q-122 0 -232.5 39.5t-195 112t-134.5 184.5t-50 248q0 171 76.5 298t206 191t292.5 64q25 0 74 -9l4 3q-42 42 -113 100l-219 -88l-225 182l219 88q-68 54 -143 101l360 192q95 -67 174 -139l229 92l248 -193l-260 -100q152 -160 228.5 -331.5t76.5 -385.5
q0 -161 -50 -287t-136 -204t-195.5 -118t-234.5 -40zM680 360q75 0 125.5 53.5t50.5 129.5q0 72 -51.5 125t-126.5 53t-124.5 -53t-49.5 -125q0 -76 50.5 -129.5t125.5 -53.5z" />
    <glyph glyph-name="ntilde" unicode="&#xf1;" horiz-adv-x="1363" 
d="M459 1208h-164q6 122 67.5 200.5t163.5 78.5q76 0 172 -49q51 -27 76.5 -36t56.5 -9t47.5 19.5t24.5 62.5h162q-6 -125 -68.5 -205t-165.5 -80q-78 0 -167 47q-52 28 -76 36.5t-53 8.5q-31 0 -50.5 -20.5t-25.5 -53.5zM582 0h-473v827v250h460v-119h4q42 63 125.5 105.5
t182.5 42.5q88 0 156 -27t110.5 -70t70 -103.5t38 -121.5t10.5 -129v-655h-475v573q0 80 -25 114t-78 34q-47 0 -76.5 -39.5t-29.5 -108.5v-573z" />
    <glyph glyph-name="ograve" unicode="&#xf2;" horiz-adv-x="1359" 
d="M905 1196h-348l-315 295h436zM678 -41q-122 0 -232.5 39.5t-195 112t-134.5 184.5t-50 248q0 134 50 244.5t135 182t195 110t232 38.5q123 0 234 -38.5t196.5 -110t135.5 -182t50 -244.5q0 -136 -50.5 -248t-135.5 -184.5t-196 -112t-234 -39.5zM680 360q75 0 125.5 53.5
t50.5 129.5q0 72 -51.5 125t-126.5 53t-124.5 -53t-49.5 -125q0 -76 50.5 -129.5t125.5 -53.5z" />
    <glyph glyph-name="oacute" unicode="&#xf3;" horiz-adv-x="1359" 
d="M807 1196h-348l227 295h436zM678 -41q-122 0 -232.5 39.5t-195 112t-134.5 184.5t-50 248q0 134 50 244.5t135 182t195 110t232 38.5q123 0 234 -38.5t196.5 -110t135.5 -182t50 -244.5q0 -136 -50.5 -248t-135.5 -184.5t-196 -112t-234 -39.5zM680 360q75 0 125.5 53.5
t50.5 129.5q0 72 -51.5 125t-126.5 53t-124.5 -53t-49.5 -125q0 -76 50.5 -129.5t125.5 -53.5z" />
    <glyph glyph-name="ocircumflex" unicode="&#xf4;" horiz-adv-x="1359" 
d="M543 1196h-312l281 295h346l275 -295h-316l-137 139zM678 -41q-122 0 -232.5 39.5t-195 112t-134.5 184.5t-50 248q0 134 50 244.5t135 182t195 110t232 38.5q123 0 234 -38.5t196.5 -110t135.5 -182t50 -244.5q0 -136 -50.5 -248t-135.5 -184.5t-196 -112t-234 -39.5z
M680 360q75 0 125.5 53.5t50.5 129.5q0 72 -51.5 125t-126.5 53t-124.5 -53t-49.5 -125q0 -76 50.5 -129.5t125.5 -53.5z" />
    <glyph glyph-name="otilde" unicode="&#xf5;" horiz-adv-x="1359" 
d="M463 1208h-164q6 122 67.5 200.5t163.5 78.5q76 0 172 -49q50 -26 76.5 -35.5t57.5 -9.5t47 19.5t24 62.5h162q-6 -125 -68 -205t-165 -80q-79 0 -168 47q-52 28 -76 36.5t-53 8.5q-31 0 -50.5 -20.5t-25.5 -53.5zM678 -41q-122 0 -232.5 39.5t-195 112t-134.5 184.5
t-50 248q0 134 50 244.5t135 182t195 110t232 38.5q123 0 234 -38.5t196.5 -110t135.5 -182t50 -244.5q0 -136 -50.5 -248t-135.5 -184.5t-196 -112t-234 -39.5zM680 360q75 0 125.5 53.5t50.5 129.5q0 72 -51.5 125t-126.5 53t-124.5 -53t-49.5 -125q0 -76 50.5 -129.5
t125.5 -53.5z" />
    <glyph glyph-name="odieresis" unicode="&#xf6;" horiz-adv-x="1359" 
d="M426 1188q-85 0 -146 58.5t-61 142.5q0 83 61 142.5t146 59.5q82 0 142.5 -59.5t60.5 -142.5q0 -84 -60 -142.5t-143 -58.5zM938 1188q-85 0 -146 58.5t-61 142.5q0 83 61 142.5t146 59.5q82 0 142.5 -59.5t60.5 -142.5q0 -84 -60 -142.5t-143 -58.5zM678 -41
q-122 0 -232.5 39.5t-195 112t-134.5 184.5t-50 248q0 134 50 244.5t135 182t195 110t232 38.5q123 0 234 -38.5t196.5 -110t135.5 -182t50 -244.5q0 -136 -50.5 -248t-135.5 -184.5t-196 -112t-234 -39.5zM680 360q75 0 125.5 53.5t50.5 129.5q0 72 -51.5 125t-126.5 53
t-124.5 -53t-49.5 -125q0 -76 50.5 -129.5t125.5 -53.5z" />
    <glyph glyph-name="divide" unicode="&#xf7;" horiz-adv-x="1363" 
d="M684 819q-83 0 -143 57t-60 138q0 78 60.5 134t142.5 56t140.5 -56t58.5 -134q0 -81 -58.5 -138t-140.5 -57zM1202 471h-1040v301h1040v-301zM684 33q-82 0 -142.5 58t-60.5 136t60.5 134.5t142.5 56.5t140.5 -56.5t58.5 -134.5t-59 -136t-140 -58z" />
    <glyph glyph-name="oslash" unicode="&#xf8;" horiz-adv-x="1359" 
d="M360 47l-163 -164l-177 172l156 154q-52 59 -81 146t-29 186q0 173 83 306t221.5 202t307.5 69q193 0 323 -88l150 146l178 -172l-141 -140q106 -117 106 -321q0 -130 -49 -240.5t-133 -185t-196 -116.5t-238 -42q-187 0 -318 88zM487 524l220 221q-15 5 -43 5
q-82 0 -131.5 -52t-49.5 -133q0 -25 4 -41zM684 348q82 0 131 50.5t49 131.5q0 28 -6 43l-219 -219q12 -6 45 -6z" />
    <glyph glyph-name="ugrave" unicode="&#xf9;" horiz-adv-x="1357" 
d="M887 1196h-348l-316 295h436zM477 -29q-88 0 -156 27t-110.5 70t-70 103.5t-38 121.5t-10.5 129v655h475v-569q0 -80 25 -114t78 -34q47 0 76.5 39.5t29.5 108.5v569h473v-887v-190h-461v119h-4q-42 -63 -125 -105.5t-182 -42.5z" />
    <glyph glyph-name="uacute" unicode="&#xfa;" horiz-adv-x="1357" 
d="M823 1196h-348l227 295h437zM477 -29q-88 0 -156 27t-110.5 70t-70 103.5t-38 121.5t-10.5 129v655h475v-569q0 -80 25 -114t78 -34q47 0 76.5 39.5t29.5 108.5v569h473v-887v-190h-461v119h-4q-42 -63 -125 -105.5t-182 -42.5z" />
    <glyph glyph-name="ucircumflex" unicode="&#xfb;" horiz-adv-x="1357" 
d="M532 1196h-311l281 295h346l274 -295h-315l-137 139zM477 -29q-88 0 -156 27t-110.5 70t-70 103.5t-38 121.5t-10.5 129v655h475v-569q0 -80 25 -114t78 -34q47 0 76.5 39.5t29.5 108.5v569h473v-887v-190h-461v119h-4q-42 -63 -125 -105.5t-182 -42.5z" />
    <glyph glyph-name="udieresis" unicode="&#xfc;" horiz-adv-x="1357" 
d="M418 1188q-85 0 -146 58.5t-61 142.5q0 83 61 142.5t146 59.5q82 0 142.5 -59.5t60.5 -142.5q0 -84 -60 -142.5t-143 -58.5zM930 1188q-85 0 -146 58.5t-61 142.5q0 83 61 142.5t146 59.5q82 0 142.5 -59.5t60.5 -142.5q0 -84 -60 -142.5t-143 -58.5zM477 -29
q-88 0 -156 27t-110.5 70t-70 103.5t-38 121.5t-10.5 129v655h475v-569q0 -80 25 -114t78 -34q47 0 76.5 39.5t29.5 108.5v569h473v-887v-190h-461v119h-4q-42 -63 -125 -105.5t-182 -42.5z" />
    <glyph glyph-name="yacute" unicode="&#xfd;" horiz-adv-x="1306" 
d="M836 1196h-349l228 295h436zM315 -492q-138 0 -268 33l59 389q70 -24 134 -24q73 0 112 29t60 83l8 23l-436 1036h524l160 -567h8l141 567h506l-442 -1143q-41 -106 -88.5 -180.5t-114 -132t-156.5 -85.5t-207 -28z" />
    <glyph glyph-name="thorn" unicode="&#xfe;" horiz-adv-x="1421" 
d="M578 -492h-469v2040h469v-555h4q49 53 125.5 83t156.5 30q116 0 212 -49t155.5 -129.5t92 -180t32.5 -204.5q0 -109 -32 -210t-91.5 -182.5t-155 -130.5t-211.5 -49q-81 0 -158 30t-126 83h-4v-576zM741 360q82 0 129.5 52t47.5 131q0 74 -48 126t-129 52t-132.5 -52.5
t-51.5 -125.5q0 -77 51.5 -130t132.5 -53z" />
    <glyph glyph-name="ydieresis" unicode="&#xff;" horiz-adv-x="1306" 
d="M416 1188q-85 0 -146 58.5t-61 142.5q0 83 61 142.5t146 59.5q82 0 142 -59.5t60 -142.5q0 -84 -59.5 -142.5t-142.5 -58.5zM928 1188q-85 0 -146 58.5t-61 142.5q0 83 61 142.5t146 59.5q82 0 142 -59.5t60 -142.5q0 -84 -59.5 -142.5t-142.5 -58.5zM315 -492
q-138 0 -268 33l59 389q70 -24 134 -24q73 0 112 29t60 83l8 23l-436 1036h524l160 -567h8l141 567h506l-442 -1143q-41 -106 -88.5 -180.5t-114 -132t-156.5 -85.5t-207 -28z" />
    <glyph glyph-name="dotlessi" unicode="&#x131;" horiz-adv-x="694" 
d="M584 0h-473v1077h473v-1077z" />
    <glyph glyph-name="Lslash" unicode="&#x141;" horiz-adv-x="1124" 
d="M1108 0h-973v291l-112 -98v389l112 98v770h492v-418l348 299v-387l-348 -297v-229h481v-418z" />
    <glyph glyph-name="lslash" unicode="&#x142;" horiz-adv-x="700" 
d="M592 0h-483v453l-84 -78v397l84 80v696h483v-325l84 77v-397l-84 -80v-823z" />
    <glyph glyph-name="OE" unicode="&#x152;" horiz-adv-x="2062" 
d="M1995 0h-1069q-143 0 -265 22t-233 75t-189 135t-123.5 208.5t-45.5 288.5q0 149 45.5 270.5t124 204t188 139t234 82t264.5 25.5h1034v-406h-518v-124h487v-379h-487v-135h553v-406zM909 406h88v638h-69q-163 0 -253.5 -83t-90.5 -248q0 -138 91 -222.5t234 -84.5z" />
    <glyph glyph-name="oe" unicode="&#x153;" horiz-adv-x="2037" 
d="M678 -41q-122 0 -232.5 39.5t-195 112t-134.5 184.5t-50 248q0 134 50 244.5t135 182t195 110t232 38.5q120 0 216.5 -45t152.5 -115q64 71 161 115.5t211 44.5q247 0 404 -166.5t157 -423.5q0 -50 -4 -100h-725q6 -55 61.5 -89t123.5 -34q60 0 105.5 22t70.5 54
l336 -170q-71 -117 -208 -184.5t-310 -67.5q-121 0 -224 42t-159 105q-126 -147 -369 -147zM1247 682h326q0 58 -43 94.5t-113 36.5q-72 0 -117.5 -40.5t-52.5 -90.5zM680 360q75 0 125.5 53.5t50.5 129.5q0 72 -51.5 125t-126.5 53t-124.5 -53t-49.5 -125
q0 -76 50.5 -129.5t125.5 -53.5z" />
    <glyph glyph-name="Scaron" unicode="&#x160;" horiz-adv-x="1263" 
d="M868 1565h-346l-280 295h311l137 -140l137 140h316zM610 -41q-172 0 -335 59.5t-275 159.5l297 324q54 -59 140 -100.5t171 -41.5q47 0 78 16.5t31 51.5q0 38 -46.5 62.5t-209.5 78.5q-65 22 -115.5 45t-101 59.5t-84 79.5t-54 104.5t-20.5 135.5q0 104 36 189.5
t95.5 142t139.5 94.5t164 55t173 17q145 0 293.5 -57t259.5 -158l-303 -309q-47 58 -118 91.5t-132 33.5q-119 0 -119 -66q0 -30 28.5 -45.5t115.5 -44.5q86 -28 134 -45.5t126 -58.5t120 -84.5t75.5 -114t33.5 -156.5q0 -126 -52 -227.5t-138 -163.5t-190.5 -94.5
t-217.5 -32.5z" />
    <glyph glyph-name="scaron" unicode="&#x161;" horiz-adv-x="1050" 
d="M741 1196h-346l-280 295h311l137 -139l137 139h316zM514 -41q-140 0 -275 40.5t-231 113.5l232 268q50 -45 116 -72.5t127 -27.5q68 0 68 43q0 25 -35.5 40.5t-134.5 38.5q-56 13 -105.5 36t-96 61t-74 97.5t-27.5 133.5q0 81 30.5 148t79 110t112 73t126.5 43t125 13
q124 0 247.5 -36.5t221.5 -102.5l-221 -264q-109 69 -209 69q-80 0 -80 -45q0 -20 25.5 -31t117.5 -30q68 -14 125 -39t107 -64t78 -99t28 -134q0 -83 -30.5 -150.5t-79 -109.5t-113 -71t-127.5 -40.5t-127 -11.5z" />
    <glyph glyph-name="Ydieresis" unicode="&#x178;" horiz-adv-x="1511" 
d="M516 1556q-85 0 -146 58.5t-61 142.5q0 83 61 143t146 60q82 0 142.5 -60t60.5 -143q0 -84 -60 -142.5t-143 -58.5zM1028 1556q-85 0 -146 58.5t-61 142.5q0 83 61 143t146 60q82 0 142.5 -60t60.5 -143q0 -84 -60 -142.5t-143 -58.5zM768 1024l219 426h574l-576 -856
v-594h-487v594l-547 856h588z" />
    <glyph glyph-name="Zcaron" unicode="&#x17d;" horiz-adv-x="1376" 
d="M881 1565h-346l-281 295h311l137 -140l138 140h315zM1286 0h-1196v408l543 639h-520v403h1157v-352l-578 -682h594v-416z" />
    <glyph glyph-name="zcaron" unicode="&#x17e;" horiz-adv-x="1140" 
d="M758 1196h-346l-281 295h311l138 -139l137 139h315zM1071 0h-1003v330l403 397h-393v350h981v-307l-436 -420h448v-350z" />
    <glyph glyph-name="florin" unicode="&#x192;" horiz-adv-x="1433" 
d="M311 -285q-79 0 -162.5 19.5t-144.5 52.5l158 332q58 -41 110 -41q47 0 74 34.5t41 102.5l84 408h-233v301h284l2 10q15 72 27.5 123t34.5 114t47.5 105.5t64.5 86t87 69.5t114.5 42.5t147.5 16.5q215 0 344 -82l-168 -332q-68 43 -123 43q-51 0 -82 -26t-45 -97l-15 -73
h271v-301h-332l-106 -521q-80 -387 -480 -387z" />
    <glyph glyph-name="circumflex" unicode="&#x2c6;" horiz-adv-x="737" 
d="M229 1196h-311l281 295h346l274 -295h-315l-137 139z" />
    <glyph glyph-name="caron" unicode="&#x2c7;" horiz-adv-x="737" 
d="M545 1196h-346l-281 295h311l138 -139l137 139h315z" />
    <glyph glyph-name="breve" unicode="&#x2d8;" horiz-adv-x="737" 
d="M369 1196q-56 0 -105.5 8.5t-96.5 29.5t-81.5 53.5t-57.5 84.5t-28 119h225q7 -80 144 -80q136 0 143 80h225q-5 -67 -27.5 -119t-56.5 -85t-81.5 -53.5t-96.5 -29t-106 -8.5z" />
    <glyph glyph-name="dotaccent" unicode="&#x2d9;" horiz-adv-x="737" 
d="M373 1174q-94 0 -160 62.5t-66 152.5q0 89 66 153t160 64q88 0 152.5 -64t64.5 -153q0 -90 -64 -152.5t-153 -62.5z" />
    <glyph glyph-name="ring" unicode="&#x2da;" horiz-adv-x="737" 
d="M369 1153q-97 0 -166.5 67.5t-69.5 165.5q0 99 70 166.5t166 67.5t165.5 -67.5t69.5 -166.5t-69.5 -166t-165.5 -67zM369 1266q51 0 87 34.5t36 85.5t-36 86t-87 35t-87 -35t-36 -86t36 -85.5t87 -34.5z" />
    <glyph glyph-name="ogonek" unicode="&#x2db;" horiz-adv-x="737" 
d="M326 -492q-46 0 -88 9t-82.5 29.5t-65 60t-24.5 94.5q0 47 21 90.5t60.5 82.5t75 66t86.5 60h281q-131 -92 -181.5 -142t-50.5 -87q0 -41 48 -41q53 0 114 37l90 -170q-138 -89 -284 -89z" />
    <glyph glyph-name="tilde" unicode="&#x2dc;" horiz-adv-x="737" 
d="M147 1208h-163q6 122 67.5 200.5t163.5 78.5q76 0 172 -49q51 -27 76.5 -36t56.5 -9t47.5 19.5t24.5 62.5h162q-6 -125 -68.5 -205t-165.5 -80q-79 0 -168 47q-52 28 -76 36.5t-53 8.5q-31 0 -50.5 -20.5t-25.5 -53.5z" />
    <glyph glyph-name="hungarumlaut" unicode="&#x2dd;" horiz-adv-x="737" 
d="M233 1196h-346l228 295h434zM731 1196h-346l227 295h435z" />
    <glyph glyph-name="gravecomb" unicode="&#x300;" 
d="M332 1196h-348l-316 295h436z" />
    <glyph glyph-name="acutecomb" unicode="&#x301;" 
d="M16 1196h-348l228 295h436z" />
    <glyph glyph-name="uni0302" unicode="&#x302;" 
d="M-139 1196h-312l281 295h346l275 -295h-316l-137 139z" />
    <glyph glyph-name="tildecomb" unicode="&#x303;" 
d="M-221 1208h-164q6 122 67.5 200.5t163.5 78.5q76 0 172 -49q50 -26 76.5 -35.5t57.5 -9.5t47 19.5t24 62.5h162q-6 -125 -68 -205t-165 -80q-79 0 -168 47q-52 28 -76 36.5t-53 8.5q-31 0 -50.5 -20.5t-25.5 -53.5z" />
    <glyph glyph-name="uni0304" unicode="&#x304;" 
d="M369 1251h-738v197h738v-197z" />
    <glyph glyph-name="uni0306" unicode="&#x306;" 
d="M0 1196q-56 0 -105.5 8.5t-96.5 29.5t-81.5 53.5t-57.5 84.5t-28 119h226q7 -80 143 -80t143 80h226q-6 -83 -38.5 -143t-85.5 -92t-113 -46t-132 -14z" />
    <glyph glyph-name="uni0307" unicode="&#x307;" 
d="M4 1174q-94 0 -159.5 62.5t-65.5 152.5t66 153.5t159 63.5q88 0 152.5 -64t64.5 -153q0 -90 -64 -152.5t-153 -62.5z" />
    <glyph glyph-name="uni0308" unicode="&#x308;" 
d="M-254 1188q-85 0 -146 58.5t-61 142.5q0 83 61 142.5t146 59.5q82 0 142.5 -59.5t60.5 -142.5q0 -84 -60 -142.5t-143 -58.5zM258 1188q-85 0 -146 58.5t-61 142.5q0 83 61 142.5t146 59.5q82 0 142.5 -59.5t60.5 -142.5q0 -84 -60 -142.5t-143 -58.5z" />
    <glyph glyph-name="hookabovecomb" unicode="&#x309;" 
d="M143 1174h-239q0 52 20.5 86.5t73.5 66.5q65 38 65 86q0 28 -15 44t-40 16q-36 0 -54.5 -25t-21.5 -84l-258 29q13 131 101 197.5t237 66.5q148 0 231 -66t83 -161q0 -66 -29.5 -107t-95.5 -70q-58 -25 -58 -79z" />
    <glyph glyph-name="uni030A" unicode="&#x30a;" 
d="M0 1153q-97 0 -166.5 67.5t-69.5 165.5q0 99 70 166.5t166 67.5t166 -67.5t70 -166.5q0 -98 -69.5 -165.5t-166.5 -67.5zM0 1266q51 0 87 34.5t36 85.5t-36 86t-87 35t-87 -35t-36 -86t36 -85.5t87 -34.5z" />
    <glyph glyph-name="uni030B" unicode="&#x30b;" 
d="M-233 1196h-347l228 295h434zM264 1196h-346l227 295h435z" />
    <glyph glyph-name="uni030C" unicode="&#x30c;" 
d="M176 1196h-346l-281 295h312l137 -139l137 139h316z" />
    <glyph glyph-name="uni0312" unicode="&#x312;" 
d="M125 1196h-389l190 399h338z" />
    <glyph glyph-name="uni0313" unicode="&#x313;" 
d="M74 1196h-336l139 399h387z" />
    <glyph glyph-name="uni031B" unicode="&#x31b;" 
d="M43 1141h-422v196h291q72 0 109.5 40.5t37.5 105.5q0 72 -39 137l299 74q60 -123 60 -238q0 -134 -88.5 -224.5t-247.5 -90.5z" />
    <glyph glyph-name="dotbelowcomb" unicode="&#x323;" 
d="M25 -500q-94 0 -160 62.5t-66 152.5q0 89 66 153t160 64q88 0 152.5 -64t64.5 -153q0 -90 -64 -152.5t-153 -62.5z" />
    <glyph glyph-name="uni0324" unicode="&#x324;" 
d="M-252 -492q-85 0 -146 58.5t-61 142.5q0 83 61 143t146 60q82 0 142.5 -60t60.5 -143q0 -84 -60 -142.5t-143 -58.5zM258 -492q-85 0 -146 58.5t-61 142.5q0 83 61 143t146 60q82 0 142.5 -60t60.5 -143q0 -84 -60 -142.5t-143 -58.5z" />
    <glyph glyph-name="uni0325" unicode="&#x325;" 
d="M0 -526q-97 0 -166.5 67.5t-69.5 165.5q0 99 70 166.5t166 67.5t166 -67.5t70 -166.5q0 -98 -69.5 -165.5t-166.5 -67.5zM0 -414q51 0 87 35t36 86t-36 86t-87 35t-87 -35t-36 -86t36 -86t87 -35z" />
    <glyph glyph-name="uni0326" unicode="&#x326;" 
d="M74 -492h-338l139 400h389z" />
    <glyph glyph-name="uni0327" unicode="&#x327;" 
d="M-33 -492q-66 0 -142.5 13.5t-129.5 34.5l69 159q75 -32 175 -32q84 0 84 43q0 36 -78 36q-47 0 -84 -12l-90 70l153 180h242l-103 -109q15 3 33 3q30 0 57.5 -4.5t55.5 -17t49 -31.5t34 -50.5t13 -71.5q0 -60 -32.5 -103.5t-86 -65.5t-108 -32t-111.5 -10z" />
    <glyph glyph-name="uni0328" unicode="&#x328;" 
d="M-12 -492q-46 0 -88 9t-82.5 29.5t-65 60t-24.5 94.5q0 47 21 90.5t60.5 82.5t75 66t86.5 60h281q-131 -92 -181.5 -142t-50.5 -87q0 -41 48 -41q53 0 114 37l90 -170q-138 -89 -284 -89z" />
    <glyph glyph-name="uni032E" unicode="&#x32e;" 
d="M0 -387q-56 0 -105.5 8.5t-96.5 29.5t-81.5 53.5t-57.5 84.5t-28 119h226q7 -80 143 -80t143 80h226q-6 -83 -38.5 -143t-85.5 -92t-113 -46t-132 -14z" />
    <glyph glyph-name="uni0330" unicode="&#x330;" 
d="M-221 -471h-164q6 122 67.5 200t163.5 78q76 0 172 -49q50 -26 76.5 -35.5t57.5 -9.5t47 19.5t24 62.5h162q-6 -125 -68 -204.5t-165 -79.5q-79 0 -168 47q-52 28 -76 36.5t-53 8.5q-31 0 -50.5 -20.5t-25.5 -53.5z" />
    <glyph glyph-name="uni0331" unicode="&#x331;" 
d="M369 -428h-738v197h738v-197z" />
    <glyph glyph-name="uni0394" unicode="&#x394;" horiz-adv-x="1505" 
d="M1497 0h-1489v270l488 1180h518l483 -1180v-270zM748 944l-207 -571h407l-198 571h-2z" />
    <glyph glyph-name="uni03A9" unicode="&#x3a9;" horiz-adv-x="1626" 
d="M754 0h-643v336h256v22q-134 32 -215.5 164.5t-81.5 313.5q0 159 58 285t159 206t234.5 122t289.5 42q125 0 236 -25.5t204.5 -78.5t161 -130t105.5 -184.5t38 -236.5q0 -187 -83.5 -318.5t-212.5 -159.5v-22h256v-336h-644v571q168 48 168 242q0 106 -64 168.5
t-165 62.5q-98 0 -161.5 -64t-63.5 -167q0 -89 41 -153.5t127 -88.5v-571z" />
    <glyph glyph-name="uni03BC" unicode="&#x3bc;" horiz-adv-x="1449" 
d="M1403 328q23 0 63 12v-332q-80 -37 -227 -37q-206 0 -274 148h-7q-26 -54 -82 -101t-137 -47q-78 0 -121 37h-4v-467h-483v1536h483v-567q0 -71 21 -110.5t78 -39.5q42 0 68 26.5t34 57.5t8 66v567h484v-641q0 -64 22.5 -86t73.5 -22z" />
    <glyph glyph-name="uni10D0" unicode="&#x10d0;" horiz-adv-x="1288" 
d="M645 -29q-259 0 -421.5 126.5t-162.5 338.5q0 88 37 193l426 -66q-10 -39 -10 -82q0 -65 32.5 -103t92.5 -38q56 0 92.5 31.5t36.5 95.5q0 35 -19 66.5t-50 58.5t-68 56.5t-74 68t-68 86t-50 118.5t-19 156h469q0 -47 34.5 -95t83.5 -95t98 -102.5t83.5 -139.5t34.5 -184
q0 -215 -163.5 -352.5t-414.5 -137.5z" />
    <glyph glyph-name="uni10D1" unicode="&#x10d1;" horiz-adv-x="1359" 
d="M938 1169v-108q162 -62 259 -194.5t97 -323.5q0 -136 -50.5 -248t-135.5 -184.5t-196 -112t-234 -39.5q-122 0 -232.5 39.5t-195 112t-134.5 184.5t-50 248q0 208 112 346t295 190v62q0 43 -22.5 74.5t-52.5 54.5t-58 52.5t-42 86.5t-3 139h463q-5 -35 11 -63t43.5 -53
t56 -55.5t49 -84t20.5 -123.5zM680 360q75 0 125.5 53.5t50.5 129.5q0 72 -51.5 125t-126.5 53t-124.5 -53t-49.5 -125q0 -76 50.5 -129.5t125.5 -53.5z" />
    <glyph glyph-name="uni10D2" unicode="&#x10d2;" horiz-adv-x="1331" 
d="M664 -522q-122 0 -232.5 39.5t-195.5 111.5t-135 184t-50 248q0 113 37 206.5t103 158.5t151.5 107.5t187.5 62.5q110 21 149.5 49t39.5 76q0 65 -66 65q-31 0 -47 -17.5t-16 -43.5q0 -15 4 -35l-442 -49q-13 60 -13 107q0 162 144.5 260t369.5 98q234 0 375 -100
t141 -269q0 -84 -39.5 -148t-107.5 -102v-6q121 -55 189.5 -167t68.5 -265q0 -131 -50.5 -240.5t-135.5 -181t-196 -110.5t-234 -39zM666 -121q76 0 126 53t50 129q0 72 -51.5 125.5t-126.5 53.5t-125 -53.5t-50 -125.5q0 -76 50.5 -129t126.5 -53z" />
    <glyph glyph-name="uni10D3" unicode="&#x10d3;" horiz-adv-x="1882" 
d="M1563 -342l-379 -182q-115 182 -436 182h-498v295h205v10q-172 59 -280.5 209.5t-108.5 386.5q0 116 27 210t72 155.5t106 103.5t127 60t137 18q128 0 221 -45.5t143 -132.5h8q45 86 145 132t228 46q107 0 204 -35.5t171 -99t118 -160.5t44 -213q0 -121 -48 -220.5
t-127.5 -161.5t-178 -96t-203.5 -34t-203.5 33.5t-177.5 93.5t-126.5 153.5t-47.5 204.5q0 10 1 31t1 31q0 84 -72 84q-100 0 -100 -195q0 -83 22 -151t58 -115.5t91.5 -86.5t112 -64t129.5 -48q84 -21 143 -38t124.5 -42t112.5 -53.5t92.5 -66.5t80.5 -87.5t62 -111.5z
M1260 455q59 0 94 37.5t35 97.5t-35 98.5t-94 38.5t-94.5 -38.5t-35.5 -98.5q0 -59 35.5 -97t94.5 -38z" />
    <glyph glyph-name="uni10D4" unicode="&#x10d4;" horiz-adv-x="1382" 
d="M670 -520q-144 0 -260.5 42.5t-190.5 115t-113.5 165.5t-39.5 197q0 123 49 227l409 -71q-20 -56 -20 -117q0 -75 43.5 -122.5t122.5 -47.5q72 0 112.5 48t40.5 122v536q0 70 -37 106t-92 36q-56 0 -92.5 -36t-36.5 -106q0 -42 15 -100l-441 -67q-37 126 -37 204
q0 154 79 267t213.5 170t305.5 57q165 0 300 -68t213.5 -195t78.5 -288v-463q0 -146 -49 -264t-134 -193t-197.5 -115t-241.5 -40z" />
    <glyph glyph-name="uni10D5" unicode="&#x10d5;" horiz-adv-x="1378" 
d="M690 -520q-143 0 -263 42.5t-197.5 112.5t-120.5 159.5t-43 185.5q0 104 36 196l414 -72q-12 -40 -12 -77q0 -75 44.5 -119.5t129.5 -44.5q82 0 124 40.5t42 106.5q0 65 -43.5 99t-104.5 34h-71v336h69q54 0 91.5 27.5t37.5 85.5q0 62 -37.5 95.5t-91.5 33.5
q-56 0 -92.5 -33.5t-36.5 -95.5q0 -38 6 -62l-440 -67q-29 96 -29 182q0 142 82 248.5t216.5 159.5t299.5 53q161 0 296 -58t215.5 -164t80.5 -237q0 -199 -190 -303v-8q95 -35 153 -127.5t58 -228.5q0 -141 -84 -256.5t-226.5 -179.5t-312.5 -64z" />
    <glyph glyph-name="uni10D6" unicode="&#x10d6;" horiz-adv-x="1417" 
d="M735 -41q-122 0 -232.5 38t-195 107t-134.5 175.5t-50 234.5q0 178 106 293v8q-101 42 -165 142.5t-64 211.5q0 139 70 241t185 152t259 50t260.5 -48.5t187 -144t70.5 -221.5q0 -103 -45 -162v-8q171 -51 268 -174.5t97 -310.5q0 -136 -50.5 -248t-136 -184.5
t-196.5 -112t-234 -39.5zM516 1053q45 0 76 30.5t31 75.5q0 42 -32 72.5t-77 30.5q-42 0 -72 -30.5t-30 -72.5q0 -45 30.5 -75.5t73.5 -30.5zM737 360q75 0 125.5 53.5t50.5 129.5q0 72 -51.5 125t-126.5 53t-124.5 -53t-49.5 -125q0 -76 50.5 -129.5t125.5 -53.5z" />
    <glyph glyph-name="uni10D7" unicode="&#x10d7;" horiz-adv-x="1957" 
d="M1706 -41l-420 98q71 121 104 254.5t33 239.5q0 166 -100 166q-38 0 -60 -28t-22 -77q0 -18 2 -45t2 -49q0 -125 -50.5 -230.5t-134 -173.5t-188.5 -105.5t-217 -37.5t-216 38t-188 108.5t-134.5 182t-50.5 247.5q0 130 46.5 237.5t125.5 177t181 107t216 37.5
q134 0 240.5 -49t152.5 -139h8q53 91 152.5 139.5t234.5 48.5q90 0 170.5 -30t149 -91.5t109 -168t40.5 -245.5q0 -174 -47.5 -332t-138.5 -280zM655 356q70 0 111 49t41 134t-41 134.5t-111 49.5t-110.5 -49.5t-40.5 -134.5t40.5 -134t110.5 -49z" />
    <glyph glyph-name="uni10D8" unicode="&#x10d8;" horiz-adv-x="1355" 
d="M631 55l-412 -98q-70 100 -111.5 243t-41.5 300q0 144 52.5 262t139.5 191.5t195.5 113t224.5 39.5t224.5 -39.5t195.5 -113t139.5 -191.5t52.5 -262q0 -157 -41.5 -300t-111.5 -243l-412 98q111 231 111 443q0 102 -42 156.5t-116 54.5t-116 -54.5t-42 -156.5
q0 -212 111 -443z" />
    <glyph glyph-name="uni10D9" unicode="&#x10d9;" horiz-adv-x="1353" 
d="M666 -520q-143 0 -263.5 42.5t-198 112.5t-120.5 159.5t-43 185.5q0 101 37 196l414 -72q-13 -44 -13 -77q0 -75 44.5 -119.5t129.5 -44.5q81 0 123.5 45t42.5 117t-42 115.5t-122 43.5h-94v336h39q74 0 116 40t42 120q0 130 -109 256l410 170q62 -56 115 -167.5
t53 -240.5q0 -111 -44 -185t-126 -128v-8q99 -37 165 -133.5t66 -243.5q0 -107 -46.5 -203t-128 -165.5t-198 -110.5t-249.5 -41z" />
    <glyph glyph-name="uni10DA" unicode="&#x10da;" horiz-adv-x="2435" 
d="M1841 -342l-379 -182q-61 97 -162 139.5t-253 42.5h-715v295h164v10q-70 23 -130.5 55.5t-117 83.5t-96 114.5t-63 151.5t-23.5 191q0 121 30 217.5t78 157t112.5 100.5t128 56t130.5 16q113 0 206.5 -53t143.5 -160h6q38 103 122 158t196 55q117 0 203 -55.5t112 -157.5
h6q49 108 147 160.5t224 52.5q90 0 169 -28.5t145.5 -89t105.5 -167.5t39 -250q0 -299 -129 -536l-426 147q86 184 86 369q0 86 -24.5 126t-61.5 40q-72 0 -72 -121v-283h-453v308q0 45 -18.5 70.5t-52.5 25.5t-54 -25.5t-20 -70.5v-308h-453v295q0 53 -18 81t-51 28
q-37 0 -62.5 -45t-25.5 -150q0 -73 18 -133t46.5 -102.5t76 -77t95 -56.5t114.5 -39.5t123 -27.5t133 -20q82 -10 145.5 -22.5t138.5 -32.5t133.5 -50t114.5 -71t98.5 -100t69.5 -132z" />
    <glyph glyph-name="uni10DB" unicode="&#x10db;" horiz-adv-x="1409" 
d="M686 -29q-148 0 -266.5 45.5t-193.5 124.5t-114.5 182.5t-39.5 223.5q0 228 142 376t361 148q81 0 155.5 -30t115.5 -80h4v149q0 67 -40.5 101t-107.5 34q-59 0 -95 -25.5t-36 -66.5v-6l-458 -25q-4 36 -4 58q0 127 78.5 226t214.5 151.5t305 52.5q175 0 314 -68.5
t218.5 -194.5t79.5 -288v-436q0 -160 -49 -286t-135.5 -205t-200.5 -120t-248 -41zM690 356q78 0 129 49t51 121q0 73 -50.5 121.5t-129.5 48.5q-85 0 -132.5 -47.5t-47.5 -122.5q0 -74 47.5 -122t132.5 -48z" />
    <glyph glyph-name="uni10DC" unicode="&#x10dc;" horiz-adv-x="1402" 
d="M723 -29q-134 0 -247.5 40.5t-200.5 119.5t-136 205t-49 287v436q0 232 144 360.5t407 128.5h612v-354h-546q-67 0 -107.5 -34t-40.5 -101v-92h4q43 44 117.5 74t153.5 30q220 0 361.5 -150t141.5 -384q0 -116 -39.5 -217.5t-114.5 -179.5t-193.5 -123.5t-266.5 -45.5z
M719 356q85 0 132.5 48t47.5 122q0 75 -47.5 122.5t-132.5 47.5q-79 0 -129.5 -48.5t-50.5 -121.5q0 -72 51 -121t129 -49z" />
    <glyph glyph-name="uni10DD" unicode="&#x10dd;" horiz-adv-x="1878" 
d="M672 57l-420 -98q-91 122 -138.5 280t-47.5 332q0 121 30.5 216.5t79 154t114 96.5t130.5 53t135 15q132 0 230.5 -58.5t150.5 -170.5h6q53 113 144 171t237 58q73 0 139 -15t131.5 -53.5t112.5 -97t76.5 -153.5t29.5 -216q0 -174 -47.5 -332t-138.5 -280l-420 98
q71 121 104 254.5t33 239.5q0 87 -25 126.5t-65 39.5q-88 0 -88 -131v-334h-452v334q0 60 -23 95.5t-63 35.5q-92 0 -92 -166q0 -103 34 -237.5t103 -256.5z" />
    <glyph glyph-name="uni10DE" unicode="&#x10de;" horiz-adv-x="1353" 
d="M666 -29q-143 0 -263.5 42.5t-198 112.5t-120.5 159.5t-43 185.5q0 102 37 197l414 -72q-13 -44 -13 -78q0 -75 44.5 -119.5t129.5 -44.5q81 0 123.5 41t42.5 107q0 65 -43 99t-104 34h-72v336h100q99 0 99 61q0 24 -22 42.5t-56.5 35t-76 36t-82.5 52t-74 75.5
t-51.5 114t-14.5 161h469q0 -33 21 -61.5t54 -50.5t73.5 -44t80.5 -49t73 -59.5t54 -80.5t21 -107q0 -101 -49.5 -167t-141.5 -93v-9q95 -35 153 -127.5t58 -228.5q0 -141 -84 -256.5t-226 -179.5t-312 -64z" />
    <glyph glyph-name="uni10DF" unicode="&#x10df;" horiz-adv-x="1390" 
d="M670 -520q-143 0 -260.5 42t-191 110.5t-113 153t-39.5 173.5q0 65 16 131l432 -33q-4 -28 -4 -41q0 -72 44.5 -109.5t115.5 -37.5q72 0 112.5 48t40.5 122v709l-243 -41v-5q47 -21 79.5 -78.5t32.5 -127.5q0 -67 -26.5 -120.5t-68 -87t-96 -55.5t-106.5 -31t-104 -9
q-65 0 -127.5 15t-97.5 38l96 278q36 -10 80 -10q37 0 64.5 19t27.5 51q0 35 -21 54t-57 19q-29 0 -53 -6l-70 314l690 112h469v-1005q0 -118 -32 -215.5t-88.5 -166.5t-135 -117t-170.5 -70.5t-196 -22.5z" />
    <glyph glyph-name="uni10E0" unicode="&#x10e0;" horiz-adv-x="1878" 
d="M672 57l-420 -98q-95 149 -140.5 318.5t-45.5 390.5q0 351 154.5 547.5t479.5 267.5l131 28q79 17 114.5 29.5t52 27.5t28.5 44l395 -86q-62 -311 -438 -363l-321 -43q-174 -21 -216 -106h9q67 51 182 51q96 0 178 -61t121 -168h6q53 113 144 171t237 58q73 0 139 -15
t131.5 -53.5t112.5 -97t76.5 -153.5t29.5 -216q0 -323 -186 -571l-420 98q71 121 104 242.5t33 210.5q0 87 -25 126.5t-65 39.5q-88 0 -88 -131v-293h-452v293q0 60 -23 95.5t-63 35.5q-92 0 -92 -166q0 -86 34 -208.5t103 -244.5z" />
    <glyph glyph-name="uni10E1" unicode="&#x10e1;" horiz-adv-x="1390" 
d="M731 -29q-134 0 -247.5 41t-200.5 120t-136 205.5t-49 287.5v923h469v-1007q0 -76 42 -128.5t118 -52.5q78 0 119 47t41 128q0 42 -18.5 86t-44.5 86.5t-51 91.5t-40 121t-10 157h432q-1 -62 16 -117t42 -99t50.5 -90t43.5 -110.5t18 -140.5q0 -111 -36.5 -208
t-107.5 -174.5t-187 -122t-263 -44.5z" />
    <glyph glyph-name="uni10E2" unicode="&#x10e2;" horiz-adv-x="1722" 
d="M860 -520q-171 0 -319 56.5t-255.5 158t-169 251.5t-61.5 328q0 308 155.5 514.5t432.5 266.5q-16 82 -16 145v80h469v-80q0 -58 -17 -145q277 -60 432.5 -266.5t155.5 -514.5q0 -178 -61.5 -328t-169.5 -251.5t-256.5 -158t-319.5 -56.5zM860 -119q147 0 242.5 109.5
t95.5 283.5q0 264 -133 359q10 -130 10 -262v-150h-428v150q0 139 10 266q-133 -93 -133 -363q0 -174 94 -283.5t242 -109.5z" />
    <glyph glyph-name="uni10E3" unicode="&#x10e3;" horiz-adv-x="1378" 
d="M666 -520q-144 0 -260.5 42.5t-191 115t-114 165.5t-39.5 197q0 121 50 227l409 -71q-20 -56 -20 -117q0 -75 43.5 -122.5t122.5 -47.5q72 0 112.5 48t40.5 122v625q0 34 -19 55.5t-52 21.5q-32 0 -51 -21.5t-19 -55.5v-291h-438v243q0 82 -84 82h-95v387h177
q215 0 274 -147h8q40 87 130 127.5t208 40.5q194 0 312 -123.5t118 -325.5v-577q-2 -144 -52 -259t-135 -189t-196 -113t-239 -39z" />
    <glyph glyph-name="uni10E4" unicode="&#x10e4;" horiz-adv-x="1822" 
d="M1051 -520q-182 0 -329 54t-236 162t-89 253q0 43 9 92l436 -14v-19q0 -81 57.5 -118t147.5 -37q91 0 148.5 43.5t57.5 132.5q0 59 -22 91.5t-55 39.5l-11 2v336h37q39 0 65.5 28t26.5 84q0 123 -92 123q-69 0 -69 -82q0 -10 1 -29.5t1 -29.5q0 -107 -46 -197t-122 -148
t-171 -90t-196 -32t-195 32.5t-170.5 92.5t-122.5 156t-46 212q0 148 70.5 260.5t185 170t251.5 57.5q125 0 224.5 -44.5t140.5 -127.5h8q49 84 143 128t220 44q84 0 162.5 -27t143 -78t103.5 -133.5t39 -183.5q0 -259 -225 -358v-9q90 -42 140 -130t50 -201q0 -95 -37 -177
t-101 -141.5t-149 -102.5t-183 -64t-201 -21zM600 479q58 0 91.5 36.5t33.5 94.5q0 57 -34 94t-91 37q-56 0 -89.5 -37t-33.5 -94q0 -58 33.5 -94.5t89.5 -36.5z" />
    <glyph glyph-name="uni10E5" unicode="&#x10e5;" horiz-adv-x="1400" 
d="M670 -520q-144 0 -260.5 42.5t-190.5 115t-113.5 165.5t-39.5 197q0 123 49 227l409 -71q-20 -56 -20 -117q0 -75 43.5 -122.5t122.5 -47.5q72 0 112.5 48t40.5 122v522q0 75 -34 117.5t-91 42.5q-58 0 -95.5 -37.5t-37.5 -108.5q0 -42 15 -100l-441 -67q-13 45 -19 68.5
t-12 66.5t-6 90q0 103 27.5 185.5t71.5 135t102 88t116 50t118 14.5q82 0 161.5 -31t120.5 -80h4v553h469v-1456q0 -146 -49 -264t-134 -193t-197.5 -115t-241.5 -40z" />
    <glyph glyph-name="uni10E6" unicode="&#x10e6;" horiz-adv-x="1878" 
d="M1501 -342l-379 -182q-115 182 -436 182h-436v295h205v10q-172 59 -280.5 209.5t-108.5 386.5q0 121 30.5 217.5t79 157t114 100.5t131 56t134.5 16q132 0 230.5 -58.5t150.5 -170.5h6q53 113 144 171t237 58q73 0 139 -15t131.5 -53.5t112.5 -97t76.5 -153.5t29.5 -216
q0 -299 -129 -536l-426 147q86 184 86 369q0 87 -25 126.5t-65 39.5q-88 0 -88 -131v-273h-452v273q0 60 -23 95.5t-63 35.5q-92 0 -92 -195q0 -89 22.5 -159t57.5 -116t92.5 -84t110.5 -60t130 -46q72 -22 117.5 -38t106 -41.5t102.5 -53.5t87 -66.5t79 -88.5t61 -111z" />
    <glyph glyph-name="uni10E7" unicode="&#x10e7;" horiz-adv-x="1427" 
d="M690 -520q-144 0 -260.5 37t-190.5 100.5t-113.5 146.5t-39.5 177q0 57 16 112l437 -33v-26q0 -64 42.5 -101.5t108.5 -37.5q72 0 113 48t41 122v202h-4q-41 -50 -115.5 -80t-155.5 -30q-222 0 -362.5 157.5t-140.5 413.5q0 128 35 230.5t114 201.5l383 -139
q-84 -125 -84 -268q0 -95 43 -155t127 -60q77 0 118.5 47.5t41.5 122.5v409h469v-1005q0 -146 -49 -261t-134.5 -186t-197.5 -108t-242 -37z" />
    <glyph glyph-name="uni10E8" unicode="&#x10e8;" horiz-adv-x="1406" 
d="M684 -29q-148 0 -266.5 45t-193.5 122t-114.5 176.5t-39.5 211.5q0 234 141 380.5t362 146.5q82 0 156 -29t115 -78h4v221q0 34 -19.5 56t-52.5 22q-32 0 -50.5 -22t-18.5 -56v-45h-437v39q0 35 -29 58.5t-75 23.5q-47 0 -92 -18l-33 350q87 35 205 35q57 0 112 -15.5
t107.5 -55t75.5 -97.5h8q40 87 130 127.5t208 40.5q194 0 312 -123.5t118 -325.5v-538q0 -161 -49 -287t-136 -205t-200.5 -119.5t-247.5 -40.5zM688 346q78 0 129 49t51 121q0 73 -50.5 121.5t-129.5 48.5q-85 0 -132.5 -47.5t-47.5 -122.5q0 -74 47.5 -122t132.5 -48z" />
    <glyph glyph-name="uni10E9" unicode="&#x10e9;" horiz-adv-x="1382" 
d="M1151 -41l-420 98q69 117 103 234t34 174q0 87 -40.5 138.5t-106.5 51.5q-70 0 -112 -48t-42 -122v-485h-469v1122q0 120 44.5 215t120.5 154t174 90t210 31q143 0 263.5 -47.5t195 -140t74.5 -212.5q0 -94 -23 -157l-428 45q8 32 8 63q0 44 -22.5 69t-57.5 25
q-38 0 -64 -25.5t-26 -80.5v-225h4q92 110 252 110q207 0 350.5 -156t143.5 -395q0 -305 -166 -526z" />
    <glyph glyph-name="uni10EA" unicode="&#x10ea;" horiz-adv-x="1521" 
d="M815 -520q-236 0 -406 109.5t-256.5 309t-86.5 470.5q0 127 20.5 247.5t54 214t68 162.5t72.5 123l411 -98q-172 -358 -172 -647q0 -123 17.5 -215.5t45 -147t67.5 -88.5t79 -45.5t86 -11.5q81 0 126.5 41t45.5 106q0 78 -47 116t-111 38h-102v336h131q109 0 109 88
q0 37 -22 68t-52 60.5t-59.5 69.5t-47.5 114.5t-12 176.5h469q0 -51 20 -91.5t48.5 -72t56.5 -66t48 -91.5t20 -131q0 -101 -49.5 -167t-141.5 -93v-9q96 -36 153.5 -131t57.5 -245q0 -142 -85 -257t-231.5 -179t-324.5 -64z" />
    <glyph glyph-name="uni10EB" unicode="&#x10eb;" horiz-adv-x="1411" 
d="M680 -29q-148 0 -266.5 45.5t-193.5 124t-114.5 181t-39.5 219.5q0 252 141 408.5t362 156.5q81 0 155 -30.5t116 -80.5h4v553h469v-925q0 -161 -49 -287t-136 -205t-200.5 -119.5t-247.5 -40.5zM684 360q78 0 129 53.5t51 127.5q0 76 -51 128t-129 52q-85 0 -132.5 -51
t-47.5 -129q0 -76 48 -128.5t132 -52.5z" />
    <glyph glyph-name="uni10EC" unicode="&#x10ec;" horiz-adv-x="1406" 
d="M723 -29q-134 0 -247.5 40.5t-200.5 119.5t-136 205t-49 287v538q0 202 118 325.5t312 123.5q118 0 208 -40.5t130 -127.5h8q23 58 75.5 97.5t107.5 55t112 15.5q118 0 205 -35l-33 -350q-45 18 -92 18q-46 0 -75 -23.5t-29 -58.5v-39h-437v45q0 34 -18.5 56t-50.5 22
q-33 0 -52.5 -22t-19.5 -56v-221h4q41 49 115 78t156 29q221 0 362 -146.5t141 -380.5q0 -112 -39.5 -211.5t-114.5 -176.5t-193.5 -122t-266.5 -45zM719 346q85 0 132.5 48t47.5 122q0 75 -47.5 122.5t-132.5 47.5q-79 0 -129.5 -48.5t-50.5 -121.5q0 -72 51 -121t129 -49z
" />
    <glyph glyph-name="uni10ED" unicode="&#x10ed;" horiz-adv-x="1470" 
d="M649 -520q-143 0 -260.5 42t-191 110.5t-113 153t-39.5 173.5q0 65 16 131l433 -33q-5 -35 -5 -41q0 -72 44.5 -109.5t115.5 -37.5q72 0 113 48t41 122v305h-8q-116 -104 -312 -104q-107 0 -190.5 35t-132.5 94.5t-74 133t-25 156.5q0 80 29 153t86 133t153 96t218 36
h256v471h469v-471h198v-338h-198v-667q0 -146 -49 -261t-134.5 -186t-197.5 -108t-242 -37zM637 592q75 0 120.5 31t45.5 82v34h-203q-42 0 -68 -18t-26 -53q0 -37 34 -56.5t97 -19.5z" />
    <glyph glyph-name="uni10EE" unicode="&#x10ee;" horiz-adv-x="1411" 
d="M731 -29q-134 0 -247.5 40.5t-200.5 119.5t-136 205t-49 287v925h469v-553h4q42 50 116 80.5t155 30.5q221 0 362.5 -156.5t141.5 -408.5q0 -117 -39.5 -219.5t-115 -181t-194 -124t-266.5 -45.5zM727 360q84 0 132 52.5t48 128.5q0 78 -47.5 129t-132.5 51
q-78 0 -129 -52t-51 -128q0 -74 51 -127.5t129 -53.5z" />
    <glyph glyph-name="uni10EF" unicode="&#x10ef;" horiz-adv-x="1374" 
d="M684 -520q-145 0 -265 42t-195.5 110.5t-116.5 153t-41 173.5q0 65 16 131l432 -33q-4 -28 -4 -41q0 -72 46.5 -109.5t121.5 -37.5q74 0 118 36.5t44 94.5q0 66 -44.5 108t-119.5 42h-221v405h-365v338h365v184h458v-184h367l2 -338h-367v-109q185 -28 289.5 -152
t104.5 -294q0 -121 -49 -220t-134.5 -164t-199 -100.5t-242.5 -35.5z" />
    <glyph glyph-name="uni10F0" unicode="&#x10f0;" horiz-adv-x="1216" 
d="M567 -29q-270 0 -414.5 103.5t-144.5 265.5q0 49 8 90l447 -39v-10q0 -33 27 -55.5t77 -22.5q51 0 81 22t30 62q0 39 -30 58.5t-77 19.5h-108v297h117q59 0 59 47q0 49 -59 49h-121v291h102q51 0 51 37q0 17 -15.5 28t-40 19.5t-54.5 19t-60 32t-54.5 52t-40 85
t-15.5 126.5h459q11 -34 45.5 -60t74 -45.5t78.5 -43.5t64.5 -67t25.5 -103q0 -76 -51.5 -128.5t-142.5 -64.5v-8q217 -23 217 -215q0 -170 -193 -203v-8q68 -12 116 -41t72 -68.5t34 -78.5t10 -82q0 -160 -161 -260.5t-413 -100.5z" />
    <glyph glyph-name="uni10F1" unicode="&#x10f1;" horiz-adv-x="1544" 
d="M815 -29q-357 0 -553 230.5t-196 638.5q0 127 20.5 247.5t54 214t68 162.5t72.5 123l411 -98q-172 -358 -172 -647q0 -122 19.5 -213t50 -142.5t74.5 -82.5t84.5 -40.5t89.5 -9.5q168 0 168 80q0 35 -30 53.5t-77 18.5h-108v297h116q30 0 45 13t15 34q0 49 -60 49h-121
v291h103q51 0 51 45q0 19 -16.5 34.5t-39.5 33t-46 43t-39.5 78t-16.5 124.5h459q6 -34 26 -63.5t43 -50.5t45 -44t37 -57.5t15 -77.5q0 -74 -51 -120t-144 -58v-8q218 -23 218 -215q0 -170 -193 -203v-8q64 -12 111.5 -41t72 -68t36 -79t11.5 -82q0 -130 -89.5 -222.5
t-234.5 -136t-329 -43.5z" />
    <glyph glyph-name="uni10F2" unicode="&#x10f2;" horiz-adv-x="1355" 
d="M123 -29v308q92 0 166 12v8q-79 38 -130.5 95t-72 115t-20.5 122q0 136 80.5 245t220.5 169.5t311 60.5t311 -60.5t220.5 -169.5t80.5 -245q0 -95 -52 -184.5t-151 -147.5v-8q72 -12 146 -12v-308q-326 0 -555 101q-229 -101 -555 -101zM678 365q158 94 158 215
q0 65 -43 107t-115 42t-115 -42t-43 -107q0 -121 158 -215z" />
    <glyph glyph-name="uni10F3" unicode="&#x10f3;" horiz-adv-x="1378" 
d="M690 -520q-143 0 -263 42.5t-197.5 112.5t-120.5 159.5t-43 185.5q0 104 36 196l414 -72q-12 -40 -12 -77q0 -75 44.5 -119.5t129.5 -44.5q82 0 124 40.5t42 106.5q0 65 -43.5 99t-104.5 34h-71v336h84q59 0 86.5 26t27.5 81v153h-258v-131h-465v469h1192v-450
q0 -212 -190 -283v-8q95 -35 153 -127.5t58 -228.5q0 -141 -84 -256.5t-226.5 -179.5t-312.5 -64z" />
    <glyph glyph-name="uni10F4" unicode="&#x10f4;" horiz-adv-x="1353" 
d="M666 -520q-143 0 -263.5 42.5t-198 112.5t-120.5 159.5t-43 185.5q0 101 37 196l414 -72q-13 -44 -13 -77q0 -75 44.5 -119.5t129.5 -44.5q82 0 124 40.5t42 106.5q0 65 -43 99t-104 34h-72v336h84q63 0 89 17.5t26 58.5q0 12 -5.5 24t-21 25.5t-27.5 22.5t-40.5 25
t-42.5 23.5t-50 26.5q-64 33 -111.5 63.5t-98.5 75.5t-83.5 94t-53.5 116t-21 145q0 189 128 301.5t345 112.5q110 0 230.5 -25t187.5 -63l-162 -351q-106 54 -193 54q-67 0 -67 -45q0 -29 37 -56t124 -69q59 -28 104.5 -53.5t103 -67t95.5 -84t64.5 -101.5t26.5 -122
q0 -212 -191 -283v-8q95 -35 153 -127.5t58 -228.5q0 -141 -84 -256.5t-226 -179.5t-312 -64z" />
    <glyph glyph-name="uni10F5" unicode="&#x10f5;" horiz-adv-x="1492" 
d="M1473 1155v-299h-252v-113h252v-299h-252v-57q0 -129 -83 -225.5t-210.5 -143.5t-274.5 -47q-258 0 -422.5 106t-164.5 285q0 172 130.5 276.5t370.5 104.5h240v113h-240q-236 0 -356.5 100t-120.5 261q0 180 157 284.5t412 104.5q157 0 283 -45t203 -137.5t76 -217.5
v-51h252zM631 1155h176v29q0 102 -141 102q-144 0 -144 -69q0 -62 109 -62zM807 403v41h-172q-137 0 -137 -75q0 -78 147 -78q86 0 124 26.5t38 85.5z" />
    <glyph glyph-name="uni10F6" unicode="&#x10f6;" horiz-adv-x="1765" 
d="M694 -492q-152 0 -243 37v324q36 -12 86 -12q127 0 127 92v31q-148 4 -264 50t-188 123.5t-109 176t-37 211.5q0 86 21 165.5t67.5 151.5t114.5 126t169.5 87t225.5 35v102q0 381 407 381q153 0 244 -37v-323q-36 12 -86 12q-127 0 -127 -92v-43q152 -3 269.5 -50.5
t187.5 -127t105.5 -177.5t35.5 -210q0 -252 -166 -403.5t-432 -157.5v-91q0 -381 -408 -381zM664 336v414q-89 1 -135 -62t-46 -147q0 -82 46.5 -144t134.5 -61zM1102 750v-414q88 -1 134 61t46 144q0 83 -46 146.5t-134 62.5z" />
    <glyph glyph-name="uni10F7" unicode="&#x10f7;" horiz-adv-x="1331" 
d="M664 -522q-163 0 -302 67.5t-225 195t-86 288.5q0 58 10.5 111t26 94t44 80.5t53 67t65 57t67 46.5t73.5 40t70.5 33.5t69.5 29.5q41 16 65 26.5t53 25.5t44.5 27.5t26 29t10.5 34.5q0 55 -65 55q-31 0 -47.5 -17.5t-16.5 -43.5q0 -15 4 -35l-442 -49q-12 55 -12 107
q0 162 144.5 260t369.5 98q232 0 374 -108.5t142 -280.5q0 -54 -13.5 -102t-35 -85.5t-56 -73t-67.5 -60t-80 -51t-82.5 -43.5t-85.5 -38q-56 -24 -88 -39t-72 -38t-60.5 -43t-35.5 -46.5t-15 -56.5q0 -74 49.5 -118t127.5 -44t127 44t49 118q0 54 -23 102l395 146
q66 -116 66 -260q0 -105 -32.5 -195t-90.5 -155t-135.5 -110.5t-168.5 -68t-189 -22.5z" />
    <glyph glyph-name="uni10F8" unicode="&#x10f8;" horiz-adv-x="1427" 
d="M737 -520q-104 0 -196 22.5t-170.5 70.5t-135 117t-88.5 166.5t-32 215.5v1005h469v-409q0 -75 41 -122.5t118 -47.5q84 0 127 60t43 155q0 143 -84 268l383 139q79 -99 114.5 -201.5t35.5 -230.5q0 -256 -141 -413.5t-363 -157.5q-81 0 -155 30t-115 80h-4v-202
q0 -74 40.5 -122t112.5 -48q66 0 109 37.5t43 101.5v26l436 33q16 -55 16 -112q0 -94 -39.5 -177t-113.5 -146.5t-190.5 -100.5t-260.5 -37z" />
    <glyph glyph-name="uni10F9" unicode="&#x10f9;" horiz-adv-x="1359" 
d="M682 1108q122 0 232.5 -39.5t195 -112t134.5 -184.5t50 -248q0 -113 -37 -206t-103 -158t-151.5 -107.5t-187.5 -62.5q-110 -21 -149 -49t-39 -76q0 -66 65 -66q31 0 47.5 18t16.5 44q0 15 -4 35l442 49q12 -55 12 -107q0 -162 -144.5 -260t-369.5 -98
q-235 0 -375.5 99.5t-140.5 268.5q0 84 39.5 148t108.5 102v6q-121 55 -189.5 167.5t-68.5 265.5q0 131 50.5 240.5t135.5 181t196 110.5t234 39zM680 707q-75 0 -125.5 -53.5t-50.5 -129.5q0 -72 51.5 -125t126.5 -53t124.5 53t49.5 125q0 76 -50.5 129.5t-125.5 53.5z" />
    <glyph glyph-name="uni10FA" unicode="&#x10fa;" horiz-adv-x="1073" 
d="M1075 106l-682 -405l-196 309l172 107l-2 8q-148 68 -224.5 185.5t-76.5 269.5q0 161 83.5 284.5t227 188.5t323.5 65q107 0 217.5 -34t174.5 -83l-236 -339q-24 28 -63 43.5t-78 15.5q-74 0 -129.5 -48.5t-55.5 -133.5t55.5 -132t129.5 -47q45 0 74.5 12.5t68.5 45.5z
" />
    <glyph glyph-name="uni10FB" unicode="&#x10fb;" horiz-adv-x="1273" 
d="M393 590q-106 0 -182 72t-76 176q0 103 76 176t182 73q101 0 175.5 -73.5t74.5 -175.5q0 -103 -74.5 -175.5t-175.5 -72.5zM926 287q-106 0 -182 72t-76 176q0 103 76 176t182 73q101 0 175.5 -73.5t74.5 -175.5q0 -103 -74.5 -175.5t-175.5 -72.5zM393 -12
q-106 0 -182 72t-76 176q0 103 76 176t182 73q101 0 175.5 -73.5t74.5 -175.5q0 -103 -74.5 -175.5t-175.5 -72.5z" />
    <glyph glyph-name="uni10FC" unicode="&#x10fc;" horiz-adv-x="950" 
d="M498 510q-173 0 -284.5 95t-111.5 269v271q0 142 90.5 223.5t256.5 81.5h382v-244h-337q-29 0 -51.5 -16t-22.5 -43v-39h2q56 49 156 49q138 0 219.5 -86.5t81.5 -222.5q0 -144 -101 -241t-280 -97zM494 770q42 0 65 19t23 49q0 31 -23 50t-65 19q-40 0 -64 -19t-24 -50
q0 -29 25 -48.5t63 -19.5z" />
    <glyph glyph-name="uni10FD" unicode="&#x10fd;" horiz-adv-x="1378" 
d="M686 -29q-143 0 -261 39.5t-196 108t-120.5 160.5t-42.5 198q0 102 36 191l414 -72q-12 -40 -12 -78q0 -75 44.5 -119.5t129.5 -44.5q80 0 123 38t43 93q0 20 -5.5 36t-22 30t-30.5 23t-49.5 22t-58.5 20t-76 23q-151 46 -216 76q-294 135 -294 418q0 115 47.5 207
t129 150t188 89t227.5 31q161 0 291 -52t208.5 -155t78.5 -240q0 -43 -11 -112l-458 24q6 39 6 43q0 127 -117 127q-59 0 -90 -27t-31 -69q0 -50 53 -78.5t189 -66.5q55 -15 94.5 -27.5t96.5 -36.5t97.5 -49.5t85 -65t72.5 -85t46 -108.5t18 -136q0 -241 -174 -383
t-453 -142z" />
    <glyph glyph-name="uni10FE" unicode="&#x10fe;" horiz-adv-x="1355" 
d="M123 799v307q329 0 555 -100q226 100 555 100v-307q-68 0 -146 -13v-8q99 -58 151 -147.5t52 -184.5q0 -136 -80.5 -245t-220.5 -169.5t-311 -60.5t-311 60.5t-220.5 169.5t-80.5 245q0 64 20.5 122t72 115t130.5 95v8q-80 13 -166 13zM678 713q-158 -94 -158 -215
q0 -65 43 -107.5t115 -42.5t115 42.5t43 107.5q0 121 -158 215z" />
    <glyph glyph-name="uni10FF" unicode="&#x10ff;" horiz-adv-x="1329" 
d="M678 -41q-122 0 -232.5 39.5t-195 112t-134.5 184.5t-50 248q0 134 50 244.5t135 182t195 110t232 38.5q123 0 234 -38.5t196.5 -110t135.5 -182t50 -244.5q0 -136 -50.5 -248t-135.5 -184.5t-196 -112t-234 -39.5zM680 360q75 0 125.5 53.5t50.5 129.5q0 72 -51.5 125
t-126.5 53t-124.5 -53t-49.5 -125q0 -76 50.5 -129.5t125.5 -53.5z" />
    <glyph glyph-name="uni1C90" unicode="&#x1c90;" horiz-adv-x="1398" 
d="M688 -41q-181 0 -324 68t-224 193t-81 286q0 173 86 328l441 -121q-39 -86 -39 -174q0 -74 37.5 -122t103.5 -48t107 43.5t41 124.5q0 65 -22 121t-57.5 100.5t-77.5 90.5t-83.5 101.5t-75 121.5t-52.5 163.5t-15 214.5h485q0 -69 21.5 -133t56 -117t76.5 -107
t83.5 -113.5t76 -125t56 -153.5t21.5 -187q0 -167 -82.5 -294t-227.5 -194t-331 -67z" />
    <glyph glyph-name="uni1C91" unicode="&#x1c91;" horiz-adv-x="1419" 
d="M987 1106v-113q168 -60 268.5 -186.5t100.5 -306.5q0 -126 -52.5 -230t-142.5 -171t-206.5 -103.5t-247.5 -36.5q-105 0 -200.5 22.5t-176.5 68t-140.5 109.5t-93 151.5t-33.5 189.5q0 200 121 334t318 182v45q0 36 -23.5 64t-55 50.5t-61.5 52.5t-45 86.5t-4 135.5h486
q-5 -29 12 -53.5t45.5 -47.5t58 -51.5t51 -78t21.5 -113.5zM711 365q67 0 109 40t42 97t-43 97t-110 40t-109.5 -40t-42.5 -97t43.5 -97t110.5 -40z" />
    <glyph glyph-name="uni1C92" unicode="&#x1c92;" horiz-adv-x="1431" 
d="M717 -41q-133 0 -250 36t-205.5 103.5t-140 171t-51.5 230.5q0 96 30 176t81.5 136.5t124 99t153.5 67.5t174 37q75 9 109 30t34 58q0 29 -21 44t-55 15q-33 0 -53 -15.5t-20 -41.5q0 -13 2 -25l-459 -49q-12 58 -12 101q0 159 152 258.5t390 99.5q244 0 394.5 -102
t150.5 -263q0 -66 -34.5 -128.5t-98.5 -94.5v-8q250 -118 250 -395q0 -102 -34 -189.5t-94.5 -151.5t-141.5 -109.5t-176.5 -68t-198.5 -22.5zM717 365q67 0 109 40t42 97t-43 97t-110 40t-109.5 -40t-42.5 -97t43.5 -97t110.5 -40z" />
    <glyph glyph-name="uni1C93" unicode="&#x1c93;" horiz-adv-x="1908" 
d="M1597 152l-387 -191q-121 162 -446 162h-506v305h209v10q-84 26 -153.5 71t-125 110.5t-87 158t-31.5 203.5q0 103 27.5 188.5t74 144t109 99.5t132 59.5t144.5 18.5q118 0 215 -45.5t148 -130.5h6q40 83 145 129.5t240 46.5q151 0 271.5 -54t191.5 -160.5t71 -248.5
q0 -91 -30 -168t-82.5 -132t-123 -93.5t-151.5 -57t-168 -18.5q-145 0 -272 48.5t-208 142.5t-81 213v20q0 90 -74 90q-88 0 -88 -143q0 -74 23 -134t59.5 -100t92.5 -72t109.5 -51t123.5 -36q226 -56 314 -92q162 -66 250 -192q32 -45 58 -101zM1288 920q49 0 80 26.5
t31 67.5t-30.5 68.5t-80.5 27.5t-80 -27.5t-30 -68.5q0 -42 30 -68t80 -26z" />
    <glyph glyph-name="uni1C94" unicode="&#x1c94;" horiz-adv-x="1443" 
d="M705 -41q-150 0 -273 42.5t-200.5 113.5t-119.5 161.5t-42 190.5q0 112 34 199l467 -41q-14 -63 -14 -103q0 -77 42 -117t110 -40q65 0 105 43.5t40 113.5v436q0 64 -37 96.5t-94 32.5t-92 -31t-35 -91q0 -37 8 -64l-481 -41q-23 94 -23 158q0 148 81.5 256.5t221 162.5
t318.5 54q174 0 314.5 -65t222 -185t81.5 -272v-418q0 -142 -50.5 -256t-138 -186.5t-201.5 -111t-244 -38.5z" />
    <glyph glyph-name="uni1C95" unicode="&#x1c95;" horiz-adv-x="1439" 
d="M727 -41q-150 0 -276 42t-208 112.5t-127.5 160.5t-45.5 187q0 67 16 143l471 -47q-2 -14 -2 -43q0 -75 51 -116.5t121 -41.5q69 0 109.5 31t40.5 82q0 50 -39.5 75t-104.5 25h-69v342h63q63 0 95 20t32 70t-39 77.5t-92 27.5q-49 0 -87 -32t-38 -81q0 -20 2 -32
l-487 -37q-15 73 -15 133q0 97 53 180.5t140.5 138.5t199 86t230.5 31q169 0 312 -55t229 -156t86 -227q0 -95 -50.5 -168.5t-146.5 -112.5v-8q97 -34 158 -119t61 -209q0 -135 -83.5 -245t-231 -172t-328.5 -62z" />
    <glyph glyph-name="uni1C96" unicode="&#x1c96;" horiz-adv-x="1538" 
d="M819 -41q-128 0 -241.5 33.5t-202.5 96t-141 161.5t-52 221q0 136 72 240v8q-98 34 -160.5 124.5t-62.5 215.5q0 131 73 230.5t195.5 150.5t273.5 51q152 0 274.5 -51.5t192.5 -146t70 -214.5q0 -82 -31 -135v-8q79 -14 149 -50.5t126 -92t88.5 -136t32.5 -174.5
q0 -120 -53 -220.5t-143 -166t-209 -101.5t-251 -36zM571 958q37 0 64 23.5t27 58.5t-27 58.5t-66 23.5q-38 0 -64 -23t-26 -59q0 -35 26.5 -58.5t65.5 -23.5zM829 365q67 0 109.5 40t42.5 97t-43.5 97t-110.5 40q-66 0 -108.5 -38t-42.5 -99q0 -57 43 -97t110 -40z" />
    <glyph glyph-name="uni1C97" unicode="&#x1c97;" horiz-adv-x="2082" 
d="M713 -41q-100 0 -191.5 23.5t-169 70.5t-135 112.5t-89.5 154t-32 190.5v430q0 128 45 232.5t123.5 174t185.5 107t232 37.5q134 0 245 -51t158 -137h9q44 87 147.5 137.5t237.5 50.5q108 0 199.5 -36.5t161 -107t108.5 -182.5t39 -254v-268q0 -380 -179 -686l-446 119
q141 267 141 569v301q0 77 -21.5 110.5t-66.5 33.5q-41 0 -62.5 -27.5t-21.5 -75.5v-477q0 -127 -50.5 -232.5t-136 -174t-196.5 -106.5t-235 -38zM715 360q59 0 94 40.5t35 107.5v434q0 67 -35 107.5t-94 40.5q-64 0 -99.5 -40t-35.5 -108v-434q0 -68 35.5 -108t99.5 -40z
" />
    <glyph glyph-name="uni1C98" unicode="&#x1c98;" horiz-adv-x="1439" 
d="M659 55l-440 -98q-59 160 -91 313.5t-32 331.5v291q0 142 49.5 257t135.5 188.5t198 113t240 39.5q127 0 239 -39.5t198 -113t136.5 -188.5t50.5 -257v-295q0 -177 -31.5 -329t-90.5 -312l-445 98q80 300 80 529v311q0 96 -35.5 145.5t-99.5 49.5q-141 0 -141 -195v-311
q0 -232 79 -529z" />
    <glyph glyph-name="uni1C99" unicode="&#x1c99;" horiz-adv-x="1423" 
d="M711 -41q-150 0 -276 42t-208.5 112.5t-128 160.5t-45.5 187q0 62 17 143l471 -47q-2 -14 -2 -43q0 -75 51 -116.5t121 -41.5q68 0 108.5 37.5t40.5 95.5q0 57 -41.5 92t-107.5 35h-84v342h43q63 0 95 34.5t32 97.5q0 118 -80 237l434 154q139 -164 139 -377
q0 -92 -41.5 -166.5t-113.5 -116.5v-8q102 -37 160.5 -131.5t58.5 -226.5q0 -142 -84 -256t-230.5 -177t-328.5 -63z" />
    <glyph glyph-name="uni1C9A" unicode="&#x1c9a;" horiz-adv-x="2498" 
d="M1903 172l-408 -211q-131 166 -436 166h-776v326h151v10q-168 62 -266 197t-98 346q0 102 30 185.5t78.5 138t112.5 92t130 53.5t134 16q272 0 369 -195h6q39 94 124 144.5t199 50.5q122 0 214 -51t126 -144h6q42 94 137.5 144.5t219.5 50.5q95 0 178.5 -28.5t152 -86
t108.5 -156.5t40 -229q0 -286 -133 -518l-442 152q82 168 82 344q0 62 -24 88t-60 26q-70 0 -70 -96v-231h-461v231q0 47 -20 71.5t-56 24.5q-33 0 -53 -25t-20 -71v-231h-461v217q0 53 -21 81.5t-53 28.5q-36 0 -58 -29.5t-22 -109.5q0 -55 12 -100.5t37 -80.5t56 -63
t76.5 -49t89.5 -36t105 -27t113 -19.5t122 -15.5q72 -8 127.5 -16.5t124 -23t121.5 -33t110 -47.5t100 -65t81.5 -86t64.5 -110z" />
    <glyph glyph-name="uni1C9B" unicode="&#x1c9b;" horiz-adv-x="1458" 
d="M702 -41q-151 0 -273 42t-199 114t-118.5 165t-41.5 199q0 224 142.5 362t360.5 138q85 0 164.5 -24.5t124.5 -63.5h6v110q0 51 -37 86t-100 35q-57 0 -95 -24t-38 -54v-6l-481 -39q-8 40 -8 78q0 81 44.5 155.5t123 132t195.5 92t253 34.5q179 0 322.5 -69t225 -191.5
t81.5 -274.5v-415q0 -142 -50 -254.5t-138.5 -183t-206.5 -107.5t-257 -37zM721 365q72 0 117 35.5t45 86.5q0 58 -44 92.5t-116 34.5q-75 0 -117.5 -34t-42.5 -91q0 -53 43 -88.5t115 -35.5z" />
    <glyph glyph-name="uni1C9C" unicode="&#x1c9c;" horiz-adv-x="1458" 
d="M756 -41q-139 0 -257 37t-206.5 107.5t-138.5 183t-50 254.5v415q0 229 151 361.5t396 132.5h639v-373h-579q-59 0 -90 -25.5t-31 -70.5v-90h6q45 39 124.5 63.5t164.5 24.5q219 0 361.5 -138t142.5 -362q0 -106 -41.5 -199.5t-119 -165t-199.5 -113.5t-273 -42zM737 365
q72 0 115 35.5t43 88.5q0 57 -42.5 91t-117.5 34q-72 0 -116 -34.5t-44 -92.5q0 -51 45 -86.5t117 -35.5z" />
    <glyph glyph-name="uni1C9D" unicode="&#x1c9d;" horiz-adv-x="1992" 
d="M721 76l-447 -119q-178 305 -178 686v268q0 142 39 254t107.5 182.5t159 107t196.5 36.5q121 0 227.5 -46.5t165.5 -152.5h8q61 106 165 152.5t222 46.5q109 0 201 -36.5t161.5 -107t108.5 -182.5t39 -254v-268q0 -381 -178 -686l-446 119q141 267 141 569v301
q0 75 -21.5 109.5t-66.5 34.5q-86 0 -86 -144v-567h-487v567q0 144 -86 144t-86 -144v-301q0 -302 141 -569z" />
    <glyph glyph-name="uni1C9E" unicode="&#x1c9e;" horiz-adv-x="1423" 
d="M711 -41q-150 0 -276 42t-208.5 112.5t-128 160.5t-45.5 187q0 62 17 143l471 -47q-2 -14 -2 -43q0 -75 51 -116.5t121 -41.5q69 0 109 31t40 82q0 53 -44.5 79.5t-108.5 26.5h-76v338h127q44 0 62 10t18 33q0 19 -18 35t-47.5 27t-66.5 27t-75 34t-73.5 50t-62 72.5
t-39.5 105t-7 143.5h477q0 -30 22 -55.5t56.5 -46t76 -42t83 -49t76 -61.5t56 -85t21.5 -114q0 -85 -52 -144.5t-145 -86.5v-8q101 -36 167.5 -126.5t66.5 -213.5q0 -126 -83.5 -231t-231.5 -166.5t-328 -61.5z" />
    <glyph glyph-name="uni1C9F" unicode="&#x1c9f;" horiz-adv-x="1456" 
d="M707 -41q-289 0 -463 134.5t-174 346.5q0 48 16 117l463 -47v-14q0 -59 42.5 -93t113.5 -34q68 0 109.5 38.5t41.5 104.5v594l-254 -31v-2q51 -21 84 -72t33 -114q0 -79 -39.5 -136t-103 -84.5t-124.5 -39t-124 -11.5q-167 0 -254 50l100 278q44 -12 92 -12q32 0 56 12.5
t24 36.5q0 47 -76 47q-23 0 -55 -4l-51 338l690 88h487v-940q0 -260 -175.5 -405.5t-458.5 -145.5z" />
    <glyph glyph-name="uni1CA0" unicode="&#x1ca0;" horiz-adv-x="1925" 
d="M684 76l-448 -119q-82 137 -124 294.5t-42 362.5q0 155 31.5 277.5t86.5 208.5t139 148.5t179 100t215 60.5l137 27q121 24 146 34q39 17 57 52l403 -88q-16 -72 -49 -130.5t-75.5 -97.5t-97 -67.5t-110 -43.5t-118.5 -22l-330 -37q-72 -7 -135 -36.5t-92 -67.5l6 -6
q32 28 86 45.5t108 17.5q107 0 189.5 -58.5t120.5 -162.5h6q47 106 149 163.5t256 57.5q96 0 182.5 -32.5t154 -92.5t107.5 -154.5t40 -209.5q0 -147 -40 -288.5t-120 -254.5l-449 119q62 106 88.5 210t26.5 173q0 64 -25.5 93.5t-60.5 29.5q-84 0 -84 -113v-233h-461v233
q0 56 -22.5 84.5t-59.5 28.5q-38 0 -62 -29.5t-24 -93.5q0 -69 26.5 -173t88.5 -210z" />
    <glyph glyph-name="uni1CA1" unicode="&#x1ca1;" horiz-adv-x="1460" 
d="M756 -41q-141 0 -257 37.5t-202.5 112.5t-134 195t-47.5 276v870h485v-928q0 -69 42.5 -113t111.5 -44q68 0 108.5 43.5t40.5 113.5q0 46 -16.5 89.5t-38.5 83.5t-43.5 88t-34 124t-6.5 170h485q0 -65 15 -121t37 -100.5t44 -91t37 -114t15 -148.5q0 -112 -46 -211
t-128 -172.5t-203 -116.5t-264 -43z" />
    <glyph glyph-name="uni1CA2" unicode="&#x1ca2;" horiz-adv-x="1779" 
d="M889 -39q-172 0 -322 53t-260.5 148.5t-173.5 237.5t-63 311q0 284 151 468t428 248q-8 70 -8 113h498q0 -60 -9 -113q276 -64 428 -247.5t152 -470.5q0 -223 -109 -395t-295 -262.5t-417 -90.5zM889 383q144 0 236 91.5t92 244.5q0 116 -27 187.5t-88 113.5
q10 -127 10 -256v-107h-442v107q0 152 10 262q-63 -42 -90 -114t-27 -191q0 -154 91.5 -246t234.5 -92z" />
    <glyph glyph-name="uni1CA3" unicode="&#x1ca3;" horiz-adv-x="1443" 
d="M705 -41q-150 0 -273 42.5t-200.5 113.5t-119.5 161.5t-42 190.5q0 112 34 199l467 -41q-14 -63 -14 -103q0 -77 42 -117t110 -40q65 0 105 43.5t40 113.5v527q0 35 -19.5 57t-52.5 22t-51 -22t-18 -57v-205h-467v205q0 65 -60 65h-108v369h198q86 0 160.5 -37
t104.5 -115h6q23 54 79 91.5t122 54t137 16.5q117 0 206.5 -37.5t142 -102t79 -144.5t26.5 -171v-487q0 -142 -50.5 -256t-138 -186.5t-201.5 -111t-244 -38.5z" />
    <glyph glyph-name="uni1CA4" unicode="&#x1ca4;" horiz-adv-x="1896" 
d="M1104 -41q-111 0 -213 18.5t-189 56.5t-151 92t-100.5 129t-36.5 163q0 38 6 78l491 -23v-6q0 -62 58.5 -93.5t144.5 -31.5q92 0 146.5 36.5t54.5 102.5q0 42 -21 71.5t-55 35.5l-10 2v336h28q36 0 60 19t24 52q0 34 -24 55t-60 21q-37 0 -57 -21t-20 -61v-28
q0 -89 -47.5 -166t-126 -128.5t-179.5 -80.5t-209 -29q-87 0 -168 18.5t-151.5 57t-123 93.5t-82.5 132t-30 168q0 142 71.5 248.5t192 160.5t271.5 54q135 0 240 -46.5t145 -129.5h6q45 81 151 128.5t232 47.5q91 0 173 -27.5t145 -78t100 -129t37 -173.5q0 -226 -203 -309
v-8q79 -35 127.5 -117t48.5 -196q0 -152 -92 -265t-248.5 -171t-355.5 -58zM621 920q50 0 80 26t30 68q0 41 -30 68.5t-80 27.5t-80.5 -27.5t-30.5 -68.5t31 -67.5t80 -26.5z" />
    <glyph glyph-name="uni1CA5" unicode="&#x1ca5;" horiz-adv-x="1456" 
d="M707 -41q-289 0 -463 134.5t-174 346.5q0 48 16 117l463 -47v-14q0 -59 42.5 -93t113.5 -34q68 0 108.5 38.5t40.5 104.5v254q0 57 -39 92t-96 35q-53 0 -89 -32t-36 -85q0 -13 4 -41l-477 -37q-15 67 -15 127q0 102 37 185t100.5 136t146.5 82t177 29q81 0 159.5 -24.5
t123.5 -63.5h4v281h487v-940q0 -260 -175.5 -405.5t-458.5 -145.5z" />
    <glyph glyph-name="uni1CA6" unicode="&#x1ca6;" horiz-adv-x="1925" 
d="M1544 156l-387 -197q-63 89 -168 128.5t-260 39.5h-487v326h190v10q-72 27 -134 70.5t-114.5 107.5t-83 156t-30.5 202q0 103 31.5 187.5t82 140t117 93.5t135 54.5t137.5 16.5q130 0 234 -55.5t156 -157.5h6q54 107 150.5 160t248.5 53q74 0 142.5 -16.5t133 -55
t112.5 -95.5t77 -144.5t29 -194.5q0 -283 -136 -512l-440 152q80 169 80 313q0 69 -24 102t-64 33q-82 0 -82 -121v-207h-461v207q0 59 -21.5 90t-60.5 31q-86 0 -86 -135q0 -58 13.5 -106t40.5 -85t60.5 -65.5t82 -51t96 -39t109.5 -32.5q82 -21 145 -42t133 -54.5
t121.5 -74t98.5 -100t77 -132.5z" />
    <glyph glyph-name="uni1CA7" unicode="&#x1ca7;" horiz-adv-x="1456" 
d="M707 -41q-289 0 -463 134.5t-174 346.5q0 48 16 117l463 -47v-14q0 -59 42.5 -93t113.5 -34q68 0 108.5 38.5t40.5 104.5v186h-4q-45 -39 -126.5 -63.5t-176.5 -24.5q-93 0 -177.5 29.5t-153 86t-109.5 148.5t-41 207q0 127 25 222t83 188l447 -90q-62 -139 -62 -256
q0 -76 38 -123t110 -47q66 0 106.5 40t40.5 120v315h487v-940q0 -260 -175.5 -405.5t-458.5 -145.5z" />
    <glyph glyph-name="uni1CA8" unicode="&#x1ca8;" horiz-adv-x="1458" 
d="M702 -41q-151 0 -273 42t-199 114t-118.5 165t-41.5 199q0 222 141 350.5t362 128.5q85 0 164.5 -24.5t124.5 -63.5h6v187q0 32 -19.5 51.5t-53.5 19.5q-32 0 -50 -20t-18 -51v-49h-467v49q0 57 -59 57h-109v369h199q86 0 160 -37t104 -115h6q23 54 79 91.5t122 54
t137 16.5q117 0 206.5 -37.5t142.5 -102t79.5 -144.5t26.5 -171v-497q0 -142 -50 -254.5t-138.5 -183t-206.5 -107.5t-257 -37zM721 365q72 0 117 35.5t45 86.5q0 58 -44 92.5t-116 34.5q-75 0 -117.5 -34t-42.5 -91q0 -53 43 -88.5t115 -35.5z" />
    <glyph glyph-name="uni1CA9" unicode="&#x1ca9;" horiz-adv-x="1437" 
d="M1221 -43l-433 104q95 180 95 328q0 93 -40 142t-106 49t-105.5 -42t-39.5 -122v-416h-477v1036q0 110 45.5 198t123.5 143.5t178.5 84.5t215.5 29q154 0 280 -49t198.5 -138.5t72.5 -201.5q0 -62 -17 -125l-450 39q4 16 4 35q0 40 -22 65t-60 25q-42 0 -66 -24t-24 -66
v-181h4q106 91 281 91q98 0 186 -34.5t155.5 -98t107.5 -161t40 -214.5q0 -127 -40 -263.5t-107 -232.5z" />
    <glyph glyph-name="uni1CAA" unicode="&#x1caa;" horiz-adv-x="1613" 
d="M870 -39q-191 0 -343.5 62.5t-252 175t-152 266t-52.5 336.5q0 224 63 405.5t146 284.5l448 -98q-164 -306 -164 -590q0 -445 307 -445q84 0 132.5 31.5t48.5 77.5q0 58 -48.5 85.5t-115.5 27.5h-109v348h140q110 0 110 73q0 29 -15 54t-37 43.5t-47 48t-45.5 64.5
t-31 97t-4.5 142h493q0 -48 18.5 -87.5t45.5 -69.5t53.5 -63t45 -83.5t18.5 -114.5q0 -91 -57 -153t-154 -88v-9q102 -37 167.5 -124.5t65.5 -221.5t-87.5 -243t-242 -170.5t-344.5 -61.5z" />
    <glyph glyph-name="uni1CAB" unicode="&#x1cab;" horiz-adv-x="1460" 
d="M696 -41q-152 0 -274 42.5t-199.5 117t-118.5 172.5t-41 211q0 244 145.5 389t375.5 145q79 0 153.5 -26t118.5 -66h4v506h486v-870q0 -156 -50 -276.5t-138.5 -194.5t-205.5 -112t-256 -38zM717 365q67 0 113.5 39t46.5 98q0 61 -46 98t-114 37q-73 0 -116.5 -36.5
t-43.5 -98.5q0 -60 44 -98.5t116 -38.5z" />
    <glyph glyph-name="uni1CAC" unicode="&#x1cac;" horiz-adv-x="1458" 
d="M756 -41q-139 0 -257 37t-206.5 107.5t-138.5 183t-50 254.5v497q0 91 26.5 171t79.5 144.5t142.5 102t206.5 37.5q71 0 137 -16.5t122 -54t79 -91.5h6q30 78 104 115t160 37h199v-369h-109q-59 0 -59 -57v-49h-467v49q0 32 -18 51.5t-49 19.5q-34 0 -54 -20t-20 -51
v-187h6q45 39 124.5 63.5t164.5 24.5q221 0 362.5 -128.5t141.5 -350.5q0 -106 -41.5 -199.5t-119 -165t-199.5 -113.5t-273 -42zM737 365q72 0 115 35.5t43 88.5q0 57 -42.5 91t-117.5 34q-72 0 -116 -34.5t-44 -92.5q0 -51 45 -86.5t117 -35.5z" />
    <glyph glyph-name="uni1CAD" unicode="&#x1cad;" horiz-adv-x="1536" 
d="M707 -41q-289 0 -463 134.5t-174 346.5q0 48 16 117l463 -47v-14q0 -59 42.5 -93t113.5 -34q68 0 108.5 38.5t40.5 104.5v152h-4q-44 -38 -132 -63.5t-171 -25.5q-195 0 -313.5 93t-118.5 243q0 151 112.5 242.5t319.5 91.5h307v205h485v-205h183v-336h-183v-399
q0 -174 -82 -300t-223.5 -188.5t-326.5 -62.5zM696 874q65 0 111.5 21.5t46.5 65.5v10h-158q-102 0 -102 -47q0 -50 102 -50z" />
    <glyph glyph-name="uni1CAE" unicode="&#x1cae;" horiz-adv-x="1460" 
d="M764 -41q-139 0 -255.5 38t-205.5 112.5t-138.5 194.5t-49.5 276v870h485v-506h4q44 40 119 66t154 26q229 0 374.5 -145t145.5 -389q0 -113 -41 -211t-118.5 -172.5t-199.5 -117t-274 -42.5zM743 365q72 0 116 38.5t44 98.5q0 62 -43.5 98.5t-116.5 36.5
q-68 0 -113.5 -37t-45.5 -98q0 -59 46 -98t113 -39z" />
    <glyph glyph-name="uni1CAF" unicode="&#x1caf;" horiz-adv-x="1431" 
d="M713 -41q-184 0 -329 55t-229.5 161.5t-84.5 248.5q0 59 12 106l471 -32q-2 -10 -2 -31q0 -63 43.5 -95t118.5 -32q72 0 113.5 31.5t41.5 81.5q0 55 -41.5 88.5t-115.5 33.5h-240v369h-369v348h369v158h485v-158h365v-348h-365v-76q193 -24 299.5 -135t106.5 -299
q0 -132 -84 -241t-233 -171.5t-332 -62.5z" />
    <glyph glyph-name="uni1CB0" unicode="&#x1cb0;" horiz-adv-x="1257" 
d="M598 -41q-140 0 -252 30.5t-182 83t-107 119.5t-37 144q0 42 9 86l456 -33v-2q0 -34 30 -54t83 -20q117 0 117 70q0 63 -111 63h-117v269h134q55 0 55 39q0 41 -55 41h-134v276h109q51 0 51 31q0 17 -16 27.5t-42 18.5t-57.5 18t-63 30t-57.5 49.5t-42.5 82t-16.5 122.5
h469q10 -28 37.5 -50t60.5 -35t69.5 -32t66.5 -39.5t49.5 -58t19.5 -88.5q0 -150 -192 -172v-8q113 -11 164 -68t51 -135q0 -75 -42 -124.5t-147 -66.5v-8q69 -12 117.5 -40.5t71.5 -66.5t32 -73t9 -72q0 -151 -168 -252.5t-422 -101.5z" />
    <glyph glyph-name="uni1CB1" unicode="&#x1cb1;" horiz-adv-x="1613" 
d="M870 -39q-191 0 -343.5 62.5t-252 175t-152 266t-52.5 336.5q0 224 63 405.5t146 284.5l448 -98q-164 -306 -164 -590q0 -133 27.5 -230t78 -151.5t113.5 -79.5t142 -25q147 0 147 66q0 63 -110 63h-117v269h133q55 0 55 39q0 41 -55 41h-133v276h108q52 0 52 39
q0 20 -19.5 37t-48 36t-56.5 47.5t-48 85t-21 134.5h469q9 -33 33.5 -60t52 -47.5t54 -44t44 -62t17.5 -89.5q0 -150 -193 -172v-8q113 -11 164 -68t51 -135q0 -75 -41.5 -124.5t-146.5 -66.5v-8q120 -19 174.5 -83.5t54.5 -147.5q0 -92 -51 -164t-142 -117.5t-213 -68.5
t-268 -23z" />
    <glyph glyph-name="uni1CB2" unicode="&#x1cb2;" horiz-adv-x="1388" 
d="M113 -20v382q78 0 180 17v8q-106 71 -164.5 189t-58.5 251v127q0 159 86 283t227 189t311 65t311.5 -65t227.5 -189t86 -283v-127q0 -132 -59 -249.5t-164 -190.5v-8q102 -17 180 -17v-382q-300 0 -582 114q-282 -114 -581 -114zM694 518q142 120 142 311v86
q0 84 -36.5 129.5t-105.5 45.5t-105 -45.5t-36 -129.5v-86q0 -192 141 -311z" />
    <glyph glyph-name="uni1CB3" unicode="&#x1cb3;" horiz-adv-x="1439" 
d="M727 -41q-150 0 -276 42t-208 112.5t-127.5 160.5t-45.5 187q0 67 16 143l471 -47q-2 -14 -2 -43q0 -75 51 -116.5t121 -41.5q69 0 109.5 31t40.5 82q0 50 -39.5 75t-104.5 25h-69v342h63q127 0 127 99v90h-268v-109h-475v459h1230v-395q0 -96 -47.5 -169t-142.5 -112v-8
q97 -34 158 -119t61 -209q0 -135 -83.5 -245t-231 -172t-328.5 -62z" />
    <glyph glyph-name="uni1CB4" unicode="&#x1cb4;" horiz-adv-x="1277" 
d="M618 -41q-140 0 -252 30.5t-182 83t-106.5 119.5t-36.5 144q0 47 8 86l457 -33v-6q0 -31 29.5 -50.5t82.5 -19.5q117 0 117 70q0 63 -110 63h-117v269h141q47 0 47 33q0 34 -131 61q-12 3 -18 4q-44 10 -76 18.5t-78 24t-79.5 33t-69.5 44.5t-58.5 58t-37.5 74.5
t-15 93.5q0 141 130.5 236.5t359.5 95.5q118 0 233.5 -20.5t179.5 -59.5l-157 -281q-103 37 -207 37q-54 0 -54 -26q0 -19 29.5 -29.5t118.5 -30.5q44 -10 74 -17t76 -21.5t77 -29t66.5 -38t57 -50t36 -63.5t14.5 -80q0 -178 -188 -209v-8q64 -10 111 -37.5t71.5 -63.5
t35.5 -71.5t11 -70.5q0 -168 -164.5 -265.5t-425.5 -97.5z" />
    <glyph glyph-name="uni1CB5" unicode="&#x1cb5;" horiz-adv-x="1589" 
d="M1513 1139v-348h-260v-99h260v-348h-264q-18 -119 -104.5 -208.5t-209 -133t-261.5 -43.5q-174 0 -309 43.5t-215 131.5t-80 208q0 158 124.5 254t348.5 96h291v99h-291q-219 0 -334 90.5t-115 236.5q0 175 156 274t416 99q149 0 271.5 -37.5t207.5 -118.5t104 -196h264z
M674 1073h160v14q0 87 -152 87q-137 0 -137 -54q0 -29 34 -38t95 -9zM666 289q168 0 168 92v25h-177q-139 0 -139 -58q0 -59 148 -59z" />
    <glyph glyph-name="uni1CB6" unicode="&#x1cb6;" horiz-adv-x="2066" 
d="M1985 743q0 -100 -23 -193t-76.5 -182.5t-132.5 -156.5t-201.5 -110.5t-273.5 -49.5v-137h-490v137q-122 5 -224 33.5t-173.5 72t-127 102t-89 119t-55 128.5t-29.5 125t-8 112q0 97 19.5 189t69.5 186.5t127 165.5t203.5 118.5t286.5 53.5v137h490v-137
q154 -5 276.5 -49t202 -113t132 -161.5t74.5 -188.5t22 -201zM1278 1028v-549q70 0 122.5 27t79 69.5t38.5 85t12 84.5q0 131 -68 207t-184 76zM537 745q0 -117 68.5 -191.5t182.5 -74.5v549q-111 0 -181 -73.5t-70 -209.5z" />
    <glyph glyph-name="uni1CB7" unicode="&#x1cb7;" horiz-adv-x="1431" 
d="M717 -41q-133 0 -250 36t-205.5 103.5t-140 171t-51.5 230.5q0 55 12 104.5t30.5 88t50 74.5t60 61.5t73 51t76 41t81.5 34t78 27.5t75 24q131 41 161 62q23 17 24 36q0 29 -21 44t-55 15q-33 0 -53.5 -15.5t-20.5 -41.5q0 -13 2 -25l-459 -49q-12 58 -12 101
q0 159 152.5 258.5t390.5 99.5q249 0 397 -102.5t148 -282.5q0 -47 -10 -89t-23.5 -74.5t-40.5 -63.5t-49 -52t-60.5 -44t-63.5 -36.5t-70 -31t-68.5 -25.5t-69.5 -24q-45 -15 -64.5 -22.5t-55 -21.5t-52 -25t-36 -27t-27 -34.5t-7.5 -39.5q0 -61 42 -96t112 -35
q72 0 114.5 40t42.5 117q0 40 -14 103l467 41q35 -89 35 -199q0 -92 -34 -173.5t-94.5 -142t-141.5 -104t-177 -66t-198 -22.5z" />
    <glyph glyph-name="uni1CB8" unicode="&#x1cb8;" horiz-adv-x="1456" 
d="M750 -41q-185 0 -327.5 62.5t-225 188.5t-82.5 300v940h487v-315q0 -80 40.5 -120t107.5 -40q72 0 109.5 47t37.5 123q0 119 -61 256l446 90q58 -94 83.5 -189t25.5 -221q0 -92 -27 -170t-73 -133t-108 -93.5t-131 -56.5t-143 -18q-95 0 -176.5 24.5t-126.5 63.5h-4v-186
q0 -66 41 -104.5t109 -38.5q71 0 113 34t42 93v14l463 47q16 -69 16 -117q0 -212 -173.5 -346.5t-462.5 -134.5z" />
    <glyph glyph-name="uni1CB9" unicode="&#x1cb9;" horiz-adv-x="1431" 
d="M715 1491q133 0 250 -36t205.5 -103.5t140 -171t51.5 -230.5q0 -96 -30 -176t-81.5 -136.5t-124 -99t-153.5 -67.5t-174 -37q-75 -9 -109.5 -30t-34.5 -58q0 -29 21 -44t55 -15q33 0 53.5 15.5t20.5 41.5q0 13 -2 25l459 49q12 -58 12 -101q0 -159 -152.5 -258.5
t-390.5 -99.5q-244 0 -394.5 102t-150.5 263q0 66 34.5 128.5t98.5 94.5v8q-249 118 -249 395q0 102 34 189.5t94.5 151.5t141.5 109.5t176.5 68t198.5 22.5zM715 1085q-67 0 -109.5 -40t-42.5 -97t43.5 -97t110.5 -40t109 40t42 97t-43 97t-110 40z" />
    <glyph glyph-name="uni1CBA" unicode="&#x1cba;" horiz-adv-x="1142" 
d="M1104 319l-744 -360l-172 363l189 90v8q-139 57 -223 192.5t-84 300.5q0 139 54.5 251t146 182t205.5 107.5t239 37.5q261 0 428 -170l-250 -303q-53 51 -137 51q-79 0 -136 -58t-57 -165q0 -96 62 -153.5t145 -57.5q90 0 162 45z" />
    <glyph glyph-name="uni1CBD" unicode="&#x1cbd;" horiz-adv-x="1378" 
d="M700 -41q-88 0 -173.5 15.5t-167 50.5t-144 85.5t-102 127.5t-43.5 170q-3 59 10 131l465 -52q-2 -14 -2 -26q0 -57 40 -84t107 -27q127 0 127 76q0 17 -10.5 32t-23.5 25.5t-40.5 22.5t-47 18.5t-56.5 18.5l-27 8q-61 19 -107.5 35t-103.5 41.5t-98.5 52t-83.5 64.5
t-68 81t-42.5 100t-16.5 122q0 140 80.5 242t214.5 152t305 50q106 0 205.5 -24.5t184 -72.5t138 -128.5t58.5 -182.5q3 -59 -10 -131l-465 52q2 10 2 18q0 39 -36.5 62.5t-80.5 23.5q-45 0 -75.5 -16t-30.5 -45q0 -37 40.5 -56.5t182.5 -62.5l26 -8q81 -25 144.5 -52
t128.5 -69t108 -91.5t70 -120.5t27 -155q0 -94 -34.5 -173t-92.5 -133.5t-136.5 -93t-165.5 -56t-180 -17.5z" />
    <glyph glyph-name="uni1CBE" unicode="&#x1cbe;" horiz-adv-x="1388" 
d="M113 1087v383q299 0 581 -114q282 114 582 114v-383q-84 0 -180 -16v-8q105 -73 164 -190.5t59 -249.5v-127q0 -159 -86 -283t-227.5 -189t-311.5 -65t-311 65t-227 189t-86 283v127q0 133 58.5 251t164.5 189v8q-96 16 -180 16zM694 932q-141 -119 -141 -311v-86
q0 -84 36 -129.5t105 -45.5t105.5 45.5t36.5 129.5v86q0 191 -142 311z" />
    <glyph glyph-name="uni1CBF" unicode="&#x1cbf;" horiz-adv-x="1669" 
d="M834 -41q-162 0 -300.5 50.5t-242 146t-162.5 244t-59 333.5t59 331t163 238.5t242 140.5t300 48t300 -48t242.5 -140.5t163.5 -238.5t59 -331t-59 -333.5t-163 -244t-242.5 -146t-300.5 -50.5zM834 410q104 0 174.5 86t70.5 237q0 150 -69.5 230.5t-175.5 80.5
q-107 0 -176.5 -80.5t-69.5 -230.5q0 -151 70 -237t176 -86z" />
    <glyph glyph-name="uni200C" unicode="&#x200c;" 
d="M0 2171l-109 -107l-32 35l106 107l-106 106l32 35l109 -109l106 107l33 -33l-106 -106l106 -107l-33 -33z" />
    <glyph glyph-name="uni200D" unicode="&#x200d;" 
d="M-156 2208h-47v141h408v-141h-47v94h-314v-94z" />
    <glyph glyph-name="uni200E" unicode="&#x200e;" 
d="M184 2208l-141 -142l-35 37l84 82h-256v47h256l-84 80l35 37z" />
    <glyph glyph-name="uni200F" unicode="&#x200f;" 
d="M-8 2116l-35 -37l-141 141l141 141l35 -37l-84 -79h256v-47h-256z" />
    <glyph glyph-name="uni2010" unicode="&#x2010;" horiz-adv-x="688" 
d="M627 408h-566v352h566v-352z" />
    <glyph glyph-name="uni2011" unicode="&#x2011;" horiz-adv-x="688" 
d="M627 408h-566v352h566v-352z" />
    <glyph glyph-name="endash" unicode="&#x2013;" horiz-adv-x="819" 
d="M758 461h-697v246h697v-246z" />
    <glyph glyph-name="emdash" unicode="&#x2014;" horiz-adv-x="1228" 
d="M1167 461h-1106v246h1106v-246z" />
    <glyph glyph-name="quoteleft" unicode="&#x2018;" horiz-adv-x="700" 
d="M473 872h-387l203 578h336z" />
    <glyph glyph-name="quoteright" unicode="&#x2019;" horiz-adv-x="700" 
d="M412 872h-336l151 578h387z" />
    <glyph glyph-name="quotesinglbase" unicode="&#x201a;" horiz-adv-x="700" 
d="M412 -258h-336l151 577h387z" />
    <glyph glyph-name="quotedblleft" unicode="&#x201c;" horiz-adv-x="1163" 
d="M473 872h-387l203 578h336zM934 872h-387l203 578h335z" />
    <glyph glyph-name="quotedblright" unicode="&#x201d;" horiz-adv-x="1163" 
d="M410 872h-336l151 578h387zM877 872h-336l151 578h387z" />
    <glyph glyph-name="quotedblbase" unicode="&#x201e;" horiz-adv-x="1163" 
d="M412 -258h-336l151 577h377zM874 -258h-335l161 577h377z" />
    <glyph glyph-name="dagger" unicode="&#x2020;" horiz-adv-x="1267" 
d="M817 -272h-377v970h-370v349h368v403h377v-403h383v-349h-381v-970z" />
    <glyph glyph-name="daggerdbl" unicode="&#x2021;" horiz-adv-x="1267" 
d="M821 -272h-375v346h-376v336h376v358h-376v336h374v346h375v-346h379v-336h-379v-358h379v-336h-377v-346z" />
    <glyph glyph-name="bullet" unicode="&#x2022;" horiz-adv-x="1024" 
d="M512 362q-151 0 -256.5 106t-105.5 257t105.5 256.5t256.5 105.5t256.5 -105.5t105.5 -256.5t-105.5 -257t-256.5 -106z" />
    <glyph glyph-name="ellipsis" unicode="&#x2026;" horiz-adv-x="2048" 
d="M344 -33q-113 0 -193.5 76t-80.5 188q0 109 81 188t193 79q108 0 187 -79t79 -188q0 -111 -78.5 -187.5t-187.5 -76.5zM1024 -33q-113 0 -193.5 76t-80.5 188q0 109 81 188t193 79q108 0 187 -79t79 -188q0 -111 -78.5 -187.5t-187.5 -76.5zM1706 -33q-113 0 -193.5 76
t-80.5 188q0 109 81 188t193 79q108 0 187 -79t79 -188q0 -111 -78.5 -187.5t-187.5 -76.5z" />
    <glyph glyph-name="uni202A" unicode="&#x202a;" 
d="M195 2210l-142 -142l-33 35l82 84h-100v47h100l-82 80l33 35zM-57 2187h-115v47h115v-47z" />
    <glyph glyph-name="uni202B" unicode="&#x202b;" 
d="M-20 2103l-33 -32l-142 139l142 139l33 -31l-82 -84h100v-47h-100zM172 2187h-115v47h115v-47z" />
    <glyph glyph-name="uni202C" unicode="&#x202c;" 
d="M23 2052h-48v207l-79 -82l-35 33l139 139l139 -139l-35 -33l-81 82v-207z" />
    <glyph glyph-name="uni202D" unicode="&#x202d;" 
d="M98 2210l-141 -142l-33 35l84 84h-219v47h217l-82 80l33 35zM229 2210l-141 -142l-31 35l109 107l-109 104l31 35z" />
    <glyph glyph-name="uni202E" unicode="&#x202e;" 
d="M-57 2101l-31 -35l-141 142l141 141l31 -35l-107 -106zM76 2101l-33 -35l-139 142l139 141l33 -35l-82 -86h217v-43h-217z" />
    <glyph glyph-name="perthousand" unicode="&#x2030;" horiz-adv-x="2588" 
d="M1337 1421l-708 -1476l-203 82l709 1486zM434 731q-156 0 -267.5 109t-111.5 262q0 156 111.5 264.5t267.5 108.5t266.5 -108.5t110.5 -264.5q0 -154 -111 -262.5t-266 -108.5zM434 991q45 0 79 33t34 78q0 47 -34 81t-79 34q-46 0 -80.5 -34t-34.5 -81q0 -45 34.5 -78
t80.5 -33zM1333 -25q-156 0 -267.5 109t-111.5 262q0 156 111.5 264.5t267.5 108.5t266.5 -108.5t110.5 -264.5q0 -154 -111 -262.5t-266 -108.5zM2157 -25q-156 0 -267.5 109t-111.5 262q0 156 111.5 264.5t267.5 108.5t266 -108.5t110 -264.5q0 -154 -110.5 -262.5
t-265.5 -108.5zM1333 236q45 0 79 32.5t34 77.5q0 47 -34 81t-79 34q-46 0 -80 -34t-34 -81q0 -45 34 -77.5t80 -32.5zM2157 236q45 0 78.5 32.5t33.5 77.5q0 47 -33.5 81t-78.5 34q-46 0 -80.5 -34t-34.5 -81q0 -45 34.5 -77.5t80.5 -32.5z" />
    <glyph glyph-name="guilsinglleft" unicode="&#x2039;" horiz-adv-x="716" 
d="M659 223l-264 -170l-360 508l360 508l264 -170l-235 -338z" />
    <glyph glyph-name="guilsinglright" unicode="&#x203a;" horiz-adv-x="716" 
d="M682 561l-358 -508l-267 170l236 338l-236 338l267 170z" />
    <glyph glyph-name="fraction" unicode="&#x2044;" horiz-adv-x="204" 
d="M-131 -55l-203 82l709 1486l203 -92z" />
    <glyph glyph-name="zero.sups" unicode="&#x2070;" horiz-adv-x="921" 
d="M461 877q-97 0 -171.5 31.5t-118.5 80t-72 115t-38 129t-10 129.5q0 68 10 129.5t38 126.5t72 112t118.5 77t171.5 30t171.5 -30t118 -77t71.5 -112t38 -126.5t10 -129.5q0 -67 -10 -129.5t-38 -129t-71.5 -115t-118 -80t-171.5 -31.5zM461 1141q36 0 58 36t29 82t7 103
q0 55 -7 99t-29 79t-58 35t-58 -35t-29 -79t-7 -99q0 -57 7 -103t29 -82t58 -36z" />
    <glyph glyph-name="four.sups" unicode="&#x2074;" horiz-adv-x="921" 
d="M770 899h-278v162h-441v250l346 501h373v-512h123v-239h-123v-162zM492 1532l-154 -232h158v232h-4z" />
    <glyph glyph-name="five.sups" unicode="&#x2075;" horiz-adv-x="921" 
d="M473 877q-145 0 -257 73.5t-140 202.5l276 70q8 -38 37.5 -65.5t69.5 -27.5q36 0 60 17t24 53q0 84 -148 84q-111 0 -252 -29l31 557h623v-258h-361l-6 -61q37 6 72 6q150 0 249 -75.5t99 -217.5q0 -73 -22.5 -131t-59 -94.5t-87 -60.5t-101.5 -33.5t-107 -9.5z" />
    <glyph glyph-name="six.sups" unicode="&#x2076;" horiz-adv-x="921" 
d="M461 877q-82 0 -153 21.5t-126.5 62.5t-88 108.5t-32.5 153.5q0 145 113 301l209 288h375l-228 -280l2 -2h17q81 0 150.5 -34.5t115 -105.5t45.5 -165q0 -164 -115 -256t-284 -92zM461 1130q42 0 69 27.5t27 67.5q0 39 -27 64.5t-69 25.5q-41 0 -66.5 -25.5t-25.5 -64.5
q0 -40 25.5 -67.5t66.5 -27.5z" />
    <glyph glyph-name="seven.sups" unicode="&#x2077;" horiz-adv-x="921" 
d="M516 899h-358l346 655h-391v258h729v-219z" />
    <glyph glyph-name="eight.sups" unicode="&#x2078;" horiz-adv-x="921" 
d="M461 877q-75 0 -140 16t-120 48.5t-87 89.5t-32 132q0 72 41 127.5t110 83.5v2q-60 23 -98.5 74t-38.5 119q0 70 30.5 123t83.5 84t116 46t135 15q70 0 133 -15t116 -46t84 -84t31 -123q0 -69 -37 -119.5t-100 -71.5v-2q67 -26 109.5 -82.5t42.5 -130.5
q0 -75 -32.5 -131.5t-87.5 -89.5t-120 -49t-139 -16zM461 1473q34 0 55 21t21 50q0 26 -21 47t-55 21t-55 -21t-21 -47q0 -29 21 -50t55 -21zM461 1106q38 0 60 22.5t22 53.5t-22 54.5t-60 23.5t-60 -23.5t-22 -54.5t22 -53.5t60 -22.5z" />
    <glyph glyph-name="nine.sups" unicode="&#x2079;" horiz-adv-x="921" 
d="M539 899h-375l223 277l-2 6h-12q-81 0 -151 35t-115.5 106.5t-45.5 165.5q0 164 115.5 256t284.5 92q82 0 152.5 -21.5t126.5 -62.5t88 -108.5t32 -153.5q0 -147 -112 -303zM461 1399q40 0 66 27.5t26 66.5t-25.5 65.5t-66.5 26.5q-42 0 -69 -26.5t-27 -65.5t27 -66.5
t69 -27.5z" />
    <glyph glyph-name="plus.sups" unicode="&#x207a;" horiz-adv-x="921" 
d="M559 948h-197v281h-280v196h280v281h197v-281h281v-196h-281v-281z" />
    <glyph glyph-name="minus.sups" unicode="&#x207b;" horiz-adv-x="921" 
d="M840 1229h-758v196h758v-196z" />
    <glyph glyph-name="equal.sups" unicode="&#x207c;" horiz-adv-x="921" 
d="M840 1356h-758v196h758v-196zM840 1098h-758v196h758v-196z" />
    <glyph glyph-name="zero.subs" unicode="&#x2080;" horiz-adv-x="921" 
d="M461 -330q-97 0 -171.5 31.5t-118.5 80t-72 115.5t-38 129.5t-10 129.5q0 68 10 129.5t38 126.5t72 112t118.5 77t171.5 30t171.5 -30t118 -77t71.5 -112t38 -126.5t10 -129.5q0 -67 -10 -129.5t-38 -129.5t-71.5 -115.5t-118 -80t-171.5 -31.5zM461 -66q36 0 58 36.5
t29 82.5t7 103q0 55 -7 99t-29 79t-58 35t-58 -35t-29 -79t-7 -99q0 -57 7 -103t29 -82.5t58 -36.5z" />
    <glyph glyph-name="one.subs" unicode="&#x2081;" horiz-adv-x="921" 
d="M715 -307h-309v590l-154 -107l-146 225l324 205h285v-913z" />
    <glyph glyph-name="two.subs" unicode="&#x2082;" horiz-adv-x="921" 
d="M850 -307h-741v239l372 301q39 31 39 68q0 27 -16 44t-49 17q-37 0 -62 -29t-28 -79l-293 33q8 87 45.5 154.5t94 108t124.5 61t143 20.5q71 0 134.5 -16.5t117 -50.5t85.5 -93.5t32 -136.5q0 -54 -13.5 -98t-42 -79t-55 -58.5t-67.5 -53.5l-135 -94h315v-258z" />
    <glyph glyph-name="three.subs" unicode="&#x2083;" horiz-adv-x="921" 
d="M483 -330q-70 0 -134 16.5t-119.5 49t-96 88t-57.5 127.5l278 67q8 -38 37 -65t72 -27q35 0 58.5 15t23.5 47q0 39 -32.5 53t-96.5 14h-86v211h96q54 0 79 14.5t25 49.5q0 23 -18 39t-53 16q-31 0 -57.5 -22.5t-32.5 -59.5l-275 64q21 72 63 125t97.5 82t113.5 43t121 14
q62 0 121 -14.5t111 -44t83.5 -80.5t31.5 -117q0 -80 -31 -126t-90 -75v-2q67 -22 102 -77.5t35 -125.5q0 -77 -32 -136t-86 -93.5t-117.5 -52t-133.5 -17.5z" />
    <glyph glyph-name="four.subs" unicode="&#x2084;" horiz-adv-x="921" 
d="M770 -307h-278v162h-441v249l346 502h373v-512h123v-239h-123v-162zM492 326l-154 -232h158v232h-4z" />
    <glyph glyph-name="five.subs" unicode="&#x2085;" horiz-adv-x="921" 
d="M473 -330q-145 0 -257 74t-140 203l276 69q8 -38 37.5 -65t69.5 -27q36 0 60 17t24 53q0 84 -148 84q-111 0 -252 -29l31 557h623v-258h-361l-6 -61q38 6 72 6q150 0 249 -75.5t99 -217.5q0 -91 -33.5 -158t-90 -103t-119.5 -52.5t-134 -16.5z" />
    <glyph glyph-name="six.subs" unicode="&#x2086;" horiz-adv-x="921" 
d="M461 -330q-82 0 -153 21.5t-126.5 62.5t-88 108.5t-32.5 153.5q0 145 113 301l209 289h375l-228 -280l2 -2h17q81 0 150.5 -35t115 -106t45.5 -165q0 -164 -115 -256t-284 -92zM461 -76q42 0 69 27t27 67q0 39 -27 65t-69 26q-41 0 -66.5 -26t-25.5 -65q0 -40 25.5 -67
t66.5 -27z" />
    <glyph glyph-name="seven.subs" unicode="&#x2087;" horiz-adv-x="921" 
d="M516 -307h-358l346 655h-391v258h729v-219z" />
    <glyph glyph-name="eight.subs" unicode="&#x2088;" horiz-adv-x="921" 
d="M461 -330q-74 0 -139.5 16t-120.5 48.5t-87 90t-32 132.5q0 72 41 127.5t110 83.5v2q-60 23 -98.5 73.5t-38.5 118.5q0 70 30.5 123t83.5 84t116 46.5t135 15.5q70 0 133 -15.5t116 -46.5t84 -84t31 -123q0 -69 -37 -119t-100 -71v-2q67 -26 109.5 -82.5t42.5 -130.5
q0 -75 -32.5 -132t-87 -90t-120 -49t-139.5 -16zM461 266q34 0 55 21.5t21 50.5q0 26 -21 47t-55 21t-55 -21t-21 -47q0 -29 21 -50.5t55 -21.5zM461 -100q38 0 60 22t22 53t-22 54.5t-60 23.5t-60 -23.5t-22 -54.5t22 -53t60 -22z" />
    <glyph glyph-name="nine.subs" unicode="&#x2089;" horiz-adv-x="921" 
d="M539 -307h-375l223 276l-2 6h-12q-81 0 -151 35.5t-115.5 107t-45.5 165.5q0 164 115.5 256t284.5 92q82 0 152.5 -21.5t126.5 -62.5t88 -108.5t32 -153.5q0 -147 -112 -303zM461 193q40 0 66 27.5t26 66.5t-25.5 65.5t-66.5 26.5q-42 0 -69 -26.5t-27 -65.5t27 -66.5
t69 -27.5z" />
    <glyph glyph-name="plus.subs" unicode="&#x208a;" horiz-adv-x="921" 
d="M559 -260h-197v280h-280v197h280v281h197v-281h281v-197h-281v-280z" />
    <glyph glyph-name="minus.subs" unicode="&#x208b;" horiz-adv-x="921" 
d="M840 20h-758v197h758v-197z" />
    <glyph glyph-name="equal.subs" unicode="&#x208c;" horiz-adv-x="921" 
d="M840 147h-758v197h758v-197zM840 -111h-758v197h758v-197z" />
    <glyph glyph-name="Euro" unicode="&#x20ac;" horiz-adv-x="1433" 
d="M938 -41q-250 0 -426 124t-236 339h-215l86 264h97q-2 18 -2 45q0 21 2 39h-178l96 268h119q75 219 272 336t463 117q79 0 180 -13.5t162 -35.5l-135 -342q-107 35 -217 35q-77 0 -147.5 -26t-98.5 -71h475l-94 -268h-465q-2 -18 -2 -39q0 -27 2 -45h444l-88 -264h-297
q25 -43 97.5 -69.5t152.5 -26.5q72 0 140.5 15t109.5 40l61 -354q-132 -68 -358 -68z" />
    <glyph glyph-name="uni20BE" unicode="&#x20be;" horiz-adv-x="1751" 
d="M1630 0h-1501v358h180v9q-115 71 -177 192t-62 277q0 187 134.5 351t350.5 232v191h264v-142q18 2 55 2q36 0 54 -2v142h264v-191q230 -81 359.5 -259t129.5 -435h-499q0 197 -113 287v-287h-162v338q-10 2 -33 2q-22 0 -34 -2v-338h-162v293q-111 -81 -111 -252
q0 -157 99 -246.5t270 -89.5h694v-430z" />
    <glyph glyph-name="trademark" unicode="&#x2122;" horiz-adv-x="2048" 
d="M561 606h-250v633h-229v211h709v-211h-230v-633zM1141 606h-228v844h336l183 -508l170 508h333v-844h-229v502h-4l-189 -502h-186l-182 502h-4v-502z" />
    <glyph glyph-name="uni2126" unicode="&#x2126;" horiz-adv-x="1626" 
d="M754 0h-643v336h256v22q-134 32 -215.5 164.5t-81.5 313.5q0 159 58 285t159 206t234.5 122t289.5 42q125 0 236 -25.5t204.5 -78.5t161 -130t105.5 -184.5t38 -236.5q0 -187 -83.5 -318.5t-212.5 -159.5v-22h256v-336h-644v571q168 48 168 242q0 106 -64 168.5
t-165 62.5q-98 0 -161.5 -64t-63.5 -167q0 -89 41 -153.5t127 -88.5v-571z" />
    <glyph glyph-name="oneeighth" unicode="&#x215b;" horiz-adv-x="2070" 
d="M1491 1421l-709 -1476l-202 82l708 1486zM715 559h-309v590l-154 -107l-146 226l324 205h285v-914zM1610 -23q-74 0 -139.5 16t-120.5 48.5t-87 90t-32 132.5q0 72 41 127.5t110 83.5v2q-60 23 -98.5 74t-38.5 119q0 70 30.5 123t83.5 84t116 46t135 15q70 0 133 -15
t116 -46t84 -84t31 -123q0 -69 -37 -119.5t-100 -71.5v-2q67 -26 109.5 -82.5t42.5 -130.5q0 -75 -32.5 -132t-87 -90t-120 -49t-139.5 -16zM1610 573q34 0 55 21.5t21 50.5q0 26 -21 47t-55 21t-55 -21t-21 -47q0 -29 21 -50.5t55 -21.5zM1610 207q38 0 60 22.5t22 53.5
t-22 54t-60 23t-60 -23t-22 -54t22 -53.5t60 -22.5z" />
    <glyph glyph-name="threeeighths" unicode="&#x215c;" horiz-adv-x="2093" 
d="M1311 1513l202 -92l-708 -1476l-203 82zM483 487q-70 0 -134 16.5t-119.5 49t-96 88t-57.5 127.5l278 68q8 -38 37 -65.5t72 -27.5q35 0 58.5 15t23.5 47q0 39 -32.5 53t-96.5 14h-86v211h96q54 0 79 14.5t25 49.5q0 23 -18 39t-53 16q-31 0 -57.5 -22.5t-32.5 -59.5
l-275 64q21 72 63 125t97.5 82t113.5 43t121 14q62 0 121 -14.5t111 -44t83.5 -80.5t31.5 -117q0 -80 -31 -126t-90 -75v-2q67 -22 102 -77.5t35 -125.5q0 -77 -32 -136t-86 -93.5t-117.5 -52t-133.5 -17.5zM1632 -23q-74 0 -139.5 16t-120.5 48.5t-87 90t-32 132.5
q0 72 41.5 127t110.5 84v2q-60 23 -98.5 74t-38.5 119q0 70 30.5 123t83 84t115.5 46t135 15q70 0 133 -15t116.5 -46t84.5 -84t31 -123q0 -69 -37 -119.5t-100 -71.5v-2q67 -26 109 -82.5t42 -130.5q0 -75 -32.5 -132t-87 -90t-120 -49t-139.5 -16zM1632 573q34 0 55 21.5
t21 50.5q0 26 -21 47t-55 21t-55 -21t-21 -47q0 -29 21 -50.5t55 -21.5zM1632 207q38 0 60 22.5t22 53.5t-22 54t-60 23t-60 -23t-22 -54t22 -53.5t60 -22.5z" />
    <glyph glyph-name="fiveeighths" unicode="&#x215d;" horiz-adv-x="2078" 
d="M588 27l708 1486l203 -92l-708 -1476zM473 514q-145 0 -257 74t-140 203l276 69q8 -38 37.5 -65t69.5 -27q36 0 60 17t24 53q0 84 -148 84q-111 0 -252 -29l31 557h623v-258h-361l-6 -62q44 7 72 7q150 0 249 -75.5t99 -217.5q0 -91 -33.5 -158t-90 -103t-119.5 -52.5
t-134 -16.5zM1618 -23q-74 0 -139.5 16t-120.5 48.5t-87 90t-32 132.5q0 72 41.5 127t110.5 84v2q-60 23 -99 74t-39 119q0 70 30.5 123t83.5 84t116 46t135 15q70 0 133 -15t116 -46t84 -84t31 -123q0 -69 -37 -119.5t-100 -71.5v-2q67 -26 109.5 -82.5t42.5 -130.5
q0 -75 -32.5 -132t-87 -90t-120 -49t-139.5 -16zM1618 573q34 0 55 21.5t21 50.5q0 26 -21 47t-55 21t-55 -21t-21 -47q0 -29 21 -50.5t55 -21.5zM1618 207q38 0 60 22.5t22 53.5t-22 54t-60 23t-60 -23t-22 -54t22 -53.5t60 -22.5z" />
    <glyph glyph-name="seveneighths" unicode="&#x215e;" horiz-adv-x="1914" 
d="M627 -55l-203 82l709 1486l202 -92zM516 537h-358l346 655h-391v258h729v-219zM1454 -23q-74 0 -139.5 16t-120.5 48.5t-87 90t-32 132.5q0 72 41.5 127t110.5 84v2q-60 23 -98.5 74t-38.5 119q0 70 30.5 123t83 84t115.5 46t135 15q70 0 133 -15t116.5 -46t84.5 -84
t31 -123q0 -69 -37.5 -119.5t-100.5 -71.5v-2q67 -26 109.5 -82.5t42.5 -130.5q0 -75 -32.5 -132t-87 -90t-120 -49t-139.5 -16zM1454 573q34 0 55 21.5t21 50.5q0 26 -21 47t-55 21t-55 -21t-21 -47q0 -29 21 -50.5t55 -21.5zM1454 207q38 0 60 22.5t22 53.5t-22 54t-60 23
t-60 -23t-22 -54t22 -53.5t60 -22.5z" />
    <glyph glyph-name="partialdiff" unicode="&#x2202;" horiz-adv-x="1589" 
d="M729 1477q141 0 253 -46t181 -119t115 -172.5t64 -198.5t18 -204q0 -70 -6 -137t-23.5 -145t-45 -144.5t-74 -130.5t-107 -108.5t-148 -71.5t-192.5 -27q-247 0 -405 139t-158 371q0 102 34 188.5t99.5 152.5t168.5 103.5t232 37.5q100 0 178 -35q-8 72 -59 117t-152 45
q-160 0 -317 -129l-195 315q112 98 253.5 148.5t285.5 50.5zM772 346q89 0 124 67.5t38 211.5q-52 32 -137 32q-72 0 -113 -39.5t-41 -113.5q0 -77 42.5 -117.5t86.5 -40.5z" />
    <glyph glyph-name="uni2206" unicode="&#x2206;" horiz-adv-x="1505" 
d="M1497 0h-1489v270l488 1180h518l483 -1180v-270zM748 944l-207 -571h407l-198 571h-2z" />
    <glyph glyph-name="product" unicode="&#x220f;" horiz-adv-x="1566" 
d="M500 -438h-385v2048h1341v-2048h-389v1714h-567v-1714z" />
    <glyph glyph-name="summation" unicode="&#x2211;" horiz-adv-x="1400" 
d="M1360 -438h-1305v272l576 764l-553 739v273h1259v-334h-782l485 -676l-518 -704h838v-334z" />
    <glyph glyph-name="minus" unicode="&#x2212;" horiz-adv-x="1363" 
d="M1212 475h-1060v295h1060v-295z" />
    <glyph glyph-name="uni2215" unicode="&#x2215;" horiz-adv-x="204" 
d="M578 1421l-709 -1476l-203 82l709 1486z" />
    <glyph glyph-name="uni2219" unicode="&#x2219;" horiz-adv-x="737" 
d="M373 328q-114 0 -194.5 76.5t-80.5 187.5q0 109 81.5 187.5t193.5 78.5q108 0 187 -79t79 -187q0 -111 -78.5 -187.5t-187.5 -76.5z" />
    <glyph glyph-name="radical" unicode="&#x221a;" horiz-adv-x="1230" 
d="M803 -438h-299l-283 579l-104 -47l-137 283l413 184l195 -420l303 1469h356z" />
    <glyph glyph-name="infinity" unicode="&#x221e;" horiz-adv-x="1759" 
d="M504 143q-186 0 -299 115.5t-113 290.5q0 171 109.5 285t294.5 114q121 0 211 -54t174 -149q80 95 172 150t213 55q185 0 293 -113.5t108 -285.5q0 -113 -46 -205t-139 -148.5t-218 -56.5q-205 0 -383 193q-85 -91 -172 -141t-205 -50zM1264 432q47 0 75.5 31.5
t28.5 81.5q0 52 -30 83t-81 31q-78 0 -190 -116q103 -111 197 -111zM502 434q81 0 190 109q-122 114 -196 114q-44 0 -74.5 -32.5t-30.5 -79.5q0 -51 30 -81t81 -30z" />
    <glyph glyph-name="integral" unicode="&#x222b;" horiz-adv-x="1341" 
d="M416 -436q-39 0 -83.5 10.5t-90.5 33t-75.5 65t-29.5 98.5q0 69 46 118.5t118 49.5q83 0 143 -97q3 8 5 15.5t3.5 14t2.5 18t1.5 19.5t0.5 27.5v33v44.5v54v995q0 84 8.5 154t34 145t67.5 126.5t114.5 84.5t170.5 33q39 0 83.5 -10.5t90 -33t75 -65t29.5 -98.5
q0 -69 -45.5 -118.5t-117.5 -49.5q-38 0 -69 22t-75 74q-8 -19 -11.5 -55.5t-3.5 -67.5t1.5 -75t1.5 -56v-837q0 -76 -1 -120.5t-8.5 -124.5t-22 -130t-43.5 -112.5t-70 -98.5t-105 -61t-145 -25z" />
    <glyph glyph-name="approxequal" unicode="&#x2248;" horiz-adv-x="1363" 
d="M346 596h-248q5 63 19.5 118.5t43.5 107t69 88.5t100 59t133 22q85 0 242 -53q153 -53 233 -53q34 0 53 24t25 84h252q-8 -94 -31.5 -168.5t-57 -123.5t-77.5 -81.5t-90.5 -46.5t-98.5 -14q-40 0 -91 11.5t-80.5 21t-92.5 31.5q-157 57 -225 57q-57 0 -78 -84zM342 123
h-248q6 82 28.5 154.5t62.5 136.5t106 101.5t151 37.5q89 0 250 -57q164 -58 250 -58q50 0 74 76h252q-8 -58 -21 -109t-40 -106.5t-63.5 -95t-94.5 -65t-129 -25.5q-96 0 -279 67q-150 58 -217 58q-65 0 -82 -115z" />
    <glyph glyph-name="notequal" unicode="&#x2260;" horiz-adv-x="1363" 
d="M645 119l-151 -303l-291 137l90 166h-152v311h314l98 184h-412v312h574l159 301l287 -135l-88 -166h150v-312h-312l-98 -184h410v-311h-578z" />
    <glyph glyph-name="lessequal" unicode="&#x2264;" horiz-adv-x="1363" 
d="M1204 670v-336l-1044 416v274l1044 416v-332l-561 -227zM1204 14h-1044v285h1044v-285z" />
    <glyph glyph-name="greaterequal" unicode="&#x2265;" horiz-adv-x="1363" 
d="M1204 750l-1044 -416v336l561 211l-561 227v332l1044 -416v-274zM1204 14h-1044v285h1044v-285z" />
    <glyph glyph-name="dotmath" unicode="&#x22c5;" horiz-adv-x="737" 
d="M373 328q-114 0 -194.5 76.5t-80.5 187.5q0 109 81.5 187.5t193.5 78.5q108 0 187 -79t79 -187q0 -111 -78.5 -187.5t-187.5 -76.5z" />
    <glyph glyph-name="uniFEFF" unicode="&#xfeff;" 
 />
    <glyph glyph-name="uni10D00308" horiz-adv-x="1288" 
d="M379 1188q-85 0 -146 58.5t-61 142.5q0 83 61 142.5t146 59.5q82 0 142.5 -59.5t60.5 -142.5q0 -84 -60 -142.5t-143 -58.5zM891 1188q-85 0 -146 58.5t-61 142.5q0 83 61 142.5t146 59.5q82 0 142.5 -59.5t60.5 -142.5q0 -84 -60 -142.5t-143 -58.5zM645 -29
q-259 0 -421.5 126.5t-162.5 338.5q0 88 37 193l426 -66q-10 -39 -10 -82q0 -65 32.5 -103t92.5 -38q56 0 92.5 31.5t36.5 95.5q0 35 -19 66.5t-50 58.5t-68 56.5t-74 68t-68 86t-50 118.5t-19 156h469q0 -47 34.5 -95t83.5 -95t98 -102.5t83.5 -139.5t34.5 -184
q0 -215 -163.5 -352.5t-414.5 -137.5z" />
    <glyph glyph-name="uni10D0_uni0301" horiz-adv-x="1288" 
d="M649 1196h-348l227 295h437zM645 -29q-259 0 -421.5 126.5t-162.5 338.5q0 88 37 193l426 -66q-10 -39 -10 -82q0 -65 32.5 -103t92.5 -38q56 0 92.5 31.5t36.5 95.5q0 35 -19 66.5t-50 58.5t-68 56.5t-74 68t-68 86t-50 118.5t-19 156h469q0 -47 34.5 -95t83.5 -95
t98 -102.5t83.5 -139.5t34.5 -184q0 -215 -163.5 -352.5t-414.5 -137.5z" />
    <glyph glyph-name="uni10D00304" horiz-adv-x="1288" 
d="M1001 1251h-737v197h737v-197zM645 -29q-259 0 -421.5 126.5t-162.5 338.5q0 88 37 193l426 -66q-10 -39 -10 -82q0 -65 32.5 -103t92.5 -38q56 0 92.5 31.5t36.5 95.5q0 35 -19 66.5t-50 58.5t-68 56.5t-74 68t-68 86t-50 118.5t-19 156h469q0 -47 34.5 -95t83.5 -95
t98 -102.5t83.5 -139.5t34.5 -184q0 -215 -163.5 -352.5t-414.5 -137.5z" />
    <glyph glyph-name="uni10D003040308" horiz-adv-x="1288" 
d="M379 1559q-85 0 -146 58t-61 142q0 83 61 143t146 60q82 0 142.5 -60t60.5 -143q0 -84 -60 -142t-143 -58zM891 1559q-85 0 -146 58t-61 142q0 83 61 143t146 60q82 0 142.5 -60t60.5 -143q0 -84 -60 -142t-143 -58zM1001 1251h-737v197h737v-197zM645 -29
q-259 0 -421.5 126.5t-162.5 338.5q0 88 37 193l426 -66q-10 -39 -10 -82q0 -65 32.5 -103t92.5 -38q56 0 92.5 31.5t36.5 95.5q0 35 -19 66.5t-50 58.5t-68 56.5t-74 68t-68 86t-50 118.5t-19 156h469q0 -47 34.5 -95t83.5 -95t98 -102.5t83.5 -139.5t34.5 -184
q0 -215 -163.5 -352.5t-414.5 -137.5z" />
    <glyph glyph-name="uni10D4_uni0301" horiz-adv-x="1382" 
d="M723 1196h-348l227 295h436zM670 -520q-144 0 -260.5 42.5t-190.5 115t-113.5 165.5t-39.5 197q0 123 49 227l409 -71q-20 -56 -20 -117q0 -75 43.5 -122.5t122.5 -47.5q72 0 112.5 48t40.5 122v536q0 70 -37 106t-92 36q-56 0 -92.5 -36t-36.5 -106q0 -42 15 -100
l-441 -67q-37 126 -37 204q0 154 79 267t213.5 170t305.5 57q165 0 300 -68t213.5 -195t78.5 -288v-463q0 -146 -49 -264t-134 -193t-197.5 -115t-241.5 -40z" />
    <glyph glyph-name="uni10D40304" horiz-adv-x="1382" 
d="M1075 1251h-737v197h737v-197zM670 -520q-144 0 -260.5 42.5t-190.5 115t-113.5 165.5t-39.5 197q0 123 49 227l409 -71q-20 -56 -20 -117q0 -75 43.5 -122.5t122.5 -47.5q72 0 112.5 48t40.5 122v536q0 70 -37 106t-92 36q-56 0 -92.5 -36t-36.5 -106q0 -42 15 -100
l-441 -67q-37 126 -37 204q0 154 79 267t213.5 170t305.5 57q165 0 300 -68t213.5 -195t78.5 -288v-463q0 -146 -49 -264t-134 -193t-197.5 -115t-241.5 -40z" />
    <glyph glyph-name="uni10D8_uni0301" horiz-adv-x="1355" 
d="M696 1196h-348l227 295h437zM631 55l-412 -98q-70 100 -111.5 243t-41.5 300q0 144 52.5 262t139.5 191.5t195.5 113t224.5 39.5t224.5 -39.5t195.5 -113t139.5 -191.5t52.5 -262q0 -157 -41.5 -300t-111.5 -243l-412 98q111 231 111 443q0 102 -42 156.5t-116 54.5
t-116 -54.5t-42 -156.5q0 -212 111 -443z" />
    <glyph glyph-name="uni10D80304" horiz-adv-x="1355" 
d="M1049 1251h-738v197h738v-197zM631 55l-412 -98q-70 100 -111.5 243t-41.5 300q0 144 52.5 262t139.5 191.5t195.5 113t224.5 39.5t224.5 -39.5t195.5 -113t139.5 -191.5t52.5 -262q0 -157 -41.5 -300t-111.5 -243l-412 98q111 231 111 443q0 102 -42 156.5t-116 54.5
t-116 -54.5t-42 -156.5q0 -212 111 -443z" />
    <glyph glyph-name="uni10DD0308" horiz-adv-x="1878" 
d="M684 1188q-85 0 -146 58.5t-61 142.5q0 83 61 142.5t146 59.5q82 0 142.5 -59.5t60.5 -142.5q0 -84 -60 -142.5t-143 -58.5zM1196 1188q-85 0 -146 58.5t-61 142.5q0 83 61 142.5t146 59.5q82 0 142.5 -59.5t60.5 -142.5q0 -84 -60 -142.5t-143 -58.5zM672 57l-420 -98
q-91 122 -138.5 280t-47.5 332q0 121 30.5 216.5t79 154t114 96.5t130.5 53t135 15q132 0 230.5 -58.5t150.5 -170.5h6q53 113 144 171t237 58q73 0 139 -15t131.5 -53.5t112.5 -97t76.5 -153.5t29.5 -216q0 -174 -47.5 -332t-138.5 -280l-420 98q71 121 104 254.5t33 239.5
q0 87 -25 126.5t-65 39.5q-88 0 -88 -131v-334h-452v334q0 60 -23 95.5t-63 35.5q-92 0 -92 -166q0 -103 34 -237.5t103 -256.5z" />
    <glyph glyph-name="uni10DD_uni0301" horiz-adv-x="1878" 
d="M954 1196h-348l228 295h436zM672 57l-420 -98q-91 122 -138.5 280t-47.5 332q0 121 30.5 216.5t79 154t114 96.5t130.5 53t135 15q132 0 230.5 -58.5t150.5 -170.5h6q53 113 144 171t237 58q73 0 139 -15t131.5 -53.5t112.5 -97t76.5 -153.5t29.5 -216q0 -174 -47.5 -332
t-138.5 -280l-420 98q71 121 104 254.5t33 239.5q0 87 -25 126.5t-65 39.5q-88 0 -88 -131v-334h-452v334q0 60 -23 95.5t-63 35.5q-92 0 -92 -166q0 -103 34 -237.5t103 -256.5z" />
    <glyph glyph-name="uni10DD0304" horiz-adv-x="1878" 
d="M1307 1251h-738v197h738v-197zM672 57l-420 -98q-91 122 -138.5 280t-47.5 332q0 121 30.5 216.5t79 154t114 96.5t130.5 53t135 15q132 0 230.5 -58.5t150.5 -170.5h6q53 113 144 171t237 58q73 0 139 -15t131.5 -53.5t112.5 -97t76.5 -153.5t29.5 -216
q0 -174 -47.5 -332t-138.5 -280l-420 98q71 121 104 254.5t33 239.5q0 87 -25 126.5t-65 39.5q-88 0 -88 -131v-334h-452v334q0 60 -23 95.5t-63 35.5q-92 0 -92 -166q0 -103 34 -237.5t103 -256.5z" />
    <glyph glyph-name="uni10DD03040308" horiz-adv-x="1878" 
d="M684 1559q-85 0 -146 58t-61 142q0 83 61 143t146 60q82 0 142.5 -60t60.5 -143q0 -84 -60 -142t-143 -58zM1196 1559q-85 0 -146 58t-61 142q0 83 61 143t146 60q82 0 142.5 -60t60.5 -143q0 -84 -60 -142t-143 -58zM1307 1251h-738v197h738v-197zM672 57l-420 -98
q-91 122 -138.5 280t-47.5 332q0 121 30.5 216.5t79 154t114 96.5t130.5 53t135 15q132 0 230.5 -58.5t150.5 -170.5h6q53 113 144 171t237 58q73 0 139 -15t131.5 -53.5t112.5 -97t76.5 -153.5t29.5 -216q0 -174 -47.5 -332t-138.5 -280l-420 98q71 121 104 254.5t33 239.5
q0 87 -25 126.5t-65 39.5q-88 0 -88 -131v-334h-452v334q0 60 -23 95.5t-63 35.5q-92 0 -92 -166q0 -103 34 -237.5t103 -256.5z" />
    <glyph glyph-name="uni10E30308" horiz-adv-x="1378" 
d="M401 1188q-85 0 -145.5 58.5t-60.5 142.5q0 83 60.5 142.5t145.5 59.5q82 0 142.5 -59.5t60.5 -142.5q0 -84 -60 -142.5t-143 -58.5zM913 1188q-85 0 -145.5 58.5t-60.5 142.5q0 83 60.5 142.5t145.5 59.5q82 0 142.5 -59.5t60.5 -142.5q0 -84 -60 -142.5t-143 -58.5z
M666 -520q-144 0 -260.5 42.5t-191 115t-114 165.5t-39.5 197q0 121 50 227l409 -71q-20 -56 -20 -117q0 -75 43.5 -122.5t122.5 -47.5q72 0 112.5 48t40.5 122v625q0 34 -19 55.5t-52 21.5q-32 0 -51 -21.5t-19 -55.5v-291h-438v243q0 82 -84 82h-95v387h177
q215 0 274 -147h8q40 87 130 127.5t208 40.5q194 0 312 -123.5t118 -325.5v-577q-2 -144 -52 -259t-135 -189t-196 -113t-239 -39z" />
    <glyph glyph-name="uni10E3_uni0301" horiz-adv-x="1378" 
d="M672 1196h-348l227 295h436zM666 -520q-144 0 -260.5 42.5t-191 115t-114 165.5t-39.5 197q0 121 50 227l409 -71q-20 -56 -20 -117q0 -75 43.5 -122.5t122.5 -47.5q72 0 112.5 48t40.5 122v625q0 34 -19 55.5t-52 21.5q-32 0 -51 -21.5t-19 -55.5v-291h-438v243
q0 82 -84 82h-95v387h177q215 0 274 -147h8q40 87 130 127.5t208 40.5q194 0 312 -123.5t118 -325.5v-577q-2 -144 -52 -259t-135 -189t-196 -113t-239 -39z" />
    <glyph glyph-name="uni10E30302" horiz-adv-x="1378" 
d="M516 1196h-311l280 295h346l275 -295h-315l-138 139zM666 -520q-144 0 -260.5 42.5t-191 115t-114 165.5t-39.5 197q0 121 50 227l409 -71q-20 -56 -20 -117q0 -75 43.5 -122.5t122.5 -47.5q72 0 112.5 48t40.5 122v625q0 34 -19 55.5t-52 21.5q-32 0 -51 -21.5
t-19 -55.5v-291h-438v243q0 82 -84 82h-95v387h177q215 0 274 -147h8q40 87 130 127.5t208 40.5q194 0 312 -123.5t118 -325.5v-577q-2 -144 -52 -259t-135 -189t-196 -113t-239 -39z" />
    <glyph glyph-name="uni10E30304" horiz-adv-x="1378" 
d="M1024 1251h-737v197h737v-197zM666 -520q-144 0 -260.5 42.5t-191 115t-114 165.5t-39.5 197q0 121 50 227l409 -71q-20 -56 -20 -117q0 -75 43.5 -122.5t122.5 -47.5q72 0 112.5 48t40.5 122v625q0 34 -19 55.5t-52 21.5q-32 0 -51 -21.5t-19 -55.5v-291h-438v243
q0 82 -84 82h-95v387h177q215 0 274 -147h8q40 87 130 127.5t208 40.5q194 0 312 -123.5t118 -325.5v-577q-2 -144 -52 -259t-135 -189t-196 -113t-239 -39z" />
    <glyph glyph-name="uni10E303040308" horiz-adv-x="1378" 
d="M401 1559q-85 0 -145.5 58t-60.5 142q0 83 60.5 143t145.5 60q82 0 142.5 -60t60.5 -143q0 -84 -60 -142t-143 -58zM913 1559q-85 0 -145.5 58t-60.5 142q0 83 60.5 143t145.5 60q82 0 142.5 -60t60.5 -143q0 -84 -60 -142t-143 -58zM1024 1251h-737v197h737v-197z
M666 -520q-144 0 -260.5 42.5t-191 115t-114 165.5t-39.5 197q0 121 50 227l409 -71q-20 -56 -20 -117q0 -75 43.5 -122.5t122.5 -47.5q72 0 112.5 48t40.5 122v625q0 34 -19 55.5t-52 21.5q-32 0 -51 -21.5t-19 -55.5v-291h-438v243q0 82 -84 82h-95v387h177
q215 0 274 -147h8q40 87 130 127.5t208 40.5q194 0 312 -123.5t118 -325.5v-577q-2 -144 -52 -259t-135 -189t-196 -113t-239 -39z" />
    <glyph glyph-name="uni10F7_uni0301" horiz-adv-x="1331" 
d="M682 1196h-348l227 295h436zM664 -522q-163 0 -302 67.5t-225 195t-86 288.5q0 58 10.5 111t26 94t44 80.5t53 67t65 57t67 46.5t73.5 40t70.5 33.5t69.5 29.5q41 16 65 26.5t53 25.5t44.5 27.5t26 29t10.5 34.5q0 55 -65 55q-31 0 -47.5 -17.5t-16.5 -43.5q0 -15 4 -35
l-442 -49q-12 55 -12 107q0 162 144.5 260t369.5 98q232 0 374 -108.5t142 -280.5q0 -54 -13.5 -102t-35 -85.5t-56 -73t-67.5 -60t-80 -51t-82.5 -43.5t-85.5 -38q-56 -24 -88 -39t-72 -38t-60.5 -43t-35.5 -46.5t-15 -56.5q0 -74 49.5 -118t127.5 -44t127 44t49 118
q0 54 -23 102l395 146q66 -116 66 -260q0 -105 -32.5 -195t-90.5 -155t-135.5 -110.5t-168.5 -68t-189 -22.5z" />
    <glyph glyph-name="uni10F70304" horiz-adv-x="1331" 
d="M1034 1251h-737v197h737v-197zM664 -522q-163 0 -302 67.5t-225 195t-86 288.5q0 58 10.5 111t26 94t44 80.5t53 67t65 57t67 46.5t73.5 40t70.5 33.5t69.5 29.5q41 16 65 26.5t53 25.5t44.5 27.5t26 29t10.5 34.5q0 55 -65 55q-31 0 -47.5 -17.5t-16.5 -43.5
q0 -15 4 -35l-442 -49q-12 55 -12 107q0 162 144.5 260t369.5 98q232 0 374 -108.5t142 -280.5q0 -54 -13.5 -102t-35 -85.5t-56 -73t-67.5 -60t-80 -51t-82.5 -43.5t-85.5 -38q-56 -24 -88 -39t-72 -38t-60.5 -43t-35.5 -46.5t-15 -56.5q0 -74 49.5 -118t127.5 -44t127 44
t49 118q0 54 -23 102l395 146q66 -116 66 -260q0 -105 -32.5 -195t-90.5 -155t-135.5 -110.5t-168.5 -68t-189 -22.5z" />
    <glyph glyph-name="uni10D00308.case" horiz-adv-x="1398" 
d="M410 1556q-85 0 -146 58.5t-61 142.5q0 83 61 143t146 60q82 0 142 -60t60 -143q0 -84 -59.5 -142.5t-142.5 -58.5zM922 1556q-85 0 -146 58.5t-61 142.5q0 83 61 143t146 60q82 0 142 -60t60 -143q0 -84 -59.5 -142.5t-142.5 -58.5zM688 -41q-181 0 -324 68t-224 193
t-81 286q0 173 86 328l441 -121q-39 -86 -39 -174q0 -74 37.5 -122t103.5 -48t107 43.5t41 124.5q0 65 -22 121t-57.5 100.5t-77.5 90.5t-83.5 101.5t-75 121.5t-52.5 163.5t-15 214.5h485q0 -69 21.5 -133t56 -117t76.5 -107t83.5 -113.5t76 -125t56 -153.5t21.5 -187
q0 -167 -82.5 -294t-227.5 -194t-331 -67z" />
    <glyph glyph-name="uni10D0_uni0301.case" horiz-adv-x="1398" 
d="M680 1565h-348l227 295h436zM688 -41q-181 0 -324 68t-224 193t-81 286q0 173 86 328l441 -121q-39 -86 -39 -174q0 -74 37.5 -122t103.5 -48t107 43.5t41 124.5q0 65 -22 121t-57.5 100.5t-77.5 90.5t-83.5 101.5t-75 121.5t-52.5 163.5t-15 214.5h485q0 -69 21.5 -133
t56 -117t76.5 -107t83.5 -113.5t76 -125t56 -153.5t21.5 -187q0 -167 -82.5 -294t-227.5 -194t-331 -67z" />
    <glyph glyph-name="uni10D00304.case" horiz-adv-x="1398" 
d="M1032 1620h-737v197h737v-197zM688 -41q-181 0 -324 68t-224 193t-81 286q0 173 86 328l441 -121q-39 -86 -39 -174q0 -74 37.5 -122t103.5 -48t107 43.5t41 124.5q0 65 -22 121t-57.5 100.5t-77.5 90.5t-83.5 101.5t-75 121.5t-52.5 163.5t-15 214.5h485
q0 -69 21.5 -133t56 -117t76.5 -107t83.5 -113.5t76 -125t56 -153.5t21.5 -187q0 -167 -82.5 -294t-227.5 -194t-331 -67z" />
    <glyph glyph-name="uni10D003040308.case" horiz-adv-x="1398" 
d="M410 1923q-85 0 -146 58.5t-61 142.5q0 83 61 143t146 60q82 0 142 -60t60 -143q0 -84 -59.5 -142.5t-142.5 -58.5zM922 1923q-85 0 -146 58.5t-61 142.5q0 83 61 143t146 60q82 0 142 -60t60 -143q0 -84 -59.5 -142.5t-142.5 -58.5zM1032 1620h-737v197h737v-197z
M688 -41q-181 0 -324 68t-224 193t-81 286q0 173 86 328l441 -121q-39 -86 -39 -174q0 -74 37.5 -122t103.5 -48t107 43.5t41 124.5q0 65 -22 121t-57.5 100.5t-77.5 90.5t-83.5 101.5t-75 121.5t-52.5 163.5t-15 214.5h485q0 -69 21.5 -133t56 -117t76.5 -107t83.5 -113.5
t76 -125t56 -153.5t21.5 -187q0 -167 -82.5 -294t-227.5 -194t-331 -67z" />
    <glyph glyph-name="uni10D4_uni0301.case" horiz-adv-x="1443" 
d="M725 1565h-348l227 295h436zM705 -41q-150 0 -273 42.5t-200.5 113.5t-119.5 161.5t-42 190.5q0 112 34 199l467 -41q-14 -63 -14 -103q0 -77 42 -117t110 -40q65 0 105 43.5t40 113.5v436q0 64 -37 96.5t-94 32.5t-92 -31t-35 -91q0 -37 8 -64l-481 -41q-23 94 -23 158
q0 148 81.5 256.5t221 162.5t318.5 54q174 0 314.5 -65t222 -185t81.5 -272v-418q0 -142 -50.5 -256t-138 -186.5t-201.5 -111t-244 -38.5z" />
    <glyph glyph-name="uni10D40304.case" horiz-adv-x="1443" 
d="M1077 1620h-737v197h737v-197zM705 -41q-150 0 -273 42.5t-200.5 113.5t-119.5 161.5t-42 190.5q0 112 34 199l467 -41q-14 -63 -14 -103q0 -77 42 -117t110 -40q65 0 105 43.5t40 113.5v436q0 64 -37 96.5t-94 32.5t-92 -31t-35 -91q0 -37 8 -64l-481 -41
q-23 94 -23 158q0 148 81.5 256.5t221 162.5t318.5 54q174 0 314.5 -65t222 -185t81.5 -272v-418q0 -142 -50.5 -256t-138 -186.5t-201.5 -111t-244 -38.5z" />
    <glyph glyph-name="uni10D8_uni0301.case" horiz-adv-x="1439" 
d="M735 1565h-348l227 295h437zM659 55l-440 -98q-59 160 -91 313.5t-32 331.5v291q0 142 49.5 257t135.5 188.5t198 113t240 39.5q127 0 239 -39.5t198 -113t136.5 -188.5t50.5 -257v-295q0 -177 -31.5 -329t-90.5 -312l-445 98q80 300 80 529v311q0 96 -35.5 145.5
t-99.5 49.5q-141 0 -141 -195v-311q0 -232 79 -529z" />
    <glyph glyph-name="uni10D80304.case" horiz-adv-x="1439" 
d="M1087 1620h-737v197h737v-197zM659 55l-440 -98q-59 160 -91 313.5t-32 331.5v291q0 142 49.5 257t135.5 188.5t198 113t240 39.5q127 0 239 -39.5t198 -113t136.5 -188.5t50.5 -257v-295q0 -177 -31.5 -329t-90.5 -312l-445 98q80 300 80 529v311q0 96 -35.5 145.5
t-99.5 49.5q-141 0 -141 -195v-311q0 -232 79 -529z" />
    <glyph glyph-name="uni10DD0308.case" horiz-adv-x="1992" 
d="M741 1556q-85 0 -145.5 58.5t-60.5 142.5q0 83 60.5 143t145.5 60q82 0 142.5 -60t60.5 -143q0 -84 -60 -142.5t-143 -58.5zM1253 1556q-85 0 -145.5 58.5t-60.5 142.5q0 83 60.5 143t145.5 60q82 0 142.5 -60t60.5 -143q0 -84 -60 -142.5t-143 -58.5zM721 76l-447 -119
q-178 305 -178 686v268q0 142 39 254t107.5 182.5t159 107t196.5 36.5q121 0 227.5 -46.5t165.5 -152.5h8q61 106 165 152.5t222 46.5q109 0 201 -36.5t161.5 -107t108.5 -182.5t39 -254v-268q0 -381 -178 -686l-446 119q141 267 141 569v301q0 75 -21.5 109.5t-66.5 34.5
q-86 0 -86 -144v-567h-487v567q0 144 -86 144t-86 -144v-301q0 -302 141 -569z" />
    <glyph glyph-name="uni10DD_uni0301.case" horiz-adv-x="1992" 
d="M1012 1565h-348l227 295h436zM721 76l-447 -119q-178 305 -178 686v268q0 142 39 254t107.5 182.5t159 107t196.5 36.5q121 0 227.5 -46.5t165.5 -152.5h8q61 106 165 152.5t222 46.5q109 0 201 -36.5t161.5 -107t108.5 -182.5t39 -254v-268q0 -381 -178 -686l-446 119
q141 267 141 569v301q0 75 -21.5 109.5t-66.5 34.5q-86 0 -86 -144v-567h-487v567q0 144 -86 144t-86 -144v-301q0 -302 141 -569z" />
    <glyph glyph-name="uni10DD0304.case" horiz-adv-x="1992" 
d="M1364 1620h-737v197h737v-197zM721 76l-447 -119q-178 305 -178 686v268q0 142 39 254t107.5 182.5t159 107t196.5 36.5q121 0 227.5 -46.5t165.5 -152.5h8q61 106 165 152.5t222 46.5q109 0 201 -36.5t161.5 -107t108.5 -182.5t39 -254v-268q0 -381 -178 -686l-446 119
q141 267 141 569v301q0 75 -21.5 109.5t-66.5 34.5q-86 0 -86 -144v-567h-487v567q0 144 -86 144t-86 -144v-301q0 -302 141 -569z" />
    <glyph glyph-name="uni10DD03040308.case" horiz-adv-x="1992" 
d="M741 1923q-85 0 -145.5 58.5t-60.5 142.5q0 83 60.5 143t145.5 60q82 0 142.5 -60t60.5 -143q0 -84 -60 -142.5t-143 -58.5zM1253 1923q-85 0 -145.5 58.5t-60.5 142.5q0 83 60.5 143t145.5 60q82 0 142.5 -60t60.5 -143q0 -84 -60 -142.5t-143 -58.5zM1364 1620h-737
v197h737v-197zM721 76l-447 -119q-178 305 -178 686v268q0 142 39 254t107.5 182.5t159 107t196.5 36.5q121 0 227.5 -46.5t165.5 -152.5h8q61 106 165 152.5t222 46.5q109 0 201 -36.5t161.5 -107t108.5 -182.5t39 -254v-268q0 -381 -178 -686l-446 119q141 267 141 569
v301q0 75 -21.5 109.5t-66.5 34.5q-86 0 -86 -144v-567h-487v567q0 144 -86 144t-86 -144v-301q0 -302 141 -569z" />
    <glyph glyph-name="uni10E30308.case" horiz-adv-x="1443" 
d="M420 1556q-85 0 -146 58.5t-61 142.5q0 83 61 143t146 60q82 0 142.5 -60t60.5 -143q0 -84 -60 -142.5t-143 -58.5zM932 1556q-85 0 -146 58.5t-61 142.5q0 83 61 143t146 60q82 0 142.5 -60t60.5 -143q0 -84 -60 -142.5t-143 -58.5zM705 -41q-150 0 -273 42.5
t-200.5 113.5t-119.5 161.5t-42 190.5q0 112 34 199l467 -41q-14 -63 -14 -103q0 -77 42 -117t110 -40q65 0 105 43.5t40 113.5v527q0 35 -19.5 57t-52.5 22t-51 -22t-18 -57v-205h-467v205q0 65 -60 65h-108v369h198q86 0 160.5 -37t104.5 -115h6q23 54 79 91.5t122 54
t137 16.5q117 0 206.5 -37.5t142 -102t79 -144.5t26.5 -171v-487q0 -142 -50.5 -256t-138 -186.5t-201.5 -111t-244 -38.5z" />
    <glyph glyph-name="uni10E3_uni0301.case" horiz-adv-x="1443" 
d="M690 1565h-348l227 295h437zM705 -41q-150 0 -273 42.5t-200.5 113.5t-119.5 161.5t-42 190.5q0 112 34 199l467 -41q-14 -63 -14 -103q0 -77 42 -117t110 -40q65 0 105 43.5t40 113.5v527q0 35 -19.5 57t-52.5 22t-51 -22t-18 -57v-205h-467v205q0 65 -60 65h-108v369
h198q86 0 160.5 -37t104.5 -115h6q23 54 79 91.5t122 54t137 16.5q117 0 206.5 -37.5t142 -102t79 -144.5t26.5 -171v-487q0 -142 -50.5 -256t-138 -186.5t-201.5 -111t-244 -38.5z" />
    <glyph glyph-name="uni10E30302.case" horiz-adv-x="1443" 
d="M535 1565h-312l281 295h346l274 -295h-315l-137 139zM705 -41q-150 0 -273 42.5t-200.5 113.5t-119.5 161.5t-42 190.5q0 112 34 199l467 -41q-14 -63 -14 -103q0 -77 42 -117t110 -40q65 0 105 43.5t40 113.5v527q0 35 -19.5 57t-52.5 22t-51 -22t-18 -57v-205h-467v205
q0 65 -60 65h-108v369h198q86 0 160.5 -37t104.5 -115h6q23 54 79 91.5t122 54t137 16.5q117 0 206.5 -37.5t142 -102t79 -144.5t26.5 -171v-487q0 -142 -50.5 -256t-138 -186.5t-201.5 -111t-244 -38.5z" />
    <glyph glyph-name="uni10E30304.case" horiz-adv-x="1443" 
d="M1042 1620h-737v197h737v-197zM705 -41q-150 0 -273 42.5t-200.5 113.5t-119.5 161.5t-42 190.5q0 112 34 199l467 -41q-14 -63 -14 -103q0 -77 42 -117t110 -40q65 0 105 43.5t40 113.5v527q0 35 -19.5 57t-52.5 22t-51 -22t-18 -57v-205h-467v205q0 65 -60 65h-108v369
h198q86 0 160.5 -37t104.5 -115h6q23 54 79 91.5t122 54t137 16.5q117 0 206.5 -37.5t142 -102t79 -144.5t26.5 -171v-487q0 -142 -50.5 -256t-138 -186.5t-201.5 -111t-244 -38.5z" />
    <glyph glyph-name="uni10E303040308.case" horiz-adv-x="1443" 
d="M420 1923q-85 0 -146 58.5t-61 142.5q0 83 61 143t146 60q82 0 142.5 -60t60.5 -143q0 -84 -60 -142.5t-143 -58.5zM932 1923q-85 0 -146 58.5t-61 142.5q0 83 61 143t146 60q82 0 142.5 -60t60.5 -143q0 -84 -60 -142.5t-143 -58.5zM1042 1620h-737v197h737v-197z
M705 -41q-150 0 -273 42.5t-200.5 113.5t-119.5 161.5t-42 190.5q0 112 34 199l467 -41q-14 -63 -14 -103q0 -77 42 -117t110 -40q65 0 105 43.5t40 113.5v527q0 35 -19.5 57t-52.5 22t-51 -22t-18 -57v-205h-467v205q0 65 -60 65h-108v369h198q86 0 160.5 -37t104.5 -115h6
q23 54 79 91.5t122 54t137 16.5q117 0 206.5 -37.5t142 -102t79 -144.5t26.5 -171v-487q0 -142 -50.5 -256t-138 -186.5t-201.5 -111t-244 -38.5z" />
    <glyph glyph-name="uni10F7_uni0301.case" horiz-adv-x="1431" 
d="M731 1565h-348l227 295h437zM717 -41q-133 0 -250 36t-205.5 103.5t-140 171t-51.5 230.5q0 55 12 104.5t30.5 88t50 74.5t60 61.5t73 51t76 41t81.5 34t78 27.5t75 24q131 41 161 62q23 17 24 36q0 29 -21 44t-55 15q-33 0 -53.5 -15.5t-20.5 -41.5q0 -13 2 -25
l-459 -49q-12 58 -12 101q0 159 152.5 258.5t390.5 99.5q249 0 397 -102.5t148 -282.5q0 -47 -10 -89t-23.5 -74.5t-40.5 -63.5t-49 -52t-60.5 -44t-63.5 -36.5t-70 -31t-68.5 -25.5t-69.5 -24q-45 -15 -64.5 -22.5t-55 -21.5t-52 -25t-36 -27t-27 -34.5t-7.5 -39.5
q0 -61 42 -96t112 -35q72 0 114.5 40t42.5 117q0 40 -14 103l467 41q35 -89 35 -199q0 -92 -34 -173.5t-94.5 -142t-141.5 -104t-177 -66t-198 -22.5z" />
    <glyph glyph-name="uni10F70304.case" horiz-adv-x="1431" 
d="M1083 1620h-737v197h737v-197zM717 -41q-133 0 -250 36t-205.5 103.5t-140 171t-51.5 230.5q0 55 12 104.5t30.5 88t50 74.5t60 61.5t73 51t76 41t81.5 34t78 27.5t75 24q131 41 161 62q23 17 24 36q0 29 -21 44t-55 15q-33 0 -53.5 -15.5t-20.5 -41.5q0 -13 2 -25
l-459 -49q-12 58 -12 101q0 159 152.5 258.5t390.5 99.5q249 0 397 -102.5t148 -282.5q0 -47 -10 -89t-23.5 -74.5t-40.5 -63.5t-49 -52t-60.5 -44t-63.5 -36.5t-70 -31t-68.5 -25.5t-69.5 -24q-45 -15 -64.5 -22.5t-55 -21.5t-52 -25t-36 -27t-27 -34.5t-7.5 -39.5
q0 -61 42 -96t112 -35q72 0 114.5 40t42.5 117q0 40 -14 103l467 41q35 -89 35 -199q0 -92 -34 -173.5t-94.5 -142t-141.5 -104t-177 -66t-198 -22.5z" />
    <glyph glyph-name="uni10FC.case" horiz-adv-x="950" 
d="M498 510q-173 0 -284.5 95t-111.5 269v271q0 142 90.5 223.5t256.5 81.5h382v-244h-337q-29 0 -51.5 -16t-22.5 -43v-39h2q56 49 156 49q138 0 219.5 -86.5t81.5 -222.5q0 -144 -101 -241t-280 -97zM494 770q42 0 65 19t23 49q0 31 -23 50t-65 19q-40 0 -64 -19t-24 -50
q0 -29 25 -48.5t63 -19.5z" />
    <glyph glyph-name="zero.dnom" horiz-adv-x="921" 
d="M461 -23q-97 0 -171.5 31.5t-118.5 80t-72 115.5t-38 129.5t-10 129.5q0 68 10 129.5t38 126.5t72 112t118.5 77t171.5 30t171.5 -30t118 -77t71.5 -112t38 -126.5t10 -129.5q0 -67 -10 -129.5t-38 -129.5t-71.5 -115.5t-118 -80t-171.5 -31.5zM461 242q36 0 58 36t29 82
t7 103q0 55 -7 99t-29 79t-58 35t-58 -35t-29 -79t-7 -99q0 -57 7 -103t29 -82t58 -36z" />
    <glyph glyph-name="one.dnom" horiz-adv-x="921" 
d="M715 0h-309v590l-154 -107l-146 226l324 204h285v-913z" />
    <glyph glyph-name="two.dnom" horiz-adv-x="921" 
d="M850 0h-741v240l372 301q39 35 39 67q0 27 -16 44.5t-49 17.5q-37 0 -62 -29.5t-28 -79.5l-293 33q8 87 45.5 154.5t94 108t124.5 61t143 20.5q71 0 134.5 -16.5t117 -50.5t85.5 -93.5t32 -136.5q0 -54 -13.5 -98t-42 -79t-55 -58.5t-67.5 -53.5l-135 -94h315v-258z" />
    <glyph glyph-name="three.dnom" horiz-adv-x="921" 
d="M483 -23q-70 0 -134 16.5t-119.5 49t-96 88t-57.5 127.5l278 68q8 -38 37 -65.5t72 -27.5q35 0 58.5 15t23.5 47q0 39 -32.5 53t-96.5 14h-86v211h96q54 0 79 14.5t25 49.5q0 23 -18 39t-53 16q-31 0 -57.5 -22.5t-32.5 -59.5l-275 64q21 72 63 125t97.5 82t113.5 43
t121 14q62 0 121 -14.5t111 -44t83.5 -80.5t31.5 -117q0 -80 -31 -126t-90 -75v-2q67 -22 102 -77.5t35 -125.5q0 -77 -32 -136t-86 -93.5t-117.5 -52t-133.5 -17.5z" />
    <glyph glyph-name="four.dnom" horiz-adv-x="921" 
d="M770 0h-278v162h-441v250l346 501h373v-512h123v-239h-123v-162zM492 633l-154 -232h158v232h-4z" />
    <glyph glyph-name="five.dnom" horiz-adv-x="921" 
d="M473 -23q-145 0 -257 74t-140 203l276 70q8 -38 37.5 -65.5t69.5 -27.5q36 0 60 17t24 53q0 84 -148 84q-111 0 -252 -29l31 557h623v-258h-361l-6 -61q37 6 72 6q150 0 249 -75.5t99 -217.5q0 -91 -33.5 -158t-90 -103t-119.5 -52.5t-134 -16.5z" />
    <glyph glyph-name="six.dnom" horiz-adv-x="921" 
d="M461 -23q-82 0 -153 21.5t-126.5 63t-88 109t-32.5 153.5q0 145 113 301l209 288h375l-228 -280l2 -2h17q81 0 150.5 -34.5t115 -105.5t45.5 -165q0 -164 -115 -256.5t-284 -92.5zM461 231q42 0 69 27.5t27 67.5q0 39 -27 64.5t-69 25.5q-41 0 -66.5 -25.5t-25.5 -64.5
q0 -40 25.5 -67.5t66.5 -27.5z" />
    <glyph glyph-name="seven.dnom" horiz-adv-x="921" 
d="M516 0h-358l346 655h-391v258h729v-219z" />
    <glyph glyph-name="eight.dnom" horiz-adv-x="921" 
d="M461 -23q-74 0 -139.5 16t-120.5 48.5t-87 90t-32 132.5q0 72 41 127.5t110 83.5v2q-60 23 -98.5 74t-38.5 119q0 70 30.5 123t83.5 84t116 46t135 15q70 0 133 -15t116 -46t84 -84t31 -123q0 -69 -37 -119.5t-100 -71.5v-2q67 -26 109.5 -82.5t42.5 -130.5
q0 -75 -32.5 -132t-87 -90t-120 -49t-139.5 -16zM461 573q34 0 55 21.5t21 50.5q0 26 -21 47t-55 21t-55 -21t-21 -47q0 -29 21 -50.5t55 -21.5zM461 207q38 0 60 22.5t22 53.5t-22 54t-60 23t-60 -23t-22 -54t22 -53.5t60 -22.5z" />
    <glyph glyph-name="nine.dnom" horiz-adv-x="921" 
d="M539 0h-375l223 276l-2 7h-12q-81 0 -151 35t-115.5 106.5t-45.5 165.5q0 164 115.5 256t284.5 92q82 0 152.5 -21.5t126.5 -62.5t88 -108.5t32 -153.5q0 -144 -112 -303zM461 500q40 0 66 27.5t26 66.5t-25.5 65.5t-66.5 26.5q-42 0 -69 -26.5t-27 -65.5t27 -66.5
t69 -27.5z" />
    <glyph glyph-name="zero.numr" horiz-adv-x="921" 
d="M461 514q-97 0 -171.5 31.5t-118.5 80t-72 115t-38 129t-10 129.5q0 47 5 91.5t17.5 93t32.5 90t52.5 79t74 64.5t100 42.5t128.5 15.5t128.5 -15.5t100 -42t73.5 -64.5t52 -79.5t32.5 -90t17.5 -93t5 -91.5q0 -67 -10 -129.5t-38 -129t-71.5 -115t-118 -80t-171.5 -31.5
zM461 778q36 0 58 36t29 82t7 103q0 55 -7 99t-29 79t-58 35t-58 -35t-29 -79t-7 -99q0 -57 7 -103t29 -82t58 -36z" />
    <glyph glyph-name="one.numr" horiz-adv-x="921" 
d="M715 537h-309v589l-154 -106l-146 225l324 205h285v-913z" />
    <glyph glyph-name="two.numr" horiz-adv-x="921" 
d="M850 537h-741v239l372 301q39 35 39 68q0 27 -16 44t-49 17q-37 0 -62 -29t-28 -79l-293 32q11 115 72.5 195t147 115t187.5 35q71 0 134.5 -16.5t117 -50.5t85.5 -93.5t32 -136.5q0 -54 -13.5 -98t-42 -79t-55 -58.5t-67.5 -53.5l-135 -94h315v-258z" />
    <glyph glyph-name="three.numr" horiz-adv-x="921" 
d="M483 477q-70 0 -134 16.5t-119.5 49t-96 88t-57.5 127.5l278 67q8 -38 37 -65t72 -27q35 0 58.5 15t23.5 47q0 39 -32.5 53t-96.5 14h-86v211h96q54 0 79 14.5t25 49.5q0 23 -18 39t-53 16q-31 0 -57.5 -22.5t-32.5 -59.5l-275 64q21 72 63 125t97.5 82t113.5 43t121 14
q62 0 121 -14.5t111 -44t83.5 -80.5t31.5 -117q0 -80 -31 -126t-90 -75v-2q67 -22 102 -77.5t35 -125.5q0 -77 -32 -136t-86 -93.5t-117.5 -52t-133.5 -17.5z" />
    <glyph glyph-name="four.numr" horiz-adv-x="921" 
d="M770 537h-278v161h-441v250l346 502h373v-512h123v-240h-123v-161zM492 1169l-154 -231h158v231h-4z" />
    <glyph glyph-name="five.numr" horiz-adv-x="921" 
d="M473 514q-145 0 -257 74t-140 203l276 69q8 -38 37.5 -65t69.5 -27q36 0 60 17t24 53q0 84 -148 84q-111 0 -252 -29l31 557h623v-258h-361l-6 -62q44 7 72 7q150 0 249 -75.5t99 -217.5q0 -91 -33.5 -158t-90 -103t-119.5 -52.5t-134 -16.5z" />
    <glyph glyph-name="six.numr" horiz-adv-x="921" 
d="M461 514q-82 0 -153 21.5t-126.5 62.5t-88 108.5t-32.5 153.5q0 145 113 301l209 289h375l-228 -281l2 -2h17q81 0 150.5 -34.5t115 -105.5t45.5 -165q0 -164 -115 -256t-284 -92zM461 768q42 0 69 27t27 67q0 39 -27 64.5t-69 25.5q-41 0 -66.5 -25.5t-25.5 -64.5
q0 -40 25.5 -67t66.5 -27z" />
    <glyph glyph-name="seven.numr" horiz-adv-x="921" 
d="M516 537h-358l346 655h-391v258h729v-219z" />
    <glyph glyph-name="eight.numr" horiz-adv-x="921" 
d="M461 514q-74 0 -139.5 16t-120.5 48.5t-87 90t-32 132.5q0 72 41 127.5t110 83.5v2q-60 23 -98.5 73.5t-38.5 118.5q0 70 30.5 123t83.5 84t116 46.5t135 15.5q70 0 133 -15.5t116 -46.5t84 -84t31 -123q0 -69 -37 -119t-100 -71v-2q67 -26 109.5 -82.5t42.5 -130.5
q0 -75 -32.5 -132t-87 -90t-120 -49t-139.5 -16zM461 1110q34 0 55 21.5t21 50.5q0 26 -21 46.5t-55 20.5t-55 -20.5t-21 -46.5q0 -29 21 -50.5t55 -21.5zM461 743q38 0 60 22.5t22 53.5t-22 54.5t-60 23.5t-60 -23.5t-22 -54.5t22 -53.5t60 -22.5z" />
    <glyph glyph-name="nine.numr" horiz-adv-x="921" 
d="M539 537h-375l223 276l-2 6h-12q-81 0 -151 35t-115.5 106.5t-45.5 165.5q0 164 115.5 256.5t284.5 92.5q81 0 152 -21.5t127 -63t88 -109t32 -153.5q0 -144 -112 -303zM461 1036q40 0 66 27.5t26 66.5t-26 66t-66 27q-42 0 -69 -27t-27 -66t27 -66.5t69 -27.5z" />
    <glyph glyph-name="uni0308_uni0300" 
d="M182 1608h-346l-260 225h434zM-252 1167q-85 0 -146 58.5t-61 142.5q0 83 61 143t146 60q82 0 142.5 -60t60.5 -143q0 -84 -60 -142.5t-143 -58.5zM258 1167q-85 0 -146 58.5t-61 142.5q0 83 61 143t146 60q82 0 142.5 -60t60.5 -143q0 -84 -60 -142.5t-143 -58.5z" />
    <glyph glyph-name="uni0308_uni0301" 
d="M164 1608h-348l172 225h436zM-254 1167q-85 0 -146 58.5t-61 142.5q0 83 61 143t146 60q82 0 142.5 -60t60.5 -143q0 -84 -60 -142.5t-143 -58.5zM258 1167q-85 0 -146 58.5t-61 142.5q0 83 61 143t146 60q82 0 142.5 -60t60.5 -143q0 -84 -60 -142.5t-143 -58.5z" />
    <glyph glyph-name="uni0308030C" 
d="M156 1608h-306l-280 225h291l137 -96l137 96h295zM-252 1167q-85 0 -146 58.5t-61 142.5q0 83 61 143t146 60q82 0 142.5 -60t60.5 -143q0 -84 -60 -142.5t-143 -58.5zM258 1167q-85 0 -146 58.5t-61 142.5q0 83 61 143t146 60q82 0 142.5 -60t60.5 -143
q0 -84 -60 -142.5t-143 -58.5z" />
    <glyph glyph-name="uni03080304" 
d="M369 1620h-738v197h738v-197zM-254 1167q-85 0 -146 58.5t-61 142.5q0 83 61 143t146 60q82 0 142.5 -60t60.5 -143q0 -84 -60 -142.5t-143 -58.5zM256 1167q-85 0 -146 58.5t-61 142.5q0 83 61 143t146 60q82 0 142.5 -60t60.5 -143q0 -84 -60 -142.5t-143 -58.5z" />
    <glyph glyph-name="uni030C.alt" 
d="M80 1087h-338l127 363h389z" />
    <glyph glyph-name="uni0308.case" 
d="M-254 1556q-85 0 -146 58.5t-61 142.5q0 83 61 143t146 60q82 0 142.5 -60t60.5 -143q0 -84 -60 -142.5t-143 -58.5zM258 1556q-85 0 -146 58.5t-61 142.5q0 83 61 143t146 60q82 0 142.5 -60t60.5 -143q0 -84 -60 -142.5t-143 -58.5z" />
    <glyph glyph-name="uni0308_uni0300.case" 
d="M182 1976h-346l-260 226h434zM-252 1536q-85 0 -146 58.5t-61 142.5q0 83 61 142.5t146 59.5q82 0 142.5 -59.5t60.5 -142.5q0 -84 -60 -142.5t-143 -58.5zM258 1536q-85 0 -146 58.5t-61 142.5q0 83 61 142.5t146 59.5q82 0 142.5 -59.5t60.5 -142.5q0 -84 -60 -142.5
t-143 -58.5z" />
    <glyph glyph-name="uni0308_uni0301.case" 
d="M164 1976h-346l172 226h434zM-252 1536q-85 0 -146 58.5t-61 142.5q0 83 61 142.5t146 59.5q82 0 142.5 -59.5t60.5 -142.5q0 -84 -60 -142.5t-143 -58.5zM258 1536q-85 0 -146 58.5t-61 142.5q0 83 61 142.5t146 59.5q82 0 142.5 -59.5t60.5 -142.5q0 -84 -60 -142.5
t-143 -58.5z" />
    <glyph glyph-name="uni0308030C.case" 
d="M156 1976h-306l-280 226h291l137 -97l137 97h295zM-252 1536q-85 0 -146 58.5t-61 142.5q0 83 61 142.5t146 59.5q82 0 142.5 -59.5t60.5 -142.5q0 -84 -60 -142.5t-143 -58.5zM258 1536q-85 0 -146 58.5t-61 142.5q0 83 61 142.5t146 59.5q82 0 142.5 -59.5t60.5 -142.5
q0 -84 -60 -142.5t-143 -58.5z" />
    <glyph glyph-name="uni03080304.case" 
d="M369 1989h-738v196h738v-196zM-252 1536q-85 0 -146 58.5t-61 142.5q0 83 61 142.5t146 59.5q82 0 142.5 -59.5t60.5 -142.5q0 -84 -60 -142.5t-143 -58.5zM258 1536q-85 0 -146 58.5t-61 142.5q0 83 61 142.5t146 59.5q82 0 142.5 -59.5t60.5 -142.5q0 -84 -60 -142.5
t-143 -58.5z" />
    <glyph glyph-name="uni0307.case" 
d="M4 1542q-94 0 -159.5 62.5t-65.5 152.5t66 153.5t159 63.5q88 0 152.5 -64t64.5 -153q0 -90 -64 -152.5t-153 -62.5z" />
    <glyph glyph-name="gravecomb.case" 
d="M332 1565h-348l-316 295h436z" />
    <glyph glyph-name="acutecomb.case" 
d="M16 1565h-348l228 295h436z" />
    <glyph glyph-name="uni030B.case" 
d="M-233 1565h-347l228 295h434zM264 1565h-346l227 295h435z" />
    <glyph glyph-name="uni0302.case" 
d="M-139 1565h-312l281 295h346l275 -295h-316l-137 139z" />
    <glyph glyph-name="uni030C.case" 
d="M176 1565h-346l-281 295h312l137 -140l137 140h316z" />
    <glyph glyph-name="uni0306.case" 
d="M0 1565q-56 0 -105.5 8.5t-96.5 29.5t-81.5 53.5t-57.5 84.5t-28 119h226q7 -80 143 -80t143 80h226q-6 -83 -38.5 -143t-85.5 -92t-113 -46t-132 -14z" />
    <glyph glyph-name="uni030A.case" 
d="M0 1522q-97 0 -166.5 67.5t-69.5 165.5q0 99 70 166.5t166 67.5t166 -67.5t70 -166.5q0 -98 -69.5 -165.5t-166.5 -67.5zM0 1634q51 0 87 35t36 86t-36 86t-87 35t-87 -35t-36 -86t36 -86t87 -35z" />
    <glyph glyph-name="tildecomb.case" 
d="M-221 1577h-164q6 122 67.5 200t163.5 78q76 0 172 -49q50 -26 76.5 -35.5t57.5 -9.5t47 19.5t24 62.5h162q-6 -125 -68 -204.5t-165 -79.5q-79 0 -168 47q-52 28 -76 36.5t-53 8.5q-31 0 -50.5 -20.5t-25.5 -53.5z" />
    <glyph glyph-name="uni0304.case" 
d="M369 1620h-738v197h738v-197z" />
    <glyph glyph-name="hookabovecomb.case" 
d="M141 1546h-237q0 52 20.5 87.5t73.5 66.5q63 39 63 86q0 27 -15 43t-40 16q-35 0 -53 -25t-21 -83l-258 28q13 131 100.5 198t235.5 67t231 -66.5t83 -161.5q0 -65 -29 -105.5t-96 -70.5q-58 -25 -58 -80z" />
    </font>
</defs>
</svg>
