<?xml version="1.0" standalone="no"?>
<!DOCTYPE svg PUBLIC "-//W3C//DTD SVG 1.1//EN" "http://www.w3.org/Graphics/SVG/1.1/DTD/svg11.dtd" >
<svg xmlns="http://www.w3.org/2000/svg" xmlns:xlink="http://www.w3.org/1999/xlink" version="1.1">
<metadata>
Created by FontForge 20170731 at Mon Nov 21 14:45:01 2022
 By Aleksey,,,
Copyright (c) 1988-2020 Monotype GmbH. All rights reserved.
</metadata>
<defs>
<font id="AvenirNextGeorgian-Regular" horiz-adv-x="0" >
  <font-face 
    font-family="Avenir Next Georgian"
    font-weight="400"
    font-stretch="normal"
    units-per-em="2048"
    panose-1="2 11 5 3 2 2 2 2 2 4"
    ascent="1552"
    descent="-496"
    x-height="961"
    cap-height="1450"
    bbox="-420 -543 2183 2361"
    underline-thickness="102"
    underline-position="-307"
    unicode-range="U+000D-FEFF"
  />
<missing-glyph horiz-adv-x="1048" 
d="M1049 0h-1049v1470h1049v-1470zM102 1366v-1264h844v1264h-844zM555 479h-94q-4 24 -4 35q0 115 26 166q33 64 95 121q64 59 83 93.5t19 76.5q0 73 -46 123.5t-110 50.5q-67 0 -112 -47.5t-56 -147.5l-102 17q13 141 87 210.5t189 69.5q110 0 182 -74t72 -194
q0 -70 -26.5 -123.5t-102.5 -122.5q-77 -68 -88 -106q-12 -41 -12 -148zM569 240h-114v137h114v-137z" />
    <glyph glyph-name="fi" unicode="fi" horiz-adv-x="1114" 
d="M365 0h-140v844h-200v117h200v260q0 166 82.5 259t243.5 93q66 0 115 -14l-25 -123q-51 14 -96 14q-54 0 -91 -18t-55.5 -53.5t-26 -76.5t-7.5 -98v-243h225v-117h-225v-844zM858 1229q-38 0 -68 28.5t-30 69.5t30 69.5t68 28.5t68 -28.5t30 -69.5t-30 -69.5t-68 -28.5z
M928 0h-140v961h140v-961z" />
    <glyph glyph-name="fl" unicode="fl" horiz-adv-x="1114" 
d="M365 0h-140v844h-200v117h200v260q0 166 82.5 259t243.5 93q66 0 115 -14l-25 -123q-51 14 -96 14q-54 0 -91 -18t-55.5 -53.5t-26 -76.5t-7.5 -98v-243h225v-117h-225v-844zM926 0h-140v1548h140v-1548z" />
    <glyph glyph-name=".notdef" horiz-adv-x="1048" 
d="M1049 0h-1049v1470h1049v-1470zM102 1366v-1264h844v1264h-844zM555 479h-94q-4 24 -4 35q0 115 26 166q33 64 95 121q64 59 83 93.5t19 76.5q0 73 -46 123.5t-110 50.5q-67 0 -112 -47.5t-56 -147.5l-102 17q13 141 87 210.5t189 69.5q110 0 182 -74t72 -194
q0 -70 -26.5 -123.5t-102.5 -122.5q-77 -68 -88 -106q-12 -41 -12 -148zM569 240h-114v137h114v-137z" />
    <glyph glyph-name=".null" 
 />
    <glyph glyph-name="nonmarkingreturn" horiz-adv-x="682" 
 />
    <glyph glyph-name="NULL" 
 />
    <glyph glyph-name="NULL" 
 />
    <glyph glyph-name="CR" unicode="&#xd;" horiz-adv-x="512" 
 />
    <glyph glyph-name="space" unicode=" " horiz-adv-x="512" 
 />
    <glyph glyph-name="exclam" unicode="!" horiz-adv-x="671" 
d="M410 393h-148v1057h148v-1057zM336 -12q-48 0 -79.5 33t-31.5 77t31.5 77.5t79.5 33.5t79 -33.5t31 -77.5t-31 -77t-79 -33z" />
    <glyph glyph-name="quotedbl" unicode="&#x22;" horiz-adv-x="829" 
d="M328 969h-123v481h123v-481zM625 969h-123v481h123v-481z" />
    <glyph glyph-name="quotedbl" unicode="&#x2033;" horiz-adv-x="829" 
d="M328 969h-123v481h123v-481zM625 969h-123v481h123v-481z" />
    <glyph glyph-name="numbersign" unicode="#" horiz-adv-x="1138" 
d="M344 0h-125l62 438h-209v123h225l45 332h-221v123h239l60 434h125l-60 -434h273l59 434h125l-59 -434h184v-123h-203l-45 -332h195v-123h-211l-62 -438h-125l62 438h-272zM467 893l-45 -332h272l45 332h-272z" />
    <glyph glyph-name="dollar" unicode="$" horiz-adv-x="1191" 
d="M616 -170h-81v147q-281 15 -441 195l109 92q117 -151 332 -166v584q-212 66 -307 155.5t-95 247.5q0 165 115.5 269.5t286.5 118.5v145h81v-145q265 -10 400 -154l-101 -94q-99 119 -299 131v-559q62 -20 108.5 -38t98 -44.5t88 -58t67.5 -72t46.5 -93t15.5 -114.5
q0 -122 -58.5 -213t-153 -137.5t-212.5 -51.5v-145zM535 823v533q-111 -8 -187 -78.5t-76 -183.5q0 -101 62 -162.5t201 -108.5zM616 657v-563q121 8 202 81t81 202q0 104 -70 168.5t-213 111.5z" />
    <glyph glyph-name="percent" unicode="%" horiz-adv-x="1705" 
d="M1366 1458l-922 -1521l-106 55l924 1521zM438 758q-152 0 -256 103.5t-104 254.5t104 255t256 104t256.5 -104t104.5 -255t-104.5 -254.5t-256.5 -103.5zM438 881q98 0 168 67.5t70 167.5t-70 168t-168 68t-167.5 -68t-69.5 -168t69.5 -167.5t167.5 -67.5zM1268 -25
q-152 0 -256.5 104t-104.5 255t104.5 254.5t256.5 103.5t256 -103.5t104 -254.5t-104 -255t-256 -104zM1268 98q98 0 167.5 68t69.5 168t-69.5 167.5t-167.5 67.5t-168 -67.5t-70 -167.5t70 -168t168 -68z" />
    <glyph glyph-name="ampersand" unicode="&#x26;" horiz-adv-x="1441" 
d="M553 -25q-194 0 -323.5 107t-129.5 295q0 154 89.5 257.5t246.5 172.5q-176 180 -176 338t103 250t258 92q150 0 250 -87.5t100 -238.5q0 -55 -19 -105t-48.5 -88t-74.5 -74t-87.5 -61.5t-96.5 -52.5l338 -348l201 352h166l-267 -448l326 -336h-205l-205 215
q-91 -125 -195.5 -182.5t-250.5 -57.5zM561 868q44 20 78 39t71 46.5t61 56.5t40 68.5t16 82.5q0 89 -58 147t-146 58q-96 0 -158 -61.5t-62 -161.5q0 -70 53 -151t105 -124zM555 98q115 0 194.5 51.5t151.5 161.5l-383 402q-134 -60 -200 -141.5t-66 -196.5q0 -121 88 -199
t215 -78z" />
    <glyph glyph-name="quotesingle" unicode="'" horiz-adv-x="532" 
d="M328 969h-123v481h123v-481z" />
    <glyph glyph-name="quotesingle" unicode="&#x2032;" horiz-adv-x="532" 
d="M328 969h-123v481h123v-481z" />
    <glyph glyph-name="parenleft" unicode="(" horiz-adv-x="614" 
d="M471 -258l-106 -68q-135 178 -217 419.5t-82 496.5t82 496t217 419l106 -67q-122 -171 -196 -394.5t-74 -453.5t74 -453.5t196 -394.5z" />
    <glyph glyph-name="parenright" unicode=")" horiz-adv-x="614" 
d="M250 -326l-107 68q122 172 196.5 395.5t74.5 452.5t-74.5 452.5t-196.5 395.5l107 67q135 -178 217 -419t82 -496t-82 -496.5t-217 -419.5z" />
    <glyph glyph-name="asterisk" unicode="*" horiz-adv-x="909" 
d="M455 975l-189 -254l-98 74l184 247l-289 93l43 114l287 -92v293h123v-293l287 92l43 -114l-289 -93l184 -247l-98 -74z" />
    <glyph glyph-name="plus" unicode="+" horiz-adv-x="1363" 
d="M743 98h-122v461h-461v123h461v461h122v-461h461v-123h-461v-461z" />
    <glyph glyph-name="comma" unicode="," horiz-adv-x="532" 
d="M209 -287h-117l137 482h146z" />
    <glyph glyph-name="hyphen" unicode="-" horiz-adv-x="655" 
d="M557 438h-459v117h459v-117z" />
    <glyph glyph-name="period" unicode="." horiz-adv-x="532" 
d="M266 -12q-48 0 -79 33t-31 77t31 77.5t79 33.5t79.5 -33.5t31.5 -77.5t-31.5 -77t-79.5 -33z" />
    <glyph glyph-name="slash" unicode="/" horiz-adv-x="757" 
d="M748 1446l-619 -1483l-119 39l621 1485z" />
    <glyph glyph-name="zero" unicode="0" horiz-adv-x="1187" 
d="M594 -37q-106 0 -189 43.5t-136 115t-87.5 171.5t-48.5 205.5t-14 224.5t14 225t48.5 206.5t87 172.5t136 116t189.5 44q104 0 187 -43.5t136 -116t88 -173t49.5 -207t14.5 -224.5t-14.5 -224t-49.5 -206t-88 -171.5t-136 -115t-187 -43.5zM594 90q73 0 131 38.5
t94 100.5t59.5 147t32.5 170t9 177t-9 178t-32.5 171.5t-59.5 148.5t-94 102t-131 39q-62 0 -113.5 -27t-86 -75t-60 -108.5t-39.5 -134.5t-20.5 -146t-6.5 -148q0 -93 9 -177.5t32 -169.5t58.5 -147t94 -100.5t132.5 -38.5z" />
    <glyph glyph-name="one" unicode="1" horiz-adv-x="1187" 
d="M733 0h-147v1268l-262 -224l-91 103l369 303h131v-1450z" />
    <glyph glyph-name="two" unicode="2" horiz-adv-x="1187" 
d="M1032 0h-928v154l594 600q80 82 127 161.5t47 169.5q0 123 -83 200t-203 77q-115 0 -195 -71.5t-104 -186.5l-146 29q31 155 154 254.5t291 99.5q119 0 216.5 -44t158.5 -136.5t61 -219.5q0 -67 -17.5 -127t-54 -116t-72.5 -97.5t-92 -97.5l-522 -518h768v-131z" />
    <glyph glyph-name="three" unicode="3" horiz-adv-x="1187" 
d="M559 -37q-158 0 -278 77.5t-181 219.5l140 51q37 -102 122.5 -161.5t196.5 -59.5q84 0 156.5 36.5t118 108.5t45.5 166q0 79 -31.5 138t-86.5 92t-119.5 49t-139.5 16h-64v127h64q97 0 170.5 25.5t120.5 87t47 154.5q0 119 -83.5 195.5t-203.5 76.5q-91 0 -162.5 -43.5
t-114.5 -126.5l-124 65q133 230 409 230q116 0 210.5 -43.5t154 -133.5t59.5 -212q0 -124 -70.5 -213t-181.5 -119v-4q129 -27 211 -123t82 -238q0 -134 -64.5 -235t-170 -152t-232.5 -51z" />
    <glyph glyph-name="four" unicode="4" horiz-adv-x="1187" 
d="M893 0h-143v350h-664v144l614 956h193v-971h213v-129h-213v-350zM745 1284l-505 -805h510v805h-5z" />
    <glyph glyph-name="five" unicode="5" horiz-adv-x="1187" 
d="M549 -37q-152 0 -262 70t-172 194l133 60q38 -89 118 -143t175 -54q147 0 243.5 98t96.5 246q0 159 -101.5 253.5t-259.5 94.5q-151 0 -301 -80l14 748h740v-131h-604l-11 -449q88 33 201 33q205 0 338 -126.5t133 -327.5q0 -212 -133.5 -349t-347.5 -137z" />
    <glyph glyph-name="six" unicode="6" horiz-adv-x="1187" 
d="M594 -37q-205 0 -338 128t-133 329q0 180 131 393l395 637h170l-407 -633l4 -4q31 24 90 38.5t117 14.5q191 0 316.5 -125t125.5 -321q0 -201 -133 -329t-338 -128zM594 88q141 0 232.5 95t91.5 237t-88.5 235t-235.5 93t-235.5 -93t-88.5 -235t91.5 -237t232.5 -95z" />
    <glyph glyph-name="seven" unicode="7" horiz-adv-x="1187" 
d="M436 0h-166l600 1319h-710v131h860v-135z" />
    <glyph glyph-name="eight" unicode="8" horiz-adv-x="1187" 
d="M594 -37q-93 0 -177.5 30t-148 83.5t-101.5 132.5t-38 172q0 143 76 247t198 140v4q-97 32 -158 123.5t-61 204.5q0 172 119.5 279.5t290.5 107.5t290.5 -107.5t119.5 -279.5q0 -112 -61.5 -204t-158.5 -124v-4q121 -35 198 -139.5t77 -247.5q0 -93 -38 -172
t-101.5 -132.5t-148 -83.5t-177.5 -30zM594 831q112 0 189 74t77 187q0 117 -76 193.5t-190 76.5t-190 -76.5t-76 -193.5q0 -113 77 -187t189 -74zM594 88q141 0 229 87.5t88 221.5q0 132 -88 217.5t-229 85.5t-229.5 -85.5t-88.5 -217.5q0 -134 88.5 -221.5t229.5 -87.5z
" />
    <glyph glyph-name="nine" unicode="9" horiz-adv-x="1187" 
d="M543 0h-170l407 633l-4 4q-31 -24 -90 -38.5t-117 -14.5q-191 0 -316.5 125t-125.5 321q0 201 133 329t338 128t338 -128t133 -329q0 -180 -131 -393zM598 702q147 0 235.5 93t88.5 235t-91.5 237t-232.5 95t-232.5 -95t-91.5 -237t88.5 -235t235.5 -93z" />
    <glyph glyph-name="colon" unicode=":" horiz-adv-x="614" 
d="M307 750q-48 0 -79 33t-31 77t31 77.5t79 33.5t79.5 -33.5t31.5 -77.5t-31.5 -77t-79.5 -33zM307 -12q-48 0 -79 33t-31 77t31 77.5t79 33.5t79.5 -33.5t31.5 -77.5t-31.5 -77t-79.5 -33z" />
    <glyph glyph-name="semicolon" unicode=";" horiz-adv-x="614" 
d="M307 750q-48 0 -79 33t-31 77t31 77.5t79 33.5t79.5 -33.5t31.5 -77.5t-31.5 -77t-79.5 -33zM242 -287h-123l137 482h152z" />
    <glyph glyph-name="less" unicode="&#x3c;" horiz-adv-x="1363" 
d="M1204 209v-123l-1044 487v95l1044 487v-123l-878 -411z" />
    <glyph glyph-name="equal" unicode="=" horiz-adv-x="1363" 
d="M1204 713h-1044v123h1044v-123zM1204 406h-1044v122h1044v-122z" />
    <glyph glyph-name="greater" unicode="&#x3e;" horiz-adv-x="1363" 
d="M1204 573l-1044 -487v123l878 412l-878 411v123l1044 -487v-95z" />
    <glyph glyph-name="question" unicode="?" horiz-adv-x="987" 
d="M561 393h-143v123q0 56 12.5 102.5t39 85t50.5 64t62 59.5l57 52q119 96 119 227q0 112 -73 177t-183 65q-107 0 -178 -66.5t-86 -173.5l-140 25q31 158 141.5 250t268.5 92q171 0 284 -96.5t113 -264.5q0 -63 -13 -113t-43.5 -91.5t-57 -67.5t-74.5 -66
q-49 -40 -74 -64.5t-46 -58t-28.5 -72t-7.5 -94.5v-94zM504 -12q-48 0 -79.5 33t-31.5 77t31.5 77.5t79.5 33.5t79 -33.5t31 -77.5t-31 -77t-79 -33z" />
    <glyph glyph-name="at" unicode="@" horiz-adv-x="1638" 
d="M854 -37q-231 0 -409.5 97t-275.5 270t-97 393q0 160 62 302.5t167 243.5t249 159.5t304 58.5q113 0 218.5 -25.5t198 -79.5t161 -130.5t108 -185.5t39.5 -237q0 -120 -32 -217t-87.5 -158t-126.5 -93.5t-151 -32.5q-86 0 -132 43t-46 106h-9q-25 -53 -95 -101t-161 -48
q-136 0 -216.5 94t-80.5 244q0 117 48.5 220.5t143.5 170.5t216 67q75 0 132.5 -35t80.5 -88h8l21 93h127l-82 -381q-23 -106 -23 -164q0 -103 100 -103t164 106t64 263q0 173 -76.5 297.5t-208.5 186t-305 61.5q-138 0 -255.5 -49.5t-199 -135t-127 -204t-45.5 -254.5
q0 -288 177.5 -459.5t465.5 -171.5q332 0 553 215l76 -94q-238 -244 -643 -244zM756 446q67 0 119 34.5t81 88t43.5 111t14.5 111.5q0 42 -8 77t-26.5 66.5t-53 49t-82.5 17.5q-77 0 -136.5 -53.5t-87.5 -130.5t-28 -160q0 -33 7.5 -66.5t24 -67.5t51 -55.5t81.5 -21.5z" />
    <glyph glyph-name="A" unicode="A" horiz-adv-x="1433" 
d="M647 1450h144l622 -1450h-164l-159 381h-750l-158 -381h-162zM715 1288l-320 -772h639z" />
    <glyph glyph-name="B" unicode="B" horiz-adv-x="1302" 
d="M623 0h-430v1450h432q70 0 133.5 -10.5t126 -37t107.5 -67t72.5 -106.5t27.5 -150q0 -114 -70.5 -199.5t-185.5 -111.5v-4q145 -15 236 -112t91 -251q0 -183 -145.5 -292t-394.5 -109zM340 1323v-508h297q57 0 108.5 13t97.5 41t73.5 79.5t27.5 120.5q0 88 -48.5 147
t-124 83t-175.5 24h-256zM340 694v-567h274q83 0 153 16t126.5 49t88.5 88.5t32 129.5q0 141 -96.5 212.5t-276.5 71.5h-301z" />
    <glyph glyph-name="C" unicode="C" horiz-adv-x="1474" 
d="M870 -37q-216 0 -388.5 98t-269.5 272.5t-97 391.5q0 162 57.5 304t157.5 242.5t240 158t300 57.5t300.5 -62.5t215.5 -167.5l-122 -90q-50 78 -156.5 134.5t-235.5 56.5q-182 0 -321 -88.5t-210 -231t-71 -313.5q0 -127 42 -241.5t118.5 -201.5t191 -138.5t250.5 -51.5
q130 0 242 53.5t184 161.5l115 -74q-78 -118 -218.5 -194t-324.5 -76z" />
    <glyph glyph-name="D" unicode="D" horiz-adv-x="1550" 
d="M674 0h-481v1450h481q110 0 218 -28.5t206.5 -88.5t173.5 -144t119.5 -204t44.5 -260t-44.5 -260t-119.5 -204t-173.5 -144t-206.5 -88.5t-218 -28.5zM340 1319v-1188h293q158 0 284 50.5t204 135t118.5 189t40.5 219.5t-40.5 219.5t-118.5 189t-204 135t-284 50.5h-293z
" />
    <glyph glyph-name="E" unicode="E" horiz-adv-x="1212" 
d="M1116 0h-923v1450h899v-131h-752v-500h702v-129h-702v-559h776v-131z" />
    <glyph glyph-name="F" unicode="F" horiz-adv-x="1150" 
d="M340 0h-147v1450h874v-131h-727v-504h676v-129h-676v-686z" />
    <glyph glyph-name="G" unicode="G" horiz-adv-x="1595" 
d="M870 -37q-216 0 -388.5 98t-269.5 272.5t-97 391.5q0 162 57.5 304t157.5 242.5t240 158t300 57.5q327 0 525 -195l-103 -102q-158 168 -420 168q-136 0 -250.5 -51.5t-191 -138.5t-118.5 -201.5t-42 -241.5t42 -241.5t118.5 -201t191 -137.5t250.5 -51q120 0 223.5 25.5
t168.5 68.5v441h-338v129h485v-654q-237 -141 -541 -141z" />
    <glyph glyph-name="H" unicode="H" horiz-adv-x="1470" 
d="M340 0h-147v1450h147v-629h790v629h148v-1450h-148v686h-790v-686z" />
    <glyph glyph-name="I" unicode="I" horiz-adv-x="532" 
d="M340 0h-147v1450h147v-1450z" />
    <glyph glyph-name="J" unicode="J" horiz-adv-x="1007" 
d="M440 -37q-154 0 -258 81.5t-131 213.5l137 37q18 -89 80.5 -146t155.5 -57q256 0 256 336v1022h147v-1032q0 -62 -9.5 -120t-36 -121t-68 -108.5t-112 -75.5t-161.5 -30z" />
    <glyph glyph-name="K" unicode="K" horiz-adv-x="1286" 
d="M340 0h-147v1450h147v-651h2l690 651h211l-731 -657l772 -793h-217l-725 772h-2v-772z" />
    <glyph glyph-name="L" unicode="L" horiz-adv-x="1044" 
d="M1016 0h-823v1450h147v-1319h676v-131z" />
    <glyph glyph-name="M" unicode="M" horiz-adv-x="1814" 
d="M340 0h-147v1450h225l491 -1200h2l486 1200h225v-1450h-147v1260h-5l-524 -1260h-78l-524 1260h-4v-1260z" />
    <glyph glyph-name="N" unicode="N" horiz-adv-x="1564" 
d="M340 0h-147v1450h184l844 -1235h4v1235h147v-1450h-184l-844 1247h-4v-1247z" />
    <glyph glyph-name="O" unicode="O" horiz-adv-x="1740" 
d="M870 -37q-160 0 -300 57.5t-240 158t-157.5 242.5t-57.5 304t57.5 304t157.5 242.5t240 158t300 57.5q213 0 386 -98t271.5 -272.5t98.5 -391.5t-98.5 -391.5t-271.5 -272.5t-386 -98zM870 94q136 0 250.5 51t190 137.5t117.5 201t42 241.5q0 171 -71 313.5t-209.5 231
t-319.5 88.5t-319.5 -88.5t-209.5 -231t-71 -313.5q0 -127 42 -241.5t117.5 -201t190 -137.5t250.5 -51z" />
    <glyph glyph-name="P" unicode="P" horiz-adv-x="1187" 
d="M340 0h-147v1450h409q228 0 359 -98.5t131 -288.5t-133 -289.5t-361 -99.5h-258v-674zM340 1323v-524h250q172 0 263 67.5t91 196.5q0 131 -91.5 195.5t-262.5 64.5h-250z" />
    <glyph glyph-name="Q" unicode="Q" horiz-adv-x="1726" 
d="M1677 0h-829q-207 0 -375 95.5t-263 265.5t-95 382q0 159 56 297.5t153 236.5t233 154t291 56t290.5 -56t232 -154t152.5 -236.5t56 -297.5q0 -194 -87 -353.5t-253 -254.5v-4h438v-131zM848 129q130 0 240 50t183.5 134.5t114.5 196t41 233.5t-41 233.5t-114.5 196.5
t-183.5 135t-240 50q-131 0 -241.5 -50t-183 -135t-113 -196t-40.5 -234t40.5 -233.5t113 -195.5t183 -135t241.5 -50z" />
    <glyph glyph-name="R" unicode="R" horiz-adv-x="1226" 
d="M340 0h-147v1450h425q111 0 199 -21t156 -66t104.5 -121t36.5 -179q0 -157 -103.5 -256t-267.5 -117l424 -690h-180l-401 678h-246v-678zM340 1323v-518h256q179 0 275 65t96 193q0 260 -365 260h-262z" />
    <glyph glyph-name="S" unicode="S" horiz-adv-x="1155" 
d="M559 -37q-136 0 -258.5 55.5t-198.5 159.5l127 94q50 -81 136.5 -131.5t195.5 -50.5q78 0 150 30.5t122 96.5t50 154q0 72 -24.5 123t-87 88t-102.5 52.5t-136 45.5q-3 1 -5 2q-47 14 -83 27t-78.5 33t-73.5 41.5t-61.5 52.5t-49.5 66.5t-31 82.5t-12 102q0 81 28 149
t73.5 113.5t106.5 77t125 46t130 14.5q138 0 245.5 -50t164.5 -126l-117 -94q-101 145 -299 145q-55 0 -108.5 -17t-99 -49t-73.5 -85.5t-28 -120.5q0 -30 6 -56.5t14 -47t26 -40.5t31 -33t40.5 -28t43 -23t50 -21t50.5 -18.5t54 -17.5q161 -54 223 -86q156 -81 193 -225
q14 -52 14 -113q0 -84 -27.5 -154.5t-73 -118.5t-107 -81.5t-128.5 -48.5t-137 -15z" />
    <glyph glyph-name="T" unicode="T" horiz-adv-x="1167" 
d="M657 0h-147v1319h-485v131h1118v-131h-486v-1319z" />
    <glyph glyph-name="U" unicode="U" horiz-adv-x="1454" 
d="M727 -37q-125 0 -222.5 37.5t-156.5 96t-97.5 137t-52.5 153.5t-14 154v909h148v-893q0 -73 12.5 -138t42 -125.5t74 -104t112.5 -69.5t154 -26t154 26t112.5 69.5t74 104t42 125.5t12.5 138v893h148v-909q0 -79 -14 -154t-52.5 -153.5t-97.5 -137t-156.5 -96
t-222.5 -37.5z" />
    <glyph glyph-name="V" unicode="V" horiz-adv-x="1275" 
d="M715 0h-156l-553 1450h160l471 -1260h4l471 1260h158z" />
    <glyph glyph-name="W" unicode="W" horiz-adv-x="1990" 
d="M629 0h-172l-428 1450h155l359 -1247h4l362 1247h176l363 -1247h4l354 1247h156l-428 -1450h-172l-365 1245h-4z" />
    <glyph glyph-name="X" unicode="X" horiz-adv-x="1329" 
d="M223 0h-184l532 762l-485 688h184l398 -586l395 586h176l-481 -690l532 -760h-184l-442 653z" />
    <glyph glyph-name="Y" unicode="Y" horiz-adv-x="1232" 
d="M621 748l440 702h172l-543 -825v-625h-147v625l-543 825h184z" />
    <glyph glyph-name="Z" unicode="Z" horiz-adv-x="1171" 
d="M1108 0h-1045v123l848 1196h-825v131h1010v-123l-846 -1196h858v-131z" />
    <glyph glyph-name="bracketleft" unicode="[" horiz-adv-x="614" 
d="M451 -319h-332v1818h332v-110h-197v-1598h197v-110z" />
    <glyph glyph-name="backslash" unicode="\" horiz-adv-x="757" 
d="M748 2l-119 -39l-619 1483l117 41z" />
    <glyph glyph-name="bracketright" unicode="]" horiz-adv-x="614" 
d="M496 -319h-332v110h196v1598h-196v110h332v-1818z" />
    <glyph glyph-name="asciicircum" unicode="^" horiz-adv-x="1363" 
d="M291 563h-127l469 887h98l469 -887h-127l-391 740z" />
    <glyph glyph-name="underscore" unicode="_" horiz-adv-x="1024" 
d="M1024 -256h-1024v102h1024v-102z" />
    <glyph glyph-name="grave" unicode="`" horiz-adv-x="491" 
d="M373 1155h-121l-272 295h186z" />
    <glyph glyph-name="a" unicode="a" horiz-adv-x="1093" 
d="M444 -25q-58 0 -113.5 16t-105.5 49t-81 91.5t-31 134.5q0 61 19.5 110t51 82t83 57.5t104 38t125.5 21.5t136.5 10.5t147.5 2.5h8v30q0 124 -65 186t-191 62q-83 0 -157.5 -30t-126.5 -82l-78 92q61 61 160 99t217 38q163 0 268 -90t105 -258v-420q0 -130 16 -215h-125
q-14 82 -14 156h-4q-66 -95 -149.5 -138t-199.5 -43zM481 90q142 0 224.5 92t82.5 226v71h-40q-63 0 -116 -3t-112 -10t-104 -22t-82.5 -37t-57.5 -56.5t-20 -78.5q0 -65 34.5 -107.5t83 -58.5t107.5 -16z" />
    <glyph glyph-name="b" unicode="b" horiz-adv-x="1304" 
d="M694 -25q-106 0 -204 49t-158 138h-4v-162h-140v1548h140v-755h4q60 91 158 140.5t204 49.5q146 0 260 -67t175 -181.5t61 -255.5t-61 -255.5t-175 -181.5t-260 -67zM680 94q168 0 265 109.5t97 275.5t-97 276.5t-265 110.5q-160 0 -264.5 -111t-104.5 -276t104.5 -275
t264.5 -110z" />
    <glyph glyph-name="c" unicode="c" horiz-adv-x="1024" 
d="M627 -25q-229 0 -370.5 142.5t-141.5 361.5t141.5 361.5t370.5 142.5q102 0 199.5 -43t156.5 -123l-109 -78q-34 56 -101 91.5t-144 35.5q-165 0 -266 -110t-101 -277q0 -166 100.5 -275.5t264.5 -109.5q167 0 260 125l104 -78q-136 -166 -364 -166z" />
    <glyph glyph-name="d" unicode="d" horiz-adv-x="1304" 
d="M610 -25q-146 0 -260 67t-174.5 181.5t-60.5 255.5t60.5 255.5t174.5 181.5t260 67q106 0 204.5 -49.5t158.5 -140.5h4v755h139v-1548h-139v162h-4q-60 -89 -158.5 -138t-204.5 -49zM625 94q160 0 264 110t104 275q0 166 -104 276.5t-264 110.5q-168 0 -265.5 -110.5
t-97.5 -276.5t97.5 -275.5t265.5 -109.5z" />
    <glyph glyph-name="e" unicode="e" horiz-adv-x="1171" 
d="M610 -25q-214 0 -354.5 143.5t-140.5 360.5q0 216 139 360t344 144q146 0 251.5 -65t156.5 -171t51 -239q0 -41 -2 -66h-795q3 -146 103 -247t247 -101q101 0 183 48t125 118l104 -82q-160 -203 -412 -203zM262 553h653q-6 140 -89 226.5t-228 86.5q-136 0 -231.5 -93
t-104.5 -220z" />
    <glyph glyph-name="f" unicode="f" horiz-adv-x="604" 
d="M365 0h-140v844h-200v117h200v260q0 166 82.5 259t243.5 93q66 0 115 -14l-25 -123q-51 14 -96 14q-54 0 -91 -18t-55.5 -53.5t-26 -76.5t-7.5 -98v-243h225v-117h-225v-844z" />
    <glyph glyph-name="g" unicode="g" horiz-adv-x="1294" 
d="M596 -492q-131 0 -253.5 51.5t-207.5 141.5l101 106q59 -76 159.5 -126t206.5 -50q100 0 174 29.5t117 82t63.5 118.5t20.5 147v180h-4q-54 -87 -155 -137.5t-208 -50.5q-222 0 -358.5 137t-136.5 350q0 136 60.5 248.5t174.5 180t260 67.5q108 0 208 -50t155 -140h4v168
h139v-953q0 -69 -13 -133t-48.5 -132.5t-91.5 -119t-150.5 -83t-216.5 -32.5zM625 119q162 0 265 104t103 269q0 154 -105 264t-263 110q-167 0 -265 -108t-98 -266q0 -157 98 -265t265 -108z" />
    <glyph glyph-name="h" unicode="h" horiz-adv-x="1193" 
d="M328 0h-140v1548h140v-747h4q38 82 128 132t193 50q179 0 272 -106t93 -289v-588h-139v530q0 162 -59 249t-202 87q-120 0 -205 -96.5t-85 -277.5v-492z" />
    <glyph glyph-name="i" unicode="i" horiz-adv-x="512" 
d="M256 1229q-38 0 -68 28.5t-30 69.5t30 69.5t68 28.5t68 -28.5t30 -69.5t-30 -69.5t-68 -28.5zM326 0h-140v961h140v-961z" />
    <glyph glyph-name="j" unicode="j" horiz-adv-x="514" 
d="M258 1229q-38 0 -68 28.5t-30 69.5t30 69.5t68 28.5t68 -28.5t30 -69.5t-30 -69.5t-68 -28.5zM55 -492q-57 0 -110 15l20 117q44 -13 88 -13q81 0 108 51t27 154v1129h140v-1151q0 -62 -12.5 -113t-42 -95t-85 -69t-133.5 -25z" />
    <glyph glyph-name="k" unicode="k" horiz-adv-x="1044" 
d="M328 0h-140v1548h140v-1022h6l442 435h201l-483 -441l532 -520h-205l-487 504h-6v-504z" />
    <glyph glyph-name="l" unicode="l" horiz-adv-x="516" 
d="M328 0h-140v1548h140v-1548z" />
    <glyph glyph-name="m" unicode="m" horiz-adv-x="1808" 
d="M1268 983q179 0 271.5 -105.5t92.5 -289.5v-588h-139v530q0 336 -248 336q-72 0 -126.5 -30t-85.5 -82t-45.5 -113t-14.5 -131v-510h-139v559q0 152 -50.5 229.5t-181.5 77.5q-51 0 -99.5 -23t-89 -67.5t-65 -118t-24.5 -165.5v-492h-140v748q0 125 -8 213h133
q8 -102 8 -166h5q42 84 127.5 136t187.5 52q42 0 81.5 -9.5t80.5 -31t75.5 -63t57.5 -99.5q101 203 336 203z" />
    <glyph glyph-name="n" unicode="n" horiz-adv-x="1189" 
d="M324 0h-140v748q0 125 -8 213h133q8 -102 8 -166h5q39 83 132 135.5t195 52.5q179 0 272 -106t93 -289v-588h-140v530q0 79 -12.5 138t-41.5 105t-80.5 69.5t-125.5 23.5q-120 0 -205 -96.5t-85 -277.5v-492z" />
    <glyph glyph-name="o" unicode="o" horiz-adv-x="1251" 
d="M625 -25q-222 0 -366 143t-144 361t144 361t366 143q223 0 367.5 -143t144.5 -361t-144.5 -361t-367.5 -143zM625 94q164 0 264 110t100 275t-100 276t-264 111q-162 0 -262.5 -111t-100.5 -276t100 -275t263 -110z" />
    <glyph glyph-name="p" unicode="p" horiz-adv-x="1300" 
d="M324 -492h-140v1453h140v-168h6q58 91 156 140.5t204 49.5q146 0 260 -67t175 -181.5t61 -255.5t-61 -255.5t-175 -181.5t-260 -67q-105 0 -203 49.5t-157 137.5h-6v-654zM676 94q168 0 265 109.5t97 275.5t-97 276.5t-265 110.5q-160 0 -264.5 -111t-104.5 -276
t104.5 -275t264.5 -110z" />
    <glyph glyph-name="q" unicode="q" horiz-adv-x="1300" 
d="M1116 -492h-139v654h-6q-59 -87 -157.5 -137t-203.5 -50q-146 0 -260 67t-174.5 181.5t-60.5 255.5t60.5 255.5t174.5 181.5t260 67q107 0 205 -49.5t156 -140.5h6v168h139v-1453zM625 94q160 0 264 110t104 275q0 166 -104 276.5t-264 110.5q-168 0 -265.5 -110.5
t-97.5 -276.5t97.5 -275.5t265.5 -109.5z" />
    <glyph glyph-name="r" unicode="r" horiz-adv-x="737" 
d="M324 0h-140v748q0 125 -8 213h133q8 -102 8 -166h5q40 84 123.5 136t183.5 52q56 0 92 -10l-19 -131q-32 12 -98 12q-120 0 -200 -90.5t-80 -271.5v-492z" />
    <glyph glyph-name="s" unicode="s" horiz-adv-x="909" 
d="M457 -25q-114 0 -215 47t-164 140l110 82q38 -65 111 -107.5t156 -42.5q99 0 162 40t63 128q0 70 -67 109.5t-216 74.5q-42 10 -73 20t-71.5 30.5t-66.5 46.5t-44.5 68t-18.5 94q0 70 28.5 125t77.5 87.5t109 49t127 16.5q103 0 197.5 -46.5t138.5 -125.5l-107 -80
q-31 61 -94 98t-141 37q-84 0 -143.5 -37.5t-59.5 -111.5q0 -66 53.5 -102t175.5 -62q171 -36 251.5 -103t80.5 -178q0 -64 -20.5 -115t-55 -84.5t-81.5 -56t-97.5 -32t-105.5 -9.5z" />
    <glyph glyph-name="t" unicode="t" horiz-adv-x="649" 
d="M453 -12q-43 0 -82 11t-78 37t-62.5 79.5t-23.5 128.5v600h-199v117h199v268h139v-268h270v-117h-270v-561q0 -100 36.5 -138.5t106.5 -38.5q57 0 121 31l6 -121q-76 -28 -163 -28z" />
    <glyph glyph-name="u" unicode="u" horiz-adv-x="1189" 
d="M541 -25q-179 0 -272 106t-93 290v590h139v-533q0 -79 12.5 -138t41.5 -105t80.5 -69.5t125.5 -23.5q120 0 205.5 97t85.5 278v494h140v-750q0 -123 8 -211h-133q-9 115 -9 164h-4q-39 -83 -132 -136t-195 -53z" />
    <glyph glyph-name="v" unicode="v" horiz-adv-x="999" 
d="M578 0h-154l-391 961h155l312 -814h4l313 814h150z" />
    <glyph glyph-name="w" unicode="w" horiz-adv-x="1527" 
d="M508 0h-152l-303 961h150l231 -781h4l258 781h135l263 -781h4l229 781h148l-304 -961h-151l-256 778h-4z" />
    <glyph glyph-name="x" unicode="x" horiz-adv-x="991" 
d="M201 0h-168l377 496l-355 465h178l263 -367l262 367h168l-348 -459l380 -502h-180l-284 399z" />
    <glyph glyph-name="y" unicode="y" horiz-adv-x="999" 
d="M188 -492q-58 0 -125 13l15 127q53 -17 102 -17q67 0 109.5 42t75.5 128l77 201l-409 959h155l326 -811h4l297 811h152l-478 -1209q-47 -121 -115.5 -182.5t-185.5 -61.5z" />
    <glyph glyph-name="z" unicode="z" horiz-adv-x="905" 
d="M842 0h-779v98l572 746h-543v117h729v-99l-573 -741h594v-121z" />
    <glyph glyph-name="braceleft" unicode="{" horiz-adv-x="614" 
d="M512 -319h-129q-98 0 -159.5 60.5t-61.5 195.5v364q0 108 -41.5 167.5t-120.5 59.5v123q79 0 120.5 60t41.5 168v364q0 135 61.5 195.5t159.5 60.5h129v-110h-98q-117 0 -117 -170v-365q0 -56 -14.5 -102.5t-35.5 -74t-47.5 -47.5t-47 -28t-37.5 -10v-4q17 -2 37.5 -10
t47 -28t47.5 -47.5t35.5 -74t14.5 -102.5v-365q0 -170 117 -170h98v-110z" />
    <glyph glyph-name="bar" unicode="|" horiz-adv-x="454" 
d="M289 -512h-123v2060h123v-2060z" />
    <glyph glyph-name="braceright" unicode="}" horiz-adv-x="614" 
d="M231 -319h-129v110h99q116 0 116 170v365q0 56 14.5 102.5t36 74t48 47.5t47 28t37.5 10v4q-17 2 -37.5 10t-47 28t-48 47.5t-36 74t-14.5 102.5v365q0 170 -116 170h-99v110h129q98 0 160 -60.5t62 -195.5v-364q0 -109 41 -168.5t120 -59.5v-123q-79 0 -120 -59.5
t-41 -167.5v-364q0 -135 -62 -195.5t-160 -60.5z" />
    <glyph glyph-name="asciitilde" unicode="~" horiz-adv-x="1363" 
d="M903 481q-61 0 -109.5 15t-117.5 59q-70 44 -115.5 63t-95.5 19q-115 0 -197 -150l-86 82q28 39 52 67t59.5 59.5t78 48t89.5 16.5q115 0 225 -72q132 -84 211 -84q108 0 199 150l86 -82q-122 -191 -279 -191z" />
    <glyph glyph-name="uni00A0" unicode="&#xa0;" horiz-adv-x="512" 
 />
    <glyph glyph-name="exclamdown" unicode="&#xa1;" horiz-adv-x="671" 
d="M336 772q-48 0 -79.5 33.5t-31.5 77.5t31.5 77t79.5 33t79 -33t31 -77t-31 -77.5t-79 -33.5zM410 -469h-148v1057h148v-1057z" />
    <glyph glyph-name="cent" unicode="&#xa2;" horiz-adv-x="1181" 
d="M690 -156h-84v133q-201 17 -321.5 155t-120.5 349q0 210 121 347.5t321 154.5v135h84v-133q206 -10 324 -143l-99 -88q-87 99 -225 112v-770q151 7 232 109l94 -90q-59 -65 -144.5 -100t-181.5 -40v-131zM606 98v766q-136 -17 -220.5 -124t-84.5 -257q0 -91 32 -171.5
t103 -140t170 -73.5z" />
    <glyph glyph-name="sterling" unicode="&#xa3;" horiz-adv-x="1187" 
d="M1047 0h-893v123h208v563h-196v123h196v190q0 74 13 141.5t45 132t80.5 111t124.5 75t172 28.5q200 0 317 -123l-96 -104q-89 102 -227 102q-70 0 -122.5 -26.5t-82 -65t-47.5 -92t-23.5 -98.5t-5.5 -93v-178h344v-123h-344v-563h537v-123z" />
    <glyph glyph-name="currency" unicode="&#xa4;" horiz-adv-x="1761" 
d="M559 215l-199 -199l-88 90l197 197q-109 131 -109 330q0 187 103 321l-191 189l90 88l189 -189q142 113 332 113q191 0 327 -111l187 187l90 -88l-184 -185q104 -136 104 -325q0 -198 -113 -336l193 -191l-88 -90l-195 195q-137 -105 -321 -105q-185 0 -324 109zM883 246
q166 0 269 111.5t103 275.5q0 162 -103 272.5t-269 110.5q-167 0 -270 -110.5t-103 -272.5q0 -164 103 -275.5t270 -111.5z" />
    <glyph glyph-name="yen" unicode="&#xa5;" horiz-adv-x="1187" 
d="M664 0h-140v346h-338v111h338v215h-338v110h297l-463 668h183l395 -614l393 614h176l-458 -668h292v-110h-337v-215h337v-111h-337v-346z" />
    <glyph glyph-name="brokenbar" unicode="&#xa6;" horiz-adv-x="454" 
d="M289 666h-123v716h123v-716zM289 -358h-123v716h123v-716z" />
    <glyph glyph-name="section" unicode="&#xa7;" horiz-adv-x="1187" 
d="M575 -272q-142 0 -249.5 59.5t-155.5 175.5l135 66q32 -90 105.5 -134.5t164.5 -44.5q40 0 78.5 9.5t76 30.5t60.5 62.5t23 98.5q0 124 -154 197l-260 125q-92 44 -143 106.5t-51 167.5q0 98 58.5 169.5t154.5 101.5q-23 14 -40.5 26.5t-41 35t-39 47t-26.5 60.5t-11 76
q0 156 108.5 240t262.5 84q130 0 218.5 -54t121.5 -139l-121 -61q-22 53 -78 92t-143 39q-100 0 -160.5 -48.5t-60.5 -133.5q0 -46 15.5 -81.5t47.5 -61.5t61.5 -42.5t75.5 -35.5l178 -84q211 -101 211 -291q0 -97 -51.5 -168.5t-130.5 -100.5q146 -89 146 -256
q0 -110 -56 -187t-141 -111.5t-189 -34.5zM569 444l136 -61q59 14 104 61.5t45 120.5q0 84 -51 132.5t-148 88.5l-125 54q-31 -3 -61 -15t-58 -33t-45.5 -57t-17.5 -80q0 -76 50.5 -118.5t170.5 -92.5z" />
    <glyph glyph-name="dieresis" unicode="&#xa8;" horiz-adv-x="491" 
d="M49 1221q-44 0 -74 31.5t-30 72.5t30 73t74 32t74.5 -32t30.5 -73t-30.5 -72.5t-74.5 -31.5zM442 1221q-44 0 -74 31.5t-30 72.5t30 73t74 32t74.5 -32t30.5 -73t-30.5 -72.5t-74.5 -31.5z" />
    <glyph glyph-name="copyright" unicode="&#xa9;" horiz-adv-x="1638" 
d="M821 -45q-159 0 -303 60.5t-248.5 162.5t-166.5 244.5t-62 300.5t62 301.5t166.5 246.5t248.5 163.5t303 60.5q158 0 301.5 -60.5t247.5 -163.5t165.5 -246.5t61.5 -301.5t-61.5 -300.5t-165.5 -244.5t-247.5 -162.5t-301.5 -60.5zM821 70q177 0 327.5 87.5t238.5 238
t88 327.5q0 178 -88 329.5t-238.5 239.5t-327.5 88q-133 0 -255 -52t-210 -140t-140 -210t-52 -255t52 -253.5t140 -208t210 -139.5t255 -52zM840 272q-200 0 -331.5 131t-131.5 332q0 199 131.5 330t331.5 131q99 0 189.5 -44t141.5 -118l-106 -82q-32 48 -93.5 84.5
t-127.5 36.5q-146 0 -236 -99.5t-90 -238.5q0 -141 88 -240.5t234 -99.5q148 0 241 133l107 -69q-54 -82 -144 -134.5t-204 -52.5z" />
    <glyph glyph-name="ordfeminine" unicode="&#xaa;" horiz-adv-x="737" 
d="M299 868q-38 0 -74.5 9.5t-69.5 29.5t-53 56t-20 84q0 42 16 74t47 53t67.5 34.5t86.5 20.5t95 9.5t102 2.5h4v16q0 61 -41 93t-109 32q-49 0 -94.5 -17.5t-75.5 -47.5l-65 72q96 86 245 86q124 0 188 -63t64 -163v-252q0 -71 9 -114h-107q-10 45 -10 84h-4
q-68 -99 -201 -99zM324 958q82 0 129 47.5t47 122.5v31h-31q-266 0 -266 -110q0 -47 35 -69t86 -22z" />
    <glyph glyph-name="guillemotleft" unicode="&#xab;" horiz-adv-x="987" 
d="M489 131l-96 -68l-287 429l287 428l96 -68l-235 -360zM862 131l-96 -68l-287 429l287 428l96 -68l-235 -360z" />
    <glyph glyph-name="logicalnot" unicode="&#xac;" horiz-adv-x="1363" 
d="M1204 266h-123v447h-921v123h1044v-570z" />
    <glyph glyph-name="uni00AD" unicode="&#xad;" horiz-adv-x="655" 
d="M557 438h-459v117h459v-117z" />
    <glyph glyph-name="registered" unicode="&#xae;" horiz-adv-x="1228" 
d="M614 549q-194 0 -330.5 134t-136.5 327t136.5 329t330.5 136t330.5 -136t136.5 -329t-136.5 -327t-330.5 -134zM614 616q162 0 278 116t116 278q0 163 -115.5 278t-278.5 115t-278 -115t-115 -278q0 -162 115.5 -278t277.5 -116zM526 750h-94v524h184q82 0 138.5 -37.5
t56.5 -116.5q0 -56 -32 -92.5t-89 -48.5l141 -229h-114l-123 219h-68v-219zM526 1194v-150h76q115 0 115 78q0 39 -30.5 55.5t-74.5 16.5h-86z" />
    <glyph glyph-name="macron" unicode="&#xaf;" horiz-adv-x="491" 
d="M522 1229h-553v110h553v-110z" />
    <glyph glyph-name="degree" unicode="&#xb0;" horiz-adv-x="819" 
d="M410 864q-132 0 -219 86.5t-87 218.5t87 219t219 87t218.5 -87t86.5 -219t-86.5 -218.5t-218.5 -86.5zM410 963q86 0 146 60t60 146t-60 146.5t-146 60.5t-146.5 -60.5t-60.5 -146.5t60.5 -146t146.5 -60z" />
    <glyph glyph-name="plusminus" unicode="&#xb1;" horiz-adv-x="1363" 
d="M743 401h-122v310h-461v123h461v319h122v-319h461v-123h-461v-310zM1204 98h-1044v123h1044v-123z" />
    <glyph glyph-name="two.sups" unicode="&#xb2;" horiz-adv-x="757" 
d="M653 926h-565v116l342 347q88 92 88 176q0 58 -38.5 92.5t-98.5 34.5q-57 0 -99 -39t-55 -105l-123 19q20 105 97.5 171t179.5 66q114 0 191 -62.5t77 -176.5q0 -43 -11.5 -81t-36.5 -73.5t-43.5 -56.5t-53.5 -56l-262 -262h411v-110z" />
    <glyph glyph-name="three.sups" unicode="&#xb3;" horiz-adv-x="757" 
d="M369 911q-99 0 -174 49t-115 148l117 39q20 -59 65.5 -92t106.5 -33q68 0 115.5 39t47.5 110q0 77 -56.5 113.5t-139.5 36.5h-55v104h55q78 0 125 35t47 109q0 56 -40.5 91.5t-100.5 35.5q-46 0 -87 -27t-67 -76l-102 54q88 157 260 157q112 0 186 -60.5t74 -172.5
q0 -63 -31 -111.5t-84 -77.5v-2q65 -27 102 -80.5t37 -128.5q0 -122 -82 -191t-204 -69z" />
    <glyph glyph-name="acute" unicode="&#xb4;" horiz-adv-x="491" 
d="M242 1155h-121l207 295h186z" />
    <glyph glyph-name="uni00B5" unicode="&#xb5;" horiz-adv-x="1226" 
d="M1141 102l10 -110q-49 -10 -98 -10q-99 0 -137.5 50.5t-38.5 141.5v19h-5q-40 -98 -125.5 -159t-189.5 -61q-83 0 -144 30t-87 83h-4v-578h-140v1453h140v-547q0 -324 247 -324q131 0 216 101.5t85 269.5v500h140v-766q0 -55 16.5 -77t60.5 -22q27 0 54 6z" />
    <glyph glyph-name="paragraph" unicode="&#xb6;" horiz-adv-x="1228" 
d="M662 -258h-136v905q-186 0 -307 110t-121 271q0 198 125 310t342 112h486v-1708h-136v1597h-253v-1597z" />
    <glyph glyph-name="periodcentered" unicode="&#xb7;" horiz-adv-x="532" 
d="M266 532q-48 0 -79 33.5t-31 77.5t31 77.5t79 33.5t79.5 -33.5t31.5 -77.5t-31.5 -77.5t-79.5 -33.5z" />
    <glyph glyph-name="cedilla" unicode="&#xb8;" horiz-adv-x="491" 
d="M221 -471q-105 0 -192 41l32 74q65 -29 148 -29q43 0 87 22.5t44 67.5q0 39 -29.5 59.5t-81.5 20.5q-45 0 -88 -16l-37 30l127 201h88l-96 -154q30 9 72 9q67 0 117.5 -39.5t50.5 -108.5q0 -49 -21.5 -85t-58 -55.5t-77 -28.5t-85.5 -9z" />
    <glyph glyph-name="one.sups" unicode="&#xb9;" horiz-adv-x="757" 
d="M475 926h-125v708l-131 -116l-78 84l230 188h104v-864z" />
    <glyph glyph-name="ordmasculine" unicode="&#xba;" horiz-adv-x="737" 
d="M369 868q-135 0 -223.5 85.5t-88.5 217.5q0 133 88.5 218.5t223.5 85.5t223 -85.5t88 -218.5q0 -132 -88 -217.5t-223 -85.5zM369 963q91 0 141.5 60.5t50.5 147.5q0 88 -50.5 148.5t-141.5 60.5t-142 -60.5t-51 -148.5q0 -87 51 -147.5t142 -60.5z" />
    <glyph glyph-name="guillemotright" unicode="&#xbb;" horiz-adv-x="987" 
d="M508 492l-287 -429l-96 68l235 361l-235 360l96 68zM881 492l-287 -429l-96 68l235 361l-235 360l96 68z" />
    <glyph glyph-name="onequarter" unicode="&#xbc;" horiz-adv-x="1720" 
d="M338 -8l924 1521l104 -55l-922 -1521zM475 586h-125v708l-131 -116l-78 84l230 188h104v-864zM1481 0h-113v201h-385v106l358 557h140v-553h123v-110h-123v-201zM1362 698l-250 -387h256v387h-6z" />
    <glyph glyph-name="onehalf" unicode="&#xbd;" horiz-adv-x="1720" 
d="M1262 1513l104 -55l-922 -1521l-106 55zM475 586h-125v708l-131 -116l-78 84l230 188h104v-864zM1610 0h-566v117l342 346q41 43 65 84t24 92q0 57 -39 92t-99 35q-57 0 -98.5 -38.5t-54.5 -104.5l-123 18q20 105 97 171.5t179 66.5q114 0 191.5 -63t77.5 -177
q0 -43 -11.5 -80.5t-37 -73.5t-43.5 -56t-54 -56l-262 -262h412v-111z" />
    <glyph glyph-name="threequarters" unicode="&#xbe;" horiz-adv-x="1720" 
d="M444 -63l-106 55l924 1521l104 -55zM369 571q-99 0 -174 49t-115 148l117 39q20 -59 65.5 -92t106.5 -33q68 0 115.5 39t47.5 110q0 77 -56.5 113.5t-139.5 36.5h-55v104h55q78 0 125 35t47 109q0 56 -40.5 91.5t-100.5 35.5q-46 0 -87 -27t-67 -76l-102 54
q88 157 260 157q112 0 186 -60.5t74 -172.5q0 -62 -30.5 -111.5t-82.5 -77.5v-4q64 -25 100.5 -79t36.5 -128q0 -122 -82 -191t-204 -69zM1481 0h-113v201h-385v106l358 557h140v-553h123v-110h-123v-201zM1362 698l-250 -387h256v387h-6z" />
    <glyph glyph-name="questiondown" unicode="&#xbf;" horiz-adv-x="987" 
d="M496 772q-48 0 -79.5 33.5t-31.5 77.5t31.5 77t79.5 33t79 -33t31 -77t-31 -77.5t-79 -33.5zM492 -494q-111 0 -200.5 41.5t-143.5 124.5t-54 195q0 63 13.5 113t43.5 91.5t57 67.5t75 66q64 52 93 85t45.5 81.5t16.5 122.5v94h144v-123q0 -56 -12.5 -102.5t-39 -85
t-50.5 -64t-62 -59.5l-58 -52q-118 -95 -118 -227q0 -112 73 -177t183 -65q107 0 178 66.5t86 173.5l139 -25q-31 -158 -141 -250t-268 -92z" />
    <glyph glyph-name="Agrave" unicode="&#xc0;" horiz-adv-x="1433" 
d="M580 1860l206 -295h-120l-273 295h187zM647 1450h144l622 -1450h-164l-159 381h-750l-158 -381h-162zM715 1288l-320 -772h639z" />
    <glyph glyph-name="Aacute" unicode="&#xc1;" horiz-adv-x="1433" 
d="M862 1860h187l-273 -295h-121zM647 1450h144l622 -1450h-164l-159 381h-750l-158 -381h-162zM715 1288l-320 -772h639z" />
    <glyph glyph-name="Acircumflex" unicode="&#xc2;" horiz-adv-x="1433" 
d="M885 1565l-170 221l-170 -221h-135l223 295h164l223 -295h-135zM647 1450h144l622 -1450h-164l-159 381h-750l-158 -381h-162zM715 1288l-320 -772h639z" />
    <glyph glyph-name="Atilde" unicode="&#xc3;" horiz-adv-x="1433" 
d="M573 1692q-76 0 -100 -103h-88q36 213 188 213q50 0 150 -47q3 -1 16 -7.5t16.5 -8t15 -6.5t16.5 -7l15 -6t15.5 -5.5t14 -3.5t15 -2.5t13.5 -0.5q77 0 101 102h88q-36 -213 -189 -213q-59 0 -149 48q-88 47 -138 47zM647 1450h144l622 -1450h-164l-159 381h-750
l-158 -381h-162zM715 1288l-320 -772h639z" />
    <glyph glyph-name="Adieresis" unicode="&#xc4;" horiz-adv-x="1433" 
d="M522 1630q-44 0 -74 32t-30 73t30 72.5t74 31.5t74.5 -31.5t30.5 -72.5t-30.5 -73t-74.5 -32zM915 1630q-44 0 -74 32t-30 73t30 72.5t74 31.5t74.5 -31.5t30.5 -72.5t-30.5 -73t-74.5 -32zM647 1450h144l622 -1450h-164l-159 381h-750l-158 -381h-162zM715 1288
l-320 -772h639z" />
    <glyph glyph-name="Aring" unicode="&#xc5;" horiz-adv-x="1433" 
d="M717 1546q-81 0 -139 56.5t-58 138.5t58 138t139 56t138.5 -56t57.5 -138t-58 -138.5t-138 -56.5zM717 1862q-51 0 -87 -35t-36 -86t36 -86t87 -35t87 35t36 86t-36 86t-87 35zM647 1450h144l622 -1450h-164l-159 381h-750l-158 -381h-162zM715 1288l-320 -772h639z" />
    <glyph glyph-name="AE" unicode="&#xc6;" horiz-adv-x="2027" 
d="M190 0h-167l944 1450h925v-131h-682v-500h633v-129h-633v-559h707v-131h-854v406h-610zM1034 1319l-506 -784h535v784h-29z" />
    <glyph glyph-name="Ccedilla" unicode="&#xc7;" horiz-adv-x="1474" 
d="M797 -471q-106 0 -193 41l33 74q65 -29 147 -29q43 0 87 22.5t44 67.5q0 39 -29 59.5t-81 20.5q-45 0 -88 -16l-37 30l106 168q-146 14 -271 77t-213 162t-137.5 233t-49.5 286q0 162 57.5 304t157.5 242.5t240 158t300 57.5t300.5 -62.5t215.5 -167.5l-122 -90
q-50 78 -156.5 134.5t-235.5 56.5q-182 0 -321 -88.5t-210 -231t-71 -313.5q0 -127 42 -241.5t118.5 -201.5t191 -138.5t250.5 -51.5q130 0 242 53.5t184 161.5l115 -74q-78 -118 -218.5 -194t-324.5 -76l-71 -117q30 9 71 9q67 0 117.5 -39.5t50.5 -108.5q0 -49 -21.5 -85
t-58 -55.5t-76.5 -28.5t-85 -9z" />
    <glyph glyph-name="Egrave" unicode="&#xc8;" horiz-adv-x="1212" 
d="M770 1565h-121l-272 295h186zM1116 0h-923v1450h899v-131h-752v-500h702v-129h-702v-559h776v-131z" />
    <glyph glyph-name="Eacute" unicode="&#xc9;" horiz-adv-x="1212" 
d="M664 1565h-121l207 295h186zM1116 0h-923v1450h899v-131h-752v-500h702v-129h-702v-559h776v-131z" />
    <glyph glyph-name="Ecircumflex" unicode="&#xca;" horiz-adv-x="1212" 
d="M477 1565h-135l223 295h164l223 -295h-135l-170 221zM1116 0h-923v1450h899v-131h-752v-500h702v-129h-702v-559h776v-131z" />
    <glyph glyph-name="Edieresis" unicode="&#xcb;" horiz-adv-x="1212" 
d="M451 1630q-44 0 -74.5 32t-30.5 73t30.5 72.5t74.5 31.5t74 -31.5t30 -72.5t-30 -73t-74 -32zM844 1630q-44 0 -74.5 32t-30.5 73t30.5 72.5t74.5 31.5t74 -31.5t30 -72.5t-30 -73t-74 -32zM1116 0h-923v1450h899v-131h-752v-500h702v-129h-702v-559h776v-131z" />
    <glyph glyph-name="Igrave" unicode="&#xcc;" horiz-adv-x="532" 
d="M340 1565h-121l-272 295h186zM340 0h-147v1450h147v-1450z" />
    <glyph glyph-name="Iacute" unicode="&#xcd;" horiz-adv-x="532" 
d="M313 1565h-120l206 295h187zM340 0h-147v1450h147v-1450z" />
    <glyph glyph-name="Icircumflex" unicode="&#xce;" horiz-adv-x="532" 
d="M96 1565h-135l223 295h164l223 -295h-135l-170 221zM340 0h-147v1450h147v-1450z" />
    <glyph glyph-name="Idieresis" unicode="&#xcf;" horiz-adv-x="532" 
d="M70 1630q-44 0 -74.5 32t-30.5 73t30.5 72.5t74.5 31.5t74 -31.5t30 -72.5t-30 -73t-74 -32zM463 1630q-44 0 -74.5 32t-30.5 73t30.5 72.5t74.5 31.5t74 -31.5t30 -72.5t-30 -73t-74 -32zM340 0h-147v1450h147v-1450z" />
    <glyph glyph-name="Eth" unicode="&#xd0;" horiz-adv-x="1550" 
d="M657 0h-481v711h-149v110h149v629h481q110 0 218 -28.5t206.5 -88.5t173.5 -144t119.5 -204t44.5 -260t-44.5 -260t-119.5 -204t-173.5 -144t-206.5 -88.5t-218 -28.5zM324 711v-576h286q129 0 237 32.5t183 89t128 132t77.5 160.5t24.5 176t-24.5 176t-77.5 160.5
t-128 132t-183 89t-237 32.5h-286v-494h528v-110h-528z" />
    <glyph glyph-name="Ntilde" unicode="&#xd1;" horiz-adv-x="1564" 
d="M545 1589h-88q36 213 188 213q50 0 150 -47q3 -1 16 -7.5t16.5 -8t15 -6.5t16.5 -7l15 -6t15.5 -5.5t14 -3.5t15 -2.5t13.5 -0.5q76 0 100 102h88q-36 -213 -188 -213q-60 0 -150 48q-88 47 -137 47q-76 0 -100 -103zM340 0h-147v1450h184l844 -1235h4v1235h147v-1450
h-184l-844 1247h-4v-1247z" />
    <glyph glyph-name="Ograve" unicode="&#xd2;" horiz-adv-x="1740" 
d="M1022 1565h-121l-272 295h186zM870 -37q-160 0 -300 57.5t-240 158t-157.5 242.5t-57.5 304t57.5 304t157.5 242.5t240 158t300 57.5q213 0 386 -98t271.5 -272.5t98.5 -391.5t-98.5 -391.5t-271.5 -272.5t-386 -98zM870 94q136 0 250.5 51t190 137.5t117.5 201t42 241.5
q0 171 -71 313.5t-209.5 231t-319.5 88.5t-319.5 -88.5t-209.5 -231t-71 -313.5q0 -127 42 -241.5t117.5 -201t190 -137.5t250.5 -51z" />
    <glyph glyph-name="Oacute" unicode="&#xd3;" horiz-adv-x="1740" 
d="M872 1565h-120l206 295h187zM870 -37q-160 0 -300 57.5t-240 158t-157.5 242.5t-57.5 304t57.5 304t157.5 242.5t240 158t300 57.5q213 0 386 -98t271.5 -272.5t98.5 -391.5t-98.5 -391.5t-271.5 -272.5t-386 -98zM870 94q136 0 250.5 51t190 137.5t117.5 201t42 241.5
q0 171 -71 313.5t-209.5 231t-319.5 88.5t-319.5 -88.5t-209.5 -231t-71 -313.5q0 -127 42 -241.5t117.5 -201t190 -137.5t250.5 -51z" />
    <glyph glyph-name="Ocircumflex" unicode="&#xd4;" horiz-adv-x="1740" 
d="M700 1565h-135l223 295h164l224 -295h-136l-170 221zM870 -37q-160 0 -300 57.5t-240 158t-157.5 242.5t-57.5 304t57.5 304t157.5 242.5t240 158t300 57.5q213 0 386 -98t271.5 -272.5t98.5 -391.5t-98.5 -391.5t-271.5 -272.5t-386 -98zM870 94q136 0 250.5 51
t190 137.5t117.5 201t42 241.5q0 171 -71 313.5t-209.5 231t-319.5 88.5t-319.5 -88.5t-209.5 -231t-71 -313.5q0 -127 42 -241.5t117.5 -201t190 -137.5t250.5 -51z" />
    <glyph glyph-name="Otilde" unicode="&#xd5;" horiz-adv-x="1740" 
d="M627 1589h-88q36 213 188 213q50 0 150 -47q3 -1 16 -7.5t16.5 -8t15 -6.5t16.5 -7l15 -6t15.5 -5.5t14 -3.5t15 -2.5t13.5 -0.5q76 0 100 102h88q-36 -213 -188 -213q-60 0 -150 48q-88 47 -137 47q-76 0 -100 -103zM870 -37q-160 0 -300 57.5t-240 158t-157.5 242.5
t-57.5 304t57.5 304t157.5 242.5t240 158t300 57.5q213 0 386 -98t271.5 -272.5t98.5 -391.5t-98.5 -391.5t-271.5 -272.5t-386 -98zM870 94q136 0 250.5 51t190 137.5t117.5 201t42 241.5q0 171 -71 313.5t-209.5 231t-319.5 88.5t-319.5 -88.5t-209.5 -231t-71 -313.5
q0 -127 42 -241.5t117.5 -201t190 -137.5t250.5 -51z" />
    <glyph glyph-name="Odieresis" unicode="&#xd6;" horiz-adv-x="1740" 
d="M674 1630q-44 0 -74.5 32t-30.5 73t30.5 72.5t74.5 31.5t74 -31.5t30 -72.5t-30 -73t-74 -32zM1067 1630q-44 0 -74 32t-30 73t30 72.5t74 31.5t74 -31.5t30 -72.5t-30 -73t-74 -32zM870 -37q-160 0 -300 57.5t-240 158t-157.5 242.5t-57.5 304t57.5 304t157.5 242.5
t240 158t300 57.5q213 0 386 -98t271.5 -272.5t98.5 -391.5t-98.5 -391.5t-271.5 -272.5t-386 -98zM870 94q136 0 250.5 51t190 137.5t117.5 201t42 241.5q0 171 -71 313.5t-209.5 231t-319.5 88.5t-319.5 -88.5t-209.5 -231t-71 -313.5q0 -127 42 -241.5t117.5 -201
t190 -137.5t250.5 -51z" />
    <glyph glyph-name="multiply" unicode="&#xd7;" horiz-adv-x="1363" 
d="M682 532l-326 -325l-86 88l326 326l-326 327l86 86l326 -325l324 325l88 -86l-326 -327l326 -326l-88 -88z" />
    <glyph glyph-name="Oslash" unicode="&#xd8;" horiz-adv-x="1740" 
d="M387 129l-156 -166l-75 70l155 168q-196 209 -196 524q0 162 57.5 304t157.5 242.5t240 158t300 57.5q279 0 484 -166l155 166l76 -70l-155 -168q196 -209 196 -524q0 -217 -98.5 -391.5t-271.5 -272.5t-386 -98q-280 0 -483 166zM412 307l850 912q-152 139 -392 139
q-137 0 -252 -51.5t-190 -138.5t-116.5 -201.5t-41.5 -241.5q0 -119 36.5 -228t105.5 -190zM870 94q138 0 252.5 51t189.5 138t116.5 201t41.5 241q0 118 -35 227t-102 191l-850 -912q156 -137 387 -137z" />
    <glyph glyph-name="Ugrave" unicode="&#xd9;" horiz-adv-x="1454" 
d="M852 1565h-121l-272 295h186zM727 -37q-125 0 -222.5 37.5t-156.5 96t-97.5 137t-52.5 153.5t-14 154v909h148v-893q0 -73 12.5 -138t42 -125.5t74 -104t112.5 -69.5t154 -26t154 26t112.5 69.5t74 104t42 125.5t12.5 138v893h148v-909q0 -79 -14 -154t-52.5 -153.5
t-97.5 -137t-156.5 -96t-222.5 -37.5z" />
    <glyph glyph-name="Uacute" unicode="&#xda;" horiz-adv-x="1454" 
d="M748 1565h-121l207 295h186zM727 -37q-125 0 -222.5 37.5t-156.5 96t-97.5 137t-52.5 153.5t-14 154v909h148v-893q0 -73 12.5 -138t42 -125.5t74 -104t112.5 -69.5t154 -26t154 26t112.5 69.5t74 104t42 125.5t12.5 138v893h148v-909q0 -79 -14 -154t-52.5 -153.5
t-97.5 -137t-156.5 -96t-222.5 -37.5z" />
    <glyph glyph-name="Ucircumflex" unicode="&#xdb;" horiz-adv-x="1454" 
d="M557 1565h-135l223 295h164l223 -295h-135l-170 221zM727 -37q-125 0 -222.5 37.5t-156.5 96t-97.5 137t-52.5 153.5t-14 154v909h148v-893q0 -73 12.5 -138t42 -125.5t74 -104t112.5 -69.5t154 -26t154 26t112.5 69.5t74 104t42 125.5t12.5 138v893h148v-909
q0 -79 -14 -154t-52.5 -153.5t-97.5 -137t-156.5 -96t-222.5 -37.5z" />
    <glyph glyph-name="Udieresis" unicode="&#xdc;" horiz-adv-x="1454" 
d="M532 1630q-44 0 -74 32t-30 73t30 72.5t74 31.5t74.5 -31.5t30.5 -72.5t-30.5 -73t-74.5 -32zM926 1630q-44 0 -74.5 32t-30.5 73t30.5 72.5t74.5 31.5t74 -31.5t30 -72.5t-30 -73t-74 -32zM727 -37q-125 0 -222.5 37.5t-156.5 96t-97.5 137t-52.5 153.5t-14 154v909h148
v-893q0 -73 12.5 -138t42 -125.5t74 -104t112.5 -69.5t154 -26t154 26t112.5 69.5t74 104t42 125.5t12.5 138v893h148v-909q0 -79 -14 -154t-52.5 -153.5t-97.5 -137t-156.5 -96t-222.5 -37.5z" />
    <glyph glyph-name="Yacute" unicode="&#xdd;" horiz-adv-x="1232" 
d="M770 1860h186l-272 -295h-121zM621 748l440 702h172l-543 -825v-625h-147v625l-543 825h184z" />
    <glyph glyph-name="Thorn" unicode="&#xde;" horiz-adv-x="1187" 
d="M340 0h-147v1450h147v-317h262q228 0 359 -99t131 -289t-133 -289.5t-361 -99.5h-258v-356zM340 1001v-516h238q173 0 263.5 66t90.5 194q0 256 -354 256h-238z" />
    <glyph glyph-name="germandbls" unicode="&#xdf;" horiz-adv-x="1222" 
d="M625 -25q-53 0 -113 11v116q54 -8 98 -8q164 0 262.5 98t98.5 267q0 174 -106.5 266t-289.5 92h-18v123h16q131 0 210 65t79 193q0 118 -74 185t-184 67q-69 0 -121.5 -22t-83 -56t-49 -81t-25 -90t-6.5 -91v-1110h-139v1114q0 68 12 130t42.5 123.5t77.5 106t123.5 72
t174.5 27.5q163 0 278.5 -99t115.5 -264q0 -240 -238 -325v-4q156 -19 253 -135t97 -289q0 -219 -133.5 -350.5t-357.5 -131.5z" />
    <glyph glyph-name="agrave" unicode="&#xe0;" horiz-adv-x="1093" 
d="M688 1155h-121l-272 295h186zM444 -25q-58 0 -113.5 16t-105.5 49t-81 91.5t-31 134.5q0 61 19.5 110t51 82t83 57.5t104 38t125.5 21.5t136.5 10.5t147.5 2.5h8v30q0 124 -65 186t-191 62q-83 0 -157.5 -30t-126.5 -82l-78 92q61 61 160 99t217 38q163 0 268 -90
t105 -258v-420q0 -130 16 -215h-125q-14 82 -14 156h-4q-66 -95 -149.5 -138t-199.5 -43zM481 90q142 0 224.5 92t82.5 226v71h-40q-63 0 -116 -3t-112 -10t-104 -22t-82.5 -37t-57.5 -56.5t-20 -78.5q0 -65 34.5 -107.5t83 -58.5t107.5 -16z" />
    <glyph glyph-name="aacute" unicode="&#xe1;" horiz-adv-x="1093" 
d="M561 1155h-121l207 295h187zM444 -25q-58 0 -113.5 16t-105.5 49t-81 91.5t-31 134.5q0 61 19.5 110t51 82t83 57.5t104 38t125.5 21.5t136.5 10.5t147.5 2.5h8v30q0 124 -65 186t-191 62q-83 0 -157.5 -30t-126.5 -82l-78 92q61 61 160 99t217 38q163 0 268 -90
t105 -258v-420q0 -130 16 -215h-125q-14 82 -14 156h-4q-66 -95 -149.5 -138t-199.5 -43zM481 90q142 0 224.5 92t82.5 226v71h-40q-63 0 -116 -3t-112 -10t-104 -22t-82.5 -37t-57.5 -56.5t-20 -78.5q0 -65 34.5 -107.5t83 -58.5t107.5 -16z" />
    <glyph glyph-name="acircumflex" unicode="&#xe2;" horiz-adv-x="1093" 
d="M381 1155h-135l223 295h164l223 -295h-135l-170 221zM444 -25q-58 0 -113.5 16t-105.5 49t-81 91.5t-31 134.5q0 61 19.5 110t51 82t83 57.5t104 38t125.5 21.5t136.5 10.5t147.5 2.5h8v30q0 124 -65 186t-191 62q-83 0 -157.5 -30t-126.5 -82l-78 92q61 61 160 99
t217 38q163 0 268 -90t105 -258v-420q0 -130 16 -215h-125q-14 82 -14 156h-4q-66 -95 -149.5 -138t-199.5 -43zM481 90q142 0 224.5 92t82.5 226v71h-40q-63 0 -116 -3t-112 -10t-104 -22t-82.5 -37t-57.5 -56.5t-20 -78.5q0 -65 34.5 -107.5t83 -58.5t107.5 -16z" />
    <glyph glyph-name="atilde" unicode="&#xe3;" horiz-adv-x="1093" 
d="M299 1180h-88q36 213 188 213q58 0 150 -47q5 -2 20.5 -9.5t21.5 -10.5t19 -8.5t20.5 -8t18.5 -6t19.5 -4.5t17.5 -1q76 0 100 103h88q-36 -213 -188 -213q-61 0 -149 47t-138 47q-76 0 -100 -102zM444 -25q-58 0 -113.5 16t-105.5 49t-81 91.5t-31 134.5q0 61 19.5 110
t51 82t83 57.5t104 38t125.5 21.5t136.5 10.5t147.5 2.5h8v30q0 124 -65 186t-191 62q-83 0 -157.5 -30t-126.5 -82l-78 92q61 61 160 99t217 38q163 0 268 -90t105 -258v-420q0 -130 16 -215h-125q-14 82 -14 156h-4q-66 -95 -149.5 -138t-199.5 -43zM481 90
q142 0 224.5 92t82.5 226v71h-40q-63 0 -116 -3t-112 -10t-104 -22t-82.5 -37t-57.5 -56.5t-20 -78.5q0 -65 34.5 -107.5t83 -58.5t107.5 -16z" />
    <glyph glyph-name="adieresis" unicode="&#xe4;" horiz-adv-x="1093" 
d="M348 1221q-44 0 -74 31.5t-30 72.5t30 73t74 32t74.5 -32t30.5 -73t-30.5 -72.5t-74.5 -31.5zM741 1221q-44 0 -74 31.5t-30 72.5t30 73t74 32t74.5 -32t30.5 -73t-30.5 -72.5t-74.5 -31.5zM444 -25q-58 0 -113.5 16t-105.5 49t-81 91.5t-31 134.5q0 61 19.5 110t51 82
t83 57.5t104 38t125.5 21.5t136.5 10.5t147.5 2.5h8v30q0 124 -65 186t-191 62q-83 0 -157.5 -30t-126.5 -82l-78 92q61 61 160 99t217 38q163 0 268 -90t105 -258v-420q0 -130 16 -215h-125q-14 82 -14 156h-4q-66 -95 -149.5 -138t-199.5 -43zM481 90q142 0 224.5 92
t82.5 226v71h-40q-63 0 -116 -3t-112 -10t-104 -22t-82.5 -37t-57.5 -56.5t-20 -78.5q0 -65 34.5 -107.5t83 -58.5t107.5 -16z" />
    <glyph glyph-name="aring" unicode="&#xe5;" horiz-adv-x="1093" 
d="M543 1137q-81 0 -139 56t-58 138t58 138.5t139 56.5q80 0 138 -56.5t58 -138.5t-57.5 -138t-138.5 -56zM543 1210q51 0 87 35t36 86t-36 86t-87 35t-87 -35t-36 -86t36 -86t87 -35zM444 -25q-58 0 -113.5 16t-105.5 49t-81 91.5t-31 134.5q0 61 19.5 110t51 82t83 57.5
t104 38t125.5 21.5t136.5 10.5t147.5 2.5h8v30q0 124 -65 186t-191 62q-83 0 -157.5 -30t-126.5 -82l-78 92q61 61 160 99t217 38q163 0 268 -90t105 -258v-420q0 -130 16 -215h-125q-14 82 -14 156h-4q-66 -95 -149.5 -138t-199.5 -43zM481 90q142 0 224.5 92t82.5 226v71
h-40q-63 0 -116 -3t-112 -10t-104 -22t-82.5 -37t-57.5 -56.5t-20 -78.5q0 -65 34.5 -107.5t83 -58.5t107.5 -16z" />
    <glyph glyph-name="ae" unicode="&#xe6;" horiz-adv-x="1781" 
d="M461 -25q-52 0 -100 9.5t-93.5 31t-79 53t-53.5 80t-20 107.5q0 56 20 101t52.5 76t83.5 53.5t104 35t124 20t132.5 9.5t140.5 2h6v31q0 129 -62.5 205.5t-183.5 76.5q-83 0 -160 -30t-134 -82l-80 90q64 61 170 100t225 39q114 0 197 -53t118 -148q58 92 154.5 146.5
t208.5 54.5q139 0 239.5 -65t148.5 -170.5t48 -239.5q0 -48 -2 -66h-758q3 -146 99.5 -248t234.5 -102q97 0 174 48t119 118l100 -80q-155 -203 -393 -203q-133 0 -233 60t-148 164q-95 -224 -399 -224zM913 553h613q0 139 -79.5 226t-215.5 87q-125 0 -219 -94.5
t-99 -218.5zM485 88q144 0 218.5 76.5t74.5 208.5v69h-41q-71 0 -122.5 -2t-111 -8t-100 -19t-75.5 -32.5t-52.5 -50.5t-17.5 -72q0 -170 227 -170z" />
    <glyph glyph-name="ccedilla" unicode="&#xe7;" horiz-adv-x="1024" 
d="M557 -471q-105 0 -192 41l32 74q65 -29 148 -29q43 0 87 22.5t44 67.5q0 39 -29.5 59.5t-81.5 20.5q-45 0 -88 -16l-37 30l113 181q-198 23 -318 160.5t-120 338.5q0 219 141.5 361.5t370.5 142.5q102 0 199.5 -43t156.5 -123l-109 -78q-34 56 -101 91.5t-144 35.5
q-165 0 -266 -110t-101 -277q0 -166 100.5 -275.5t264.5 -109.5q167 0 260 125l104 -78q-131 -160 -352 -166l-80 -129q30 9 72 9q67 0 117.5 -39.5t50.5 -108.5q0 -49 -21.5 -85t-58 -55.5t-77 -28.5t-85.5 -9z" />
    <glyph glyph-name="egrave" unicode="&#xe8;" horiz-adv-x="1171" 
d="M700 1155h-120l-273 295h187zM610 -25q-214 0 -354.5 143.5t-140.5 360.5q0 216 139 360t344 144q146 0 251.5 -65t156.5 -171t51 -239q0 -41 -2 -66h-795q3 -146 103 -247t247 -101q101 0 183 48t125 118l104 -82q-160 -203 -412 -203zM262 553h653q-6 140 -89 226.5
t-228 86.5q-136 0 -231.5 -93t-104.5 -220z" />
    <glyph glyph-name="eacute" unicode="&#xe9;" horiz-adv-x="1171" 
d="M635 1155h-121l207 295h186zM610 -25q-214 0 -354.5 143.5t-140.5 360.5q0 216 139 360t344 144q146 0 251.5 -65t156.5 -171t51 -239q0 -41 -2 -66h-795q3 -146 103 -247t247 -101q101 0 183 48t125 118l104 -82q-160 -203 -412 -203zM262 553h653q-6 140 -89 226.5
t-228 86.5q-136 0 -231.5 -93t-104.5 -220z" />
    <glyph glyph-name="ecircumflex" unicode="&#xea;" horiz-adv-x="1171" 
d="M442 1155h-135l223 295h164l224 -295h-136l-170 221zM610 -25q-214 0 -354.5 143.5t-140.5 360.5q0 216 139 360t344 144q146 0 251.5 -65t156.5 -171t51 -239q0 -41 -2 -66h-795q3 -146 103 -247t247 -101q101 0 183 48t125 118l104 -82q-160 -203 -412 -203zM262 553
h653q-6 140 -89 226.5t-228 86.5q-136 0 -231.5 -93t-104.5 -220z" />
    <glyph glyph-name="edieresis" unicode="&#xeb;" horiz-adv-x="1171" 
d="M416 1221q-44 0 -74.5 31.5t-30.5 72.5t30.5 73t74.5 32t74 -32t30 -73t-30 -72.5t-74 -31.5zM809 1221q-44 0 -74 31.5t-30 72.5t30 73t74 32t74 -32t30 -73t-30 -72.5t-74 -31.5zM610 -25q-214 0 -354.5 143.5t-140.5 360.5q0 216 139 360t344 144q146 0 251.5 -65
t156.5 -171t51 -239q0 -41 -2 -66h-795q3 -146 103 -247t247 -101q101 0 183 48t125 118l104 -82q-160 -203 -412 -203zM262 553h653q-6 140 -89 226.5t-228 86.5q-136 0 -231.5 -93t-104.5 -220z" />
    <glyph glyph-name="igrave" unicode="&#xec;" horiz-adv-x="512" 
d="M326 1155h-121l-273 295h187zM326 0h-140v961h140v-961z" />
    <glyph glyph-name="iacute" unicode="&#xed;" horiz-adv-x="512" 
d="M307 1155h-121l207 295h187zM326 0h-140v961h140v-961z" />
    <glyph glyph-name="icircumflex" unicode="&#xee;" horiz-adv-x="512" 
d="M90 1155h-135l223 295h164l223 -295h-135l-170 221zM326 0h-140v961h140v-961z" />
    <glyph glyph-name="idieresis" unicode="&#xef;" horiz-adv-x="512" 
d="M61 1221q-44 0 -74 31.5t-30 72.5t30 73t74 32t74.5 -32t30.5 -73t-30.5 -72.5t-74.5 -31.5zM455 1221q-44 0 -74.5 31.5t-30.5 72.5t30.5 73t74.5 32t74 -32t30 -73t-30 -72.5t-74 -31.5zM326 0h-140v961h140v-961z" />
    <glyph glyph-name="eth" unicode="&#xf0;" horiz-adv-x="1251" 
d="M606 -25q-222 0 -365 143t-143 361t143 361t365 143q88 0 160.5 -28.5t146.5 -90.5l5 4q-116 244 -320 420l-229 -117l-74 74l225 115q-56 55 -205 158l121 75q119 -87 205 -168l209 109l82 -72l-211 -110q177 -164 286 -383.5t109 -452.5q0 -77 -16.5 -151t-55.5 -145.5
t-96 -125t-145.5 -86.5t-196.5 -33zM606 98q164 0 263.5 108t99.5 273t-99.5 273t-263.5 108q-163 0 -261.5 -108t-98.5 -273t98.5 -273t261.5 -108z" />
    <glyph glyph-name="ntilde" unicode="&#xf1;" horiz-adv-x="1189" 
d="M356 1180h-88q36 213 189 213q57 0 149 -47q5 -2 20.5 -9.5t21.5 -10.5t19 -8.5t20.5 -8t18.5 -6t19.5 -4.5t17.5 -1q77 0 101 103h88q-36 -213 -189 -213q-61 0 -149 47t-137 47q-77 0 -101 -102zM324 0h-140v748q0 125 -8 213h133q8 -102 8 -166h5q39 83 132 135.5
t195 52.5q179 0 272 -106t93 -289v-588h-140v530q0 79 -12.5 138t-41.5 105t-80.5 69.5t-125.5 23.5q-120 0 -205 -96.5t-85 -277.5v-492z" />
    <glyph glyph-name="ograve" unicode="&#xf2;" horiz-adv-x="1251" 
d="M707 1155h-121l-273 295h187zM625 -25q-222 0 -366 143t-144 361t144 361t366 143q223 0 367.5 -143t144.5 -361t-144.5 -361t-367.5 -143zM625 94q164 0 264 110t100 275t-100 276t-264 111q-162 0 -262.5 -111t-100.5 -276t100 -275t263 -110z" />
    <glyph glyph-name="oacute" unicode="&#xf3;" horiz-adv-x="1251" 
d="M662 1155h-121l207 295h186zM625 -25q-222 0 -366 143t-144 361t144 361t366 143q223 0 367.5 -143t144.5 -361t-144.5 -361t-367.5 -143zM625 94q164 0 264 110t100 275t-100 276t-264 111q-162 0 -262.5 -111t-100.5 -276t100 -275t263 -110z" />
    <glyph glyph-name="ocircumflex" unicode="&#xf4;" horiz-adv-x="1251" 
d="M455 1155h-136l224 295h164l223 -295h-135l-170 221zM625 -25q-222 0 -366 143t-144 361t144 361t366 143q223 0 367.5 -143t144.5 -361t-144.5 -361t-367.5 -143zM625 94q164 0 264 110t100 275t-100 276t-264 111q-162 0 -262.5 -111t-100.5 -276t100 -275t263 -110z
" />
    <glyph glyph-name="otilde" unicode="&#xf5;" horiz-adv-x="1251" 
d="M381 1180h-88q36 213 188 213q58 0 150 -47q5 -2 20.5 -9.5t21.5 -10.5t19 -8.5t20.5 -8t18.5 -6t19.5 -4.5t17.5 -1q76 0 100 103h88q-36 -213 -188 -213q-62 0 -150 47t-137 47q-76 0 -100 -102zM625 -25q-222 0 -366 143t-144 361t144 361t366 143q223 0 367.5 -143
t144.5 -361t-144.5 -361t-367.5 -143zM625 94q164 0 264 110t100 275t-100 276t-264 111q-162 0 -262.5 -111t-100.5 -276t100 -275t263 -110z" />
    <glyph glyph-name="odieresis" unicode="&#xf6;" horiz-adv-x="1251" 
d="M428 1221q-44 0 -74 31.5t-30 72.5t30 73t74 32t74 -32t30 -73t-30 -72.5t-74 -31.5zM821 1221q-44 0 -74 31.5t-30 72.5t30 73t74 32t74.5 -32t30.5 -73t-30.5 -72.5t-74.5 -31.5zM625 -25q-222 0 -366 143t-144 361t144 361t366 143q223 0 367.5 -143t144.5 -361
t-144.5 -361t-367.5 -143zM625 94q164 0 264 110t100 275t-100 276t-264 111q-162 0 -262.5 -111t-100.5 -276t100 -275t263 -110z" />
    <glyph glyph-name="divide" unicode="&#xf7;" horiz-adv-x="1363" 
d="M682 842q-48 0 -79.5 33t-31.5 77t31.5 77.5t79.5 33.5t79.5 -33.5t31.5 -77.5t-31.5 -77t-79.5 -33zM1204 559h-1044v123h1044v-123zM682 178q-48 0 -79.5 33.5t-31.5 77.5t31.5 77t79.5 33t79.5 -33t31.5 -77t-31.5 -77.5t-79.5 -33.5z" />
    <glyph glyph-name="oslash" unicode="&#xf8;" horiz-adv-x="1251" 
d="M301 82l-137 -139l-66 63l135 139q-118 137 -118 334q0 218 143 361t365 143q188 0 325 -106l135 139l66 -64l-135 -139q123 -140 123 -334q0 -217 -145 -360.5t-369 -143.5q-189 0 -322 107zM326 238l536 550q-39 39 -102 60.5t-135 21.5q-166 0 -267.5 -112
t-101.5 -279q0 -149 70 -241zM621 88q167 0 270.5 111.5t103.5 279.5q0 152 -73 240l-537 -551q100 -80 236 -80z" />
    <glyph glyph-name="ugrave" unicode="&#xf9;" horiz-adv-x="1189" 
d="M690 1155h-121l-272 295h186zM541 -25q-179 0 -272 106t-93 290v590h139v-533q0 -79 12.5 -138t41.5 -105t80.5 -69.5t125.5 -23.5q120 0 205.5 97t85.5 278v494h140v-750q0 -123 8 -211h-133q-9 115 -9 164h-4q-39 -83 -132 -136t-195 -53z" />
    <glyph glyph-name="uacute" unicode="&#xfa;" horiz-adv-x="1189" 
d="M614 1155h-120l206 295h187zM541 -25q-179 0 -272 106t-93 290v590h139v-533q0 -79 12.5 -138t41.5 -105t80.5 -69.5t125.5 -23.5q120 0 205.5 97t85.5 278v494h140v-750q0 -123 8 -211h-133q-9 115 -9 164h-4q-39 -83 -132 -136t-195 -53z" />
    <glyph glyph-name="ucircumflex" unicode="&#xfb;" horiz-adv-x="1189" 
d="M422 1155h-135l223 295h164l223 -295h-135l-170 221zM541 -25q-179 0 -272 106t-93 290v590h139v-533q0 -79 12.5 -138t41.5 -105t80.5 -69.5t125.5 -23.5q120 0 205.5 97t85.5 278v494h140v-750q0 -123 8 -211h-133q-9 115 -9 164h-4q-39 -83 -132 -136t-195 -53z" />
    <glyph glyph-name="udieresis" unicode="&#xfc;" horiz-adv-x="1189" 
d="M395 1221q-44 0 -74 31.5t-30 72.5t30 73t74 32t74.5 -32t30.5 -73t-30.5 -72.5t-74.5 -31.5zM788 1221q-44 0 -74 31.5t-30 72.5t30 73t74 32t74.5 -32t30.5 -73t-30.5 -72.5t-74.5 -31.5zM541 -25q-179 0 -272 106t-93 290v590h139v-533q0 -79 12.5 -138t41.5 -105
t80.5 -69.5t125.5 -23.5q120 0 205.5 97t85.5 278v494h140v-750q0 -123 8 -211h-133q-9 115 -9 164h-4q-39 -83 -132 -136t-195 -53z" />
    <glyph glyph-name="yacute" unicode="&#xfd;" horiz-adv-x="999" 
d="M547 1155h-121l207 295h186zM188 -492q-58 0 -125 13l15 127q53 -17 102 -17q67 0 109.5 42t75.5 128l77 201l-409 959h155l326 -811h4l297 811h152l-478 -1209q-47 -121 -115.5 -182.5t-185.5 -61.5z" />
    <glyph glyph-name="thorn" unicode="&#xfe;" horiz-adv-x="1296" 
d="M324 -492h-136v2040h136v-755h4q60 92 155 141t201 49q214 0 356 -143.5t142 -360.5t-142 -360.5t-356 -143.5q-109 0 -203.5 48t-152.5 139h-4v-654zM672 98q164 0 263 108t99 273t-99 273t-263 108q-163 0 -262 -108t-99 -273t99 -273t262 -108z" />
    <glyph glyph-name="ydieresis" unicode="&#xff;" horiz-adv-x="999" 
d="M319 1221q-44 0 -74 31.5t-30 72.5t30 73t74 32t74.5 -32t30.5 -73t-30.5 -72.5t-74.5 -31.5zM713 1221q-44 0 -74.5 31.5t-30.5 72.5t30.5 73t74.5 32t74 -32t30 -73t-30 -72.5t-74 -31.5zM188 -492q-58 0 -125 13l15 127q53 -17 102 -17q67 0 109.5 42t75.5 128l77 201
l-409 959h155l326 -811h4l297 811h152l-478 -1209q-47 -121 -115.5 -182.5t-185.5 -61.5z" />
    <glyph glyph-name="dotlessi" unicode="&#x131;" horiz-adv-x="512" 
d="M326 0h-140v961h140v-961z" />
    <glyph glyph-name="Lslash" unicode="&#x141;" horiz-adv-x="1044" 
d="M1016 0h-823v496l-168 -144v144l168 143v811h147v-709l442 381v-143l-442 -381v-467h676v-131z" />
    <glyph glyph-name="lslash" unicode="&#x142;" horiz-adv-x="516" 
d="M324 0h-136v678l-165 -170v149l165 168v723h136v-610l165 172v-149l-165 -170v-791z" />
    <glyph glyph-name="OE" unicode="&#x152;" horiz-adv-x="2031" 
d="M1935 0h-1028q-110 0 -218 28.5t-206.5 88.5t-173.5 144t-119.5 204t-44.5 260t44.5 260t119.5 204t173.5 144t206.5 88.5t218 28.5h1004v-131h-682v-500h633v-129h-633v-559h706v-131zM948 131h133v1188h-133q-158 0 -284 -50.5t-204 -135t-118.5 -189t-40.5 -219.5
t40.5 -219.5t118.5 -189t204 -135t284 -50.5z" />
    <glyph glyph-name="oe" unicode="&#x153;" horiz-adv-x="2035" 
d="M623 -25q-222 0 -365 143t-143 361t143 361t365 143q143 0 253.5 -61.5t176.5 -171.5q64 109 170 171t237 62q147 0 253 -65t157 -170.5t51 -239.5q0 -41 -2 -66h-799q3 -145 105.5 -246.5t249.5 -101.5q101 0 182.5 48t124.5 118l104 -82q-160 -203 -413 -203
q-137 0 -245.5 62t-172.5 172q-66 -110 -177.5 -172t-254.5 -62zM623 94q164 0 265 110t101 275t-101 276t-265 111q-163 0 -264 -111t-101 -276q0 -164 101 -274.5t264 -110.5zM1126 553h654q-6 140 -89.5 226.5t-228.5 86.5q-136 0 -231.5 -93t-104.5 -220z" />
    <glyph glyph-name="Scaron" unicode="&#x160;" horiz-adv-x="1155" 
d="M668 1565h-164l-223 295h135l170 -222l170 222h135zM559 -37q-136 0 -258.5 55.5t-198.5 159.5l127 94q50 -81 136.5 -131.5t195.5 -50.5q78 0 150 30.5t122 96.5t50 154q0 72 -24.5 123t-87 88t-102.5 52.5t-136 45.5q-3 1 -5 2q-47 14 -83 27t-78.5 33t-73.5 41.5
t-61.5 52.5t-49.5 66.5t-31 82.5t-12 102q0 81 28 149t73.5 113.5t106.5 77t125 46t130 14.5q138 0 245.5 -50t164.5 -126l-117 -94q-101 145 -299 145q-55 0 -108.5 -17t-99 -49t-73.5 -85.5t-28 -120.5q0 -30 6 -56.5t14 -47t26 -40.5t31 -33t40.5 -28t43 -23t50 -21
t50.5 -18.5t54 -17.5q161 -54 223 -86q156 -81 193 -225q14 -52 14 -113q0 -84 -27.5 -154.5t-73 -118.5t-107 -81.5t-128.5 -48.5t-137 -15z" />
    <glyph glyph-name="scaron" unicode="&#x161;" horiz-adv-x="909" 
d="M553 1155h-164l-223 295h135l170 -221l170 221h135zM457 -25q-114 0 -215 47t-164 140l110 82q38 -65 111 -107.5t156 -42.5q99 0 162 40t63 128q0 70 -67 109.5t-216 74.5q-42 10 -73 20t-71.5 30.5t-66.5 46.5t-44.5 68t-18.5 94q0 70 28.5 125t77.5 87.5t109 49
t127 16.5q103 0 197.5 -46.5t138.5 -125.5l-107 -80q-31 61 -94 98t-141 37q-84 0 -143.5 -37.5t-59.5 -111.5q0 -66 53.5 -102t175.5 -62q171 -36 251.5 -103t80.5 -178q0 -64 -20.5 -115t-55 -84.5t-81.5 -56t-97.5 -32t-105.5 -9.5z" />
    <glyph glyph-name="Ydieresis" unicode="&#x178;" horiz-adv-x="1232" 
d="M424 1630q-44 0 -74.5 32t-30.5 73t30.5 72.5t74.5 31.5t74 -31.5t30 -72.5t-30 -73t-74 -32zM817 1630q-44 0 -74 32t-30 73t30 72.5t74 31.5t74.5 -31.5t30.5 -72.5t-30.5 -73t-74.5 -32zM621 748l440 702h172l-543 -825v-625h-147v625l-543 825h184z" />
    <glyph glyph-name="Zcaron" unicode="&#x17d;" horiz-adv-x="1171" 
d="M670 1565h-164l-223 295h135l170 -222l170 222h135zM1108 0h-1045v123l848 1196h-825v131h1010v-123l-846 -1196h858v-131z" />
    <glyph glyph-name="zcaron" unicode="&#x17e;" horiz-adv-x="905" 
d="M543 1155h-164l-223 295h135l170 -221l170 221h135zM842 0h-779v98l572 746h-543v117h729v-99l-573 -741h594v-121z" />
    <glyph glyph-name="florin" unicode="&#x192;" horiz-adv-x="1187" 
d="M207 -285q-97 0 -160 37l55 113q52 -27 109 -27q37 0 65.5 13t46 32.5t31 50.5t20.5 57.5t13 63.5l129 693h-221v110h244l55 295q13 68 33.5 122t56 101t91.5 73t130 26q113 0 195 -60l-70 -98q-49 35 -117 35q-145 0 -184 -238l-45 -256h221v-110h-243l-138 -721
q-12 -63 -31.5 -112t-54 -97.5t-93.5 -75.5t-138 -27z" />
    <glyph glyph-name="circumflex" unicode="&#x2c6;" horiz-adv-x="491" 
d="M76 1155h-135l223 295h164l223 -295h-135l-170 221z" />
    <glyph glyph-name="caron" unicode="&#x2c7;" horiz-adv-x="491" 
d="M328 1155h-164l-223 295h135l170 -221l170 221h135z" />
    <glyph glyph-name="breve" unicode="&#x2d8;" horiz-adv-x="491" 
d="M246 1180q-128 0 -211 72t-90 198h90q13 -77 72 -118.5t139 -41.5t139 41.5t72 118.5h90q-7 -126 -90 -198t-211 -72z" />
    <glyph glyph-name="dotaccent" unicode="&#x2d9;" horiz-adv-x="491" 
d="M246 1229q-38 0 -68.5 28.5t-30.5 69.5t30.5 69.5t68.5 28.5t68 -28.5t30 -69.5t-30 -69.5t-68 -28.5z" />
    <glyph glyph-name="ring" unicode="&#x2da;" horiz-adv-x="491" 
d="M246 1137q-81 0 -139 56t-58 138t58 138.5t139 56.5q80 0 138 -56.5t58 -138.5t-57.5 -138t-138.5 -56zM246 1210q51 0 87 35t36 86t-36 86t-87 35t-87 -35t-36 -86t36 -86t87 -35z" />
    <glyph glyph-name="ogonek" unicode="&#x2db;" horiz-adv-x="491" 
d="M250 -457q-78 0 -133.5 47.5t-55.5 126.5q0 125 183 287h90q-84 -84 -125 -142.5t-41 -117.5q0 -47 32 -78t79 -31q67 0 120 50l35 -70q-82 -72 -184 -72z" />
    <glyph glyph-name="tilde" unicode="&#x2dc;" horiz-adv-x="491" 
d="M2 1180h-88q36 213 188 213q58 0 150 -47q5 -2 20.5 -9.5t21.5 -10.5t19 -8.5t20.5 -8t18.5 -6t19.5 -4.5t17.5 -1q76 0 100 103h89q-36 -213 -189 -213q-61 0 -149 47t-138 47q-76 0 -100 -102z" />
    <glyph glyph-name="hungarumlaut" unicode="&#x2dd;" horiz-adv-x="491" 
d="M-4 1155h-121l207 295h186zM346 1155h-121l205 295h186z" />
    <glyph glyph-name="gravecomb" unicode="&#x300;" 
d="M197 1155h-121l-273 295h187z" />
    <glyph glyph-name="acutecomb" unicode="&#x301;" 
d="M-76 1155h-121l207 295h187z" />
    <glyph glyph-name="uni0302" unicode="&#x302;" 
d="M-170 1155h-135l223 295h164l223 -295h-135l-170 221z" />
    <glyph glyph-name="tildecomb" unicode="&#x303;" 
d="M-244 1180h-88q36 213 189 213q57 0 149 -47q5 -2 20.5 -9.5t21.5 -10.5t19 -8.5t20.5 -8t18.5 -6t19.5 -4.5t17.5 -1q77 0 101 103h88q-36 -213 -189 -213q-61 0 -149 47t-137 47q-77 0 -101 -102z" />
    <glyph glyph-name="uni0304" unicode="&#x304;" 
d="M276 1229h-552v110h552v-110z" />
    <glyph glyph-name="uni0306" unicode="&#x306;" 
d="M0 1180q-128 0 -211 72t-90 198h90q13 -77 72 -118.5t139 -41.5t139 41.5t72 118.5h90q-7 -126 -90 -198t-211 -72z" />
    <glyph glyph-name="uni0307" unicode="&#x307;" 
d="M0 1229q-38 0 -68 28.5t-30 69.5t30 69.5t68 28.5t68 -28.5t30 -69.5t-30 -69.5t-68 -28.5z" />
    <glyph glyph-name="uni0308" unicode="&#x308;" 
d="M-197 1221q-44 0 -74 31.5t-30 72.5t30 73t74 32t74.5 -32t30.5 -73t-30.5 -72.5t-74.5 -31.5zM197 1221q-44 0 -74.5 31.5t-30.5 72.5t30.5 73t74.5 32t74 -32t30 -73t-30 -72.5t-74 -31.5z" />
    <glyph glyph-name="hookabovecomb" unicode="&#x309;" 
d="M43 1137h-100q0 46 19.5 77t70.5 56q67 34 67 90q0 37 -24 59.5t-68 22.5q-46 0 -72.5 -25t-33.5 -82l-109 15q15 87 72 131.5t147 44.5q89 0 142 -45.5t53 -116.5q0 -106 -101 -152q-63 -30 -63 -75z" />
    <glyph glyph-name="uni030A" unicode="&#x30a;" 
d="M0 1137q-81 0 -139 56t-58 138t58 138.5t139 56.5t139 -56.5t58 -138.5t-58 -138t-139 -56zM0 1210q51 0 87 35t36 86t-36 86t-87 35t-87 -35t-36 -86t36 -86t87 -35z" />
    <glyph glyph-name="uni030B" unicode="&#x30b;" 
d="M-250 1155h-121l207 295h187zM100 1155h-120l204 295h187z" />
    <glyph glyph-name="uni030C" unicode="&#x30c;" 
d="M82 1155h-164l-223 295h135l170 -221l170 221h135z" />
    <glyph glyph-name="uni0312" unicode="&#x312;" 
d="M10 1155h-147l157 379h117z" />
    <glyph glyph-name="uni0313" unicode="&#x313;" 
d="M-20 1155h-117l127 379h145z" />
    <glyph glyph-name="uni031B" unicode="&#x31b;" 
d="M-72 1016h-118v98h100q79 0 118.5 35.5t39.5 97.5q0 60 -33 127l121 33q34 -78 34 -160q0 -105 -67.5 -168t-194.5 -63z" />
    <glyph glyph-name="dotbelowcomb" unicode="&#x323;" 
d="M0 -393q-38 0 -68 28.5t-30 69.5t30 69.5t68 28.5t68 -28.5t30 -69.5t-30 -69.5t-68 -28.5z" />
    <glyph glyph-name="uni0324" unicode="&#x324;" 
d="M-197 -459q-44 0 -74 32t-30 73t30 72.5t74 31.5t74.5 -31.5t30.5 -72.5t-30.5 -73t-74.5 -32zM197 -459q-44 0 -74.5 32t-30.5 73t30.5 72.5t74.5 31.5t74 -31.5t30 -72.5t-30 -73t-74 -32z" />
    <glyph glyph-name="uni0325" unicode="&#x325;" 
d="M0 -543q-81 0 -139 56.5t-58 138.5t58 138t139 56t139 -56t58 -138t-58 -138.5t-139 -56.5zM0 -469q51 0 87 35t36 86t-36 86t-87 35t-87 -35t-36 -86t36 -86t87 -35z" />
    <glyph glyph-name="uni0326" unicode="&#x326;" 
d="M-20 -471h-117l127 379h147z" />
    <glyph glyph-name="uni0327" unicode="&#x327;" 
d="M-25 -471q-105 0 -192 41l33 74q65 -29 147 -29q43 0 87 22.5t44 67.5q0 39 -29 59.5t-81 20.5q-45 0 -88 -16l-37 30l127 201h88l-97 -154q30 9 72 9q67 0 117.5 -39.5t50.5 -108.5q0 -49 -21.5 -85t-58 -55.5t-77 -28.5t-85.5 -9z" />
    <glyph glyph-name="uni0328" unicode="&#x328;" 
d="M2 -461q-78 0 -133 47.5t-55 126.5q0 126 182 287h90q-84 -84 -125 -142.5t-41 -117.5q0 -47 32 -78t79 -31q68 0 121 50l34 -70q-82 -72 -184 -72z" />
    <glyph glyph-name="uni032E" unicode="&#x32e;" 
d="M-6 -354q-128 0 -211 72t-90 198h90q13 -77 72 -118.5t139 -41.5t139 41.5t72 118.5h90q-7 -126 -90 -198t-211 -72z" />
    <glyph glyph-name="uni0330" unicode="&#x330;" 
d="M-244 -500h-88q36 213 189 213q57 0 149 -47q3 -1 16 -7.5t16.5 -8t15 -6.5t16.5 -7l15 -6t15.5 -5.5t14 -3.5t15 -2.5t13.5 -0.5q77 0 101 102h88q-36 -213 -189 -213q-59 0 -149 48q-88 47 -137 47q-77 0 -101 -103z" />
    <glyph glyph-name="uni0331" unicode="&#x331;" 
d="M276 -451h-552v111h552v-111z" />
    <glyph glyph-name="uni0394" unicode="&#x394;" horiz-adv-x="1443" 
d="M1382 0h-1321v98l596 1352h140l585 -1352v-98zM723 1288l-490 -1159h971l-479 1161z" />
    <glyph glyph-name="uni03A9" unicode="&#x3a9;" horiz-adv-x="1572" 
d="M664 0h-531v123h414v94q-199 65 -313.5 227.5t-114.5 384.5q0 153 53 278.5t144.5 208t213 127t258.5 44.5q189 0 340.5 -79.5t239.5 -230.5t88 -348q0 -223 -114 -385.5t-316 -226.5v-94h416v-123h-531v315q182 43 287 178.5t105 337.5q0 106 -33 200t-95.5 167.5
t-162.5 116.5t-224 43q-122 0 -221 -41.5t-163 -113t-98 -167t-34 -205.5q0 -205 105.5 -338.5t286.5 -177.5v-315z" />
    <glyph glyph-name="uni03BC" unicode="&#x3bc;" horiz-adv-x="1181" 
d="M1141 102l10 -110q-49 -10 -98 -10q-99 0 -137.5 50.5t-38.5 141.5v19h-5q-40 -98 -125.5 -159t-189.5 -61q-83 0 -144 30t-87 83h-4v-578h-140v1453h140v-547q0 -324 247 -324q131 0 216 101.5t85 269.5v500h140v-766q0 -55 16.5 -77t60.5 -22q27 0 54 6z" />
    <glyph glyph-name="uni10D0" unicode="&#x10d0;" horiz-adv-x="1087" 
d="M535 -27q-107 0 -194 34t-140.5 89.5t-82 123.5t-28.5 140q0 90 37 166l127 -45q-21 -53 -21 -119q0 -114 81.5 -192t220.5 -78t220 79t81 194q0 59 -20 108t-52.5 83.5t-71 66.5t-77.5 65t-71.5 69.5t-52.5 88.5t-20 115h143q1 -46 22 -86t53 -71t70.5 -62.5t76.5 -67.5
t70 -77.5t51.5 -101t19.5 -130.5q0 -75 -28.5 -144.5t-82 -125t-139.5 -89t-192 -33.5z" />
    <glyph glyph-name="uni10D1" unicode="&#x10d1;" horiz-adv-x="1241" 
d="M723 1112v-137q183 -29 296.5 -166t113.5 -330q0 -221 -143.5 -363.5t-368.5 -142.5t-367.5 143.5t-142.5 362.5q0 207 128.5 345t340.5 155v129q0 52 -17 90.5t-42 58.5t-55 45.5t-55 51t-42 75.5t-17 119h144q0 -44 12.5 -78.5t32.5 -58t44 -44.5t48.5 -43.5
t44.5 -49.5t32.5 -68.5t12.5 -93.5zM621 92q166 0 267 112t101 275q0 164 -101 275.5t-267 111.5q-167 0 -267 -111t-100 -276q0 -164 100 -275.5t267 -111.5z" />
    <glyph glyph-name="uni10D2" unicode="&#x10d2;" horiz-adv-x="1189" 
d="M596 -516q-226 0 -368 141t-142 361q0 200 120.5 330.5t317.5 162.5q260 44 260 221q0 82 -59.5 130.5t-157.5 48.5q-96 0 -153.5 -48t-57.5 -120q0 -20 11 -64l-129 -26q-21 35 -21 92q0 127 103 200.5t245 73.5q153 0 256 -76t103 -206q0 -89 -57 -157t-150 -93v-4
q174 -25 281.5 -153.5t107.5 -311.5q0 -220 -142.5 -361t-367.5 -141zM596 -397q165 0 267 110t102 273q0 162 -102 270.5t-267 108.5q-168 0 -268.5 -108t-100.5 -271q0 -164 100.5 -273.5t268.5 -109.5z" />
    <glyph glyph-name="uni10D3" unicode="&#x10d3;" horiz-adv-x="1757" 
d="M1294 -461l-118 -51q-28 73 -87 124.5t-138 78t-158 38t-168 11.5h-297v104h221v4q-90 25 -167.5 79t-138.5 135t-96.5 196.5t-35.5 251.5q0 231 102 354t272 123q129 0 214.5 -72t113.5 -184h4q39 116 141 186t246 70q195 0 319 -133.5t124 -345.5t-124.5 -344.5
t-328.5 -132.5q-203 0 -328 131.5t-125 345.5v70q0 75 -21 133t-56.5 91t-76.5 49.5t-85 16.5q-119 0 -183.5 -94.5t-64.5 -273.5q0 -132 39 -243t107.5 -189t157 -128.5t190.5 -70.5q233 -44 363 -118t183 -212zM1194 147q146 0 230.5 101.5t84.5 259.5q0 159 -84.5 261.5
t-230.5 102.5q-145 0 -230 -102.5t-85 -261.5q0 -158 85 -259.5t230 -101.5z" />
    <glyph glyph-name="uni10D4" unicode="&#x10d4;" horiz-adv-x="1212" 
d="M586 -516q-113 0 -205 36t-150 97.5t-89 138.5t-31 162q0 126 51 217l127 -45q-37 -75 -37 -170q0 -132 93.5 -225.5t244.5 -93.5t240.5 102t89.5 279v516q0 171 -86.5 271.5t-233.5 100.5q-135 0 -224 -75t-89 -205q0 -41 16 -94l-135 -25q-23 62 -23 123
q0 164 124.5 278.5t330.5 114.5q204 0 331.5 -129t127.5 -354v-531q0 -226 -130 -357.5t-343 -131.5z" />
    <glyph glyph-name="uni10D5" unicode="&#x10d5;" horiz-adv-x="1185" 
d="M592 -516q-115 0 -207.5 34.5t-151.5 94t-90.5 136t-31.5 161.5q0 101 36 174l127 -45q-22 -56 -22 -127q0 -130 94.5 -220.5t247.5 -90.5t247.5 85t94.5 230q0 82 -27.5 144.5t-74 98.5t-101.5 54t-115 18h-94v119h94q54 0 102.5 13.5t90.5 41.5t67 78t25 115
q0 118 -83 195t-222 77q-137 0 -223 -75t-86 -195q0 -39 10 -72l-135 -26q-17 49 -17 100q0 160 125.5 272.5t325.5 112.5q196 0 320 -110.5t124 -274.5q0 -125 -67 -203t-176 -104v-4q125 -31 201.5 -128.5t76.5 -256.5q0 -188 -135 -305t-350 -117z" />
    <glyph glyph-name="uni10D6" unicode="&#x10d6;" horiz-adv-x="1271" 
d="M657 -27q-221 0 -360 141t-139 357q0 116 47 216t133 159v4q-128 19 -215.5 120t-87.5 234q0 161 110.5 266t282.5 105q170 0 281.5 -102.5t111.5 -255.5q0 -169 -114 -252v-7q201 -9 327.5 -145t126.5 -342q0 -218 -140.5 -358t-363.5 -140zM428 942q113 0 183.5 77
t70.5 185t-70 183t-184 75q-116 0 -185 -74.5t-69 -183.5t69 -185.5t185 -76.5zM657 92q163 0 263 109.5t100 269.5q0 161 -100 271t-263 110t-260.5 -109.5t-97.5 -271.5q0 -104 42 -189.5t125 -137.5t191 -52z" />
    <glyph glyph-name="uni10D7" unicode="&#x10d7;" horiz-adv-x="1794" 
d="M1497 -23l-119 52q76 107 120 225t44 270q0 168 -66 256t-184 88q-44 0 -85 -17.5t-77.5 -52t-58.5 -96.5t-22 -143q0 -13 1 -38.5t1 -41.5q0 -226 -129.5 -366t-341.5 -140q-211 0 -340 141t-129 365q0 225 128 366.5t330 141.5q148 0 254 -72.5t150 -191.5h4
q26 114 113.5 189t214.5 75q172 0 275 -118t103 -347q0 -170 -53.5 -309.5t-132.5 -235.5zM580 92q153 0 241 108.5t88 278.5q0 173 -88.5 282t-240.5 109t-239 -109t-87 -282q0 -170 87 -278.5t239 -108.5z" />
    <glyph glyph-name="uni10D8" unicode="&#x10d8;" horiz-adv-x="1155" 
d="M416 29l-119 -52q-186 220 -186 506q0 237 129.5 370.5t337.5 133.5q209 0 337.5 -133t128.5 -371q0 -286 -186 -506l-119 52q77 103 120.5 208t43.5 244q0 79 -20 148t-58.5 123t-102 85t-144.5 31q-107 0 -182.5 -54.5t-109.5 -140t-34 -192.5q0 -138 43.5 -242
t120.5 -210z" />
    <glyph glyph-name="uni10D9" unicode="&#x10d9;" horiz-adv-x="1146" 
d="M551 -516q-116 0 -210 36.5t-152 97t-88.5 135.5t-30.5 157q0 98 39 178l127 -47q-23 -56 -23 -129q0 -131 92.5 -221t247.5 -90q156 0 249 91.5t93 256.5q0 87 -28.5 156t-76 110t-104.5 62.5t-117 21.5h-108v119h106q111 0 185.5 61t74.5 180q0 83 -27.5 145.5
t-82.5 131.5l121 51q129 -141 129 -328q0 -115 -58 -190.5t-166 -103.5v-5q126 -30 209.5 -139t83.5 -280q0 -212 -133.5 -334.5t-351.5 -122.5z" />
    <glyph glyph-name="uni10DA" unicode="&#x10da;" horiz-adv-x="2166" 
d="M1518 -461l-119 -51q-118 252 -629 252h-385v104h221v4q-71 18 -138.5 53.5t-132 92.5t-113 128.5t-78 168.5t-29.5 207q0 127 29 223.5t80.5 153t116.5 84.5t142 28q123 0 198.5 -68.5t102.5 -164.5h7q26 97 101 165t189 68q64 0 117 -20.5t87.5 -55.5t56 -74t34.5 -83
h6q26 99 100.5 166t192.5 67q175 0 276 -121t101 -340q0 -236 -113 -432l-127 47q97 174 97 387q0 159 -62.5 249.5t-179.5 90.5q-99 0 -159 -76.5t-60 -236.5v-307h-137v307q0 164 -64 238.5t-166 74.5q-100 0 -162.5 -77t-62.5 -236v-307h-137v307q0 163 -62.5 238
t-160.5 75q-107 0 -172.5 -96t-65.5 -276q0 -148 54.5 -265.5t149 -193t207.5 -120t244 -62.5q106 -13 181.5 -28t145 -39t119 -57t90 -80.5t69.5 -111.5z" />
    <glyph glyph-name="uni10DB" unicode="&#x10db;" horiz-adv-x="1273" 
d="M625 -27q-150 0 -266.5 70.5t-177 184.5t-60.5 249q0 219 134.5 362.5t346.5 143.5q117 0 219.5 -55.5t153.5 -153.5h6v305q0 171 -92 275t-252 104q-148 0 -242 -80t-94 -211q0 -31 6 -55l-135 -27q-12 34 -12 86q0 79 33 151.5t93 129t151 90t200 33.5q217 0 350 -135
t133 -359v-575q0 -239 -135 -386t-360 -147zM625 90q161 0 262.5 112.5t101.5 274.5q0 164 -102.5 275.5t-261.5 111.5q-165 0 -262 -111.5t-97 -275.5q0 -163 97 -275t262 -112z" />
    <glyph glyph-name="uni10DC" unicode="&#x10dc;" horiz-adv-x="1263" 
d="M651 -27q-226 0 -361.5 147.5t-135.5 385.5v647q0 395 403 395h483v-118h-473q-139 0 -206.5 -69t-67.5 -210v-375h6q53 100 154.5 155.5t220.5 55.5q210 0 343.5 -144.5t133.5 -365.5q0 -98 -34 -188t-96.5 -160.5t-158.5 -113t-211 -42.5zM647 90q165 0 263 112t98 275
q0 167 -98 281t-263 114q-158 0 -260 -113.5t-102 -279.5q0 -164 100.5 -276.5t261.5 -112.5z" />
    <glyph glyph-name="uni10DD" unicode="&#x10dd;" horiz-adv-x="1626" 
d="M416 29l-117 -52q-80 97 -134 235.5t-54 309.5q0 115 30 205t83.5 146t123 85t152.5 29q128 0 206.5 -70t106.5 -163h4q27 99 108 166t199 67q83 0 153.5 -28.5t124.5 -84.5t85 -146t31 -206q0 -169 -54.5 -308.5t-134.5 -236.5l-119 52q76 107 120 225t44 270
q0 176 -71 260t-191 84q-45 0 -83 -15.5t-71.5 -50t-53 -99t-19.5 -152.5v-293h-142v293q0 159 -62 238t-169 79q-119 0 -188.5 -91t-69.5 -253q0 -153 43.5 -270t118.5 -225z" />
    <glyph glyph-name="uni10DE" unicode="&#x10de;" horiz-adv-x="1196" 
d="M596 -29q-120 0 -216 39t-154.5 103.5t-89 143.5t-30.5 165q0 105 44 188l126 -45q-28 -63 -28 -141q0 -142 94 -238t256 -96q159 0 252.5 95.5t93.5 242.5q0 89 -30 157t-79.5 105.5t-104 55.5t-112.5 18h-98v121h96q73 0 133.5 16t104 57t43.5 101q0 48 -21 86.5
t-54.5 65.5t-74.5 51.5t-81.5 50.5t-74 56.5t-54.5 76t-21 102.5h143q1 -40 22 -73t54.5 -58t73.5 -49.5t80 -53t73 -62.5t53.5 -84t20.5 -111q0 -90 -68 -153t-167 -79v-4q126 -34 206 -135.5t80 -259.5q0 -198 -135.5 -326.5t-355.5 -128.5z" />
    <glyph glyph-name="uni10DF" unicode="&#x10df;" horiz-adv-x="1230" 
d="M586 -516q-110 0 -202 36t-150.5 95t-90.5 131.5t-32 147.5q0 58 20 126l135 -32q-14 -51 -14 -92q0 -122 94.5 -208.5t241.5 -86.5q150 0 240 98t90 274v885l-482 -86v-4q82 -20 127 -85.5t45 -150.5q0 -126 -91.5 -200t-225.5 -74q-96 0 -178 45l49 98q56 -30 133 -30
q83 0 136.5 48.5t53.5 129.5q0 84 -53 136t-141 52q-46 0 -86 -12l-21 113l721 131h154v-1004q0 -225 -130 -353t-343 -128z" />
    <glyph glyph-name="uni10E0" unicode="&#x10e0;" horiz-adv-x="1626" 
d="M416 29l-117 -52q-188 228 -188 635q0 119 15.5 213.5t50.5 177.5t92.5 147.5t141.5 117t197 92.5l94 31q114 38 182 78.5t101 103.5l123 -39q-27 -89 -120.5 -148.5t-244.5 -105.5l-94 -31q-195 -60 -296.5 -174.5t-133.5 -290.5h6q83 199 295 199q63 0 115 -21
t86.5 -56.5t56.5 -74t35 -81.5h4q26 99 108.5 166t202.5 67q173 0 281.5 -119t108.5 -342q0 -169 -54.5 -308.5t-134.5 -236.5l-119 52q76 107 120 225t44 270q0 170 -71 255t-195 85q-44 0 -82 -15.5t-70.5 -49.5t-51.5 -97.5t-19 -150.5v-293h-142v293q0 156 -60 234.5
t-165 78.5q-119 0 -191.5 -84t-72.5 -248q0 -158 43.5 -276.5t118.5 -226.5z" />
    <glyph glyph-name="uni10E1" unicode="&#x10e1;" horiz-adv-x="1265" 
d="M659 -27q-220 0 -356.5 143t-136.5 390v1042h141v-1044q0 -196 98.5 -304t256.5 -108q157 0 253.5 88t96.5 228q0 58 -17 108t-42.5 84l-55.5 74t-55.5 76t-42.5 91.5t-17 119.5h142q1 -60 25 -113.5t57.5 -96t67.5 -88.5t57.5 -113t23.5 -147q0 -83 -35 -160.5
t-97.5 -137.5t-157 -96t-206.5 -36z" />
    <glyph glyph-name="uni10E2" unicode="&#x10e2;" horiz-adv-x="1488" 
d="M743 -516q-188 0 -335.5 92.5t-230.5 261.5t-83 387q0 320 164.5 522t425.5 226q-10 55 -10 137v119h139v-121q0 -80 -10 -135q262 -24 428 -226.5t166 -521.5q0 -218 -83.5 -387t-232.5 -261.5t-338 -92.5zM743 -401q156 0 273 83.5t177 224.5t60 318q0 263 -122.5 435
t-327.5 198q10 -72 10 -149v-496h-137v496q0 92 8 149q-203 -26 -325.5 -198t-122.5 -435q0 -177 59.5 -318t176 -224.5t271.5 -83.5z" />
    <glyph glyph-name="uni10E3" unicode="&#x10e3;" horiz-adv-x="1232" 
d="M596 -516q-112 0 -205 38t-151.5 100t-90.5 139t-32 157q0 119 47 205l129 -45q-35 -72 -35 -158q0 -131 95 -225t245 -94q152 0 246 98t94 276v637q0 258 -195 258q-89 0 -141.5 -56t-52.5 -159v-256h-141v246q0 112 -47.5 160.5t-139.5 48.5h-133v121h145
q92 0 156.5 -41.5t85.5 -126.5h4q27 84 102 132t173 48q154 0 239.5 -90.5t85.5 -267.5v-660q0 -234 -132.5 -359.5t-350.5 -125.5z" />
    <glyph glyph-name="uni10E4" unicode="&#x10e4;" horiz-adv-x="1685" 
d="M991 -516q-138 0 -253 44t-185 128.5t-70 191.5q0 18 4 46l134 -17q-3 -6 -3 -20q0 -116 112 -187t261 -71q113 0 203 36t144.5 109t54.5 172q0 125 -66.5 196.5t-175.5 71.5h-41v119h53q114 0 191.5 68t77.5 202q0 138 -61 217.5t-177 79.5q-43 0 -84 -15.5t-75.5 -46.5
t-55.5 -83.5t-21 -120.5q0 -12 1.5 -34t1.5 -33q0 -200 -117.5 -325.5t-306.5 -125.5q-190 0 -308 126.5t-118 324.5t116.5 324t300.5 126q132 0 227.5 -65.5t131.5 -171.5h4q28 103 111.5 170t209.5 67q164 0 263.5 -109.5t99.5 -283.5q0 -138 -66 -229t-176 -121v-4
q199 -67 199 -328q0 -101 -43.5 -183t-118 -135t-172 -81.5t-207.5 -28.5zM535 197q136 0 215 96.5t79 243.5t-80 244.5t-214 97.5q-133 0 -212 -97.5t-79 -244.5t79 -243.5t212 -96.5z" />
    <glyph glyph-name="uni10E5" unicode="&#x10e5;" horiz-adv-x="1253" 
d="M592 -516q-114 0 -208 38t-152 100.5t-89.5 138.5t-31.5 157q0 126 51 217l127 -45q-37 -75 -37 -170q0 -132 94.5 -225.5t247.5 -93.5t245.5 101t92.5 273v508q0 165 -94.5 275t-245.5 110q-130 0 -210.5 -71.5t-80.5 -196.5q0 -52 18 -104l-137 -25q-24 65 -24 133
q0 167 117.5 275t297.5 108q116 0 210.5 -57.5t140.5 -153.5h4v772h141v-1579q0 -225 -130.5 -355t-346.5 -130z" />
    <glyph glyph-name="uni10E6" unicode="&#x10e6;" horiz-adv-x="1626" 
d="M1188 -461l-117 -51q-114 248 -518 248h-252v104h221v4q-184 57 -297.5 216t-113.5 399q0 139 31 243.5t85.5 165t123 90t149.5 29.5q128 0 206.5 -70t106.5 -163h4q28 99 108.5 166t198.5 67q84 0 154.5 -28.5t124.5 -84.5t84.5 -146t30.5 -206q0 -230 -113 -432
l-127 49q96 178 96 385q0 176 -71 260t-191 84q-45 0 -83 -15.5t-71.5 -50t-53 -99t-19.5 -152.5v-283h-142v283q0 159 -62 238t-169 79q-119 0 -188.5 -97t-69.5 -308q0 -243 122 -394.5t326 -201.5q194 -47 313 -121t173 -207z" />
    <glyph glyph-name="uni10E7" unicode="&#x10e7;" horiz-adv-x="1253" 
d="M590 -516q-201 0 -336 106t-135 277q0 47 14 88l131 -27q-6 -30 -6 -61q0 -116 94.5 -191t237.5 -75q159 0 249.5 97.5t90.5 270.5v336h-4q-53 -99 -148 -151t-215 -52q-192 0 -322 127t-130 332q0 235 137 422l119 -49q-62 -95 -88.5 -177t-26.5 -184q0 -150 91.5 -250
t244.5 -100q158 0 253 104t95 279v355h137v-992q0 -225 -130 -355t-353 -130z" />
    <glyph glyph-name="uni10E8" unicode="&#x10e8;" horiz-adv-x="1267" 
d="M614 -27q-148 0 -263.5 70.5t-175.5 184.5t-60 249q0 143 60 258.5t170 181.5t249 66q118 0 220 -55.5t155 -153.5h6v447q0 111 -55 173t-142 62q-89 0 -142.5 -53.5t-53.5 -147.5v-110h-142v100q0 97 -52 153t-138 56q-84 0 -144 -35l-24 117q73 39 172 39
q90 0 161.5 -51.5t94.5 -137.5h4q26 87 100.5 138t173.5 51q153 0 239.5 -91t86.5 -259v-719q0 -239 -137 -386t-363 -147zM618 90q160 0 262.5 112.5t102.5 274.5q0 163 -103.5 275t-261.5 112q-165 0 -262.5 -111.5t-97.5 -275.5q0 -163 97.5 -275t262.5 -112z" />
    <glyph glyph-name="uni10E9" unicode="&#x10e9;" horiz-adv-x="1226" 
d="M932 -27l-121 52q78 107 121 213.5t43 242.5q0 162 -84 272.5t-242 110.5q-157 0 -251.5 -110t-94.5 -275v-479h-137v1176q0 186 106.5 291.5t278.5 105.5q169 0 276 -93.5t107 -254.5q0 -104 -45 -174l-125 32q31 70 31 138q0 107 -66.5 170t-175.5 63
q-117 0 -181.5 -76t-64.5 -204v-400h6q53 99 148 154t213 55q196 0 319 -134.5t123 -348.5q0 -165 -52.5 -298t-131.5 -229z" />
    <glyph glyph-name="uni10EA" unicode="&#x10ea;" horiz-adv-x="1370" 
d="M741 -502q-138 0 -253.5 51.5t-199 147.5t-130.5 241.5t-47 325.5q0 236 70 420t171 299l111 -49q-211 -273 -211 -670q0 -129 26.5 -236.5t72.5 -183t108.5 -128t134.5 -77t151 -24.5q169 0 272 83.5t103 231.5q0 80 -27 141.5t-73.5 97t-102.5 53.5t-120 18h-133v120
h159q109 0 180.5 45.5t71.5 135.5q0 42 -14.5 77t-38 59.5t-51.5 47.5l-56 46t-51.5 48.5t-38 61.5t-14.5 80h141q4 -42 32.5 -78.5t66 -66.5t75 -65t63 -88.5t25.5 -121.5q0 -94 -63 -158t-166 -82v-4q125 -27 201 -124t76 -253q0 -190 -143.5 -306t-377.5 -116z" />
    <glyph glyph-name="uni10EB" unicode="&#x10eb;" horiz-adv-x="1275" 
d="M612 -27q-147 0 -262.5 68.5t-177 183t-61.5 252.5q0 221 134.5 365.5t346.5 144.5q118 0 219 -56t154 -155h6v772h139v-1056q0 -228 -136.5 -373.5t-361.5 -145.5zM614 92q161 0 263 112t102 275q0 165 -103 279t-262 114q-164 0 -262 -113t-98 -282q0 -105 42.5 -192
t125.5 -140t192 -53z" />
    <glyph glyph-name="uni10EC" unicode="&#x10ec;" horiz-adv-x="1267" 
d="M653 -27q-226 0 -362.5 147t-136.5 386v719q0 168 86 259t239 91q99 0 174 -51t101 -138h4q23 86 94.5 137.5t161.5 51.5q99 0 172 -39l-25 -117q-60 35 -143 35q-86 0 -138.5 -56t-52.5 -153v-100h-141v110q0 94 -54 147.5t-143 53.5q-87 0 -141.5 -62t-54.5 -173v-447
h6q53 98 155 153.5t220 55.5q139 0 249 -66t170 -181.5t60 -258.5q0 -135 -60.5 -249t-176 -184.5t-263.5 -70.5zM649 90q165 0 263 112t98 275q0 164 -98 275.5t-263 111.5q-158 0 -261 -112t-103 -275q0 -162 102 -274.5t262 -112.5z" />
    <glyph glyph-name="uni10ED" unicode="&#x10ed;" horiz-adv-x="1273" 
d="M567 -516q-112 0 -205 38t-151 99.5t-89.5 137t-31.5 153.5q0 80 31 158l131 -41q-19 -59 -19 -115q0 -128 93.5 -220.5t242.5 -92.5q150 0 242 98t92 260v471h-6q-52 -94 -150.5 -138t-218.5 -44q-163 0 -279 98.5t-116 257.5t116 258t300 99h354v587h137v-587h271v-117
h-271v-893q0 -212 -130.5 -339.5t-342.5 -127.5zM555 365q158 0 257 83t99 246v150h-348q-134 0 -210.5 -64.5t-76.5 -175.5q0 -109 80 -174t199 -65z" />
    <glyph glyph-name="uni10EE" unicode="&#x10ee;" horiz-adv-x="1275" 
d="M664 -27q-225 0 -361.5 145.5t-136.5 373.5v1056h139v-772h6q53 99 154 155t219 56q212 0 346.5 -144.5t134.5 -365.5q0 -138 -61.5 -252.5t-177 -183t-262.5 -68.5zM662 92q109 0 192 53t125.5 140t42.5 192q0 169 -98 282t-262 113q-159 0 -262 -114t-103 -279
q0 -163 102 -275t263 -112z" />
    <glyph glyph-name="uni10EF" unicode="&#x10ef;" horiz-adv-x="1187" 
d="M594 -516q-116 0 -210.5 36.5t-152.5 97t-89 135.5t-31 157q0 102 41 176l124 -45q-22 -54 -22 -129q0 -132 93 -221.5t249 -89.5q155 0 247.5 89.5t92.5 250.5q0 162 -93.5 248.5t-254.5 86.5h-70v349h-381v110h381v226h135v-226h381v-110h-381v-240q198 -15 312 -134
t114 -314q0 -212 -133 -332.5t-352 -120.5z" />
    <glyph glyph-name="uni10F0" unicode="&#x10f0;" horiz-adv-x="1136" 
d="M543 -27q-87 0 -169.5 21.5t-150.5 62.5t-109.5 108t-41.5 150q0 61 16 101l131 -29q-8 -27 -8 -59q0 -75 49.5 -131t123.5 -82.5t159 -26.5q93 0 165 22.5t119 77t47 134.5q0 112 -92 171.5t-233 59.5h-123v119h186q103 0 166.5 33t63.5 104q0 145 -232 145h-184v121
h180q94 0 147.5 33.5t53.5 99.5q0 50 -42 79t-101.5 44.5t-119 34.5t-101.5 64t-42 118h142q4 -31 28 -54t60 -36.5t79 -26.5t84.5 -29.5t76 -39t56 -61.5t21.5 -91q0 -80 -48.5 -128t-135.5 -62v-4q99 -16 159 -66.5t60 -140.5q0 -84 -56.5 -136.5t-146.5 -66.5v-4
q98 -20 167 -97.5t69 -193.5q0 -108 -65.5 -186t-171 -115t-236.5 -37z" />
    <glyph glyph-name="uni10F1" unicode="&#x10f1;" horiz-adv-x="1409" 
d="M770 -27q-146 0 -267 55t-208 158t-135.5 256t-48.5 342q0 111 17 218.5t42.5 189.5t60.5 158t65 125.5t62 91.5l117 -49q-223 -315 -223 -734q0 -169 42 -303.5t114 -218t165.5 -127t200.5 -43.5q168 0 270.5 64.5t102.5 177.5q0 103 -91.5 161t-232.5 58h-147v119h209
q229 0 229 143t-231 143h-207v121h217q186 0 186 119q0 49 -31.5 83t-76.5 55t-89.5 44.5t-76 65.5t-31.5 102h144q3 -34 27 -60t57.5 -42t72 -38t71 -45t54 -64.5t21.5 -96.5q0 -71 -49.5 -117.5t-135.5 -60.5v-6q98 -15 158.5 -65.5t60.5 -139.5q0 -84 -56.5 -138.5
t-145.5 -68.5v-4q98 -19 166.5 -92t68.5 -184q0 -160 -145.5 -256.5t-372.5 -96.5z" />
    <glyph glyph-name="uni10F2" unicode="&#x10f2;" horiz-adv-x="1155" 
d="M141 -16v116q156 0 291 33v4q-150 63 -235.5 173.5t-85.5 256.5q0 185 131 302.5t336 117.5t335.5 -117.5t130.5 -302.5q0 -147 -85.5 -258t-237.5 -172v-4q135 -33 291 -33v-116q-240 0 -434 79q-194 -79 -437 -79zM578 170q143 49 234 150.5t91 240.5q0 131 -88.5 220
t-236.5 89t-237 -89.5t-89 -219.5q0 -139 91.5 -240.5t234.5 -150.5z" />
    <glyph glyph-name="uni10F3" unicode="&#x10f3;" horiz-adv-x="1187" 
d="M594 -502q-115 0 -208.5 36.5t-152.5 97t-90.5 136t-31.5 156.5q0 100 39 174l126 -45q-22 -56 -22 -127q0 -130 94 -220.5t248 -90.5q149 0 244.5 91.5t95.5 236.5q0 77 -27.5 138.5t-73.5 99t-101.5 57.5t-115.5 20h-94v119h97q114 0 194 67t80 205v195h-594v-215h-137
v332h870v-308q0 -135 -64.5 -220t-168.5 -111v-5q123 -30 199.5 -132t76.5 -251q0 -191 -135 -313.5t-348 -122.5z" />
    <glyph glyph-name="uni10F4" unicode="&#x10f4;" horiz-adv-x="1144" 
d="M551 -518q-115 0 -208.5 36.5t-151.5 97.5t-89.5 136t-31.5 156q0 103 36 174l127 -45q-22 -56 -22 -127q0 -130 94.5 -220.5t247.5 -90.5q151 0 246.5 91t95.5 236q0 78 -27.5 140t-73.5 100t-101.5 58t-114.5 20h-95v116h95q111 0 192.5 61t81.5 167q0 32 -9 61.5
t-21.5 52.5t-38 48t-44.5 41t-55.5 39t-57.5 35.5t-63 35.5q-58 32 -99.5 57.5t-90 64.5t-79 76.5t-51 88t-20.5 104.5q0 120 96 201.5t261 81.5q86 0 175 -21t148 -59l-53 -115q-127 78 -272 78q-116 0 -169 -50t-53 -120q0 -34 16 -67t36.5 -56.5t63 -54t70.5 -47
t85 -49.5q51 -30 75.5 -44.5t71 -45.5t71 -52t57.5 -55.5t49.5 -65.5t29 -71.5t12.5 -83.5q0 -105 -63 -185.5t-172 -103.5v-4q122 -30 199 -132.5t77 -252.5q0 -190 -135 -313t-348 -123z" />
    <glyph glyph-name="uni10F5" unicode="&#x10f5;" horiz-adv-x="1308" 
d="M1016 641h252l2 -113h-254v-170q0 -82 -25.5 -148.5t-69 -111t-102.5 -74t-123.5 -42.5t-134.5 -13q-201 0 -325.5 90t-124.5 256q0 159 118 242.5t314 83.5h338v277h-332q-197 0 -307.5 79t-110.5 234q0 162 119.5 249t316.5 87q87 0 163.5 -20t142 -62.5t104 -118.5
t39.5 -178v-156h254l-2 -114h-252v-277zM559 1032h322v135q0 145 -77.5 213t-232.5 68q-299 0 -299 -215q0 -201 287 -201zM881 377v151h-328q-299 0 -299 -213q0 -115 82.5 -172t226.5 -57q158 0 238 74t80 217z" />
    <glyph glyph-name="uni10F6" unicode="&#x10f6;" horiz-adv-x="1429" 
d="M516 -516q-65 0 -121 16l17 115q43 -16 90 -16q78 0 111.5 47t33.5 137v186q-253 3 -394.5 143t-141.5 365q0 74 17 143t57.5 135.5t100 116t153 80t208.5 31.5v293q0 61 13 111t42.5 92t83 65t127.5 23q66 0 121 -19l-14 -112q-41 14 -92 14q-78 0 -112 -47t-34 -137
v-283q141 -2 248 -46t169 -117t92 -160t30 -185q0 -221 -142.5 -362t-396.5 -144v-192q0 -61 -13 -111t-42 -92.5t-82.5 -66t-128.5 -23.5zM647 84v784q-111 0 -192 -35t-124 -94.5t-62 -124.5t-19 -139q0 -180 104 -285.5t293 -105.5zM782 868v-784q102 1 179.5 31.5
t124.5 84.5t70.5 123t23.5 152q0 60 -11 113.5t-39.5 106t-72.5 90t-114.5 60.5t-160.5 23z" />
    <glyph glyph-name="uni10F7" unicode="&#x10f7;" horiz-adv-x="1181" 
d="M590 -516q-224 0 -364 136.5t-140 338.5q0 62 13 116.5t33.5 96.5t53.5 80t65.5 64.5t77.5 53t81 44t84 37.5q56 23 91 39t78 40.5t66.5 49t40 58.5t16.5 73q0 76 -56 122t-146 46q-91 0 -148 -48t-57 -120q0 -37 10 -64l-129 -26q-20 40 -20 92q0 85 50.5 149t127 94.5
t164.5 30.5q149 0 244.5 -73t95.5 -197q0 -59 -19 -108t-46 -82.5t-76.5 -66t-89 -52t-105.5 -48.5q-63 -27 -106 -49t-95 -58.5t-83.5 -75t-53 -95t-21.5 -123.5q0 -148 99 -252t264 -104q168 0 266 104.5t98 257.5q0 103 -39 180l129 48q52 -106 52 -226q0 -209 -139 -346
t-367 -137z" />
    <glyph glyph-name="uni10F8" unicode="&#x10f8;" horiz-adv-x="1253" 
d="M664 -516q-223 0 -353.5 130t-130.5 355v992h137v-355q0 -174 95.5 -278.5t253.5 -104.5q153 0 244 100t91 250q0 102 -26 184.5t-88 176.5l119 49q137 -187 137 -422q0 -205 -130.5 -332t-322.5 -127q-120 0 -214.5 52t-147.5 151h-4v-336q0 -173 90.5 -270.5
t249.5 -97.5q143 0 237 75t94 191q0 31 -6 61l131 27q15 -43 15 -88q0 -171 -135 -277t-336 -106z" />
    <glyph glyph-name="uni10F9" unicode="&#x10f9;" horiz-adv-x="1241" 
d="M621 985q226 0 367.5 -141t141.5 -361q0 -200 -120.5 -330.5t-317.5 -162.5q-260 -44 -260 -221q0 -82 59.5 -130.5t157.5 -48.5q96 0 153.5 48t57.5 120q0 24 -10 64l129 26q20 -33 20 -92q0 -127 -103 -200.5t-245 -73.5q-152 0 -255 76t-103 206q0 89 57 157t150 93v4
q-174 25 -281.5 153.5t-107.5 311.5q0 220 142.5 361t367.5 141zM621 866q-165 0 -267 -110t-102 -273q0 -162 102 -270.5t267 -108.5q168 0 268 108t100 271q0 164 -100 273.5t-268 109.5z" />
    <glyph glyph-name="uni10FA" unicode="&#x10fa;" horiz-adv-x="1007" 
d="M969 92l-645 -342l-62 109l270 137v6q-185 23 -303 155.5t-118 319.5q0 225 142.5 367.5t360.5 142.5q101 0 195 -38.5t152 -108.5l-103 -82q-38 51 -104 81.5t-138 30.5q-162 0 -260 -114.5t-98 -278.5q0 -162 97.5 -274.5t258.5 -112.5q150 0 289 121z" />
    <glyph glyph-name="uni10FB" unicode="&#x10fb;" horiz-adv-x="974" 
d="M229 764q-43 0 -73.5 30.5t-30.5 73.5t31 75t73 32q44 0 74.5 -31t30.5 -74t-30.5 -74.5t-74.5 -31.5zM717 377q-43 0 -75 31t-32 73q0 43 31.5 74t75.5 31q43 0 73.5 -30.5t30.5 -74.5q0 -43 -30.5 -73.5t-73.5 -30.5zM229 -12q-43 0 -73.5 30.5t-30.5 73.5t30.5 74
t73.5 31q44 0 74.5 -30t30.5 -73q0 -44 -30.5 -75t-74.5 -31z" />
    <glyph glyph-name="uni10FC" unicode="&#x10fc;" horiz-adv-x="770" 
d="M397 565q-123 0 -201.5 77.5t-78.5 205.5v377q0 116 61 170.5t170 54.5h273v-92h-263q-135 0 -135 -141v-193h4q26 49 77 75.5t112 26.5q114 0 190 -80.5t76 -201.5q0 -71 -31 -133t-97.5 -104t-156.5 -42zM397 655q81 0 129.5 55t48.5 136q0 80 -48.5 134t-129.5 54
q-76 0 -128 -54t-52 -134q0 -82 50.5 -136.5t129.5 -54.5z" />
    <glyph glyph-name="uni10FD" unicode="&#x10fd;" horiz-adv-x="1210" 
d="M608 -27q-221 0 -359 126.5t-138 320.5q0 116 53 213l127 -21q-37 -70 -37 -192q0 -138 97 -233t257 -95q161 0 255.5 88.5t94.5 229.5q0 35 -7 66t-17 56t-29 48.5t-35.5 40.5t-45 35.5t-48.5 30t-55 27t-56 23.5t-59 23q-59 23 -100 41.5t-92 47.5t-85 61t-65 74.5
t-46 97t-15 118.5q0 168 119.5 270.5t293.5 102.5q167 0 286.5 -102t119.5 -259q0 -64 -23 -122l-129 30q13 43 13 84q0 114 -73 186t-196 72q-125 0 -198.5 -76t-73.5 -190q0 -41 10.5 -77t25.5 -63t44 -53t53 -43t65.5 -37.5t69.5 -32t76 -30.5q50 -19 86 -34.5t82.5 -40
t79 -49t66.5 -59.5t55 -74t34 -90t13 -110q0 -192 -137.5 -311t-356.5 -119z" />
    <glyph glyph-name="uni10FE" unicode="&#x10fe;" horiz-adv-x="1155" 
d="M141 860v117q241 0 437 -80q196 80 434 80v-117q-156 0 -291 -33v-4q152 -61 237.5 -172t85.5 -258q0 -185 -130.5 -302.5t-335.5 -117.5t-336 117.5t-131 302.5q0 146 85.5 256.5t235.5 173.5v4q-135 33 -291 33zM578 791q-143 -49 -234.5 -151t-91.5 -241
q0 -130 89 -219.5t237 -89.5t236.5 89t88.5 220q0 139 -91 241t-234 151z" />
    <glyph glyph-name="uni10FF" unicode="&#x10ff;" horiz-adv-x="1277" 
d="M623 -27q-222 0 -367 143.5t-145 364.5q0 222 145 364t367 142t368 -142t146 -364q0 -221 -146 -364.5t-368 -143.5zM623 90q113 0 198 54.5t127.5 142.5t42.5 194q0 165 -99.5 278t-268.5 113q-168 0 -268.5 -113.5t-100.5 -277.5q0 -163 101 -277t268 -114z" />
    <glyph glyph-name="uni1C90" unicode="&#x1c90;" horiz-adv-x="1216" 
d="M604 -39q-113 0 -208 39.5t-157 105.5t-96 152.5t-34 181.5q0 160 73 285l133 -45q-55 -112 -55 -240q0 -151 97 -252.5t249 -101.5q150 0 245 102.5t95 274.5q0 88 -24.5 165t-63 135t-85.5 113.5t-94 113.5t-85.5 121t-63 150.5t-24.5 188.5h147q0 -85 24.5 -161.5
t64 -137t86.5 -120t94.5 -120.5t87 -126t64 -150t24.5 -180q0 -223 -138.5 -358.5t-355.5 -135.5z" />
    <glyph glyph-name="uni1C91" unicode="&#x1c91;" horiz-adv-x="1282" 
d="M743 1040v-102q105 -15 189 -61t136.5 -112.5t80 -145.5t27.5 -164q0 -96 -36 -184.5t-102.5 -157.5t-169.5 -110.5t-227 -41.5q-125 0 -228 42t-169 111.5t-102 157.5t-36 183q0 89 33.5 173t94 152t154.5 112.5t206 51.5v90q0 46 -13.5 80t-35.5 55t-48 38.5t-52 36.5
t-48 43.5t-35.5 65.5t-13.5 97h148q1 -38 15 -68t36 -50t48 -38.5t52 -40t47.5 -48t35 -69t13.5 -96.5zM641 86q171 0 277 105t106 264t-106 263.5t-277 104.5q-172 0 -278.5 -104.5t-106.5 -263.5t106.5 -264t278.5 -105z" />
    <glyph glyph-name="uni1C92" unicode="&#x1c92;" horiz-adv-x="1304" 
d="M653 -39q-125 0 -228 41.5t-168.5 110.5t-101.5 157.5t-36 184.5q0 179 121 314t335 171q130 22 205.5 81t75.5 161q0 88 -64.5 139t-162.5 51t-164 -51t-66 -127q0 -37 13 -74l-136 -30q-22 51 -22 104q0 87 56 156t140.5 104t176.5 35q95 0 178.5 -34.5t138.5 -105
t55 -163.5q0 -96 -56 -166t-152 -100v-5q182 -30 289.5 -161.5t107.5 -298.5q0 -96 -36 -184.5t-102.5 -157.5t-169.5 -110.5t-227 -41.5zM653 86q171 0 278 105t107 264t-107 263.5t-278 104.5q-172 0 -277.5 -104.5t-105.5 -263.5q0 -160 105.5 -264.5t277.5 -104.5z" />
    <glyph glyph-name="uni1C93" unicode="&#x1c93;" horiz-adv-x="1835" 
d="M1333 23l-123 -52q-30 65 -90.5 112t-139 71.5t-158.5 35.5t-169 11h-315v110h237v4q-90 25 -171.5 81.5t-145.5 137.5t-101.5 191t-37.5 233q0 136 31.5 240.5t87.5 166.5t126.5 93t153.5 31q133 0 221 -70.5t117 -187.5h4q38 114 145 186t252 72q200 0 336 -136.5
t136 -346.5q0 -211 -137 -346.5t-345 -135.5q-207 0 -339 134t-132 348q0 12 1 34t1 35q0 74 -20.5 131t-55 90t-76.5 49.5t-89 16.5q-123 0 -195 -101t-72 -296q0 -126 42 -236.5t113.5 -189.5t163.5 -132t195 -73q230 -43 361 -114.5t188 -196.5zM1249 647
q149 0 240.5 100.5t91.5 258.5q0 159 -91 259.5t-241 100.5q-148 0 -237.5 -100.5t-89.5 -259.5q0 -158 89 -258.5t238 -100.5z" />
    <glyph glyph-name="uni1C94" unicode="&#x1c94;" horiz-adv-x="1273" 
d="M618 -39q-114 0 -209.5 36.5t-158 98t-97 139.5t-34.5 162q0 122 53 217l135 -47q-37 -75 -37 -170q0 -130 99 -220.5t252 -90.5q152 0 247 99.5t95 273.5v540q0 169 -91.5 267t-240.5 98q-137 0 -231.5 -74.5t-94.5 -202.5q0 -63 17 -106l-144 -25q-24 54 -24 140
q0 161 135 276t342 115q100 0 187.5 -33t153 -93t103 -152.5t37.5 -204.5v-553q0 -224 -140 -357t-354 -133z" />
    <glyph glyph-name="uni1C95" unicode="&#x1c95;" horiz-adv-x="1255" 
d="M627 -39q-116 0 -213.5 35t-161 94.5t-98.5 137.5t-35 163q0 106 37 176l137 -45q-23 -52 -23 -129q0 -129 101 -218t258 -89q154 0 256 86.5t102 228.5q0 78 -30 140.5t-79 99.5t-107.5 56.5t-119.5 19.5h-94v125h100q54 0 104 14.5t93.5 43.5t69.5 79t26 115
q0 119 -87.5 194.5t-231.5 75.5q-140 0 -232 -74t-92 -192q0 -47 10 -76l-145 -27q-16 43 -16 105q0 160 136 274.5t339 114.5q200 0 334.5 -113t134.5 -278q0 -120 -73 -204t-185 -110v-6q130 -31 213.5 -132.5t83.5 -252.5q0 -125 -68 -224.5t-184.5 -153.5t-259.5 -54z
" />
    <glyph glyph-name="uni1C96" unicode="&#x1c96;" horiz-adv-x="1406" 
d="M766 -39q-124 0 -228 41.5t-169.5 110t-101.5 153t-36 174.5q0 112 44 205t135 154v6q-103 5 -179.5 54t-112.5 121.5t-36 156.5q0 152 109.5 252t287.5 100q175 0 287.5 -98.5t112.5 -235.5q0 -69 -27 -126.5t-72 -88.5v-4q100 0 185 -27t146 -73.5t104 -107.5
t64 -130.5t21 -142.5q0 -96 -36 -184.5t-102 -157.5t-169 -110.5t-227 -41.5zM479 899q116 0 186 67.5t70 168.5q0 99 -70 166t-186 67q-120 0 -187 -66.5t-67 -166.5t68 -168t186 -68zM766 86q171 0 277 105t106 264q0 157 -106 259.5t-277 102.5q-174 0 -279.5 -102
t-105.5 -260q0 -159 106.5 -264t278.5 -105z" />
    <glyph glyph-name="uni1C97" unicode="&#x1c97;" horiz-adv-x="1988" 
d="M649 -39q-107 0 -198 37t-159 106.5t-106.5 176t-38.5 237.5v414q0 131 38 237.5t104.5 176t156 106.5t193.5 37q149 0 265 -73.5t161 -217.5h6q35 142 130.5 216.5t234.5 74.5q186 0 295.5 -134t109.5 -378v-346q0 -195 -59 -373t-150 -291l-125 62q82 113 132.5 275.5
t50.5 338.5v324q0 190 -71.5 293.5t-199.5 103.5q-134 0 -202 -101t-68 -290v-455q0 -261 -140.5 -409t-359.5 -148zM649 86q157 0 253.5 117t96.5 327v390q0 212 -93 328t-257 116q-157 0 -253.5 -117.5t-96.5 -326.5v-390q0 -209 96.5 -326.5t253.5 -117.5z" />
    <glyph glyph-name="uni1C98" unicode="&#x1c98;" horiz-adv-x="1296" 
d="M469 29l-123 -62q-86 111 -142.5 280.5t-56.5 362.5v324q0 259 141 407t359 148q219 0 360.5 -148t141.5 -407v-324q0 -193 -56.5 -362.5t-142.5 -280.5l-123 62q77 110 123.5 264t46.5 330v301q0 207 -96.5 323.5t-253.5 116.5t-253.5 -116.5t-96.5 -323.5v-301
q0 -175 47 -329.5t125 -264.5z" />
    <glyph glyph-name="uni1C99" unicode="&#x1c99;" horiz-adv-x="1245" 
d="M616 -39q-117 0 -215 37t-160.5 97.5t-97 137t-34.5 158.5q0 109 36 180l140 -45q-25 -64 -25 -133q0 -129 100 -218t261 -89q159 0 258.5 89.5t99.5 248.5q0 84 -29.5 151t-78.5 107.5t-107 62t-119 21.5h-133v127h141q111 0 188 66.5t77 187.5q0 151 -132 280l123 54
q79 -67 118.5 -154t39.5 -180q0 -115 -62 -201t-167 -112v-5q124 -31 207 -141t83 -272q0 -208 -144.5 -331.5t-367.5 -123.5z" />
    <glyph glyph-name="uni1C9A" unicode="&#x1c9a;" horiz-adv-x="2289" 
d="M1616 20l-127 -51q-34 58 -89 100.5t-116.5 68t-139.5 40.5t-149 20t-155 5h-443v110h248v4q-78 19 -151.5 55t-142 93t-120 128t-82 166.5t-30.5 201.5q0 133 33.5 236.5t90.5 166t127 94t148 31.5q124 0 208.5 -69.5t109.5 -172.5h4q20 99 106 170.5t205 71.5
q122 0 206 -70t105 -172h4q23 100 109.5 171t210.5 71q172 0 284.5 -134t112.5 -354q0 -234 -119 -434l-137 49q103 181 103 385q0 161 -68.5 262t-183.5 101q-105 0 -172.5 -76.5t-67.5 -234.5v-334h-145v334q0 161 -68.5 236t-173.5 75q-106 0 -174 -76t-68 -235v-334
h-147v334q0 164 -66 237.5t-168 73.5q-112 0 -185 -104t-73 -295q0 -136 51 -247.5t143 -188.5t214.5 -125.5t269.5 -67.5q137 -16 235.5 -38t185.5 -57.5t147.5 -90t99.5 -130.5z" />
    <glyph glyph-name="uni1C9B" unicode="&#x1c9b;" horiz-adv-x="1333" 
d="M643 -39q-123 0 -224.5 40.5t-165.5 109t-99 155t-35 180.5t34 181.5t96.5 156.5t160.5 110.5t215 41.5q123 0 231 -53t160 -148h8v283q0 159 -98.5 253.5t-263.5 94.5q-63 0 -124 -16t-113.5 -46.5t-85 -82.5t-32.5 -117q0 -25 6 -43l-147 -23q-10 25 -10 76
q0 150 143 262.5t363 112.5q221 0 366.5 -126.5t145.5 -334.5v-575q0 -137 -64 -248.5t-186 -177.5t-281 -66zM643 86q174 0 280.5 100.5t106.5 259.5t-110 261t-277 102q-173 0 -273 -102.5t-100 -260.5q0 -156 101.5 -258t271.5 -102z" />
    <glyph glyph-name="uni1C9C" unicode="&#x1c9c;" horiz-adv-x="1333" 
d="M690 -39q-119 0 -219.5 39t-167.5 106.5t-104 158.5t-37 194v598q0 104 32 181t91.5 122.5t136 67.5t172.5 22h510v-125h-494q-147 0 -223 -67t-76 -214v-305h6q53 95 163 151t231 56q117 0 214 -42t159 -112t96 -158t34 -183q0 -94 -35 -181t-99 -156.5t-165.5 -111
t-224.5 -41.5zM690 86q170 0 272.5 105t102.5 262q0 159 -101 263.5t-274 104.5q-166 0 -275.5 -105t-109.5 -263q0 -161 105.5 -264t279.5 -103z" />
    <glyph glyph-name="uni1C9D" unicode="&#x1c9d;" horiz-adv-x="1820" 
d="M479 29l-125 -62q-91 113 -149 290.5t-58 373.5v346q0 244 108.5 378t295.5 134q130 0 224 -66t132 -202h6q35 135 130.5 201.5t226.5 66.5q187 0 294 -133.5t107 -378.5v-346q0 -196 -58 -373.5t-147 -290.5l-127 62q82 113 132.5 275.5t50.5 338.5v324q0 190 -71 293.5
t-200 103.5q-133 0 -198.5 -100t-65.5 -289v-572h-153v574q0 188 -67.5 287.5t-199.5 99.5q-128 0 -199 -103.5t-71 -293.5v-324q0 -178 49.5 -340.5t132.5 -273.5z" />
    <glyph glyph-name="uni1C9E" unicode="&#x1c9e;" horiz-adv-x="1249" 
d="M618 -39q-120 0 -219 40t-161 105t-95.5 145.5t-33.5 164.5q0 108 43 192l135 -45q-29 -76 -29 -145q0 -138 99.5 -235t265.5 -97q161 0 258.5 90t97.5 230q0 67 -20.5 121.5t-53.5 89.5t-77 58.5t-89.5 33.5t-93.5 10h-108v123h135q256 0 256 153q0 47 -23 83
t-59.5 59.5t-80.5 44t-88 43.5t-80.5 50.5t-59.5 72t-23 102.5h150q4 -52 49 -90.5t105.5 -67t120 -61t101 -89.5t41.5 -136q0 -97 -63 -154.5t-166 -73.5v-4q124 -27 202.5 -126.5t78.5 -244.5q0 -193 -145 -317.5t-370 -124.5z" />
    <glyph glyph-name="uni1C9F" unicode="&#x1c9f;" horiz-adv-x="1298" 
d="M621 -39q-112 0 -208 34t-159.5 90.5t-99 129t-35.5 150.5q0 75 24 137l140 -35q-15 -51 -15 -96q0 -120 101 -202.5t252 -82.5q159 0 255.5 98t96.5 285v879l-498 -88v-5q86 -20 134 -88.5t48 -160.5q0 -88 -46.5 -153.5t-118.5 -96.5t-158 -31q-122 0 -205 51l51 103
q61 -35 148 -35t142.5 50t55.5 134q0 87 -60.5 142t-152.5 55q-35 0 -90 -11l-20 117l755 133h162v-1007q0 -154 -66 -268t-178 -171t-255 -57z" />
    <glyph glyph-name="uni1CA0" unicode="&#x1ca0;" horiz-adv-x="1718" 
d="M436 18l-127 -49q-190 222 -190 611q0 609 547 725l163 34q97 22 158.5 55t97.5 91l125 -49q-34 -90 -117 -139.5t-210 -77.5l-195 -39q-184 -39 -306.5 -154t-148.5 -289h7q43 103 129 153t182 50q68 0 124.5 -21t93.5 -57t61 -76.5t36 -85.5h6q25 97 117 168.5
t219 71.5q80 0 152 -29.5t128.5 -84.5t90 -142.5t33.5 -196.5q0 -164 -54 -295t-135 -223l-127 49q77 105 120.5 214t43.5 255q0 169 -73.5 248.5t-192.5 79.5q-48 0 -92 -17.5t-81 -52.5t-59 -97t-22 -144v-262h-147v262q0 156 -66.5 233.5t-175.5 77.5q-117 0 -199 -81.5
t-82 -237.5q0 -151 44 -261.5t122 -216.5z" />
    <glyph glyph-name="uni1CA1" unicode="&#x1ca1;" horiz-adv-x="1323" 
d="M698 -39q-105 0 -199.5 34.5t-166.5 97.5t-114 159.5t-42 212.5v985h152v-979q0 -177 104.5 -281t267.5 -104q161 0 262 86.5t101 224.5q0 68 -23.5 125t-57 99t-67 85t-57 102.5t-24.5 131.5h151q0 -47 17.5 -91.5t43.5 -78t56 -75t55.5 -81.5t42.5 -99t17 -126
q0 -83 -38 -160.5t-104.5 -137t-165 -95t-211.5 -35.5z" />
    <glyph glyph-name="uni1CA2" unicode="&#x1ca2;" horiz-adv-x="1615" 
d="M807 -39q-145 0 -271.5 53t-218.5 148t-145 236t-53 309q0 211 82 377t223.5 259.5t320.5 102.5q-6 60 -6 80h135q0 -60 -4 -80q134 -7 249 -63t199 -151t131.5 -230.5t47.5 -294.5q0 -168 -53 -309t-145.5 -236t-219 -148t-272.5 -53zM807 82q163 0 287 79.5t190 221
t66 324.5q0 261 -134.5 433t-345.5 187q13 -140 13 -168v-526h-150v526q0 91 15 168q-213 -15 -347.5 -187t-134.5 -433q0 -277 148.5 -451t392.5 -174z" />
    <glyph glyph-name="uni1CA3" unicode="&#x1ca3;" horiz-adv-x="1300" 
d="M633 -39q-114 0 -210 37.5t-159 99.5t-98 141t-35 162q0 111 47 207l137 -47q-32 -75 -32 -158q0 -134 99.5 -225.5t252.5 -91.5q155 0 253.5 96t98.5 275v649q0 258 -205 258q-89 0 -143.5 -60.5t-54.5 -166.5v-260h-152v251q0 115 -47 166.5t-141 51.5h-142v127h158
q95 0 160 -43t86 -127h6q25 84 102 135t183 51q157 0 250.5 -94t93.5 -267v-679q0 -118 -39.5 -212t-109 -153.5t-161.5 -91t-198 -31.5z" />
    <glyph glyph-name="uni1CA4" unicode="&#x1ca4;" horiz-adv-x="1794" 
d="M1065 -39q-110 0 -209 22.5t-178 65.5t-125.5 113.5t-46.5 159.5q0 31 4 49l145 -15q-2 -8 -2 -20q0 -66 35.5 -116.5t95.5 -79.5t131 -43.5t150 -14.5q184 0 299 77.5t115 227.5q0 110 -66 184t-176 74h-45v119h68q113 0 189.5 74.5t76.5 214.5q0 149 -68.5 230
t-185.5 81q-101 0 -175.5 -72.5t-74.5 -206.5q0 -12 2 -32.5t2 -30.5q0 -202 -132 -333.5t-329 -131.5q-200 0 -329.5 131.5t-129.5 333.5q0 133 60.5 240.5t163.5 167t227 59.5q139 0 245 -70.5t142 -179.5h4q29 109 122 179.5t228 70.5q163 0 271 -116t108 -300
q0 -148 -69 -244t-176 -124v-5q93 -37 144.5 -120t51.5 -199q0 -102 -46 -183.5t-124.5 -132.5t-179 -77.5t-213.5 -26.5zM565 678q143 0 231.5 96.5t88.5 247.5t-89.5 249.5t-230.5 98.5t-230 -98t-89 -250q0 -150 88.5 -247t230.5 -97z" />
    <glyph glyph-name="uni1CA5" unicode="&#x1ca5;" horiz-adv-x="1298" 
d="M623 -39q-112 0 -208.5 34.5t-160 91.5t-99.5 130t-36 150q0 76 26 139l142 -33q-15 -47 -15 -98q0 -123 100 -206t253 -83q156 0 253 98.5t97 284.5v287q0 163 -96.5 265.5t-251.5 102.5q-124 0 -210.5 -71.5t-86.5 -184.5q0 -50 14 -94l-145 -24q-21 61 -21 122
q0 159 124 268t298 109q121 0 221.5 -59t147.5 -152h4v412h149v-993q0 -154 -66 -268t-178 -171t-255 -57z" />
    <glyph glyph-name="uni1CA6" unicode="&#x1ca6;" horiz-adv-x="1718" 
d="M1245 25l-123 -56q-31 71 -81.5 119t-118 73.5t-139.5 35.5t-165 10h-290v110h229v5q-89 28 -167 85t-139 137t-96.5 189t-35.5 232q0 137 35 241.5t95.5 164.5t132.5 89t155 29q128 0 214.5 -71.5t112.5 -168.5h4q27 100 114.5 170t213.5 70q182 0 299 -126.5
t117 -354.5q0 -244 -119 -445l-135 49q102 190 102 398q0 176 -74 265t-200 89q-49 0 -91.5 -16.5t-78 -51t-56 -96.5t-20.5 -145v-312h-149v312q0 154 -68 231.5t-176 77.5q-124 0 -200.5 -96t-76.5 -303q0 -125 39.5 -232.5t108 -185t157.5 -130t191 -75.5
q192 -43 305.5 -115.5t173.5 -201.5z" />
    <glyph glyph-name="uni1CA7" unicode="&#x1ca7;" horiz-adv-x="1302" 
d="M616 -39q-134 0 -245.5 47t-178.5 136t-67 202q0 59 20 109l142 -29q-13 -41 -13 -78q0 -114 99 -188t243 -74q164 0 260.5 91.5t96.5 264.5v357h-4q-52 -95 -151.5 -146t-229.5 -51q-88 0 -170.5 30.5t-148.5 87.5t-106 147t-40 200q0 122 42.5 231t106.5 185l125 -49
q-125 -174 -125 -355q0 -162 97 -256t247 -94q164 0 263.5 102.5t99.5 276.5v344h145v-1012q0 -222 -140 -350.5t-368 -128.5z" />
    <glyph glyph-name="uni1CA8" unicode="&#x1ca8;" horiz-adv-x="1333" 
d="M643 -39q-123 0 -224.5 40.5t-165.5 108t-99 153.5t-35 179q0 94 34.5 181t97.5 154.5t159.5 108t212.5 40.5q121 0 230.5 -56t162.5 -151h6v399q0 119 -56 182.5t-151 63.5q-88 0 -144.5 -58t-56.5 -151v-78h-141v74q0 195 -207 195h-121v127h134q97 0 167.5 -46
t94.5 -129h6q25 86 102.5 138.5t184.5 52.5q150 0 243.5 -93.5t93.5 -258.5v-688q0 -210 -144.5 -349t-383.5 -139zM643 86q172 0 278.5 99t106.5 257t-110.5 258.5t-274.5 100.5q-171 0 -273 -101t-102 -258q0 -155 103 -255.5t272 -100.5z" />
    <glyph glyph-name="uni1CA9" unicode="&#x1ca9;" horiz-adv-x="1300" 
d="M997 -33l-127 51q76 106 119 210t43 237q0 66 -22 127.5t-63 111t-107.5 79.5t-147.5 30q-163 0 -265.5 -111t-102.5 -274v-428h-148v1087q0 187 114 294.5t290 107.5q167 0 281 -92.5t114 -229.5q0 -75 -33 -139l-135 25q18 45 18 94q0 94 -68.5 154.5t-174.5 60.5
q-116 0 -185 -74t-69 -196v-363h6q52 98 155 153.5t226 55.5q203 0 335 -130t132 -339q0 -287 -185 -502z" />
    <glyph glyph-name="uni1CAA" unicode="&#x1caa;" horiz-adv-x="1445" 
d="M793 -39q-146 0 -269.5 53.5t-213.5 152.5t-140.5 247.5t-50.5 330.5q0 158 41.5 308t96 249.5t120.5 178.5l123 -54q-61 -80 -108.5 -170t-85.5 -228.5t-38 -283.5q0 -131 29 -240.5t79 -186t117.5 -129.5t143 -78t156.5 -25q172 0 279.5 84.5t107.5 228.5q0 79 -28 141
t-75.5 98.5t-105 55.5t-121.5 19h-162v129h186q111 0 185 44.5t74 131.5q0 41 -15 76.5t-39.5 61t-53.5 49.5t-58.5 48.5t-54 51.5t-39.5 64t-15 81h150q4 -36 26 -68.5t52 -56.5t65 -55t64 -62t48 -79t19 -105q0 -95 -65 -162t-170 -86v-4q123 -28 202.5 -128t79.5 -255
q0 -191 -150 -309.5t-386 -118.5z" />
    <glyph glyph-name="uni1CAB" unicode="&#x1cab;" horiz-adv-x="1337" 
d="M633 -39q-124 0 -226 42t-166.5 111.5t-99.5 156.5t-35 180q0 94 34 182t96.5 157.5t160.5 111.5t215 42q121 0 230.5 -56t163.5 -151h4v713h149v-989q0 -103 -37 -194t-104 -159t-166.5 -107.5t-218.5 -39.5zM633 86q172 0 277.5 104t105.5 263q0 156 -109.5 261
t-273.5 105q-174 0 -275.5 -104.5t-101.5 -261.5t102.5 -262t274.5 -105z" />
    <glyph glyph-name="uni1CAC" unicode="&#x1cac;" horiz-adv-x="1333" 
d="M690 -39q-239 0 -383.5 139t-144.5 349v688q0 165 94 258.5t244 93.5q107 0 184 -52.5t102 -138.5h7q24 83 94.5 129t167.5 46h133v-127h-121q-207 0 -207 -195v-74h-141v78q0 93 -56.5 151t-144.5 58q-95 0 -151 -63.5t-56 -182.5v-399h6q53 95 163 151t231 56
q154 0 270.5 -69.5t174.5 -178.5t58 -236q0 -93 -35 -179t-99 -153.5t-165.5 -108t-224.5 -40.5zM690 86q169 0 272 100.5t103 255.5q0 157 -102 258t-273 101q-164 0 -274.5 -100.5t-110.5 -258.5t106.5 -257t278.5 -99z" />
    <glyph glyph-name="uni1CAD" unicode="&#x1cad;" horiz-adv-x="1382" 
d="M621 -39q-222 0 -362 118.5t-140 280.5q0 79 28 140l140 -37q-17 -49 -17 -90q0 -121 102 -204t255 -83q154 0 250 98t96 283v328h-6q-53 -95 -156.5 -146t-230.5 -51q-82 0 -155.5 20.5t-131 59.5t-91.5 102t-34 142q0 153 120 238t308 85h377v213h147v-213h240v-119
h-240v-669q0 -232 -139.5 -364t-359.5 -132zM604 721q169 0 273 91t104 243v71h-354q-141 0 -223 -48.5t-82 -153.5q0 -55 24.5 -95.5t66.5 -63.5t89.5 -33.5t101.5 -10.5z" />
    <glyph glyph-name="uni1CAE" unicode="&#x1cae;" horiz-adv-x="1337" 
d="M707 -39q-238 0 -384.5 144.5t-146.5 355.5v989h152v-713h6q53 95 162.5 151t230.5 56q117 0 214 -42t159.5 -111.5t96.5 -157.5t34 -182q0 -93 -35 -180t-99 -156.5t-165.5 -111.5t-224.5 -42zM707 86q115 0 201.5 53t128.5 135t42 177q0 149 -100 258.5t-272 109.5
q-173 0 -278 -108t-105 -256q0 -97 44 -180t133 -136t206 -53z" />
    <glyph glyph-name="uni1CAF" unicode="&#x1caf;" horiz-adv-x="1255" 
d="M627 -39q-117 0 -215 37t-161 97.5t-97.5 137t-34.5 158.5q0 105 37 180l139 -45q-25 -57 -25 -133q0 -129 100 -218t259 -89t259.5 89t100.5 245q0 161 -100.5 249.5t-251.5 88.5h-86v368h-397v119h397v213h143v-213h402v-119h-402v-256q202 -14 323.5 -136.5
t121.5 -319.5q0 -206 -143.5 -329.5t-368.5 -123.5z" />
    <glyph glyph-name="uni1CB0" unicode="&#x1cb0;" horiz-adv-x="1200" 
d="M584 -39q-97 0 -187 22.5t-164 66t-118.5 115.5t-44.5 161q0 45 14 80l141 -29q-8 -24 -8 -53q0 -60 33.5 -107.5t88 -75.5t117.5 -42.5t128 -14.5q94 0 171 23.5t128 77.5t51 130q0 98 -85.5 150.5t-225.5 52.5h-160v127h227q211 0 211 123q0 135 -213 135h-225v125h219
q182 0 182 98q0 41 -32 69t-80 41.5t-105 31t-105.5 35.5t-82 57t-35.5 94h151q8 -32 44 -54.5t84.5 -35t103.5 -30.5t100.5 -39t76 -62t30.5 -98q0 -139 -178 -164v-4q100 -13 157.5 -62.5t57.5 -136.5q0 -82 -54 -130.5t-145 -59.5v-5q101 -21 166 -88t65 -182
q0 -102 -68 -180.5t-181 -120t-250 -41.5z" />
    <glyph glyph-name="uni1CB1" unicode="&#x1cb1;" horiz-adv-x="1447" 
d="M815 -39q-150 0 -278 53.5t-220.5 152.5t-145 247t-52.5 329q0 231 76.5 422t183.5 316l121 -56q-96 -124 -163 -297t-67 -385q0 -161 46 -289.5t124 -207t174 -119.5t201 -41q165 0 260.5 60t95.5 176q0 94 -84 145t-221 51h-157v127h233q207 0 207 123q0 135 -209 135
h-231v125h219q91 0 137.5 24.5t46.5 80.5q0 31 -16 55.5t-41 40t-56 30t-62 31t-56.5 36.5t-42 53t-17.5 75h152q4 -32 35.5 -58.5t73.5 -48t83 -47t69 -67.5t28 -98q0 -69 -49 -110.5t-136 -53.5v-4q101 -13 161 -62.5t60 -136.5q0 -81 -57 -130t-149 -60v-5
q103 -20 171 -88.5t68 -177.5q0 -151 -142.5 -248.5t-373.5 -97.5z" />
    <glyph glyph-name="uni1CB2" unicode="&#x1cb2;" horiz-adv-x="1249" 
d="M170 -10v125q188 0 328 57v4q-167 93 -273 261t-106 370v149q0 122 39.5 223.5t108 168.5t161 104t197.5 37q106 0 198.5 -37t161.5 -104t108.5 -168.5t39.5 -223.5v-149q0 -203 -106.5 -370t-274.5 -261v-4q143 -57 329 -57v-125q-240 0 -456 112q-213 -112 -455 -112z
M625 221q161 94 258.5 247t97.5 347v127q0 192 -99.5 307t-256.5 115q-156 0 -255.5 -115t-99.5 -307v-127q0 -196 96.5 -346.5t258.5 -247.5z" />
    <glyph glyph-name="uni1CB3" unicode="&#x1cb3;" horiz-adv-x="1257" 
d="M627 -39q-115 0 -212.5 37t-161 97.5t-99 137.5t-35.5 158q0 101 37 176l139 -45q-25 -57 -25 -129q0 -129 101 -218t258 -89q154 0 257 92.5t103 237.5q0 79 -28.5 142.5t-75.5 102.5t-104 59.5t-117 20.5h-125v127h131q53 0 100.5 14.5t87.5 44.5t64 81.5t24 119.5v197
h-629v-217h-147v342h926v-317q0 -128 -66 -213t-174 -109v-4q125 -32 204 -140t79 -261q0 -125 -68 -227t-185 -160t-259 -58z" />
    <glyph glyph-name="uni1CB4" unicode="&#x1cb4;" horiz-adv-x="1220" 
d="M604 -39q-97 0 -187 22.5t-164 66t-118.5 115.5t-44.5 161q0 45 14 80l142 -29q-8 -24 -8 -53q0 -60 33.5 -107.5t87.5 -75.5t117 -42.5t128 -14.5q94 0 171 23.5t128 77.5t51 130q0 98 -85.5 150.5t-225.5 52.5h-160v127h228q211 0 211 123q0 16 -3.5 30.5t-13 27.5
t-17 23t-25.5 20.5t-29 17.5t-35.5 15.5t-37 13t-42.5 13t-42.5 11.5t-45.5 12q-49 12 -80 20.5t-76.5 23.5t-74.5 30t-62 38t-52 48.5t-31.5 61.5t-12.5 77q0 107 99 173.5t265 66.5q100 0 199.5 -24t157.5 -60l-60 -109q-122 70 -285 70q-115 0 -172 -35t-57 -90
q0 -26 9.5 -47t32.5 -38.5t43.5 -29.5t60.5 -25t65.5 -20t75.5 -20q53 -14 81.5 -21.5t77 -23.5t76 -30t62.5 -37t53.5 -48t31.5 -59.5t13 -75.5q0 -78 -54.5 -128.5t-144.5 -61.5v-5q101 -21 166.5 -88t65.5 -182q0 -102 -68 -180.5t-181.5 -120t-250.5 -41.5z" />
    <glyph glyph-name="uni1CB5" unicode="&#x1cb5;" horiz-adv-x="1363" 
d="M1065 616h223l2 -118h-225v-160q0 -97 -41.5 -172t-111 -118.5t-151 -65t-171.5 -21.5q-133 0 -237.5 36.5t-169 114t-64.5 185.5q0 153 116.5 236t311.5 83h379v244h-371q-197 0 -306.5 80t-109.5 229q0 104 61.5 177.5t163 108t232.5 34.5q70 0 134.5 -11.5
t126.5 -38.5t107.5 -67.5t73 -103t27.5 -140.5v-147h225l-2 -121h-223v-244zM578 981h348v125q0 262 -328 262q-146 0 -230.5 -49t-84.5 -150q0 -188 295 -188zM590 84q163 0 249.5 69t86.5 203v142h-357q-305 0 -305 -201q0 -106 90 -159.5t236 -53.5z" />
    <glyph glyph-name="uni1CB6" unicode="&#x1cb6;" horiz-adv-x="1763" 
d="M1659 731q0 -109 -23.5 -206.5t-77.5 -185t-134 -152t-200.5 -104.5t-269.5 -46v-111h-145v111q-160 6 -285 50.5t-202.5 112t-128 159t-70 182.5t-19.5 190q0 78 14 152t44.5 151.5t85.5 143t130 118.5t185.5 85t245.5 36v111h145v-111q157 -5 281.5 -49.5t202.5 -111.5
t129 -157.5t71.5 -180.5t20.5 -187zM258 731q0 -268 141.5 -413t409.5 -154v1126q-272 -10 -411.5 -156t-139.5 -403zM954 1290v-1126q261 11 406 152t145 415q0 256 -139 402.5t-412 156.5z" />
    <glyph glyph-name="uni1CB7" unicode="&#x1cb7;" horiz-adv-x="1298" 
d="M649 -39q-232 0 -381 131t-149 332q0 61 15.5 115t38 95t62 79.5t74 64t87.5 54t89.5 44.5t92.5 39q57 24 94 41t77.5 42.5t63.5 51t38 60.5t15 76q0 85 -64 136.5t-163 51.5t-164 -49t-65 -131q0 -39 14 -86l-137 -27q-25 57 -25 115q0 126 113.5 209.5t263.5 83.5
q158 0 265.5 -84.5t107.5 -218.5q0 -43 -10 -81t-25.5 -67.5t-42 -57t-52.5 -48t-64.5 -42t-70 -36.5t-77.5 -35q-167 -73 -232 -115q-153 -100 -166 -247q-2 -16 -2 -33q0 -143 105.5 -240.5t273.5 -97.5q166 0 273.5 98.5t107.5 237.5q0 109 -45 194l137 46
q60 -107 60 -238q0 -196 -151.5 -329.5t-381.5 -133.5z" />
    <glyph glyph-name="uni1CB8" unicode="&#x1cb8;" horiz-adv-x="1302" 
d="M686 -39q-228 0 -368 128.5t-140 350.5v1012h146v-344q0 -174 99 -276.5t263 -102.5q150 0 247 94t97 256q0 181 -125 355l125 49q65 -76 107.5 -185t42.5 -231q0 -110 -40 -200t-106 -147t-148.5 -87.5t-170.5 -30.5q-130 0 -229.5 51t-151.5 146h-4v-357
q0 -173 96 -264.5t260 -91.5q144 0 243 74t99 188q0 40 -12 78l141 29q21 -53 21 -109q0 -113 -67 -202t-179 -136t-246 -47z" />
    <glyph glyph-name="uni1CB9" unicode="&#x1cb9;" horiz-adv-x="1304" 
d="M651 1489q125 0 228 -41.5t169 -110.5t102 -157.5t36 -184.5q0 -179 -121.5 -314t-335.5 -171q-280 -47 -280 -242q0 -88 64.5 -139t162.5 -51t163.5 51t65.5 127q0 40 -12 74l135 30q23 -53 23 -104q0 -87 -56 -156t-140.5 -104t-176.5 -35q-95 0 -179 34.5t-139 105.5
t-55 163q0 96 56.5 166t152.5 100v5q-182 30 -289.5 161.5t-107.5 298.5q0 96 36 184.5t102 157.5t169 110.5t227 41.5zM651 1364q-171 0 -278 -105t-107 -264t107 -263.5t278 -104.5q172 0 277.5 104.5t105.5 263.5q0 160 -105.5 264.5t-277.5 104.5z" />
    <glyph glyph-name="uni1CBA" unicode="&#x1cba;" horiz-adv-x="1161" 
d="M1120 356l-760 -381l-53 119l311 168v6q-223 19 -361 184.5t-138 409.5q0 149 45.5 269.5t124.5 198t183.5 118.5t225.5 41q133 0 244.5 -49.5t183.5 -145.5l-104 -86q-56 73 -140 112.5t-184 39.5q-187 0 -304.5 -135t-117.5 -363q0 -231 117 -370.5t303 -139.5
q159 0 365 121z" />
    <glyph glyph-name="uni1CBD" unicode="&#x1cbd;" horiz-adv-x="1277" 
d="M645 -39q-228 0 -377 124t-149 318q0 110 47 193l131 -45q-29 -68 -29 -148q0 -138 105 -227.5t276 -89.5q159 0 260 78.5t101 212.5q0 60 -21 107.5t-63 82.5t-89 60t-114 49l-143 53q-64 24 -111.5 46.5t-100 58.5t-86 77t-55.5 100t-22 128q0 107 59.5 188t158 121.5
t218.5 40.5q113 0 210.5 -40.5t159.5 -120t62 -181.5q0 -72 -22 -131l-140 33q13 43 13 92q0 104 -78.5 169.5t-206.5 65.5q-126 0 -207.5 -63.5t-81.5 -175.5q0 -56 24.5 -102.5t70.5 -82t96 -60.5t118 -50l144 -54q63 -24 111.5 -48t96.5 -59t79 -76t50 -97t19 -123
q0 -128 -68 -225.5t-184 -148t-262 -50.5z" />
    <glyph glyph-name="uni1CBE" unicode="&#x1cbe;" horiz-adv-x="1249" 
d="M170 1335v125q242 0 455 -112q216 112 456 112v-125q-186 0 -329 -57v-4q168 -94 274.5 -261t106.5 -370v-149q0 -122 -39.5 -223.5t-108.5 -168.5t-161.5 -104t-198.5 -37q-105 0 -197.5 37t-161 104t-108 168.5t-39.5 223.5v149q0 202 106 370t273 261v4
q-140 57 -328 57zM625 1229q-162 -97 -258.5 -247.5t-96.5 -346.5v-127q0 -192 99.5 -307t255.5 -115q157 0 256.5 115t99.5 307v127q0 194 -97.5 347t-258.5 247z" />
    <glyph glyph-name="uni1CBF" unicode="&#x1cbf;" horiz-adv-x="1554" 
d="M776 -39q-185 0 -334 94t-236 269.5t-87 402.5t87 401.5t236 267.5t334 93q143 0 265 -54.5t210 -152.5t137.5 -241t49.5 -314t-50 -314.5t-138 -242.5t-210 -154t-264 -55zM776 92q155 0 270.5 82.5t174.5 225.5t59 327q0 183 -59.5 325.5t-175 225t-269.5 82.5
q-150 0 -264.5 -82t-176 -225.5t-61.5 -325.5q0 -279 137.5 -457t364.5 -178z" />
    <glyph glyph-name="uni200C" unicode="&#x200c;" 
d="M0 2171l-109 -107l-32 35l106 107l-106 106l32 35l109 -109l106 107l33 -33l-106 -106l106 -107l-33 -33z" />
    <glyph glyph-name="uni200D" unicode="&#x200d;" 
d="M-156 2208h-47v141h408v-141h-47v94h-314v-94z" />
    <glyph glyph-name="uni200E" unicode="&#x200e;" 
d="M184 2208l-141 -142l-35 37l84 82h-256v47h256l-84 80l35 37z" />
    <glyph glyph-name="uni200F" unicode="&#x200f;" 
d="M-8 2116l-35 -37l-141 141l141 141l35 -37l-84 -79h256v-47h-256z" />
    <glyph glyph-name="uni2010" unicode="&#x2010;" horiz-adv-x="655" 
d="M557 438h-459v117h459v-117z" />
    <glyph glyph-name="uni2011" unicode="&#x2011;" horiz-adv-x="655" 
d="M557 438h-459v117h459v-117z" />
    <glyph glyph-name="endash" unicode="&#x2013;" horiz-adv-x="819" 
d="M758 438h-697v117h697v-117z" />
    <glyph glyph-name="emdash" unicode="&#x2014;" horiz-adv-x="1228" 
d="M1167 438h-1106v117h1106v-117z" />
    <glyph glyph-name="quoteleft" unicode="&#x2018;" horiz-adv-x="454" 
d="M231 969h-145l166 481h117z" />
    <glyph glyph-name="quoteright" unicode="&#x2019;" horiz-adv-x="454" 
d="M203 969h-117l137 481h146z" />
    <glyph glyph-name="quotesinglbase" unicode="&#x201a;" horiz-adv-x="454" 
d="M203 -287h-117l137 482h146z" />
    <glyph glyph-name="quotedblleft" unicode="&#x201c;" horiz-adv-x="792" 
d="M231 969h-145l166 481h117zM569 969h-145l166 481h117z" />
    <glyph glyph-name="quotedblright" unicode="&#x201d;" horiz-adv-x="792" 
d="M203 969h-117l137 481h146zM541 969h-117l137 481h146z" />
    <glyph glyph-name="quotedblbase" unicode="&#x201e;" horiz-adv-x="792" 
d="M203 -287h-117l137 482h146zM541 -287h-117l137 482h146z" />
    <glyph glyph-name="dagger" unicode="&#x2020;" horiz-adv-x="1138" 
d="M637 -258h-135v1167h-418v123h418v418h135v-418h418v-123h-418v-1167z" />
    <glyph glyph-name="daggerdbl" unicode="&#x2021;" horiz-adv-x="1138" 
d="M637 -258h-135v393h-400v123h400v676h-400v123h400v393h135v-393h399v-123h-399v-676h399v-123h-399v-393z" />
    <glyph glyph-name="bullet" unicode="&#x2022;" horiz-adv-x="1024" 
d="M512 362q-151 0 -256.5 106t-105.5 257t105.5 256.5t256.5 105.5t256.5 -105.5t105.5 -256.5t-105.5 -257t-256.5 -106z" />
    <glyph glyph-name="ellipsis" unicode="&#x2026;" horiz-adv-x="2048" 
d="M342 -12q-48 0 -79.5 33t-31.5 77t31.5 77.5t79.5 33.5t79.5 -33.5t31.5 -77.5t-31.5 -77t-79.5 -33zM1024 -12q-48 0 -79.5 33t-31.5 77t31.5 77.5t79.5 33.5t79.5 -33.5t31.5 -77.5t-31.5 -77t-79.5 -33zM1706 -12q-48 0 -79.5 33t-31.5 77t31.5 77.5t79.5 33.5
t79.5 -33.5t31.5 -77.5t-31.5 -77t-79.5 -33z" />
    <glyph glyph-name="uni202A" unicode="&#x202a;" 
d="M195 2210l-142 -142l-33 35l82 84h-100v47h100l-82 80l33 35zM-57 2187h-115v47h115v-47z" />
    <glyph glyph-name="uni202B" unicode="&#x202b;" 
d="M-20 2103l-33 -32l-142 139l142 139l33 -31l-82 -84h100v-47h-100zM172 2187h-115v47h115v-47z" />
    <glyph glyph-name="uni202C" unicode="&#x202c;" 
d="M23 2052h-48v207l-79 -82l-35 33l139 139l139 -139l-35 -33l-81 82v-207z" />
    <glyph glyph-name="uni202D" unicode="&#x202d;" 
d="M98 2210l-141 -142l-33 35l84 84h-219v47h217l-82 80l33 35zM229 2210l-141 -142l-31 35l109 107l-109 104l31 35z" />
    <glyph glyph-name="uni202E" unicode="&#x202e;" 
d="M-57 2101l-31 -35l-141 142l141 141l31 -35l-107 -106zM76 2101l-33 -35l-139 142l139 141l33 -35l-82 -86h217v-43h-217z" />
    <glyph glyph-name="perthousand" unicode="&#x2030;" horiz-adv-x="2048" 
d="M1178 1458l-922 -1521l-106 55l923 1521zM365 844q-130 0 -222 93t-92 222q0 130 92 223t222 93t221.5 -93t91.5 -223t-91.5 -222.5t-221.5 -92.5zM365 954q84 0 143 60t59 145t-59 145t-143 60q-85 0 -144 -60t-59 -145t59 -145t144 -60zM967 -25q-130 0 -222 93
t-92 223q0 129 92 222t222 93t221.5 -92.5t91.5 -222.5t-91.5 -223t-221.5 -93zM1683 -25q-130 0 -221.5 93t-91.5 223t91.5 222.5t221.5 92.5t222 -93t92 -222q0 -130 -92 -223t-222 -93zM967 86q84 0 143 60t59 145t-59 145t-143 60q-85 0 -144 -60t-59 -145t59 -145
t144 -60zM1683 86q85 0 144 60t59 145t-59 145t-144 60q-84 0 -143 -60t-59 -145t59 -145t143 -60z" />
    <glyph glyph-name="guilsinglleft" unicode="&#x2039;" horiz-adv-x="645" 
d="M504 131l-96 -68l-287 429l287 428l96 -68l-236 -360z" />
    <glyph glyph-name="guilsinglright" unicode="&#x203a;" horiz-adv-x="645" 
d="M524 492l-286 -429l-97 68l236 361l-236 360l97 68z" />
    <glyph glyph-name="fraction" unicode="&#x2044;" horiz-adv-x="204" 
d="M-313 -63l-107 55l924 1521l104 -55z" />
    <glyph glyph-name="zero.sups" unicode="&#x2070;" horiz-adv-x="757" 
d="M379 911q-82 0 -141 38t-91 104t-46.5 141t-14.5 164t14.5 164t46.5 141t91 103.5t141 37.5q65 0 116 -25.5t83 -67.5t53.5 -101t30 -120.5t8.5 -131.5q0 -88 -14.5 -164t-46.5 -141.5t-91 -103.5t-139 -38zM379 1022q45 0 78 30t51 80.5t26.5 106.5t8.5 119
q0 62 -8.5 118.5t-26.5 107.5t-51 81.5t-78 30.5q-46 0 -80 -30.5t-52 -81.5t-26 -107.5t-8 -118.5q0 -63 8 -119t26 -106.5t52 -80.5t80 -30z" />
    <glyph glyph-name="four.sups" unicode="&#x2074;" horiz-adv-x="757" 
d="M565 926h-112v200h-385v107l358 557h139v-553h123v-111h-123v-200zM446 1624l-249 -387h256v387h-7z" />
    <glyph glyph-name="five.sups" unicode="&#x2075;" horiz-adv-x="757" 
d="M358 911q-98 0 -169.5 47.5t-104.5 128.5l113 46q54 -111 161 -111q75 0 121.5 47.5t46.5 128.5t-50 129.5t-130 48.5q-82 0 -194 -61l8 475h458v-111h-339l-7 -215q42 17 101 17q125 0 201.5 -76.5t76.5 -198.5q0 -133 -81 -214t-212 -81z" />
    <glyph glyph-name="six.sups" unicode="&#x2076;" horiz-adv-x="757" 
d="M381 911q-125 0 -208 79.5t-83 201.5q0 104 80 231l229 367h146l-219 -334l2 -2q34 12 67 12q118 0 196.5 -77t78.5 -197q0 -122 -82.5 -201.5t-206.5 -79.5zM381 1022q72 0 119 49t47 121t-46 120t-120 48q-75 0 -121.5 -48.5t-46.5 -119.5q0 -73 47.5 -121.5
t120.5 -48.5z" />
    <glyph glyph-name="seven.sups" unicode="&#x2077;" horiz-adv-x="757" 
d="M311 926h-137l342 753h-391v111h526v-96z" />
    <glyph glyph-name="eight.sups" unicode="&#x2078;" horiz-adv-x="757" 
d="M379 911q-118 0 -201.5 71t-83.5 183q0 75 35.5 131t97.5 86v2q-51 30 -76.5 79t-25.5 106q0 104 74 169.5t180 65.5q105 0 178.5 -65.5t73.5 -169.5q0 -57 -27 -106.5t-76 -78.5v-2q61 -28 97.5 -85.5t36.5 -131.5q0 -112 -83.5 -183t-199.5 -71zM379 1436q54 0 91.5 37
t37.5 92q0 57 -36.5 94t-92.5 37q-57 0 -94 -37t-37 -94q0 -55 37.5 -92t93.5 -37zM379 1022q71 0 115.5 42.5t44.5 109.5q0 65 -44.5 108t-115.5 43q-72 0 -117 -43t-45 -108q0 -67 44.5 -109.5t117.5 -42.5z" />
    <glyph glyph-name="nine.sups" unicode="&#x2079;" horiz-adv-x="757" 
d="M358 926h-145l221 336l-2 2q-26 -13 -70 -13q-118 0 -196 78t-78 197q0 121 83 199.5t208 78.5t207 -78.5t82 -199.5q0 -106 -80 -236zM379 1358q74 0 120 48t46 120q0 71 -47.5 120.5t-118.5 49.5q-73 0 -120.5 -49.5t-47.5 -120.5q0 -72 46.5 -120t121.5 -48z" />
    <glyph glyph-name="plus.sups" unicode="&#x207a;" horiz-adv-x="757" 
d="M426 993h-96v277h-277v96h277v276h96v-276h276v-96h-276v-277z" />
    <glyph glyph-name="minus.sups" unicode="&#x207b;" horiz-adv-x="757" 
d="M702 1270h-649v96h649v-96z" />
    <glyph glyph-name="equal.sups" unicode="&#x207c;" horiz-adv-x="757" 
d="M702 1374h-649v96h649v-96zM702 1163h-649v97h649v-97z" />
    <glyph glyph-name="zero.subs" unicode="&#x2080;" horiz-adv-x="757" 
d="M379 -297q-82 0 -141 38t-91 104t-46.5 141t-14.5 164t14.5 164t46.5 141t91 103.5t141 37.5q65 0 116 -25.5t83 -67.5t53.5 -101t30 -120.5t8.5 -131.5q0 -88 -14.5 -164t-46.5 -141.5t-91 -103.5t-139 -38zM379 -186q45 0 78 30t51 80.5t26.5 106.5t8.5 119
q0 62 -8.5 118.5t-26.5 107t-51 81t-78 30.5q-46 0 -80 -30t-52 -81.5t-26 -107.5t-8 -118q0 -63 8 -119t26 -106.5t52 -80.5t80 -30z" />
    <glyph glyph-name="one.subs" unicode="&#x2081;" horiz-adv-x="757" 
d="M475 -283h-125v709l-131 -117l-78 84l230 189h104v-865z" />
    <glyph glyph-name="two.subs" unicode="&#x2082;" horiz-adv-x="757" 
d="M653 -283h-565v117l342 346q88 92 88 176q0 58 -38.5 92.5t-98.5 34.5q-57 0 -99 -38.5t-55 -104.5l-123 18q20 105 97.5 171.5t179.5 66.5q114 0 191 -62.5t77 -177.5q0 -43 -11.5 -81t-36.5 -73t-43.5 -56t-53.5 -56l-262 -262h411v-111z" />
    <glyph glyph-name="three.subs" unicode="&#x2083;" horiz-adv-x="757" 
d="M369 -297q-99 0 -174 49t-115 148l117 39q20 -59 65.5 -92t106.5 -33q68 0 115.5 39t47.5 110q0 77 -56.5 113.5t-139.5 36.5h-55v104h55q78 0 125 34.5t47 108.5q0 56 -40.5 91.5t-100.5 35.5q-46 0 -87 -26.5t-67 -75.5l-102 53q44 79 111.5 118.5t148.5 39.5
q112 0 186 -61t74 -173q0 -125 -115 -188v-2q65 -27 102 -80.5t37 -128.5q0 -122 -82 -191t-204 -69z" />
    <glyph glyph-name="four.subs" unicode="&#x2084;" horiz-adv-x="757" 
d="M565 -283h-112v201h-385v107l358 557h139v-553h123v-111h-123v-201zM446 416l-249 -387h256v387h-7z" />
    <glyph glyph-name="five.subs" unicode="&#x2085;" horiz-adv-x="757" 
d="M358 -297q-98 0 -169.5 47.5t-104.5 128.5l113 45q53 -110 161 -110q75 0 121.5 47.5t46.5 128.5t-50 129.5t-130 48.5t-194 -62l8 476h458v-111h-339l-7 -215q40 16 101 16q125 0 201.5 -76t76.5 -198q0 -133 -81 -214t-212 -81z" />
    <glyph glyph-name="six.subs" unicode="&#x2086;" horiz-adv-x="757" 
d="M381 -297q-125 0 -208 79.5t-83 201.5q0 104 80 231l229 367h146l-219 -334l2 -2q34 12 67 12q118 0 196.5 -77t78.5 -197q0 -122 -82.5 -201.5t-206.5 -79.5zM381 -186q72 0 119 49t47 121t-46 120t-120 48q-75 0 -121.5 -48.5t-46.5 -119.5q0 -73 47.5 -121.5
t120.5 -48.5z" />
    <glyph glyph-name="seven.subs" unicode="&#x2087;" horiz-adv-x="757" 
d="M311 -283h-137l342 754h-391v111h526v-97z" />
    <glyph glyph-name="eight.subs" unicode="&#x2088;" horiz-adv-x="757" 
d="M379 -297q-118 0 -201.5 71t-83.5 183q0 75 35.5 131t97.5 86v2q-51 30 -76.5 78.5t-25.5 105.5q0 105 74 170.5t180 65.5q104 0 178 -66t74 -170q0 -56 -27 -105.5t-76 -78.5v-2q61 -28 97.5 -85.5t36.5 -131.5q0 -112 -83.5 -183t-199.5 -71zM379 227q54 0 91.5 37
t37.5 92q0 57 -36.5 94t-92.5 37q-57 0 -94 -37t-37 -94q0 -55 37.5 -92t93.5 -37zM379 -186q72 0 116 42.5t44 108.5q0 65 -44.5 108.5t-115.5 43.5q-72 0 -117 -43t-45 -109q0 -67 44.5 -109t117.5 -42z" />
    <glyph glyph-name="nine.subs" unicode="&#x2089;" horiz-adv-x="757" 
d="M358 -283h-145l221 336l-2 2q-24 -12 -70 -12q-118 0 -196 77.5t-78 196.5q0 121 83 200t208 79t207 -79t82 -200q0 -105 -80 -235zM379 150q74 0 120 47.5t46 119.5q0 71 -47.5 120.5t-118.5 49.5q-73 0 -120.5 -49.5t-47.5 -120.5q0 -72 46.5 -119.5t121.5 -47.5z" />
    <glyph glyph-name="plus.subs" unicode="&#x208a;" horiz-adv-x="757" 
d="M426 -215h-96v276h-277v97h277v276h96v-276h276v-97h-276v-276z" />
    <glyph glyph-name="minus.subs" unicode="&#x208b;" horiz-adv-x="757" 
d="M702 61h-649v97h649v-97z" />
    <glyph glyph-name="equal.subs" unicode="&#x208c;" horiz-adv-x="757" 
d="M702 166h-649v96h649v-96zM702 -45h-649v96h649v-96z" />
    <glyph glyph-name="Euro" unicode="&#x20ac;" horiz-adv-x="1187" 
d="M768 -37q-120 0 -224 43.5t-177 117t-121 166.5t-66 195h-155l41 113h100q-6 81 -6 115q0 69 8 135h-141l41 113h116q56 248 220 387t389 139q179 0 305 -66l-51 -125q-106 62 -261 62q-174 0 -291.5 -105.5t-160.5 -291.5h614l-37 -113h-596q-10 -68 -10 -133
q0 -51 8 -117h525l-37 -113h-473q32 -178 158.5 -285.5t299.5 -107.5q161 0 279 82l59 -115q-137 -96 -356 -96z" />
    <glyph glyph-name="uni20BE" unicode="&#x20be;" horiz-adv-x="1710" 
d="M1411 0h-1161v125h264v6q-177 62 -286 228t-109 378q0 262 139 453t371 258v172h88v-154q67 15 139 15q65 0 135 -13v152h88v-170q234 -68 373 -261.5t139 -461.5h-149q0 218 -94.5 372t-268.5 222v-594h-88v616q-68 19 -135 19q-54 0 -139 -19v-616h-88v592
q-173 -66 -267 -218t-94 -368q0 -130 42 -240.5t119.5 -191.5t194.5 -126.5t261 -45.5h526v-129z" />
    <glyph glyph-name="trademark" unicode="&#x2122;" horiz-adv-x="2048" 
d="M549 606h-123v733h-279v111h674v-111h-272v-733zM1120 606h-123v844h191l264 -647l264 647h185v-844h-123v709h-4l-285 -709h-80l-285 709h-4v-709z" />
    <glyph glyph-name="uni2126" unicode="&#x2126;" horiz-adv-x="1572" 
d="M664 0h-531v123h414v94q-199 65 -313.5 227.5t-114.5 384.5q0 153 53 278.5t144.5 208t213 127t258.5 44.5q189 0 340.5 -79.5t239.5 -230.5t88 -348q0 -223 -114 -385.5t-316 -226.5v-94h416v-123h-531v315q182 43 287 178.5t105 337.5q0 106 -33 200t-95.5 167.5
t-162.5 116.5t-224 43q-122 0 -221 -41.5t-163 -113t-98 -167t-34 -205.5q0 -205 105.5 -338.5t286.5 -177.5v-315z" />
    <glyph glyph-name="oneeighth" unicode="&#x215b;" horiz-adv-x="1673" 
d="M1329 1458l-921 -1521l-107 55l924 1521zM475 586h-125v708l-131 -116l-78 84l230 188h104v-864zM1294 -14q-118 0 -201 71t-83 183q0 75 35.5 131t97.5 86v2q-51 30 -77 79t-26 105q0 105 74 170.5t180 65.5q104 0 178 -66t74 -170q0 -57 -26.5 -106t-75.5 -78v-2
q61 -28 97 -85.5t36 -131.5q0 -112 -83.5 -183t-199.5 -71zM1294 510q54 0 91.5 37t37.5 92q0 57 -36.5 94t-92.5 37q-57 0 -94 -37t-37 -94q0 -55 37.5 -92t93.5 -37zM1294 96q71 0 115.5 42.5t44.5 109.5q0 65 -44.5 108t-115.5 43q-72 0 -116.5 -42.5t-44.5 -108.5
q0 -67 44 -109.5t117 -42.5z" />
    <glyph glyph-name="threeeighths" unicode="&#x215c;" horiz-adv-x="1677" 
d="M1262 1513l104 -55l-922 -1521l-106 55zM369 571q-99 0 -174 49t-115 148l117 39q20 -59 65.5 -92t106.5 -33q68 0 115.5 39t47.5 110q0 77 -56.5 113.5t-139.5 36.5h-55v104h55q78 0 125 35t47 109q0 56 -40.5 91.5t-100.5 35.5q-46 0 -87 -27t-67 -76l-102 54
q88 157 260 157q112 0 186 -60.5t74 -172.5q0 -62 -30.5 -111.5t-82.5 -77.5v-4q64 -25 100.5 -79t36.5 -128q0 -122 -82 -191t-204 -69zM1298 -14q-118 0 -201 71t-83 183q0 75 35.5 131t97.5 86v2q-51 30 -77 79t-26 105q0 105 74 170.5t180 65.5q104 0 178 -66t74 -170
q0 -57 -26.5 -106t-75.5 -78v-2q61 -28 97 -85.5t36 -131.5q0 -112 -83.5 -183t-199.5 -71zM1298 510q54 0 91.5 37t37.5 92q0 57 -36.5 94t-92.5 37q-57 0 -94 -37t-37 -94q0 -55 37.5 -92t93.5 -37zM1298 96q71 0 115.5 42.5t44.5 109.5q0 65 -44.5 108t-115.5 43
q-72 0 -116.5 -42.5t-44.5 -108.5q0 -67 44 -109.5t117 -42.5z" />
    <glyph glyph-name="fiveeighths" unicode="&#x215d;" horiz-adv-x="1708" 
d="M336 -8l924 1521l104 -55l-922 -1521zM358 571q-98 0 -169.5 48t-104.5 129l113 45q54 -111 161 -111q75 0 121.5 47.5t46.5 128.5t-50 129.5t-130 48.5q-82 0 -194 -61l8 475h458v-111h-339l-7 -215q42 17 101 17q125 0 201.5 -76.5t76.5 -198.5q0 -133 -81 -214
t-212 -81zM1329 -14q-118 0 -201.5 71t-83.5 183q0 74 36 130.5t98 86.5v2q-51 30 -77 79t-26 105q0 105 74 170.5t180 65.5q104 0 178 -66t74 -170q0 -57 -26.5 -106t-75.5 -78v-2q61 -28 97 -85.5t36 -131.5q0 -112 -83.5 -183t-199.5 -71zM1329 510q54 0 91.5 37t37.5 92
q0 57 -36.5 94t-92.5 37q-57 0 -94 -37t-37 -94q0 -55 37.5 -92t93.5 -37zM1329 96q71 0 115.5 42.5t44.5 109.5q0 65 -44.5 108t-115.5 43q-72 0 -117 -43t-45 -108q0 -67 44.5 -109.5t117.5 -42.5z" />
    <glyph glyph-name="seveneighths" unicode="&#x215e;" horiz-adv-x="1566" 
d="M301 -63l-106 55l923 1521l105 -55zM311 586h-137l342 753h-391v111h526v-96zM1188 -14q-118 0 -201.5 71t-83.5 183q0 75 35.5 131t97.5 86v2q-51 30 -76.5 78.5t-25.5 105.5q0 105 74 170.5t180 65.5q104 0 178 -66t74 -170q0 -56 -27 -105.5t-76 -78.5v-2
q61 -28 97 -85.5t36 -131.5q0 -112 -83 -183t-199 -71zM1188 510q54 0 91.5 37t37.5 92q0 57 -36.5 94t-92.5 37q-57 0 -94 -37t-37 -94q0 -55 37.5 -92t93.5 -37zM1188 96q71 0 115.5 42.5t44.5 109.5q0 65 -44.5 108t-115.5 43q-72 0 -117 -43t-45 -108q0 -67 44.5 -109.5
t117.5 -42.5z" />
    <glyph glyph-name="partialdiff" unicode="&#x2202;" horiz-adv-x="1015" 
d="M430 1477q113 0 202.5 -46.5t144.5 -119.5t91 -172.5t50 -196.5t14 -199q0 -71 -4.5 -138t-18 -145.5t-34.5 -145.5t-57 -131t-82.5 -109t-114.5 -72t-150 -27q-93 0 -171 38t-129.5 101.5t-79.5 146.5t-28 173q0 120 46.5 218.5t138.5 158t213 59.5q97 0 186 -45.5
t154 -124.5q2 33 2 105q0 60 -8 120.5t-24 125t-45.5 119.5t-68.5 99t-96 69.5t-125 25.5q-65 0 -116 -23t-113 -71l-74 88q138 119 297 119zM473 84q68 0 123 33t89 83.5t58 118t34.5 128t13.5 122.5q-61 81 -144 134t-174 53q-88 0 -153 -46.5t-96 -119.5t-31 -160
q0 -50 11 -99t34 -93.5t55.5 -79t79 -54.5t100.5 -20z" />
    <glyph glyph-name="uni2206" unicode="&#x2206;" horiz-adv-x="1443" 
d="M1382 0h-1321v98l596 1352h140l585 -1352v-98zM723 1288l-490 -1159h971l-479 1161z" />
    <glyph glyph-name="product" unicode="&#x220f;" horiz-adv-x="1456" 
d="M281 -438h-136v2048h1168v-2048h-135v1921h-897v-1921z" />
    <glyph glyph-name="summation" unicode="&#x2211;" horiz-adv-x="1236" 
d="M1184 -438h-1133v112l674 918l-645 903v115h1079v-127h-905l633 -891l-672 -905h969v-125z" />
    <glyph glyph-name="minus" unicode="&#x2212;" horiz-adv-x="1363" 
d="M1204 559h-1044v123h1044v-123z" />
    <glyph glyph-name="uni2215" unicode="&#x2215;" horiz-adv-x="204" 
d="M608 1458l-921 -1521l-107 55l924 1521z" />
    <glyph glyph-name="uni2219" unicode="&#x2219;" horiz-adv-x="532" 
d="M266 532q-48 0 -79 33.5t-31 77.5t31 77.5t79 33.5t79.5 -33.5t31.5 -77.5t-31.5 -77.5t-79.5 -33.5z" />
    <glyph glyph-name="radical" unicode="&#x221a;" horiz-adv-x="1009" 
d="M598 -438h-135l-336 696l-94 -45l-49 102l204 99l324 -680l387 1876h129z" />
    <glyph glyph-name="infinity" unicode="&#x221e;" horiz-adv-x="1517" 
d="M371 213q-127 0 -207 84.5t-80 212.5t78 215.5t205 87.5q43 0 86.5 -13t78.5 -32t75 -49t67.5 -55t64.5 -60q14 -14 21 -20q12 11 46 44t50 47.5t48 41.5t55.5 40t55 29t63 22.5t65.5 6.5q129 0 210 -85t81 -214q0 -130 -79 -216.5t-208 -86.5q-45 0 -91.5 14t-81.5 32.5
t-78.5 52.5t-68.5 56.5t-67 63.5q-19 -16 -68 -59t-75 -62.5t-69.5 -47t-86 -39t-90.5 -11.5zM1153 332q76 0 120 50.5t44 127.5q0 81 -45 134.5t-125 53.5q-19 0 -38 -3.5t-39 -12.5t-36 -16t-37.5 -23t-33.5 -24.5t-35.5 -29t-31 -27t-31.5 -29t-27 -25.5
q102 -90 150 -121q87 -55 165 -55zM373 332q126 0 309 178q-5 4 -36.5 31.5t-43.5 37t-42 33t-49 34t-46 25t-51.5 20t-48.5 5.5q-75 0 -119.5 -54t-44.5 -130q0 -80 46 -130t126 -50z" />
    <glyph glyph-name="integral" unicode="&#x222b;" horiz-adv-x="1112" 
d="M330 -436q-49 0 -86 24.5t-37 71.5q0 28 19.5 47t47.5 19q24 0 40.5 -12t24 -27t17.5 -27t21 -12q67 0 67 325v1196q0 75 4.5 132.5t19.5 118.5t41 100t71.5 64.5t107.5 25.5q55 0 99 -25.5t44 -77.5q0 -33 -21 -51t-54 -18q-25 0 -42.5 13t-25 28t-17.5 28t-22 13
q-22 0 -35 -15t-21 -61t-10.5 -118t-2.5 -198v-1032q0 -79 -3 -137t-11.5 -124t-25.5 -111t-44 -83.5t-69 -57.5t-97 -19z" />
    <glyph glyph-name="approxequal" unicode="&#x2248;" horiz-adv-x="1363" 
d="M238 528h-93q7 57 24.5 105.5t46.5 90t76 65.5t107 24q114 0 293 -74q183 -75 279 -75q129 0 162 159h88q-5 -56 -22.5 -104.5t-47.5 -88.5t-76.5 -63.5t-105.5 -23.5q-101 0 -297 75q-191 74 -273 74q-65 0 -108 -48t-53 -116zM238 178h-93q8 57 25 105t45.5 90.5t75 67
t106.5 24.5q101 0 295 -74q66 -25 102 -37.5t88.5 -25.5t88.5 -13q126 0 159 160h91q-13 -120 -76.5 -201t-177.5 -81q-103 0 -295 75q-190 74 -273 74q-65 0 -108 -48t-53 -116z" />
    <glyph glyph-name="notequal" unicode="&#x2260;" horiz-adv-x="1363" 
d="M608 246l-155 -295l-107 55l127 240h-305v123h371l139 266h-510v123h577l158 301l107 -58l-129 -243h315v-123h-381l-141 -266h522v-123h-588z" />
    <glyph glyph-name="lessequal" unicode="&#x2264;" horiz-adv-x="1363" 
d="M1196 354v-133l-1028 385v133l1028 387v-133l-858 -321zM1196 12h-1028v121h1028v-121z" />
    <glyph glyph-name="greaterequal" unicode="&#x2265;" horiz-adv-x="1363" 
d="M1196 606l-1028 -385v133l860 318l-860 321v133l1028 -387v-133zM1196 12h-1028v121h1028v-121z" />
    <glyph glyph-name="dotmath" unicode="&#x22c5;" horiz-adv-x="532" 
d="M266 532q-48 0 -79 33.5t-31 77.5t31 77.5t79 33.5t79.5 -33.5t31.5 -77.5t-31.5 -77.5t-79.5 -33.5z" />
    <glyph glyph-name="uniFEFF" unicode="&#xfeff;" 
 />
    <glyph glyph-name="uni10D00308" horiz-adv-x="1087" 
d="M348 1239q-44 0 -74 31.5t-30 72.5t30 73t74 32t74.5 -32t30.5 -73t-30.5 -72.5t-74.5 -31.5zM741 1239q-44 0 -74 31.5t-30 72.5t30 73t74 32t74.5 -32t30.5 -73t-30.5 -72.5t-74.5 -31.5zM535 -27q-107 0 -194 34t-140.5 89.5t-82 123.5t-28.5 140q0 90 37 166l127 -45
q-21 -53 -21 -119q0 -114 81.5 -192t220.5 -78t220 79t81 194q0 59 -20 108t-52.5 83.5t-71 66.5t-77.5 65t-71.5 69.5t-52.5 88.5t-20 115h143q1 -46 22 -86t53 -71t70.5 -62.5t76.5 -67.5t70 -77.5t51.5 -101t19.5 -130.5q0 -75 -28.5 -144.5t-82 -125t-139.5 -89
t-192 -33.5z" />
    <glyph glyph-name="uni10D0_uni0301" horiz-adv-x="1087" 
d="M469 1174h-121l207 294h186zM535 -27q-107 0 -194 34t-140.5 89.5t-82 123.5t-28.5 140q0 90 37 166l127 -45q-21 -53 -21 -119q0 -114 81.5 -192t220.5 -78t220 79t81 194q0 59 -20 108t-52.5 83.5t-71 66.5t-77.5 65t-71.5 69.5t-52.5 88.5t-20 115h143q1 -46 22 -86
t53 -71t70.5 -62.5t76.5 -67.5t70 -77.5t51.5 -101t19.5 -130.5q0 -75 -28.5 -144.5t-82 -125t-139.5 -89t-192 -33.5z" />
    <glyph glyph-name="uni10D00304" horiz-adv-x="1087" 
d="M821 1247h-553v111h553v-111zM535 -27q-107 0 -194 34t-140.5 89.5t-82 123.5t-28.5 140q0 90 37 166l127 -45q-21 -53 -21 -119q0 -114 81.5 -192t220.5 -78t220 79t81 194q0 59 -20 108t-52.5 83.5t-71 66.5t-77.5 65t-71.5 69.5t-52.5 88.5t-20 115h143q1 -46 22 -86
t53 -71t70.5 -62.5t76.5 -67.5t70 -77.5t51.5 -101t19.5 -130.5q0 -75 -28.5 -144.5t-82 -125t-139.5 -89t-192 -33.5z" />
    <glyph glyph-name="uni10D003040308" horiz-adv-x="1087" 
d="M348 1636q-44 0 -74 32t-30 73t30 72.5t74 31.5t74.5 -31.5t30.5 -72.5t-30.5 -73t-74.5 -32zM741 1636q-44 0 -74 32t-30 73t30 72.5t74 31.5t74.5 -31.5t30.5 -72.5t-30.5 -73t-74.5 -32zM821 1247h-553v111h553v-111zM535 -27q-107 0 -194 34t-140.5 89.5t-82 123.5
t-28.5 140q0 90 37 166l127 -45q-21 -53 -21 -119q0 -114 81.5 -192t220.5 -78t220 79t81 194q0 59 -20 108t-52.5 83.5t-71 66.5t-77.5 65t-71.5 69.5t-52.5 88.5t-20 115h143q1 -46 22 -86t53 -71t70.5 -62.5t76.5 -67.5t70 -77.5t51.5 -101t19.5 -130.5
q0 -75 -28.5 -144.5t-82 -125t-139.5 -89t-192 -33.5z" />
    <glyph glyph-name="uni10D4_uni0301" horiz-adv-x="1212" 
d="M528 1180h-120l206 295h187zM586 -516q-113 0 -205 36t-150 97.5t-89 138.5t-31 162q0 126 51 217l127 -45q-37 -75 -37 -170q0 -132 93.5 -225.5t244.5 -93.5t240.5 102t89.5 279v516q0 171 -86.5 271.5t-233.5 100.5q-135 0 -224 -75t-89 -205q0 -41 16 -94l-135 -25
q-23 62 -23 123q0 164 124.5 278.5t330.5 114.5q204 0 331.5 -129t127.5 -354v-531q0 -226 -130 -357.5t-343 -131.5z" />
    <glyph glyph-name="uni10D40304" horiz-adv-x="1212" 
d="M881 1253h-553v111h553v-111zM586 -516q-113 0 -205 36t-150 97.5t-89 138.5t-31 162q0 126 51 217l127 -45q-37 -75 -37 -170q0 -132 93.5 -225.5t244.5 -93.5t240.5 102t89.5 279v516q0 171 -86.5 271.5t-233.5 100.5q-135 0 -224 -75t-89 -205q0 -41 16 -94l-135 -25
q-23 62 -23 123q0 164 124.5 278.5t330.5 114.5q204 0 331.5 -129t127.5 -354v-531q0 -226 -130 -357.5t-343 -131.5z" />
    <glyph glyph-name="uni10D8_uni0301" horiz-adv-x="1155" 
d="M502 1174h-121l207 294h186zM416 29l-119 -52q-186 220 -186 506q0 237 129.5 370.5t337.5 133.5q209 0 337.5 -133t128.5 -371q0 -286 -186 -506l-119 52q77 103 120.5 208t43.5 244q0 79 -20 148t-58.5 123t-102 85t-144.5 31q-107 0 -182.5 -54.5t-109.5 -140
t-34 -192.5q0 -138 43.5 -242t120.5 -210z" />
    <glyph glyph-name="uni10D80304" horiz-adv-x="1155" 
d="M854 1247h-553v111h553v-111zM416 29l-119 -52q-186 220 -186 506q0 237 129.5 370.5t337.5 133.5q209 0 337.5 -133t128.5 -371q0 -286 -186 -506l-119 52q77 103 120.5 208t43.5 244q0 79 -20 148t-58.5 123t-102 85t-144.5 31q-107 0 -182.5 -54.5t-109.5 -140
t-34 -192.5q0 -138 43.5 -242t120.5 -210z" />
    <glyph glyph-name="uni10DD0308" horiz-adv-x="1626" 
d="M618 1239q-44 0 -74 31.5t-30 72.5t30 73t74 32t74.5 -32t30.5 -73t-30.5 -72.5t-74.5 -31.5zM1012 1239q-44 0 -74.5 31.5t-30.5 72.5t30.5 73t74.5 32t74 -32t30 -73t-30 -72.5t-74 -31.5zM416 29l-117 -52q-80 97 -134 235.5t-54 309.5q0 115 30 205t83.5 146t123 85
t152.5 29q128 0 206.5 -70t106.5 -163h4q27 99 108 166t199 67q83 0 153.5 -28.5t124.5 -84.5t85 -146t31 -206q0 -169 -54.5 -308.5t-134.5 -236.5l-119 52q76 107 120 225t44 270q0 176 -71 260t-191 84q-45 0 -83 -15.5t-71.5 -50t-53 -99t-19.5 -152.5v-293h-142v293
q0 159 -62 238t-169 79q-119 0 -188.5 -91t-69.5 -253q0 -153 43.5 -270t118.5 -225z" />
    <glyph glyph-name="uni10DD_uni0301" horiz-adv-x="1626" 
d="M739 1174h-121l207 294h187zM416 29l-117 -52q-80 97 -134 235.5t-54 309.5q0 115 30 205t83.5 146t123 85t152.5 29q128 0 206.5 -70t106.5 -163h4q27 99 108 166t199 67q83 0 153.5 -28.5t124.5 -84.5t85 -146t31 -206q0 -169 -54.5 -308.5t-134.5 -236.5l-119 52
q76 107 120 225t44 270q0 176 -71 260t-191 84q-45 0 -83 -15.5t-71.5 -50t-53 -99t-19.5 -152.5v-293h-142v293q0 159 -62 238t-169 79q-119 0 -188.5 -91t-69.5 -253q0 -153 43.5 -270t118.5 -225z" />
    <glyph glyph-name="uni10DD0304" horiz-adv-x="1626" 
d="M1092 1247h-553v111h553v-111zM416 29l-117 -52q-80 97 -134 235.5t-54 309.5q0 115 30 205t83.5 146t123 85t152.5 29q128 0 206.5 -70t106.5 -163h4q27 99 108 166t199 67q83 0 153.5 -28.5t124.5 -84.5t85 -146t31 -206q0 -169 -54.5 -308.5t-134.5 -236.5l-119 52
q76 107 120 225t44 270q0 176 -71 260t-191 84q-45 0 -83 -15.5t-71.5 -50t-53 -99t-19.5 -152.5v-293h-142v293q0 159 -62 238t-169 79q-119 0 -188.5 -91t-69.5 -253q0 -153 43.5 -270t118.5 -225z" />
    <glyph glyph-name="uni10DD03040308" horiz-adv-x="1626" 
d="M618 1636q-44 0 -74 32t-30 73t30 72.5t74 31.5t74.5 -31.5t30.5 -72.5t-30.5 -73t-74.5 -32zM1012 1636q-44 0 -74.5 32t-30.5 73t30.5 72.5t74.5 31.5t74 -31.5t30 -72.5t-30 -73t-74 -32zM1092 1247h-553v111h553v-111zM416 29l-117 -52q-80 97 -134 235.5t-54 309.5
q0 115 30 205t83.5 146t123 85t152.5 29q128 0 206.5 -70t106.5 -163h4q27 99 108 166t199 67q83 0 153.5 -28.5t124.5 -84.5t85 -146t31 -206q0 -169 -54.5 -308.5t-134.5 -236.5l-119 52q76 107 120 225t44 270q0 176 -71 260t-191 84q-45 0 -83 -15.5t-71.5 -50t-53 -99
t-19.5 -152.5v-293h-142v293q0 159 -62 238t-169 79q-119 0 -188.5 -91t-69.5 -253q0 -153 43.5 -270t118.5 -225z" />
    <glyph glyph-name="uni10E30308" horiz-adv-x="1232" 
d="M393 1245q-44 0 -74 32t-30 73t30 72.5t74 31.5t74.5 -31.5t30.5 -72.5t-30.5 -73t-74.5 -32zM786 1245q-44 0 -74 32t-30 73t30 72.5t74 31.5t74.5 -31.5t30.5 -72.5t-30.5 -73t-74.5 -32zM596 -516q-112 0 -205 38t-151.5 100t-90.5 139t-32 157q0 119 47 205l129 -45
q-35 -72 -35 -158q0 -131 95 -225t245 -94q152 0 246 98t94 276v637q0 258 -195 258q-89 0 -141.5 -56t-52.5 -159v-256h-141v246q0 112 -47.5 160.5t-139.5 48.5h-133v121h145q92 0 156.5 -41.5t85.5 -126.5h4q27 84 102 132t173 48q154 0 239.5 -90.5t85.5 -267.5v-660
q0 -234 -132.5 -359.5t-350.5 -125.5z" />
    <glyph glyph-name="uni10E3_uni0301" horiz-adv-x="1232" 
d="M514 1180h-121l207 295h186zM596 -516q-112 0 -205 38t-151.5 100t-90.5 139t-32 157q0 119 47 205l129 -45q-35 -72 -35 -158q0 -131 95 -225t245 -94q152 0 246 98t94 276v637q0 258 -195 258q-89 0 -141.5 -56t-52.5 -159v-256h-141v246q0 112 -47.5 160.5
t-139.5 48.5h-133v121h145q92 0 156.5 -41.5t85.5 -126.5h4q27 84 102 132t173 48q154 0 239.5 -90.5t85.5 -267.5v-660q0 -234 -132.5 -359.5t-350.5 -125.5z" />
    <glyph glyph-name="uni10E30302" horiz-adv-x="1232" 
d="M420 1180h-135l223 295h164l223 -295h-135l-170 221zM596 -516q-112 0 -205 38t-151.5 100t-90.5 139t-32 157q0 119 47 205l129 -45q-35 -72 -35 -158q0 -131 95 -225t245 -94q152 0 246 98t94 276v637q0 258 -195 258q-89 0 -141.5 -56t-52.5 -159v-256h-141v246
q0 112 -47.5 160.5t-139.5 48.5h-133v121h145q92 0 156.5 -41.5t85.5 -126.5h4q27 84 102 132t173 48q154 0 239.5 -90.5t85.5 -267.5v-660q0 -234 -132.5 -359.5t-350.5 -125.5z" />
    <glyph glyph-name="uni10E30304" horiz-adv-x="1232" 
d="M866 1253h-553v111h553v-111zM596 -516q-112 0 -205 38t-151.5 100t-90.5 139t-32 157q0 119 47 205l129 -45q-35 -72 -35 -158q0 -131 95 -225t245 -94q152 0 246 98t94 276v637q0 258 -195 258q-89 0 -141.5 -56t-52.5 -159v-256h-141v246q0 112 -47.5 160.5
t-139.5 48.5h-133v121h145q92 0 156.5 -41.5t85.5 -126.5h4q27 84 102 132t173 48q154 0 239.5 -90.5t85.5 -267.5v-660q0 -234 -132.5 -359.5t-350.5 -125.5z" />
    <glyph glyph-name="uni10E303040308" horiz-adv-x="1232" 
d="M393 1642q-44 0 -74 32t-30 73t30 72.5t74 31.5t74.5 -31.5t30.5 -72.5t-30.5 -73t-74.5 -32zM786 1642q-44 0 -74 32t-30 73t30 72.5t74 31.5t74.5 -31.5t30.5 -72.5t-30.5 -73t-74.5 -32zM866 1253h-553v111h553v-111zM596 -516q-112 0 -205 38t-151.5 100t-90.5 139
t-32 157q0 119 47 205l129 -45q-35 -72 -35 -158q0 -131 95 -225t245 -94q152 0 246 98t94 276v637q0 258 -195 258q-89 0 -141.5 -56t-52.5 -159v-256h-141v246q0 112 -47.5 160.5t-139.5 48.5h-133v121h145q92 0 156.5 -41.5t85.5 -126.5h4q27 84 102 132t173 48
q154 0 239.5 -90.5t85.5 -267.5v-660q0 -234 -132.5 -359.5t-350.5 -125.5z" />
    <glyph glyph-name="uni10F7_uni0301" horiz-adv-x="1181" 
d="M520 1174h-121l207 294h187zM590 -516q-224 0 -364 136.5t-140 338.5q0 62 13 116.5t33.5 96.5t53.5 80t65.5 64.5t77.5 53t81 44t84 37.5q56 23 91 39t78 40.5t66.5 49t40 58.5t16.5 73q0 76 -56 122t-146 46q-91 0 -148 -48t-57 -120q0 -37 10 -64l-129 -26
q-20 40 -20 92q0 85 50.5 149t127 94.5t164.5 30.5q149 0 244.5 -73t95.5 -197q0 -59 -19 -108t-46 -82.5t-76.5 -66t-89 -52t-105.5 -48.5q-63 -27 -106 -49t-95 -58.5t-83.5 -75t-53 -95t-21.5 -123.5q0 -148 99 -252t264 -104q168 0 266 104.5t98 257.5q0 103 -39 180
l129 48q52 -106 52 -226q0 -209 -139 -346t-367 -137z" />
    <glyph glyph-name="uni10F70304" horiz-adv-x="1181" 
d="M872 1247h-553v111h553v-111zM590 -516q-224 0 -364 136.5t-140 338.5q0 62 13 116.5t33.5 96.5t53.5 80t65.5 64.5t77.5 53t81 44t84 37.5q56 23 91 39t78 40.5t66.5 49t40 58.5t16.5 73q0 76 -56 122t-146 46q-91 0 -148 -48t-57 -120q0 -37 10 -64l-129 -26
q-20 40 -20 92q0 85 50.5 149t127 94.5t164.5 30.5q149 0 244.5 -73t95.5 -197q0 -59 -19 -108t-46 -82.5t-76.5 -66t-89 -52t-105.5 -48.5q-63 -27 -106 -49t-95 -58.5t-83.5 -75t-53 -95t-21.5 -123.5q0 -148 99 -252t264 -104q168 0 266 104.5t98 257.5q0 103 -39 180
l129 48q52 -106 52 -226q0 -209 -139 -346t-367 -137z" />
    <glyph glyph-name="uni10D00308.case" horiz-adv-x="1216" 
d="M416 1630q-44 0 -74.5 32t-30.5 73t30.5 72.5t74.5 31.5t74 -31.5t30 -72.5t-30 -73t-74 -32zM809 1630q-44 0 -74 32t-30 73t30 72.5t74 31.5t74 -31.5t30 -72.5t-30 -73t-74 -32zM604 -39q-113 0 -208 39.5t-157 105.5t-96 152.5t-34 181.5q0 160 73 285l133 -45
q-55 -112 -55 -240q0 -151 97 -252.5t249 -101.5q150 0 245 102.5t95 274.5q0 88 -24.5 165t-63 135t-85.5 113.5t-94 113.5t-85.5 121t-63 150.5t-24.5 188.5h147q0 -85 24.5 -161.5t64 -137t86.5 -120t94.5 -120.5t87 -126t64 -150t24.5 -180q0 -223 -138.5 -358.5
t-355.5 -135.5z" />
    <glyph glyph-name="uni10D0_uni0301.case" horiz-adv-x="1216" 
d="M537 1565h-121l207 295h186zM604 -39q-113 0 -208 39.5t-157 105.5t-96 152.5t-34 181.5q0 160 73 285l133 -45q-55 -112 -55 -240q0 -151 97 -252.5t249 -101.5q150 0 245 102.5t95 274.5q0 88 -24.5 165t-63 135t-85.5 113.5t-94 113.5t-85.5 121t-63 150.5
t-24.5 188.5h147q0 -85 24.5 -161.5t64 -137t86.5 -120t94.5 -120.5t87 -126t64 -150t24.5 -180q0 -223 -138.5 -358.5t-355.5 -135.5z" />
    <glyph glyph-name="uni10D00304.case" horiz-adv-x="1216" 
d="M889 1638h-553v111h553v-111zM604 -39q-113 0 -208 39.5t-157 105.5t-96 152.5t-34 181.5q0 160 73 285l133 -45q-55 -112 -55 -240q0 -151 97 -252.5t249 -101.5q150 0 245 102.5t95 274.5q0 88 -24.5 165t-63 135t-85.5 113.5t-94 113.5t-85.5 121t-63 150.5
t-24.5 188.5h147q0 -85 24.5 -161.5t64 -137t86.5 -120t94.5 -120.5t87 -126t64 -150t24.5 -180q0 -223 -138.5 -358.5t-355.5 -135.5z" />
    <glyph glyph-name="uni10D003040308.case" horiz-adv-x="1216" 
d="M416 1929q-44 0 -74.5 32t-30.5 73t30.5 72.5t74.5 31.5t74 -31.5t30 -72.5t-30 -73t-74 -32zM809 1929q-44 0 -74 32t-30 73t30 72.5t74 31.5t74 -31.5t30 -72.5t-30 -73t-74 -32zM889 1638h-553v111h553v-111zM604 -39q-113 0 -208 39.5t-157 105.5t-96 152.5
t-34 181.5q0 160 73 285l133 -45q-55 -112 -55 -240q0 -151 97 -252.5t249 -101.5q150 0 245 102.5t95 274.5q0 88 -24.5 165t-63 135t-85.5 113.5t-94 113.5t-85.5 121t-63 150.5t-24.5 188.5h147q0 -85 24.5 -161.5t64 -137t86.5 -120t94.5 -120.5t87 -126t64 -150
t24.5 -180q0 -223 -138.5 -358.5t-355.5 -135.5z" />
    <glyph glyph-name="uni10D4_uni0301.case" horiz-adv-x="1273" 
d="M561 1565h-121l207 295h187zM618 -39q-114 0 -209.5 36.5t-158 98t-97 139.5t-34.5 162q0 122 53 217l135 -47q-37 -75 -37 -170q0 -130 99 -220.5t252 -90.5q152 0 247 99.5t95 273.5v540q0 169 -91.5 267t-240.5 98q-137 0 -231.5 -74.5t-94.5 -202.5q0 -63 17 -106
l-144 -25q-24 54 -24 140q0 161 135 276t342 115q100 0 187.5 -33t153 -93t103 -152.5t37.5 -204.5v-553q0 -224 -140 -357t-354 -133z" />
    <glyph glyph-name="uni10D40304.case" horiz-adv-x="1273" 
d="M913 1638h-553v111h553v-111zM618 -39q-114 0 -209.5 36.5t-158 98t-97 139.5t-34.5 162q0 122 53 217l135 -47q-37 -75 -37 -170q0 -130 99 -220.5t252 -90.5q152 0 247 99.5t95 273.5v540q0 169 -91.5 267t-240.5 98q-137 0 -231.5 -74.5t-94.5 -202.5q0 -63 17 -106
l-144 -25q-24 54 -24 140q0 161 135 276t342 115q100 0 187.5 -33t153 -93t103 -152.5t37.5 -204.5v-553q0 -224 -140 -357t-354 -133z" />
    <glyph glyph-name="uni10D8_uni0301.case" horiz-adv-x="1296" 
d="M571 1565h-120l206 295h187zM469 29l-123 -62q-86 111 -142.5 280.5t-56.5 362.5v324q0 259 141 407t359 148q219 0 360.5 -148t141.5 -407v-324q0 -193 -56.5 -362.5t-142.5 -280.5l-123 62q77 110 123.5 264t46.5 330v301q0 207 -96.5 323.5t-253.5 116.5
t-253.5 -116.5t-96.5 -323.5v-301q0 -175 47 -329.5t125 -264.5z" />
    <glyph glyph-name="uni10D80304.case" horiz-adv-x="1296" 
d="M924 1638h-553v111h553v-111zM469 29l-123 -62q-86 111 -142.5 280.5t-56.5 362.5v324q0 259 141 407t359 148q219 0 360.5 -148t141.5 -407v-324q0 -193 -56.5 -362.5t-142.5 -280.5l-123 62q77 110 123.5 264t46.5 330v301q0 207 -96.5 323.5t-253.5 116.5
t-253.5 -116.5t-96.5 -323.5v-301q0 -175 47 -329.5t125 -264.5z" />
    <glyph glyph-name="uni10DD0308.case" horiz-adv-x="1820" 
d="M713 1630q-44 0 -74.5 32t-30.5 73t30.5 72.5t74.5 31.5t74 -31.5t30 -72.5t-30 -73t-74 -32zM1106 1630q-44 0 -74.5 32t-30.5 73t30.5 72.5t74.5 31.5t74 -31.5t30 -72.5t-30 -73t-74 -32zM479 29l-125 -62q-91 113 -149 290.5t-58 373.5v346q0 244 108.5 378
t295.5 134q130 0 224 -66t132 -202h6q35 135 130.5 201.5t226.5 66.5q187 0 294 -133.5t107 -378.5v-346q0 -196 -58 -373.5t-147 -290.5l-127 62q82 113 132.5 275.5t50.5 338.5v324q0 190 -71 293.5t-200 103.5q-133 0 -198.5 -100t-65.5 -289v-572h-153v574
q0 188 -67.5 287.5t-199.5 99.5q-128 0 -199 -103.5t-71 -293.5v-324q0 -178 49.5 -340.5t132.5 -273.5z" />
    <glyph glyph-name="uni10DD_uni0301.case" horiz-adv-x="1820" 
d="M834 1565h-121l207 295h186zM479 29l-125 -62q-91 113 -149 290.5t-58 373.5v346q0 244 108.5 378t295.5 134q130 0 224 -66t132 -202h6q35 135 130.5 201.5t226.5 66.5q187 0 294 -133.5t107 -378.5v-346q0 -196 -58 -373.5t-147 -290.5l-127 62q82 113 132.5 275.5
t50.5 338.5v324q0 190 -71 293.5t-200 103.5q-133 0 -198.5 -100t-65.5 -289v-572h-153v574q0 188 -67.5 287.5t-199.5 99.5q-128 0 -199 -103.5t-71 -293.5v-324q0 -178 49.5 -340.5t132.5 -273.5z" />
    <glyph glyph-name="uni10DD0304.case" horiz-adv-x="1820" 
d="M1186 1638h-553v111h553v-111zM479 29l-125 -62q-91 113 -149 290.5t-58 373.5v346q0 244 108.5 378t295.5 134q130 0 224 -66t132 -202h6q35 135 130.5 201.5t226.5 66.5q187 0 294 -133.5t107 -378.5v-346q0 -196 -58 -373.5t-147 -290.5l-127 62q82 113 132.5 275.5
t50.5 338.5v324q0 190 -71 293.5t-200 103.5q-133 0 -198.5 -100t-65.5 -289v-572h-153v574q0 188 -67.5 287.5t-199.5 99.5q-128 0 -199 -103.5t-71 -293.5v-324q0 -178 49.5 -340.5t132.5 -273.5z" />
    <glyph glyph-name="uni10DD03040308.case" horiz-adv-x="1820" 
d="M713 1929q-44 0 -74.5 32t-30.5 73t30.5 72.5t74.5 31.5t74 -31.5t30 -72.5t-30 -73t-74 -32zM1106 1929q-44 0 -74.5 32t-30.5 73t30.5 72.5t74.5 31.5t74 -31.5t30 -72.5t-30 -73t-74 -32zM1186 1638h-553v111h553v-111zM479 29l-125 -62q-91 113 -149 290.5t-58 373.5
v346q0 244 108.5 378t295.5 134q130 0 224 -66t132 -202h6q35 135 130.5 201.5t226.5 66.5q187 0 294 -133.5t107 -378.5v-346q0 -196 -58 -373.5t-147 -290.5l-127 62q82 113 132.5 275.5t50.5 338.5v324q0 190 -71 293.5t-200 103.5q-133 0 -198.5 -100t-65.5 -289v-572
h-153v574q0 188 -67.5 287.5t-199.5 99.5q-128 0 -199 -103.5t-71 -293.5v-324q0 -178 49.5 -340.5t132.5 -273.5z" />
    <glyph glyph-name="uni10E30308.case" horiz-adv-x="1300" 
d="M449 1630q-44 0 -74.5 32t-30.5 73t30.5 72.5t74.5 31.5t74 -31.5t30 -72.5t-30 -73t-74 -32zM842 1630q-44 0 -74.5 32t-30.5 73t30.5 72.5t74.5 31.5t74 -31.5t30 -72.5t-30 -73t-74 -32zM633 -39q-114 0 -210 37.5t-159 99.5t-98 141t-35 162q0 111 47 207l137 -47
q-32 -75 -32 -158q0 -134 99.5 -225.5t252.5 -91.5q155 0 253.5 96t98.5 275v649q0 258 -205 258q-89 0 -143.5 -60.5t-54.5 -166.5v-260h-152v251q0 115 -47 166.5t-141 51.5h-142v127h158q95 0 160 -43t86 -127h6q25 84 102 135t183 51q157 0 250.5 -94t93.5 -267v-679
q0 -118 -39.5 -212t-109 -153.5t-161.5 -91t-198 -31.5z" />
    <glyph glyph-name="uni10E3_uni0301.case" horiz-adv-x="1300" 
d="M569 1565h-120l206 295h187zM633 -39q-114 0 -210 37.5t-159 99.5t-98 141t-35 162q0 111 47 207l137 -47q-32 -75 -32 -158q0 -134 99.5 -225.5t252.5 -91.5q155 0 253.5 96t98.5 275v649q0 258 -205 258q-89 0 -143.5 -60.5t-54.5 -166.5v-260h-152v251
q0 115 -47 166.5t-141 51.5h-142v127h158q95 0 160 -43t86 -127h6q25 84 102 135t183 51q157 0 250.5 -94t93.5 -267v-679q0 -118 -39.5 -212t-109 -153.5t-161.5 -91t-198 -31.5z" />
    <glyph glyph-name="uni10E30302.case" horiz-adv-x="1300" 
d="M475 1565h-135l223 295h164l223 -295h-135l-170 221zM633 -39q-114 0 -210 37.5t-159 99.5t-98 141t-35 162q0 111 47 207l137 -47q-32 -75 -32 -158q0 -134 99.5 -225.5t252.5 -91.5q155 0 253.5 96t98.5 275v649q0 258 -205 258q-89 0 -143.5 -60.5t-54.5 -166.5v-260
h-152v251q0 115 -47 166.5t-141 51.5h-142v127h158q95 0 160 -43t86 -127h6q25 84 102 135t183 51q157 0 250.5 -94t93.5 -267v-679q0 -118 -39.5 -212t-109 -153.5t-161.5 -91t-198 -31.5z" />
    <glyph glyph-name="uni10E30304.case" horiz-adv-x="1300" 
d="M922 1638h-553v111h553v-111zM633 -39q-114 0 -210 37.5t-159 99.5t-98 141t-35 162q0 111 47 207l137 -47q-32 -75 -32 -158q0 -134 99.5 -225.5t252.5 -91.5q155 0 253.5 96t98.5 275v649q0 258 -205 258q-89 0 -143.5 -60.5t-54.5 -166.5v-260h-152v251
q0 115 -47 166.5t-141 51.5h-142v127h158q95 0 160 -43t86 -127h6q25 84 102 135t183 51q157 0 250.5 -94t93.5 -267v-679q0 -118 -39.5 -212t-109 -153.5t-161.5 -91t-198 -31.5z" />
    <glyph glyph-name="uni10E303040308.case" horiz-adv-x="1300" 
d="M449 1929q-44 0 -74.5 32t-30.5 73t30.5 72.5t74.5 31.5t74 -31.5t30 -72.5t-30 -73t-74 -32zM842 1929q-44 0 -74.5 32t-30.5 73t30.5 72.5t74.5 31.5t74 -31.5t30 -72.5t-30 -73t-74 -32zM922 1638h-553v111h553v-111zM633 -39q-114 0 -210 37.5t-159 99.5t-98 141
t-35 162q0 111 47 207l137 -47q-32 -75 -32 -158q0 -134 99.5 -225.5t252.5 -91.5q155 0 253.5 96t98.5 275v649q0 258 -205 258q-89 0 -143.5 -60.5t-54.5 -166.5v-260h-152v251q0 115 -47 166.5t-141 51.5h-142v127h158q95 0 160 -43t86 -127h6q25 84 102 135t183 51
q157 0 250.5 -94t93.5 -267v-679q0 -118 -39.5 -212t-109 -153.5t-161.5 -91t-198 -31.5z" />
    <glyph glyph-name="uni10F7_uni0301.case" horiz-adv-x="1298" 
d="M582 1565h-121l207 295h186zM649 -39q-232 0 -381 131t-149 332q0 61 15.5 115t38 95t62 79.5t74 64t87.5 54t89.5 44.5t92.5 39q57 24 94 41t77.5 42.5t63.5 51t38 60.5t15 76q0 85 -64 136.5t-163 51.5t-164 -49t-65 -131q0 -39 14 -86l-137 -27q-25 57 -25 115
q0 126 113.5 209.5t263.5 83.5q158 0 265.5 -84.5t107.5 -218.5q0 -43 -10 -81t-25.5 -67.5t-42 -57t-52.5 -48t-64.5 -42t-70 -36.5t-77.5 -35q-167 -73 -232 -115q-153 -100 -166 -247q-2 -16 -2 -33q0 -143 105.5 -240.5t273.5 -97.5q166 0 273.5 98.5t107.5 237.5
q0 109 -45 194l137 46q60 -107 60 -238q0 -196 -151.5 -329.5t-381.5 -133.5z" />
    <glyph glyph-name="uni10F70304.case" horiz-adv-x="1298" 
d="M934 1638h-553v111h553v-111zM649 -39q-232 0 -381 131t-149 332q0 61 15.5 115t38 95t62 79.5t74 64t87.5 54t89.5 44.5t92.5 39q57 24 94 41t77.5 42.5t63.5 51t38 60.5t15 76q0 85 -64 136.5t-163 51.5t-164 -49t-65 -131q0 -39 14 -86l-137 -27q-25 57 -25 115
q0 126 113.5 209.5t263.5 83.5q158 0 265.5 -84.5t107.5 -218.5q0 -43 -10 -81t-25.5 -67.5t-42 -57t-52.5 -48t-64.5 -42t-70 -36.5t-77.5 -35q-167 -73 -232 -115q-153 -100 -166 -247q-2 -16 -2 -33q0 -143 105.5 -240.5t273.5 -97.5q166 0 273.5 98.5t107.5 237.5
q0 109 -45 194l137 46q60 -107 60 -238q0 -196 -151.5 -329.5t-381.5 -133.5z" />
    <glyph glyph-name="uni10FC.case" horiz-adv-x="770" 
d="M397 565q-123 0 -201.5 77.5t-78.5 205.5v377q0 116 61 170.5t170 54.5h273v-92h-263q-135 0 -135 -141v-193h4q26 49 77 75.5t112 26.5q114 0 190 -80.5t76 -201.5q0 -71 -31 -133t-97.5 -104t-156.5 -42zM397 655q81 0 129.5 55t48.5 136q0 80 -48.5 134t-129.5 54
q-76 0 -128 -54t-52 -134q0 -82 50.5 -136.5t129.5 -54.5z" />
    <glyph glyph-name="zero.dnom" horiz-adv-x="757" 
d="M379 -14q-82 0 -141 37.5t-91 103.5t-46.5 141t-14.5 164t14.5 164t46.5 141t91 104t141 38q80 0 139 -38t91 -103.5t46.5 -141.5t14.5 -164q0 -70 -8.5 -131.5t-30 -120.5t-53.5 -101t-83 -67.5t-116 -25.5zM379 96q45 0 78 30t51 80.5t26.5 106.5t8.5 119
q0 62 -8.5 118.5t-26.5 107.5t-51 81.5t-78 30.5q-46 0 -80 -30.5t-52 -81.5t-26 -107.5t-8 -118.5q0 -63 8 -119t26 -106.5t52 -80.5t80 -30z" />
    <glyph glyph-name="one.dnom" horiz-adv-x="757" 
d="M475 0h-125v709l-131 -117l-78 84l230 188h104v-864z" />
    <glyph glyph-name="two.dnom" horiz-adv-x="757" 
d="M653 0h-565v117l342 346q88 92 88 176q0 58 -38.5 92.5t-98.5 34.5q-57 0 -99 -38.5t-55 -104.5l-123 18q20 105 97.5 171.5t179.5 66.5q114 0 191 -62.5t77 -177.5q0 -43 -11.5 -81t-36.5 -73t-43.5 -56t-53.5 -56l-262 -262h411v-111z" />
    <glyph glyph-name="three.dnom" horiz-adv-x="757" 
d="M369 -14q-209 0 -289 196l117 39q20 -59 65.5 -92t106.5 -33q68 0 115.5 39.5t47.5 110.5q0 77 -56.5 113t-139.5 36h-55v105h55q78 0 125 34.5t47 108.5q0 56 -40.5 91.5t-100.5 35.5q-46 0 -87 -26.5t-67 -75.5l-102 53q44 79 111.5 118.5t148.5 39.5q112 0 186 -61
t74 -173q0 -62 -30.5 -111t-82.5 -77v-4q64 -25 100.5 -79t36.5 -128q0 -122 -82 -191t-204 -69z" />
    <glyph glyph-name="four.dnom" horiz-adv-x="757" 
d="M565 0h-112v201h-385v106l358 557h139v-553h123v-110h-123v-201zM446 698l-249 -387h256v387h-7z" />
    <glyph glyph-name="five.dnom" horiz-adv-x="757" 
d="M358 -14q-98 0 -169.5 47.5t-104.5 128.5l113 45q54 -111 161 -111q75 0 121.5 47.5t46.5 128.5t-50 130t-130 49t-194 -62l8 475h458v-110h-339l-7 -215q40 16 101 16q125 0 201.5 -76t76.5 -198q0 -133 -81 -214t-212 -81z" />
    <glyph glyph-name="six.dnom" horiz-adv-x="757" 
d="M381 -14q-125 0 -208 79t-83 201q0 105 80 232l229 366h146l-219 -334l2 -2q37 13 67 13q118 0 196.5 -77.5t78.5 -197.5q0 -122 -82.5 -201t-206.5 -79zM381 96q72 0 119 49t47 121t-46 120t-120 48q-75 0 -121.5 -48.5t-46.5 -119.5q0 -73 47.5 -121.5t120.5 -48.5z
" />
    <glyph glyph-name="seven.dnom" horiz-adv-x="757" 
d="M311 0h-137l342 754h-391v110h526v-96z" />
    <glyph glyph-name="eight.dnom" horiz-adv-x="757" 
d="M379 -14q-118 0 -201.5 71t-83.5 183q0 75 35.5 131t97.5 86v2q-51 30 -76.5 78.5t-25.5 105.5q0 105 74 170.5t180 65.5q104 0 178 -66t74 -170q0 -56 -27 -105.5t-76 -78.5v-2q61 -28 97.5 -85.5t36.5 -131.5q0 -112 -83.5 -183t-199.5 -71zM379 510q54 0 91.5 37
t37.5 92q0 57 -36.5 94t-92.5 37q-57 0 -94 -37t-37 -94q0 -55 37.5 -92t93.5 -37zM379 96q71 0 115.5 42.5t44.5 109.5q0 65 -44.5 108t-115.5 43q-72 0 -117 -43t-45 -108q0 -67 44.5 -109.5t117.5 -42.5z" />
    <glyph glyph-name="nine.dnom" horiz-adv-x="757" 
d="M358 0h-145l221 336l-2 2q-24 -12 -70 -12q-118 0 -196 77.5t-78 196.5q0 121 83 200t208 79t207 -79t82 -200q0 -105 -80 -235zM379 432q74 0 120 48t46 120q0 71 -47.5 120.5t-118.5 49.5q-73 0 -120.5 -49.5t-47.5 -120.5q0 -72 46.5 -120t121.5 -48z" />
    <glyph glyph-name="zero.numr" horiz-adv-x="757" 
d="M379 571q-82 0 -141 38t-91 104t-46.5 141t-14.5 164t14.5 164t46.5 141t91 103.5t141 37.5q65 0 116 -25.5t83 -67.5t53.5 -101t30 -120.5t8.5 -131.5q0 -88 -14.5 -164t-46.5 -141.5t-91 -103.5t-139 -38zM379 682q45 0 78 30t51 80.5t26.5 106.5t8.5 119
q0 62 -8.5 118.5t-26.5 107.5t-51 81.5t-78 30.5q-46 0 -80 -30.5t-52 -81.5t-26 -107.5t-8 -118.5q0 -63 8 -119t26 -106.5t52 -80.5t80 -30z" />
    <glyph glyph-name="one.numr" horiz-adv-x="757" 
d="M475 586h-125v708l-131 -116l-78 84l230 188h104v-864z" />
    <glyph glyph-name="two.numr" horiz-adv-x="757" 
d="M653 586h-565v116l342 347q88 92 88 176q0 58 -38.5 92.5t-98.5 34.5q-57 0 -99 -39t-55 -105l-123 19q20 105 97.5 171t179.5 66q114 0 191 -62.5t77 -176.5q0 -43 -11.5 -81t-36.5 -73.5t-43.5 -56.5t-53.5 -56l-262 -262h411v-110z" />
    <glyph glyph-name="three.numr" horiz-adv-x="757" 
d="M369 571q-99 0 -174 49t-115 148l117 39q20 -59 65.5 -92t106.5 -33q68 0 115.5 39t47.5 110q0 77 -56.5 113.5t-139.5 36.5h-55v104h55q78 0 125 35t47 109q0 56 -40.5 91.5t-100.5 35.5q-46 0 -87 -27t-67 -76l-102 54q88 157 260 157q112 0 186 -60.5t74 -172.5
q0 -62 -30.5 -111.5t-82.5 -77.5v-4q64 -25 100.5 -79t36.5 -128q0 -122 -82 -191t-204 -69z" />
    <glyph glyph-name="four.numr" horiz-adv-x="757" 
d="M565 586h-112v200h-385v107l358 557h139v-553h123v-111h-123v-200zM446 1284l-249 -387h256v387h-7z" />
    <glyph glyph-name="five.numr" horiz-adv-x="757" 
d="M358 571q-98 0 -169.5 48t-104.5 129l113 45q54 -111 161 -111q75 0 121.5 47.5t46.5 128.5t-50 129.5t-130 48.5q-82 0 -194 -61l8 475h458v-111h-339l-7 -215q42 17 101 17q125 0 201.5 -76.5t76.5 -198.5q0 -133 -81 -214t-212 -81z" />
    <glyph glyph-name="six.numr" horiz-adv-x="757" 
d="M381 571q-125 0 -208 79.5t-83 201.5q0 104 80 231l229 367h146l-219 -334l2 -2q34 12 67 12q118 0 196.5 -77t78.5 -197q0 -122 -82.5 -201.5t-206.5 -79.5zM381 682q72 0 119 49t47 121t-46 120t-120 48q-75 0 -121.5 -48.5t-46.5 -119.5q0 -73 47.5 -121.5
t120.5 -48.5z" />
    <glyph glyph-name="seven.numr" horiz-adv-x="757" 
d="M311 586h-137l342 753h-391v111h526v-96z" />
    <glyph glyph-name="eight.numr" horiz-adv-x="757" 
d="M379 571q-118 0 -201.5 71t-83.5 183q0 75 35.5 131t97.5 86v2q-51 30 -76.5 79t-25.5 106q0 104 74 169.5t180 65.5q105 0 178.5 -65.5t73.5 -169.5q0 -57 -27 -106.5t-76 -78.5v-2q61 -28 97.5 -85.5t36.5 -131.5q0 -112 -83.5 -183t-199.5 -71zM379 1096q54 0 91.5 37
t37.5 92q0 57 -36.5 94t-92.5 37q-57 0 -94 -37t-37 -94q0 -55 37.5 -92t93.5 -37zM379 682q71 0 115.5 42.5t44.5 109.5q0 65 -44.5 108t-115.5 43q-72 0 -117 -43t-45 -108q0 -67 44.5 -109.5t117.5 -42.5z" />
    <glyph glyph-name="nine.numr" horiz-adv-x="757" 
d="M358 586h-145l221 336l-2 2q-26 -13 -70 -13q-118 0 -196 78t-78 197q0 121 83 199.5t208 78.5t207 -78.5t82 -199.5q0 -106 -80 -236zM379 1018q74 0 120 48t46 120q0 71 -47.5 120.5t-118.5 49.5q-73 0 -120.5 -49.5t-47.5 -120.5q0 -72 46.5 -120t121.5 -48z" />
    <glyph glyph-name="uni0308_uni0300" 
d="M59 1528h-120l-254 276h186zM-197 1200q-44 0 -74 32t-30 73t30 72.5t74 31.5t74.5 -31.5t30.5 -72.5t-30.5 -73t-74.5 -32zM197 1200q-44 0 -74.5 32t-30.5 73t30.5 72.5t74.5 31.5t74 -31.5t30 -72.5t-30 -73t-74 -32z" />
    <glyph glyph-name="uni0308_uni0301" 
d="M47 1528h-121l189 276h186zM-197 1200q-44 0 -74 32t-30 73t30 72.5t74 31.5t74.5 -31.5t30.5 -72.5t-30.5 -73t-74.5 -32zM197 1200q-44 0 -74.5 32t-30.5 73t30.5 72.5t74.5 31.5t74 -31.5t30 -72.5t-30 -73t-74 -32z" />
    <glyph glyph-name="uni0308030C" 
d="M82 1528h-164l-209 276h135l156 -202l156 202h135zM-197 1200q-44 0 -74 32t-30 73t30 72.5t74 31.5t74.5 -31.5t30.5 -72.5t-30.5 -73t-74.5 -32zM197 1200q-44 0 -74.5 32t-30.5 73t30.5 72.5t74.5 31.5t74 -31.5t30 -72.5t-30 -73t-74 -32z" />
    <glyph glyph-name="uni03080304" 
d="M276 1638h-552v111h552v-111zM-197 1200q-44 0 -74 32t-30 73t30 72.5t74 31.5t74.5 -31.5t30.5 -72.5t-30.5 -73t-74.5 -32zM197 1200q-44 0 -74.5 32t-30.5 73t30.5 72.5t74.5 31.5t74 -31.5t30 -72.5t-30 -73t-74 -32z" />
    <glyph glyph-name="uni030C.alt" 
d="M-20 1071h-117l127 379h147z" />
    <glyph glyph-name="uni0308.case" 
d="M-197 1630q-44 0 -74 32t-30 73t30 72.5t74 31.5t74.5 -31.5t30.5 -72.5t-30.5 -73t-74.5 -32zM197 1630q-44 0 -74.5 32t-30.5 73t30.5 72.5t74.5 31.5t74 -31.5t30 -72.5t-30 -73t-74 -32z" />
    <glyph glyph-name="uni0308_uni0300.case" 
d="M59 1896h-120l-254 277h186zM-197 1569q-44 0 -74 31.5t-30 72.5t30 73t74 32t74.5 -32t30.5 -73t-30.5 -72.5t-74.5 -31.5zM197 1569q-44 0 -74.5 31.5t-30.5 72.5t30.5 73t74.5 32t74 -32t30 -73t-30 -72.5t-74 -31.5z" />
    <glyph glyph-name="uni0308_uni0301.case" 
d="M47 1896h-121l189 277h186zM-197 1569q-44 0 -74 31.5t-30 72.5t30 73t74 32t74.5 -32t30.5 -73t-30.5 -72.5t-74.5 -31.5zM197 1569q-44 0 -74.5 31.5t-30.5 72.5t30.5 73t74.5 32t74 -32t30 -73t-30 -72.5t-74 -31.5z" />
    <glyph glyph-name="uni0308030C.case" 
d="M82 1896h-164l-209 277h135l156 -203l156 203h135zM-197 1569q-44 0 -74 31.5t-30 72.5t30 73t74 32t74.5 -32t30.5 -73t-30.5 -72.5t-74.5 -31.5zM197 1569q-44 0 -74.5 31.5t-30.5 72.5t30.5 73t74.5 32t74 -32t30 -73t-30 -72.5t-74 -31.5z" />
    <glyph glyph-name="uni03080304.case" 
d="M276 2007h-552v111h552v-111zM-197 1569q-44 0 -74 31.5t-30 72.5t30 73t74 32t74.5 -32t30.5 -73t-30.5 -72.5t-74.5 -31.5zM197 1569q-44 0 -74.5 31.5t-30.5 72.5t30.5 73t74.5 32t74 -32t30 -73t-30 -72.5t-74 -31.5z" />
    <glyph glyph-name="uni0307.case" 
d="M0 1638q-38 0 -68 29t-30 70t30 69.5t68 28.5t68 -28.5t30 -69.5t-30 -70t-68 -29z" />
    <glyph glyph-name="gravecomb.case" 
d="M197 1565h-121l-273 295h187z" />
    <glyph glyph-name="acutecomb.case" 
d="M-76 1565h-121l207 295h187z" />
    <glyph glyph-name="uni030B.case" 
d="M-250 1565h-121l207 295h187zM100 1565h-120l204 295h187z" />
    <glyph glyph-name="uni0302.case" 
d="M-170 1565h-135l223 295h164l223 -295h-135l-170 221z" />
    <glyph glyph-name="uni030C.case" 
d="M82 1565h-164l-223 295h135l170 -222l170 222h135z" />
    <glyph glyph-name="uni0306.case" 
d="M0 1589q-128 0 -211 72.5t-90 198.5h90q13 -77 72 -118.5t139 -41.5t139 41.5t72 118.5h90q-7 -126 -90 -198.5t-211 -72.5z" />
    <glyph glyph-name="uni030A.case" 
d="M0 1546q-81 0 -139 56.5t-58 138.5t58 138t139 56t139 -56t58 -138t-58 -138.5t-139 -56.5zM0 1620q51 0 87 35t36 86t-36 86t-87 35t-87 -35t-36 -86t36 -86t87 -35z" />
    <glyph glyph-name="tildecomb.case" 
d="M-244 1589h-88q36 213 189 213q49 0 149 -47q3 -1 16 -7.5t16.5 -8t15 -6.5t16.5 -7l15 -6t15.5 -5.5t14 -3.5t15 -2.5t13.5 -0.5q77 0 101 102h88q-36 -213 -189 -213q-59 0 -149 48q-88 47 -137 47q-77 0 -101 -103z" />
    <glyph glyph-name="uni0304.case" 
d="M276 1638h-552v111h552v-111z" />
    <glyph glyph-name="hookabovecomb.case" 
d="M43 1546h-100q0 46 19.5 77t70.5 56q67 34 67 90q0 37 -24 59.5t-68 22.5q-46 0 -72.5 -24.5t-33.5 -81.5l-109 14q15 87 72 131.5t147 44.5q89 0 142 -45.5t53 -115.5q0 -106 -101 -152q-63 -30 -63 -76z" />
    </font>
</defs>
</svg>
