<?xml version="1.0" standalone="no"?>
<!DOCTYPE svg PUBLIC "-//W3C//DTD SVG 1.1//EN" "http://www.w3.org/Graphics/SVG/1.1/DTD/svg11.dtd" >
<svg xmlns="http://www.w3.org/2000/svg" xmlns:xlink="http://www.w3.org/1999/xlink" version="1.1">
<metadata>
Created by FontForge 20170731 at Mon Nov 21 14:45:00 2022
 By Aleksey,,,
Copyright (c) 1988-2020 Monotype GmbH. All rights reserved.
</metadata>
<defs>
<font id="AvenirNextGeorgian-Bold" horiz-adv-x="0" >
  <font-face 
    font-family="Avenir Next Georgian"
    font-weight="700"
    font-stretch="normal"
    units-per-em="2048"
    panose-1="2 11 8 3 2 2 2 2 2 4"
    ascent="1552"
    descent="-496"
    x-height="1026"
    cap-height="1450"
    bbox="-502 -539 2478 2361"
    underline-thickness="102"
    underline-position="-307"
    unicode-range="U+000D-FEFF"
  />
<missing-glyph horiz-adv-x="1048" 
d="M1049 0h-1049v1470h1049v-1470zM102 1366v-1264h844v1264h-844zM555 479h-94q-4 24 -4 35q0 115 26 166q33 64 95 121q64 59 83 93.5t19 76.5q0 73 -46 123.5t-110 50.5q-67 0 -112 -47.5t-56 -147.5l-102 17q13 141 87 210.5t189 69.5q110 0 182 -74t72 -194
q0 -70 -26.5 -123.5t-102.5 -122.5q-77 -68 -88 -106q-12 -41 -12 -148zM569 240h-114v137h114v-137z" />
    <glyph glyph-name="fi" unicode="fi" horiz-adv-x="1361" 
d="M522 0h-336v774h-186v252h186v92q0 79 12.5 145.5t44 127.5t80.5 103.5t126 67.5t176 25q97 0 161 -20l-22 -267q-47 15 -92 15q-150 0 -150 -193v-96h228v-252h-228v-774zM1059 1161q-81 0 -137 54.5t-56 130.5q0 75 56 129.5t137 54.5q80 0 136 -54t56 -130
q0 -78 -56 -131.5t-136 -53.5zM1227 0h-336v1026h336v-1026z" />
    <glyph glyph-name="fl" unicode="fl" horiz-adv-x="1363" 
d="M522 0h-336v774h-186v252h186v92q0 79 12.5 145.5t44 127.5t80.5 103.5t126 67.5t176 25q97 0 161 -20l-22 -267q-47 15 -92 15q-150 0 -150 -193v-96h228v-252h-228v-774zM1229 0h-340v1548h340v-1548z" />
    <glyph glyph-name=".notdef" horiz-adv-x="1048" 
d="M1049 0h-1049v1470h1049v-1470zM102 1366v-1264h844v1264h-844zM555 479h-94q-4 24 -4 35q0 115 26 166q33 64 95 121q64 59 83 93.5t19 76.5q0 73 -46 123.5t-110 50.5q-67 0 -112 -47.5t-56 -147.5l-102 17q13 141 87 210.5t189 69.5q110 0 182 -74t72 -194
q0 -70 -26.5 -123.5t-102.5 -122.5q-77 -68 -88 -106q-12 -41 -12 -148zM569 240h-114v137h114v-137z" />
    <glyph glyph-name=".null" 
 />
    <glyph glyph-name="nonmarkingreturn" horiz-adv-x="682" 
 />
    <glyph glyph-name="NULL" 
 />
    <glyph glyph-name="NULL" 
 />
    <glyph glyph-name="CR" unicode="&#xd;" horiz-adv-x="512" 
 />
    <glyph glyph-name="space" unicode=" " horiz-adv-x="512" 
 />
    <glyph glyph-name="exclam" unicode="!" horiz-adv-x="731" 
d="M537 485h-344v965h344v-965zM365 -20q-81 0 -140 55.5t-59 136.5q0 80 58 137.5t141 57.5t141.5 -56.5t58.5 -136.5q0 -82 -58.5 -138t-141.5 -56z" />
    <glyph glyph-name="quotedbl" unicode="&#x22;" horiz-adv-x="1019" 
d="M444 895h-268v555h268v-555zM842 895h-267v555h267v-555z" />
    <glyph glyph-name="quotedbl" unicode="&#x2033;" horiz-adv-x="1019" 
d="M444 895h-268v555h268v-555zM842 895h-267v555h267v-555z" />
    <glyph glyph-name="numbersign" unicode="#" horiz-adv-x="1234" 
d="M434 0h-225l59 410h-174v213h203l31 204h-174v213h200l60 410h227l-59 -410h159l60 410h225l-57 -410h172v-213h-203l-29 -204h174v-213h-200l-62 -410h-225l59 410h-161zM551 827l-27 -204h160l29 204h-162z" />
    <glyph glyph-name="dollar" unicode="$" horiz-adv-x="1331" 
d="M725 -170h-160v152q-297 22 -483 202l227 224q75 -98 226 -129v337q-195 63 -290 155.5t-95 254.5q0 96 35 176t95.5 132.5t136 85.5t161.5 44v148h159v-146q130 -8 250 -53t207 -127l-223 -217q-64 75 -180 100v-313q66 -22 117 -44.5t105.5 -59t90.5 -79t59 -103.5
t23 -134q0 -103 -37.5 -187.5t-102 -140t-146.5 -88t-175 -38.5v-152zM645 903v285q-65 -5 -106 -41.5t-41 -97.5q0 -54 33.5 -85.5t113.5 -60.5zM680 569v-311q66 5 111 43.5t45 108.5q0 56 -39.5 93.5t-116.5 65.5z" />
    <glyph glyph-name="percent" unicode="%" horiz-adv-x="1865" 
d="M1460 1423l-854 -1493l-182 90l846 1496zM449 700q-161 0 -275.5 113.5t-114.5 273.5q0 162 114 275t276 113t275.5 -113t113.5 -275q0 -160 -114 -273.5t-275 -113.5zM449 930q66 0 112.5 45.5t46.5 111.5t-46.5 113t-112.5 47t-113 -47t-47 -113t47 -111.5t113 -45.5z
M1432 -25q-162 0 -276 113t-114 274t114.5 274.5t275.5 113.5t275 -113.5t114 -274.5t-114 -274t-275 -113zM1432 205q65 0 112 46t47 111q0 66 -47 113t-112 47q-66 0 -113 -47t-47 -113t47 -111.5t113 -45.5z" />
    <glyph glyph-name="ampersand" unicode="&#x26;" horiz-adv-x="1599" 
d="M612 -29q-81 0 -155.5 16.5t-141.5 51t-116 84.5t-78 122t-29 158q0 143 84.5 243t218.5 159q-149 146 -149 315q0 94 40 167.5t106 116t144 64t162 21.5q68 0 131 -13.5t120 -43t99.5 -72t67.5 -104.5t25 -136q0 -234 -291 -379l182 -186l146 223h372l-313 -420
l360 -358h-423l-138 141q-160 -170 -424 -170zM672 922q75 30 121.5 78t46.5 110q0 57 -38 95t-100 38q-60 0 -99.5 -38t-39.5 -95q0 -99 109 -188zM625 236q133 0 213 110l-256 266q-71 -29 -112.5 -74t-41.5 -120q0 -82 60 -132t137 -50z" />
    <glyph glyph-name="quotesingle" unicode="'" horiz-adv-x="620" 
d="M442 895h-266v555h266v-555z" />
    <glyph glyph-name="quotesingle" unicode="&#x2032;" horiz-adv-x="620" 
d="M442 895h-266v555h266v-555z" />
    <glyph glyph-name="parenleft" unicode="(" horiz-adv-x="700" 
d="M590 -227l-230 -113q-145 200 -223 440t-78 490t78 490t223 440l230 -113q-130 -178 -198 -386.5t-68 -430.5t68 -430.5t198 -386.5z" />
    <glyph glyph-name="parenright" unicode=")" horiz-adv-x="700" 
d="M340 -340l-229 113q130 178 198 386.5t68 430.5t-68 430.5t-198 386.5l229 113q145 -200 223 -440t78 -490t-78 -490t-223 -440z" />
    <glyph glyph-name="asterisk" unicode="*" horiz-adv-x="1001" 
d="M498 854l-162 -215l-180 129l166 213l-265 88l72 205l260 -90v266h225v-266l260 82l70 -205l-262 -82l166 -219l-184 -129z" />
    <glyph glyph-name="plus" unicode="+" horiz-adv-x="1363" 
d="M817 63h-266v429h-436v258h434v428h266v-428h436v-258h-434v-429z" />
    <glyph glyph-name="comma" unicode="," horiz-adv-x="614" 
d="M317 -254h-276l154 582h321z" />
    <glyph glyph-name="hyphen" unicode="-" horiz-adv-x="667" 
d="M594 403h-520v267h520v-267z" />
    <glyph glyph-name="period" unicode="." horiz-adv-x="614" 
d="M309 -20q-86 0 -147.5 57t-61.5 141q0 83 61.5 143t147.5 60q84 0 144.5 -58.5t60.5 -142.5t-60.5 -142t-144.5 -58z" />
    <glyph glyph-name="slash" unicode="/" horiz-adv-x="849" 
d="M850 1481l-633 -1587l-231 75l632 1592z" />
    <glyph glyph-name="zero" unicode="0" horiz-adv-x="1323" 
d="M664 -39q-120 0 -217 40.5t-162 111t-108.5 168.5t-63 209.5t-19.5 238.5q0 126 19.5 236.5t63 208t108.5 166.5t162 109t217 40t216 -40t160.5 -109t107.5 -166.5t62 -208t19 -236.5q0 -127 -19 -238.5t-62 -209.5t-107.5 -168.5t-160.5 -111t-216 -40.5zM664 256
q64 0 108.5 46t66 122.5t30 150t8.5 154.5q0 79 -8.5 152t-30 149t-66 122t-108.5 46q-52 0 -92 -32t-63.5 -80t-38 -113.5t-19.5 -124t-5 -119.5q0 -62 5 -121t19.5 -125t38 -114.5t63.5 -80.5t92 -32z" />
    <glyph glyph-name="one" unicode="1" horiz-adv-x="1323" 
d="M924 0h-344v1065l-271 -209l-178 244l477 350h316v-1450z" />
    <glyph glyph-name="two" unicode="2" horiz-adv-x="1323" 
d="M1188 0h-1049v287l566 512q118 111 118 223q0 77 -49.5 125.5t-130.5 48.5q-85 0 -139.5 -60t-65.5 -159l-329 45q16 143 94.5 250t197.5 162t261 55q81 0 156.5 -17t142.5 -53t117 -87.5t79 -125.5t29 -162q0 -60 -14.5 -115t-35.5 -96.5t-58 -86.5t-67.5 -75t-78.5 -73
l-336 -299h592v-299z" />
    <glyph glyph-name="three" unicode="3" horiz-adv-x="1323" 
d="M647 -39q-101 0 -191.5 22.5t-168 68t-135.5 120.5t-86 174l319 84q22 -77 87 -128.5t159 -51.5q85 0 148 45.5t63 138.5q0 53 -25.5 91.5t-69 59.5t-93.5 30.5t-107 9.5h-92v252h100q254 0 254 172q0 74 -53.5 116.5t-128.5 42.5q-74 0 -128 -44t-71 -117l-319 73
q51 176 200.5 272.5t339.5 96.5q98 0 188 -25.5t162.5 -74.5t116 -129t43.5 -181q0 -117 -68 -202t-176 -113v-6q124 -29 201.5 -122t77.5 -214q0 -92 -31.5 -169.5t-84.5 -130.5t-123.5 -90t-148.5 -54t-159 -17z" />
    <glyph glyph-name="four" unicode="4" horiz-adv-x="1323" 
d="M1055 0h-322v283h-682v288l590 879h412v-889h200v-278h-198v-283zM729 1098l-344 -537h350v537h-6z" />
    <glyph glyph-name="five" unicode="5" horiz-adv-x="1323" 
d="M633 -39q-200 0 -350 99.5t-201 269.5l313 96q24 -77 87.5 -125.5t146.5 -48.5q93 0 155 55.5t62 155.5q0 62 -26 107t-70.5 68.5t-94 34.5t-106.5 11q-77 0 -177.5 -17.5t-176.5 -45.5l34 829h889v-295h-583l-13 -229q60 14 146 14q148 0 265 -50.5t188 -156.5t71 -254
q0 -127 -47 -228.5t-126 -163.5t-178 -94t-208 -32z" />
    <glyph glyph-name="six" unicode="6" horiz-adv-x="1323" 
d="M659 -39q-158 0 -287.5 62.5t-206.5 182t-77 273.5q0 120 41 225t121 224l350 522h416l-363 -504v-2q46 17 103 17q127 0 235 -58.5t174 -168t66 -247.5q0 -121 -45.5 -221t-123.5 -166t-181.5 -102.5t-221.5 -36.5zM659 248q101 0 164.5 64t63.5 167q0 99 -62.5 163.5
t-162.5 64.5q-101 0 -165.5 -64.5t-64.5 -165.5q0 -96 63.5 -162.5t163.5 -66.5z" />
    <glyph glyph-name="seven" unicode="7" horiz-adv-x="1323" 
d="M627 0h-400l588 1155h-686v295h1053v-274z" />
    <glyph glyph-name="eight" unicode="8" horiz-adv-x="1323" 
d="M662 -39q-110 0 -206.5 28t-173 82.5t-121 142t-44.5 198.5q0 126 74 218t186 128v4q-99 37 -160 117.5t-61 195.5q0 129 71.5 225t184.5 142.5t250 46.5q136 0 249 -45t184.5 -139.5t71.5 -223.5q0 -117 -60.5 -200.5t-160.5 -116.5v-6q112 -32 186 -126t74 -218
q0 -111 -44.5 -199t-120.5 -142.5t-172.5 -83t-206.5 -28.5zM662 885q74 0 124 51t50 121t-51 118t-123 48q-76 0 -124.5 -47.5t-48.5 -118.5t48 -121.5t125 -50.5zM662 233q90 0 145 53t55 140q0 84 -56.5 140.5t-143.5 56.5q-89 0 -146 -56t-57 -141q0 -87 56.5 -140
t146.5 -53z" />
    <glyph glyph-name="nine" unicode="9" horiz-adv-x="1323" 
d="M721 0h-416l361 500l4 6q-49 -17 -103 -17q-127 0 -235.5 58.5t-175 168.5t-66.5 247q0 121 45.5 221t123.5 166t181.5 102.5t221.5 36.5q159 0 288 -62.5t206 -181.5t77 -274q0 -120 -41 -225t-121 -224zM659 745q101 0 165.5 64.5t64.5 165.5q0 97 -62.5 164t-162.5 67
q-102 0 -166 -65t-64 -168q0 -99 62.5 -163.5t162.5 -64.5z" />
    <glyph glyph-name="colon" unicode=":" horiz-adv-x="679" 
d="M342 643q-83 0 -143 56t-60 137t59.5 138.5t143.5 57.5q80 0 139.5 -56.5t59.5 -135.5q0 -81 -59.5 -139t-139.5 -58zM342 -12q-83 0 -143 55.5t-60 136.5q0 82 60 139.5t143 57.5q80 0 139.5 -57t59.5 -138t-59 -137.5t-140 -56.5z" />
    <glyph glyph-name="semicolon" unicode=";" horiz-adv-x="679" 
d="M342 645q-81 0 -141 56t-60 137q0 82 59 139t142 57q81 0 140 -56.5t59 -137.5t-58.5 -138t-140.5 -57zM344 -254h-283l154 582h328z" />
    <glyph glyph-name="less" unicode="&#x3c;" horiz-adv-x="1363" 
d="M1202 356v-280l-1040 438v211l1040 438v-278l-627 -269z" />
    <glyph glyph-name="equal" unicode="=" horiz-adv-x="1363" 
d="M1225 686h-1086v252h1086v-252zM1225 307h-1086v252h1086v-252z" />
    <glyph glyph-name="greater" unicode="&#x3e;" horiz-adv-x="1363" 
d="M1202 514l-1040 -438v280l626 260l-626 269v278l1040 -438v-211z" />
    <glyph glyph-name="question" unicode="?" horiz-adv-x="1118" 
d="M739 463h-319v78q0 69 20 123t51.5 93t90.5 91l67 63q41 36 62.5 69.5t21.5 76.5q0 65 -40 104t-109 39q-80 0 -126.5 -55.5t-49.5 -134.5l-326 34q11 109 56 194.5t114.5 140t157 82.5t186.5 28q94 0 178.5 -24.5t154 -73t110 -129t40.5 -183.5q0 -66 -14.5 -117.5
t-48.5 -96.5t-69.5 -78t-96.5 -80q-67 -53 -89 -90t-22 -101v-53zM582 -20q-83 0 -142 55.5t-59 136.5q0 80 59 137.5t142 57.5q82 0 140 -56.5t58 -136.5q0 -82 -57.5 -138t-140.5 -56z" />
    <glyph glyph-name="at" unicode="@" horiz-adv-x="1638" 
d="M850 -37q-172 0 -319.5 56.5t-251 156.5t-162 241.5t-58.5 305.5q0 160 62.5 302.5t169 243.5t251.5 159.5t306 58.5q117 0 224.5 -26.5t201 -81.5t163 -133t109 -187t39.5 -238q0 -229 -118 -361t-302 -132q-81 0 -133.5 36t-60.5 95h-8q-32 -54 -95.5 -92.5
t-148.5 -38.5q-136 0 -215.5 95.5t-79.5 250.5q0 117 47.5 221.5t139 172t206.5 67.5q75 0 128 -32t67 -79h2l14 70h221l-63 -322q-27 -127 -27 -170q0 -74 60 -74q66 0 111.5 74.5t45.5 210.5q0 233 -145 360t-385 127q-248 0 -404.5 -163.5t-156.5 -413.5
q0 -258 163 -412.5t424 -154.5q279 0 471 176l130 -144q-231 -225 -623 -225zM780 530q57 0 97.5 41.5t57.5 95t17 109.5q0 160 -114 160q-73 0 -121.5 -82.5t-48.5 -179.5q0 -60 26 -102t86 -42z" />
    <glyph glyph-name="A" unicode="A" horiz-adv-x="1492" 
d="M580 1450h340l602 -1450h-389l-113 285h-561l-107 -285h-381zM743 1063l-184 -498h365z" />
    <glyph glyph-name="B" unicode="B" horiz-adv-x="1361" 
d="M727 0h-577v1450h577q72 0 138 -10.5t132.5 -37t115 -67.5t78.5 -107t30 -151q0 -116 -64 -196t-174 -117v-4q130 -23 213.5 -112t83.5 -226q0 -91 -31.5 -164.5t-83.5 -120.5t-124.5 -78.5t-150 -45t-163.5 -13.5zM487 1171v-299h189q99 0 153 41t54 117q0 141 -224 141
h-172zM487 614v-331h197q46 0 86 7.5t78 25t60 53.5t22 86q0 86 -64 122.5t-184 36.5h-195z" />
    <glyph glyph-name="C" unicode="C" horiz-adv-x="1425" 
d="M862 -39q-166 0 -310 56t-247.5 155.5t-163 243t-59.5 311.5q0 227 104.5 402t282.5 267.5t399 92.5q158 0 306.5 -56t236.5 -157l-237 -238q-48 65 -127 99t-166 34q-182 0 -300 -125.5t-118 -318.5q0 -198 114.5 -321t296.5 -123q100 0 180.5 40t127.5 107l243 -229
q-98 -114 -241.5 -177t-321.5 -63z" />
    <glyph glyph-name="D" unicode="D" horiz-adv-x="1585" 
d="M690 0h-540v1450h524q130 0 245 -21.5t224 -74.5t187.5 -133.5t125.5 -206.5t47 -285q0 -148 -46.5 -271t-124.5 -206.5t-183.5 -141t-220.5 -84t-238 -26.5zM492 1151v-848h165q78 0 146.5 13t131 44t107 78.5t71 122t26.5 168.5q0 95 -26.5 169t-70 121t-105.5 77
t-128.5 42.5t-142.5 12.5h-174z" />
    <glyph glyph-name="E" unicode="E" horiz-adv-x="1243" 
d="M1161 0h-1011v1450h974v-297h-637v-272h603v-281h-603v-301h674v-299z" />
    <glyph glyph-name="F" unicode="F" horiz-adv-x="1179" 
d="M496 0h-346v1450h954v-299h-608v-299h561v-289h-561v-563z" />
    <glyph glyph-name="G" unicode="G" horiz-adv-x="1574" 
d="M879 -37q-230 0 -411 95t-283.5 269.5t-102.5 399.5q0 227 104.5 402t282.5 267.5t399 92.5q169 0 318 -52t241 -141l-221 -252q-53 61 -138 98.5t-187 37.5q-184 0 -305 -129t-121 -324q0 -205 116.5 -331t325.5 -126q131 0 219 39v264h-276v283h598v-768
q-238 -125 -559 -125z" />
    <glyph glyph-name="H" unicode="H" horiz-adv-x="1564" 
d="M500 0h-350v1450h350v-549h565v549h350v-1450h-350v606h-565v-606z" />
    <glyph glyph-name="I" unicode="I" horiz-adv-x="651" 
d="M502 0h-352v1450h352v-1450z" />
    <glyph glyph-name="J" unicode="J" horiz-adv-x="1083" 
d="M465 -39q-179 0 -304.5 93.5t-166.5 246.5l309 105q14 -58 52.5 -92.5t93.5 -34.5q81 0 111 55t30 160v956h352v-954q0 -76 -11 -144.5t-43.5 -142t-83.5 -126.5t-138 -87.5t-201 -34.5z" />
    <glyph glyph-name="K" unicode="K" horiz-adv-x="1456" 
d="M494 0h-344v1450h344v-590h6l518 590h438l-625 -668l662 -782h-457l-538 668h-4v-668z" />
    <glyph glyph-name="L" unicode="L" horiz-adv-x="1077" 
d="M1063 0h-913v1450h352v-1145h561v-305z" />
    <glyph glyph-name="M" unicode="M" horiz-adv-x="1955" 
d="M479 0h-329v1450h497l330 -930h8l315 930h506v-1450h-342l9 1026h-7l-376 -1026h-246l-367 1026h-6z" />
    <glyph glyph-name="N" unicode="N" horiz-adv-x="1617" 
d="M489 0h-339v1450h399l581 -946h7l-9 946h340v-1450h-397l-584 948h-6z" />
    <glyph glyph-name="O" unicode="O" horiz-adv-x="1742" 
d="M870 -39q-135 0 -256 35.5t-217.5 103.5t-167.5 161.5t-109 213.5t-38 256q0 228 102.5 401.5t281 265t404.5 91.5q227 0 406 -91.5t282 -265t103 -401.5q0 -226 -102.5 -402t-282.5 -272t-406 -96zM870 281q183 0 299.5 126.5t116.5 323.5q0 192 -116.5 317.5
t-299.5 125.5t-298 -125.5t-115 -317.5q0 -197 115.5 -323.5t297.5 -126.5z" />
    <glyph glyph-name="P" unicode="P" horiz-adv-x="1310" 
d="M500 0h-350v1450h532q98 0 181 -14.5t155.5 -47.5t122.5 -83.5t79 -127t29 -173.5q0 -122 -46.5 -212.5t-128.5 -142.5t-181.5 -77t-218.5 -25h-174v-547zM500 1167v-342h147q71 0 124.5 14.5t90.5 55.5t37 106q0 50 -20 84t-57 51t-77 24t-92 7h-153z" />
    <glyph glyph-name="Q" unicode="Q" horiz-adv-x="1755" 
d="M1731 0h-883q-173 0 -315.5 50t-244.5 143t-158 234t-56 316q0 216 102.5 387t281.5 265t402 94t401 -93t278.5 -262t100.5 -384q0 -154 -63.5 -278.5t-151.5 -192.5v-7l306 7v-279zM858 299q179 0 295.5 123t116.5 317q0 190 -114.5 311t-295.5 121q-176 0 -292.5 -122
t-116.5 -310q0 -195 113.5 -317.5t293.5 -122.5z" />
    <glyph glyph-name="R" unicode="R" horiz-adv-x="1357" 
d="M494 0h-344v1450h552q88 0 165.5 -13.5t150 -45.5t124.5 -81t83.5 -125.5t31.5 -172.5q0 -144 -80 -246t-221 -145l379 -621h-409l-314 575h-118v-575zM492 1167v-338h165q48 0 88.5 7.5t80 25.5t62.5 55t23 89q0 161 -233 161h-186z" />
    <glyph glyph-name="S" unicode="S" horiz-adv-x="1210" 
d="M573 -37q-157 0 -302.5 55t-239.5 154l229 234q53 -67 140.5 -110.5t172.5 -43.5q88 0 144.5 38t56.5 120q0 76 -80 122q-50 29 -213 81l-1 1h-1h-1l-1 1h-1h-1l-1 1h-1q-51 16 -92 33.5t-85.5 42t-77.5 56.5t-60.5 72.5t-41.5 94t-14 117.5q0 93 32.5 170.5t87.5 129
t128 87.5t152 52t162 16q127 0 254.5 -46.5t220.5 -131.5l-224 -236q-43 56 -116 90.5t-142 34.5q-51 0 -93.5 -11.5t-75.5 -45.5t-33 -88q0 -28 11 -50.5t27.5 -38.5t47.5 -31t60.5 -25.5t76.5 -24.5q51 -15 88 -27.5t87.5 -34t86 -44t73.5 -56.5t61.5 -72.5t38.5 -90.5
t15 -112q0 -121 -46 -215.5t-124.5 -152t-176 -86.5t-208.5 -29z" />
    <glyph glyph-name="T" unicode="T" horiz-adv-x="1189" 
d="M770 0h-350v1151h-410v299h1170v-299h-410v-1151z" />
    <glyph glyph-name="U" unicode="U" horiz-adv-x="1511" 
d="M754 -39q-283 0 -451 161.5t-168 424.5v903h348v-875q0 -61 15.5 -113t47 -94.5t85.5 -67t125 -24.5q72 0 126 24.5t85 67t46 94.5t15 113v875h350v-903q0 -262 -170.5 -424t-453.5 -162z" />
    <glyph glyph-name="V" unicode="V" horiz-adv-x="1396" 
d="M868 0h-350l-549 1450h393l336 -1028h9l333 1028h387z" />
    <glyph glyph-name="W" unicode="W" horiz-adv-x="2099" 
d="M760 0h-348l-412 1450h377l229 -965h6l258 965h365l260 -965h6l234 965h364l-413 -1450h-347l-286 981h-6z" />
    <glyph glyph-name="X" unicode="X" horiz-adv-x="1439" 
d="M401 0h-417l508 766l-467 684h421l271 -451l266 451h408l-459 -684l524 -766h-432l-317 512z" />
    <glyph glyph-name="Y" unicode="Y" horiz-adv-x="1370" 
d="M692 911l309 539h410l-557 -836v-614h-350v614l-545 836h424z" />
    <glyph glyph-name="Z" unicode="Z" horiz-adv-x="1300" 
d="M1223 0h-1143v303l690 850h-674v297h1112v-281l-706 -866h721v-303z" />
    <glyph glyph-name="bracketleft" unicode="[" horiz-adv-x="700" 
d="M551 -319h-442v1818h442v-209h-182v-1401h182v-208z" />
    <glyph glyph-name="backslash" unicode="\" horiz-adv-x="849" 
d="M864 -31l-231 -75l-631 1587l231 80z" />
    <glyph glyph-name="bracketright" unicode="]" horiz-adv-x="700" 
d="M592 -319h-442v208h182v1401h-182v209h442v-1818z" />
    <glyph glyph-name="asciicircum" unicode="^" horiz-adv-x="1413" 
d="M453 702h-303l436 748h241l435 -748h-304l-253 437z" />
    <glyph glyph-name="underscore" unicode="_" horiz-adv-x="1024" 
d="M1024 -336h-1024v182h1024v-182z" />
    <glyph glyph-name="grave" unicode="`" horiz-adv-x="614" 
d="M473 1171h-254l-299 295h340z" />
    <glyph glyph-name="a" unicode="a" horiz-adv-x="1159" 
d="M438 -25q-65 0 -127 17t-118 52.5t-90.5 100t-34.5 150.5q0 344 649 344h6v16q0 72 -51 110t-133 38q-69 0 -136 -29.5t-116 -75.5l-170 183q88 83 207.5 127.5t246.5 44.5q253 0 361 -128t108 -411v-352v-162h-307v109h-6q-38 -62 -117.5 -98t-171.5 -36zM522 201
q100 0 155.5 56.5t55.5 152.5v34h-43q-63 0 -112 -5t-98 -18.5t-76 -43t-27 -72.5q0 -54 43 -79t102 -25z" />
    <glyph glyph-name="b" unicode="b" horiz-adv-x="1349" 
d="M782 -29q-103 0 -193.5 43.5t-139.5 118.5h-5v-133h-309v1548h336v-637h4q49 59 128 98.5t183 39.5q108 0 200 -43.5t153 -117t95 -170.5t34 -204t-33.5 -205t-94 -173.5t-153.5 -120t-205 -44.5zM702 250q77 0 133 39t82.5 97.5t26.5 127.5q0 106 -64 183t-178 77
q-109 0 -177 -79.5t-68 -182.5q0 -105 68 -183.5t177 -78.5z" />
    <glyph glyph-name="c" unicode="c" horiz-adv-x="1030" 
d="M651 -33q-162 0 -290.5 64.5t-204.5 189t-76 289.5q0 162 76.5 287t205 190.5t287.5 65.5q109 0 214 -38.5t165 -99.5l-194 -225q-28 37 -78 59.5t-101 22.5q-103 0 -169 -76.5t-66 -185.5t66 -184.5t173 -75.5q53 0 103 20t80 56l186 -228q-63 -61 -163.5 -96
t-213.5 -35z" />
    <glyph glyph-name="d" unicode="d" horiz-adv-x="1347" 
d="M565 -29q-148 0 -260.5 77t-168.5 199t-56 267q0 107 34 204t94.5 170.5t152.5 117t200 43.5q104 0 183 -39.5t128 -98.5h5v637h335v-1548h-309v133h-4q-49 -75 -140 -118.5t-194 -43.5zM645 250q109 0 177.5 78.5t68.5 183.5q0 103 -68.5 182.5t-177.5 79.5
q-114 0 -178 -77t-64 -183q0 -69 26.5 -127.5t82.5 -97.5t133 -39z" />
    <glyph glyph-name="e" unicode="e" horiz-adv-x="1220" 
d="M641 -33q-156 0 -281.5 62t-202.5 186t-77 291q0 163 73.5 289t198 192t279.5 66q229 0 370.5 -149t141.5 -406q0 -55 -2 -80h-740q7 -83 79 -138t165 -55q146 0 225 107l234 -148q-73 -105 -191 -161t-272 -56zM401 627h433q0 84 -52.5 139t-148.5 55q-95 0 -160.5 -57
t-71.5 -137z" />
    <glyph glyph-name="f" unicode="f" horiz-adv-x="745" 
d="M522 0h-336v774h-186v252h186v92q0 79 12.5 145.5t44 127.5t80.5 103.5t126 67.5t176 25q97 0 161 -20l-22 -267q-47 15 -92 15q-150 0 -150 -193v-96h228v-252h-228v-774z" />
    <glyph glyph-name="g" unicode="g" horiz-adv-x="1347" 
d="M612 -492q-137 0 -280.5 42.5t-243.5 117.5l168 240q72 -63 160.5 -96t177.5 -33q143 0 216 76t73 208v62h-6q-48 -63 -129 -99t-181 -36q-113 0 -206 42.5t-154 115t-94 168t-33 202.5q0 86 20.5 165.5t62 147t99 117.5t135.5 78.5t168 28.5q100 0 187 -40.5t139 -119.5
h4v131h317v-930q0 -291 -160 -439.5t-440 -148.5zM645 256q112 0 180 77t68 187q0 109 -68.5 184.5t-179.5 75.5q-110 0 -174.5 -74.5t-64.5 -185.5q0 -108 65 -186t174 -78z" />
    <glyph glyph-name="h" unicode="h" horiz-adv-x="1263" 
d="M471 0h-336v1548h336v-657h4q36 66 114.5 112t178.5 46q99 0 174 -36t117 -97t62 -132.5t20 -152.5v-631h-338v553q0 215 -150 215q-85 0 -133.5 -61.5t-48.5 -155.5v-551z" />
    <glyph glyph-name="i" unicode="i" horiz-adv-x="606" 
d="M303 1161q-81 0 -136.5 54.5t-55.5 130.5q0 75 55.5 129.5t136.5 54.5q80 0 136.5 -54t56.5 -130q0 -78 -56.5 -131.5t-136.5 -53.5zM471 0h-336v1026h336v-1026z" />
    <glyph glyph-name="j" unicode="j" horiz-adv-x="612" 
d="M309 1161q-81 0 -136.5 54.5t-55.5 130.5q0 75 55.5 129.5t136.5 54.5q80 0 136.5 -54t56.5 -130q0 -78 -56.5 -131.5t-136.5 -53.5zM70 -492q-83 0 -146 17l23 280q31 -10 71 -10q69 0 96 46t27 132v1053h336v-1053q0 -81 -10.5 -146t-38 -126t-72.5 -102.5t-117.5 -66
t-168.5 -24.5z" />
    <glyph glyph-name="k" unicode="k" horiz-adv-x="1218" 
d="M471 0h-338v1548h338v-938h6l326 416h407l-393 -463l410 -563h-416l-334 494h-6v-494z" />
    <glyph glyph-name="l" unicode="l" horiz-adv-x="610" 
d="M475 0h-340v1548h340v-1548z" />
    <glyph glyph-name="m" unicode="m" horiz-adv-x="1892" 
d="M1399 1055q99 0 173.5 -37.5t115.5 -100t61 -133t20 -147.5v-637h-335v563q0 100 -32 157.5t-114 57.5t-126 -64t-44 -157v-557h-336v588q0 90 -36 140t-109 50q-77 0 -122.5 -62t-45.5 -157v-559h-338v801v225h326v-141h4q39 72 118 121t187 49q218 0 307 -174
q112 174 326 174z" />
    <glyph glyph-name="n" unicode="n" horiz-adv-x="1261" 
d="M469 0h-338v791v235h326v-141h4q37 71 120.5 120.5t184.5 49.5q99 0 173.5 -36t116.5 -97t62.5 -132.5t20.5 -152.5v-637h-338v563q0 215 -152 215q-85 0 -132.5 -63t-47.5 -156v-559z" />
    <glyph glyph-name="o" unicode="o" horiz-adv-x="1294" 
d="M645 -33q-154 0 -282 66t-205.5 192.5t-77.5 288.5q0 122 45 224.5t122.5 170.5t180 106t217.5 38q116 0 219 -38t180.5 -106t122.5 -170.5t45 -224.5q0 -162 -77.5 -288.5t-206 -192.5t-283.5 -66zM647 250q112 0 177 79t65 185q0 105 -65.5 182.5t-178.5 77.5
q-112 0 -175.5 -77t-63.5 -183t64.5 -185t176.5 -79z" />
    <glyph glyph-name="p" unicode="p" horiz-adv-x="1345" 
d="M467 -492h-336v1518h320v-125h6q50 67 134.5 110.5t190.5 43.5q108 0 200 -43.5t153.5 -117.5t96 -171t34.5 -205t-33.5 -206.5t-94 -174.5t-153.5 -121t-205 -45q-94 0 -178 38t-131 104h-4v-605zM700 250q113 0 176.5 79.5t63.5 188.5q0 69 -26 127t-81.5 96.5
t-132.5 38.5q-109 0 -177 -80.5t-68 -183.5q0 -107 68 -186.5t177 -79.5z" />
    <glyph glyph-name="q" unicode="q" horiz-adv-x="1345" 
d="M1212 -492h-333v605h-5q-49 -66 -132 -104t-177 -38q-112 0 -205.5 45t-153.5 121t-93 174.5t-33 206.5t34 205t94.5 171t152.5 117.5t200 43.5q107 0 192.5 -43.5t135.5 -110.5h6v125h317v-1518zM645 250q109 0 177.5 79.5t68.5 186.5q0 103 -68.5 183.5t-177.5 80.5
q-114 0 -178 -77.5t-64 -184.5q0 -109 64 -188.5t178 -79.5z" />
    <glyph glyph-name="r" unicode="r" horiz-adv-x="811" 
d="M467 0h-336v766v260h324v-147h4q40 79 112.5 127.5t163.5 48.5q51 0 72 -8l-14 -295q-39 10 -86 10q-64 0 -113 -24t-75 -61t-39 -74.5t-13 -72.5v-530z" />
    <glyph glyph-name="s" unicode="s" horiz-adv-x="966" 
d="M467 -33q-127 0 -246.5 41.5t-197.5 116.5l188 199q46 -51 112.5 -83t137.5 -32q48 0 84.5 21.5t36.5 66.5q0 44 -44 67t-159 50q-60 14 -107 34t-93 53.5t-71.5 87t-25.5 122.5q0 87 38.5 155.5t101 107.5t135 59t149.5 20q117 0 226.5 -37.5t182.5 -106.5l-184 -190
q-96 92 -213 92q-53 0 -90 -20.5t-37 -61.5q0 -40 39 -59t148 -43q325 -73 325 -312q0 -93 -38 -162.5t-102.5 -108.5t-138.5 -58t-157 -19z" />
    <glyph glyph-name="t" unicode="t" horiz-adv-x="761" 
d="M530 -25q-194 0 -278 94.5t-84 268.5v436h-164v252h162v266h330v-266h239v-252h-239v-395q0 -73 28.5 -108t98.5 -35q58 0 98 16l4 -246q-87 -31 -195 -31z" />
    <glyph glyph-name="u" unicode="u" horiz-adv-x="1257" 
d="M492 -29q-99 0 -173 36t-116 97t-62 132.5t-20 152.5v637h338v-559q0 -47 6.5 -83t22.5 -68t47 -49t75 -17q84 0 132.5 63.5t48.5 155.5v557h335v-829v-197h-323v141h-4q-37 -71 -120.5 -120.5t-186.5 -49.5z" />
    <glyph glyph-name="v" unicode="v" horiz-adv-x="1161" 
d="M762 0h-363l-401 1026h371l215 -668h6l215 668h358z" />
    <glyph glyph-name="w" unicode="w" horiz-adv-x="1783" 
d="M690 0h-338l-352 1026h362l177 -651h6l182 651h338l188 -651h4l179 651h348l-354 -1026h-338l-201 641h-4z" />
    <glyph glyph-name="x" unicode="x" horiz-adv-x="1216" 
d="M383 0h-389l407 539l-368 487h391l190 -274l193 274h379l-367 -487l404 -539h-396l-219 317z" />
    <glyph glyph-name="y" unicode="y" horiz-adv-x="1161" 
d="M258 -492q-90 0 -184 23l37 283q63 -19 108 -19q73 0 109 32t63 105l33 84l-426 1010h373l227 -661h6l203 661h356l-456 -1180q-33 -84 -69.5 -143t-89 -105t-124.5 -68t-166 -22z" />
    <glyph glyph-name="z" unicode="z" horiz-adv-x="1048" 
d="M979 0h-909v262l479 506h-461v258h870v-252l-493 -514h514v-260z" />
    <glyph glyph-name="braceleft" unicode="{" horiz-adv-x="700" 
d="M598 -319h-168q-128 0 -204 82.5t-76 220.5v342q0 151 -138 151v225q138 0 138 144v350q0 138 76 220.5t204 82.5h168v-215h-96q-94 0 -94 -123v-342q0 -56 -20 -101t-51.5 -70t-61.5 -39t-58 -17v-4q29 -3 58.5 -15.5t61 -37.5t51.5 -72.5t20 -110.5v-334
q0 -122 94 -122h96v-215z" />
    <glyph glyph-name="bar" unicode="|" horiz-adv-x="493" 
d="M381 -512h-266l-2 2060h268v-2060z" />
    <glyph glyph-name="braceright" unicode="}" horiz-adv-x="700" 
d="M270 -319h-168v215h97q94 0 94 122v334q0 63 20 110.5t51 72.5t60.5 37.5t58.5 15.5v4q-28 3 -58 17t-61 39t-51 70t-20 101v342q0 123 -94 123h-97v215h168q128 0 204.5 -82.5t76.5 -220.5v-350q0 -144 137 -144v-225q-137 0 -137 -151v-342q0 -138 -76.5 -220.5
t-204.5 -82.5z" />
    <glyph glyph-name="asciitilde" unicode="~" horiz-adv-x="1363" 
d="M930 379q-62 0 -113 18t-117 60q-66 41 -115.5 59.5t-103.5 18.5q-102 0 -172 -144l-135 213q104 203 281 203q118 0 245 -76q142 -82 203 -82q51 0 91.5 38t86.5 108l133 -211q-56 -95 -121.5 -150t-162.5 -55z" />
    <glyph glyph-name="uni00A0" unicode="&#xa0;" horiz-adv-x="512" 
 />
    <glyph glyph-name="exclamdown" unicode="&#xa1;" horiz-adv-x="731" 
d="M365 674q-83 0 -141 57t-58 137q0 81 59 137t140 56q83 0 141.5 -56.5t58.5 -138.5q0 -80 -58.5 -136t-141.5 -56zM537 -410h-344v965h344v-965z" />
    <glyph glyph-name="cent" unicode="&#xa2;" horiz-adv-x="1331" 
d="M823 -154h-166v131q-215 28 -343 172t-128 363q0 220 128 363.5t343 173.5v133h166v-127q208 -17 322 -129l-187 -238q-54 66 -145 82v-510q95 10 148 78l186 -232q-115 -115 -324 -133v-127zM688 268v494q-76 -22 -123 -88.5t-47 -157.5q0 -88 43.5 -157t126.5 -91z" />
    <glyph glyph-name="sterling" unicode="&#xa3;" horiz-adv-x="1323" 
d="M1210 0h-1063v289h195v327h-195v236h195v125q0 70 18 139t59.5 137t101.5 120t151.5 84t201.5 32q252 0 406 -141l-197 -226q-33 36 -83 57t-105 21q-49 0 -87.5 -15t-62 -39t-38.5 -57t-21 -65.5t-6 -67.5v-104h319v-236h-319v-327h530v-289z" />
    <glyph glyph-name="currency" unicode="&#xa4;" horiz-adv-x="1945" 
d="M674 154l-203 -201l-172 172l197 197q-86 128 -86 311q0 171 79 301l-190 190l174 172l195 -192q139 84 307 84q169 0 307 -80l188 188l175 -172l-185 -184q86 -133 86 -307q0 -184 -92 -318l191 -190l-172 -172l-199 197q-132 -80 -299 -80q-159 0 -301 84zM975 358
q115 0 187.5 79.5t72.5 195.5q0 111 -73.5 190.5t-186.5 79.5t-185.5 -79t-72.5 -191q0 -116 72 -195.5t186 -79.5z" />
    <glyph glyph-name="yen" unicode="&#xa5;" horiz-adv-x="1323" 
d="M825 0h-323v297h-365v211h365v133h-365v211h260l-372 598h378l271 -532l264 532h367l-367 -598h254v-211h-367v-133h367v-211h-367v-297z" />
    <glyph glyph-name="brokenbar" unicode="&#xa6;" horiz-adv-x="493" 
d="M381 641h-268v741h268v-741zM381 -358h-268v741h268v-741z" />
    <glyph glyph-name="section" unicode="&#xa7;" horiz-adv-x="1243" 
d="M600 -303q-153 0 -296 65t-222 183l250 178q43 -73 120.5 -111.5t153.5 -38.5q57 0 103.5 28t46.5 77q0 26 -10.5 47t-26 36t-51.5 32t-67.5 29t-94.5 34l-31 10q-67 24 -113 44t-94 50t-76.5 63.5t-46.5 81t-18 105.5q0 97 49 168t127 115q-108 79 -108 231
q0 91 43.5 163t114 114.5t151 64t162.5 21.5q152 0 274.5 -54.5t192.5 -156.5l-238 -180q-36 56 -95.5 89.5t-119.5 33.5q-57 0 -101 -26t-44 -75q0 -51 51.5 -86t171.5 -76l26 -10q67 -25 116 -48.5t99 -57t81.5 -70.5t51 -88t19.5 -111q0 -80 -42 -148.5t-112 -107.5
q103 -71 103 -225q0 -82 -30.5 -149.5t-80 -111.5t-115.5 -74.5t-134.5 -44t-139.5 -13.5zM592 510l192 -76q30 13 47 42.5t17 62.5q0 29 -12.5 53t-38 43t-48.5 31t-61 28l-176 72q-84 -34 -84 -109q0 -30 12 -52.5t40.5 -41t48.5 -27.5t63 -26z" />
    <glyph glyph-name="dieresis" unicode="&#xa8;" horiz-adv-x="614" 
d="M84 1180q-70 0 -120 49.5t-50 118.5q0 67 50 116t120 49q71 0 121.5 -48t50.5 -117q0 -70 -50.5 -119t-121.5 -49zM530 1180q-72 0 -121 49t-49 119q0 67 49.5 116t120.5 49q69 0 119.5 -48t50.5 -117q0 -70 -50 -119t-120 -49z" />
    <glyph glyph-name="copyright" unicode="&#xa9;" horiz-adv-x="1638" 
d="M821 -45q-159 0 -303 60.5t-248.5 162.5t-166.5 244.5t-62 300.5t62 301.5t166.5 246.5t248.5 163.5t303 60.5q158 0 301.5 -60.5t247.5 -163.5t165.5 -246.5t61.5 -301.5t-61.5 -300.5t-165.5 -244.5t-247.5 -162.5t-301.5 -60.5zM817 70q177 0 328.5 87.5t240.5 238
t89 327.5q0 178 -88 329.5t-238.5 239.5t-327.5 88q-133 0 -255 -52t-210 -140t-140 -210t-52 -255t51.5 -253.5t139 -208t208.5 -139.5t254 -52zM858 250q-135 0 -243.5 54t-175 162.5t-66.5 254.5q0 141 66.5 249.5t176 164t242.5 55.5q102 0 193.5 -39t146.5 -107
l-158 -143q-29 37 -79 58.5t-105 21.5q-108 0 -170.5 -76.5t-62.5 -181.5q0 -106 65 -184t180 -78q53 0 102 19.5t79 54.5l147 -156q-58 -61 -147 -95t-191 -34z" />
    <glyph glyph-name="ordfeminine" unicode="&#xaa;" horiz-adv-x="786" 
d="M309 868q-87 0 -152 46t-65 135q0 51 23.5 88.5t59.5 58.5t89 33.5t100 16t105 3.5h4v8q0 35 -28 53.5t-74 18.5q-83 0 -140 -57l-110 112q50 46 121.5 71.5t146.5 25.5q285 0 285 -262v-256v-80h-191v55h-2q-21 -33 -68 -51.5t-104 -18.5zM367 1006q53 0 82.5 28.5
t29.5 73.5v25h-24q-164 0 -164 -72q0 -27 23 -41t53 -14z" />
    <glyph glyph-name="guillemotleft" unicode="&#xab;" horiz-adv-x="1112" 
d="M582 174l-201 -129l-330 475l330 475l199 -129l-236 -346zM1044 174l-200 -129l-330 475l330 475l198 -129l-235 -346z" />
    <glyph glyph-name="logicalnot" unicode="&#xac;" horiz-adv-x="1363" 
d="M1241 297h-266v375h-871v252h1137v-627z" />
    <glyph glyph-name="uni00AD" unicode="&#xad;" horiz-adv-x="667" 
d="M594 403h-520v267h520v-267z" />
    <glyph glyph-name="registered" unicode="&#xae;" horiz-adv-x="1228" 
d="M616 547q-127 0 -235 61t-171 167t-63 233q0 193 137.5 329t331.5 136q192 0 328.5 -136t136.5 -329q0 -127 -62.5 -233t-169.5 -167t-233 -61zM616 614q162 0 277 116t115 278q0 163 -114.5 278t-277.5 115q-164 0 -279.5 -115t-115.5 -278q0 -162 115.5 -278
t279.5 -116zM571 748h-180v544h234q47 0 88.5 -8.5t78.5 -27.5t58.5 -55t21.5 -85q0 -112 -98 -151l125 -217h-205l-90 192h-33v-192zM571 1151v-84h54q25 0 41 13.5t16 33.5q0 17 -17 27t-40 10h-54z" />
    <glyph glyph-name="macron" unicode="&#xaf;" horiz-adv-x="614" 
d="M651 1231h-688v176h688v-176z" />
    <glyph glyph-name="degree" unicode="&#xb0;" horiz-adv-x="851" 
d="M426 799q-145 0 -244.5 99.5t-99.5 244.5t99.5 243.5t244.5 98.5t244.5 -98.5t99.5 -243.5t-99.5 -244.5t-244.5 -99.5zM426 963q75 0 127.5 52.5t52.5 127.5q0 74 -52.5 127t-127.5 53t-127.5 -53t-52.5 -127q0 -75 52.5 -127.5t127.5 -52.5z" />
    <glyph glyph-name="plusminus" unicode="&#xb1;" horiz-adv-x="1363" 
d="M827 408h-266v270h-436v260h436v270h266v-270h435v-260h-435v-270zM1262 63h-1137v261h1137v-261z" />
    <glyph glyph-name="two.sups" unicode="&#xb2;" horiz-adv-x="860" 
d="M766 911h-653v189l348 319q59 53 59 115q0 37 -25 59.5t-67 22.5q-46 0 -76 -34.5t-35 -90.5l-225 29q15 141 112.5 222t233.5 81q87 0 159 -28t120.5 -92t48.5 -155q0 -46 -12 -85.5t-37.5 -74.5t-47 -57.5t-59.5 -56.5l-178 -158h334v-205z" />
    <glyph glyph-name="three.sups" unicode="&#xb3;" horiz-adv-x="860" 
d="M440 893q-130 0 -227 61.5t-133 188.5l215 57q15 -48 48 -78t83 -30q47 0 81 23t34 71q0 96 -160 96h-68v172h74q133 0 133 96q0 35 -26 56.5t-68 21.5q-37 0 -66 -27t-38 -71l-216 51q32 115 126 178.5t210 63.5q62 0 117.5 -15t100 -44t70.5 -78t26 -111
q0 -66 -31 -117t-84 -78v-4q65 -23 100 -76.5t35 -125.5q0 -71 -29.5 -126.5t-78.5 -88.5t-107 -49.5t-121 -16.5z" />
    <glyph glyph-name="acute" unicode="&#xb4;" horiz-adv-x="614" 
d="M395 1171h-254l213 295h340z" />
    <glyph glyph-name="uni00B5" unicode="&#xb5;" horiz-adv-x="1386" 
d="M1315 248l6 -246q-84 -25 -176 -25q-197 0 -240 160q-32 -66 -98.5 -116t-153.5 -50q-53 0 -94.5 16.5t-62.5 43.5h-4v-506h-345v1501h345v-553q0 -38 4 -69t14.5 -60t27.5 -48.5t45 -31.5t66 -12q87 0 134.5 66.5t47.5 164.5v543h345v-696q0 -50 18 -70t61 -20
q24 0 60 8z" />
    <glyph glyph-name="paragraph" unicode="&#xb6;" horiz-adv-x="1265" 
d="M725 -264h-238v950q-200 4 -319 106.5t-119 268.5q0 389 500 389h588v-1714h-238v1509h-174v-1509z" />
    <glyph glyph-name="periodcentered" unicode="&#xb7;" horiz-adv-x="614" 
d="M309 395q-86 0 -147.5 57.5t-61.5 141.5q0 83 61.5 143t147.5 60q84 0 144.5 -58.5t60.5 -142.5t-60.5 -142.5t-144.5 -58.5z" />
    <glyph glyph-name="cedilla" unicode="&#xb8;" horiz-adv-x="614" 
d="M279 -492q-138 0 -244 52l55 123q80 -39 172 -39q41 0 72 15t31 52q0 33 -29 46.5t-68 13.5q-41 0 -82 -13l-63 60l137 182h168l-96 -123q14 2 37 2q41 0 75 -7.5t66.5 -25t51 -52.5t18.5 -85q0 -56 -28 -97.5t-75 -63t-96 -31t-102 -9.5z" />
    <glyph glyph-name="one.sups" unicode="&#xb9;" horiz-adv-x="860" 
d="M610 911h-239v627l-152 -119l-123 166l297 219h217v-893z" />
    <glyph glyph-name="ordmasculine" unicode="&#xba;" horiz-adv-x="786" 
d="M393 868q-135 0 -226 86.5t-91 223.5q0 135 91 220t226 85q136 0 228 -84.5t92 -220.5q0 -137 -92 -223.5t-228 -86.5zM393 1047q58 0 91.5 38t33.5 93q0 53 -34.5 91t-90.5 38t-88.5 -37.5t-32.5 -91.5q0 -55 32.5 -93t88.5 -38z" />
    <glyph glyph-name="guillemotright" unicode="&#xbb;" horiz-adv-x="1112" 
d="M600 518l-330 -473l-198 129l235 344l-237 348l200 129zM1063 518l-330 -473l-198 129l235 344l-238 348l201 129z" />
    <glyph glyph-name="onequarter" unicode="&#xbc;" horiz-adv-x="1925" 
d="M463 16l794 1497l179 -83l-795 -1493zM608 557h-239v627l-152 -119l-123 166l297 219h217v-893zM1688 0h-218v170h-409v190l358 533h269v-531h118v-192h-118v-170zM1468 637l-180 -275h182v275h-2z" />
    <glyph glyph-name="onehalf" unicode="&#xbd;" horiz-adv-x="1925" 
d="M1257 1513l179 -83l-795 -1493l-178 79zM608 557h-239v627l-152 -119l-123 166l297 219h217v-893zM1831 0h-653v188l348 320q59 53 59 115q0 37 -25 59.5t-67 22.5q-46 0 -76 -34.5t-35 -90.5l-225 28q15 141 112.5 222t233.5 81q64 0 121.5 -16.5t104.5 -49t74.5 -86
t27.5 -122.5q0 -46 -12 -85.5t-37.5 -74.5t-47.5 -58.5t-59 -56.5l-178 -157h334v-205z" />
    <glyph glyph-name="threequarters" unicode="&#xbe;" horiz-adv-x="1925" 
d="M641 -61l-178 79l794 1498l179 -84zM440 539q-130 0 -227 61t-133 188l215 58q15 -48 48 -78.5t83 -30.5q47 0 81 23t34 71q0 97 -160 97h-68v172h74q133 0 133 96q0 35 -26 56.5t-68 21.5q-37 0 -66 -27t-38 -71l-216 51q32 115 126 178t210 63q132 0 223 -63t91 -184
q0 -66 -30 -116t-83 -79v-4q64 -23 98.5 -77t34.5 -126q0 -71 -29.5 -126.5t-78.5 -88t-107 -49t-121 -16.5zM1688 0h-218v170h-409v190l358 533h269v-531h118v-192h-118v-170zM1468 637l-180 -275h182v275h-2z" />
    <glyph glyph-name="questiondown" unicode="&#xbf;" horiz-adv-x="1118" 
d="M539 674q-82 0 -141.5 56.5t-59.5 135.5q0 82 59 138.5t142 56.5q82 0 141 -56t59 -137q0 -80 -58.5 -137t-141.5 -57zM522 -446q-94 0 -178 24.5t-153.5 72.5t-110.5 128t-41 182q0 66 15 118t49 97.5t70 79t97 80.5q67 52 89 89t22 99v54h319v-76q0 -100 -37 -164.5
t-124 -144.5l-70 -62q-42 -38 -63 -70.5t-21 -74.5q0 -66 41.5 -106t110.5 -40q79 0 125.5 56.5t48.5 136.5l327 -37q-24 -214 -167 -328t-349 -114z" />
    <glyph glyph-name="Agrave" unicode="&#xc0;" horiz-adv-x="1492" 
d="M686 1860l213 -295h-254l-299 295h340zM580 1450h340l602 -1450h-389l-113 285h-561l-107 -285h-381zM743 1063l-184 -498h365z" />
    <glyph glyph-name="Aacute" unicode="&#xc1;" horiz-adv-x="1492" 
d="M815 1860h340l-299 -295h-254zM580 1450h340l602 -1450h-389l-113 285h-561l-107 -285h-381zM743 1063l-184 -498h365z" />
    <glyph glyph-name="Acircumflex" unicode="&#xc2;" horiz-adv-x="1492" 
d="M889 1565l-139 166l-140 -166h-262l254 295h303l250 -295h-266zM580 1450h340l602 -1450h-389l-113 285h-561l-107 -285h-381zM743 1063l-184 -498h365z" />
    <glyph glyph-name="Atilde" unicode="&#xc3;" horiz-adv-x="1492" 
d="M602 1657q-63 0 -86 -82h-147q7 56 23 101.5t42.5 83.5t69 59.5t96.5 21.5q76 0 166 -41q87 -41 133 -41q65 0 86 84h145q-13 -119 -69.5 -194.5t-161.5 -75.5q-89 0 -168 43q-73 41 -129 41zM580 1450h340l602 -1450h-389l-113 285h-561l-107 -285h-381zM743 1063
l-184 -498h365z" />
    <glyph glyph-name="Adieresis" unicode="&#xc4;" horiz-adv-x="1492" 
d="M526 1573q-72 0 -121 49.5t-49 118.5q0 67 49.5 116.5t120.5 49.5t120.5 -48.5t49.5 -117.5q0 -70 -49.5 -119t-120.5 -49zM971 1573q-70 0 -120 49.5t-50 118.5q0 67 50 116.5t120 49.5q71 0 121.5 -48.5t50.5 -117.5q0 -70 -50.5 -119t-121.5 -49zM580 1450h340
l602 -1450h-389l-113 285h-561l-107 -285h-381zM743 1063l-184 -498h365z" />
    <glyph glyph-name="Aring" unicode="&#xc5;" horiz-adv-x="1492" 
d="M752 1534q-93 0 -158.5 62t-65.5 155q0 95 65 158t159 63q93 0 158 -63t65 -156q0 -94 -65 -156.5t-158 -62.5zM752 1872q-52 0 -86.5 -35t-34.5 -86q0 -49 35 -83t86 -34t85.5 34t34.5 85t-34.5 85t-85.5 34zM580 1450h340l602 -1450h-389l-113 285h-561l-107 -285h-381
zM743 1063l-184 -498h365z" />
    <glyph glyph-name="AE" unicode="&#xc6;" horiz-adv-x="2115" 
d="M399 0h-407l848 1450h1157v-297h-611v-272h576v-281h-576v-301h648v-299h-981v313h-473zM1032 1153l-313 -557h334v557h-21z" />
    <glyph glyph-name="Ccedilla" unicode="&#xc7;" horiz-adv-x="1425" 
d="M786 -492q-137 0 -243 52l55 123q80 -39 172 -39q41 0 71.5 15t30.5 52q0 60 -96 60q-41 0 -82 -13l-63 60l112 151q-144 18 -266 81t-209 160.5t-136.5 230.5t-49.5 286q0 227 104.5 402t282.5 267.5t399 92.5q158 0 306.5 -56t236.5 -157l-237 -238q-48 65 -127 99
t-166 34q-182 0 -300 -125.5t-118 -318.5q0 -198 114.5 -321t296.5 -123q100 0 180.5 40t127.5 107l243 -229q-91 -107 -223.5 -169t-296.5 -69l-65 -86q14 2 37 2q41 0 75 -7.5t66 -25t50.5 -52.5t18.5 -85q0 -56 -28 -97.5t-75 -63t-96 -31t-102 -9.5z" />
    <glyph glyph-name="Egrave" unicode="&#xc8;" horiz-adv-x="1243" 
d="M831 1565h-253l-299 295h339zM1161 0h-1011v1450h974v-297h-637v-272h603v-281h-603v-301h674v-299z" />
    <glyph glyph-name="Eacute" unicode="&#xc9;" horiz-adv-x="1243" 
d="M731 1565h-254l213 295h340zM1161 0h-1011v1450h974v-297h-637v-272h603v-281h-603v-301h674v-299z" />
    <glyph glyph-name="Ecircumflex" unicode="&#xca;" horiz-adv-x="1243" 
d="M504 1565h-262l254 295h303l250 -295h-267l-139 166zM1161 0h-1011v1450h974v-297h-637v-272h603v-281h-603v-301h674v-299z" />
    <glyph glyph-name="Edieresis" unicode="&#xcb;" horiz-adv-x="1243" 
d="M422 1573q-72 0 -121 49.5t-49 118.5q0 67 49.5 116.5t120.5 49.5t120.5 -48.5t49.5 -117.5q0 -70 -49.5 -119t-120.5 -49zM866 1573q-70 0 -120 49.5t-50 118.5q0 67 50 116.5t120 49.5q71 0 121.5 -48.5t50.5 -117.5q0 -70 -50.5 -119t-121.5 -49zM1161 0h-1011v1450
h974v-297h-637v-272h603v-281h-603v-301h674v-299z" />
    <glyph glyph-name="Igrave" unicode="&#xcc;" horiz-adv-x="651" 
d="M502 1565h-254l-299 295h340zM502 0h-352v1450h352v-1450z" />
    <glyph glyph-name="Iacute" unicode="&#xcd;" horiz-adv-x="651" 
d="M403 1565h-253l212 295h340zM502 0h-352v1450h352v-1450z" />
    <glyph glyph-name="Icircumflex" unicode="&#xce;" horiz-adv-x="651" 
d="M182 1565h-262l254 295h303l250 -295h-266l-139 166zM502 0h-352v1450h352v-1450z" />
    <glyph glyph-name="Idieresis" unicode="&#xcf;" horiz-adv-x="651" 
d="M102 1573q-72 0 -121 49.5t-49 118.5q0 67 49.5 116.5t120.5 49.5t120.5 -48.5t49.5 -117.5q0 -70 -49.5 -119t-120.5 -49zM547 1573q-70 0 -120 49.5t-50 118.5q0 67 50 116.5t120 49.5q71 0 121.5 -48.5t50.5 -117.5q0 -70 -50.5 -119t-121.5 -49zM502 0h-352v1450h352
v-1450z" />
    <glyph glyph-name="Eth" unicode="&#xd0;" horiz-adv-x="1585" 
d="M709 0h-557v633h-125v219h125v598h559q127 0 240.5 -25t214.5 -80.5t174.5 -138t116 -205t42.5 -272.5q0 -146 -45.5 -268t-122.5 -206t-179.5 -142.5t-214 -85.5t-228.5 -27zM494 633v-326h151q110 0 198.5 24t156 73.5t104.5 132t37 192.5q0 208 -125 312t-338 104
h-184v-293h370v-219h-370z" />
    <glyph glyph-name="Ntilde" unicode="&#xd1;" horiz-adv-x="1617" 
d="M584 1575h-148q7 56 23 101.5t43 83.5t69.5 59.5t96.5 21.5q76 0 166 -41q87 -41 133 -41q65 0 86 84h145q-13 -119 -69.5 -194.5t-161.5 -75.5q-89 0 -168 43q-73 41 -129 41q-63 0 -86 -82zM489 0h-339v1450h399l581 -946h7l-9 946h340v-1450h-397l-584 948h-6z" />
    <glyph glyph-name="Ograve" unicode="&#xd2;" horiz-adv-x="1742" 
d="M1079 1565h-254l-299 295h340zM870 -39q-135 0 -256 35.5t-217.5 103.5t-167.5 161.5t-109 213.5t-38 256q0 228 102.5 401.5t281 265t404.5 91.5q227 0 406 -91.5t282 -265t103 -401.5q0 -226 -102.5 -402t-282.5 -272t-406 -96zM870 281q183 0 299.5 126.5t116.5 323.5
q0 192 -116.5 317.5t-299.5 125.5t-298 -125.5t-115 -317.5q0 -197 115.5 -323.5t297.5 -126.5z" />
    <glyph glyph-name="Oacute" unicode="&#xd3;" horiz-adv-x="1742" 
d="M940 1565h-254l213 295h340zM870 -39q-135 0 -256 35.5t-217.5 103.5t-167.5 161.5t-109 213.5t-38 256q0 228 102.5 401.5t281 265t404.5 91.5q227 0 406 -91.5t282 -265t103 -401.5q0 -226 -102.5 -402t-282.5 -272t-406 -96zM870 281q183 0 299.5 126.5t116.5 323.5
q0 192 -116.5 317.5t-299.5 125.5t-298 -125.5t-115 -317.5q0 -197 115.5 -323.5t297.5 -126.5z" />
    <glyph glyph-name="Ocircumflex" unicode="&#xd4;" horiz-adv-x="1742" 
d="M731 1565h-262l254 295h303l250 -295h-266l-140 166zM870 -39q-135 0 -256 35.5t-217.5 103.5t-167.5 161.5t-109 213.5t-38 256q0 228 102.5 401.5t281 265t404.5 91.5q227 0 406 -91.5t282 -265t103 -401.5q0 -226 -102.5 -402t-282.5 -272t-406 -96zM870 281
q183 0 299.5 126.5t116.5 323.5q0 192 -116.5 317.5t-299.5 125.5t-298 -125.5t-115 -317.5q0 -197 115.5 -323.5t297.5 -126.5z" />
    <glyph glyph-name="Otilde" unicode="&#xd5;" horiz-adv-x="1742" 
d="M641 1575h-147q7 56 23 101.5t42.5 83.5t69 59.5t96.5 21.5q76 0 166 -41q87 -41 133 -41q65 0 86 84h145q-13 -119 -69.5 -194.5t-161.5 -75.5q-89 0 -168 43q-73 41 -129 41q-63 0 -86 -82zM870 -39q-135 0 -256 35.5t-217.5 103.5t-167.5 161.5t-109 213.5t-38 256
q0 228 102.5 401.5t281 265t404.5 91.5q227 0 406 -91.5t282 -265t103 -401.5q0 -226 -102.5 -402t-282.5 -272t-406 -96zM870 281q183 0 299.5 126.5t116.5 323.5q0 192 -116.5 317.5t-299.5 125.5t-298 -125.5t-115 -317.5q0 -197 115.5 -323.5t297.5 -126.5z" />
    <glyph glyph-name="Odieresis" unicode="&#xd6;" horiz-adv-x="1742" 
d="M649 1573q-71 0 -120.5 49.5t-49.5 118.5q0 67 49.5 116.5t120.5 49.5t120.5 -48.5t49.5 -117.5q0 -70 -49.5 -119t-120.5 -49zM1094 1573q-70 0 -120 49.5t-50 118.5q0 67 50 116.5t120 49.5q71 0 121.5 -48.5t50.5 -117.5q0 -70 -50.5 -119t-121.5 -49zM870 -39
q-135 0 -256 35.5t-217.5 103.5t-167.5 161.5t-109 213.5t-38 256q0 228 102.5 401.5t281 265t404.5 91.5q227 0 406 -91.5t282 -265t103 -401.5q0 -226 -102.5 -402t-282.5 -272t-406 -96zM870 281q183 0 299.5 126.5t116.5 323.5q0 192 -116.5 317.5t-299.5 125.5
t-298 -125.5t-115 -317.5q0 -197 115.5 -323.5t297.5 -126.5z" />
    <glyph glyph-name="multiply" unicode="&#xd7;" horiz-adv-x="1363" 
d="M682 430l-360 -354l-191 182l363 358l-365 357l193 186l362 -354l356 352l187 -178l-357 -354l367 -359l-193 -190z" />
    <glyph glyph-name="Oslash" unicode="&#xd8;" horiz-adv-x="1742" 
d="M399 104l-182 -194l-137 117l182 198q-88 94 -134 223.5t-46 280.5q0 228 102.5 401.5t281 265t404.5 91.5q258 0 449 -119l178 199l137 -121l-176 -191q203 -206 203 -526q0 -168 -60 -311.5t-165.5 -242.5t-252 -155t-315.5 -57q-284 0 -469 141zM502 481l594 645
q-89 60 -226 60q-197 0 -314.5 -131.5t-117.5 -327.5q0 -148 64 -246zM868 268q194 0 313 131t119 330q0 164 -77 266l-598 -651q95 -76 243 -76z" />
    <glyph glyph-name="Ugrave" unicode="&#xd9;" horiz-adv-x="1511" 
d="M963 1565h-254l-299 295h340zM754 -39q-283 0 -451 161.5t-168 424.5v903h348v-875q0 -61 15.5 -113t47 -94.5t85.5 -67t125 -24.5q72 0 126 24.5t85 67t46 94.5t15 113v875h350v-903q0 -262 -170.5 -424t-453.5 -162z" />
    <glyph glyph-name="Uacute" unicode="&#xda;" horiz-adv-x="1511" 
d="M813 1565h-254l213 295h340zM754 -39q-283 0 -451 161.5t-168 424.5v903h348v-875q0 -61 15.5 -113t47 -94.5t85.5 -67t125 -24.5q72 0 126 24.5t85 67t46 94.5t15 113v875h350v-903q0 -262 -170.5 -424t-453.5 -162z" />
    <glyph glyph-name="Ucircumflex" unicode="&#xdb;" horiz-adv-x="1511" 
d="M616 1565h-262l254 295h303l250 -295h-266l-139 166zM754 -39q-283 0 -451 161.5t-168 424.5v903h348v-875q0 -61 15.5 -113t47 -94.5t85.5 -67t125 -24.5q72 0 126 24.5t85 67t46 94.5t15 113v875h350v-903q0 -262 -170.5 -424t-453.5 -162z" />
    <glyph glyph-name="Udieresis" unicode="&#xdc;" horiz-adv-x="1511" 
d="M535 1573q-71 0 -120.5 49.5t-49.5 118.5q0 67 49.5 116.5t120.5 49.5t120.5 -48.5t49.5 -117.5q0 -70 -49.5 -119t-120.5 -49zM979 1573q-70 0 -120 49.5t-50 118.5q0 67 50 116.5t120 49.5q71 0 121.5 -48.5t50.5 -117.5q0 -70 -50.5 -119t-121.5 -49zM754 -39
q-283 0 -451 161.5t-168 424.5v903h348v-875q0 -61 15.5 -113t47 -94.5t85.5 -67t125 -24.5q72 0 126 24.5t85 67t46 94.5t15 113v875h350v-903q0 -262 -170.5 -424t-453.5 -162z" />
    <glyph glyph-name="Yacute" unicode="&#xdd;" horiz-adv-x="1370" 
d="M772 1860h340l-299 -295h-254zM692 911l309 539h410l-557 -836v-614h-350v614l-545 836h424z" />
    <glyph glyph-name="Thorn" unicode="&#xde;" horiz-adv-x="1310" 
d="M500 0h-350v1450h350v-248h182q98 0 181 -14.5t155.5 -47.5t122.5 -83.5t79 -127t29 -173.5q0 -122 -46.5 -212.5t-128.5 -142.5t-181.5 -77t-218.5 -25h-174v-299zM500 922v-344h147q71 0 124.5 14.5t90.5 55.5t37 106q0 51 -20 85.5t-57 51.5t-77 24t-92 7h-153z" />
    <glyph glyph-name="germandbls" unicode="&#xdf;" horiz-adv-x="1366" 
d="M764 -27q-91 0 -197 25v289q76 -27 150 -27q106 0 168.5 50.5t62.5 160.5q0 117 -77 175.5t-199 58.5h-43v264h45q19 0 39 3t45.5 13.5t45 27.5t33 48.5t13.5 73.5q0 70 -45.5 117.5t-126.5 47.5q-47 0 -84.5 -16.5t-61 -43t-38.5 -63t-21 -74t-6 -79.5v-1024h-336v1026
q0 119 34 217t101 172.5t175.5 116t250.5 41.5q210 0 353 -112.5t143 -297.5q0 -111 -60.5 -194.5t-152.5 -112.5v-2q143 -28 228 -134.5t85 -264.5q0 -224 -143 -353t-381 -129z" />
    <glyph glyph-name="agrave" unicode="&#xe0;" horiz-adv-x="1159" 
d="M782 1171h-254l-299 295h340zM438 -25q-65 0 -127 17t-118 52.5t-90.5 100t-34.5 150.5q0 344 649 344h6v16q0 72 -51 110t-133 38q-69 0 -136 -29.5t-116 -75.5l-170 183q88 83 207.5 127.5t246.5 44.5q253 0 361 -128t108 -411v-352v-162h-307v109h-6
q-38 -62 -117.5 -98t-171.5 -36zM522 201q100 0 155.5 56.5t55.5 152.5v34h-43q-63 0 -112 -5t-98 -18.5t-76 -43t-27 -72.5q0 -54 43 -79t102 -25z" />
    <glyph glyph-name="aacute" unicode="&#xe1;" horiz-adv-x="1159" 
d="M639 1171h-254l213 295h340zM438 -25q-65 0 -127 17t-118 52.5t-90.5 100t-34.5 150.5q0 344 649 344h6v16q0 72 -51 110t-133 38q-69 0 -136 -29.5t-116 -75.5l-170 183q88 83 207.5 127.5t246.5 44.5q253 0 361 -128t108 -411v-352v-162h-307v109h-6
q-38 -62 -117.5 -98t-171.5 -36zM522 201q100 0 155.5 56.5t55.5 152.5v34h-43q-63 0 -112 -5t-98 -18.5t-76 -43t-27 -72.5q0 -54 43 -79t102 -25z" />
    <glyph glyph-name="acircumflex" unicode="&#xe2;" horiz-adv-x="1159" 
d="M442 1171h-262l254 295h303l250 -295h-266l-139 166zM438 -25q-65 0 -127 17t-118 52.5t-90.5 100t-34.5 150.5q0 344 649 344h6v16q0 72 -51 110t-133 38q-69 0 -136 -29.5t-116 -75.5l-170 183q88 83 207.5 127.5t246.5 44.5q253 0 361 -128t108 -411v-352v-162h-307
v109h-6q-38 -62 -117.5 -98t-171.5 -36zM522 201q100 0 155.5 56.5t55.5 152.5v34h-43q-63 0 -112 -5t-98 -18.5t-76 -43t-27 -72.5q0 -54 43 -79t102 -25z" />
    <glyph glyph-name="atilde" unicode="&#xe3;" horiz-adv-x="1159" 
d="M356 1182h-147q7 56 23 101.5t42.5 83.5t69 59.5t96.5 21.5q76 0 166 -41q87 -41 133 -41q65 0 86 84h146q-13 -119 -70 -194.5t-162 -75.5q-73 0 -168 43q-78 41 -129 41q-63 0 -86 -82zM438 -25q-65 0 -127 17t-118 52.5t-90.5 100t-34.5 150.5q0 344 649 344h6v16
q0 72 -51 110t-133 38q-69 0 -136 -29.5t-116 -75.5l-170 183q88 83 207.5 127.5t246.5 44.5q253 0 361 -128t108 -411v-352v-162h-307v109h-6q-38 -62 -117.5 -98t-171.5 -36zM522 201q100 0 155.5 56.5t55.5 152.5v34h-43q-63 0 -112 -5t-98 -18.5t-76 -43t-27 -72.5
q0 -54 43 -79t102 -25z" />
    <glyph glyph-name="adieresis" unicode="&#xe4;" horiz-adv-x="1159" 
d="M360 1180q-70 0 -120 49.5t-50 118.5q0 67 50 116t120 49q71 0 121.5 -48t50.5 -117q0 -70 -50.5 -119t-121.5 -49zM807 1180q-71 0 -120.5 49t-49.5 119q0 67 49.5 116t120.5 49q69 0 119.5 -48t50.5 -117q0 -70 -50 -119t-120 -49zM438 -25q-65 0 -127 17t-118 52.5
t-90.5 100t-34.5 150.5q0 344 649 344h6v16q0 72 -51 110t-133 38q-69 0 -136 -29.5t-116 -75.5l-170 183q88 83 207.5 127.5t246.5 44.5q253 0 361 -128t108 -411v-352v-162h-307v109h-6q-38 -62 -117.5 -98t-171.5 -36zM522 201q100 0 155.5 56.5t55.5 152.5v34h-43
q-63 0 -112 -5t-98 -18.5t-76 -43t-27 -72.5q0 -54 43 -79t102 -25z" />
    <glyph glyph-name="aring" unicode="&#xe5;" horiz-adv-x="1159" 
d="M588 1141q-93 0 -158 62t-65 155q0 95 64.5 158t158.5 63q93 0 158 -63t65 -156q0 -94 -65 -156.5t-158 -62.5zM588 1241q51 0 86 34t35 85t-35 85t-86 34q-52 0 -86.5 -35t-34.5 -86q0 -49 35 -83t86 -34zM438 -25q-65 0 -127 17t-118 52.5t-90.5 100t-34.5 150.5
q0 344 649 344h6v16q0 72 -51 110t-133 38q-69 0 -136 -29.5t-116 -75.5l-170 183q88 83 207.5 127.5t246.5 44.5q253 0 361 -128t108 -411v-352v-162h-307v109h-6q-38 -62 -117.5 -98t-171.5 -36zM522 201q100 0 155.5 56.5t55.5 152.5v34h-43q-63 0 -112 -5t-98 -18.5
t-76 -43t-27 -72.5q0 -54 43 -79t102 -25z" />
    <glyph glyph-name="ae" unicode="&#xe6;" horiz-adv-x="1841" 
d="M461 -25q-55 0 -108.5 10.5t-105.5 35t-91.5 60.5t-63.5 91.5t-24 122.5q0 69 24.5 122.5t71 89t104.5 59.5t135 36.5t150.5 17.5t163.5 5h6v14q0 164 -182 164q-68 0 -137 -30t-117 -75l-168 183q86 83 205.5 127.5t246.5 44.5q118 0 202 -42.5t128 -107.5
q59 68 148.5 109t201.5 41q228 0 370 -149t142 -406q0 -30 -4 -80h-737q9 -85 79 -139t163 -54q150 0 225 107l231 -148q-71 -105 -189 -161t-274 -56q-120 0 -221.5 49t-161.5 136q-109 -177 -413 -177zM1020 627h432q0 84 -52.5 139t-148.5 55q-95 0 -160 -57t-71 -137z
M522 201q100 0 155.5 50.5t55.5 139.5v33h-43q-78 0 -131.5 -5t-96.5 -17.5t-64 -36.5t-21 -60q0 -54 43 -79t102 -25z" />
    <glyph glyph-name="ccedilla" unicode="&#xe7;" horiz-adv-x="1030" 
d="M580 -492q-138 0 -244 52l55 123q80 -39 172 -39q41 0 72 15t31 52q0 33 -29 46.5t-68 13.5q-41 0 -82 -13l-63 60l119 157q-207 32 -335 174t-128 361q0 162 76.5 287t205 190.5t287.5 65.5q109 0 214 -38.5t165 -99.5l-194 -225q-28 37 -78 59.5t-101 22.5
q-103 0 -169 -76.5t-66 -185.5t66 -184.5t173 -75.5q53 0 103 20t80 56l186 -228q-55 -54 -140.5 -87.5t-182.5 -41.5l-72 -92q14 2 37 2q41 0 75 -7.5t66.5 -25t51 -52.5t18.5 -85q0 -56 -28 -97.5t-75 -63t-96 -31t-102 -9.5z" />
    <glyph glyph-name="egrave" unicode="&#xe8;" horiz-adv-x="1220" 
d="M823 1171h-254l-299 295h340zM641 -33q-156 0 -281.5 62t-202.5 186t-77 291q0 163 73.5 289t198 192t279.5 66q229 0 370.5 -149t141.5 -406q0 -55 -2 -80h-740q7 -83 79 -138t165 -55q146 0 225 107l234 -148q-73 -105 -191 -161t-272 -56zM401 627h433q0 84 -52.5 139
t-148.5 55q-95 0 -160.5 -57t-71.5 -137z" />
    <glyph glyph-name="eacute" unicode="&#xe9;" horiz-adv-x="1220" 
d="M678 1171h-254l213 295h340zM641 -33q-156 0 -281.5 62t-202.5 186t-77 291q0 163 73.5 289t198 192t279.5 66q229 0 370.5 -149t141.5 -406q0 -55 -2 -80h-740q7 -83 79 -138t165 -55q146 0 225 107l234 -148q-73 -105 -191 -161t-272 -56zM401 627h433q0 84 -52.5 139
t-148.5 55q-95 0 -160.5 -57t-71.5 -137z" />
    <glyph glyph-name="ecircumflex" unicode="&#xea;" horiz-adv-x="1220" 
d="M502 1171h-262l254 295h303l250 -295h-267l-139 166zM641 -33q-156 0 -281.5 62t-202.5 186t-77 291q0 163 73.5 289t198 192t279.5 66q229 0 370.5 -149t141.5 -406q0 -55 -2 -80h-740q7 -83 79 -138t165 -55q146 0 225 107l234 -148q-73 -105 -191 -161t-272 -56z
M401 627h433q0 84 -52.5 139t-148.5 55q-95 0 -160.5 -57t-71.5 -137z" />
    <glyph glyph-name="edieresis" unicode="&#xeb;" horiz-adv-x="1220" 
d="M418 1180q-70 0 -120 49.5t-50 118.5q0 67 50 116t120 49q71 0 121.5 -48t50.5 -117q0 -70 -50.5 -119t-121.5 -49zM864 1180q-72 0 -121 49t-49 119q0 67 49.5 116t120.5 49q69 0 119.5 -48t50.5 -117q0 -70 -50 -119t-120 -49zM641 -33q-156 0 -281.5 62t-202.5 186
t-77 291q0 163 73.5 289t198 192t279.5 66q229 0 370.5 -149t141.5 -406q0 -55 -2 -80h-740q7 -83 79 -138t165 -55q146 0 225 107l234 -148q-73 -105 -191 -161t-272 -56zM401 627h433q0 84 -52.5 139t-148.5 55q-95 0 -160.5 -57t-71.5 -137z" />
    <glyph glyph-name="igrave" unicode="&#xec;" horiz-adv-x="606" 
d="M467 1171h-254l-299 295h340zM471 0h-336v1026h336v-1026z" />
    <glyph glyph-name="iacute" unicode="&#xed;" horiz-adv-x="606" 
d="M391 1171h-254l213 295h340zM471 0h-336v1026h336v-1026z" />
    <glyph glyph-name="icircumflex" unicode="&#xee;" horiz-adv-x="606" 
d="M168 1171h-262l254 295h303l250 -295h-267l-139 166zM471 0h-336v1026h336v-1026z" />
    <glyph glyph-name="idieresis" unicode="&#xef;" horiz-adv-x="606" 
d="M84 1180q-70 0 -120 49.5t-50 118.5q0 67 50 116t120 49q71 0 121.5 -48t50.5 -117q0 -70 -50.5 -119t-121.5 -49zM530 1180q-72 0 -121 49t-49 119q0 67 49.5 116t120.5 49q69 0 119.5 -48t50.5 -117q0 -70 -50 -119t-120 -49zM471 0h-336v1026h336v-1026z" />
    <glyph glyph-name="eth" unicode="&#xf0;" horiz-adv-x="1294" 
d="M645 -33q-116 0 -219.5 38.5t-180 108t-121 173t-44.5 225.5q0 159 73 281.5t195.5 186.5t272.5 64q99 0 167 -51l5 2q-105 154 -201 234l-221 -99l-164 144l223 96q-49 50 -154 121l261 145q70 -53 176 -147l231 102l178 -145l-248 -107q340 -368 340 -761
q0 -281 -155.5 -446t-413.5 -165zM647 250q113 0 178.5 77.5t65.5 184.5q0 104 -66 182t-180 78q-112 0 -177 -78t-65 -182q0 -107 65.5 -184.5t178.5 -77.5z" />
    <glyph glyph-name="ntilde" unicode="&#xf1;" horiz-adv-x="1261" 
d="M406 1182h-148q7 56 23 101.5t42.5 83.5t69 59.5t96.5 21.5q76 0 166 -41q87 -41 133 -41q65 0 86 84h146q-13 -119 -70 -194.5t-162 -75.5q-72 0 -167 43q-78 41 -129 41q-63 0 -86 -82zM469 0h-338v791v235h326v-141h4q37 71 120.5 120.5t184.5 49.5q99 0 173.5 -36
t116.5 -97t62.5 -132.5t20.5 -152.5v-637h-338v563q0 215 -152 215q-85 0 -132.5 -63t-47.5 -156v-559z" />
    <glyph glyph-name="ograve" unicode="&#xf2;" horiz-adv-x="1294" 
d="M813 1171h-254l-299 295h340zM645 -33q-154 0 -282 66t-205.5 192.5t-77.5 288.5q0 122 45 224.5t122.5 170.5t180 106t217.5 38q116 0 219 -38t180.5 -106t122.5 -170.5t45 -224.5q0 -162 -77.5 -288.5t-206 -192.5t-283.5 -66zM647 250q112 0 177 79t65 185
q0 105 -65.5 182.5t-178.5 77.5q-112 0 -175.5 -77t-63.5 -183t64.5 -185t176.5 -79z" />
    <glyph glyph-name="oacute" unicode="&#xf3;" horiz-adv-x="1294" 
d="M725 1171h-254l213 295h340zM645 -33q-154 0 -282 66t-205.5 192.5t-77.5 288.5q0 122 45 224.5t122.5 170.5t180 106t217.5 38q116 0 219 -38t180.5 -106t122.5 -170.5t45 -224.5q0 -162 -77.5 -288.5t-206 -192.5t-283.5 -66zM647 250q112 0 177 79t65 185
q0 105 -65.5 182.5t-178.5 77.5q-112 0 -175.5 -77t-63.5 -183t64.5 -185t176.5 -79z" />
    <glyph glyph-name="ocircumflex" unicode="&#xf4;" horiz-adv-x="1294" 
d="M516 1180h-262l254 295h303l250 -295h-266l-140 166zM645 -33q-154 0 -282 66t-205.5 192.5t-77.5 288.5q0 122 45 224.5t122.5 170.5t180 106t217.5 38q116 0 219 -38t180.5 -106t122.5 -170.5t45 -224.5q0 -162 -77.5 -288.5t-206 -192.5t-283.5 -66zM647 250
q112 0 177 79t65 185q0 105 -65.5 182.5t-178.5 77.5q-112 0 -175.5 -77t-63.5 -183t64.5 -185t176.5 -79z" />
    <glyph glyph-name="otilde" unicode="&#xf5;" horiz-adv-x="1294" 
d="M414 1182h-148q7 56 23 101.5t43 83.5t69.5 59.5t96.5 21.5q76 0 166 -41q87 -41 133 -41q65 0 86 84h145q-13 -119 -69.5 -194.5t-161.5 -75.5q-73 0 -168 43q-78 41 -129 41q-63 0 -86 -82zM645 -33q-154 0 -282 66t-205.5 192.5t-77.5 288.5q0 122 45 224.5
t122.5 170.5t180 106t217.5 38q116 0 219 -38t180.5 -106t122.5 -170.5t45 -224.5q0 -162 -77.5 -288.5t-206 -192.5t-283.5 -66zM647 250q112 0 177 79t65 185q0 105 -65.5 182.5t-178.5 77.5q-112 0 -175.5 -77t-63.5 -183t64.5 -185t176.5 -79z" />
    <glyph glyph-name="odieresis" unicode="&#xf6;" horiz-adv-x="1294" 
d="M422 1180q-70 0 -120 49.5t-50 118.5q0 67 50 116t120 49q71 0 121.5 -48t50.5 -117q0 -70 -50.5 -119t-121.5 -49zM868 1180q-72 0 -121 49t-49 119q0 67 49.5 116t120.5 49q69 0 119.5 -48t50.5 -117q0 -70 -50 -119t-120 -49zM645 -33q-154 0 -282 66t-205.5 192.5
t-77.5 288.5q0 122 45 224.5t122.5 170.5t180 106t217.5 38q116 0 219 -38t180.5 -106t122.5 -170.5t45 -224.5q0 -162 -77.5 -288.5t-206 -192.5t-283.5 -66zM647 250q112 0 177 79t65 185q0 105 -65.5 182.5t-178.5 77.5q-112 0 -175.5 -77t-63.5 -183t64.5 -185
t176.5 -79z" />
    <glyph glyph-name="divide" unicode="&#xf7;" horiz-adv-x="1363" 
d="M682 827q-72 0 -125 51t-53 123q0 70 53 121.5t125 51.5t124 -51t52 -122q0 -72 -52 -123t-124 -51zM1200 492h-1038v260h1038v-260zM682 66q-72 0 -125 52t-53 122t53 121t125 51t124 -51t52 -121q0 -71 -52 -122.5t-124 -51.5z" />
    <glyph glyph-name="oslash" unicode="&#xf8;" horiz-adv-x="1294" 
d="M324 63l-154 -151l-121 119l148 145q-117 133 -117 336q0 160 76.5 285t204.5 191.5t284 66.5q193 0 328 -101l147 148l123 -119l-143 -141q112 -130 112 -330q0 -160 -76.5 -285.5t-205.5 -192.5t-285 -67q-190 0 -321 96zM422 403l340 345q-48 38 -121 38
q-114 0 -181 -79t-67 -187q0 -74 29 -117zM649 242q114 0 179 78.5t65 187.5q0 72 -27 119l-342 -344q44 -41 125 -41z" />
    <glyph glyph-name="ugrave" unicode="&#xf9;" horiz-adv-x="1257" 
d="M836 1171h-254l-299 295h340zM492 -29q-99 0 -173 36t-116 97t-62 132.5t-20 152.5v637h338v-559q0 -47 6.5 -83t22.5 -68t47 -49t75 -17q84 0 132.5 63.5t48.5 155.5v557h335v-829v-197h-323v141h-4q-37 -71 -120.5 -120.5t-186.5 -49.5z" />
    <glyph glyph-name="uacute" unicode="&#xfa;" horiz-adv-x="1257" 
d="M702 1171h-253l213 295h339zM492 -29q-99 0 -173 36t-116 97t-62 132.5t-20 152.5v637h338v-559q0 -47 6.5 -83t22.5 -68t47 -49t75 -17q84 0 132.5 63.5t48.5 155.5v557h335v-829v-197h-323v141h-4q-37 -71 -120.5 -120.5t-186.5 -49.5z" />
    <glyph glyph-name="ucircumflex" unicode="&#xfb;" horiz-adv-x="1257" 
d="M489 1171h-262l254 295h303l250 -295h-266l-139 166zM492 -29q-99 0 -173 36t-116 97t-62 132.5t-20 152.5v637h338v-559q0 -47 6.5 -83t22.5 -68t47 -49t75 -17q84 0 132.5 63.5t48.5 155.5v557h335v-829v-197h-323v141h-4q-37 -71 -120.5 -120.5t-186.5 -49.5z" />
    <glyph glyph-name="udieresis" unicode="&#xfc;" horiz-adv-x="1257" 
d="M406 1180q-70 0 -120 49.5t-50 118.5q0 67 50 116t120 49q71 0 121.5 -48t50.5 -117q0 -70 -50.5 -119t-121.5 -49zM852 1180q-72 0 -121 49t-49 119q0 67 49.5 116t120.5 49q69 0 119.5 -48t50.5 -117q0 -70 -50 -119t-120 -49zM492 -29q-99 0 -173 36t-116 97
t-62 132.5t-20 152.5v637h338v-559q0 -47 6.5 -83t22.5 -68t47 -49t75 -17q84 0 132.5 63.5t48.5 155.5v557h335v-829v-197h-323v141h-4q-37 -71 -120.5 -120.5t-186.5 -49.5z" />
    <glyph glyph-name="yacute" unicode="&#xfd;" horiz-adv-x="1161" 
d="M700 1171h-254l213 295h340zM258 -492q-90 0 -184 23l37 283q63 -19 108 -19q73 0 109 32t63 105l33 84l-426 1010h373l227 -661h6l203 661h356l-456 -1180q-33 -84 -69.5 -143t-89 -105t-124.5 -68t-166 -22z" />
    <glyph glyph-name="thorn" unicode="&#xfe;" horiz-adv-x="1349" 
d="M469 -492h-334v2040h334v-637h6q116 138 311 138q108 0 200 -43.5t153 -117t95 -170.5t34 -204q0 -145 -56 -267t-168.5 -199t-261.5 -77q-95 0 -180 39.5t-129 104.5h-4v-607zM702 250q77 0 133 39t82.5 97.5t26.5 127.5q0 106 -64 183t-178 77q-109 0 -177 -79.5
t-68 -182.5q0 -105 68 -183.5t177 -78.5z" />
    <glyph glyph-name="ydieresis" unicode="&#xff;" horiz-adv-x="1161" 
d="M377 1180q-70 0 -120 49.5t-50 118.5q0 67 50 116t120 49q71 0 121.5 -48t50.5 -117q0 -70 -50.5 -119t-121.5 -49zM823 1180q-71 0 -120.5 49t-49.5 119q0 67 49.5 116t120.5 49q69 0 119.5 -48t50.5 -117q0 -70 -50 -119t-120 -49zM258 -492q-90 0 -184 23l37 283
q63 -19 108 -19q73 0 109 32t63 105l33 84l-426 1010h373l227 -661h6l203 661h356l-456 -1180q-33 -84 -69.5 -143t-89 -105t-124.5 -68t-166 -22z" />
    <glyph glyph-name="dotlessi" unicode="&#x131;" horiz-adv-x="606" 
d="M471 0h-336v1026h336v-1026z" />
    <glyph glyph-name="Lslash" unicode="&#x141;" horiz-adv-x="1077" 
d="M1063 0h-913v362l-132 -114v291l132 114v797h352v-537l391 342v-288l-391 -342v-320h561v-305z" />
    <glyph glyph-name="lslash" unicode="&#x142;" horiz-adv-x="610" 
d="M475 0h-340v547l-119 -115v293l119 117v706h340v-444l119 117v-291l-119 -115v-815z" />
    <glyph glyph-name="OE" unicode="&#x152;" horiz-adv-x="2086" 
d="M2005 0h-1100q-127 0 -243.5 24.5t-223 80.5t-185 138.5t-125 206.5t-46.5 277q0 154 46.5 278t124.5 206t185.5 136.5t223.5 78.5t243 24h1065v-297h-610v-272h575v-281h-575v-301h645v-299zM924 299h102v854h-94q-78 0 -144.5 -12t-129 -43t-106.5 -78.5t-70.5 -124
t-26.5 -174.5q0 -90 26.5 -162.5t70.5 -120t105 -79.5t127.5 -46t139.5 -14z" />
    <glyph glyph-name="oe" unicode="&#x153;" horiz-adv-x="1992" 
d="M641 -33q-116 0 -218 38.5t-178.5 108.5t-120.5 173.5t-44 226.5q0 162 76 286t203 188.5t282 64.5q121 0 222.5 -49t160.5 -130q68 80 166.5 129.5t216.5 49.5q227 0 367.5 -149t140.5 -406q0 -55 -2 -80h-739q10 -85 80.5 -139t162.5 -54q146 0 225 107l232 -148
q-71 -105 -189 -161t-272 -56q-126 0 -229 46.5t-162 123.5q-62 -79 -160 -124.5t-221 -45.5zM1174 627h432q0 84 -52.5 139t-148.5 55q-95 0 -160 -57t-71 -137zM645 250q112 0 177 78.5t65 185.5q0 104 -65 182t-177 78t-175.5 -77.5t-63.5 -182.5q0 -108 63.5 -186
t175.5 -78z" />
    <glyph glyph-name="Scaron" unicode="&#x160;" horiz-adv-x="1210" 
d="M813 1565h-301l-254 295h266l140 -166l139 166h262zM573 -37q-157 0 -302.5 55t-239.5 154l229 234q53 -67 140.5 -110.5t172.5 -43.5q88 0 144.5 38t56.5 120q0 76 -80 122q-50 29 -213 81l-1 1h-1h-1l-1 1h-1h-1l-1 1h-1q-51 16 -92 33.5t-85.5 42t-77.5 56.5
t-60.5 72.5t-41.5 94t-14 117.5q0 93 32.5 170.5t87.5 129t128 87.5t152 52t162 16q127 0 254.5 -46.5t220.5 -131.5l-224 -236q-43 56 -116 90.5t-142 34.5q-51 0 -93.5 -11.5t-75.5 -45.5t-33 -88q0 -28 11 -50.5t27.5 -38.5t47.5 -31t60.5 -25.5t76.5 -24.5
q51 -15 88 -27.5t87.5 -34t86 -44t73.5 -56.5t61.5 -72.5t38.5 -90.5t15 -112q0 -121 -46 -215.5t-124.5 -152t-176 -86.5t-208.5 -29z" />
    <glyph glyph-name="scaron" unicode="&#x161;" horiz-adv-x="966" 
d="M657 1171h-301l-254 295h267l139 -166l139 166h262zM467 -33q-127 0 -246.5 41.5t-197.5 116.5l188 199q46 -51 112.5 -83t137.5 -32q48 0 84.5 21.5t36.5 66.5q0 44 -44 67t-159 50q-60 14 -107 34t-93 53.5t-71.5 87t-25.5 122.5q0 87 38.5 155.5t101 107.5t135 59
t149.5 20q117 0 226.5 -37.5t182.5 -106.5l-184 -190q-96 92 -213 92q-53 0 -90 -20.5t-37 -61.5q0 -40 39 -59t148 -43q325 -73 325 -312q0 -93 -38 -162.5t-102.5 -108.5t-138.5 -58t-157 -19z" />
    <glyph glyph-name="Ydieresis" unicode="&#x178;" horiz-adv-x="1370" 
d="M469 1573q-71 0 -120.5 49.5t-49.5 118.5q0 67 49.5 116.5t120.5 49.5t120.5 -48.5t49.5 -117.5q0 -70 -49.5 -119t-120.5 -49zM913 1573q-70 0 -120 49.5t-50 118.5q0 67 50 116.5t120 49.5q71 0 121.5 -48.5t50.5 -117.5q0 -70 -50.5 -119t-121.5 -49zM692 911l309 539
h410l-557 -836v-614h-350v614l-545 836h424z" />
    <glyph glyph-name="Zcaron" unicode="&#x17d;" horiz-adv-x="1300" 
d="M805 1565h-301l-254 295h266l139 -166l140 166h262zM1223 0h-1143v303l690 850h-674v297h1112v-281l-706 -866h721v-303z" />
    <glyph glyph-name="zcaron" unicode="&#x17e;" horiz-adv-x="1048" 
d="M688 1171h-301l-254 295h266l140 -166l139 166h262zM979 0h-909v262l479 506h-461v258h870v-252l-493 -514h514v-260z" />
    <glyph glyph-name="florin" unicode="&#x192;" horiz-adv-x="1323" 
d="M246 -285q-137 0 -250 58l119 245q46 -32 102 -32q63 0 93.5 45t49.5 137l101 494h-234v231h275l33 160q15 73 32.5 128t50.5 114.5t76.5 97.5t111.5 63t155 25q160 0 280 -70l-123 -248q-61 37 -117 37q-66 0 -99 -45t-50 -129l-29 -133h258v-231h-303l-112 -562
q-38 -191 -139 -288t-281 -97z" />
    <glyph glyph-name="circumflex" unicode="&#x2c6;" horiz-adv-x="614" 
d="M166 1171h-262l254 295h303l250 -295h-267l-139 166z" />
    <glyph glyph-name="caron" unicode="&#x2c7;" horiz-adv-x="614" 
d="M459 1171h-301l-254 295h266l139 -166l140 166h262z" />
    <glyph glyph-name="breve" unicode="&#x2d8;" horiz-adv-x="614" 
d="M305 1171q-151 0 -247.5 71.5t-106.5 223.5h172q22 -112 184 -112q80 0 126.5 23t58.5 89h172q-13 -152 -109.5 -223.5t-249.5 -71.5z" />
    <glyph glyph-name="dotaccent" unicode="&#x2d9;" horiz-adv-x="614" 
d="M307 1171q-76 0 -129 52t-53 123t53 123.5t129 52.5q78 0 132.5 -51.5t54.5 -124.5t-54.5 -124t-132.5 -51z" />
    <glyph glyph-name="ring" unicode="&#x2da;" horiz-adv-x="614" 
d="M307 1141q-93 0 -158 62t-65 155q0 95 64.5 158t158.5 63q93 0 158 -63t65 -156q0 -94 -65 -156.5t-158 -62.5zM307 1241q51 0 86 34t35 85t-35 85t-86 34q-52 0 -86.5 -35t-34.5 -86q0 -49 35 -83t86 -34z" />
    <glyph glyph-name="ogonek" unicode="&#x2db;" horiz-adv-x="614" 
d="M254 -483q-57 0 -107 17.5t-86 60.5t-36 106q0 141 213 293h200q-99 -78 -146.5 -134t-47.5 -102q0 -31 19.5 -49t51.5 -18q60 0 113 41l68 -133q-110 -82 -242 -82z" />
    <glyph glyph-name="tilde" unicode="&#x2dc;" horiz-adv-x="614" 
d="M74 1182h-148q7 56 23 101.5t43 83.5t69.5 59.5t96.5 21.5q76 0 166 -41q87 -41 133 -41q65 0 86 84h145q-13 -119 -69.5 -194.5t-161.5 -75.5q-73 0 -168 43q-78 41 -129 41q-63 0 -86 -82z" />
    <glyph glyph-name="hungarumlaut" unicode="&#x2dd;" horiz-adv-x="614" 
d="M184 1171h-254l213 295h340zM635 1171h-254l213 295h340z" />
    <glyph glyph-name="gravecomb" unicode="&#x300;" 
d="M276 1171h-253l-299 295h339z" />
    <glyph glyph-name="acutecomb" unicode="&#x301;" 
d="M-23 1171h-253l213 295h339z" />
    <glyph glyph-name="uni0302" unicode="&#x302;" 
d="M-141 1171h-262l253 295h304l249 -295h-266l-139 166z" />
    <glyph glyph-name="tildecomb" unicode="&#x303;" 
d="M-233 1182h-148q7 56 23 101.5t42.5 83.5t69 59.5t96.5 21.5q76 0 166 -41q87 -41 134 -41q65 0 86 84h145q-13 -119 -69.5 -194.5t-161.5 -75.5q-73 0 -168 43q-78 41 -129 41q-63 0 -86 -82z" />
    <glyph glyph-name="uni0304" unicode="&#x304;" 
d="M344 1231h-688v176h688v-176z" />
    <glyph glyph-name="uni0306" unicode="&#x306;" 
d="M-2 1171q-151 0 -247.5 71.5t-106.5 223.5h172q22 -112 184 -112q79 0 125.5 23t58.5 89h172q-13 -152 -109.5 -223.5t-248.5 -71.5z" />
    <glyph glyph-name="uni0307" unicode="&#x307;" 
d="M-2 1171q-76 0 -129 52t-53 123t53 123.5t129 52.5q78 0 132 -51t54 -125q0 -73 -54 -124t-132 -51z" />
    <glyph glyph-name="uni0308" unicode="&#x308;" 
d="M-223 1180q-70 0 -120 49.5t-50 118.5q0 67 50 116t120 49q71 0 121.5 -48t50.5 -117q0 -70 -50.5 -119t-121.5 -49zM223 1180q-71 0 -120.5 49t-49.5 119q0 67 49.5 116t120.5 49q69 0 119.5 -48t50.5 -117q0 -70 -50 -119t-120 -49z" />
    <glyph glyph-name="hookabovecomb" unicode="&#x309;" 
d="M102 1151h-188q0 54 21 87.5t79 66.5q60 35 60 79q0 29 -17.5 45.5t-48.5 16.5q-39 0 -59.5 -22.5t-26.5 -75.5l-201 22q13 110 89 166.5t202 56.5q124 0 195.5 -56.5t71.5 -139.5q0 -60 -27.5 -99t-87.5 -67q-62 -28 -62 -80z" />
    <glyph glyph-name="uni030A" unicode="&#x30a;" 
d="M0 1141q-93 0 -158 62t-65 155q0 95 64.5 158t158.5 63q93 0 158 -63t65 -156q0 -94 -65 -156.5t-158 -62.5zM0 1241q51 0 86 34t35 85t-35 85t-86 34q-52 0 -86.5 -35t-34.5 -86q0 -49 35 -83t86 -34z" />
    <glyph glyph-name="uni030B" unicode="&#x30b;" 
d="M-248 1171h-254l213 295h340zM203 1171h-254l213 295h340z" />
    <glyph glyph-name="uni030C" unicode="&#x30c;" 
d="M152 1171h-302l-253 295h266l139 -166l139 166h262z" />
    <glyph glyph-name="uni0312" unicode="&#x312;" 
d="M80 1171h-297l176 400h258z" />
    <glyph glyph-name="uni0313" unicode="&#x313;" 
d="M37 1171h-246l135 400h285z" />
    <glyph glyph-name="uni031B" unicode="&#x31b;" 
d="M-6 1069h-303v156h196q78 0 119 38.5t41 104.5t-37 141l248 62q51 -111 51 -217q0 -128 -81 -206.5t-234 -78.5z" />
    <glyph glyph-name="dotbelowcomb" unicode="&#x323;" 
d="M8 -469q-76 0 -129 51.5t-53 122.5t53 123.5t129 52.5q78 0 132.5 -51.5t54.5 -124.5t-54.5 -123.5t-132.5 -50.5z" />
    <glyph glyph-name="uni0324" unicode="&#x324;" 
d="M-223 -500q-70 0 -120 49.5t-50 118.5q0 67 50 116.5t120 49.5q71 0 121.5 -48.5t50.5 -117.5q0 -70 -50.5 -119t-121.5 -49zM223 -500q-71 0 -120.5 49t-49.5 119q0 67 49.5 116.5t120.5 49.5q69 0 119.5 -48.5t50.5 -117.5q0 -70 -50 -119t-120 -49z" />
    <glyph glyph-name="uni0325" unicode="&#x325;" 
d="M0 -539q-93 0 -158 62t-65 155q0 95 64.5 158.5t158.5 63.5q93 0 158 -63t65 -156q0 -94 -65 -157t-158 -63zM0 -438q51 0 86 34t35 85t-35 84.5t-86 33.5q-52 0 -86.5 -35t-34.5 -86q0 -49 35 -82.5t86 -33.5z" />
    <glyph glyph-name="uni0326" unicode="&#x326;" 
d="M41 -492h-258l137 400h297z" />
    <glyph glyph-name="uni0327" unicode="&#x327;" 
d="M-29 -492q-137 0 -243 52l55 123q80 -39 172 -39q41 0 71.5 15t30.5 52q0 60 -96 60q-41 0 -82 -13l-63 60l137 182h168l-96 -123q14 2 36 2q41 0 75 -7.5t66.5 -25t51 -52.5t18.5 -85q0 -56 -28 -97.5t-75 -63t-96 -31t-102 -9.5z" />
    <glyph glyph-name="uni0328" unicode="&#x328;" 
d="M-6 -477q-57 0 -107 17.5t-86.5 60.5t-36.5 106q0 141 213 293h201q-99 -78 -146.5 -134t-47.5 -102q0 -31 19.5 -49t51.5 -18q60 0 113 41l68 -133q-110 -82 -242 -82z" />
    <glyph glyph-name="uni032E" unicode="&#x32e;" 
d="M-10 -391q-151 0 -248 71.5t-107 223.5h172q22 -113 185 -113q79 0 125.5 23.5t58.5 89.5h172q-13 -152 -109.5 -223.5t-248.5 -71.5z" />
    <glyph glyph-name="uni0330" unicode="&#x330;" 
d="M-233 -498h-148q10 76 34 133t75 95.5t122 38.5q76 0 166 -41q87 -41 134 -41q65 0 86 84h145q-13 -119 -69.5 -195t-161.5 -76q-73 0 -168 43q-78 41 -129 41q-63 0 -86 -82z" />
    <glyph glyph-name="uni0331" unicode="&#x331;" 
d="M344 -449h-688v177h688v-177z" />
    <glyph glyph-name="uni0394" unicode="&#x394;" horiz-adv-x="1476" 
d="M1448 0h-1419v205l532 1245h359l528 -1245v-205zM733 1073l-311 -792h622l-309 794z" />
    <glyph glyph-name="uni03A9" unicode="&#x3a9;" horiz-adv-x="1595" 
d="M717 0h-604v256h327v35q-170 51 -262 198t-92 342q0 155 56 281t153.5 207.5t226 125.5t275.5 44q151 0 281.5 -44.5t226.5 -127t151 -207t55 -276.5q0 -204 -95 -350t-259 -193v-35h328v-256h-606v467q129 32 195.5 124t66.5 230q0 68 -21 129t-61.5 110.5t-108 79
t-153.5 29.5q-82 0 -147.5 -28.5t-107 -77.5t-63.5 -111t-22 -131q0 -141 67 -232t193 -122v-467z" />
    <glyph glyph-name="uni03BC" unicode="&#x3bc;" horiz-adv-x="1320" 
d="M1315 248l6 -246q-84 -25 -176 -25q-197 0 -240 160q-32 -66 -98.5 -116t-153.5 -50q-53 0 -94.5 16.5t-62.5 43.5h-4v-506h-345v1501h345v-553q0 -38 4 -69t14.5 -60t27.5 -48.5t45 -31.5t66 -12q87 0 134.5 66.5t47.5 164.5v543h345v-696q0 -50 18 -70t61 -20
q24 0 60 8z" />
    <glyph glyph-name="uni10D0" unicode="&#x10d0;" horiz-adv-x="1198" 
d="M596 -29q-122 0 -222.5 35.5t-165.5 95.5t-100.5 138.5t-35.5 165.5q0 102 41 186l305 -66q-17 -47 -17 -96q0 -79 50.5 -133.5t142.5 -54.5q87 0 139.5 51.5t52.5 128.5q0 46 -19.5 84.5t-51 68.5t-69.5 59.5t-76 65.5t-69.5 78.5t-51 106.5t-19.5 141h340
q1 -40 20.5 -76.5t50 -67.5t67.5 -63.5t73.5 -71.5t66.5 -83.5t49 -107.5t19 -136q0 -89 -35.5 -170t-100.5 -143t-165 -99t-219 -37z" />
    <glyph glyph-name="uni10D1" unicode="&#x10d1;" horiz-adv-x="1304" 
d="M848 1141v-119q168 -53 270.5 -186.5t102.5 -321.5q0 -123 -44.5 -226.5t-121.5 -173.5t-181.5 -109.5t-222.5 -39.5q-158 0 -287 67t-204.5 193.5t-75.5 288.5q0 205 117.5 342t310.5 178v86q0 44 -16 76.5t-40 51t-51 43.5t-49.5 52.5t-35 80t-7.5 124.5h336
q-2 -34 8 -61.5t27.5 -48t39 -40t43.5 -43t40 -51.5t29.5 -70t11.5 -93zM651 254q110 0 179 75t69 185q0 107 -69 182.5t-179 75.5q-109 0 -177 -75t-68 -183q0 -110 67.5 -185t177.5 -75z" />
    <glyph glyph-name="uni10D2" unicode="&#x10d2;" horiz-adv-x="1265" 
d="M633 -520q-118 0 -222.5 38.5t-181.5 108t-121.5 173t-44.5 225.5q0 209 127.5 341.5t331.5 172.5q117 24 164 64t47 106q0 50 -32.5 79t-90.5 29q-53 0 -83.5 -29.5t-30.5 -72.5q0 -28 6 -43l-318 -43q-16 46 -16 98q0 149 127 238.5t315 89.5q196 0 323.5 -91
t127.5 -245q0 -85 -47 -152.5t-125 -101.5v-6q140 -39 226.5 -158.5t86.5 -282.5q0 -121 -44.5 -223t-121.5 -170.5t-181 -106.5t-222 -38zM633 -233q110 0 179 74t69 184q0 105 -70 179.5t-178 74.5q-110 0 -178 -74t-68 -180q0 -110 68 -184t178 -74z" />
    <glyph glyph-name="uni10D3" unicode="&#x10d3;" horiz-adv-x="1826" 
d="M1444 -391l-275 -131q-107 211 -493 211h-393v221h209v8q-86 28 -157.5 78.5t-129 125.5t-89.5 182.5t-32 238.5q0 126 34 225.5t93.5 161t136.5 93.5t166 32q126 0 215 -57t133 -150h6q42 93 143.5 150t235.5 57q211 0 354.5 -140t143.5 -360q0 -149 -70 -264.5
t-187 -175.5t-259 -60q-140 0 -256.5 58.5t-187 171t-70.5 256.5v57q0 87 -38 130.5t-99 43.5q-74 0 -115 -65.5t-41 -190.5q0 -407 442 -532q94 -24 162 -46t138 -54t119 -69t91.5 -89t69.5 -117zM1229 324q94 0 148.5 64.5t54.5 162.5q0 99 -54.5 164t-148.5 65
q-91 0 -146 -65.5t-55 -163.5t54.5 -162.5t146.5 -64.5z" />
    <glyph glyph-name="uni10D4" unicode="&#x10d4;" horiz-adv-x="1302" 
d="M633 -520q-134 0 -241.5 41t-174 109.5t-101 153.5t-34.5 179q0 121 49 217l297 -67q-22 -54 -22 -127q0 -96 61.5 -161t167.5 -65q100 0 157.5 70t57.5 186v519q0 115 -54 177t-145 62q-87 0 -141.5 -49.5t-54.5 -144.5q0 -42 12 -88l-317 -52q-31 91 -31 162
q0 198 146 325.5t390 127.5q236 0 384.5 -145t148.5 -380v-491q0 -256 -155.5 -407.5t-399.5 -151.5z" />
    <glyph glyph-name="uni10D5" unicode="&#x10d5;" horiz-adv-x="1288" 
d="M643 -520q-107 0 -199.5 26.5t-158 71.5t-112 105t-69 128t-22.5 140q0 103 39 186l299 -67q-14 -43 -14 -93q0 -96 62 -157.5t171 -61.5q104 0 166.5 58t62.5 153q0 103 -59.5 156t-151.5 53h-77v252h77q79 0 132 41t53 123q0 83 -54 132.5t-137 49.5q-90 0 -143 -49
t-53 -133q0 -30 8 -62l-320 -51q-22 71 -22 144q0 187 148.5 308.5t383.5 121.5q226 0 375.5 -124.5t149.5 -305.5q0 -213 -205 -301v-7q103 -33 168 -126t65 -244q0 -132 -73 -239t-202 -167.5t-288 -60.5z" />
    <glyph glyph-name="uni10D6" unicode="&#x10d6;" horiz-adv-x="1349" 
d="M700 -35q-156 0 -284 65.5t-203.5 187.5t-75.5 278q0 94 33.5 177.5t95.5 139.5v8q-107 34 -181.5 135.5t-74.5 221.5q0 126 61.5 221t166.5 144.5t237 49.5q200 0 333.5 -108.5t133.5 -282.5q0 -126 -72 -198v-9q181 -33 289.5 -162.5t108.5 -322.5q0 -162 -76.5 -287.5
t-205 -191.5t-286.5 -66zM475 1004q71 0 116.5 49t45.5 121q0 69 -45.5 116t-116.5 47t-115.5 -47t-44.5 -116q0 -72 44.5 -121t115.5 -49zM702 254q107 0 175.5 74t68.5 182q0 106 -69 181t-177 75q-106 0 -172.5 -75t-66.5 -181q0 -108 66.5 -182t174.5 -74z" />
    <glyph glyph-name="uni10D7" unicode="&#x10d7;" horiz-adv-x="1884" 
d="M1612 -31l-297 84q147 230 147 490q0 113 -41.5 171t-113.5 58q-63 0 -104.5 -49.5t-41.5 -142.5q0 -14 1 -37.5t1 -40.5q0 -118 -43 -218.5t-116.5 -168.5t-172 -106t-208.5 -38q-148 0 -270 66t-195.5 191.5t-73.5 287.5q0 120 40.5 222t111 171t165.5 107.5t203 38.5
q138 0 244 -59.5t151 -155.5h7q45 97 138.5 156t223.5 59q89 0 165.5 -30t137 -90t95 -158.5t34.5 -225.5q0 -173 -50.5 -323t-137.5 -259zM623 252q101 0 159 72.5t58 187.5q0 117 -58 190.5t-159 73.5q-102 0 -159.5 -73.5t-57.5 -190.5q0 -116 57.5 -188t159.5 -72z" />
    <glyph glyph-name="uni10D8" unicode="&#x10d8;" horiz-adv-x="1263" 
d="M547 53l-293 -86q-76 99 -123 234.5t-47 294.5q0 133 44.5 240.5t120 176.5t174 105.5t208.5 36.5q111 0 210 -36.5t175.5 -105.5t121 -176.5t44.5 -240.5q0 -159 -47 -294.5t-123 -234.5l-295 86q135 228 135 441q0 120 -55.5 197t-165.5 77q-107 0 -162 -77t-55 -197
q0 -211 133 -441z" />
    <glyph glyph-name="uni10D9" unicode="&#x10d9;" horiz-adv-x="1257" 
d="M612 -520q-108 0 -201 27.5t-158 73.5t-111.5 107t-68.5 127.5t-22 135.5q0 100 39 190l299 -67q-14 -43 -14 -97q0 -96 61 -157.5t172 -61.5q107 0 168.5 64t61.5 174q0 111 -62.5 177.5t-163.5 66.5h-100v252h76q87 0 136.5 46.5t49.5 135.5q0 125 -104 262l295 119
q59 -63 102 -163t43 -210q0 -108 -49 -183.5t-137 -113.5v-6q49 -16 92 -48t80 -80.5t58.5 -119.5t21.5 -156q0 -216 -157.5 -355.5t-406.5 -139.5z" />
    <glyph glyph-name="uni10DA" unicode="&#x10da;" horiz-adv-x="2320" 
d="M1708 -391l-276 -131q-115 211 -521 211h-561v221h191v8q-88 27 -166 76t-144.5 122.5t-105.5 181.5t-39 237q0 110 25 199.5t66 148.5t97.5 98.5t116.5 56.5t125 17q119 0 206 -60t128 -164h6q33 99 111.5 161.5t193.5 62.5q116 0 196 -62.5t107 -161.5h6
q40 102 128 163t212 61q191 0 308.5 -128t117.5 -374q0 -273 -122 -487l-306 108q88 184 88 371q0 107 -36.5 167t-106.5 60q-65 0 -99 -51t-34 -148v-294h-326v307q0 95 -36.5 140.5t-96.5 45.5q-65 0 -100 -48t-35 -138v-307h-326v301q0 99 -36.5 145.5t-96.5 46.5
q-65 0 -104 -66t-39 -194q0 -78 18.5 -145t50.5 -117t80 -91t100.5 -69.5t119 -51t129.5 -36.5t137 -25q71 -11 123 -21t114.5 -25.5t108.5 -34t95.5 -46t85.5 -61t68 -79.5t54 -101z" />
    <glyph glyph-name="uni10DB" unicode="&#x10db;" horiz-adv-x="1347" 
d="M662 -29q-134 0 -244 44t-181 119t-109 173t-38 207q0 224 139.5 371t356.5 147q93 0 176.5 -37.5t130.5 -101.5h4v192q0 113 -59 176.5t-162 63.5q-96 0 -153.5 -46.5t-57.5 -125.5l2 -23l-330 -30q-8 36 -8 69q0 178 151.5 301t397.5 123q248 0 401.5 -147.5
t153.5 -384.5v-490q0 -282 -157.5 -441t-413.5 -159zM664 250q108 0 178.5 74t70.5 180q0 108 -70 181t-179 73q-117 0 -183.5 -72t-66.5 -182q0 -108 66.5 -181t183.5 -73z" />
    <glyph glyph-name="uni10DC" unicode="&#x10dc;" horiz-adv-x="1341" 
d="M688 -29q-257 0 -415 159t-158 441v529q0 220 123.5 334t353.5 114h561v-262h-520q-182 0 -182 -188v-199h6q48 62 130.5 99.5t174.5 37.5q218 0 356.5 -148.5t138.5 -377.5q0 -84 -22.5 -162t-69.5 -147t-113.5 -120t-160 -80.5t-203.5 -29.5zM684 250q116 0 183 73.5
t67 180.5q0 112 -67 186t-183 74q-109 0 -179.5 -74t-70.5 -184q0 -107 70.5 -181.5t179.5 -74.5z" />
    <glyph glyph-name="uni10DD" unicode="&#x10dd;" horiz-adv-x="1769" 
d="M569 53l-297 -84q-87 107 -137.5 257.5t-50.5 324.5q0 107 25 193t67.5 143t100.5 95.5t121 55.5t132 17q129 0 220.5 -64.5t132.5 -167.5h6q41 106 128 169t222 63q90 0 167.5 -28t142 -85.5t102 -157.5t37.5 -233q0 -172 -51 -322.5t-138 -259.5l-297 84
q148 236 148 490q0 119 -43 174t-113 55q-66 0 -105.5 -51.5t-39.5 -155.5v-311h-328v311q0 98 -38.5 152.5t-104.5 54.5q-75 0 -115.5 -60.5t-40.5 -168.5q0 -250 147 -490z" />
    <glyph glyph-name="uni10DE" unicode="&#x10de;" horiz-adv-x="1282" 
d="M635 -29q-111 0 -205 28.5t-160 76t-113 111t-69 133t-22 141.5q0 105 43 196l299 -65q-19 -55 -19 -107q0 -104 62 -169.5t178 -65.5q111 0 172 64t61 161q0 73 -34.5 123.5t-81.5 71t-101 20.5h-80v256h94q71 0 117.5 27t46.5 80q0 33 -21.5 59t-55.5 45.5t-74.5 40
t-81 49.5t-74 66.5t-53 97.5t-17.5 137h340q1 -36 22 -66t54 -53t73 -45.5t79.5 -50t72.5 -60t53.5 -81.5t20.5 -109q0 -92 -57 -156.5t-150 -90.5v-7q108 -35 177 -130t69 -242q0 -204 -160.5 -345t-404.5 -141z" />
    <glyph glyph-name="uni10DF" unicode="&#x10df;" horiz-adv-x="1314" 
d="M631 -520q-130 0 -237 40.5t-173 106t-101.5 143.5t-35.5 158q0 65 16 127l316 -39q-8 -36 -8 -57q0 -89 63 -144t162 -55q100 0 158.5 67.5t58.5 182.5v778l-322 -53v-4q59 -21 95 -80.5t36 -132.5q0 -74 -33.5 -132t-88.5 -91.5t-119 -50.5t-131 -17q-121 0 -203 47
l80 209q44 -16 100 -16q54 0 91.5 30t37.5 78q0 52 -33.5 83.5t-89.5 31.5q-31 0 -67 -8l-49 233l688 117h346v-1009q0 -171 -73 -295t-198 -186t-286 -62z" />
    <glyph glyph-name="uni10E0" unicode="&#x10e0;" horiz-adv-x="1769" 
d="M569 53l-297 -84q-99 135 -143.5 299.5t-44.5 382.5q0 321 131 504.5t434 271.5l103 27q118 32 167.5 57.5t77.5 79.5l289 -69q-16 -72 -57 -128t-101 -93.5t-124 -61t-144 -41.5l-205 -33q-250 -68 -305 -250h8q75 115 230 115q106 0 183.5 -64.5t111.5 -166.5h6
q41 107 128.5 169t225.5 62q89 0 166.5 -28.5t141 -86.5t100.5 -157t37 -228q0 -324 -189 -561l-297 84q148 236 148 467q0 116 -42 173t-116 57q-67 0 -105 -51t-38 -154v-291h-328v291q0 97 -37 151t-104 54q-72 0 -115 -57.5t-43 -172.5q0 -227 147 -467z" />
    <glyph glyph-name="uni10E1" unicode="&#x10e1;" horiz-adv-x="1331" 
d="M696 -29q-122 0 -226 39.5t-181 113.5t-120.5 189t-43.5 258v977h336v-1022q0 -127 63 -199.5t170 -72.5t169.5 60.5t62.5 162.5q0 54 -21 103.5t-51 91t-59 88t-48.5 115t-17.5 151.5h320q0 -60 20.5 -114t50 -97t59 -89t50 -112t20.5 -145q0 -96 -36 -184.5t-103 -159
t-174.5 -112.5t-239.5 -42z" />
    <glyph glyph-name="uni10E2" unicode="&#x10e2;" horiz-adv-x="1617" 
d="M809 -520q-159 0 -296.5 57t-234.5 157.5t-152.5 244.5t-55.5 313q0 308 158.5 514.5t426.5 253.5q-14 55 -14 145v99h336v-101q0 -75 -14 -143q268 -47 426.5 -253.5t158.5 -514.5q0 -169 -55.5 -313t-152.5 -244.5t-234.5 -157.5t-296.5 -57zM809 -236q181 0 291 140.5
t110 347.5q0 182 -66.5 306.5t-189.5 166.5q13 -115 13 -193v-305h-316v305q0 109 13 195q-123 -42 -189.5 -167.5t-66.5 -307.5q0 -135 47.5 -245t139.5 -176.5t214 -66.5z" />
    <glyph glyph-name="uni10E3" unicode="&#x10e3;" horiz-adv-x="1323" 
d="M643 -520q-133 0 -241 42.5t-174 112t-101 154t-35 174.5q0 120 45 209l299 -68q-22 -58 -22 -118q0 -96 63 -161t168 -65q101 0 162 67.5t61 184.5v611q0 83 -28.5 123t-89.5 40q-53 0 -85 -37t-32 -102v-256h-322v225q0 73 -30.5 105.5t-94.5 32.5h-116v282h168
q209 0 260 -157h6q36 84 119.5 130t191.5 46q187 0 290 -113t103 -309v-604q-2 -173 -77 -299t-201 -188t-287 -62z" />
    <glyph glyph-name="uni10E4" unicode="&#x10e4;" horiz-adv-x="1767" 
d="M1026 -520q-160 0 -293 49.5t-215 147t-82 225.5q0 32 6 67l316 -18v-14q0 -63 41.5 -106.5t99 -61t123.5 -17.5q126 0 207.5 58t81.5 170q0 81 -39 130t-105 52l-22 2v252h45q70 0 114 44.5t44 125.5q0 92 -38 144t-110 52q-61 0 -100 -40.5t-39 -118.5q0 -10 1 -29.5
t1 -28.5q0 -138 -67 -245t-178.5 -163.5t-244.5 -56.5t-244 58t-178 168t-67 252q0 212 134.5 344.5t334.5 132.5q128 0 224.5 -54.5t135.5 -144.5h7q43 90 132.5 144.5t215.5 54.5q176 0 295.5 -116.5t119.5 -299.5q0 -137 -61.5 -224.5t-163.5 -127.5v-6
q92 -39 141.5 -122t49.5 -204q0 -147 -89 -257t-229 -164t-305 -54zM573 358q87 0 138 61.5t51 153.5q0 93 -51 155.5t-138 62.5q-86 0 -137 -62.5t-51 -155.5q0 -92 50.5 -153.5t137.5 -61.5z" />
    <glyph glyph-name="uni10E5" unicode="&#x10e5;" horiz-adv-x="1333" 
d="M637 -520q-135 0 -244 42.5t-175 112t-101 154t-35 174.5q0 121 49 217l297 -67q-22 -54 -22 -127q0 -97 61.5 -161.5t171.5 -64.5q101 0 161 70t60 182v516q0 110 -55.5 178t-151.5 68q-85 0 -136.5 -48t-51.5 -138q0 -38 14 -96l-319 -52q-31 91 -31 181q0 105 36 190
t96.5 137t136 79.5t157.5 27.5q94 0 174.5 -40t124.5 -102h4v635h336v-1513q0 -255 -155 -405t-402 -150z" />
    <glyph glyph-name="uni10E6" unicode="&#x10e6;" horiz-adv-x="1769" 
d="M1372 -391l-274 -131q-112 209 -471 209h-355v221h209v8q-114 38 -200.5 112t-141.5 198.5t-55 283.5q0 116 25.5 210t68.5 155.5t101.5 103t120.5 59t130 17.5q129 0 220.5 -64.5t132.5 -167.5h6q41 106 128 169t222 63q90 0 167.5 -28t142 -85.5t102 -157.5t37.5 -233
q0 -278 -123 -488l-305 109q90 179 90 371q0 119 -43 174t-113 55q-66 0 -105.5 -51.5t-39.5 -155.5v-272h-328v272q0 98 -38.5 152.5t-104.5 54.5q-156 0 -156 -278q0 -91 22 -166t58.5 -128.5t92.5 -96.5t116 -71t137 -52q79 -24 135.5 -44.5t121 -53t110.5 -68.5
t88 -88.5t69 -116.5z" />
    <glyph glyph-name="uni10E7" unicode="&#x10e7;" horiz-adv-x="1341" 
d="M639 -520q-243 0 -393 119t-150 303q0 50 17 100l315 -35q-4 -28 -4 -37q0 -81 61.5 -128.5t153.5 -47.5q107 0 166 67t59 179v246h-4q-47 -63 -125 -98t-172 -35q-208 0 -343.5 140.5t-135.5 373.5q0 250 149 434l279 -105q-102 -150 -102 -309q0 -113 60.5 -185.5
t170.5 -72.5q108 0 167.5 68t59.5 186v383h336v-1003q0 -254 -155 -398.5t-410 -144.5z" />
    <glyph glyph-name="uni10E8" unicode="&#x10e8;" horiz-adv-x="1341" 
d="M651 -29q-133 0 -242.5 44t-179.5 118t-107.5 169.5t-37.5 201.5q0 228 138 373t356 145q94 0 177 -36t130 -99h6v291q0 69 -33.5 108t-87.5 39t-86.5 -34.5t-32.5 -94.5v-70h-321v60q0 61 -39 98t-101 37q-57 0 -104 -21l-31 263q78 30 181 30q89 0 170 -47.5
t110 -132.5h8q34 87 118 133.5t194 46.5q185 0 288 -112t103 -301v-609q0 -281 -159 -440.5t-417 -159.5zM655 246q111 0 181.5 73t70.5 181t-70.5 181t-181.5 73q-116 0 -181.5 -72.5t-65.5 -181.5t65.5 -181.5t181.5 -72.5z" />
    <glyph glyph-name="uni10E9" unicode="&#x10e9;" horiz-adv-x="1308" 
d="M1051 -35l-299 86q147 230 147 424q0 116 -53 189t-158 73t-167 -71.5t-62 -180.5v-485h-334v1139q0 213 132.5 332.5t342.5 119.5q201 0 333 -104.5t132 -272.5q0 -106 -35 -167l-305 45q16 40 16 92q0 68 -36 107.5t-97 39.5q-68 0 -106.5 -46.5t-38.5 -133.5v-274h4
q47 63 123.5 100t169.5 37q201 0 334 -143.5t133 -370.5q0 -311 -176 -535z" />
    <glyph glyph-name="uni10EA" unicode="&#x10ea;" horiz-adv-x="1456" 
d="M786 -508q-216 0 -375.5 103.5t-243 290.5t-83.5 433q0 243 69 434.5t162 305.5l289 -82q-190 -293 -190 -655q0 -120 21 -215.5t56 -157.5t83.5 -103.5t101.5 -59t112 -17.5q115 0 181.5 57t66.5 156q0 106 -62.5 159.5t-156.5 53.5h-123v254h158q73 0 110 34t37 95
q0 33 -13 61t-33.5 48.5t-45 42t-49 47.5t-44 58t-31 81t-9.5 110h338q2 -39 20 -72.5t43 -57t53.5 -53.5t52.5 -60t40 -78.5t16 -108.5q0 -97 -53.5 -164t-146.5 -92v-6q106 -33 171.5 -127.5t65.5 -249.5q0 -202 -165.5 -333.5t-422.5 -131.5z" />
    <glyph glyph-name="uni10EB" unicode="&#x10eb;" horiz-adv-x="1349" 
d="M651 -29q-132 0 -241 43.5t-180 118t-109.5 172t-38.5 207.5q0 238 139 390.5t357 152.5q93 0 176 -38.5t131 -101.5h4v633h336v-989q0 -182 -73.5 -316t-203 -203t-297.5 -69zM655 254q110 0 180 75t70 185q0 112 -69.5 187t-180.5 75q-117 0 -183 -74t-66 -190
q0 -109 66.5 -183.5t182.5 -74.5z" />
    <glyph glyph-name="uni10EC" unicode="&#x10ec;" horiz-adv-x="1341" 
d="M690 -29q-126 0 -231.5 40.5t-182 115.5t-119 189t-42.5 255v609q0 189 103 301t288 112q110 0 193.5 -46.5t117.5 -133.5h8q20 57 66.5 99t102 61.5t112.5 19.5q102 0 180 -30l-31 -263q-47 21 -104 21q-62 0 -100.5 -37t-38.5 -98v-60h-322v70q0 60 -32.5 94.5
t-86.5 34.5t-87 -39t-33 -108v-291h6q47 63 130 99t177 36q218 0 355.5 -145t137.5 -373q0 -106 -37.5 -201.5t-107.5 -169.5t-179.5 -118t-242.5 -44zM686 246q116 0 182 72.5t66 181.5t-66 181.5t-182 72.5q-111 0 -181.5 -73t-70.5 -181t70.5 -181t181.5 -73z" />
    <glyph glyph-name="uni10ED" unicode="&#x10ed;" horiz-adv-x="1374" 
d="M612 -520q-133 0 -240.5 42t-173 110t-100.5 148.5t-35 162.5q0 78 23 149l313 -45q-10 -42 -10 -74q0 -94 62 -153.5t163 -59.5q100 0 160 67.5t60 172.5v369h-9q-107 -129 -325 -129q-188 0 -299 113t-111 280q0 79 30 149.5t86 125t144 86.5t197 32h287v522h335v-522
h230v-252h-230v-764q0 -244 -155.5 -387t-401.5 -143zM598 500q109 0 175.5 53t66.5 145v76h-256q-76 0 -121 -36t-45 -101q0 -64 50 -100.5t130 -36.5z" />
    <glyph glyph-name="uni10EE" unicode="&#x10ee;" horiz-adv-x="1349" 
d="M698 -29q-168 0 -297 69t-202.5 203t-73.5 316v989h336v-633h4q48 63 131 101.5t176 38.5q218 0 357 -152.5t139 -390.5q0 -110 -39 -207.5t-110 -172t-180 -118t-241 -43.5zM694 254q116 0 183 74.5t67 183.5q0 116 -66.5 190t-183.5 74q-111 0 -180.5 -75t-69.5 -187
q0 -110 70 -185t180 -75z" />
    <glyph glyph-name="uni10EF" unicode="&#x10ef;" horiz-adv-x="1288" 
d="M641 -520q-136 0 -245.5 41.5t-175.5 109t-101 147.5t-35 163q0 80 27 153l309 -45q-10 -42 -10 -78q0 -95 62.5 -153t168.5 -58q102 0 163.5 59t61.5 161q0 104 -63.5 164.5t-169.5 60.5h-160v379h-364v250h364v192h328v-192h364v-250h-364v-154q190 -26 297.5 -149
t107.5 -306q0 -151 -73.5 -264.5t-201 -172t-290.5 -58.5z" />
    <glyph glyph-name="uni10F0" unicode="&#x10f0;" horiz-adv-x="1177" 
d="M553 -29q-233 0 -377.5 101t-144.5 262q0 54 10 98l321 -39q-4 -20 -4 -28q0 -62 57 -103t138 -41q88 0 143.5 35t55.5 106q0 67 -56.5 102.5t-140.5 35.5h-111v233h144q59 0 93 20.5t34 59.5q0 43 -36 64.5t-93 21.5h-144v231h131q52 0 82.5 18t30.5 54q0 24 -18.5 40
t-48.5 25.5t-66 19.5t-72 28t-66 44.5t-48.5 74.5t-18.5 114h334q8 -31 37 -53.5t66.5 -35.5t79.5 -32t76.5 -40.5t57.5 -62.5t23 -97q0 -77 -53 -129t-142 -64v-6q111 -17 166.5 -72t55.5 -141q0 -81 -49.5 -133.5t-147.5 -69.5v-6q116 -22 174.5 -99.5t58.5 -180.5
q0 -107 -71 -188.5t-191.5 -124t-269.5 -42.5z" />
    <glyph glyph-name="uni10F1" unicode="&#x10f1;" horiz-adv-x="1488" 
d="M801 -29q-223 0 -386 106t-247 297t-84 445q0 128 22.5 251.5t59.5 219.5t74 166t75 121l291 -82q-192 -334 -192 -676q0 -123 22 -221t59.5 -162t90 -107t109 -61t120.5 -18q109 0 177.5 35.5t68.5 105.5q0 62 -55.5 95.5t-141.5 33.5h-127v234h160q58 0 92.5 21.5
t34.5 64.5q0 42 -36 63t-91 21h-162v229h158q102 0 102 68q0 26 -17 47t-42 34t-54.5 33.5t-54.5 44t-42 67t-17 101.5h334q6 -35 32.5 -63.5t58.5 -49t63.5 -44.5t53 -64t21.5 -94q0 -71 -52 -117.5t-142 -58.5v-6q110 -15 165.5 -69.5t55.5 -141.5q0 -82 -49.5 -136
t-147.5 -71v-6q113 -22 173.5 -98t60.5 -175q0 -119 -80 -207t-213.5 -132t-300.5 -44z" />
    <glyph glyph-name="uni10F2" unicode="&#x10f2;" horiz-adv-x="1263" 
d="M123 -20v237q131 0 213 16v7q-125 54 -188.5 148.5t-63.5 211.5q0 196 155 325.5t392 129.5q157 0 283.5 -59t197 -163.5t70.5 -232.5q0 -114 -63 -209.5t-179 -150.5v-7q80 -16 201 -16v-237q-301 0 -510 92q-206 -92 -508 -92zM631 291q101 43 160 114.5t59 163.5
q0 87 -58.5 149t-160.5 62q-101 0 -159 -62t-58 -149q0 -92 58.5 -163.5t158.5 -114.5z" />
    <glyph glyph-name="uni10F3" unicode="&#x10f3;" horiz-adv-x="1288" 
d="M645 -508q-134 0 -243.5 41.5t-177 109t-104 150t-36.5 168.5q0 101 37 189l299 -70q-14 -41 -14 -92q0 -96 62 -157.5t173 -61.5q103 0 165 62t62 159t-60 153t-149 56h-77v252h84q80 0 125 41.5t45 121.5v158h-375v-156h-332v410h1042v-387q0 -111 -53 -188t-143 -107
v-6q101 -35 166 -131t65 -240q0 -132 -72.5 -241t-201.5 -171.5t-287 -62.5z" />
    <glyph glyph-name="uni10F4" unicode="&#x10f4;" horiz-adv-x="1255" 
d="M612 -520q-133 0 -242.5 41.5t-177.5 109.5t-104.5 150.5t-36.5 169.5q0 101 37 186l301 -67q-16 -50 -16 -95q0 -95 63 -157t172 -62q103 0 166.5 62.5t63.5 158.5q0 98 -60.5 153.5t-150.5 55.5h-78v252h86q78 0 123 36t45 99q0 34 -16 62.5t-53 57t-65.5 45.5
t-86.5 48q-76 40 -131 77.5t-110 92t-84.5 124.5t-29.5 153q0 159 114.5 259.5t313.5 100.5q101 0 207 -23t170 -61l-121 -258q-115 66 -225 66q-69 0 -98 -27.5t-29 -66.5q0 -47 49 -86t152 -93q52 -27 87 -47.5t84.5 -53.5t82.5 -65.5t64.5 -73t47 -88.5t15.5 -100
q0 -100 -53.5 -177.5t-145.5 -106.5v-6q100 -33 166 -129.5t66 -241.5q0 -131 -72.5 -240t-202 -172t-287.5 -63z" />
    <glyph glyph-name="uni10F5" unicode="&#x10f5;" horiz-adv-x="1413" 
d="M1386 1110v-229h-253v-183h253v-229h-253v-96q0 -79 -29 -145.5t-79 -113t-116.5 -79.5t-141.5 -48.5t-155 -15.5q-233 0 -380.5 98t-147.5 273q0 166 125 261t346 95h274v183h-270q-219 0 -336 89.5t-117 248.5q0 176 141.5 272t373.5 96q141 0 254.5 -41t185.5 -131
t72 -217v-88h253zM600 1110h229v64q0 87 -49.5 128t-154.5 41q-201 0 -201 -124q0 -109 176 -109zM829 393v76h-229q-100 0 -149.5 -28t-49.5 -95q0 -133 209 -133q113 0 166 45t53 135z" />
    <glyph glyph-name="uni10F6" unicode="&#x10f6;" horiz-adv-x="1628" 
d="M616 -504q-107 0 -184 25l10 246q37 -13 84 -13q129 0 129 137v80q-270 6 -420.5 156.5t-150.5 384.5q0 82 19.5 158t64 145.5t109 121.5t162 84t216.5 34v170q0 165 84.5 260.5t272.5 95.5q111 0 184 -27l-10 -243q-46 12 -84 12q-129 0 -129 -137v-131
q145 -3 257.5 -49t180 -122.5t101.5 -170.5t34 -201q0 -243 -158 -389.5t-415 -151.5v-116q0 -166 -85 -262.5t-272 -96.5zM655 233v562q-57 1 -103 -15.5t-75.5 -44t-49 -65t-28 -77t-8.5 -81.5q0 -127 70.5 -203.5t193.5 -75.5zM973 795v-562q125 -1 193.5 76.5
t68.5 202.5q0 54 -14 102t-43 90.5t-81.5 67t-123.5 23.5z" />
    <glyph glyph-name="uni10F7" unicode="&#x10f7;" horiz-adv-x="1259" 
d="M629 -520q-157 0 -286.5 66t-204.5 185.5t-75 268.5q0 67 15 127t37.5 104.5t59.5 85.5t71.5 69t83.5 56.5t84.5 45.5t85.5 38q49 21 75.5 33t62.5 32.5t54 37.5t31.5 41t13.5 51q0 43 -30.5 68.5t-81.5 25.5q-50 0 -80.5 -29t-30.5 -71q0 -28 6 -43l-315 -43
q-17 49 -17 98q0 99 60.5 175t159 114.5t217.5 38.5q193 0 314.5 -94t121.5 -244q0 -57 -14 -106.5t-43.5 -89t-60.5 -70t-80 -60t-87 -48.5t-94 -44q-68 -30 -113.5 -54.5t-91 -60.5t-68 -80.5t-22.5 -99.5q0 -105 65.5 -171t176.5 -66q110 0 176.5 67t66.5 170
q0 80 -30 139l291 107q63 -110 63 -250q0 -157 -76 -276.5t-204 -181.5t-287 -62z" />
    <glyph glyph-name="uni10F8" unicode="&#x10f8;" horiz-adv-x="1341" 
d="M702 -520q-255 0 -410 144.5t-155 398.5v1003h336v-383q0 -118 59.5 -186t167.5 -68q110 0 171 72.5t61 185.5q0 158 -103 309l279 105q149 -184 149 -434q0 -233 -135.5 -373.5t-343.5 -140.5q-94 0 -172 35t-125 98h-4v-246q0 -112 59 -179t166 -67q92 0 154 47.5
t62 128.5q0 2 -5 37l316 35q16 -47 16 -100q0 -184 -150 -303t-393 -119z" />
    <glyph glyph-name="uni10F9" unicode="&#x10f9;" horiz-adv-x="1304" 
d="M653 1055q118 0 222.5 -38.5t181.5 -108t121.5 -173t44.5 -225.5q0 -209 -127.5 -341.5t-331.5 -172.5q-117 -24 -164 -64t-47 -106q0 -50 32.5 -79.5t90.5 -29.5q53 0 84 30t31 73q0 26 -7 43l318 43q16 -46 16 -99q0 -149 -127 -238t-315 -89q-196 0 -323.5 91
t-127.5 245q0 85 47 152.5t125 101.5v6q-140 39 -226.5 158t-86.5 282q0 161 76.5 285t205.5 189t287 65zM653 768q-110 0 -178.5 -74t-68.5 -184q0 -105 69.5 -179.5t177.5 -74.5q110 0 178 74t68 180q0 110 -68 184t-178 74z" />
    <glyph glyph-name="uni10FA" unicode="&#x10fa;" horiz-adv-x="1048" 
d="M1038 100l-673 -379l-144 232l205 113l-2 8q-158 56 -249 178.5t-91 282.5q0 155 75.5 276t207 185.5t295.5 64.5q108 0 213 -38t165 -99l-188 -232q-27 38 -78 61t-104 23q-107 0 -177.5 -74t-70.5 -188t70.5 -188t179.5 -74q59 0 107.5 20.5t103.5 69.5z" />
    <glyph glyph-name="uni10FB" unicode="&#x10fb;" horiz-adv-x="1144" 
d="M332 651q-82 0 -140.5 57t-58.5 136q0 80 58 137t141 57q80 0 138 -57.5t58 -136.5t-58 -136t-138 -57zM836 317q-83 0 -142 56.5t-59 136.5q0 82 59 139.5t142 57.5q79 0 136.5 -57.5t57.5 -137.5t-57.5 -137.5t-136.5 -57.5zM332 -12q-82 0 -140.5 56.5t-58.5 135.5
q0 80 58 137.5t141 57.5q80 0 138 -57t58 -136q0 -81 -58 -137.5t-138 -56.5z" />
    <glyph glyph-name="uni10FC" unicode="&#x10fc;" horiz-adv-x="866" 
d="M451 535q-152 0 -248.5 88.5t-96.5 236.5v320q0 131 76 200.5t215 69.5h336v-186h-305q-39 0 -62.5 -23t-23.5 -65v-95h2q57 60 162 60q126 0 205.5 -83t79.5 -212q0 -60 -21.5 -114.5t-62.5 -99t-107.5 -71t-148.5 -26.5zM449 729q55 0 86.5 31t31.5 80q0 51 -31 81.5
t-87 30.5q-52 0 -84.5 -31t-32.5 -81q0 -48 33 -79.5t84 -31.5z" />
    <glyph glyph-name="uni10FD" unicode="&#x10fd;" horiz-adv-x="1306" 
d="M653 -29q-129 0 -237 38.5t-180 105t-112 155.5t-40 189q0 112 47 215l301 -49q-26 -53 -26 -146q0 -97 64.5 -162t178.5 -65q112 0 175 59t63 150q0 28 -7.5 52.5t-19 43t-33.5 36t-41.5 29t-53.5 26t-59.5 23.5t-68.5 23q-161 56 -237 102q-217 130 -217 369
q0 194 145 310t362 116q136 0 248 -48t180 -141t68 -214q0 -75 -18 -127l-324 35q8 54 8 63q0 81 -43.5 125.5t-120.5 44.5q-81 0 -124.5 -45.5t-43.5 -112.5q0 -36 14 -65.5t35.5 -50t60 -40t74 -32.5t91.5 -31q52 -17 89.5 -31t89.5 -38.5t88.5 -50t76 -63.5t63.5 -81
t40 -101.5t16 -125.5q0 -218 -158.5 -354t-413.5 -136z" />
    <glyph glyph-name="uni10FE" unicode="&#x10fe;" horiz-adv-x="1263" 
d="M123 809v238q300 0 508 -93q211 93 510 93v-238q-121 0 -201 -16v-7q116 -55 179 -150.5t63 -209.5q0 -128 -70.5 -232.5t-197 -163.5t-283.5 -59q-237 0 -392 129.5t-155 325.5q0 117 63.5 211.5t188.5 148.5v7q-82 16 -213 16zM631 735q-100 -43 -158.5 -114.5
t-58.5 -163.5q0 -87 58 -149t159 -62q102 0 160.5 62t58.5 149q0 92 -59 163.5t-160 114.5z" />
    <glyph glyph-name="uni10FF" unicode="&#x10ff;" horiz-adv-x="1310" 
d="M653 -35q-116 0 -220 39t-181.5 109t-122.5 174.5t-45 228.5q0 123 45 226.5t122.5 172.5t181.5 107.5t220 38.5q156 0 285.5 -65t208 -191t78.5 -289q0 -164 -78.5 -291.5t-208 -193.5t-285.5 -66zM653 252q112 0 180 77t68 187q0 107 -69 183.5t-179 76.5
q-111 0 -179 -76.5t-68 -183.5q0 -110 68 -187t179 -77z" />
    <glyph glyph-name="uni1C90" unicode="&#x1c90;" horiz-adv-x="1318" 
d="M651 -39q-128 0 -237 41.5t-182.5 112t-114.5 165t-41 199.5q0 170 82 312l319 -93q-47 -96 -47 -202q0 -101 62 -170.5t161 -69.5q98 0 161 67.5t63 182.5q0 74 -23.5 138.5t-60.5 114.5t-82 100t-89.5 107t-81 122t-58 158t-19.5 204h350q0 -74 23.5 -142.5
t60.5 -125.5t82 -114t90 -118.5t82 -127t60.5 -152.5t23.5 -183q0 -154 -75.5 -274.5t-208.5 -186t-300 -65.5z" />
    <glyph glyph-name="uni1C91" unicode="&#x1c91;" horiz-adv-x="1357" 
d="M885 1071v-94q183 -52 289 -186t106 -310q0 -145 -76 -264t-214 -187.5t-312 -68.5q-132 0 -244.5 40.5t-190 110.5t-121.5 165.5t-44 203.5q0 188 124.5 328t329.5 180v53q0 50 -24 84t-57.5 57t-66 50.5t-53 82t-14.5 134.5h353q-2 -33 13 -59.5t39 -44.5t52.5 -42.5
t53 -51.5t41 -74t16.5 -107zM680 254q107 0 174.5 65.5t67.5 163.5t-68 164t-176 66t-176 -66t-68 -164q0 -99 67.5 -164t178.5 -65z" />
    <glyph glyph-name="uni1C92" unicode="&#x1c92;" horiz-adv-x="1372" 
d="M688 -39q-267 0 -434.5 148t-167.5 372q0 199 138 331t368 173q97 18 148 54.5t51 99.5q0 49 -36.5 76.5t-90.5 27.5q-52 0 -89.5 -28t-37.5 -70q0 -24 8 -45l-328 -45q-20 62 -20 102q0 98 65 175t170.5 117t229.5 40q128 0 234.5 -40.5t170 -117.5t63.5 -176
q0 -78 -42 -143t-123 -99v-6q151 -42 237 -158.5t86 -267.5q0 -223 -169 -371.5t-431 -148.5zM688 254q107 0 175.5 65.5t68.5 163.5t-69 164t-177 66t-176 -66t-68 -164t68.5 -163.5t177.5 -65.5z" />
    <glyph glyph-name="uni1C93" unicode="&#x1c93;" horiz-adv-x="1875" 
d="M1470 96l-284 -135q-59 97 -191 140.5t-301 43.5h-407v232h221v8q-86 27 -160.5 76.5t-134 120t-93.5 169t-34 212.5q0 131 36.5 234t100 165.5t144 94.5t172.5 32q124 0 216.5 -55t135.5 -150h6q40 91 146 148t243 57q219 0 365.5 -132.5t146.5 -342.5
q0 -144 -72.5 -254.5t-192 -167.5t-265.5 -57q-142 0 -262 55t-192.5 157.5t-72.5 231.5v37q0 84 -38.5 128t-98.5 44q-75 0 -117.5 -62t-42.5 -184q0 -105 37 -190.5t102 -144t142 -97t170 -61.5q96 -24 160.5 -44t134.5 -50t117.5 -64t90.5 -83t72 -112zM1270 803
q88 0 143 57t55 146t-55 146.5t-143 57.5t-142.5 -57.5t-54.5 -146.5t54 -146t143 -57z" />
    <glyph glyph-name="uni1C94" unicode="&#x1c94;" horiz-adv-x="1374" 
d="M668 -39q-137 0 -250 41t-184 108.5t-109.5 152t-38.5 175.5q0 119 41 203l334 -53q-21 -61 -21 -121q0 -95 65.5 -153t166.5 -58q98 0 160.5 65.5t62.5 176.5v471q0 110 -59 168.5t-152 58.5q-90 0 -148.5 -46t-58.5 -134q0 -35 10 -80l-346 -35q-22 77 -22 148
q0 192 156 316t409 124q160 0 288 -63t201.5 -179.5t73.5 -267.5v-473q0 -166 -78 -291.5t-208.5 -189.5t-292.5 -64z" />
    <glyph glyph-name="uni1C95" unicode="&#x1c95;" horiz-adv-x="1353" 
d="M680 -39q-138 0 -252 39.5t-187.5 106t-114 150.5t-40.5 175q0 82 27 158l336 -53q-11 -34 -11 -76q0 -93 70.5 -152t173.5 -59q99 0 164 52.5t65 139.5q0 88 -62 137.5t-155 49.5h-76v260h76q83 0 135 38t52 115q0 74 -57.5 119t-141.5 45q-89 0 -146 -46t-57 -120
q0 -28 6 -49l-350 -37q-14 52 -14 119q0 116 75 212t203 151t281 55t281 -55.5t202 -151.5t74 -211q0 -104 -60 -182t-157 -111v-8q108 -34 179 -124.5t71 -229.5q0 -127 -77.5 -232t-213 -165t-299.5 -60z" />
    <glyph glyph-name="uni1C96" unicode="&#x1c96;" horiz-adv-x="1484" 
d="M801 -39q-259 0 -427.5 143t-168.5 353q0 176 110 286v7q-121 24 -192.5 119t-71.5 221q0 177 136 288t345 111q207 0 343.5 -108.5t136.5 -268.5q0 -110 -56 -166v-6q200 -17 325.5 -150t125.5 -317q0 -142 -76 -258.5t-215.5 -185t-314.5 -68.5zM530 936
q67 0 110.5 40.5t43.5 100.5t-43 101t-111 41q-69 0 -110 -41t-41 -101q0 -59 41.5 -100t109.5 -41zM807 254q107 0 175.5 65.5t68.5 163.5t-68.5 162t-177.5 64t-176.5 -63t-67.5 -163q0 -98 68.5 -163.5t177.5 -65.5z" />
    <glyph glyph-name="uni1C97" unicode="&#x1c97;" horiz-adv-x="2041" 
d="M686 -39q-157 0 -285 64.5t-206 190.5t-78 292v434q0 167 73 292.5t196 190t276 64.5q137 0 248.5 -56.5t162.5 -160.5h8q45 105 145 161t232 56q211 0 339 -146.5t128 -408.5v-311q0 -186 -53.5 -361.5t-140.5 -302.5l-318 102q75 120 116.5 269.5t41.5 304.5v307
q0 256 -158 256t-158 -229v-461q0 -125 -45.5 -229t-123 -173t-181 -107t-219.5 -38zM688 252q95 0 154 71t59 191v422q0 121 -57 191.5t-156 70.5q-100 0 -159.5 -71.5t-59.5 -192.5v-418q0 -121 59.5 -192.5t159.5 -71.5z" />
    <glyph glyph-name="uni1C98" unicode="&#x1c98;" horiz-adv-x="1378" 
d="M594 51l-313 -92q-164 295 -164 643v318q0 176 78 307t206.5 196.5t286.5 65.5q118 0 222 -38.5t182.5 -109.5t124 -180t45.5 -241v-320q0 -346 -164 -641l-316 92q125 276 125 551v311q0 133 -59.5 209t-157.5 76q-102 0 -161.5 -75.5t-59.5 -209.5v-311
q0 -282 125 -551z" />
    <glyph glyph-name="uni1C99" unicode="&#x1c99;" horiz-adv-x="1341" 
d="M668 -39q-111 0 -207.5 27t-166.5 73t-120.5 106.5t-75 128t-24.5 136.5q0 88 26 162l338 -55q-12 -35 -12 -78q0 -94 69.5 -152.5t174.5 -58.5q102 0 166.5 58t64.5 159q0 102 -63 162.5t-158 60.5h-111v262h97q82 0 130 46t48 124q0 119 -101 250l310 111
q147 -141 147 -353q0 -98 -51.5 -177t-136.5 -111v-6q105 -36 175 -139t70 -253q0 -214 -167 -348.5t-422 -134.5z" />
    <glyph glyph-name="uni1C9A" unicode="&#x1c9a;" horiz-adv-x="2420" 
d="M1792 106l-295 -145q-136 184 -539 184h-626v240h194v8q-90 29 -167.5 78.5t-139.5 120.5t-97.5 170t-35.5 215q0 103 26.5 189.5t70.5 145t103 99.5t122.5 59.5t130.5 18.5q131 0 221.5 -58t130.5 -155h4q34 95 118 154t201 59q120 0 208 -59t120 -154h6
q35 94 125.5 153.5t214.5 59.5q95 0 177.5 -33.5t144.5 -95.5t97.5 -157t35.5 -212q0 -264 -125 -479l-322 111q86 170 86 356q0 95 -40 156t-109 61q-66 0 -102.5 -48t-36.5 -136v-285h-338v285q0 89 -39.5 136.5t-104.5 47.5t-103 -48t-38 -136v-285h-338v277
q0 99 -40 145.5t-101 46.5q-66 0 -107 -64t-41 -184q0 -118 47.5 -206t138 -144.5t200.5 -90.5t257 -54q88 -12 151 -23t140 -29.5t134 -43t113 -59t98 -83t69 -109.5z" />
    <glyph glyph-name="uni1C9B" unicode="&#x1c9b;" horiz-adv-x="1406" 
d="M678 -39q-142 0 -257.5 43t-187 114.5t-109.5 161t-38 187.5q0 101 36 191.5t100.5 158.5t161.5 108t212 40q96 0 186 -33t138 -90h6v159q0 99 -61 157.5t-165 58.5q-84 0 -151.5 -38t-67.5 -110v-14l-348 -35q-8 24 -8 74q0 75 40.5 145.5t112.5 126.5t182 89.5
t238 33.5q254 0 418 -141t164 -363v-483q0 -241 -165 -391t-437 -150zM686 254q112 0 182 61.5t70 155.5q0 99 -70 159t-180 60q-115 0 -180.5 -60t-65.5 -157q0 -96 66 -157.5t178 -61.5z" />
    <glyph glyph-name="uni1C9C" unicode="&#x1c9c;" horiz-adv-x="1404" 
d="M729 -39q-272 0 -437 152t-165 393v495q0 218 131.5 333.5t353.5 115.5h596v-276h-553q-176 0 -176 -168v-162h6q51 58 140.5 93.5t185.5 35.5q114 0 211 -40.5t162 -109t101 -160t36 -192.5q0 -98 -38.5 -188t-110 -162.5t-187 -116t-256.5 -43.5zM719 254
q113 0 178.5 63t65.5 160q0 99 -65 161t-179 62q-109 0 -179.5 -62.5t-70.5 -160.5q0 -96 69 -159.5t181 -63.5z" />
    <glyph glyph-name="uni1C9D" unicode="&#x1c9d;" horiz-adv-x="1918" 
d="M627 61l-318 -102q-87 126 -139.5 301.5t-52.5 362.5v311q0 262 126 408.5t335 146.5q125 0 225 -54t151 -169h9q51 115 151 169t223 54q213 0 339 -146t126 -409v-311q0 -187 -52.5 -362.5t-139.5 -301.5l-318 102q75 120 116.5 269.5t41.5 304.5v307q0 256 -158 256
q-83 0 -119 -63t-36 -187v-563h-357v565q0 123 -36.5 185.5t-118.5 62.5q-156 0 -156 -256v-307q0 -155 41.5 -304.5t116.5 -269.5z" />
    <glyph glyph-name="uni1C9E" unicode="&#x1c9e;" horiz-adv-x="1345" 
d="M670 -39q-140 0 -256 43.5t-188.5 114.5t-112 157t-39.5 175q0 91 30 170l336 -56q-14 -38 -14 -86q0 -100 69 -164.5t177 -64.5q104 0 166.5 54t62.5 140q0 67 -34.5 112t-82.5 63t-104 18h-90v258h135q135 0 135 84q0 33 -23 57.5t-60 41t-81.5 34t-88 43.5t-79 61
t-56 95t-17.5 139h348q3 -34 27 -62t60.5 -48t79.5 -40.5t85.5 -46t77.5 -56.5t57 -79.5t22 -109.5q0 -87 -55 -147.5t-147 -84.5v-6q107 -33 178.5 -126t71.5 -228q0 -191 -167.5 -323t-422.5 -132z" />
    <glyph glyph-name="uni1C9F" unicode="&#x1c9f;" horiz-adv-x="1384" 
d="M668 -39q-132 0 -243 36t-184.5 97t-114 142t-40.5 170q0 65 20 126l334 -47q-6 -21 -6 -47q0 -81 65.5 -131.5t166.5 -50.5t164 62t63 178v708l-334 -49v-4q63 -22 102 -80t39 -131q0 -60 -23.5 -108t-60.5 -79t-86.5 -51.5t-99 -29t-100.5 -8.5q-143 0 -236 51l84 211
q49 -19 115 -19q54 0 90.5 27t36.5 72q0 50 -37.5 78t-93.5 28q-34 0 -74 -8l-39 252l707 102h362v-971q0 -245 -161 -385.5t-416 -140.5z" />
    <glyph glyph-name="uni1CA0" unicode="&#x1ca0;" horiz-adv-x="1839" 
d="M584 53l-320 -94q-91 130 -134.5 287t-43.5 366q0 173 42.5 306.5t124.5 222.5t189.5 143.5t247.5 81.5l158 33q43 9 55 11.5t43.5 10t42.5 13.5t31 16.5t32 23.5t23 31l291 -78q-67 -249 -399 -297l-283 -40q-115 -20 -206.5 -82t-117.5 -154l9 -2q37 59 104.5 91
t138.5 32q118 0 198.5 -63t113.5 -164h6q39 100 137.5 163.5t239.5 63.5q121 0 223 -54t166.5 -164.5t64.5 -258.5q0 -157 -46.5 -295.5t-127.5 -243.5l-319 94q135 216 135 424q0 106 -43.5 154.5t-112.5 48.5q-66 0 -109.5 -49.5t-43.5 -141.5v-251h-338v251q0 93 -39 142
t-107 49t-116 -51t-48 -150q0 -208 138 -426z" />
    <glyph glyph-name="uni1CA1" unicode="&#x1ca1;" horiz-adv-x="1396" 
d="M731 -39q-126 0 -233.5 37t-187.5 107t-125.5 179t-45.5 246v920h353v-942q0 -118 68 -186t171 -68q102 0 166 59t64 156q0 55 -19.5 103.5t-47 88t-55 83.5t-45 112.5t-14.5 153.5h355q1 -59 20 -111.5t46.5 -95t54.5 -89t46 -113.5t19 -148q0 -96 -43 -185t-118 -157
t-187 -109t-242 -41z" />
    <glyph glyph-name="uni1CA2" unicode="&#x1ca2;" horiz-adv-x="1701" 
d="M850 -39q-216 0 -389.5 92t-274 264t-100.5 394q0 296 162.5 493t435.5 238q-8 80 -8 90h348q0 -60 -6 -90q274 -42 437 -238t163 -493q0 -221 -100.5 -393t-275 -264.5t-392.5 -92.5zM850 260q187 0 299.5 127.5t112.5 329.5q0 171 -68.5 286t-189.5 146
q12 -102 12 -203v-305h-328v305q0 125 14 207q-125 -32 -193.5 -147.5t-68.5 -288.5q0 -202 112.5 -329.5t297.5 -127.5z" />
    <glyph glyph-name="uni1CA3" unicode="&#x1ca3;" horiz-adv-x="1390" 
d="M676 -39q-138 0 -251.5 41.5t-185 110t-110.5 153.5t-39 176q0 110 39 193l334 -51q-17 -66 -17 -113q0 -97 66 -157t168 -60q98 0 162.5 64t64.5 180v559q0 162 -125 162q-54 0 -85 -39t-31 -107v-217h-347v213q0 71 -26.5 102t-81.5 31h-121v277h178q89 0 159.5 -39.5
t96.5 -120.5h6q31 80 120 126t196 46q204 0 311 -118t107 -308v-559q0 -129 -46.5 -234t-127 -172t-186.5 -103t-228 -36z" />
    <glyph glyph-name="uni1CA4" unicode="&#x1ca4;" horiz-adv-x="1839" 
d="M1079 -39q-126 0 -239.5 26.5t-202.5 76t-141 128.5t-52 177q0 30 7 65l352 -20v-8q0 -45 25 -78.5t67 -52t89.5 -27t100.5 -8.5q129 0 207 49t78 153q0 67 -39.5 114t-105.5 50l-29 2v252h49q68 0 112 44.5t44 113.5q0 78 -39.5 125t-110.5 47q-60 0 -101.5 -45
t-41.5 -119q0 -6 1 -17.5t1 -17.5q0 -123 -72 -223t-190 -154.5t-256 -54.5q-141 0 -257.5 56t-186.5 163.5t-70 247.5q0 135 66.5 241.5t179 164t249.5 57.5q134 0 239 -56t144 -145h7q41 88 141.5 144.5t226.5 56.5q182 0 303 -117t121 -295q0 -124 -57.5 -210
t-157.5 -124v-6q84 -38 134 -119.5t50 -195.5q0 -110 -51.5 -199t-140 -145.5t-204.5 -86.5t-249 -30zM592 825q85 0 137.5 55t52.5 138t-53 138.5t-137 55.5t-137.5 -55.5t-53.5 -138.5q0 -82 54 -137.5t137 -55.5z" />
    <glyph glyph-name="uni1CA5" unicode="&#x1ca5;" horiz-adv-x="1384" 
d="M668 -39q-132 0 -243 36.5t-184.5 98t-114 142.5t-40.5 170q0 63 23 127l333 -48q-4 -12 -4 -45q0 -84 65 -135t167 -51q98 0 161.5 62.5t63.5 177.5v262q0 101 -60.5 163t-156.5 62q-80 0 -134.5 -46t-54.5 -120q0 -27 9 -63l-346 -33q-19 78 -19 127q0 119 60.5 213
t162 144t224.5 50q93 0 178 -38t131 -95h4v328h352v-963q0 -245 -161 -385.5t-416 -140.5z" />
    <glyph glyph-name="uni1CA6" unicode="&#x1ca6;" horiz-adv-x="1839" 
d="M1415 98l-282 -139q-61 103 -171.5 145.5t-273.5 42.5h-407v242h208v8q-80 27 -150 76.5t-128 120.5t-91.5 170t-33.5 213q0 107 28 194.5t74.5 145.5t108.5 97.5t127 57t133 17.5q129 0 226.5 -62t138.5 -159h4q42 102 135.5 161.5t232.5 59.5q93 0 175.5 -30.5
t148.5 -90t104.5 -157t38.5 -220.5q0 -268 -125 -483l-319 110q86 180 86 349q0 110 -45 166.5t-117 56.5q-66 0 -107.5 -48.5t-41.5 -148.5v-258h-338v258q0 96 -40 146.5t-108 50.5q-72 0 -116 -60t-44 -184q0 -365 447 -485q199 -52 328 -135t194 -228z" />
    <glyph glyph-name="uni1CA7" unicode="&#x1ca7;" horiz-adv-x="1386" 
d="M664 -39q-165 0 -295.5 53.5t-204.5 152t-74 224.5q0 49 16 105l336 -43q-4 -20 -4 -31q0 -77 64 -121.5t160 -44.5q107 0 169 57t62 164v246h-4q-49 -57 -135 -89t-189 -32q-73 0 -142.5 19t-130.5 58t-107 93.5t-72.5 131t-26.5 165.5q0 240 129 420l317 -80
q-90 -153 -90 -299q0 -103 61 -168t165 -65t166.5 63.5t62.5 183.5v326h350v-975q0 -238 -160 -376t-423 -138z" />
    <glyph glyph-name="uni1CA8" unicode="&#x1ca8;" horiz-adv-x="1404" 
d="M678 -39q-142 0 -257.5 42.5t-187 114t-109.5 160.5t-38 187q0 135 61.5 244t178 173t268.5 64q97 0 187 -34.5t139 -92.5h6v250q0 69 -34.5 109.5t-92.5 40.5q-54 0 -86.5 -35t-32.5 -92v-56h-338v54q0 112 -123 112h-106v275h159q92 0 166.5 -40t102.5 -120h6
q33 82 121 128t198 46q133 0 227.5 -57t139.5 -150.5t45 -212.5v-573q0 -239 -164 -388t-436 -149zM686 254q112 0 181 60.5t69 154.5q0 98 -70 157.5t-178 59.5q-114 0 -180 -59.5t-66 -157.5q0 -94 66.5 -154.5t177.5 -60.5z" />
    <glyph glyph-name="uni1CA9" unicode="&#x1ca9;" horiz-adv-x="1376" 
d="M1124 -41l-311 88q63 105 94 193.5t31 189.5q0 104 -58.5 176t-162.5 72q-103 0 -167.5 -71t-64.5 -185v-422h-346v1059q0 200 140 315t352 115q206 0 343.5 -103t137.5 -253q0 -67 -22 -127l-324 36q6 36 6 52q0 54 -38 91.5t-99 37.5q-66 0 -106 -42.5t-40 -111.5v-240
h5q49 59 132 94t183 35q132 0 241 -58t175.5 -172t66.5 -263q0 -145 -46.5 -276.5t-121.5 -229.5z" />
    <glyph glyph-name="uni1CAA" unicode="&#x1caa;" horiz-adv-x="1538" 
d="M840 -39q-173 0 -316 61.5t-238.5 170t-147.5 257.5t-52 324q0 226 72 415.5t168 299.5l315 -86q-199 -306 -199 -629q0 -110 23 -200t61.5 -149t90.5 -98.5t107.5 -57t115.5 -17.5q117 0 187.5 50.5t70.5 135.5q0 95 -65 145t-159 50h-145v268h180q72 0 111 30.5
t39 84.5q0 31 -13 57.5t-33.5 47t-45.5 41.5t-49.5 47t-44 57.5t-30.5 78.5t-9 105h356q3 -43 27.5 -81t57 -68.5t64.5 -64t54 -85t22 -115.5q0 -92 -58.5 -158t-154.5 -90v-6q109 -36 180.5 -128t71.5 -240q0 -96 -46 -179.5t-126.5 -144t-195 -95t-246.5 -34.5z" />
    <glyph glyph-name="uni1CAB" unicode="&#x1cab;" horiz-adv-x="1409" 
d="M670 -39q-142 0 -257.5 44t-187 117.5t-109.5 165.5t-38 193q0 144 61 261t180 188t275 71q94 0 182 -35.5t135 -93.5h4v578h355v-924q0 -255 -163.5 -410t-436.5 -155zM680 254q108 0 178 65t70 164q0 100 -71 164t-177 64q-115 0 -180.5 -63t-65.5 -165
q0 -100 66.5 -164.5t179.5 -64.5z" />
    <glyph glyph-name="uni1CAC" unicode="&#x1cac;" horiz-adv-x="1404" 
d="M727 -39q-272 0 -436 149t-164 388v573q0 119 45 212.5t139.5 150.5t227.5 57q110 0 198 -46t121 -128h6q28 80 102.5 120t166.5 40h159v-275h-106q-123 0 -123 -112v-54h-338v56q0 57 -32.5 92t-86.5 35q-58 0 -92.5 -40.5t-34.5 -109.5v-250h6q49 58 139 92.5t187 34.5
q152 0 268.5 -64t178 -173t61.5 -244q0 -98 -38 -187t-109.5 -160.5t-187 -114t-257.5 -42.5zM719 254q111 0 177.5 60.5t66.5 154.5q0 98 -66 157.5t-180 59.5q-108 0 -178 -59.5t-70 -157.5q0 -94 69 -154.5t181 -60.5z" />
    <glyph glyph-name="uni1CAD" unicode="&#x1cad;" horiz-adv-x="1474" 
d="M668 -39q-132 0 -243 35.5t-184.5 96t-114 140t-40.5 168.5q0 62 23 129l333 -49q-6 -21 -6 -41q0 -82 66.5 -133t167.5 -51q99 0 161 61.5t62 178.5v209h-6q-48 -57 -140 -89t-190 -32q-189 0 -307.5 91.5t-118.5 244.5q0 154 116 244.5t318 90.5h328v201h350v-201h215
v-251h-215v-519q0 -162 -75 -282t-204 -181t-296 -61zM655 821q107 0 175.5 46.5t68.5 133.5v35h-233q-185 0 -185 -108q0 -56 50 -81.5t124 -25.5z" />
    <glyph glyph-name="uni1CAE" unicode="&#x1cae;" horiz-adv-x="1409" 
d="M739 -39q-273 0 -436.5 155t-163.5 410v924h353v-578h6q49 58 136 93.5t181 35.5q155 0 274 -71t180.5 -188.5t61.5 -260.5q0 -101 -38 -193t-109.5 -165.5t-187 -117.5t-257.5 -44zM729 254q113 0 178.5 66.5t65.5 160.5q0 96 -64.5 163t-179.5 67q-112 0 -180 -66
t-68 -160t68.5 -162.5t179.5 -68.5z" />
    <glyph glyph-name="uni1CAF" unicode="&#x1caf;" horiz-adv-x="1349" 
d="M674 -39q-131 0 -242.5 36t-186.5 97.5t-117 143.5t-42 174q0 76 25 143l338 -47q-13 -32 -13 -72q0 -87 66 -140.5t174 -53.5q104 0 168.5 55t64.5 152q0 98 -66 156.5t-173 58.5h-174v358h-379v260h379v174h348v-174h379v-260h-379v-133q194 -24 308 -144t114 -311
q0 -136 -77 -244.5t-212.5 -168.5t-302.5 -60z" />
    <glyph glyph-name="uni1CB0" unicode="&#x1cb0;" horiz-adv-x="1241" 
d="M600 -39q-250 0 -404.5 106t-154.5 275q0 51 12 86l332 -37q-4 -16 -4 -22q0 -68 66 -106t153 -38q90 0 150.5 34t60.5 101q0 57 -50.5 86t-135.5 29h-144v223h187q106 0 106 68q0 39 -29.5 58.5t-78.5 19.5h-185v225h166q96 0 96 51q0 23 -20 38.5t-52.5 26t-71.5 21
t-78 28t-72 42.5t-54 70.5t-22 105.5h346q10 -28 43 -49t74 -33.5t86.5 -30.5t83 -39t62 -60.5t24.5 -92.5q0 -143 -189 -166v-6q106 -13 161.5 -67.5t55.5 -135.5q0 -163 -190 -192v-7q116 -21 171.5 -90.5t55.5 -167.5q0 -101 -74 -182.5t-201.5 -126.5t-281.5 -45z" />
    <glyph glyph-name="uni1CB1" unicode="&#x1cb1;" horiz-adv-x="1540" 
d="M852 -39q-234 0 -409 105.5t-266 288.5t-91 417q0 228 72.5 418t169.5 299l313 -86q-199 -306 -199 -629q0 -138 37 -245t99.5 -171t138.5 -96.5t162 -32.5q223 0 223 133q0 54 -50.5 83.5t-131.5 29.5h-142v223h191q104 0 104 68q0 39 -29 58.5t-77 19.5h-189v225h168
q96 0 96 59q0 23 -18 42t-44.5 31t-58.5 32t-59 44.5t-45.5 69.5t-19.5 105h346q8 -30 36.5 -56.5t63.5 -47t69 -45.5t56.5 -64.5t22.5 -91.5q0 -72 -51.5 -113.5t-143.5 -52.5v-6q107 -13 164 -68t57 -135q0 -77 -48.5 -127t-145.5 -65v-7q113 -20 173 -86t60 -159
q0 -111 -78 -195t-214.5 -128t-311.5 -44z" />
    <glyph glyph-name="uni1CB2" unicode="&#x1cb2;" horiz-adv-x="1325" 
d="M131 -16v282q127 0 240 29v8q-127 78 -206 214.5t-79 299.5v135q0 160 79.5 284t210.5 188.5t288 64.5t287.5 -64.5t210 -188.5t79.5 -284v-135q0 -163 -80 -299t-207 -215v-8q116 -29 242 -29v-282q-274 0 -532 116q-261 -116 -533 -116zM664 399q223 159 223 424v99
q0 127 -60.5 201.5t-162.5 74.5t-164 -74.5t-62 -201.5v-97q0 -267 226 -426z" />
    <glyph glyph-name="uni1CB3" unicode="&#x1cb3;" horiz-adv-x="1355" 
d="M680 -39q-110 0 -206.5 27t-166 73t-120.5 106t-76 128t-25 137q0 72 27 158l338 -53q-11 -34 -11 -76q0 -93 70 -152t172 -59q98 0 164.5 57t66.5 144q0 91 -59.5 143.5t-151.5 52.5h-98v262h98q79 0 128 40t49 118v119h-396v-144h-348v408h1096v-356q0 -106 -53 -183.5
t-148 -111.5v-6q104 -33 173 -129t69 -236q0 -128 -77.5 -235.5t-213.5 -169.5t-301 -62z" />
    <glyph glyph-name="uni1CB4" unicode="&#x1cb4;" horiz-adv-x="1261" 
d="M621 -39q-250 0 -405 106t-155 275q0 48 13 86l332 -37q-5 -20 -5 -24q0 -66 66.5 -104t153.5 -38q90 0 150 34t60 101q0 57 -50.5 86t-135.5 29h-143v223h190q103 0 103 66q0 21 -15.5 37t-40.5 26t-59 19t-70 17q-11 2 -16 3q-46 10 -79 18.5t-79 24t-78 31.5
t-67.5 41.5t-57 55t-35.5 70t-14 87.5q0 129 118 213t321 84q112 0 221.5 -22.5t169.5 -59.5l-119 -217q-118 49 -238 49q-59 0 -90.5 -16.5t-31.5 -44.5q0 -20 13 -35t43.5 -26.5t60.5 -19t85 -18.5q47 -11 77.5 -18.5t77 -22.5t77.5 -29.5t66.5 -38t56.5 -49.5t35 -62.5
t14 -78.5q0 -78 -48 -133t-143 -69v-7q113 -19 170.5 -88.5t57.5 -165.5q0 -108 -74.5 -190t-200.5 -125t-282 -43z" />
    <glyph glyph-name="uni1CB5" unicode="&#x1cb5;" horiz-adv-x="1486" 
d="M1407 1075v-260h-233v-153h233v-261h-233v-32q0 -98 -46.5 -177.5t-123.5 -129t-172 -75.5t-197 -26q-155 0 -277.5 39.5t-197 123t-74.5 198.5q0 156 120 248t331 92h323v153h-319q-208 0 -320 86.5t-112 237.5q0 167 145 258.5t381 91.5q107 0 201.5 -23.5t171 -69.5
t121.5 -123t45 -175v-23h233zM627 1042h233v50q0 79 -53.5 116t-161.5 37q-207 0 -207 -106q0 -97 189 -97zM633 213q227 0 227 158v61h-248q-99 0 -147.5 -24.5t-48.5 -83.5q0 -111 217 -111z" />
    <glyph glyph-name="uni1CB6" unicode="&#x1cb6;" horiz-adv-x="1937" 
d="M1849 735q0 -100 -20.5 -191.5t-71 -182.5t-128.5 -158.5t-202 -113t-282 -52.5v-129h-352v129q-123 5 -226.5 33.5t-175 71.5t-127 101.5t-88.5 118.5t-54 129t-28.5 127t-7.5 117q0 63 8 124t30 130t56 130t90 118t127.5 99t173 69.5t222.5 32.5v129h352v-129
q163 -7 290 -55t203.5 -118.5t125.5 -164.5t67 -182.5t18 -182.5zM1145 1130v-786q180 6 272 110.5t92 282.5q0 184 -93 286.5t-271 106.5zM426 737q0 -182 94 -285.5t273 -107.5v786q-178 -6 -272.5 -107t-94.5 -286z" />
    <glyph glyph-name="uni1CB7" unicode="&#x1cb7;" horiz-adv-x="1368" 
d="M684 -39q-168 0 -303.5 61.5t-215 178.5t-79.5 270q0 65 17.5 123t43.5 100.5t70 82t82 64.5t96 52t94.5 41.5t94.5 34.5q112 41 166.5 78t54.5 92q0 49 -36.5 76.5t-90.5 27.5t-90.5 -26.5t-36.5 -71.5q0 -25 8 -53l-330 -43q-20 77 -20 110q0 95 64 171t170.5 117.5
t234.5 41.5q205 0 336 -94.5t131 -253.5q0 -52 -12.5 -97t-31.5 -79.5t-51.5 -66t-62.5 -53t-75 -44.5t-78.5 -37t-83.5 -33q-47 -19 -68 -27.5t-61.5 -27t-59.5 -31t-46.5 -33.5t-40 -40.5t-22.5 -46.5t-10 -56q0 -94 67.5 -154.5t174.5 -60.5q108 0 176 63.5t68 167.5
q0 78 -27 140l336 51q47 -96 47 -217q0 -109 -47.5 -202.5t-128.5 -158t-191 -101t-233 -36.5z" />
    <glyph glyph-name="uni1CB8" unicode="&#x1cb8;" horiz-adv-x="1386" 
d="M723 -39q-263 0 -423.5 138t-160.5 376v975h350v-326q0 -120 62.5 -183.5t167.5 -63.5q104 0 164.5 65t60.5 168q0 146 -90 299l317 80q129 -180 129 -420q0 -89 -26.5 -165.5t-72.5 -131t-107 -93.5t-130.5 -58t-142.5 -19q-103 0 -188 32t-135 89h-4v-246
q0 -107 62 -164t169 -57q96 0 159.5 44.5t63.5 121.5q0 11 -4 31l336 43q16 -56 16 -105q0 -126 -74 -224.5t-204 -152t-295 -53.5z" />
    <glyph glyph-name="uni1CB9" unicode="&#x1cb9;" horiz-adv-x="1372" 
d="M684 1489q267 0 434.5 -148t167.5 -372q0 -199 -138 -331t-368 -173q-97 -18 -147.5 -54.5t-50.5 -99.5q0 -49 36.5 -76.5t90.5 -27.5q52 0 89.5 28t37.5 70q0 21 -9 45l328 45q21 -65 21 -102q0 -98 -65 -175t-170.5 -117t-229.5 -40q-128 0 -234.5 40.5t-170.5 117.5
t-64 176q0 78 42.5 143t123.5 99v6q-151 42 -237.5 158.5t-86.5 267.5q0 223 169 371.5t431 148.5zM684 1196q-107 0 -175.5 -65.5t-68.5 -163.5t69 -164t177 -66t176 66t68 164t-68.5 163.5t-177.5 65.5z" />
    <glyph glyph-name="uni1CBA" unicode="&#x1cba;" horiz-adv-x="1169" 
d="M1128 313l-761 -348l-123 268l209 97v8q-165 52 -266 202t-101 339q0 117 33.5 217t91.5 171.5t137 122t171 75t192 24.5q288 0 444 -197l-201 -213q-85 105 -223 105q-123 0 -202.5 -91.5t-79.5 -248.5q0 -153 82 -246.5t208 -93.5q127 0 260 76z" />
    <glyph glyph-name="uni1CBD" unicode="&#x1cbd;" horiz-adv-x="1339" 
d="M676 -39q-153 0 -283.5 50t-217 154.5t-89.5 246.5q-2 79 31 166l329 -58q-14 -38 -14 -80q0 -90 67 -141t175 -51q101 0 162 42t61 122q0 69 -57 111t-166 81l-78 29q-55 19 -95.5 34.5t-90.5 40t-85.5 49t-72 60t-59 74.5t-36.5 90.5t-14 110.5q0 122 72 213.5
t190.5 137.5t264.5 46q95 0 185 -24.5t164 -70t120 -119t49 -163.5q0 -57 -19 -135l-335 49q8 20 8 49q0 63 -50.5 102.5t-125.5 39.5t-122.5 -34.5t-47.5 -92.5q0 -64 58 -102.5t196 -84.5l79 -29q92 -32 160 -67t132.5 -88.5t99 -129.5t34.5 -171q0 -107 -47 -195
t-127.5 -144.5t-184.5 -87t-220 -30.5z" />
    <glyph glyph-name="uni1CBE" unicode="&#x1cbe;" horiz-adv-x="1325" 
d="M131 1184v282q272 0 533 -116q258 116 532 116v-282q-126 0 -242 -29v-8q127 -79 207 -215t80 -299v-135q0 -160 -79.5 -284t-210 -188.5t-287.5 -64.5t-288 64.5t-210.5 188.5t-79.5 284v135q0 163 79 299.5t206 214.5v8q-113 29 -240 29zM664 1051q-226 -159 -226 -426
v-97q0 -127 62 -201.5t164 -74.5t162.5 74.5t60.5 201.5v99q0 265 -223 424z" />
    <glyph glyph-name="uni1CBF" unicode="&#x1cbf;" horiz-adv-x="1617" 
d="M809 -39q-154 0 -286.5 54t-229.5 151.5t-152 243.5t-55 321t55 318.5t152 239.5t229.5 148t286.5 52t287 -52t230 -148t152.5 -240t55.5 -318q0 -175 -55.5 -321t-152.5 -243.5t-230 -151.5t-287 -54zM809 283q158 0 253 124.5t95 323.5q0 196 -95 318t-253 122
q-159 0 -253.5 -122t-94.5 -318q0 -199 95 -323.5t253 -124.5z" />
    <glyph glyph-name="uni200C" unicode="&#x200c;" 
d="M0 2171l-109 -107l-32 35l106 107l-106 106l32 35l109 -109l106 107l33 -33l-106 -106l106 -107l-33 -33z" />
    <glyph glyph-name="uni200D" unicode="&#x200d;" 
d="M-156 2208h-47v141h408v-141h-47v94h-314v-94z" />
    <glyph glyph-name="uni200E" unicode="&#x200e;" 
d="M184 2208l-141 -142l-35 37l84 82h-256v47h256l-84 80l35 37z" />
    <glyph glyph-name="uni200F" unicode="&#x200f;" 
d="M-8 2116l-35 -37l-141 141l141 141l35 -37l-84 -79h256v-47h-256z" />
    <glyph glyph-name="uni2010" unicode="&#x2010;" horiz-adv-x="667" 
d="M594 403h-520v267h520v-267z" />
    <glyph glyph-name="uni2011" unicode="&#x2011;" horiz-adv-x="667" 
d="M594 403h-520v267h520v-267z" />
    <glyph glyph-name="endash" unicode="&#x2013;" horiz-adv-x="819" 
d="M758 430h-697v211h697v-211z" />
    <glyph glyph-name="emdash" unicode="&#x2014;" horiz-adv-x="1228" 
d="M1167 428h-1106v213h1106v-213z" />
    <glyph glyph-name="quoteleft" unicode="&#x2018;" horiz-adv-x="614" 
d="M383 895h-297l186 555h258z" />
    <glyph glyph-name="quoteright" unicode="&#x2019;" horiz-adv-x="614" 
d="M342 895h-258l147 555h297z" />
    <glyph glyph-name="quotesinglbase" unicode="&#x201a;" horiz-adv-x="614" 
d="M340 -258h-258l147 555h297z" />
    <glyph glyph-name="quotedblleft" unicode="&#x201c;" horiz-adv-x="1038" 
d="M383 895h-297l186 555h258zM809 895h-297l186 555h258z" />
    <glyph glyph-name="quotedblright" unicode="&#x201d;" horiz-adv-x="1038" 
d="M340 895h-258l147 555h297zM766 895h-258l147 555h297z" />
    <glyph glyph-name="quotedblbase" unicode="&#x201e;" horiz-adv-x="1038" 
d="M340 -258h-258l147 555h293zM766 -258h-260l151 555h293z" />
    <glyph glyph-name="dagger" unicode="&#x2020;" horiz-adv-x="1234" 
d="M760 -264h-291v1046h-391v256h391v412h291v-412h397v-256h-397v-1046z" />
    <glyph glyph-name="daggerdbl" unicode="&#x2021;" horiz-adv-x="1234" 
d="M762 -264h-289v366h-387v254h387v475h-387v252h385v367h291v-367h389v-252h-389v-475h389v-254h-389v-366z" />
    <glyph glyph-name="bullet" unicode="&#x2022;" horiz-adv-x="1024" 
d="M512 362q-151 0 -256.5 106t-105.5 257t105.5 256.5t256.5 105.5t256.5 -105.5t105.5 -256.5t-105.5 -257t-256.5 -106z" />
    <glyph glyph-name="ellipsis" unicode="&#x2026;" horiz-adv-x="2048" 
d="M344 -20q-86 0 -147.5 57t-61.5 141q0 83 61.5 143t147.5 60q84 0 144.5 -58.5t60.5 -142.5t-60.5 -142t-144.5 -58zM1024 -20q-86 0 -147.5 57t-61.5 141q0 83 61.5 143t147.5 60q84 0 144.5 -58.5t60.5 -142.5t-60.5 -142t-144.5 -58zM1706 -20q-86 0 -147.5 57
t-61.5 141q0 83 61.5 143t147.5 60q84 0 144.5 -58.5t60.5 -142.5t-60.5 -142t-144.5 -58z" />
    <glyph glyph-name="uni202A" unicode="&#x202a;" 
d="M195 2210l-142 -142l-33 35l82 84h-100v47h100l-82 80l33 35zM-57 2187h-115v47h115v-47z" />
    <glyph glyph-name="uni202B" unicode="&#x202b;" 
d="M-20 2103l-33 -32l-142 139l142 139l33 -31l-82 -84h100v-47h-100zM172 2187h-115v47h115v-47z" />
    <glyph glyph-name="uni202C" unicode="&#x202c;" 
d="M23 2052h-48v207l-79 -82l-35 33l139 139l139 -139l-35 -33l-81 82v-207z" />
    <glyph glyph-name="uni202D" unicode="&#x202d;" 
d="M98 2210l-141 -142l-33 35l84 84h-219v47h217l-82 80l33 35zM229 2210l-141 -142l-31 35l109 107l-109 104l31 35z" />
    <glyph glyph-name="uni202E" unicode="&#x202e;" 
d="M-57 2101l-31 -35l-141 142l141 141l31 -35l-107 -106zM76 2101l-33 -35l-139 142l139 141l33 -35l-82 -86h217v-43h-217z" />
    <glyph glyph-name="perthousand" unicode="&#x2030;" horiz-adv-x="2549" 
d="M1352 1432l-795 -1493l-182 79l794 1498zM438 743q-152 0 -260 107.5t-108 259.5t107.5 258.5t260.5 106.5q151 0 260 -106.5t109 -258.5t-109 -259.5t-260 -107.5zM438 958q63 0 107.5 44t44.5 108t-44.5 108t-107.5 44q-64 0 -107.5 -43.5t-43.5 -108.5t43.5 -108.5
t107.5 -43.5zM1294 -25q-152 0 -260 107.5t-108 259.5t107.5 258.5t260.5 106.5q151 0 260 -106.5t109 -258.5t-109 -259.5t-260 -107.5zM2109 -25q-151 0 -258.5 107.5t-107.5 259.5t107.5 258.5t258.5 106.5q153 0 261 -106.5t108 -258.5t-108.5 -259.5t-260.5 -107.5z
M1294 190q63 0 107.5 44t44.5 108t-44.5 108t-107.5 44q-64 0 -107.5 -43.5t-43.5 -108.5t43.5 -108.5t107.5 -43.5zM2109 190q65 0 108.5 44t43.5 108t-43.5 108t-108.5 44q-64 0 -107.5 -43.5t-43.5 -108.5t43.5 -108.5t107.5 -43.5z" />
    <glyph glyph-name="guilsinglleft" unicode="&#x2039;" horiz-adv-x="651" 
d="M582 174l-201 -129l-330 475l330 475l199 -129l-236 -346z" />
    <glyph glyph-name="guilsinglright" unicode="&#x203a;" horiz-adv-x="651" 
d="M600 518l-330 -473l-198 129l235 344l-237 348l200 129z" />
    <glyph glyph-name="fraction" unicode="&#x2044;" horiz-adv-x="204" 
d="M-219 -61l-178 79l794 1498l178 -84z" />
    <glyph glyph-name="zero.sups" unicode="&#x2070;" horiz-adv-x="860" 
d="M432 893q-96 0 -167 37t-112.5 103t-61 147.5t-19.5 179.5q0 97 19.5 177.5t61 146t112.5 102.5t167 37q95 0 165.5 -37t111 -102.5t60 -146t19.5 -177.5q0 -98 -19.5 -179.5t-60 -147.5t-111 -103t-165.5 -37zM432 1096q33 0 56.5 23t35.5 63.5t17.5 84t5.5 93.5
q0 49 -5.5 91.5t-17.5 82.5t-35.5 63t-56.5 23q-34 0 -58 -23t-37 -63t-18.5 -82.5t-5.5 -91.5q0 -50 5.5 -93.5t18.5 -83.5t37 -63.5t58 -23.5z" />
    <glyph glyph-name="four.sups" unicode="&#x2074;" horiz-adv-x="860" 
d="M686 911h-217v170h-410v191l359 532h268v-530h119v-193h-119v-170zM467 1548l-180 -274h182v274h-2z" />
    <glyph glyph-name="five.sups" unicode="&#x2075;" horiz-adv-x="860" 
d="M428 893q-125 0 -218 63t-126 177l211 63q15 -48 49 -76t80 -28q51 0 83 29.5t32 82.5q0 58 -42.5 88.5t-115.5 30.5q-44 0 -111 -14t-118 -35l20 530h559v-205h-348l-6 -104q40 6 74 6q140 0 231.5 -76t91.5 -211q0 -79 -29 -142t-78 -101t-110 -58t-129 -20z" />
    <glyph glyph-name="six.sups" unicode="&#x2076;" horiz-adv-x="860" 
d="M430 893q-151 0 -252.5 88t-101.5 233q0 132 96 277l213 313h285l-215 -291l2 -2q8 2 37 2q119 0 204.5 -82.5t85.5 -211.5q0 -149 -101.5 -237.5t-252.5 -88.5zM428 1092q55 0 89 34t34 88q0 52 -34 87.5t-87 35.5q-54 0 -87.5 -35.5t-33.5 -89.5q0 -51 33 -85.5
t86 -34.5z" />
    <glyph glyph-name="seven.sups" unicode="&#x2077;" horiz-adv-x="860" 
d="M430 911h-272l350 688h-397v205h655v-178z" />
    <glyph glyph-name="eight.sups" unicode="&#x2078;" horiz-adv-x="860" 
d="M430 893q-144 0 -241 72t-97 206q0 71 38.5 125.5t100.5 81.5v4q-54 24 -86 71.5t-32 111.5q0 121 92 189.5t225 68.5t225.5 -67t92.5 -187q0 -64 -31 -113t-86 -74v-4q61 -25 99 -80.5t38 -126.5q0 -134 -97.5 -206t-240.5 -72zM430 1462q38 0 64 25.5t26 62.5t-26 62.5
t-64 25.5t-64 -25.5t-26 -62.5t25.5 -62.5t64.5 -25.5zM430 1081q46 0 77.5 28.5t31.5 72.5q0 43 -31.5 73.5t-77.5 30.5t-77 -30t-31 -74t31 -72.5t77 -28.5z" />
    <glyph glyph-name="nine.sups" unicode="&#x2079;" horiz-adv-x="860" 
d="M475 911h-287l215 291l-2 4q-10 -4 -36 -4q-121 0 -205 84.5t-84 210.5q0 148 100.5 237t251.5 89q153 0 254.5 -88.5t101.5 -233.5q0 -74 -25 -139t-73 -137zM428 1380q53 0 87 35t34 88q0 51 -33 87t-86 36q-55 0 -89 -34.5t-34 -90.5q0 -52 34 -86.5t87 -34.5z" />
    <glyph glyph-name="plus.sups" unicode="&#x207a;" horiz-adv-x="860" 
d="M518 952h-176v273h-270v174h270v272h176v-272h270v-174h-270v-273z" />
    <glyph glyph-name="minus.sups" unicode="&#x207b;" horiz-adv-x="860" 
d="M788 1225h-716v174h716v-174z" />
    <glyph glyph-name="equal.sups" unicode="&#x207c;" horiz-adv-x="860" 
d="M788 1358h-716v174h716v-174zM788 1090h-716v174h716v-174z" />
    <glyph glyph-name="zero.subs" unicode="&#x2080;" horiz-adv-x="860" 
d="M432 -315q-96 0 -167 37t-112.5 103t-61 147.5t-19.5 179.5q0 97 19.5 177.5t61 146t112.5 102t167 36.5q95 0 165.5 -36.5t111 -102t60 -146t19.5 -177.5q0 -98 -19.5 -179.5t-60 -147.5t-111 -103t-165.5 -37zM432 -113q33 0 56.5 23.5t35.5 63.5t17.5 84t5.5 94
q0 49 -5.5 91.5t-17.5 82.5t-35.5 63t-56.5 23q-34 0 -58 -23t-37 -63t-18.5 -82.5t-5.5 -91.5q0 -50 5.5 -94t18.5 -84t37 -63.5t58 -23.5z" />
    <glyph glyph-name="one.subs" unicode="&#x2081;" horiz-adv-x="860" 
d="M610 -297h-239v627l-152 -119l-123 166l297 219h217v-893z" />
    <glyph glyph-name="two.subs" unicode="&#x2082;" horiz-adv-x="860" 
d="M766 -297h-653v188l348 320q59 53 59 115q0 37 -25 59.5t-67 22.5q-46 0 -76 -34.5t-35 -90.5l-225 28q15 141 112.5 222t233.5 81q64 0 121.5 -16.5t104.5 -49t74.5 -86t27.5 -122.5q0 -46 -12 -85.5t-37.5 -74.5t-47 -57.5t-59.5 -56.5l-178 -158h334v-205z" />
    <glyph glyph-name="three.subs" unicode="&#x2083;" horiz-adv-x="860" 
d="M440 -315q-130 0 -227 61t-133 188l215 58q15 -48 48 -78.5t83 -30.5q47 0 81 23t34 71q0 97 -160 97h-68v172h74q133 0 133 96q0 35 -26 56.5t-68 21.5q-37 0 -66 -27t-38 -71l-216 51q32 115 126 178t210 63q132 0 223 -63t91 -184q0 -66 -31 -117t-84 -78v-4
q65 -23 100 -77t35 -126q0 -71 -29.5 -126.5t-78.5 -88t-107 -49t-121 -16.5z" />
    <glyph glyph-name="four.subs" unicode="&#x2084;" horiz-adv-x="860" 
d="M686 -297h-217v170h-410v190l359 533h268v-530h119v-193h-119v-170zM467 340l-180 -274h182v274h-2z" />
    <glyph glyph-name="five.subs" unicode="&#x2085;" horiz-adv-x="860" 
d="M428 -315q-125 0 -218 62.5t-126 176.5l211 64q15 -48 49 -76.5t80 -28.5q51 0 83 30t32 83q0 58 -42.5 88.5t-115.5 30.5q-44 0 -111 -14t-118 -35l20 530h559v-205h-348l-6 -104q41 6 74 6q140 0 231.5 -76t91.5 -211q0 -79 -29 -142t-78 -101t-110 -58t-129 -20z" />
    <glyph glyph-name="six.subs" unicode="&#x2086;" horiz-adv-x="860" 
d="M430 -315q-151 0 -252.5 88t-101.5 233q0 132 96 277l213 313h285l-215 -291l2 -2q8 2 37 2q119 0 204.5 -83t85.5 -212q0 -149 -101.5 -237t-252.5 -88zM428 -117q55 0 89 34.5t34 88.5q0 52 -34 87.5t-87 35.5q-54 0 -87.5 -35.5t-33.5 -89.5q0 -51 33 -86t86 -35z" />
    <glyph glyph-name="seven.subs" unicode="&#x2087;" horiz-adv-x="860" 
d="M430 -297h-272l350 688h-397v205h655v-178z" />
    <glyph glyph-name="eight.subs" unicode="&#x2088;" horiz-adv-x="860" 
d="M430 -315q-144 0 -241 72t-97 206q0 71 38.5 125.5t100.5 81.5v4q-54 24 -86 71t-32 111q0 121 92 189.5t225 68.5t225.5 -67t92.5 -187q0 -64 -31 -112.5t-86 -73.5v-4q61 -25 99 -80.5t38 -126.5q0 -134 -97.5 -206t-240.5 -72zM430 254q38 0 64 25.5t26 62.5t-26 62.5
t-64 25.5t-64 -25.5t-26 -62.5t25.5 -62.5t64.5 -25.5zM430 -127q46 0 77.5 28t31.5 72q0 43 -32 74t-77 31q-46 0 -77 -30.5t-31 -74.5t31 -72t77 -28z" />
    <glyph glyph-name="nine.subs" unicode="&#x2089;" horiz-adv-x="860" 
d="M475 -297h-287l215 291l-2 4q-10 -4 -36 -4q-121 0 -205 84.5t-84 210.5q0 148 100.5 236.5t251.5 88.5q153 0 254.5 -88t101.5 -233q0 -129 -98 -277zM428 172q53 0 87 35t34 88q0 51 -33 87t-86 36q-55 0 -89 -34.5t-34 -90.5q0 -52 34 -86.5t87 -34.5z" />
    <glyph glyph-name="plus.subs" unicode="&#x208a;" horiz-adv-x="860" 
d="M518 -256h-176v272h-270v174h270v273h176v-273h270v-174h-270v-272z" />
    <glyph glyph-name="minus.subs" unicode="&#x208b;" horiz-adv-x="860" 
d="M788 16h-716v174h716v-174z" />
    <glyph glyph-name="equal.subs" unicode="&#x208c;" horiz-adv-x="860" 
d="M788 150h-716v174h716v-174zM788 -119h-716v174h716v-174z" />
    <glyph glyph-name="Euro" unicode="&#x20ac;" horiz-adv-x="1323" 
d="M877 -39q-258 0 -423.5 132.5t-222.5 348.5h-188l70 211h92q-2 25 -2 72q0 37 6 74h-160l74 213h117q66 223 248 350t434 127q90 0 182.5 -17t150.5 -45l-100 -258q-91 48 -244 48q-109 0 -202.5 -54.5t-128.5 -150.5h542l-71 -213h-529q-4 -25 -4 -76q0 -47 2 -70h494
l-70 -211h-381q28 -89 122 -146.5t216 -57.5q152 0 260 63l76 -260q-139 -80 -360 -80z" />
    <glyph glyph-name="uni20BE" unicode="&#x20be;" horiz-adv-x="1722" 
d="M1501 0h-1329v268h199v8q-130 68 -207.5 205t-77.5 307q0 224 137 402.5t363 245.5v178h190v-141q44 6 84 6q38 0 82 -6v141h191v-176q234 -74 368.5 -261.5t134.5 -451.5h-360q0 304 -207 416v-416h-137v457q-25 6 -72 6q-35 0 -72 -6v-457h-139v418
q-205 -106 -205 -393q0 -200 122 -320.5t331 -120.5h604v-309z" />
    <glyph glyph-name="trademark" unicode="&#x2122;" horiz-adv-x="2048" 
d="M549 606h-225v649h-242v195h709v-195h-242v-649zM1159 606h-215v844h307l195 -532l188 532h308v-844h-218v531h-4l-198 -531h-162l-197 531h-4v-531z" />
    <glyph glyph-name="uni2126" unicode="&#x2126;" horiz-adv-x="1595" 
d="M717 0h-604v256h327v35q-170 51 -262 198t-92 342q0 155 56 281t153.5 207.5t226 125.5t275.5 44q151 0 281.5 -44.5t226.5 -127t151 -207t55 -276.5q0 -204 -95 -350t-259 -193v-35h328v-256h-606v467q129 32 195.5 124t66.5 230q0 68 -21 129t-61.5 110.5t-108 79
t-153.5 29.5q-82 0 -147.5 -28.5t-107 -77.5t-63.5 -111t-22 -131q0 -141 67 -232t193 -122v-467z" />
    <glyph glyph-name="oneeighth" unicode="&#x215b;" horiz-adv-x="1898" 
d="M1436 1432l-795 -1493l-178 79l794 1498zM610 571h-239v627l-152 -119l-123 166l297 219h217v-893zM1468 -18q-144 0 -241 72t-97 206q0 71 38.5 125.5t101.5 81.5v4q-55 24 -87 71t-32 111q0 121 92 189.5t225 68.5t225.5 -67t92.5 -187q0 -64 -31 -112.5t-86 -73.5v-4
q61 -25 99 -80.5t38 -126.5q0 -134 -97.5 -206t-240.5 -72zM1468 551q38 0 64.5 25.5t26.5 62.5t-26.5 62.5t-64.5 25.5t-64 -25.5t-26 -62.5t25.5 -62.5t64.5 -25.5zM1468 170q46 0 77.5 28t31.5 72q0 43 -32 74t-77 31q-46 0 -77 -30.5t-31 -74.5t31 -72t77 -28z" />
    <glyph glyph-name="threeeighths" unicode="&#x215c;" horiz-adv-x="1904" 
d="M1257 1516l179 -84l-795 -1493l-178 79zM440 539q-130 0 -227 61t-133 188l215 58q15 -48 48 -78.5t83 -30.5q47 0 81 23t34 71q0 97 -160 97h-68v172h74q133 0 133 96q0 35 -26 56.5t-68 21.5q-37 0 -66 -27t-38 -71l-216 51q32 115 126 178t210 63q132 0 223 -63
t91 -184q0 -66 -30 -116t-83 -79v-4q64 -23 98.5 -77t34.5 -126q0 -71 -29.5 -126.5t-78.5 -88t-107 -49t-121 -16.5zM1475 -18q-144 0 -241 72t-97 206q0 71 38.5 125.5t100.5 81.5v4q-55 24 -87 71t-32 111q0 121 92.5 189.5t225.5 68.5t225 -67t92 -187q0 -64 -31 -112.5
t-86 -73.5v-4q61 -25 99 -80.5t38 -126.5q0 -134 -97 -206t-240 -72zM1475 551q38 0 64 25.5t26 62.5t-26 62.5t-64 25.5t-64.5 -25.5t-26.5 -62.5t26 -62.5t65 -25.5zM1475 170q46 0 77 28t31 72q0 43 -31.5 74t-76.5 31q-46 0 -77.5 -30.5t-31.5 -74.5t31.5 -72t77.5 -28z
" />
    <glyph glyph-name="fiveeighths" unicode="&#x215d;" horiz-adv-x="1912" 
d="M475 18l795 1498l178 -84l-795 -1493zM428 539q-125 0 -218 62.5t-126 176.5l211 64q15 -48 49 -76.5t80 -28.5q51 0 83 30t32 83q0 58 -42.5 88.5t-115.5 30.5q-44 0 -111 -14t-118 -35l20 530h559v-205h-348l-6 -104q40 6 74 6q140 0 231.5 -76t91.5 -211
q0 -79 -29 -142t-78 -101t-110 -58t-129 -20zM1483 -18q-144 0 -241 72t-97 206q0 71 38.5 125.5t100.5 81.5v4q-55 24 -87 71t-32 111q0 121 92.5 189.5t225.5 68.5t225 -67t92 -187q0 -64 -31 -112.5t-86 -73.5v-4q62 -25 100 -81t38 -126q0 -134 -97.5 -206t-240.5 -72z
M1483 551q38 0 64 25.5t26 62.5t-26 62.5t-64 25.5t-64 -25.5t-26 -62.5t25.5 -62.5t64.5 -25.5zM1483 170q46 0 77 28t31 72q0 43 -31.5 74t-76.5 31q-46 0 -77.5 -30.5t-31.5 -74.5t31.5 -72t77.5 -28z" />
    <glyph glyph-name="seveneighths" unicode="&#x215e;" horiz-adv-x="1736" 
d="M477 -61l-178 79l795 1498l178 -84zM430 557h-272l350 688h-397v205h655v-178zM1307 -18q-144 0 -241 72t-97 206q0 71 38.5 125.5t100.5 81.5v4q-55 24 -87 71t-32 111q0 121 92.5 189.5t225.5 68.5t225 -67t92 -187q0 -64 -31 -112.5t-86 -73.5v-4q62 -25 100 -81
t38 -126q0 -134 -97.5 -206t-240.5 -72zM1307 551q38 0 64 25.5t26 62.5t-26 62.5t-64 25.5t-64 -25.5t-26 -62.5t25.5 -62.5t64.5 -25.5zM1307 170q46 0 77 28t31 72q0 43 -31.5 74t-76.5 31q-46 0 -77.5 -30.5t-31.5 -74.5t31.5 -72t77.5 -28z" />
    <glyph glyph-name="partialdiff" unicode="&#x2202;" horiz-adv-x="1363" 
d="M612 1477q132 0 236.5 -44.5t170.5 -117t109 -171.5t60.5 -199.5t17.5 -209.5q0 -75 -6 -144.5t-23 -147.5t-43.5 -144t-70 -127.5t-100.5 -104.5t-138 -68.5t-178 -25.5q-223 0 -364.5 139t-141.5 357q0 207 132.5 337t359.5 130q132 0 241 -59q-1 57 -17 111
t-46.5 100.5t-82.5 75t-118 28.5q-78 0 -145.5 -28t-134.5 -107l-158 229q191 191 440 191zM653 246q73 0 121.5 51t68 127.5t17.5 173.5q-96 74 -188 74q-91 0 -141 -59.5t-50 -157.5q0 -92 48 -150.5t124 -58.5z" />
    <glyph glyph-name="uni2206" unicode="&#x2206;" horiz-adv-x="1476" 
d="M1448 0h-1419v205l532 1245h359l528 -1245v-205zM733 1073l-311 -792h622l-309 794z" />
    <glyph glyph-name="product" unicode="&#x220f;" horiz-adv-x="1542" 
d="M430 -438h-309v2048h1302v-2048h-311v1775h-682v-1775z" />
    <glyph glyph-name="summation" unicode="&#x2211;" horiz-adv-x="1363" 
d="M1319 -438h-1266v227l598 809l-573 784v228h1216v-273h-823l524 -737l-559 -766h883v-272z" />
    <glyph glyph-name="minus" unicode="&#x2212;" horiz-adv-x="1363" 
d="M1225 496h-1086v252h1086v-252z" />
    <glyph glyph-name="uni2215" unicode="&#x2215;" horiz-adv-x="204" 
d="M575 1432l-794 -1493l-178 79l794 1498z" />
    <glyph glyph-name="uni2219" unicode="&#x2219;" horiz-adv-x="614" 
d="M309 395q-86 0 -147.5 57.5t-61.5 141.5q0 83 61.5 143t147.5 60q84 0 144.5 -58.5t60.5 -142.5t-60.5 -142.5t-144.5 -58.5z" />
    <glyph glyph-name="radical" unicode="&#x221a;" horiz-adv-x="1165" 
d="M748 -438h-259l-296 614l-105 -49l-111 233l359 162l229 -489l324 1577h297z" />
    <glyph glyph-name="infinity" unicode="&#x221e;" horiz-adv-x="1714" 
d="M473 156q-172 0 -276.5 110t-104.5 277q0 165 101.5 274t271.5 109q121 0 212 -59t181 -165q42 50 79 86t86 70t106 52t120 18q170 0 271.5 -109t101.5 -274q0 -167 -101 -279t-274 -112q-115 0 -208 56.5t-181 154.5q-46 -49 -81 -80.5t-83.5 -64t-103 -48.5t-117.5 -16
zM1249 397q60 0 95.5 40t35.5 102q0 64 -37 104.5t-100 40.5q-59 0 -116 -41.5t-117 -105.5q126 -140 239 -140zM471 399q106 0 234 138q-145 145 -240 145q-57 0 -94 -41.5t-37 -101.5q0 -63 37 -101.5t100 -38.5z" />
    <glyph glyph-name="integral" unicode="&#x222b;" horiz-adv-x="1296" 
d="M416 -438q-41 0 -83 10.5t-81.5 31t-64.5 59t-25 87.5t41.5 90t95.5 41q36 0 60.5 -17t34 -37.5t22.5 -40.5t26 -24q14 11 20.5 44.5t6 66t-3 82.5t-2.5 68v1015q0 50 0.5 84t4.5 85t10 87t18.5 81t30 76t44 62.5t60 51t79.5 31.5t101 12q38 0 79.5 -10t81.5 -30.5
t65.5 -57.5t25.5 -85q0 -58 -38 -97.5t-97 -39.5q-36 0 -61.5 17t-36.5 38t-24.5 42t-27.5 26q-17 -12 -21 -57t-0.5 -129.5t3.5 -91.5v-1090q0 -481 -344 -481z" />
    <glyph glyph-name="approxequal" unicode="&#x2248;" horiz-adv-x="1363" 
d="M250 584h-197q6 74 27.5 137.5t59.5 118.5t101 86.5t144 31.5q87 0 256 -61q160 -59 246 -59t102 120h199q-17 -187 -103.5 -290t-226.5 -103q-92 0 -285 72q-160 59 -219 59q-40 0 -67 -32.5t-37 -79.5zM246 135h-197q5 59 19 113t40 105.5t61.5 89t88 60.5t115.5 23
q94 0 258 -63q57 -21 88.5 -31t80 -20.5t87.5 -10.5q75 0 100 105h199q-6 -57 -19.5 -107.5t-39 -101t-60.5 -87t-88 -59t-119 -22.5q-42 0 -98 13t-91 24.5t-102 36.5q-156 59 -217 59q-41 0 -69 -34.5t-37 -92.5z" />
    <glyph glyph-name="notequal" unicode="&#x2260;" horiz-adv-x="1363" 
d="M606 225l-151 -299l-236 115l96 184h-209v260h343l88 172h-431v261h564l153 296l236 -112l-96 -184h202v-261h-336l-88 -172h424v-260h-559z" />
    <glyph glyph-name="lessequal" unicode="&#x2264;" horiz-adv-x="1363" 
d="M1202 596v-281l-1040 439v211l1040 438v-279l-627 -268zM1202 37h-1040v252h1040v-252z" />
    <glyph glyph-name="greaterequal" unicode="&#x2265;" horiz-adv-x="1363" 
d="M1202 754l-1040 -439v281l626 260l-626 268v279l1040 -438v-211zM1202 37h-1040v252h1040v-252z" />
    <glyph glyph-name="dotmath" unicode="&#x22c5;" horiz-adv-x="614" 
d="M309 395q-86 0 -147.5 57.5t-61.5 141.5q0 83 61.5 143t147.5 60q84 0 144.5 -58.5t60.5 -142.5t-60.5 -142.5t-144.5 -58.5z" />
    <glyph glyph-name="uniFEFF" unicode="&#xfeff;" 
 />
    <glyph glyph-name="uni10D00308" horiz-adv-x="1198" 
d="M369 1235q-70 0 -120 49.5t-50 118.5q0 67 50 116.5t120 49.5q71 0 121.5 -48.5t50.5 -117.5q0 -70 -50.5 -119t-121.5 -49zM815 1235q-71 0 -120.5 49.5t-49.5 118.5q0 67 49.5 116.5t120.5 49.5q69 0 119.5 -48.5t50.5 -117.5q0 -70 -50 -119t-120 -49zM596 -29
q-122 0 -222.5 35.5t-165.5 95.5t-100.5 138.5t-35.5 165.5q0 102 41 186l305 -66q-17 -47 -17 -96q0 -79 50.5 -133.5t142.5 -54.5q87 0 139.5 51.5t52.5 128.5q0 46 -19.5 84.5t-51 68.5t-69.5 59.5t-76 65.5t-69.5 78.5t-51 106.5t-19.5 141h340q1 -40 20.5 -76.5
t50 -67.5t67.5 -63.5t73.5 -71.5t66.5 -83.5t49 -107.5t19 -136q0 -89 -35.5 -170t-100.5 -143t-165 -99t-219 -37z" />
    <glyph glyph-name="uni10D0_uni0301" horiz-adv-x="1198" 
d="M569 1227h-254l213 295h340zM596 -29q-122 0 -222.5 35.5t-165.5 95.5t-100.5 138.5t-35.5 165.5q0 102 41 186l305 -66q-17 -47 -17 -96q0 -79 50.5 -133.5t142.5 -54.5q87 0 139.5 51.5t52.5 128.5q0 46 -19.5 84.5t-51 68.5t-69.5 59.5t-76 65.5t-69.5 78.5t-51 106.5
t-19.5 141h340q1 -40 20.5 -76.5t50 -67.5t67.5 -63.5t73.5 -71.5t66.5 -83.5t49 -107.5t19 -136q0 -89 -35.5 -170t-100.5 -143t-165 -99t-219 -37z" />
    <glyph glyph-name="uni10D00304" horiz-adv-x="1198" 
d="M936 1286h-688v176h688v-176zM596 -29q-122 0 -222.5 35.5t-165.5 95.5t-100.5 138.5t-35.5 165.5q0 102 41 186l305 -66q-17 -47 -17 -96q0 -79 50.5 -133.5t142.5 -54.5q87 0 139.5 51.5t52.5 128.5q0 46 -19.5 84.5t-51 68.5t-69.5 59.5t-76 65.5t-69.5 78.5
t-51 106.5t-19.5 141h340q1 -40 20.5 -76.5t50 -67.5t67.5 -63.5t73.5 -71.5t66.5 -83.5t49 -107.5t19 -136q0 -89 -35.5 -170t-100.5 -143t-165 -99t-219 -37z" />
    <glyph glyph-name="uni10D003040308" horiz-adv-x="1198" 
d="M369 1671q-70 0 -120 49.5t-50 118.5q0 67 50 116.5t120 49.5q71 0 121.5 -48.5t50.5 -117.5q0 -70 -50.5 -119t-121.5 -49zM815 1671q-71 0 -120.5 49.5t-49.5 118.5q0 67 49.5 116.5t120.5 49.5q69 0 119.5 -48.5t50.5 -117.5q0 -70 -50 -119t-120 -49zM936 1286h-688
v176h688v-176zM596 -29q-122 0 -222.5 35.5t-165.5 95.5t-100.5 138.5t-35.5 165.5q0 102 41 186l305 -66q-17 -47 -17 -96q0 -79 50.5 -133.5t142.5 -54.5q87 0 139.5 51.5t52.5 128.5q0 46 -19.5 84.5t-51 68.5t-69.5 59.5t-76 65.5t-69.5 78.5t-51 106.5t-19.5 141h340
q1 -40 20.5 -76.5t50 -67.5t67.5 -63.5t73.5 -71.5t66.5 -83.5t49 -107.5t19 -136q0 -89 -35.5 -170t-100.5 -143t-165 -99t-219 -37z" />
    <glyph glyph-name="uni10D4_uni0301" horiz-adv-x="1302" 
d="M639 1227h-254l213 295h340zM633 -520q-134 0 -241.5 41t-174 109.5t-101 153.5t-34.5 179q0 121 49 217l297 -67q-22 -54 -22 -127q0 -96 61.5 -161t167.5 -65q100 0 157.5 70t57.5 186v519q0 115 -54 177t-145 62q-87 0 -141.5 -49.5t-54.5 -144.5q0 -42 12 -88
l-317 -52q-31 91 -31 162q0 198 146 325.5t390 127.5q236 0 384.5 -145t148.5 -380v-491q0 -256 -155.5 -407.5t-399.5 -151.5z" />
    <glyph glyph-name="uni10D40304" horiz-adv-x="1302" 
d="M1006 1286h-689v176h689v-176zM633 -520q-134 0 -241.5 41t-174 109.5t-101 153.5t-34.5 179q0 121 49 217l297 -67q-22 -54 -22 -127q0 -96 61.5 -161t167.5 -65q100 0 157.5 70t57.5 186v519q0 115 -54 177t-145 62q-87 0 -141.5 -49.5t-54.5 -144.5q0 -42 12 -88
l-317 -52q-31 91 -31 162q0 198 146 325.5t390 127.5q236 0 384.5 -145t148.5 -380v-491q0 -256 -155.5 -407.5t-399.5 -151.5z" />
    <glyph glyph-name="uni10D8_uni0301" horiz-adv-x="1263" 
d="M610 1227h-254l213 295h340zM547 53l-293 -86q-76 99 -123 234.5t-47 294.5q0 133 44.5 240.5t120 176.5t174 105.5t208.5 36.5q111 0 210 -36.5t175.5 -105.5t121 -176.5t44.5 -240.5q0 -159 -47 -294.5t-123 -234.5l-295 86q135 228 135 441q0 120 -55.5 197t-165.5 77
q-107 0 -162 -77t-55 -197q0 -211 133 -441z" />
    <glyph glyph-name="uni10D80304" horiz-adv-x="1263" 
d="M977 1286h-688v176h688v-176zM547 53l-293 -86q-76 99 -123 234.5t-47 294.5q0 133 44.5 240.5t120 176.5t174 105.5t208.5 36.5q111 0 210 -36.5t175.5 -105.5t121 -176.5t44.5 -240.5q0 -159 -47 -294.5t-123 -234.5l-295 86q135 228 135 441q0 120 -55.5 197
t-165.5 77q-107 0 -162 -77t-55 -197q0 -211 133 -441z" />
    <glyph glyph-name="uni10DD0308" horiz-adv-x="1769" 
d="M662 1235q-70 0 -120 49.5t-50 118.5q0 67 50 116.5t120 49.5q71 0 121.5 -48.5t50.5 -117.5q0 -70 -50.5 -119t-121.5 -49zM1108 1235q-72 0 -121 49.5t-49 118.5q0 67 49.5 116.5t120.5 49.5q69 0 119.5 -48.5t50.5 -117.5q0 -70 -50 -119t-120 -49zM569 53l-297 -84
q-87 107 -137.5 257.5t-50.5 324.5q0 107 25 193t67.5 143t100.5 95.5t121 55.5t132 17q129 0 220.5 -64.5t132.5 -167.5h6q41 106 128 169t222 63q90 0 167.5 -28t142 -85.5t102 -157.5t37.5 -233q0 -172 -51 -322.5t-138 -259.5l-297 84q148 236 148 490q0 119 -43 174
t-113 55q-66 0 -105.5 -51.5t-39.5 -155.5v-311h-328v311q0 98 -38.5 152.5t-104.5 54.5q-75 0 -115.5 -60.5t-40.5 -168.5q0 -250 147 -490z" />
    <glyph glyph-name="uni10DD_uni0301" horiz-adv-x="1769" 
d="M862 1227h-254l213 295h340zM569 53l-297 -84q-87 107 -137.5 257.5t-50.5 324.5q0 107 25 193t67.5 143t100.5 95.5t121 55.5t132 17q129 0 220.5 -64.5t132.5 -167.5h6q41 106 128 169t222 63q90 0 167.5 -28t142 -85.5t102 -157.5t37.5 -233q0 -172 -51 -322.5
t-138 -259.5l-297 84q148 236 148 490q0 119 -43 174t-113 55q-66 0 -105.5 -51.5t-39.5 -155.5v-311h-328v311q0 98 -38.5 152.5t-104.5 54.5q-75 0 -115.5 -60.5t-40.5 -168.5q0 -250 147 -490z" />
    <glyph glyph-name="uni10DD0304" horiz-adv-x="1769" 
d="M1229 1286h-688v176h688v-176zM569 53l-297 -84q-87 107 -137.5 257.5t-50.5 324.5q0 107 25 193t67.5 143t100.5 95.5t121 55.5t132 17q129 0 220.5 -64.5t132.5 -167.5h6q41 106 128 169t222 63q90 0 167.5 -28t142 -85.5t102 -157.5t37.5 -233q0 -172 -51 -322.5
t-138 -259.5l-297 84q148 236 148 490q0 119 -43 174t-113 55q-66 0 -105.5 -51.5t-39.5 -155.5v-311h-328v311q0 98 -38.5 152.5t-104.5 54.5q-75 0 -115.5 -60.5t-40.5 -168.5q0 -250 147 -490z" />
    <glyph glyph-name="uni10DD03040308" horiz-adv-x="1769" 
d="M662 1671q-70 0 -120 49.5t-50 118.5q0 67 50 116.5t120 49.5q71 0 121.5 -48.5t50.5 -117.5q0 -70 -50.5 -119t-121.5 -49zM1108 1671q-72 0 -121 49.5t-49 118.5q0 67 49.5 116.5t120.5 49.5q69 0 119.5 -48.5t50.5 -117.5q0 -70 -50 -119t-120 -49zM1229 1286h-688
v176h688v-176zM569 53l-297 -84q-87 107 -137.5 257.5t-50.5 324.5q0 107 25 193t67.5 143t100.5 95.5t121 55.5t132 17q129 0 220.5 -64.5t132.5 -167.5h6q41 106 128 169t222 63q90 0 167.5 -28t142 -85.5t102 -157.5t37.5 -233q0 -172 -51 -322.5t-138 -259.5l-297 84
q148 236 148 490q0 119 -43 174t-113 55q-66 0 -105.5 -51.5t-39.5 -155.5v-311h-328v311q0 98 -38.5 152.5t-104.5 54.5q-75 0 -115.5 -60.5t-40.5 -168.5q0 -250 147 -490z" />
    <glyph glyph-name="uni10E30308" horiz-adv-x="1323" 
d="M410 1235q-70 0 -120 49.5t-50 118.5q0 67 50 116.5t120 49.5q71 0 121.5 -48.5t50.5 -117.5q0 -70 -50.5 -119t-121.5 -49zM856 1235q-72 0 -121 49.5t-49 118.5q0 67 49.5 116.5t120.5 49.5q69 0 119.5 -48.5t50.5 -117.5q0 -70 -50 -119t-120 -49zM643 -520
q-133 0 -241 42.5t-174 112t-101 154t-35 174.5q0 120 45 209l299 -68q-22 -58 -22 -118q0 -96 63 -161t168 -65q101 0 162 67.5t61 184.5v611q0 83 -28.5 123t-89.5 40q-53 0 -85 -37t-32 -102v-256h-322v225q0 73 -30.5 105.5t-94.5 32.5h-116v282h168q209 0 260 -157h6
q36 84 119.5 130t191.5 46q187 0 290 -113t103 -309v-604q-2 -173 -77 -299t-201 -188t-287 -62z" />
    <glyph glyph-name="uni10E3_uni0301" horiz-adv-x="1323" 
d="M610 1227h-254l213 295h340zM643 -520q-133 0 -241 42.5t-174 112t-101 154t-35 174.5q0 120 45 209l299 -68q-22 -58 -22 -118q0 -96 63 -161t168 -65q101 0 162 67.5t61 184.5v611q0 83 -28.5 123t-89.5 40q-53 0 -85 -37t-32 -102v-256h-322v225q0 73 -30.5 105.5
t-94.5 32.5h-116v282h168q209 0 260 -157h6q36 84 119.5 130t191.5 46q187 0 290 -113t103 -309v-604q-2 -173 -77 -299t-201 -188t-287 -62z" />
    <glyph glyph-name="uni10E30302" horiz-adv-x="1323" 
d="M492 1227h-263l254 295h303l250 -295h-266l-139 166zM643 -520q-133 0 -241 42.5t-174 112t-101 154t-35 174.5q0 120 45 209l299 -68q-22 -58 -22 -118q0 -96 63 -161t168 -65q101 0 162 67.5t61 184.5v611q0 83 -28.5 123t-89.5 40q-53 0 -85 -37t-32 -102v-256h-322
v225q0 73 -30.5 105.5t-94.5 32.5h-116v282h168q209 0 260 -157h6q36 84 119.5 130t191.5 46q187 0 290 -113t103 -309v-604q-2 -173 -77 -299t-201 -188t-287 -62z" />
    <glyph glyph-name="uni10E30304" horiz-adv-x="1323" 
d="M977 1286h-688v176h688v-176zM643 -520q-133 0 -241 42.5t-174 112t-101 154t-35 174.5q0 120 45 209l299 -68q-22 -58 -22 -118q0 -96 63 -161t168 -65q101 0 162 67.5t61 184.5v611q0 83 -28.5 123t-89.5 40q-53 0 -85 -37t-32 -102v-256h-322v225q0 73 -30.5 105.5
t-94.5 32.5h-116v282h168q209 0 260 -157h6q36 84 119.5 130t191.5 46q187 0 290 -113t103 -309v-604q-2 -173 -77 -299t-201 -188t-287 -62z" />
    <glyph glyph-name="uni10E303040308" horiz-adv-x="1323" 
d="M410 1671q-70 0 -120 49.5t-50 118.5q0 67 50 116.5t120 49.5q71 0 121.5 -48.5t50.5 -117.5q0 -70 -50.5 -119t-121.5 -49zM856 1671q-72 0 -121 49.5t-49 118.5q0 67 49.5 116.5t120.5 49.5q69 0 119.5 -48.5t50.5 -117.5q0 -70 -50 -119t-120 -49zM977 1286h-688v176
h688v-176zM643 -520q-133 0 -241 42.5t-174 112t-101 154t-35 174.5q0 120 45 209l299 -68q-22 -58 -22 -118q0 -96 63 -161t168 -65q101 0 162 67.5t61 184.5v611q0 83 -28.5 123t-89.5 40q-53 0 -85 -37t-32 -102v-256h-322v225q0 73 -30.5 105.5t-94.5 32.5h-116v282h168
q209 0 260 -157h6q36 84 119.5 130t191.5 46q187 0 290 -113t103 -309v-604q-2 -173 -77 -299t-201 -188t-287 -62z" />
    <glyph glyph-name="uni10F7_uni0301" horiz-adv-x="1259" 
d="M608 1227h-254l213 295h340zM629 -520q-157 0 -286.5 66t-204.5 185.5t-75 268.5q0 67 15 127t37.5 104.5t59.5 85.5t71.5 69t83.5 56.5t84.5 45.5t85.5 38q49 21 75.5 33t62.5 32.5t54 37.5t31.5 41t13.5 51q0 43 -30.5 68.5t-81.5 25.5q-50 0 -80.5 -29t-30.5 -71
q0 -28 6 -43l-315 -43q-17 49 -17 98q0 99 60.5 175t159 114.5t217.5 38.5q193 0 314.5 -94t121.5 -244q0 -57 -14 -106.5t-43.5 -89t-60.5 -70t-80 -60t-87 -48.5t-94 -44q-68 -30 -113.5 -54.5t-91 -60.5t-68 -80.5t-22.5 -99.5q0 -105 65.5 -171t176.5 -66
q110 0 176.5 67t66.5 170q0 80 -30 139l291 107q63 -110 63 -250q0 -157 -76 -276.5t-204 -181.5t-287 -62z" />
    <glyph glyph-name="uni10F70304" horiz-adv-x="1259" 
d="M975 1286h-688v176h688v-176zM629 -520q-157 0 -286.5 66t-204.5 185.5t-75 268.5q0 67 15 127t37.5 104.5t59.5 85.5t71.5 69t83.5 56.5t84.5 45.5t85.5 38q49 21 75.5 33t62.5 32.5t54 37.5t31.5 41t13.5 51q0 43 -30.5 68.5t-81.5 25.5q-50 0 -80.5 -29t-30.5 -71
q0 -28 6 -43l-315 -43q-17 49 -17 98q0 99 60.5 175t159 114.5t217.5 38.5q193 0 314.5 -94t121.5 -244q0 -57 -14 -106.5t-43.5 -89t-60.5 -70t-80 -60t-87 -48.5t-94 -44q-68 -30 -113.5 -54.5t-91 -60.5t-68 -80.5t-22.5 -99.5q0 -105 65.5 -171t176.5 -66
q110 0 176.5 67t66.5 170q0 80 -30 139l291 107q63 -110 63 -250q0 -157 -76 -276.5t-204 -181.5t-287 -62z" />
    <glyph glyph-name="uni10D00308.case" horiz-adv-x="1318" 
d="M420 1573q-72 0 -121 49.5t-49 118.5q0 67 49.5 116.5t120.5 49.5t120.5 -48.5t49.5 -117.5q0 -70 -49.5 -119t-120.5 -49zM864 1573q-70 0 -120 49.5t-50 118.5q0 67 50 116.5t120 49.5q71 0 121.5 -48.5t50.5 -117.5q0 -70 -50.5 -119t-121.5 -49zM651 -39
q-128 0 -237 41.5t-182.5 112t-114.5 165t-41 199.5q0 170 82 312l319 -93q-47 -96 -47 -202q0 -101 62 -170.5t161 -69.5q98 0 161 67.5t63 182.5q0 74 -23.5 138.5t-60.5 114.5t-82 100t-89.5 107t-81 122t-58 158t-19.5 204h350q0 -74 23.5 -142.5t60.5 -125.5t82 -114
t90 -118.5t82 -127t60.5 -152.5t23.5 -183q0 -154 -75.5 -274.5t-208.5 -186t-300 -65.5z" />
    <glyph glyph-name="uni10D0_uni0301.case" horiz-adv-x="1318" 
d="M621 1565h-254l213 295h340zM651 -39q-128 0 -237 41.5t-182.5 112t-114.5 165t-41 199.5q0 170 82 312l319 -93q-47 -96 -47 -202q0 -101 62 -170.5t161 -69.5q98 0 161 67.5t63 182.5q0 74 -23.5 138.5t-60.5 114.5t-82 100t-89.5 107t-81 122t-58 158t-19.5 204h350
q0 -74 23.5 -142.5t60.5 -125.5t82 -114t90 -118.5t82 -127t60.5 -152.5t23.5 -183q0 -154 -75.5 -274.5t-208.5 -186t-300 -65.5z" />
    <glyph glyph-name="uni10D00304.case" horiz-adv-x="1318" 
d="M987 1624h-688v176h688v-176zM651 -39q-128 0 -237 41.5t-182.5 112t-114.5 165t-41 199.5q0 170 82 312l319 -93q-47 -96 -47 -202q0 -101 62 -170.5t161 -69.5q98 0 161 67.5t63 182.5q0 74 -23.5 138.5t-60.5 114.5t-82 100t-89.5 107t-81 122t-58 158t-19.5 204h350
q0 -74 23.5 -142.5t60.5 -125.5t82 -114t90 -118.5t82 -127t60.5 -152.5t23.5 -183q0 -154 -75.5 -274.5t-208.5 -186t-300 -65.5z" />
    <glyph glyph-name="uni10D003040308.case" horiz-adv-x="1318" 
d="M420 1923q-72 0 -121 49.5t-49 118.5q0 67 49.5 116.5t120.5 49.5t120.5 -48.5t49.5 -117.5q0 -70 -49.5 -119t-120.5 -49zM864 1923q-70 0 -120 49.5t-50 118.5q0 67 50 116.5t120 49.5q71 0 121.5 -48.5t50.5 -117.5q0 -70 -50.5 -119t-121.5 -49zM987 1624h-688v176
h688v-176zM651 -39q-128 0 -237 41.5t-182.5 112t-114.5 165t-41 199.5q0 170 82 312l319 -93q-47 -96 -47 -202q0 -101 62 -170.5t161 -69.5q98 0 161 67.5t63 182.5q0 74 -23.5 138.5t-60.5 114.5t-82 100t-89.5 107t-81 122t-58 158t-19.5 204h350q0 -74 23.5 -142.5
t60.5 -125.5t82 -114t90 -118.5t82 -127t60.5 -152.5t23.5 -183q0 -154 -75.5 -274.5t-208.5 -186t-300 -65.5z" />
    <glyph glyph-name="uni10D4_uni0301.case" horiz-adv-x="1374" 
d="M655 1565h-254l213 295h340zM668 -39q-137 0 -250 41t-184 108.5t-109.5 152t-38.5 175.5q0 119 41 203l334 -53q-21 -61 -21 -121q0 -95 65.5 -153t166.5 -58q98 0 160.5 65.5t62.5 176.5v471q0 110 -59 168.5t-152 58.5q-90 0 -148.5 -46t-58.5 -134q0 -35 10 -80
l-346 -35q-22 77 -22 148q0 192 156 316t409 124q160 0 288 -63t201.5 -179.5t73.5 -267.5v-473q0 -166 -78 -291.5t-208.5 -189.5t-292.5 -64z" />
    <glyph glyph-name="uni10D40304.case" horiz-adv-x="1374" 
d="M1022 1624h-688v176h688v-176zM668 -39q-137 0 -250 41t-184 108.5t-109.5 152t-38.5 175.5q0 119 41 203l334 -53q-21 -61 -21 -121q0 -95 65.5 -153t166.5 -58q98 0 160.5 65.5t62.5 176.5v471q0 110 -59 168.5t-152 58.5q-90 0 -148.5 -46t-58.5 -134q0 -35 10 -80
l-346 -35q-22 77 -22 148q0 192 156 316t409 124q160 0 288 -63t201.5 -179.5t73.5 -267.5v-473q0 -166 -78 -291.5t-208.5 -189.5t-292.5 -64z" />
    <glyph glyph-name="uni10D8_uni0301.case" horiz-adv-x="1378" 
d="M666 1565h-254l213 295h340zM594 51l-313 -92q-164 295 -164 643v318q0 176 78 307t206.5 196.5t286.5 65.5q118 0 222 -38.5t182.5 -109.5t124 -180t45.5 -241v-320q0 -346 -164 -641l-316 92q125 276 125 551v311q0 133 -59.5 209t-157.5 76q-102 0 -161.5 -75.5
t-59.5 -209.5v-311q0 -282 125 -551z" />
    <glyph glyph-name="uni10D80304.case" horiz-adv-x="1378" 
d="M1032 1624h-688v176h688v-176zM594 51l-313 -92q-164 295 -164 643v318q0 176 78 307t206.5 196.5t286.5 65.5q118 0 222 -38.5t182.5 -109.5t124 -180t45.5 -241v-320q0 -346 -164 -641l-316 92q125 276 125 551v311q0 133 -59.5 209t-157.5 76q-102 0 -161.5 -75.5
t-59.5 -209.5v-311q0 -282 125 -551z" />
    <glyph glyph-name="uni10DD0308.case" horiz-adv-x="1918" 
d="M735 1573q-71 0 -120.5 49.5t-49.5 118.5q0 67 49.5 116.5t120.5 49.5t120.5 -48.5t49.5 -117.5q0 -70 -49.5 -119t-120.5 -49zM1180 1573q-70 0 -120 49.5t-50 118.5q0 67 50 116.5t120 49.5q71 0 121.5 -48.5t50.5 -117.5q0 -70 -50.5 -119t-121.5 -49zM627 61
l-318 -102q-87 126 -139.5 301.5t-52.5 362.5v311q0 262 126 408.5t335 146.5q125 0 225 -54t151 -169h9q51 115 151 169t223 54q213 0 339 -146t126 -409v-311q0 -187 -52.5 -362.5t-139.5 -301.5l-318 102q75 120 116.5 269.5t41.5 304.5v307q0 256 -158 256
q-83 0 -119 -63t-36 -187v-563h-357v565q0 123 -36.5 185.5t-118.5 62.5q-156 0 -156 -256v-307q0 -155 41.5 -304.5t116.5 -269.5z" />
    <glyph glyph-name="uni10DD_uni0301.case" horiz-adv-x="1918" 
d="M936 1565h-254l213 295h340zM627 61l-318 -102q-87 126 -139.5 301.5t-52.5 362.5v311q0 262 126 408.5t335 146.5q125 0 225 -54t151 -169h9q51 115 151 169t223 54q213 0 339 -146t126 -409v-311q0 -187 -52.5 -362.5t-139.5 -301.5l-318 102q75 120 116.5 269.5
t41.5 304.5v307q0 256 -158 256q-83 0 -119 -63t-36 -187v-563h-357v565q0 123 -36.5 185.5t-118.5 62.5q-156 0 -156 -256v-307q0 -155 41.5 -304.5t116.5 -269.5z" />
    <glyph glyph-name="uni10DD0304.case" horiz-adv-x="1918" 
d="M1303 1624h-689v176h689v-176zM627 61l-318 -102q-87 126 -139.5 301.5t-52.5 362.5v311q0 262 126 408.5t335 146.5q125 0 225 -54t151 -169h9q51 115 151 169t223 54q213 0 339 -146t126 -409v-311q0 -187 -52.5 -362.5t-139.5 -301.5l-318 102q75 120 116.5 269.5
t41.5 304.5v307q0 256 -158 256q-83 0 -119 -63t-36 -187v-563h-357v565q0 123 -36.5 185.5t-118.5 62.5q-156 0 -156 -256v-307q0 -155 41.5 -304.5t116.5 -269.5z" />
    <glyph glyph-name="uni10DD03040308.case" horiz-adv-x="1918" 
d="M735 1923q-71 0 -120.5 49.5t-49.5 118.5q0 67 49.5 116.5t120.5 49.5t120.5 -48.5t49.5 -117.5q0 -70 -49.5 -119t-120.5 -49zM1180 1923q-70 0 -120 49.5t-50 118.5q0 67 50 116.5t120 49.5q71 0 121.5 -48.5t50.5 -117.5q0 -70 -50.5 -119t-121.5 -49zM1303 1624h-689
v176h689v-176zM627 61l-318 -102q-87 126 -139.5 301.5t-52.5 362.5v311q0 262 126 408.5t335 146.5q125 0 225 -54t151 -169h9q51 115 151 169t223 54q213 0 339 -146t126 -409v-311q0 -187 -52.5 -362.5t-139.5 -301.5l-318 102q75 120 116.5 269.5t41.5 304.5v307
q0 256 -158 256q-83 0 -119 -63t-36 -187v-563h-357v565q0 123 -36.5 185.5t-118.5 62.5q-156 0 -156 -256v-307q0 -155 41.5 -304.5t116.5 -269.5z" />
    <glyph glyph-name="uni10E30308.case" horiz-adv-x="1390" 
d="M446 1573q-72 0 -121 49.5t-49 118.5q0 67 49.5 116.5t120.5 49.5t120.5 -48.5t49.5 -117.5q0 -70 -49.5 -119t-120.5 -49zM891 1573q-70 0 -120 49.5t-50 118.5q0 67 50 116.5t120 49.5q71 0 121.5 -48.5t50.5 -117.5q0 -70 -50.5 -119t-121.5 -49zM676 -39
q-138 0 -251.5 41.5t-185 110t-110.5 153.5t-39 176q0 110 39 193l334 -51q-17 -66 -17 -113q0 -97 66 -157t168 -60q98 0 162.5 64t64.5 180v559q0 162 -125 162q-54 0 -85 -39t-31 -107v-217h-347v213q0 71 -26.5 102t-81.5 31h-121v277h178q89 0 159.5 -39.5t96.5 -120.5
h6q31 80 120 126t196 46q204 0 311 -118t107 -308v-559q0 -129 -46.5 -234t-127 -172t-186.5 -103t-228 -36z" />
    <glyph glyph-name="uni10E3_uni0301.case" horiz-adv-x="1390" 
d="M647 1565h-254l213 295h340zM676 -39q-138 0 -251.5 41.5t-185 110t-110.5 153.5t-39 176q0 110 39 193l334 -51q-17 -66 -17 -113q0 -97 66 -157t168 -60q98 0 162.5 64t64.5 180v559q0 162 -125 162q-54 0 -85 -39t-31 -107v-217h-347v213q0 71 -26.5 102t-81.5 31
h-121v277h178q89 0 159.5 -39.5t96.5 -120.5h6q31 80 120 126t196 46q204 0 311 -118t107 -308v-559q0 -129 -46.5 -234t-127 -172t-186.5 -103t-228 -36z" />
    <glyph glyph-name="uni10E30302.case" horiz-adv-x="1390" 
d="M528 1565h-262l254 295h303l250 -295h-266l-139 166zM676 -39q-138 0 -251.5 41.5t-185 110t-110.5 153.5t-39 176q0 110 39 193l334 -51q-17 -66 -17 -113q0 -97 66 -157t168 -60q98 0 162.5 64t64.5 180v559q0 162 -125 162q-54 0 -85 -39t-31 -107v-217h-347v213
q0 71 -26.5 102t-81.5 31h-121v277h178q89 0 159.5 -39.5t96.5 -120.5h6q31 80 120 126t196 46q204 0 311 -118t107 -308v-559q0 -129 -46.5 -234t-127 -172t-186.5 -103t-228 -36z" />
    <glyph glyph-name="uni10E30304.case" horiz-adv-x="1390" 
d="M1014 1624h-688v176h688v-176zM676 -39q-138 0 -251.5 41.5t-185 110t-110.5 153.5t-39 176q0 110 39 193l334 -51q-17 -66 -17 -113q0 -97 66 -157t168 -60q98 0 162.5 64t64.5 180v559q0 162 -125 162q-54 0 -85 -39t-31 -107v-217h-347v213q0 71 -26.5 102t-81.5 31
h-121v277h178q89 0 159.5 -39.5t96.5 -120.5h6q31 80 120 126t196 46q204 0 311 -118t107 -308v-559q0 -129 -46.5 -234t-127 -172t-186.5 -103t-228 -36z" />
    <glyph glyph-name="uni10E303040308.case" horiz-adv-x="1390" 
d="M446 1923q-72 0 -121 49.5t-49 118.5q0 67 49.5 116.5t120.5 49.5t120.5 -48.5t49.5 -117.5q0 -70 -49.5 -119t-120.5 -49zM891 1923q-70 0 -120 49.5t-50 118.5q0 67 50 116.5t120 49.5q71 0 121.5 -48.5t50.5 -117.5q0 -70 -50.5 -119t-121.5 -49zM1014 1624h-688v176
h688v-176zM676 -39q-138 0 -251.5 41.5t-185 110t-110.5 153.5t-39 176q0 110 39 193l334 -51q-17 -66 -17 -113q0 -97 66 -157t168 -60q98 0 162.5 64t64.5 180v559q0 162 -125 162q-54 0 -85 -39t-31 -107v-217h-347v213q0 71 -26.5 102t-81.5 31h-121v277h178
q89 0 159.5 -39.5t96.5 -120.5h6q31 80 120 126t196 46q204 0 311 -118t107 -308v-559q0 -129 -46.5 -234t-127 -172t-186.5 -103t-228 -36z" />
    <glyph glyph-name="uni10F7_uni0301.case" horiz-adv-x="1368" 
d="M662 1565h-254l213 295h340zM684 -39q-168 0 -303.5 61.5t-215 178.5t-79.5 270q0 65 17.5 123t43.5 100.5t70 82t82 64.5t96 52t94.5 41.5t94.5 34.5q112 41 166.5 78t54.5 92q0 49 -36.5 76.5t-90.5 27.5t-90.5 -26.5t-36.5 -71.5q0 -25 8 -53l-330 -43q-20 77 -20 110
q0 95 64 171t170.5 117.5t234.5 41.5q205 0 336 -94.5t131 -253.5q0 -52 -12.5 -97t-31.5 -79.5t-51.5 -66t-62.5 -53t-75 -44.5t-78.5 -37t-83.5 -33q-47 -19 -68 -27.5t-61.5 -27t-59.5 -31t-46.5 -33.5t-40 -40.5t-22.5 -46.5t-10 -56q0 -94 67.5 -154.5t174.5 -60.5
q108 0 176 63.5t68 167.5q0 78 -27 140l336 51q47 -96 47 -217q0 -109 -47.5 -202.5t-128.5 -158t-191 -101t-233 -36.5z" />
    <glyph glyph-name="uni10F70304.case" horiz-adv-x="1368" 
d="M1028 1624h-688v176h688v-176zM684 -39q-168 0 -303.5 61.5t-215 178.5t-79.5 270q0 65 17.5 123t43.5 100.5t70 82t82 64.5t96 52t94.5 41.5t94.5 34.5q112 41 166.5 78t54.5 92q0 49 -36.5 76.5t-90.5 27.5t-90.5 -26.5t-36.5 -71.5q0 -25 8 -53l-330 -43
q-20 77 -20 110q0 95 64 171t170.5 117.5t234.5 41.5q205 0 336 -94.5t131 -253.5q0 -52 -12.5 -97t-31.5 -79.5t-51.5 -66t-62.5 -53t-75 -44.5t-78.5 -37t-83.5 -33q-47 -19 -68 -27.5t-61.5 -27t-59.5 -31t-46.5 -33.5t-40 -40.5t-22.5 -46.5t-10 -56q0 -94 67.5 -154.5
t174.5 -60.5q108 0 176 63.5t68 167.5q0 78 -27 140l336 51q47 -96 47 -217q0 -109 -47.5 -202.5t-128.5 -158t-191 -101t-233 -36.5z" />
    <glyph glyph-name="uni10FC.case" horiz-adv-x="866" 
d="M451 535q-152 0 -248.5 88.5t-96.5 236.5v320q0 131 76 200.5t215 69.5h336v-186h-305q-39 0 -62.5 -23t-23.5 -65v-95h2q57 60 162 60q126 0 205.5 -83t79.5 -212q0 -60 -21.5 -114.5t-62.5 -99t-107.5 -71t-148.5 -26.5zM449 729q55 0 86.5 31t31.5 80q0 51 -31 81.5
t-87 30.5q-52 0 -84.5 -31t-32.5 -81q0 -48 33 -79.5t84 -31.5z" />
    <glyph glyph-name="zero.dnom" horiz-adv-x="860" 
d="M432 -18q-96 0 -167 37t-112.5 103t-61 147.5t-19.5 179.5q0 97 19.5 177.5t61 146t112.5 102t167 36.5q95 0 165.5 -36.5t111 -102t60 -146t19.5 -177.5q0 -98 -19.5 -179.5t-60 -147.5t-111 -103t-165.5 -37zM432 184q33 0 56.5 23.5t35.5 63.5t17.5 84t5.5 94
q0 49 -5.5 91.5t-17.5 82.5t-35.5 63t-56.5 23q-34 0 -58 -23t-37 -63t-18.5 -82.5t-5.5 -91.5q0 -50 5.5 -94t18.5 -84t37 -63.5t58 -23.5z" />
    <glyph glyph-name="one.dnom" horiz-adv-x="860" 
d="M610 0h-239v627l-152 -119l-123 166l297 219h217v-893z" />
    <glyph glyph-name="two.dnom" horiz-adv-x="860" 
d="M766 0h-653v188l348 320q59 53 59 115q0 37 -25 59.5t-67 22.5q-46 0 -76 -34.5t-35 -90.5l-225 28q15 141 112.5 222t233.5 81q64 0 121.5 -16.5t104.5 -49t74.5 -86t27.5 -122.5q0 -46 -12 -85.5t-37.5 -74.5t-47.5 -58.5t-59 -56.5l-178 -157h334v-205z" />
    <glyph glyph-name="three.dnom" horiz-adv-x="860" 
d="M440 -18q-130 0 -227 61t-133 188l215 58q15 -48 48 -78.5t83 -30.5q47 0 81 23t34 71q0 97 -160 97h-68v172h74q133 0 133 96q0 35 -26 56.5t-68 21.5q-37 0 -66 -27.5t-38 -71.5l-216 52q32 115 126 178t210 63q132 0 223 -63t91 -184q0 -66 -30 -116t-83 -79v-4
q64 -23 98.5 -77t34.5 -126q0 -71 -29.5 -126.5t-78.5 -88t-107 -49t-121 -16.5z" />
    <glyph glyph-name="four.dnom" horiz-adv-x="860" 
d="M686 0h-217v170h-410v190l359 533h268v-531h119v-192h-119v-170zM467 637l-180 -275h182v275h-2z" />
    <glyph glyph-name="five.dnom" horiz-adv-x="860" 
d="M428 -18q-125 0 -218 62.5t-126 176.5l211 64q15 -48 49 -76.5t80 -28.5q51 0 83 30t32 83q0 58 -42.5 88.5t-115.5 30.5q-44 0 -111 -14.5t-118 -35.5l20 531h559v-205h-348l-6 -104q41 6 74 6q140 0 231.5 -76t91.5 -211q0 -79 -29 -142t-78 -101t-110 -58t-129 -20z
" />
    <glyph glyph-name="six.dnom" horiz-adv-x="860" 
d="M430 -18q-151 0 -252.5 88t-101.5 233q0 132 96 277l213 313h285l-215 -291l2 -2q8 2 37 2q119 0 204.5 -83t85.5 -212q0 -149 -101.5 -237t-252.5 -88zM428 180q55 0 89 34.5t34 88.5q0 52 -34 87.5t-87 35.5q-54 0 -87.5 -35.5t-33.5 -89.5q0 -51 33 -86t86 -35z" />
    <glyph glyph-name="seven.dnom" horiz-adv-x="860" 
d="M430 0h-272l350 688h-397v205h655v-178z" />
    <glyph glyph-name="eight.dnom" horiz-adv-x="860" 
d="M430 -18q-144 0 -241 72t-97 206q0 71 38.5 125.5t100.5 81.5v4q-54 24 -86 71t-32 111q0 121 92 189.5t225 68.5t225.5 -67t92.5 -187q0 -64 -31 -112.5t-86 -73.5v-4q61 -25 99 -80.5t38 -126.5q0 -134 -97.5 -206t-240.5 -72zM430 551q38 0 64 25.5t26 62.5t-26 62.5
t-64 25.5t-64 -25.5t-26 -62.5t25.5 -62.5t64.5 -25.5zM430 170q46 0 77.5 28t31.5 72q0 43 -32 74t-77 31q-46 0 -77 -30.5t-31 -74.5t31 -72t77 -28z" />
    <glyph glyph-name="nine.dnom" horiz-adv-x="860" 
d="M475 0h-287l215 291l-2 4q-10 -4 -36 -4q-121 0 -205 84.5t-84 210.5q0 148 100.5 236.5t251.5 88.5q153 0 254.5 -88t101.5 -233q0 -129 -98 -277zM428 469q53 0 87 35t34 88q0 51 -33 87t-86 36q-55 0 -89 -34.5t-34 -90.5q0 -52 34 -86.5t87 -34.5z" />
    <glyph glyph-name="zero.numr" horiz-adv-x="860" 
d="M432 539q-96 0 -167 37t-112.5 103t-61 147.5t-19.5 179.5q0 97 19.5 177.5t61 146t112.5 102t167 36.5q95 0 165.5 -36.5t111 -102t60 -146t19.5 -177.5q0 -98 -19.5 -179.5t-60 -147.5t-111 -103t-165.5 -37zM432 741q33 0 56.5 23.5t35.5 63.5t17.5 84t5.5 94
q0 49 -5.5 91.5t-17.5 82.5t-35.5 63t-56.5 23q-34 0 -58 -23t-37 -63t-18.5 -82.5t-5.5 -91.5q0 -50 5.5 -94t18.5 -84t37 -63.5t58 -23.5z" />
    <glyph glyph-name="one.numr" horiz-adv-x="860" 
d="M610 557h-239v627l-152 -119l-123 166l297 219h217v-893z" />
    <glyph glyph-name="two.numr" horiz-adv-x="860" 
d="M766 557h-653v188l348 320q59 53 59 115q0 37 -25 59.5t-67 22.5q-46 0 -76 -34.5t-35 -90.5l-225 28q15 141 112.5 222t233.5 81q64 0 121.5 -16.5t104.5 -49t74.5 -86t27.5 -122.5q0 -46 -12 -85.5t-37.5 -74.5t-47 -57.5t-59.5 -56.5l-178 -158h334v-205z" />
    <glyph glyph-name="three.numr" horiz-adv-x="860" 
d="M440 539q-130 0 -227 61t-133 188l215 58q15 -48 48 -78.5t83 -30.5q47 0 81 23t34 71q0 97 -160 97h-68v172h74q133 0 133 96q0 35 -26 56.5t-68 21.5q-37 0 -66 -27t-38 -71l-216 51q32 115 126 178t210 63q132 0 223 -63t91 -184q0 -66 -30 -116t-83 -79v-4
q64 -23 98.5 -77t34.5 -126q0 -71 -29.5 -126.5t-78.5 -88t-107 -49t-121 -16.5z" />
    <glyph glyph-name="four.numr" horiz-adv-x="860" 
d="M686 557h-217v170h-410v191l359 532h268v-530h119v-193h-119v-170zM467 1194l-180 -274h182v274h-2z" />
    <glyph glyph-name="five.numr" horiz-adv-x="860" 
d="M428 539q-125 0 -218 62.5t-126 176.5l211 64q15 -48 49 -76.5t80 -28.5q51 0 83 30t32 83q0 58 -42.5 88.5t-115.5 30.5q-44 0 -111 -14t-118 -35l20 530h559v-205h-348l-6 -104q40 6 74 6q140 0 231.5 -76t91.5 -211q0 -79 -29 -142t-78 -101t-110 -58t-129 -20z" />
    <glyph glyph-name="six.numr" horiz-adv-x="860" 
d="M430 539q-151 0 -252.5 88t-101.5 233q0 132 96 277l213 313h285l-215 -291l2 -2q8 2 37 2q119 0 204.5 -83t85.5 -212q0 -149 -101.5 -237t-252.5 -88zM428 737q55 0 89 34.5t34 88.5q0 52 -34 87.5t-87 35.5q-54 0 -87.5 -35.5t-33.5 -89.5q0 -51 33 -86t86 -35z" />
    <glyph glyph-name="seven.numr" horiz-adv-x="860" 
d="M430 557h-272l350 688h-397v205h655v-178z" />
    <glyph glyph-name="eight.numr" horiz-adv-x="860" 
d="M430 539q-144 0 -241 72t-97 206q0 71 38.5 125.5t100.5 81.5v4q-54 24 -86 71t-32 111q0 121 92 189.5t225 68.5t225.5 -67t92.5 -187q0 -64 -31 -112.5t-86 -73.5v-4q61 -25 99 -80.5t38 -126.5q0 -134 -97.5 -206t-240.5 -72zM430 1108q38 0 64 25.5t26 62.5t-26 62.5
t-64 25.5t-64 -25.5t-26 -62.5t25.5 -62.5t64.5 -25.5zM430 727q46 0 77.5 28t31.5 72q0 43 -32 74t-77 31q-46 0 -77 -30.5t-31 -74.5t31 -72t77 -28z" />
    <glyph glyph-name="nine.numr" horiz-adv-x="860" 
d="M475 557h-287l215 291l-2 4q-10 -4 -36 -4q-121 0 -205 84.5t-84 210.5q0 148 100.5 236.5t251.5 88.5q153 0 254.5 -88t101.5 -233q0 -129 -98 -277zM428 1026q53 0 87 35t34 88q0 51 -33 87t-86 36q-55 0 -89 -34.5t-34 -90.5q0 -52 34 -86.5t87 -34.5z" />
    <glyph glyph-name="uni0308_uni0300" 
d="M141 1554h-254l-276 269h340zM-223 1159q-70 0 -120 49.5t-50 118.5q0 67 50 116.5t120 49.5q71 0 121.5 -48.5t50.5 -117.5q0 -70 -50.5 -119t-121.5 -49zM223 1159q-71 0 -120.5 49.5t-49.5 118.5q0 67 49.5 116.5t120.5 49.5q69 0 119.5 -48.5t50.5 -117.5
q0 -70 -50 -119t-120 -49z" />
    <glyph glyph-name="uni0308_uni0301" 
d="M119 1554h-254l188 269h342zM-225 1159q-70 0 -120 49.5t-50 118.5q0 67 50 116.5t120 49.5q71 0 121.5 -48.5t50.5 -117.5q0 -70 -50.5 -119t-121.5 -49zM221 1159q-71 0 -120.5 49.5t-49.5 118.5q0 67 49.5 116.5t120.5 49.5q69 0 119.5 -48.5t50.5 -117.5
q0 -70 -50 -119t-120 -49z" />
    <glyph glyph-name="uni0308030C" 
d="M143 1554h-284l-254 269h258l139 -150l139 150h254zM-223 1159q-70 0 -120 49.5t-50 118.5q0 67 50 116.5t120 49.5q71 0 121.5 -48.5t50.5 -117.5q0 -70 -50.5 -119t-121.5 -49zM223 1159q-71 0 -120.5 49.5t-49.5 118.5q0 67 49.5 116.5t120.5 49.5q69 0 119.5 -48.5
t50.5 -117.5q0 -70 -50 -119t-120 -49z" />
    <glyph glyph-name="uni03080304" 
d="M344 1624h-688v176h688v-176zM-223 1159q-70 0 -120 49.5t-50 118.5q0 67 50 116.5t120 49.5q71 0 121.5 -48.5t50.5 -117.5q0 -70 -50.5 -119t-121.5 -49zM223 1159q-71 0 -120.5 49.5t-49.5 118.5q0 67 49.5 116.5t120.5 49.5q69 0 119.5 -48.5t50.5 -117.5
q0 -70 -50 -119t-120 -49z" />
    <glyph glyph-name="uni030C.alt" 
d="M41 1051h-258l137 399h297z" />
    <glyph glyph-name="uni0308.case" 
d="M-223 1573q-71 0 -120.5 49.5t-49.5 118.5q0 67 49.5 116.5t120.5 49.5t120.5 -48.5t49.5 -117.5q0 -70 -49.5 -119t-120.5 -49zM221 1573q-70 0 -120 49.5t-50 118.5q0 67 50 116.5t120 49.5q71 0 121.5 -48.5t50.5 -117.5q0 -70 -50.5 -119t-121.5 -49z" />
    <glyph glyph-name="uni0308_uni0300.case" 
d="M131 1935h-254l-268 256h342zM-223 1552q-70 0 -120 49.5t-50 118.5q0 67 50 116.5t120 49.5q71 0 121.5 -48.5t50.5 -117.5q0 -70 -50.5 -119t-121.5 -49zM223 1552q-71 0 -120.5 49t-49.5 119q0 67 49.5 116.5t120.5 49.5q69 0 119.5 -48.5t50.5 -117.5q0 -70 -50 -119
t-120 -49z" />
    <glyph glyph-name="uni0308_uni0301.case" 
d="M129 1935h-254l180 256h342zM-223 1552q-70 0 -120 49.5t-50 118.5q0 67 50 116.5t120 49.5q71 0 121.5 -48.5t50.5 -117.5q0 -70 -50.5 -119t-121.5 -49zM223 1552q-71 0 -120.5 49t-49.5 119q0 67 49.5 116.5t120.5 49.5q69 0 119.5 -48.5t50.5 -117.5q0 -70 -50 -119
t-120 -49z" />
    <glyph glyph-name="uni0308030C.case" 
d="M143 1935h-284l-244 256h256l131 -137l129 137h254zM-223 1552q-70 0 -120 49.5t-50 118.5q0 67 50 116.5t120 49.5q71 0 121.5 -48.5t50.5 -117.5q0 -70 -50.5 -119t-121.5 -49zM223 1552q-71 0 -120.5 49t-49.5 119q0 67 49.5 116.5t120.5 49.5q69 0 119.5 -48.5
t50.5 -117.5q0 -70 -50 -119t-120 -49z" />
    <glyph glyph-name="uni03080304.case" 
d="M344 1993h-688v176h688v-176zM-223 1552q-71 0 -120.5 49t-49.5 119q0 67 49.5 116.5t120.5 49.5t120.5 -48.5t49.5 -117.5q0 -70 -49.5 -119t-120.5 -49zM221 1552q-70 0 -120 49.5t-50 118.5q0 67 50 116.5t120 49.5q71 0 121.5 -48.5t50.5 -117.5q0 -70 -50.5 -119
t-121.5 -49z" />
    <glyph glyph-name="uni0307.case" 
d="M0 1565q-77 0 -129.5 51.5t-52.5 122.5q0 72 52.5 124t129.5 52q75 0 128.5 -51.5t53.5 -124.5t-53.5 -123.5t-128.5 -50.5z" />
    <glyph glyph-name="gravecomb.case" 
d="M276 1565h-253l-299 295h339z" />
    <glyph glyph-name="acutecomb.case" 
d="M-23 1565h-253l213 295h339z" />
    <glyph glyph-name="uni030B.case" 
d="M-248 1565h-254l213 295h340zM203 1565h-254l213 295h340z" />
    <glyph glyph-name="uni0302.case" 
d="M-141 1565h-262l253 295h304l249 -295h-266l-139 166z" />
    <glyph glyph-name="uni030C.case" 
d="M152 1565h-302l-253 295h266l139 -166l139 166h262z" />
    <glyph glyph-name="uni0306.case" 
d="M-2 1565q-151 0 -247.5 71.5t-106.5 223.5h172q18 -113 184 -113q79 0 125.5 23.5t58.5 89.5h172q-13 -152 -109.5 -223.5t-248.5 -71.5z" />
    <glyph glyph-name="uni030A.case" 
d="M0 1534q-93 0 -158 62t-65 155q0 95 64.5 158t158.5 63q93 0 158 -63t65 -156q0 -94 -65 -156.5t-158 -62.5zM0 1634q51 0 86 34t35 85t-35 85t-86 34q-52 0 -86.5 -35t-34.5 -86q0 -49 35 -83t86 -34z" />
    <glyph glyph-name="tildecomb.case" 
d="M-233 1575h-148q7 56 23 101.5t42.5 83.5t69 59.5t96.5 21.5q76 0 166 -41q87 -41 134 -41q65 0 86 84h145q-13 -119 -69.5 -194.5t-161.5 -75.5q-89 0 -168 43q-73 41 -129 41q-63 0 -86 -82z" />
    <glyph glyph-name="uni0304.case" 
d="M344 1624h-688v176h688v-176z" />
    <glyph glyph-name="hookabovecomb.case" 
d="M102 1544h-188q0 53 21.5 88t76.5 66q60 35 60 80q0 28 -17 44.5t-47 16.5q-39 0 -59.5 -23t-26.5 -77l-201 24q15 111 91 167.5t200 56.5q122 0 193 -57.5t71 -141.5q0 -116 -114 -166q-60 -24 -60 -78z" />
    </font>
</defs>
</svg>
