<svg width="520" height="563" viewBox="0 0 520 563" fill="none" xmlns="http://www.w3.org/2000/svg">
<mask id="mask0_1920_3554" style="mask-type:alpha" maskUnits="userSpaceOnUse" x="0" y="0" width="520" height="563">
<path d="M520 0H0V562.208H520V0Z" fill="white"/>
</mask>
<g mask="url(#mask0_1920_3554)">
<path d="M215.629 374.029L162.937 367.006L163.427 360.894L101.803 369.099C101.803 369.099 68.1721 459.238 98.1059 646.624H140.972L155.914 456.604H161.384L176.815 646.624H219.681C249.598 459.238 215.629 374.029 215.629 374.029Z" fill="#282828"/>
<path d="M211.441 117.677C204.317 109.286 198.593 99.4937 193.748 85.7677C188.531 71.0288 171.479 77.0223 171.479 77.0223C171.479 77.0223 157.263 58.7378 135.872 65.1028C114.481 71.4677 107.053 86.6963 106.614 104.795C106.175 122.894 91.9425 125.713 80.9854 146.648C61.6373 183.605 94.2049 214.738 153.515 206.094L153.6 205.52C159.441 207.292 166.6 208.069 175.328 207.546C246.558 203.325 239.687 150.92 211.441 117.677Z" fill="#282828"/>
<path d="M188.109 145.078C193.967 150.396 207.051 130.238 201.396 124.582C195.74 118.926 191.418 127.807 191.418 127.807L188.885 133.817L186.977 141.955L186.521 144.082L188.109 145.078Z" fill="#F3978E"/>
<path d="M198.663 131.724C198.663 131.724 194.223 129.732 190.289 136.147" stroke="#282828" stroke-width="0.9928" stroke-miterlimit="10" stroke-linecap="round" stroke-linejoin="round"/>
<path d="M118.87 144.47C113.484 150.261 98.7282 131.284 103.894 125.172C109.061 119.061 114.109 127.536 114.109 127.536L117.131 133.31L119.714 141.262L120.339 143.355L118.87 144.47Z" fill="#F3978E"/>
<path d="M107.221 132.061C107.221 132.061 111.475 129.697 115.932 135.775" stroke="#282828" stroke-width="0.9928" stroke-miterlimit="10" stroke-linecap="round" stroke-linejoin="round"/>
<path d="M198.374 105.385C198.374 132.044 178.047 144.689 152.959 144.689C127.887 144.689 107.543 132.044 107.543 105.385C107.543 78.727 127.87 60.5776 152.959 60.5776C178.047 60.5776 198.374 78.7101 198.374 105.385Z" fill="#282828"/>
<path d="M171.48 164.881H134.117V213.251H171.48V164.881Z" fill="#FFB1A5"/>
<path d="M128.664 161.859C128.664 161.859 139.064 182.608 151.861 185.85C155.272 186.711 158.935 186.424 162.228 185.259C167.039 183.554 173.151 176.378 174.181 168.426L174.671 163.885C174.654 163.885 151.895 176.277 128.664 161.859Z" fill="#282828"/>
<path d="M192.212 107.225C192.212 123.602 189.899 137.716 187.586 147.745C185.323 157.554 178.959 164.425 169.977 169.946L168.339 170.959C158.834 176.801 146.543 176.936 136.886 171.314C127.144 165.641 120.324 158.145 118.23 147.61C114.414 128.447 113.992 107.242 113.992 107.242C113.992 107.242 110.362 65.9123 152.537 66.7227C194.711 67.5331 192.212 107.225 192.212 107.225Z" fill="#FFB1A5"/>
<path d="M150.156 133.056V136.45C150.156 136.787 150.224 137.108 150.342 137.412C150.815 138.577 152.165 139.134 153.381 138.813L155.998 138.121" stroke="#282828" stroke-width="1.2298" stroke-miterlimit="10" stroke-linecap="round" stroke-linejoin="round"/>
<path d="M158.936 110.653L181.373 115.971C181.373 115.971 180.36 110.197 171.176 108.103C162.008 106.01 158.936 110.653 158.936 110.653Z" fill="#282828"/>
<path d="M147.168 110.653L124.443 115.971C124.443 115.971 125.473 110.197 134.776 108.103C144.062 106.01 147.168 110.653 147.168 110.653Z" fill="#282828"/>
<path d="M139.012 124.581C139.012 126.523 137.425 128.093 135.484 128.093C133.525 128.093 131.955 126.523 131.955 124.581C131.955 122.639 133.542 121.069 135.484 121.069C137.425 121.069 139.012 122.639 139.012 124.581Z" fill="#282828"/>
<path d="M172.528 124.581C172.528 126.523 170.941 128.093 168.999 128.093C167.041 128.093 165.471 126.523 165.471 124.581C165.471 122.639 167.058 121.069 168.999 121.069C170.958 121.069 172.528 122.639 172.528 124.581Z" fill="#282828"/>
<path d="M136.684 144.689H167.715C167.715 144.689 165.52 153.215 151.456 153.215C140.736 153.215 136.684 144.689 136.684 144.689Z" fill="white"/>
<path d="M114.533 120.935C114.533 120.935 131.399 98.1428 127.516 75.0298C127.516 75.0298 115.005 81.3272 111.73 97.5856C108.471 113.861 114.533 120.935 114.533 120.935Z" fill="#282828"/>
<path d="M192.228 120.175C192.228 120.175 172.644 96.5893 176.527 73.4932C176.527 73.4932 190.118 81.3438 193.377 97.6023C196.635 113.861 192.228 120.175 192.228 120.175Z" fill="#282828"/>
<path d="M115.951 84.1293C115.951 84.1293 135.299 110.146 194.559 106.077C194.559 106.077 187.789 68.9851 159.071 65.2877C159.071 65.2877 125.912 61.3202 115.951 84.1293Z" fill="#282828"/>
<path d="M61.9409 488.445C61.0799 489.796 111.256 270.13 96.3656 273.456C94.998 273.76 68.9136 276.174 65.0474 284.058C53.8032 306.918 45.75 486.774 45.75 486.774L61.9409 488.445Z" fill="#FFB1A5"/>
<path d="M45.7317 486.791C45.7317 486.791 37.6447 524.305 68.22 528.408C70.2291 528.678 72.1875 527.496 72.8459 525.571L72.9304 525.318C73.6563 523.191 72.5927 520.929 70.5498 520.017C65.5693 517.788 57.8369 512.149 61.6693 499.369C61.6693 499.369 66.0927 498.829 68.5239 507.067C69.1485 509.195 71.5291 510.258 73.5044 509.262C74.855 508.587 75.6148 507.135 75.4291 505.632C74.7031 499.858 71.7992 485.964 60.6563 482.232L45.7317 486.791Z" fill="#FFB1A5"/>
<path d="M56.0156 336.852C56.0156 336.852 84.9195 377.558 85.0715 376.781C85.2234 375.987 95.1845 319.615 95.1845 319.615L60.1014 304.42L56.0156 336.852Z" fill="#F3978E"/>
<path d="M136.344 205.282C137.576 205.282 64.8944 206.582 51.6074 298.341L93.3762 304.74L101.801 374.028H218.328L241.458 246.021C241.458 246.021 225.014 218.282 177.083 204.708L136.344 205.282Z" fill="#00857B"/>
<path d="M100.822 216.374C100.822 216.374 111.087 230.016 153.177 230.016C194.878 230.016 205.531 215.665 205.531 215.665C205.531 215.665 180.95 201.939 152.434 197.482C152.434 197.499 126.957 202.023 100.822 216.374Z" fill="#FFB1A5"/>
<path d="M243.805 507.118L243.906 690.131H334.45L341.406 507.118H243.805Z" fill="#005683"/>
<path d="M440.41 507.118L440.309 690.131H349.764L342.809 507.118H440.41Z" fill="#005683"/>
<path d="M390.959 507.118H297.342V570.7H390.959V507.118Z" fill="#005683"/>
<path d="M497.61 347.387C503.232 409.398 497.306 454.595 498.944 568.707L444.901 570.97L436.848 357.365L497.61 347.387Z" fill="#FFB1A5"/>
<path d="M443.499 395.79C443.499 395.79 476.961 392.735 499.838 377.641L499.23 364.354L443.465 371.951L443.499 395.79Z" fill="#F3978E"/>
<path d="M389.812 204.606C389.812 204.606 496.109 231.332 515.372 366.262C515.372 366.262 463.355 388.818 411.22 379.11L422.954 333.982L389.812 204.606Z" fill="#C98BD2"/>
<path d="M72.3073 260.709L151.455 354.174L127.245 422.382C127.245 422.382 67.0904 338.743 40.0605 274.097L72.3073 260.709Z" fill="#FFB1A5"/>
<path d="M74.9097 264.069C74.9097 264.069 47.1201 279.77 40.0461 274.097C27.6876 264.17 17.4902 227.837 17.4902 227.837C17.4902 227.837 69.4565 208.253 68.9669 209.013C68.4941 209.772 74.9097 264.069 74.9097 264.069Z" fill="#FFB1A5"/>
<path d="M74.9078 264.069C74.4182 261.266 85.2065 231.096 88.9208 219.767C89.8156 217.032 87.9247 214.044 84.9701 213.47C83.0455 213.099 79.9896 213.335 78.5377 216.104L65.5039 238.389L74.9078 264.069Z" fill="#FFB1A5"/>
<path d="M73.9649 231.451L65.0169 186.93C64.4935 183.975 61.5052 181.933 58.5338 182.49C55.9675 182.979 54.2623 185.259 54.5662 187.842L58.4662 221L73.9649 231.451Z" fill="#FFB1A5"/>
<path d="M56.1693 215.023L44.0134 183.232C43.0004 180.447 39.877 178.91 37.1082 179.839C34.7108 180.649 33.3602 183.064 33.9342 185.545L42.9498 222.283L56.1693 215.023Z" fill="#FFB1A5"/>
<path d="M43.1013 224.393L27.7208 193.16C26.3026 190.256 22.7909 188.922 19.9208 190.171C17.2195 191.353 16.0208 194.409 17.1689 197.212L29.426 226.706L43.1013 224.393Z" fill="#FFB1A5"/>
<path d="M17.489 227.838L5.41759 208.693C4.42148 206.447 5.33317 203.915 7.52798 202.918C9.62148 201.956 12.2046 202.716 13.5552 204.674L29.4254 226.69L17.489 227.838Z" fill="#FFB1A5"/>
<path d="M71.5326 228.108C71.5326 228.108 53.417 226.2 51.543 250.36" stroke="#282828" stroke-width="1.5317" stroke-miterlimit="10" stroke-linecap="round" stroke-linejoin="round"/>
<path d="M111.191 390.473C111.191 390.473 126.082 441.983 155.746 435.146C185.41 428.291 231.636 364.946 231.636 364.946L221.286 256.775L138.036 359.239L111.191 390.473Z" fill="#FFB1A5"/>
<path d="M163.85 327.398C163.85 327.398 191.96 369.791 215.934 384.749L231.635 364.946L171.092 318.112L163.85 327.398Z" fill="#F3978E"/>
<path d="M286.826 202.26C286.826 202.26 204.301 220.865 160.32 316.778C160.32 316.778 186.894 356.808 229.49 374.603L258.006 339.671L286.826 202.26Z" fill="#C98BD2"/>
<path d="M286.825 201.973C254.595 218.502 234.318 240.433 234.318 240.433L240.683 520.794H443.838L443.179 241.885C443.179 241.885 417.568 216.83 389.812 204.607C366.243 194.224 309.752 190.222 286.825 201.973Z" fill="#C98BD2"/>
<path d="M382.96 338.574C367.36 338.574 354.697 325.929 354.697 310.312V282.05H411.205V310.312C411.222 325.929 398.56 338.574 382.96 338.574Z" stroke="#282828" stroke-width="1.3968" stroke-miterlimit="10" stroke-linecap="round" stroke-linejoin="round"/>
<path d="M443.502 380.158L446.136 288.432" stroke="#282828" stroke-width="1.3968" stroke-miterlimit="10" stroke-linecap="round" stroke-linejoin="round"/>
<path d="M237.442 364.861L233.053 285.358" stroke="#282828" stroke-width="1.3968" stroke-miterlimit="10" stroke-linecap="round" stroke-linejoin="round"/>
<path d="M289.206 99.5601L280.731 57.6731C280.258 54.2627 278.925 48.9952 280.545 44.0484C283.23 35.8601 293.09 20.1419 309.939 27.3341L313.586 43.9134C313.586 43.9134 296.095 47.4419 289.071 70.3354L289.206 99.5601Z" fill="#282828"/>
<path d="M308.704 35.978C308.401 41.4819 303.538 65.5741 286.452 74.3365C286.469 74.3534 271.494 42.2585 308.704 35.978Z" fill="#282828"/>
<path d="M368.639 194.257V123.111H303.048V194.257L283.531 203.154C283.531 203.154 288.107 232.632 336.527 233.291C384.948 233.949 389.81 204.606 389.81 204.606L368.639 194.257Z" fill="#FFB1A5"/>
<path d="M309.955 27.334C309.955 27.334 321.993 -4.42314 359.102 12.46C381.573 22.6743 387.854 36.3665 390.538 46.0743C391.433 49.2989 391.788 54.3808 391.534 57.4028L382.552 99.56L347.503 41.2288L313.585 43.9132L309.955 27.334Z" fill="#282828"/>
<path d="M382.553 99.5596C382.553 99.5596 386.976 92.5194 396.093 95.9804C405.21 99.4414 401.091 121.592 387.415 124.412C387.415 124.412 382.519 125.475 378.67 122.115C378.67 122.132 382.03 105.773 382.553 99.5596Z" fill="#F3978E"/>
<path d="M394.286 103.815C394.286 103.815 386.655 101.265 381.219 112.509" stroke="#282828" stroke-width="1.3968" stroke-miterlimit="10" stroke-linecap="round" stroke-linejoin="round"/>
<path d="M289.205 99.5596C289.205 99.5596 284.782 92.5194 275.665 95.9804C266.548 99.4414 270.667 121.592 284.343 124.412C284.343 124.412 289.239 125.475 293.088 122.115C293.105 122.132 289.745 105.773 289.205 99.5596Z" fill="#F3978E"/>
<path d="M277.469 103.814C277.469 103.814 285.1 101.265 290.536 112.509" stroke="#282828" stroke-width="1.3968" stroke-miterlimit="10" stroke-linecap="round" stroke-linejoin="round"/>
<path d="M383.464 78.5571C383.464 91.9116 382.164 119.836 373.942 136.416C366.243 151.982 353.497 160.356 336.782 160.862C320.068 161.369 307.625 154.919 297.647 134.71C287.669 114.501 288.142 78.7934 288.142 78.7934C288.142 78.7934 288.142 31.0986 335.28 31.0986C384.95 31.0986 383.464 78.5571 383.464 78.5571Z" fill="#FFB1A5"/>
<path d="M303.541 144.671C303.541 144.671 309.028 172.545 333.289 175.736C361.197 179.417 368.625 145.38 368.625 145.38C368.625 145.38 356.301 160.829 336.784 160.862C315.038 160.879 303.541 144.671 303.541 144.671Z" fill="#282828"/>
<path d="M332.459 98.3442V109.386C332.459 109.859 332.543 110.314 332.712 110.736C333.371 112.374 335.245 113.151 336.95 112.695L340.614 111.716" stroke="#282828" stroke-width="1.3968" stroke-miterlimit="10" stroke-linecap="round" stroke-linejoin="round"/>
<path d="M318.532 93.0764C318.532 95.44 316.607 97.3647 314.243 97.3647C311.88 97.3647 309.955 95.44 309.955 93.0764C309.955 90.7128 311.88 88.7881 314.243 88.7881C316.607 88.7881 318.532 90.7128 318.532 93.0764Z" fill="#282828"/>
<path d="M358.764 93.0764C358.764 95.44 356.839 97.3647 354.476 97.3647C352.112 97.3647 350.188 95.44 350.188 93.0764C350.188 90.7128 352.112 88.7881 354.476 88.7881C356.839 88.7881 358.764 90.7128 358.764 93.0764Z" fill="#282828"/>
<path d="M343.482 71.7363L372.336 79.1817C372.336 79.1817 371.019 71.0947 359.217 68.1402C347.416 65.2025 343.482 71.7363 343.482 71.7363Z" fill="#282828"/>
<path d="M325.572 71.7363L296.719 79.1817C296.719 79.1817 298.036 71.0947 309.837 68.1402C321.621 65.2025 325.572 71.7363 325.572 71.7363Z" fill="#282828"/>
<path d="M319.83 120.512C319.83 120.512 324.085 123.77 335.278 123.77C345.459 123.77 351.807 120.512 351.807 120.512" stroke="#282828" stroke-width="1.3968" stroke-miterlimit="10" stroke-linecap="round" stroke-linejoin="round"/>
<path d="M313.097 112.56C323.167 112.56 331.331 104.396 331.331 94.326C331.331 84.2558 323.167 76.0923 313.097 76.0923C303.027 76.0923 294.863 84.2558 294.863 94.326C294.863 104.396 303.027 112.56 313.097 112.56Z" stroke="white" stroke-width="1.9514" stroke-miterlimit="10"/>
<path d="M357.886 112.56C367.956 112.56 376.12 104.396 376.12 94.326C376.12 84.2558 367.956 76.0923 357.886 76.0923C347.816 76.0923 339.652 84.2558 339.652 94.326C339.652 104.396 347.816 112.56 357.886 112.56Z" stroke="white" stroke-width="1.9514" stroke-miterlimit="10"/>
<path d="M331.33 94.3261C331.33 94.3261 335.652 90.291 339.653 94.3261" stroke="white" stroke-width="1.9514" stroke-miterlimit="10"/>
<path d="M294.861 94.3258L288.732 94.1738" stroke="white" stroke-width="1.9514" stroke-miterlimit="10"/>
<path d="M376.119 94.3254L382.94 94.2241" stroke="white" stroke-width="1.9514" stroke-miterlimit="10"/>
<path d="M303.541 37.0757C303.541 37.0757 312.303 61.9614 351.81 61.1848C378.654 60.6614 385.07 80.0939 385.07 80.0939C385.07 80.0939 380.393 36.6536 379.16 37.0757C377.928 37.4809 338.303 26.5068 338.303 26.5068L303.541 37.0757Z" fill="#282828"/>
</g>
</svg>
