<svg width="629" height="740" viewBox="0 0 629 740" fill="none" xmlns="http://www.w3.org/2000/svg">
<g clip-path="url(#clip0_1920_4582)">
<path d="M484.646 434.364C485.197 418.957 473.825 405.734 458.511 403.973C441.985 402.084 427.166 414.207 425.772 430.787C424.763 442.654 425.919 463.086 427.349 484.802L487.673 477.539L484.646 434.364Z" fill="#F8F2DA"/>
<path d="M487.656 477.539L427.332 484.802C429.239 513.542 431.642 530.012 430.303 546.391C428.781 564.879 443.362 580.707 461.905 580.744C479.017 580.78 493.085 567.226 493.708 550.132L487.656 477.539Z" fill="#FCA0A0"/>
<path d="M331.423 466.166L469.99 535.495C485.36 544.023 489.688 560.915 481.692 573.736C473.603 586.685 456.253 590.133 443.836 581.237L318.566 491.018L331.423 466.166Z" fill="#FCA0A0"/>
<path d="M309.761 499.198C323.993 504.003 339.418 496.374 344.224 482.141C349.029 467.908 341.399 452.484 327.166 447.678C312.934 442.873 297.509 450.503 292.704 464.735C287.898 478.95 295.528 494.374 309.761 499.198Z" fill="#FCA0A0"/>
<path d="M312.274 448.504C312.274 448.504 310.899 437.866 324.728 441.387C338.557 444.909 350.919 455.62 344.206 482.141L312.274 448.504Z" fill="#FCA0A0"/>
<path d="M333.462 397.021L304.171 390.18C302.539 389.794 301.016 390.931 300.741 392.692L289.498 468.771C289.241 470.55 290.342 472.292 291.974 472.678L321.265 479.519C322.897 479.904 324.419 478.767 324.695 477.006L335.938 400.927C336.194 399.148 335.094 397.388 333.462 397.021Z" fill="#37305E"/>
<path d="M336.286 397.626L306.995 390.784C305.363 390.399 303.841 391.536 303.565 393.297L292.322 469.376C292.066 471.155 293.166 472.897 294.798 473.282L324.089 480.124C325.721 480.509 327.244 479.372 327.519 477.611L338.762 401.532C339.037 399.753 337.918 397.993 336.286 397.626Z" fill="#261C42"/>
<path d="M334.675 405.017L308.942 399.02L299.771 461.031L325.504 467.028L334.675 405.017Z" fill="#E7E7E7"/>
<path d="M308.941 399.02L325.503 467.028L334.674 405.017L308.941 399.02Z" fill="white"/>
<path d="M332.433 444.285C332.433 444.285 326.784 441.589 320.457 440.8C317.669 440.452 314.991 441.974 313.909 444.56C312.918 446.926 313.487 449.641 315.339 451.42L325.776 461.416C325.776 461.416 324.106 476.235 331.094 483.223L337.385 459.692L332.433 444.285Z" fill="#FCA0A0"/>
<path d="M506.022 529.592L442.14 543.641C442.14 543.641 425.12 581.497 396.801 750.436C396.361 753.041 395.939 755.627 395.518 758.194C426.037 758.616 456.575 759.46 487.094 760.505L527.756 561.303L506.022 529.592Z" fill="#785AFC"/>
<path d="M580.824 664.911C578.66 583.165 537.246 538.981 537.246 538.981L458.6 541.439L479.563 760.247C513.458 761.348 547.352 762.705 581.246 763.934C581.521 725.161 581.484 689.726 580.824 664.911Z" fill="#785AFC"/>
<path d="M444.438 613.025L468.574 632.98L479.542 760.23" stroke="#121E35" stroke-width="1.1396" stroke-miterlimit="10" stroke-linecap="round" stroke-linejoin="round"/>
<path d="M464.105 397.975L441.802 407.384C438.226 408.924 435.97 412.519 436.153 416.408L442.151 543.621L543.723 542.392L549.721 410.887C549.904 403.881 544.292 395.48 537.304 394.93L495.982 394.178L464.105 397.975Z" fill="#F8F2DA"/>
<path d="M439.249 444.286C439.249 444.286 428.831 457.51 439.304 483.353" stroke="#121E35" stroke-width="1.1396" stroke-miterlimit="10" stroke-linecap="round" stroke-linejoin="round"/>
<path d="M589.353 453.548L535.98 482.563C548.361 508.571 562.043 536.468 566.848 552.204C572.259 569.94 591.664 579.276 608.904 572.453C624.824 566.162 632.894 548.389 627.154 532.249L589.353 453.548Z" fill="#FCA0A0"/>
<path d="M570.607 414.537C565.435 400.029 549.974 391.923 535.099 395.958C519.051 400.304 519.454 437.647 524.278 453.567C527.726 464.975 526.626 462.939 535.98 482.582L589.352 453.567L570.607 414.537Z" fill="#F8F2DA"/>
<path d="M535.446 482.563L523.744 453.548" stroke="#121E35" stroke-width="1.1396" stroke-miterlimit="10" stroke-linecap="round" stroke-linejoin="round"/>
<path d="M458.342 518.421L600.466 521.502C615.543 522.291 626.914 535.515 625.429 550.536C623.925 565.741 609.894 576.507 594.817 574.031L459.699 550.701L458.342 518.421Z" fill="#FCA0A0"/>
<path d="M460.707 559.358C475.582 557.359 486.036 543.677 484.037 528.802C482.038 513.928 468.356 503.473 453.481 505.473C438.606 507.472 428.152 521.154 430.151 536.029C432.15 550.903 445.833 561.358 460.707 559.358Z" fill="#FCA0A0"/>
<path d="M440.493 512.809C440.493 512.809 434.551 503.877 448.508 500.906C462.466 497.934 478.294 502.061 484.035 528.802L440.493 512.809Z" fill="#FCA0A0"/>
<path d="M547.262 352.644C547.505 334.788 533.226 320.115 515.37 319.872C497.513 319.63 482.841 333.908 482.598 351.765C482.355 369.621 496.634 384.294 514.49 384.536C532.347 384.779 547.019 370.501 547.262 352.644Z" fill="#121E35"/>
<path d="M414.564 272.303C414.564 272.303 466.781 241.545 502.565 273.568C524.354 293.065 516.082 324.96 486.846 344.732C459.005 363.568 448.715 275.623 448.715 275.623L414.564 272.303Z" fill="#121E35"/>
<path d="M443.193 264.343C443.193 264.343 392.388 267.076 395.946 305.518C398.312 331.049 438.076 330.205 438.076 330.205L443.193 264.343Z" fill="#121E35"/>
<path d="M434.13 333.984C436.313 341.027 432.388 348.51 425.345 350.692C418.302 352.875 410.819 348.95 408.636 341.907C406.454 334.864 410.379 327.381 417.422 325.198C424.446 323.016 431.93 326.941 434.13 333.984Z" fill="#EA8C8C"/>
<path d="M451.115 372.133L460.818 403.991C464.192 415.179 470.19 419.783 481.176 416.353C490.548 413.437 500.581 405.165 498.857 395.481L481.176 346.088L451.115 372.133Z" fill="#FCA0A0"/>
<path d="M464.835 396.966L453.537 401.882C453.537 401.882 435.966 431.246 469.512 432.346C509.99 433.667 513.292 410.282 519.748 394.619L499.059 392.638L464.835 396.966Z" fill="#FCA0A0"/>
<path d="M456.234 388.97C456.234 388.97 484.332 384.843 484.332 347.336L450.053 368.868L456.234 388.97Z" fill="#121E35"/>
<path d="M462.192 375.031C443.099 379.598 423.767 368.282 419.512 352.82L409.681 316.266C404.344 296.88 415.349 276.76 434.533 270.781C454.195 264.673 478.515 274.577 484.641 294.221L492.234 323.695C498.085 346.511 484.678 368.025 462.192 375.031Z" fill="#FCA0A0"/>
<path d="M459.625 289.048C459.754 312.451 481.983 324.923 481.983 324.923L497.793 292.863C497.793 292.863 459.515 269.826 459.625 289.048Z" fill="#121E35"/>
<path d="M466.1 293.193C466.1 293.193 419.624 288.956 404.786 311.204C404.786 311.204 403.502 265.736 453.372 263.077C503.241 260.418 488.77 295.632 488.77 295.632L466.1 293.193Z" fill="#121E35"/>
<path d="M436.734 337.413L437.541 344.529L442.292 343.576" stroke="#121E35" stroke-width="1.1013" stroke-miterlimit="10" stroke-linecap="round" stroke-linejoin="round"/>
<path d="M428.576 333.305C429.071 335.157 427.989 337.065 426.137 337.56C424.284 338.055 422.377 336.973 421.882 335.121C421.386 333.268 422.469 331.361 424.321 330.866C426.155 330.37 428.063 331.452 428.576 333.305Z" fill="#121E35"/>
<path d="M456.709 325.675C457.204 327.527 456.122 329.435 454.269 329.93C452.417 330.425 450.51 329.343 450.014 327.491C449.519 325.638 450.601 323.731 452.454 323.236C454.306 322.722 456.214 323.823 456.709 325.675Z" fill="#121E35"/>
<path d="M439.633 317.073L460.156 314.983C460.156 314.983 456.928 309.462 448.565 310.397C440.201 311.333 439.633 317.073 439.633 317.073Z" fill="#121E35"/>
<path d="M429.271 320.246L414.818 324.904C414.818 324.904 415.222 319.329 421.128 317.495C427.033 315.679 429.271 320.246 429.271 320.246Z" fill="#121E35"/>
<path d="M436.516 352.196L457.443 347.354C457.443 347.354 455.792 357.313 444.714 357.497C437.048 357.625 436.516 352.196 436.516 352.196Z" fill="white"/>
<path d="M502.066 320.081C502.543 326.885 497.407 332.791 490.603 333.268C483.798 333.745 477.892 328.609 477.415 321.805C476.939 315 482.074 309.094 488.879 308.618C495.683 308.141 501.589 313.276 502.066 320.081Z" fill="#FCA0A0"/>
<path d="M485.688 324.905C485.688 324.905 485.064 315.973 493.703 316.78" stroke="#121E35" stroke-width="0.981" stroke-miterlimit="10" stroke-linecap="round" stroke-linejoin="round"/>
<path d="M81.0123 686.222H26.0993C11.6832 686.222 0 697.905 0 712.321C0 726.738 11.6832 738.421 26.0993 738.421H90.6964L81.0123 686.222Z" fill="#FCA0A0"/>
<path d="M6.03125 695.632L40.1089 639.82L90.6935 646.643L83.192 712.322L6.03125 695.632Z" fill="#FCA0A0"/>
<path d="M67.422 686.222H26.0996" stroke="#121E35" stroke-width="1.1396" stroke-miterlimit="10" stroke-linecap="round" stroke-linejoin="round"/>
<path d="M252.887 686.223H307.8C322.216 686.223 333.9 697.906 333.9 712.322C333.9 726.739 322.216 738.422 307.8 738.422H243.203L252.887 686.223Z" fill="#FCA0A0"/>
<path d="M327.297 694.953L284.379 628.834L243.203 646.643L250.705 712.322L327.297 694.953Z" fill="#FCA0A0"/>
<path d="M256.006 686.223H307.801" stroke="#121E35" stroke-width="1.1396" stroke-miterlimit="10" stroke-linecap="round" stroke-linejoin="round"/>
<path d="M162.337 541.916C162.337 541.916 107.662 541.916 67.4219 581.495V692.404C67.4219 692.404 260.021 695.338 260.021 692.404C260.021 689.469 260.076 574.159 260.076 574.159C260.076 574.159 220.68 541.916 162.337 541.916Z" fill="#734AEA"/>
<path d="M75.5663 574.16C75.5663 574.16 45.8538 598.15 14.5273 650.972C14.5273 650.972 21.2768 681.528 79.638 686.223L75.5663 574.16Z" fill="#734AEA"/>
<path d="M260.08 574.16C260.08 574.16 289.792 598.15 321.118 650.972C321.118 650.972 314.369 681.528 256.008 686.223L260.08 574.16Z" fill="#734AEA"/>
<path d="M251.274 738.422H76.1542C71.3305 738.422 67.4238 734.515 67.4238 729.691V619.132C67.4238 614.308 71.3305 610.401 76.1542 610.401H251.274C256.098 610.401 260.005 614.308 260.005 619.132V729.691C260.023 734.515 256.116 738.422 251.274 738.422Z" fill="#FFE6E9"/>
<path d="M163.734 686.223C170.257 686.223 175.545 680.935 175.545 674.412C175.545 667.888 170.257 662.6 163.734 662.6C157.21 662.6 151.922 667.888 151.922 674.412C151.922 680.935 157.21 686.223 163.734 686.223Z" fill="white"/>
<path d="M182.163 518.549H144.381V560.862H182.163V518.549Z" fill="#FCA0A0"/>
<path d="M142.525 516.275C142.525 516.275 145.863 537.294 161.692 537.679C182.49 538.175 182.142 517.211 182.142 517.211C182.142 517.211 179.299 523.373 163.232 523.41C145.295 523.428 142.525 516.275 142.525 516.275Z" fill="#121E35"/>
<path d="M163.346 501.437C192.367 501.437 215.893 477.312 215.893 447.551C215.893 417.791 192.367 393.666 163.346 393.666C134.325 393.666 110.799 417.791 110.799 447.551C110.799 477.312 134.325 501.437 163.346 501.437Z" fill="#121E35"/>
<path d="M208.757 467.214C208.757 467.214 212.536 461.198 220.349 464.151C228.144 467.104 224.622 486.05 212.921 488.471C212.921 488.471 208.721 489.388 205.438 486.509C205.419 486.527 208.299 472.533 208.757 467.214Z" fill="#FCA0A0"/>
<path d="M218.789 470.847C218.789 470.847 212.259 468.664 207.619 478.293" stroke="#131313" stroke-width="0.7753" stroke-miterlimit="10" stroke-linecap="round" stroke-linejoin="round"/>
<path d="M119.159 467.214C119.159 467.214 115.381 461.198 107.568 464.151C99.7727 467.104 103.294 486.05 114.996 488.471C114.996 488.471 119.196 489.388 122.479 486.509C122.479 486.527 119.599 472.533 119.159 467.214Z" fill="#FCA0A0"/>
<path d="M109.107 470.847C109.107 470.847 115.637 468.664 120.277 478.293" stroke="#131313" stroke-width="0.7753" stroke-miterlimit="10" stroke-linecap="round" stroke-linejoin="round"/>
<path d="M209.49 450.889C209.49 463.031 208.243 488.433 200.375 503.51C192.983 517.669 180.768 525.281 164.738 525.739C148.708 526.198 136.768 520.329 127.212 501.969C117.657 483.61 118.097 451.109 118.097 451.109C118.097 451.109 118.097 407.733 163.308 407.733C210.903 407.733 209.49 450.889 209.49 450.889Z" fill="#FCA0A0"/>
<path d="M119.162 467.213C119.162 467.213 128.809 446.048 120.299 430.806C120.299 430.806 112.578 455.328 119.162 467.213Z" fill="#121E35"/>
<path d="M208.61 467.213C208.61 467.213 198.963 446.048 207.473 430.806C207.473 430.806 215.177 455.328 208.61 467.213Z" fill="#121E35"/>
<path d="M186.764 410.173C186.764 410.173 182.307 435.832 208.847 447.497C208.847 447.497 207.765 417.454 186.764 410.173Z" fill="#121E35"/>
<path d="M192.725 413.383C192.725 413.383 188.745 438.987 153.933 433.283C126.844 428.844 118.572 449.551 118.572 449.551C118.572 449.551 113.767 411.053 157.51 403.167C157.528 403.167 179.904 403.057 192.725 413.383Z" fill="#121E35"/>
<path d="M147.722 471.78C147.722 474.054 145.87 475.907 143.595 475.907C141.321 475.907 139.469 474.054 139.469 471.78C139.469 469.506 141.321 467.653 143.595 467.653C145.87 467.653 147.722 469.506 147.722 471.78Z" fill="#121E35"/>
<path d="M181.853 475.907C184.132 475.907 185.98 474.059 185.98 471.78C185.98 469.501 184.132 467.653 181.853 467.653C179.574 467.653 177.727 469.501 177.727 471.78C177.727 474.059 179.574 475.907 181.853 475.907Z" fill="#121E35"/>
<path d="M160.648 480.785V486.361C160.648 487.773 161.896 488.819 163.235 488.543L166.206 487.92" stroke="#121E35" stroke-width="1.1396" stroke-miterlimit="10" stroke-linecap="round" stroke-linejoin="round"/>
<path d="M155.862 458.978L130.809 461.986C130.809 461.986 132.826 455.346 143.06 454.209C153.295 453.054 155.862 458.978 155.862 458.978Z" fill="#121E35"/>
<path d="M170.314 458.978L195.368 461.986C195.368 461.986 193.351 455.346 183.117 454.209C172.882 453.054 170.314 458.978 170.314 458.978Z" fill="#121E35"/>
<path d="M151.599 483.744C158.275 477.068 158.275 466.245 151.599 459.57C144.924 452.894 134.1 452.894 127.425 459.57C120.749 466.245 120.749 477.068 127.425 483.744C134.1 490.419 144.924 490.419 151.599 483.744Z" stroke="white" stroke-width="1.2497" stroke-miterlimit="10"/>
<path d="M204.548 475.522C206.708 466.331 201.009 457.13 191.818 454.97C182.628 452.81 173.427 458.509 171.267 467.699C169.107 476.89 174.806 486.091 183.996 488.251C193.187 490.411 202.388 484.712 204.548 475.522Z" stroke="white" stroke-width="1.2497" stroke-miterlimit="10"/>
<path d="M156.617 473.082C156.617 473.082 162.651 463.802 170.831 473.082" stroke="white" stroke-width="1.2497" stroke-miterlimit="10"/>
<path d="M149.039 496.1C149.039 496.1 151.552 499.346 162.722 499.346C172.882 499.346 177.486 496.1 177.486 496.1" stroke="#121E35" stroke-width="1.1396" stroke-miterlimit="10" stroke-linecap="round" stroke-linejoin="round"/>
<path d="M162.335 541.916C162.335 541.916 139.262 540.669 109.11 554.003C109.11 554.003 108.486 580.011 160.501 580.011C212.535 580.011 217.157 551.509 217.157 551.509C217.157 551.509 184.125 539.715 162.335 541.916Z" fill="#FCA0A0"/>
<path d="M182.143 411.97C201.086 411.97 216.441 396.614 216.441 377.672C216.441 358.73 201.086 343.375 182.143 343.375C163.201 343.375 147.846 358.73 147.846 377.672C147.846 396.614 163.201 411.97 182.143 411.97Z" fill="#121E35"/>
</g>
<defs>
<clipPath id="clip0_1920_4582">
<rect width="629" height="740" fill="white"/>
</clipPath>
</defs>
</svg>
