<svg width="620" height="636" viewBox="0 0 620 636" fill="none" xmlns="http://www.w3.org/2000/svg">
<path d="M148.742 96.9204C148.742 96.9204 143.703 133.366 100.652 156.121C54.7338 180.388 87.3696 253.369 167.259 255.844C254.02 258.533 301.416 180.371 236.483 82.4453L148.742 96.9204Z" fill="#3A1616"/>
<path d="M175.627 210.458L176.072 147.536H214.512L215.331 211.188L175.627 210.458Z" fill="#D6906E"/>
<path d="M171.211 165.982C169.181 160.409 184.528 191.781 200.464 189.734C214.137 187.989 216.434 163.383 216.434 163.383C216.434 163.383 210.114 172.748 195.674 172.766C179.579 172.784 171.211 165.982 171.211 165.982Z" fill="#3A1616"/>
<path d="M148.297 112.854C153.193 140.896 169.484 164.505 195.639 164.505C221.776 164.505 239.759 141.181 242.981 112.854C246.631 80.7168 221.794 61.7549 195.639 61.7549C169.484 61.7549 143.276 84.0462 148.297 112.854Z" fill="#3A1616"/>
<path d="M154.726 127.472C154.726 127.472 151.326 122.059 144.293 124.712C137.26 127.383 140.447 144.458 150.987 146.63C150.987 146.63 154.762 147.449 157.735 144.867C157.718 144.867 155.136 132.261 154.726 127.472Z" fill="#D6906E"/>
<path d="M145.68 130.747C145.68 130.747 151.573 128.789 155.739 137.46" stroke="#161311" stroke-width="1.0236" stroke-miterlimit="10" stroke-linecap="round" stroke-linejoin="round"/>
<path d="M235.452 127.472C235.452 127.472 238.853 122.059 245.886 124.712C252.919 127.365 249.732 144.458 239.191 146.63C239.191 146.63 235.417 147.449 232.443 144.867C232.443 144.867 235.043 132.261 235.452 127.472Z" fill="#D6906E"/>
<path d="M244.495 130.746C244.495 130.746 238.602 128.788 234.436 137.459" stroke="#161311" stroke-width="1.0236" stroke-miterlimit="10" stroke-linecap="round" stroke-linejoin="round"/>
<path d="M154.049 112.765C154.049 123.697 155.171 144.279 162.275 157.864C168.934 170.612 180.791 177.093 195.231 177.111C209.457 177.111 222.49 167.425 228.205 156.475C236.822 139.917 236.413 112.961 236.413 112.961C236.413 112.961 236.413 73.8799 195.676 73.8799C152.785 73.8799 154.049 112.765 154.049 112.765Z" fill="#D6906E"/>
<path d="M186.06 110.878L163.715 116.646C163.715 116.646 164.73 110.379 173.863 108.1C183.015 105.839 186.06 110.878 186.06 110.878Z" fill="#1A1A1A"/>
<path d="M200.268 110.878L222.612 116.646C222.612 116.646 221.597 110.379 212.464 108.1C203.312 105.839 200.268 110.878 200.268 110.878Z" fill="#1A1A1A"/>
<path d="M191.882 129.376L190.867 137.352H196.671" stroke="#161311" stroke-width="1.0236" stroke-miterlimit="10" stroke-linecap="round" stroke-linejoin="round"/>
<path d="M210.933 144.119H178.387C178.387 144.119 179.313 156.084 194.571 156.119C208.637 156.155 210.933 144.119 210.933 144.119Z" fill="white"/>
<path d="M181.45 123.697C181.45 123.697 175.271 120.545 170.055 123.697" stroke="#161311" stroke-width="1.0236" stroke-miterlimit="10" stroke-linecap="round" stroke-linejoin="round"/>
<path d="M216.987 123.697C216.987 123.697 210.809 120.545 205.592 123.697" stroke="#161311" stroke-width="1.0236" stroke-miterlimit="10" stroke-linecap="round" stroke-linejoin="round"/>
<path d="M235.451 127.471C235.451 127.471 224.608 105.981 232.175 86.8584C232.175 86.8584 239.724 86.9652 239.457 116.806L235.451 127.471Z" fill="#3A1616"/>
<path d="M154.724 127.471C154.724 127.471 165.531 104.627 158 86.8584C158 86.8584 150.451 86.9652 150.718 116.806L154.724 127.471Z" fill="#3A1616"/>
<path d="M243.341 103.471C243.341 103.471 184.586 99.9988 167.564 76.1763C167.564 76.1763 173.119 61.3629 199.292 65.4579C225.465 69.5708 243.341 103.471 243.341 103.471Z" fill="#3A1616"/>
<path d="M191.635 70.0693C191.635 70.0693 175.023 104.592 151.254 103.435C151.254 103.435 164.305 70.4076 191.635 70.0693Z" fill="#3A1616"/>
<path d="M157.645 604.617C157.645 604.617 175.075 518.14 185.313 494.567C186.239 492.43 189.337 492.715 189.96 494.959C192.435 503.95 195.675 530.425 194.233 608.356L194.269 640.208H262.692L273.41 563.542C273.962 557.666 295.933 461.575 240.721 387.49H133.609C133.609 387.49 90.3079 461.985 84.3255 553.091C82.9902 573.37 82.5273 604.332 79.7676 640.208H150.042L157.645 604.617Z" fill="#6F59A0"/>
<path d="M155.738 480.59L190.902 494.958" stroke="#533D85" stroke-width="1.9923" stroke-miterlimit="10"/>
<path d="M105.318 221.535C105.318 221.535 82.8846 224.722 66.4688 280.913L110.678 306.249L136.761 270.373L105.318 221.535Z" fill="#DD4C88"/>
<path d="M110.678 306.249C110.678 306.249 81.3178 352.274 74.3562 360.553C67.1453 369.117 56.2311 373.354 46.7591 367.425C38.2129 362.084 35.0615 351.188 39.4058 342.107L69.8872 282.604L110.678 306.249Z" fill="#D6906E"/>
<path d="M39.7773 221.605L74.9236 335.982L37.4449 352.291L14.9043 223.315L39.7773 221.605Z" fill="#D6906E"/>
<path d="M37.3555 227.301L42.8393 222.013C46.8631 218.132 49.3557 212.933 49.8543 207.378L51.2609 191.87C51.2609 191.87 52.1511 183.698 35.8955 185.745C19.6399 187.793 18.6963 187.9 18.8743 192.725C18.8743 192.725 21.8477 199.419 32.3168 200.772L37.3555 227.301Z" fill="#D6906E"/>
<path d="M16.7933 229.67C16.7933 229.67 0.751317 220.786 0.00352486 192.672C-0.0854981 189.432 1.51691 186.369 4.2232 184.589C8.38947 181.847 20.3898 174.957 26.8172 179.372L38.0875 193.919L37.3575 227.302L16.7933 229.67Z" fill="#D6906E"/>
<path d="M40.4399 189.003L49.3956 143.726C49.9298 141.038 48.2027 138.403 45.5142 137.833C42.8257 137.263 40.1729 138.955 39.5675 141.625L31.6623 175.864L27.8699 176.594L14.7479 141.946C13.8221 139.507 11.0624 138.332 8.67654 139.364C6.5756 140.254 5.47171 142.551 6.05926 144.759L18.9498 192.725L40.4399 189.003Z" fill="#D6906E"/>
<path d="M41.1501 185.407C41.1501 185.407 19.0902 183.307 18.9122 192.707C18.9122 192.707 18.4314 199.74 32.3546 200.755C32.3546 200.755 23.666 203.194 23.3099 212.898" stroke="#BF704F" stroke-width="0.9962" stroke-miterlimit="10"/>
<path d="M62.7812 296.455L72.1109 326.83" stroke="#BF704F" stroke-width="0.9962" stroke-miterlimit="10"/>
<path d="M255.998 287.162C255.998 287.162 290.913 409.96 304.284 512.871L326.789 508.598C326.789 508.598 323.353 357.811 300.67 264.515L255.998 287.162Z" fill="#D6906E"/>
<path d="M326.61 503.452C326.61 503.452 360.475 553.447 319.827 575.917C317.156 577.395 313.773 576.789 311.797 574.457L311.53 574.154C309.34 571.573 309.589 567.816 311.957 565.412C317.726 559.554 325.489 547.43 313.114 531.601C313.114 531.601 306.616 533.257 307.702 546.148C307.987 549.459 305.227 552.255 301.915 551.952C299.654 551.738 297.803 550.118 297.251 547.91C295.114 539.417 291.589 518.337 305.191 507.013L326.61 503.452Z" fill="#D6906E"/>
<path d="M277.505 231.772C277.505 231.772 309.624 242.313 315.269 292.931L263.065 312.73L251.314 280.628L277.505 231.772Z" fill="#DD4C88"/>
<path d="M246.669 220.058L278.023 231.898L240.722 372.981H133.61L105.318 221.535L142.459 212.918L246.669 220.058Z" fill="#DD4C88"/>
<path d="M240.726 372.98H133.613V387.491H240.726V372.98Z" fill="#1A1A1A"/>
<path d="M119.012 294.801L110.68 257.091" stroke="#C12D71" stroke-width="1.9923" stroke-miterlimit="10"/>
<path d="M259.348 302.545L270.6 260.526" stroke="#C12D71" stroke-width="1.9923" stroke-miterlimit="10"/>
<path d="M205.45 203.605L246.685 220.039C246.685 220.039 241.896 236.277 193.503 236.277C151.341 236.277 142.457 212.899 142.457 212.899L182.5 203.605H205.45Z" fill="#D6906E"/>
<path d="M475.584 411.864L520.434 641.187H433.512L400.182 489.635L392.526 489.172L392.401 641.187H305.746L310.162 411.864H475.584Z" fill="#DD4C88"/>
<path d="M377.838 488.104H427.317" stroke="#C12D71" stroke-width="1.9923" stroke-miterlimit="10"/>
<path d="M515.532 250.892L597.327 229.972C613.618 225.396 623.25 208.624 618.995 192.244C614.615 175.365 597.202 165.412 580.43 170.166L498.547 193.419L515.532 250.892Z" fill="#E8ABA2"/>
<path d="M524.544 178.552L444.654 189.056L467.498 270.584L543.79 254.702L524.544 178.552Z" fill="#CFBBEB"/>
<path d="M562.679 77.0131C564.727 64.1938 559.759 47.8136 559.759 47.8136L561.575 19.0414C561.931 16.3173 560.169 13.7535 557.516 13.1125C554.631 12.4181 551.729 14.163 550.999 17.0295L548.596 35.5997L546.05 35.5463L542.596 5.68798C542.328 2.05584 538.981 -0.543625 535.385 0.0973399C532.394 0.631477 530.257 3.26655 530.346 6.29333L532.625 38.6086L530.008 39.125L520.856 6.9165C519.877 3.17754 515.96 1.02318 512.274 2.18047C508.891 3.24875 506.88 6.73845 507.699 10.2103L517.153 47.0836L513.841 47.9917L501.431 22.086C499.989 19.0948 496.286 17.9909 493.437 19.718C491.158 21.1067 490.161 23.9021 491.051 26.4125L503.639 60.8644L493.223 60.5973C488.345 60.6151 484.553 64.8348 485.033 69.6777C485.372 73.0961 487.811 75.9627 491.14 76.8351L504.85 80.1467C504.85 80.1467 514.108 93.0017 529.474 98.5745C529.456 98.6101 561.112 86.8056 562.679 77.0131Z" fill="#E8ABA2"/>
<path d="M503.621 60.8819C503.621 60.8819 523.509 59.7068 535.313 70.9237" stroke="#D8857D" stroke-width="0.9962" stroke-miterlimit="10"/>
<path d="M617.892 188.881L562.68 77.0146L527.818 91.6856L562.947 214.733L617.892 188.881Z" fill="#E8ABA2"/>
<path d="M552.477 178.109L557.889 197.071" stroke="#D8857D" stroke-width="0.9962" stroke-miterlimit="10"/>
<path d="M373.259 184.624L307.881 198.156L310.16 411.864H475.582L480.781 192.298L418.536 186.921L373.259 184.624Z" fill="#CFBBEB"/>
<path d="M478.932 268.271V240.674" stroke="#AB8BDB" stroke-width="1.9923" stroke-miterlimit="10"/>
<path d="M352.162 288.924C340.981 288.924 331.9 279.861 331.9 268.662V248.4H372.406V268.662C372.406 279.861 363.343 288.924 352.162 288.924Z" fill="#AB8BDB"/>
<path d="M260.447 252.46L213.283 337.869C205.022 352.824 210.256 371.626 225.052 380.154C239.652 388.594 258.311 383.947 267.284 369.65L316.247 291.523L260.447 252.46Z" fill="#E8ABA2"/>
<path d="M245.828 264.353L313.486 307.778L324.346 255.913C335.795 237.432 350.359 215.123 332.038 203.372C313.486 191.479 288.808 196.909 276.968 215.479L245.828 264.353Z" fill="#CFBBEB"/>
<path d="M309.033 304.912V246.815" stroke="#AB8BDB" stroke-width="1.9923" stroke-miterlimit="10"/>
<path d="M236.483 384.07L360.314 380.687L368.825 340.68L228.881 322.982L236.483 384.07Z" fill="#E8ABA2"/>
<path d="M291.588 330.871L259.344 326.829" stroke="#D8857D" stroke-width="0.9962" stroke-miterlimit="10"/>
<path d="M360.596 342.318C360.596 342.318 376.442 320.9 395.083 342.229L387.676 356.954L360.596 342.318Z" fill="#E8ABA2"/>
<path d="M379.256 319.6L374.359 349.565L412.141 353.767L418.141 324.977C418.782 321.879 416.645 318.888 413.494 318.496L385.256 315.078C382.354 314.757 379.719 316.751 379.256 319.6Z" fill="#1A1A1A"/>
<path d="M368.574 339.754L413.281 340.858C418.463 340.982 422.593 345.22 422.593 350.401C422.593 354.069 420.492 357.416 417.199 359.001L414.813 360.158C414.813 360.158 419.371 394.004 392.521 398.028C365.654 402.052 350.609 380.829 350.609 380.829L368.574 339.754Z" fill="#E8ABA2"/>
<path d="M421.01 187.01L420.405 119.513H371.389L370.303 185.247L421.01 187.01Z" fill="#E8ABA2"/>
<path d="M367.345 139.221C364.799 133.399 384.366 171.501 404.343 169.364C421.471 167.53 422.183 136.497 422.183 136.497C422.183 136.497 416.112 146.29 398.023 146.325C377.85 146.343 367.345 139.221 367.345 139.221Z" fill="#3A1616"/>
<path d="M446.487 82.2824C441.234 112.372 423.75 137.69 395.708 137.69C367.666 137.69 348.383 112.657 344.929 82.2824C341.012 47.8127 367.666 24.916 395.708 24.916C423.75 24.916 451.881 51.3914 446.487 82.2824Z" fill="#2F1118"/>
<path d="M439.596 97.9697C439.596 97.9697 443.245 92.1476 450.795 95.0142C458.344 97.8807 454.925 116.184 443.619 118.534C443.619 118.534 439.56 119.424 436.391 116.647C436.373 116.629 439.15 103.115 439.596 97.9697Z" fill="#E8ABA2"/>
<path d="M449.302 101.476C449.302 101.476 442.981 99.3752 438.494 108.669" stroke="#161311" stroke-width="1.0982" stroke-miterlimit="10" stroke-linecap="round" stroke-linejoin="round"/>
<path d="M352.996 97.9697C352.996 97.9697 349.346 92.1476 341.796 95.0142C334.247 97.8807 337.666 116.184 348.972 118.534C348.972 118.534 353.031 119.424 356.2 116.647C356.2 116.629 353.423 103.115 352.996 97.9697Z" fill="#E8ABA2"/>
<path d="M343.297 101.476C343.297 101.476 349.618 99.3752 354.104 108.669" stroke="#161311" stroke-width="1.0982" stroke-miterlimit="10" stroke-linecap="round" stroke-linejoin="round"/>
<path d="M440.309 82.1937C440.309 93.9269 439.098 118.497 431.495 133.061C424.356 146.753 412.533 154.106 397.043 154.551C384.687 154.908 366.882 143.317 360.758 131.566C351.517 113.797 351.944 82.4073 351.944 82.4073C351.944 82.4073 351.944 40.4775 395.637 40.4775C441.68 40.4775 440.309 82.1937 440.309 82.1937Z" fill="#E8ABA2"/>
<path d="M380.858 96.4034C380.858 98.2729 379.344 99.7863 377.475 99.7863C375.605 99.7863 374.092 98.2729 374.092 96.4034C374.092 94.5339 375.605 93.0205 377.475 93.0205C379.344 93.0383 380.858 94.5517 380.858 96.4034Z" fill="#1A1A1A"/>
<path d="M415.756 96.4034C415.756 98.2729 414.243 99.7863 412.373 99.7863C410.504 99.7863 408.99 98.2729 408.99 96.4034C408.99 94.5339 410.504 93.0205 412.373 93.0205C414.243 93.0383 415.756 94.5517 415.756 96.4034Z" fill="#1A1A1A"/>
<path d="M386.627 82.6577L362.662 88.8537C362.662 88.8537 363.748 82.1236 373.559 79.6843C383.351 77.2451 386.627 82.6577 386.627 82.6577Z" fill="#1A1A1A"/>
<path d="M401.85 82.6577L425.815 88.8537C425.815 88.8537 424.728 82.1236 414.918 79.6843C405.126 77.2451 401.85 82.6577 401.85 82.6577Z" fill="#1A1A1A"/>
<path d="M391.771 104.967V113.531H397.985" stroke="#161311" stroke-width="1.0982" stroke-miterlimit="10" stroke-linecap="round" stroke-linejoin="round"/>
<path d="M414.475 120.742H377.779C377.779 120.742 378.794 130.392 395.174 130.41C410.273 130.446 414.475 120.742 414.475 120.742Z" fill="white"/>
<path d="M352.996 97.9692C352.996 97.9692 369.358 72.8647 356.503 54.4014C356.503 54.4014 348.402 54.526 348.687 86.5208L352.996 97.9692Z" fill="#2F1118"/>
<path d="M439.597 97.9692C439.597 97.9692 423.234 72.8647 436.089 54.4014C436.089 54.4014 444.19 54.526 443.905 86.5208L439.597 97.9692Z" fill="#2F1118"/>
<path d="M352.139 53.1908C352.139 53.1908 373.273 77.0845 416.787 72.4019C455.655 68.2178 459.02 40.959 449.761 30.1873C436.532 14.7863 407.369 20.5194 391.772 37.7008L352.139 53.1908Z" fill="#2F1118"/>
<path d="M370.301 185.247L396.135 218.47L421.008 187.01L370.301 185.247Z" fill="#E8ABA2"/>
<path d="M370.302 180.547L355.043 188.399L372.278 222.94L389.495 209.942L370.302 180.547Z" fill="#AB8BDB"/>
<path d="M421.134 180.547L438.298 188.63L420.172 222.94L403.08 209.568L421.134 180.547Z" fill="#AB8BDB"/>
</svg>
