<svg width="24" height="18" viewBox="0 0 24 18" fill="none" xmlns="http://www.w3.org/2000/svg">
<g clip-path="url(#clip0_2810_7539)">
<path d="M0 0H24V18H0V0Z" fill="white"/>
<path d="M10.1992 0H13.7992V18H10.1992V0Z" fill="#FF0000"/>
<path d="M0 7.2002H24V10.8002H0V7.2002Z" fill="#FF0000"/>
<g style="mix-blend-mode:multiply">
<path fill-rule="evenodd" clip-rule="evenodd" d="M5.50344 13.9916C5.54094 13.3616 5.65344 12.8254 5.65344 12.8254C5.65344 12.8254 5.28594 12.8629 5.09844 12.8629C4.91469 12.8629 4.54344 12.8254 4.54344 12.8254C4.54344 12.8254 4.65594 13.3616 4.69344 13.9954C4.05969 13.9579 3.52344 13.8454 3.52344 13.8454C3.52344 13.8454 3.56094 14.1229 3.56094 14.4004C3.56094 14.6779 3.52344 14.9554 3.52344 14.9554C3.52344 14.9554 4.05969 14.8429 4.69344 14.8054C4.65594 15.4391 4.54344 15.9754 4.54344 15.9754C4.54344 15.9754 4.82094 15.9379 5.09844 15.9379C5.37594 15.9379 5.65344 15.9754 5.65344 15.9754C5.65344 15.9754 5.54094 15.4391 5.50344 14.8054C6.13719 14.8429 6.67344 14.9554 6.67344 14.9554C6.67344 14.9554 6.63594 14.5879 6.63594 14.4004C6.63594 14.2166 6.67344 13.8454 6.67344 13.8454C6.67344 13.8454 6.13719 13.9579 5.50719 13.9954L5.50344 13.9916ZM19.3034 3.19164C19.3409 2.56164 19.4534 2.02539 19.4534 2.02539C19.4534 2.02539 19.0859 2.06289 18.8984 2.06289C18.7147 2.06289 18.3434 2.02539 18.3434 2.02539C18.3434 2.02539 18.4559 2.56164 18.4934 3.19164C17.8597 3.15414 17.3234 3.04539 17.3234 3.04539C17.3234 3.04539 17.3609 3.32289 17.3609 3.60039C17.3609 3.87789 17.3234 4.15539 17.3234 4.15539C17.3234 4.15539 17.8597 4.04289 18.4934 4.00539C18.4559 4.63914 18.3434 5.17539 18.3434 5.17539C18.3434 5.17539 18.6209 5.13789 18.8984 5.13789C19.1759 5.13789 19.4534 5.17539 19.4534 5.17539C19.4534 5.17539 19.3409 4.63914 19.3034 4.00914C19.9372 4.04664 20.4734 4.15914 20.4734 4.15914C20.4734 4.15914 20.4359 3.78414 20.4359 3.60039C20.4359 3.41664 20.4734 3.04539 20.4734 3.04539C20.4734 3.04539 19.9372 3.15789 19.3034 3.19539V3.19164ZM5.50344 3.19164C5.54094 2.56164 5.65344 2.02539 5.65344 2.02539C5.65344 2.02539 5.28594 2.06289 5.09844 2.06289C4.91469 2.06289 4.54344 2.02539 4.54344 2.02539C4.54344 2.02539 4.65594 2.56164 4.69344 3.19539C4.05969 3.15789 3.52344 3.04539 3.52344 3.04539C3.52344 3.04539 3.56094 3.32289 3.56094 3.60039C3.56094 3.87789 3.52344 4.15539 3.52344 4.15539C3.52344 4.15539 4.05969 4.04289 4.69344 4.00539C4.65594 4.63914 4.54344 5.17539 4.54344 5.17539C4.54344 5.17539 4.82094 5.13789 5.09844 5.13789C5.37594 5.13789 5.65344 5.17539 5.65344 5.17539C5.65344 5.17539 5.54094 4.63914 5.50344 4.00539C6.13719 4.04289 6.67344 4.15539 6.67344 4.15539C6.67344 4.15539 6.63594 3.78789 6.63594 3.60039C6.63594 3.41664 6.67344 3.04539 6.67344 3.04539C6.67344 3.04539 6.13719 3.15789 5.50719 3.19539L5.50344 3.19164ZM19.3034 13.9916C19.3409 13.3616 19.4534 12.8254 19.4534 12.8254C19.4534 12.8254 19.0859 12.8629 18.8984 12.8629C18.7147 12.8629 18.3434 12.8254 18.3434 12.8254C18.3434 12.8254 18.4559 13.3616 18.4934 13.9954C17.8597 13.9579 17.3234 13.8454 17.3234 13.8454C17.3234 13.8454 17.3609 14.1229 17.3609 14.4004C17.3609 14.6779 17.3234 14.9554 17.3234 14.9554C17.3234 14.9554 17.8597 14.8429 18.4934 14.8054C18.4559 15.4391 18.3434 15.9754 18.3434 15.9754C18.3434 15.9754 18.6209 15.9379 18.8984 15.9379C19.1759 15.9379 19.4534 15.9754 19.4534 15.9754C19.4534 15.9754 19.3409 15.4391 19.3034 14.8054C19.9372 14.8429 20.4734 14.9554 20.4734 14.9554C20.4734 14.9554 20.4359 14.5879 20.4359 14.4004C20.4359 14.2166 20.4734 13.8454 20.4734 13.8454C20.4734 13.8454 19.9372 13.9579 19.3034 13.9954V13.9916Z" fill="#FF0000"/>
</g>
</g>
<defs>
<clipPath id="clip0_2810_7539">
<rect width="24" height="18" rx="2" fill="white"/>
</clipPath>
</defs>
</svg>
