<svg width="172" height="50" viewBox="0 0 172 50" fill="none" xmlns="http://www.w3.org/2000/svg">
<path d="M63.898 13.982C64.626 13.8433 65.4233 13.7393 66.29 13.67C67.174 13.5833 68.0493 13.54 68.916 13.54C69.8173 13.54 70.7187 13.618 71.62 13.774C72.5387 13.9127 73.362 14.2073 74.09 14.658C74.818 15.0913 75.4073 15.7067 75.858 16.504C76.326 17.284 76.56 18.3067 76.56 19.572C76.56 20.6813 76.3607 21.6347 75.962 22.432C75.5633 23.212 75.0347 23.862 74.376 24.382C73.7173 24.8847 72.9633 25.2573 72.114 25.5C71.282 25.7253 70.4153 25.838 69.514 25.838C69.4273 25.838 69.2887 25.838 69.098 25.838C68.9073 25.838 68.708 25.838 68.5 25.838C68.292 25.8207 68.084 25.8033 67.876 25.786C67.6853 25.7687 67.5467 25.7513 67.46 25.734V32H63.898V13.982ZM69.202 16.608C68.8553 16.608 68.526 16.6253 68.214 16.66C67.902 16.6773 67.6507 16.7033 67.46 16.738V22.64C67.5293 22.6573 67.6333 22.6747 67.772 22.692C67.9107 22.7093 68.058 22.7267 68.214 22.744C68.37 22.744 68.5173 22.744 68.656 22.744C68.812 22.744 68.9247 22.744 68.994 22.744C69.462 22.744 69.9213 22.7007 70.372 22.614C70.84 22.5273 71.256 22.3713 71.62 22.146C71.984 21.9033 72.27 21.574 72.478 21.158C72.7033 20.742 72.816 20.196 72.816 19.52C72.816 18.948 72.712 18.48 72.504 18.116C72.296 17.7347 72.0187 17.4313 71.672 17.206C71.3427 16.9807 70.9613 16.8247 70.528 16.738C70.0947 16.6513 69.6527 16.608 69.202 16.608ZM79.1238 29.14H83.6998V21.86H79.1238V19H87.0798V29.14H91.8898V32H79.1238V29.14ZM83.0758 15.464C83.0758 14.9267 83.2752 14.4673 83.6738 14.086C84.0725 13.7047 84.6272 13.514 85.3378 13.514C86.0658 13.514 86.6465 13.7047 87.0798 14.086C87.5132 14.4673 87.7298 14.9267 87.7298 15.464C87.7298 16.0187 87.5132 16.478 87.0798 16.842C86.6465 17.1887 86.0658 17.362 85.3378 17.362C84.6272 17.362 84.0725 17.1887 83.6738 16.842C83.2752 16.478 83.0758 16.0187 83.0758 15.464ZM94.1937 29.14H97.4177V21.86H94.1937V19H100.044L100.434 20.716H100.538C101.023 20.144 101.578 19.6673 102.202 19.286C102.826 18.9047 103.554 18.714 104.386 18.714C105.426 18.714 106.24 19.0953 106.83 19.858C107.436 20.6207 107.74 21.8947 107.74 23.68H104.698C104.698 23.056 104.602 22.6053 104.412 22.328C104.238 22.0333 103.952 21.886 103.554 21.886C102.86 21.886 102.297 22.0593 101.864 22.406C101.448 22.7527 101.092 23.1513 100.798 23.602V29.14H106.44V32H94.1937V29.14ZM116.908 28.074H117.09L120.002 19H123.642L118.676 32H115.062L109.472 19H113.398L116.908 28.074ZM138.243 30.622C138.018 30.83 137.723 31.038 137.359 31.246C137.013 31.4367 136.597 31.6187 136.111 31.792C135.643 31.9653 135.123 32.104 134.551 32.208C133.979 32.312 133.373 32.364 132.731 32.364C131.622 32.364 130.625 32.208 129.741 31.896C128.875 31.584 128.138 31.1333 127.531 30.544C126.925 29.9373 126.457 29.218 126.127 28.386C125.815 27.5367 125.659 26.5747 125.659 25.5C125.659 24.356 125.841 23.3593 126.205 22.51C126.569 21.6433 127.063 20.924 127.687 20.352C128.329 19.78 129.074 19.3553 129.923 19.078C130.773 18.7833 131.691 18.636 132.679 18.636C133.338 18.636 134.014 18.7227 134.707 18.896C135.418 19.0693 136.068 19.3727 136.657 19.806C137.247 20.222 137.723 20.7853 138.087 21.496C138.469 22.2067 138.659 23.108 138.659 24.2C138.659 24.9453 138.573 25.7513 138.399 26.618H129.039C129.057 27.1727 129.169 27.6407 129.377 28.022C129.603 28.4033 129.889 28.7153 130.235 28.958C130.599 29.2007 131.007 29.3827 131.457 29.504C131.925 29.608 132.419 29.66 132.939 29.66C133.979 29.66 134.829 29.5387 135.487 29.296C136.163 29.0533 136.709 28.7587 137.125 28.412L138.243 30.622ZM132.627 21.34C132.177 21.34 131.752 21.4007 131.353 21.522C130.955 21.6433 130.591 21.8253 130.261 22.068C129.949 22.2933 129.689 22.5793 129.481 22.926C129.273 23.2727 129.152 23.6627 129.117 24.096H135.513C135.513 23.2467 135.271 22.5793 134.785 22.094C134.317 21.5913 133.598 21.34 132.627 21.34ZM142.211 13.8H147.749V25.812C147.749 27.1467 147.914 28.074 148.243 28.594C148.573 29.114 149.101 29.374 149.829 29.374C150.367 29.374 150.809 29.322 151.155 29.218C151.502 29.0967 151.849 28.932 152.195 28.724L153.469 31.064C153.175 31.2547 152.88 31.4367 152.585 31.61C152.291 31.766 151.979 31.896 151.649 32C151.32 32.1213 150.956 32.208 150.557 32.26C150.176 32.3293 149.743 32.364 149.257 32.364C147.628 32.364 146.406 31.948 145.591 31.116C144.777 30.284 144.369 29.1053 144.369 27.58V16.66H142.211V13.8ZM157.073 29.14H161.649V21.86H157.073V19H165.029V29.14H169.839V32H157.073V29.14ZM161.025 15.464C161.025 14.9267 161.224 14.4673 161.623 14.086C162.022 13.7047 162.576 13.514 163.287 13.514C164.015 13.514 164.596 13.7047 165.029 14.086C165.462 14.4673 165.679 14.9267 165.679 15.464C165.679 16.0187 165.462 16.478 165.029 16.842C164.596 17.1887 164.015 17.362 163.287 17.362C162.576 17.362 162.022 17.1887 161.623 16.842C161.224 16.478 161.025 16.0187 161.025 15.464Z" fill="#383838"/>
<path fill-rule="evenodd" clip-rule="evenodd" d="M33.3954 15.3231C32.8262 13.6465 30.943 12.7934 30.943 12.7934L22.8932 9.08789C23.625 12.217 25.1927 14.2065 26.9327 15.4779C26.9848 15.5504 27.0335 15.6129 27.0888 15.6821C25.3748 16.3244 23.8917 16.0115 22.4573 15.5438L19.4 14.4305L19.3805 14.5952L22.4411 16.0741C22.4411 16.1795 22.4411 16.2882 22.4183 16.4035L19.0227 16.4891L19.0032 16.667L18.9512 17.1314L27.6385 18.1195L30.6503 18.4489C31.5303 18.5448 32.4189 18.3776 33.2061 17.9678C33.9934 17.5581 34.6449 16.9238 35.0801 16.1432C34.7029 15.4944 34.0946 15.3363 33.3954 15.3231Z" fill="#DB0060"/>
<path fill-rule="evenodd" clip-rule="evenodd" d="M29.8309 27.2793C30.4391 24.8682 27.6973 23.7813 27.6973 23.7813L21.1403 21.1265C21.5899 22.8802 22.5731 24.4463 23.9504 25.6028C24.7278 26.2071 25.3892 26.9506 25.9019 27.7964C26.2271 28.3564 26.4125 28.8307 26.3345 29.0843C26.2109 29.5059 24.692 30.0955 22.8251 29.9737L19.7775 29.776V29.9901L22.464 30.7938L22.4348 31.2319L21.807 31.5975L19.2051 32.892V33.1357L22.2754 32.421C23.7364 32.0863 25.2206 31.8661 26.715 31.7622L25.2547 38.3828C28.7511 37.309 30.1659 34.8518 30.7253 32.8063C30.9575 31.9532 31.0778 31.0727 31.0831 30.1878C31.303 29.5718 31.5672 28.9729 31.8734 28.3959L32.1596 27.9051C31.5937 26.8116 29.8309 27.2793 29.8309 27.2793Z" fill="#DB0060"/>
<path fill-rule="evenodd" clip-rule="evenodd" d="M13.7363 40.6325C13.7213 39.7961 13.4534 38.9845 12.9687 38.3071L8.85763 32.7866C8.36308 34.461 8.40062 36.2504 8.96496 37.9019C9.21624 38.5809 9.38234 39.2891 9.45933 40.01C8.82208 39.969 8.18314 40.0563 7.57941 40.2669L0.609375 42.9415C2.19127 43.9782 4.05495 44.4852 5.93691 44.3907C6.713 44.3339 7.49305 44.3748 8.25917 44.5126C7.13707 45.8894 5.74176 46.4131 4.30092 46.7557L1.08098 47.4375L1.15254 47.589L4.55461 47.2234L4.70748 47.51L1.82254 49.4105L1.89735 49.5752L2.09575 50.0001L10.1131 46.1826L12.8874 44.865C13.4983 44.5729 14.0373 44.1467 14.4654 43.6175C14.8935 43.0882 15.2 42.4691 15.3626 41.8051C15.4716 41.3751 15.5176 40.9311 15.4992 40.4876C14.8779 40.1648 14.312 40.313 13.7363 40.6325Z" fill="#DB0060"/>
<path fill-rule="evenodd" clip-rule="evenodd" d="M14.158 21.5679C14.5385 17.5198 2.12386 22.5034 2.12386 22.5034C3.25572 22.5231 8.41738 23.2543 8.27102 23.564C6.75862 26.838 0 27.141 0 27.141L0.107332 27.6648L6.35206 27.5396L6.54721 27.869L4.77462 29.3216L4.82015 29.5389L6.70658 28.5047C7.66281 27.9579 11.5267 27.6384 14.5678 25.0396C15.1793 24.5159 17.2186 22.6055 17.5796 22.342C16.6234 20.7412 15.4492 21.0475 14.158 21.5679Z" fill="#DB0060"/>
<path fill-rule="evenodd" clip-rule="evenodd" d="M1.7705 11.7589V11.9269L5.20511 10.28C7.03299 9.69699 9.25443 11.5745 12.0028 9.10411C12.4679 8.68579 14.3998 7.67788 14.7153 7.53625C14.2925 6.29119 12.5166 6.3373 11.5767 6.47235L10.1489 2.09487L9.72929 2.17392C9.72929 7.9348 10.4318 0 3.1463 0C3.07474 0 3.01945 0.0428195 3.05523 0.105402L7.24765 8.33994L4.32044 8.48158L0.609375 8.33665V8.75496L4.49282 9.95062L1.7705 11.7589Z" fill="#DB0060"/>
<path fill-rule="evenodd" clip-rule="evenodd" d="M50.6825 22.9543C49.4238 20.8101 46.4543 21.5742 46.4543 21.5742L38.2841 23.6197C42.6359 24.9372 44.4898 25.4511 43.6052 25.9254L35.5098 26.3865L35.5423 26.9366L40.7462 28.208L37.3019 30.7969V31.0242L41.696 28.5769C42.7432 28.1717 46.5747 29.7528 50.5492 26.5215C51.1997 26.0011 53.5935 24.4695 54 24.2587C53.2975 22.4998 52.0681 22.6283 50.6825 22.9543Z" fill="#DB0060"/>
</svg>
