<svg width="140" height="144" viewBox="0 0 140 144" fill="none" xmlns="http://www.w3.org/2000/svg">
<circle cx="70" cy="74" r="70" fill="#EDEEEF"/>
<g clip-path="url(#clip0_1942_2365)">
<path d="M70 64.6665V83.3332" stroke="#383838" stroke-width="3" stroke-linecap="round" stroke-linejoin="round"/>
<path d="M78 75.3335L70 83.3335" stroke="#383838" stroke-width="3" stroke-linecap="round" stroke-linejoin="round"/>
<path d="M62 75.3335L70 83.3335" stroke="#383838" stroke-width="3" stroke-linecap="round" stroke-linejoin="round"/>
</g>
<path d="M10.9525 48.3775L11.9213 46.6507L13.4786 47.517C13.5067 47.4914 13.5348 47.4659 13.5629 47.4403C13.8028 47.2579 14.0387 47.0459 14.2707 46.8041C14.498 46.5461 14.7027 46.2549 14.8847 45.9305C15.2135 45.3444 15.3536 44.825 15.3049 44.3722C15.2457 43.9136 15.0169 43.5735 14.6184 43.3518C14.2618 43.1535 13.8971 43.1291 13.5242 43.2787C13.1572 43.4178 12.7783 43.6396 12.3874 43.9439C12.0023 44.2378 11.5938 44.5735 11.1618 44.9511C10.7357 45.3183 10.2852 45.6307 9.81038 45.8883C9.33096 46.1297 8.82092 46.2785 8.28025 46.3348C7.74546 46.3806 7.1687 46.2314 6.54999 45.8872C6.0781 45.6247 5.69805 45.2966 5.40987 44.9028C5.11707 44.4928 4.92011 44.0468 4.81899 43.5648C4.72375 43.0724 4.72665 42.5522 4.82771 42.0043C4.92876 41.4563 5.13782 40.8997 5.45489 40.3346C5.81307 39.6962 6.22304 39.1004 6.68483 38.5471C7.14661 37.9938 7.57988 37.5894 7.98463 37.334L11.1778 39.1103L10.209 40.8371L8.46296 39.8658C8.44534 39.8972 8.42248 39.9257 8.39438 39.9512C8.20228 40.1465 8.01417 40.3714 7.83005 40.626C7.64131 40.8643 7.47355 41.1143 7.32676 41.3759C7.04491 41.8782 6.92141 42.3313 6.95625 42.7352C6.99696 43.1286 7.1851 43.4186 7.52067 43.6053C7.86673 43.7978 8.22327 43.8245 8.59028 43.6854C8.96316 43.5358 9.34736 43.317 9.74289 43.0289C10.1443 42.7304 10.5633 42.4005 10.9999 42.0392C11.4424 41.6674 11.9034 41.3609 12.3828 41.1195C12.8576 40.8618 13.3624 40.7101 13.8972 40.6643C14.4379 40.608 15.0018 40.7432 15.5891 41.0699C16.1553 41.3849 16.5947 41.7667 16.9073 42.2152C17.2093 42.6578 17.4014 43.1492 17.4837 43.6893C17.5554 44.2236 17.5156 44.785 17.3642 45.3736C17.2233 45.9681 16.9855 46.5636 16.6509 47.1601C16.4277 47.5578 16.1878 47.9118 15.9311 48.2222C15.6803 48.5221 15.4255 48.7923 15.1667 49.0328C14.9138 49.2629 14.6733 49.4586 14.4451 49.6201C14.2169 49.7815 14.028 49.9098 13.8782 50.005L10.9525 48.3775Z" fill="#383838"/>
<path d="M22.8282 31.4619L24.1395 29.9784L26.8469 32.3512C26.8002 32.8208 26.6368 33.3318 26.3567 33.8842C26.0846 34.4276 25.7419 34.933 25.3287 35.4006C24.8041 35.994 24.2177 36.4853 23.5694 36.8745C22.92 37.2468 22.2225 37.4652 21.4768 37.5297C20.7221 37.5863 19.9261 37.4631 19.0888 37.1601C18.2425 36.8492 17.3726 36.3022 16.4792 35.5192C15.5497 34.7046 14.8927 33.8895 14.5085 33.0741C14.1231 32.2417 13.9317 31.4436 13.9341 30.6799C13.9275 29.9082 14.0774 29.1859 14.3839 28.5131C14.6813 27.8323 15.0565 27.2357 15.5095 26.7232C15.9864 26.1838 16.4328 25.7693 16.8489 25.4797C17.273 25.1812 17.6509 24.962 17.9828 24.822L20.7985 27.2897L19.4872 28.7732L17.944 27.4207C17.6525 27.6599 17.3756 27.9279 17.1133 28.2246C16.8034 28.5752 16.581 28.9627 16.4462 29.3871C16.3102 29.7945 16.2783 30.2292 16.3504 30.6913C16.4224 31.1533 16.6104 31.6292 16.9143 32.1189C17.2091 32.6007 17.6363 33.0868 18.1958 33.5772C18.6832 34.0043 19.1815 34.3373 19.691 34.5764C20.1914 34.8075 20.6853 34.9372 21.1728 34.9655C21.6602 34.9938 22.1282 34.9173 22.5768 34.736C23.0163 34.5468 23.4189 34.2454 23.7844 33.8318C24.0467 33.5351 24.274 33.2237 24.4662 32.8975L22.8282 31.4619Z" fill="#383838"/>
<path d="M23.126 20.0673C23.3197 19.8651 23.5313 19.6571 23.7611 19.4432C23.9934 19.2125 24.228 18.995 24.4649 18.7908C24.7115 18.5794 24.952 18.3799 25.1864 18.1924C25.4208 18.0048 25.6394 17.8364 25.8424 17.6869C26.3158 17.3383 26.8154 17.0449 27.3411 16.8068C27.8693 16.5519 28.3945 16.4036 28.9165 16.3619C29.4483 16.3131 29.96 16.3983 30.4516 16.6174C30.9529 16.8295 31.411 17.2149 31.826 17.7736C32.1337 18.1878 32.3585 18.5811 32.5005 18.9534C32.645 19.309 32.7307 19.6557 32.7575 19.9937C32.7843 20.3316 32.7558 20.6656 32.672 20.9955C32.5907 21.3087 32.4794 21.6217 32.338 21.9345L38.0716 24.5524L35.7816 26.2388L30.7972 23.7844L29.6087 24.6597L32.5494 28.6191L30.5638 30.0813L23.126 20.0673ZM27.2967 19.3431C27.0938 19.4926 26.8944 19.6468 26.6987 19.8059C26.5126 19.9578 26.3771 20.0874 26.2923 20.1946L28.471 23.128L29.2537 22.5516C29.8045 22.146 30.1608 21.6899 30.3226 21.1832C30.4844 20.6766 30.3507 20.1343 29.9214 19.5563C29.5994 19.1227 29.2137 18.8852 28.7642 18.8436C28.3077 18.7924 27.8185 18.9589 27.2967 19.3431Z" fill="#383838"/>
<path d="M38.3992 17.3342C37.9776 16.4054 37.6857 15.5301 37.5235 14.7082C37.3613 13.8864 37.3467 13.1429 37.4796 12.4777C37.6076 11.8017 37.8777 11.2064 38.2898 10.6918C38.713 10.1724 39.2911 9.74771 40.0243 9.41772C40.8121 9.0631 41.5466 8.91018 42.2277 8.95894C42.9087 9.00771 43.5379 9.218 44.1152 9.5898C44.7035 9.95669 45.2404 10.4717 45.7259 11.1348C46.2224 11.7931 46.669 12.5593 47.0659 13.4334C47.9141 15.3019 48.2176 16.9286 47.9765 18.3136C47.7414 19.6827 46.8962 20.6948 45.4408 21.3498C44.653 21.7045 43.913 21.8598 43.221 21.816C42.54 21.7672 41.9053 21.5594 41.317 21.1925C40.7397 20.8207 40.2083 20.3032 39.7228 19.6401C39.2372 18.977 38.7961 18.2083 38.3992 17.3342ZM40.7629 16.2703C41.0158 16.8276 41.2733 17.3368 41.5354 17.7978C41.8083 18.254 42.0923 18.6328 42.3873 18.9343C42.6883 19.2199 43.0117 19.4099 43.3577 19.5042C43.7145 19.5937 44.1063 19.5423 44.5331 19.3502C44.9161 19.1778 45.1987 18.9585 45.381 18.6923C45.5582 18.4151 45.6491 18.0781 45.6535 17.6814C45.6579 17.2846 45.5758 16.8281 45.4073 16.3117C45.2448 15.7795 45.0098 15.1747 44.7022 14.4972C44.4592 13.9618 44.2066 13.4636 43.9446 13.0025C43.6936 12.5365 43.415 12.1552 43.1091 11.8587C42.8141 11.5572 42.4882 11.3617 42.1313 11.2723C41.7695 11.172 41.3697 11.2203 40.932 11.4173C40.166 11.7621 39.7975 12.3293 39.8265 13.119C39.8555 13.9086 40.1676 14.9591 40.7629 16.2703Z" fill="#383838"/>
<path d="M58.6871 11.7709L60.8694 11.3026L61.9546 16.3165L53.8589 18.0538L51.1935 5.73893L53.6046 5.22152L55.8054 15.3901L59.3077 14.6385L58.6871 11.7709Z" fill="#383838"/>
<path d="M72.7918 10.87H75.0238V16L66.7438 16V3.4L69.2098 3.4V13.804L72.7918 13.804V10.87Z" fill="#383838"/>
<path d="M97.1243 8.41162C97.2277 8.44502 97.4048 8.50497 97.6554 8.59147C97.917 8.6829 98.2035 8.7921 98.5149 8.91908C98.8421 9.04006 99.1724 9.16896 99.5056 9.30579C99.8498 9.44754 100.153 9.57752 100.416 9.69573C101.434 10.1538 102.209 10.6805 102.743 11.276C103.276 11.8714 103.616 12.5176 103.76 13.2145C103.921 13.9054 103.917 14.6404 103.748 15.4196C103.584 16.1879 103.313 16.9872 102.936 17.8177C102.594 18.5716 102.182 19.2747 101.702 19.9269C101.221 20.5791 100.649 21.0982 99.9867 21.4842C99.3397 21.8642 98.5813 22.0689 97.7113 22.0984C96.8572 22.1219 95.8775 21.885 94.7723 21.3875C94.5972 21.3087 94.3754 21.2023 94.1068 21.0682C93.8382 20.9342 93.5666 20.7922 93.292 20.6423C93.0124 20.5033 92.7463 20.3638 92.4936 20.2237C92.2359 20.0946 92.0409 19.9871 91.9086 19.9012L97.1243 8.41162ZM99.5902 11.7323C99.3823 11.6387 99.1749 11.5585 98.968 11.4917C98.7661 11.414 98.6134 11.3584 98.5099 11.325L95.0204 19.0121C95.0592 19.0427 95.1199 19.0832 95.2025 19.1335C95.29 19.1729 95.3751 19.2178 95.4577 19.2681C95.5562 19.3124 95.6467 19.3597 95.7293 19.4101C95.8168 19.4495 95.888 19.4815 95.9427 19.5061C96.5773 19.7918 97.1328 19.9036 97.609 19.8416C98.1011 19.7736 98.527 19.5902 98.8866 19.2915C99.2463 18.9928 99.5626 18.6154 99.8355 18.1592C100.108 17.7031 100.354 17.2346 100.572 16.7538C100.761 16.3386 100.929 15.8947 101.078 15.422C101.238 14.9543 101.309 14.4929 101.291 14.0376C101.285 13.5873 101.156 13.1607 100.904 12.7578C100.652 12.3548 100.214 12.013 99.5902 11.7323Z" fill="#383838"/>
<path d="M107.123 20.5537C107.731 19.7348 108.356 19.0548 108.997 18.5135C109.638 17.9723 110.283 17.5975 110.931 17.3892C111.586 17.1713 112.239 17.1162 112.892 17.224C113.554 17.339 114.209 17.6348 114.856 18.1116C115.552 18.6239 116.044 19.188 116.334 19.8039C116.624 20.4198 116.747 21.0693 116.703 21.7523C116.669 22.4424 116.48 23.16 116.136 23.905C115.801 24.6572 115.348 25.4186 114.776 26.1893C113.552 27.8367 112.274 28.8927 110.943 29.3575C109.628 29.8198 108.328 29.5778 107.043 28.6314C106.347 28.119 105.849 27.5514 105.55 26.9284C105.26 26.3125 105.132 25.6595 105.166 24.9694C105.21 24.2864 105.404 23.5723 105.748 22.8273C106.092 22.0822 106.55 21.3243 107.123 20.5537ZM109.21 22.0907C108.845 22.582 108.525 23.0538 108.248 23.5061C107.982 23.9656 107.788 24.397 107.668 24.8002C107.565 25.201 107.556 25.5748 107.643 25.9215C107.739 26.2753 107.975 26.5909 108.352 26.8685C108.69 27.1175 109.02 27.2564 109.343 27.2852C109.672 27.3044 110.012 27.2193 110.362 27.0299C110.712 26.8405 111.072 26.5468 111.442 26.1489C111.83 25.7485 112.245 25.2496 112.688 24.6523C113.039 24.1803 113.352 23.7181 113.629 23.2658C113.914 22.8205 114.113 22.3927 114.223 21.9823C114.343 21.579 114.355 21.2005 114.259 20.8466C114.171 20.4832 113.933 20.1592 113.547 19.8745C112.87 19.3764 112.193 19.3323 111.515 19.742C110.837 20.1518 110.069 20.9346 109.21 22.0907Z" fill="#383838"/>
<path d="M119.396 31.9694L118.283 32.9929L118.331 33.0468L119.603 32.3389L122.836 30.9414L124.052 32.317L122.202 35.279L121.347 36.459L121.395 36.5129L122.583 35.5196L128.182 31.2822L129.684 32.9815L119.35 40.3151L117.967 38.7507L120.065 35.1173L121.09 33.6682L121.031 33.6007L119.445 34.416L115.488 35.9455L114.057 34.3271L122.675 25.0514L124.308 26.899L119.396 31.9694Z" fill="#383838"/>
<path d="M129.613 42.583L129.569 42.5046L128.316 43.325L123.109 46.2214L121.964 44.1807L132.975 38.0554L134.032 39.9391L129.431 47.4832L129.475 47.5617L130.717 46.6854L136.128 43.6753L137.273 45.716L126.262 51.8413L125.205 49.9575L129.613 42.583Z" fill="#383838"/>
<path d="M136.349 95.0837L134.016 100.845L132.431 100.209L134.044 96.225L131.796 95.3226L130.299 99.0208L128.714 98.3844L130.211 94.6862L126.535 93.2099L127.254 91.4321L136.349 95.0837Z" fill="#383838"/>
<path d="M127.52 99.4837C128.034 99.7689 128.448 100.1 128.761 100.476C129.074 100.853 129.29 101.261 129.408 101.7C129.526 102.139 129.545 102.592 129.465 103.06C129.389 103.541 129.214 104.026 128.94 104.514C128.653 105.027 128.32 105.441 127.942 105.754C127.559 106.075 127.147 106.295 126.707 106.413C126.274 106.536 125.819 106.556 125.342 106.473C124.86 106.397 124.378 106.226 123.897 105.959C123.383 105.674 122.969 105.343 122.656 104.966C122.342 104.59 122.127 104.182 122.009 103.743C121.891 103.304 121.87 102.844 121.946 102.363C122.026 101.895 122.203 101.417 122.476 100.928C122.763 100.415 123.098 99.9981 123.481 99.6768C123.86 99.3637 124.265 99.1457 124.698 99.0227C125.138 98.9043 125.599 98.8826 126.081 98.9579C126.559 99.0413 127.038 99.2165 127.52 99.4837ZM126.604 101.121C126.334 100.971 126.065 100.87 125.796 100.817C125.526 100.763 125.267 100.758 125.018 100.801C124.769 100.845 124.541 100.937 124.334 101.078C124.134 101.224 123.964 101.423 123.823 101.675C123.559 102.148 123.495 102.614 123.633 103.075C123.767 103.544 124.16 103.96 124.813 104.322C125.376 104.634 125.906 104.747 126.404 104.66C126.91 104.578 127.307 104.28 127.594 103.767C127.721 103.539 127.803 103.307 127.839 103.071C127.883 102.839 127.869 102.607 127.795 102.374C127.718 102.15 127.584 101.931 127.392 101.718C127.201 101.506 126.938 101.306 126.604 101.121Z" fill="#383838"/>
<path d="M121.766 105.295L120.736 106.693L123.901 109.006L124.931 107.609L126.174 108.518L124.305 111.053L123.434 110.677L123.401 110.722C123.494 111.114 123.524 111.506 123.491 111.897C123.457 112.289 123.307 112.665 123.042 113.026C122.709 113.476 122.283 113.708 121.763 113.721C121.238 113.742 120.587 113.468 119.811 112.901L120.783 111.583C121.054 111.781 121.281 111.883 121.462 111.888C121.646 111.907 121.801 111.83 121.929 111.657C122.15 111.357 122.255 111.057 122.243 110.759C122.225 110.469 122.165 110.188 122.063 109.917L119.656 108.157L117.853 110.603L116.61 109.694L120.523 104.386L121.766 105.295Z" fill="#383838"/>
<path d="M108.217 117.572L110.942 120.877C111.12 121.093 111.277 121.254 111.413 121.36C111.555 121.473 111.681 121.545 111.791 121.576C111.899 121.62 111.999 121.623 112.089 121.585C112.178 121.561 112.258 121.519 112.33 121.46C112.453 121.36 112.536 121.226 112.579 121.058C112.615 120.896 112.601 120.739 112.536 120.587L109.311 116.677L110.612 115.613L115.066 121.014L114.036 121.856L113.394 121.386L113.362 121.412C113.426 121.71 113.406 122.009 113.303 122.31C113.207 122.618 113.018 122.887 112.736 123.118C112.497 123.313 112.222 123.441 111.91 123.503C111.599 123.565 111.284 123.485 110.967 123.262C111.067 123.602 111.058 123.929 110.941 124.242C110.83 124.562 110.644 124.828 110.384 125.041C110.189 125.2 109.992 125.313 109.792 125.38C109.592 125.459 109.377 125.478 109.149 125.436C108.92 125.394 108.679 125.277 108.426 125.087C108.171 124.91 107.892 124.637 107.589 124.27L104.543 120.576L105.843 119.513L108.693 122.969C108.961 123.293 109.202 123.476 109.417 123.517C109.625 123.563 109.805 123.525 109.957 123.401C110.087 123.295 110.172 123.171 110.213 123.029C110.259 122.895 110.244 122.744 110.167 122.578L106.916 118.635L108.217 117.572Z" fill="#383838"/>
<path d="M106.277 123.379C106.591 123.875 106.796 124.364 106.89 124.845C106.985 125.325 106.978 125.787 106.871 126.228C106.764 126.67 106.564 127.077 106.269 127.45C105.972 127.835 105.586 128.176 105.112 128.474C104.614 128.786 104.123 128.989 103.641 129.083C103.151 129.181 102.684 129.177 102.241 129.069C101.802 128.97 101.393 128.769 101.014 128.467C100.628 128.17 100.287 127.789 99.9922 127.324C99.6777 126.827 99.4732 126.338 99.3787 125.857C99.2843 125.377 99.2905 124.915 99.3974 124.474C99.5044 124.032 99.7066 123.618 100.004 123.233C100.299 122.861 100.683 122.526 101.157 122.228C101.655 121.916 102.149 121.71 102.639 121.612C103.122 121.519 103.582 121.522 104.021 121.621C104.464 121.728 104.879 121.931 105.266 122.228C105.645 122.53 105.982 122.913 106.277 123.379ZM104.688 124.376C104.523 124.116 104.335 123.898 104.124 123.721C103.913 123.545 103.688 123.417 103.449 123.335C103.21 123.254 102.965 123.226 102.716 123.25C102.471 123.283 102.226 123.376 101.981 123.529C101.523 123.817 101.243 124.196 101.144 124.667C101.036 125.142 101.182 125.695 101.581 126.326C101.926 126.87 102.337 127.224 102.816 127.386C103.299 127.556 103.79 127.485 104.288 127.173C104.509 127.034 104.692 126.869 104.837 126.679C104.987 126.497 105.085 126.286 105.133 126.047C105.172 125.813 105.159 125.557 105.093 125.278C105.028 125 104.892 124.699 104.688 124.376Z" fill="#383838"/>
<path d="M98.4335 125.726L96.8598 126.459L98.5264 130.007L100.1 129.274L100.755 130.668L97.8994 131.998L97.3162 131.25L97.2654 131.274C97.1594 131.663 96.9978 132.021 96.7805 132.349C96.5633 132.677 96.2516 132.935 95.8454 133.124C95.3378 133.361 94.8528 133.36 94.3906 133.122C93.9199 132.889 93.4801 132.337 93.0714 131.467L94.5563 130.775C94.6991 131.079 94.8488 131.277 95.0054 131.369C95.1574 131.473 95.3308 131.48 95.5254 131.389C95.8638 131.232 96.0991 131.019 96.2313 130.752C96.3549 130.488 96.4371 130.213 96.4778 129.926L95.21 127.227L92.456 128.51L91.8012 127.116L97.7787 124.332L98.4335 125.726Z" fill="#383838"/>
<path d="M84.393 130.195C84.474 130.051 84.5904 129.896 84.7425 129.73C84.8885 129.575 85.0715 129.413 85.2914 129.244C85.5025 129.078 85.746 128.921 86.0219 128.774C86.2978 128.626 86.6002 128.499 86.9289 128.394C87.4975 128.211 88.0344 128.126 88.5393 128.14C89.0354 128.157 89.4879 128.267 89.8968 128.468C90.3086 128.679 90.6681 128.97 90.9751 129.342C91.2762 129.726 91.516 130.193 91.6946 130.743C91.8848 131.329 91.9571 131.869 91.9117 132.365C91.8691 132.868 91.7354 133.318 91.5106 133.714C91.2769 134.113 90.9655 134.453 90.5762 134.735C90.1898 135.026 89.7434 135.253 89.237 135.416C88.8993 135.525 88.5384 135.592 88.1542 135.618C87.7611 135.646 87.3775 135.598 87.0034 135.473C86.6322 135.357 86.2943 135.147 85.9896 134.843C85.676 134.542 85.4285 134.112 85.247 133.553C85.1232 133.171 85.0336 132.744 84.9785 132.271L89.7763 130.728C89.6752 130.447 89.5397 130.226 89.3697 130.064C89.1908 129.906 88.9924 129.794 88.7744 129.727C88.5475 129.662 88.3084 129.636 88.0572 129.648C87.8001 129.672 87.5382 129.727 87.2717 129.813C86.7386 129.984 86.3234 130.187 86.0261 130.42C85.7199 130.655 85.489 130.896 85.3334 131.142L84.393 130.195ZM88.8142 134.023C89.0453 133.948 89.2528 133.847 89.437 133.719C89.6212 133.592 89.7776 133.438 89.906 133.26C90.0285 133.093 90.1143 132.904 90.1633 132.692C90.2123 132.48 90.2097 132.26 90.1554 132.032L86.8769 133.087C87.0181 133.522 87.2533 133.824 87.5828 133.992C87.9062 134.173 88.3167 134.183 88.8142 134.023Z" fill="#383838"/>
<path d="M75.7657 132.44L73.2925 132.594L73.6929 138.965L76.1661 138.811L76.2733 140.516L69.3986 140.944L69.2915 139.24L71.7786 139.085L71.3782 132.713L68.891 132.868L68.7839 131.164L75.6585 130.735L75.7657 132.44Z" fill="#383838"/>
<path d="M68.1618 138.001L65.7165 137.849L65.5649 136.914L65.509 136.91C65.276 137.195 64.9522 137.437 64.5376 137.635C64.123 137.834 63.6363 137.916 63.0773 137.881C62.7327 137.859 62.4142 137.793 62.122 137.681C61.8204 137.569 61.5693 137.399 61.3685 137.171C61.1677 136.944 61.0185 136.64 60.9208 136.26C60.8132 135.888 60.7764 135.432 60.8104 134.892L61.0835 130.547L62.8999 130.66L62.6505 134.628C62.6148 135.196 62.7195 135.614 62.9645 135.882C63.2002 136.149 63.5137 136.295 63.9049 136.319C64.2496 136.341 64.5727 136.258 64.8744 136.071C65.1662 135.893 65.3726 135.658 65.4938 135.366L65.7784 130.839L67.5948 130.952L67.2524 136.402L68.2584 136.464L68.1618 138.001Z" fill="#383838"/>
<path d="M60.1636 130.228L59.8753 131.741L58.252 131.434L57.5183 135.285L59.1553 135.594L58.8671 137.107L57.2301 136.798L57.1567 137.183C57.0746 137.614 56.9305 137.971 56.7243 138.255C56.509 138.538 56.2583 138.756 55.9723 138.911C55.6862 139.066 55.374 139.159 55.0355 139.19C54.6861 139.229 54.3372 139.215 53.9887 139.149C53.3559 139.03 52.8482 138.877 52.4656 138.69C52.0722 138.512 51.7573 138.319 51.521 138.113L52.3032 136.85C52.4949 136.991 52.7067 137.126 52.9386 137.255C53.1614 137.383 53.4653 137.483 53.8505 137.556C54.3457 137.649 54.7161 137.601 54.9615 137.409C55.196 137.226 55.3561 136.909 55.4417 136.46L52.5528 135.914L52.841 134.402L55.7299 134.947L56.4637 131.097L53.561 130.548L53.8492 129.035L60.1636 130.228Z" fill="#383838"/>
<path d="M52.1003 132.039C51.9188 132.599 51.6731 133.069 51.3631 133.449C51.0532 133.83 50.6937 134.121 50.2848 134.323C49.8759 134.525 49.4337 134.633 48.9583 134.646C48.4711 134.666 47.9609 134.59 47.4279 134.419C46.8681 134.239 46.3979 133.994 46.0173 133.685C45.6278 133.374 45.3324 133.014 45.1311 132.606C44.927 132.207 44.8199 131.766 44.8101 131.282C44.7913 130.796 44.8669 130.291 45.0368 129.767C45.2183 129.208 45.464 128.738 45.774 128.357C46.0839 127.976 46.4433 127.685 46.8523 127.483C47.2612 127.281 47.7092 127.171 48.1964 127.151C48.6719 127.137 49.1761 127.216 49.7092 127.388C50.269 127.568 50.7436 127.813 51.1331 128.125C51.5138 128.434 51.8061 128.788 52.0103 129.187C52.2116 129.595 52.3216 130.042 52.3404 130.528C52.3503 131.012 52.2702 131.516 52.1003 132.039ZM50.3144 131.465C50.4095 131.172 50.4574 130.888 50.458 130.614C50.4587 130.34 50.4138 130.085 50.3233 129.85C50.2327 129.615 50.0981 129.41 49.9194 129.235C49.7379 129.068 49.5094 128.941 49.2339 128.852C48.7186 128.687 48.2477 128.716 47.8213 128.942C47.386 129.165 47.0531 129.631 46.8227 130.341C46.6239 130.954 46.6151 131.495 46.7962 131.965C46.9744 132.444 47.3434 132.774 47.9031 132.954C48.1519 133.034 48.3959 133.068 48.635 133.057C48.8713 133.055 49.0968 132.995 49.3115 132.877C49.5172 132.757 49.7063 132.583 49.8787 132.354C50.0511 132.125 50.1963 131.829 50.3144 131.465Z" fill="#383838"/>
<path d="M45.2563 127.554L43.6826 126.821L42.016 130.369L43.5897 131.102L42.9349 132.496L40.0794 131.166L40.2819 130.241L40.2311 130.217C39.8633 130.385 39.4834 130.492 39.0915 130.536C38.6997 130.58 38.3007 130.507 37.8945 130.318C37.3869 130.081 37.0765 129.71 36.9635 129.205C36.842 128.695 36.9856 128.005 37.3943 127.135L38.8791 127.827C38.7363 128.131 38.6796 128.372 38.7092 128.551C38.7264 128.734 38.8322 128.87 39.0268 128.961C39.3653 129.119 39.6799 129.162 39.9708 129.092C40.2532 129.017 40.5179 128.904 40.7649 128.751L42.0328 126.052L39.2788 124.77L39.9336 123.376L45.911 126.16L45.2563 127.554Z" fill="#383838"/>
<path d="M36.6746 121.246L34.383 124.866C34.2332 125.103 34.1292 125.302 34.0709 125.463C34.0077 125.633 33.9788 125.775 33.9842 125.888C33.9767 126.005 34.005 126.1 34.0691 126.173C34.1202 126.249 34.1853 126.312 34.2644 126.362C34.3988 126.446 34.5527 126.482 34.7262 126.47C34.8918 126.453 35.0368 126.389 35.1612 126.28L37.8722 121.998L39.2951 122.891L35.5506 128.806L34.4241 128.099L34.67 127.344L34.6345 127.321C34.3711 127.476 34.0799 127.552 33.7607 127.55C33.4366 127.556 33.1204 127.462 32.8122 127.268C32.5513 127.105 32.3422 126.885 32.185 126.61C32.0277 126.335 32.0055 126.013 32.1182 125.643C31.8249 125.844 31.5108 125.939 31.1759 125.927C30.8359 125.923 30.5237 125.832 30.2391 125.653C30.0257 125.519 29.856 125.369 29.7299 125.201C29.5909 125.037 29.5056 124.84 29.474 124.611C29.4424 124.382 29.4774 124.117 29.5789 123.817C29.6675 123.52 29.8391 123.171 30.0938 122.768L32.655 118.723L34.0779 119.616L31.6814 123.401C31.4567 123.756 31.3587 124.042 31.3874 124.258C31.4082 124.47 31.5016 124.628 31.6676 124.732C31.8099 124.821 31.9549 124.862 32.1026 124.856C32.2453 124.857 32.3839 124.796 32.5183 124.671L35.2518 120.353L36.6746 121.246Z" fill="#383838"/>
<path d="M28.0041 123.1C27.6082 122.994 27.1838 122.833 26.7309 122.62C26.2707 122.4 25.7805 122.078 25.2603 121.652C24.8846 121.345 24.6053 121.038 24.4223 120.732C24.2262 120.427 24.117 120.127 24.0946 119.831C24.065 119.53 24.1091 119.234 24.2269 118.945C24.3446 118.655 24.5223 118.367 24.7598 118.079C25.0626 117.711 25.3354 117.41 25.5781 117.174C25.8135 116.933 26.0144 116.711 26.1806 116.51C26.3053 116.358 26.4376 116.183 26.5776 115.984C26.6463 115.872 26.7156 115.766 26.7856 115.666L26.0811 115.09L27.0609 113.902L28.86 115.373L28.3952 116.223L28.4494 116.267C28.778 116.162 29.1443 116.136 29.5482 116.189C29.9462 116.249 30.3728 116.465 30.828 116.837C31.3699 117.28 31.681 117.776 31.7614 118.324C31.8418 118.872 31.6861 119.384 31.2942 119.859C31.0448 120.161 30.7768 120.376 30.4903 120.504C30.1906 120.632 29.8796 120.679 29.5572 120.645C29.2217 120.612 28.8791 120.506 28.5294 120.329C28.1665 120.153 27.8008 119.914 27.4323 119.613C27.3023 119.506 27.1709 119.387 27.0383 119.254C26.9057 119.122 26.7405 118.963 26.5429 118.777C26.469 118.837 26.4024 118.903 26.343 118.975L26.1738 119.18C25.9482 119.454 25.8673 119.713 25.9313 119.959C25.9893 120.211 26.1736 120.464 26.4843 120.718C26.8528 121.02 27.2238 121.245 27.5972 121.393C27.9707 121.542 28.2971 121.652 28.5767 121.724L28.0041 123.1ZM29.4197 117.621C29.0729 117.337 28.7623 117.186 28.4879 117.166C28.2076 117.154 27.9684 117.188 27.7701 117.267L27.2357 117.915C27.2961 117.988 27.3926 118.091 27.5252 118.224C27.6519 118.364 27.7983 118.501 27.9645 118.637C28.1018 118.75 28.251 118.847 28.412 118.931C28.5671 119.021 28.7226 119.082 28.8785 119.113C29.0284 119.152 29.1716 119.154 29.3078 119.121C29.4441 119.088 29.5627 119.01 29.6637 118.887C29.83 118.686 29.9028 118.48 29.8822 118.27C29.8484 118.062 29.6943 117.845 29.4197 117.621Z" fill="#383838"/>
<path d="M22.2057 116.496L23.1609 117.5L22.0406 118.556L21.0854 117.552L19.9243 118.647L18.2931 117.684L19.831 116.234L17.3029 113.576L18.4232 112.519L20.9513 115.177L22.4077 113.803C22.9305 113.31 23.2174 112.853 23.2685 112.433C23.3128 112.019 23.1677 111.637 22.8332 111.285C22.6595 111.102 22.4815 110.956 22.2993 110.846C22.1102 110.742 21.9271 110.664 21.7498 110.613C21.5661 110.556 21.3885 110.518 21.217 110.5C21.039 110.475 20.8775 110.455 20.7324 110.437L21.0701 108.964C21.3152 108.951 21.5791 108.978 21.8618 109.045C22.1313 109.112 22.4066 109.205 22.6879 109.324C22.9559 109.444 23.2166 109.589 23.47 109.761C23.7234 109.932 23.9498 110.123 24.1492 110.332C24.8697 111.09 25.2027 111.86 25.1484 112.642C25.0809 113.424 24.5855 114.251 23.6621 115.122L22.2057 116.496Z" fill="#383838"/>
<path d="M20.3941 108.545L18.9318 106.561L15.7673 108.875L17.2295 110.858L15.9863 111.767L13.444 108.319L17.8518 105.096L16.3147 103.012L17.558 102.103L21.6373 107.636L20.3941 108.545ZM13.1864 111.178C12.9528 111.349 12.6895 111.408 12.3963 111.356C12.1032 111.305 11.843 111.125 11.6159 110.817C11.3833 110.502 11.2806 110.189 11.3079 109.88C11.3352 109.571 11.4657 109.331 11.6992 109.161C11.9403 108.984 12.2092 108.932 12.5059 109.005C12.7951 109.082 13.056 109.279 13.2886 109.594C13.5157 109.902 13.6176 110.198 13.5943 110.481C13.5635 110.769 13.4275 111.001 13.1864 111.178Z" fill="#383838"/>
<path d="M14.4079 103.347C13.8937 103.632 13.3934 103.808 12.9069 103.875C12.4204 103.942 11.9586 103.91 11.5216 103.779C11.0846 103.648 10.6874 103.425 10.3299 103.111C9.95968 102.794 9.63786 102.391 9.36443 101.902C9.07732 101.389 8.89965 100.89 8.83141 100.405C8.75862 99.9113 8.78758 99.4469 8.91829 99.0115C9.04084 98.5806 9.26334 98.1851 9.58578 97.8247C9.90367 97.4563 10.3034 97.1385 10.7849 96.8713C11.2991 96.5861 11.7994 96.4099 12.2859 96.3428C12.7724 96.2757 13.2342 96.3077 13.6712 96.4389C14.1082 96.57 14.5118 96.7944 14.882 97.112C15.2395 97.426 15.555 97.8274 15.8284 98.3161C16.1155 98.8292 16.2955 99.3324 16.3682 99.8257C16.4365 100.311 16.4093 100.769 16.2868 101.2C16.1561 101.635 15.9318 102.037 15.6139 102.406C15.2914 102.766 14.8894 103.08 14.4079 103.347ZM13.4919 101.71C13.7612 101.56 13.9897 101.385 14.1772 101.185C14.3647 100.985 14.5054 100.768 14.5993 100.535C14.6932 100.301 14.7345 100.06 14.723 99.8098C14.7034 99.5645 14.623 99.3156 14.4817 99.0631C14.2174 98.5907 13.8522 98.2916 13.3862 98.1659C12.9156 98.0321 12.3538 98.1463 11.7009 98.5085C11.1378 98.8209 10.7623 99.2107 10.5744 99.6778C10.3784 100.149 10.424 100.642 10.7111 101.155C10.8387 101.383 10.9939 101.574 11.1767 101.729C11.3514 101.888 11.5573 101.998 11.7944 102.059C12.0269 102.111 12.2843 102.113 12.5666 102.063C12.8488 102.013 13.1573 101.895 13.4919 101.71Z" fill="#383838"/>
<path d="M7.53808 97.8049L6.61846 95.5341L7.39709 94.9951L7.37607 94.9432C7.01834 94.8555 6.66022 94.6674 6.3017 94.3789C5.94319 94.0904 5.65884 93.6866 5.44864 93.1675C5.31902 92.8475 5.24146 92.5316 5.21597 92.22C5.18697 91.8998 5.23179 91.6001 5.35042 91.3212C5.46905 91.0422 5.67882 90.777 5.97973 90.5254C6.26847 90.2687 6.66402 90.0394 7.16637 89.8377L11.2068 88.2154L11.89 89.9023L8.20029 91.3838C7.67196 91.5959 7.33991 91.8701 7.20415 92.2062C7.06488 92.5337 7.06882 92.8791 7.21596 93.2424C7.34558 93.5625 7.55997 93.8184 7.85912 94.01C8.1461 94.1965 8.44744 94.2817 8.76314 94.2656L12.9725 92.5754L13.6556 94.2624L8.58882 96.2968L8.96718 97.2311L7.53808 97.8049Z" fill="#383838"/>
<circle cx="133" cy="72" r="3" fill="#383838"/>
<circle cx="7" cy="71" r="3" fill="#383838"/>
<defs>
<clipPath id="clip0_1942_2365">
<rect width="32" height="32" fill="white" transform="translate(54 58)"/>
</clipPath>
</defs>
</svg>
