<svg width="53" height="71" viewBox="0 0 53 71" fill="none" xmlns="http://www.w3.org/2000/svg">
<path d="M51.1811 0.958742C46.6862 1.33561 42.4191 2.31604 38.2032 3.89067C37.2614 4.24327 37.7409 5.72956 38.7015 5.55624C40.5934 5.22107 42.4764 4.82825 44.3415 4.39828C36.9405 9.90182 29.0331 18.6321 27.7303 27.7429C25.1407 28.631 22.6707 29.9137 20.4719 31.2571C6.59843 39.7656 2.06293 55.2226 0.434266 70.5029C0.398867 70.8831 0.969819 70.9291 1.02568 70.558C2.49323 61.0505 4.23409 51.2774 9.72159 43.1386C13.6432 37.3253 20.3204 31.4347 27.5879 29.0435C27.4376 31.0393 27.6201 33.0447 28.2086 35.0382C29.5152 39.4635 33.2456 43.2551 38.0962 43.025C42.0696 42.8339 45.643 39.9212 45.6162 35.7855C45.5856 31.0033 41.3733 27.4295 36.9321 26.6965C34.5962 26.3085 32.1963 26.5325 29.8622 27.1176C29.901 26.9295 29.9398 26.7414 29.9927 26.5546C32.6225 16.6156 40.6597 8.24545 49.2955 3.13383C49.3852 3.08537 49.4481 3.02022 49.5046 2.94737C49.7197 2.92479 49.9285 2.8945 50.1436 2.87192C49.5863 4.81559 48.7811 6.52313 47.6058 8.23883C46.9571 9.17977 48.4171 10.2034 49.0657 9.26247C50.6611 6.92543 51.6006 4.69068 52.2058 1.92768C52.3403 1.32236 51.6818 0.92014 51.1811 0.958742ZM35.4491 27.9787C38.6931 28.2239 41.7563 29.7235 43.2593 32.7254C45.5463 37.2988 41.8784 41.8361 36.9552 41.3209C30.7315 40.6633 28.9321 33.8273 29.6301 28.4666C31.5529 28.0278 33.5097 27.8336 35.4491 27.9787Z" fill="#383838"/>
</svg>
